<?xml version="1.0" encoding="utf-8" standalone="no"?>
<!DOCTYPE svg PUBLIC "-//W3C//DTD SVG 1.1//EN"
  "http://www.w3.org/Graphics/SVG/1.1/DTD/svg11.dtd">
<!-- Created with matplotlib (https://matplotlib.org/) -->
<svg height="648pt" version="1.1" viewBox="0 0 2304 648" width="2304pt" xmlns="http://www.w3.org/2000/svg" xmlns:xlink="http://www.w3.org/1999/xlink">
 <metadata>
  <rdf:RDF xmlns:cc="http://creativecommons.org/ns#" xmlns:dc="http://purl.org/dc/elements/1.1/" xmlns:rdf="http://www.w3.org/1999/02/22-rdf-syntax-ns#">
   <cc:Work>
    <dc:type rdf:resource="http://purl.org/dc/dcmitype/StillImage"/>
    <dc:date>2021-02-20T18:09:43.216943</dc:date>
    <dc:format>image/svg+xml</dc:format>
    <dc:creator>
     <cc:Agent>
      <dc:title>Matplotlib v3.3.4, https://matplotlib.org/</dc:title>
     </cc:Agent>
    </dc:creator>
   </cc:Work>
  </rdf:RDF>
 </metadata>
 <defs>
  <style type="text/css">*{stroke-linecap:butt;stroke-linejoin:round;}</style>
 </defs>
 <g id="figure_1">
  <g id="patch_1">
   <path d="M 0 648 
L 2304 648 
L 2304 0 
L 0 0 
z
" style="fill:#ffffff;"/>
  </g>
  <g id="axes_1">
   <g id="patch_2">
    <path d="M 66.675 620.2 
L 2293.2 620.2 
L 2293.2 27.8 
L 66.675 27.8 
z
" style="fill:#e5e5e5;"/>
   </g>
   <g id="matplotlib.axis_1">
    <g id="xtick_1">
     <g id="line2d_1">
      <path clip-path="url(#p759ea0c4b1)" d="M 184.705156 620.2 
L 184.705156 27.8 
" style="fill:none;stroke:#ffffff;stroke-linecap:square;stroke-width:0.8;"/>
     </g>
     <g id="line2d_2">
      <defs>
       <path d="M 0 0 
L 0 3.5 
" id="m36c4f5244a" style="stroke:#555555;stroke-width:0.8;"/>
      </defs>
      <g>
       <use style="fill:#555555;stroke:#555555;stroke-width:0.8;" x="184.705156" xlink:href="#m36c4f5244a" y="620.2"/>
      </g>
     </g>
     <g id="text_1">
      <!-- Oliver Janich oeffentlich -->
      <g style="fill:#555555;" transform="translate(125.148906 634.798437)scale(0.1 -0.1)">
       <defs>
        <path d="M 39.40625 66.21875 
Q 28.65625 66.21875 22.328125 58.203125 
Q 16.015625 50.203125 16.015625 36.375 
Q 16.015625 22.609375 22.328125 14.59375 
Q 28.65625 6.59375 39.40625 6.59375 
Q 50.140625 6.59375 56.421875 14.59375 
Q 62.703125 22.609375 62.703125 36.375 
Q 62.703125 50.203125 56.421875 58.203125 
Q 50.140625 66.21875 39.40625 66.21875 
z
M 39.40625 74.21875 
Q 54.734375 74.21875 63.90625 63.9375 
Q 73.09375 53.65625 73.09375 36.375 
Q 73.09375 19.140625 63.90625 8.859375 
Q 54.734375 -1.421875 39.40625 -1.421875 
Q 24.03125 -1.421875 14.8125 8.828125 
Q 5.609375 19.09375 5.609375 36.375 
Q 5.609375 53.65625 14.8125 63.9375 
Q 24.03125 74.21875 39.40625 74.21875 
z
" id="DejaVuSans-79"/>
        <path d="M 9.421875 75.984375 
L 18.40625 75.984375 
L 18.40625 0 
L 9.421875 0 
z
" id="DejaVuSans-108"/>
        <path d="M 9.421875 54.6875 
L 18.40625 54.6875 
L 18.40625 0 
L 9.421875 0 
z
M 9.421875 75.984375 
L 18.40625 75.984375 
L 18.40625 64.59375 
L 9.421875 64.59375 
z
" id="DejaVuSans-105"/>
        <path d="M 2.984375 54.6875 
L 12.5 54.6875 
L 29.59375 8.796875 
L 46.6875 54.6875 
L 56.203125 54.6875 
L 35.6875 0 
L 23.484375 0 
z
" id="DejaVuSans-118"/>
        <path d="M 56.203125 29.59375 
L 56.203125 25.203125 
L 14.890625 25.203125 
Q 15.484375 15.921875 20.484375 11.0625 
Q 25.484375 6.203125 34.421875 6.203125 
Q 39.59375 6.203125 44.453125 7.46875 
Q 49.3125 8.734375 54.109375 11.28125 
L 54.109375 2.78125 
Q 49.265625 0.734375 44.1875 -0.34375 
Q 39.109375 -1.421875 33.890625 -1.421875 
Q 20.796875 -1.421875 13.15625 6.1875 
Q 5.515625 13.8125 5.515625 26.8125 
Q 5.515625 40.234375 12.765625 48.109375 
Q 20.015625 56 32.328125 56 
Q 43.359375 56 49.78125 48.890625 
Q 56.203125 41.796875 56.203125 29.59375 
z
M 47.21875 32.234375 
Q 47.125 39.59375 43.09375 43.984375 
Q 39.0625 48.390625 32.421875 48.390625 
Q 24.90625 48.390625 20.390625 44.140625 
Q 15.875 39.890625 15.1875 32.171875 
z
" id="DejaVuSans-101"/>
        <path d="M 41.109375 46.296875 
Q 39.59375 47.171875 37.8125 47.578125 
Q 36.03125 48 33.890625 48 
Q 26.265625 48 22.1875 43.046875 
Q 18.109375 38.09375 18.109375 28.8125 
L 18.109375 0 
L 9.078125 0 
L 9.078125 54.6875 
L 18.109375 54.6875 
L 18.109375 46.1875 
Q 20.953125 51.171875 25.484375 53.578125 
Q 30.03125 56 36.53125 56 
Q 37.453125 56 38.578125 55.875 
Q 39.703125 55.765625 41.0625 55.515625 
z
" id="DejaVuSans-114"/>
        <path id="DejaVuSans-32"/>
        <path d="M 9.8125 72.90625 
L 19.671875 72.90625 
L 19.671875 5.078125 
Q 19.671875 -8.109375 14.671875 -14.0625 
Q 9.671875 -20.015625 -1.421875 -20.015625 
L -5.171875 -20.015625 
L -5.171875 -11.71875 
L -2.09375 -11.71875 
Q 4.4375 -11.71875 7.125 -8.046875 
Q 9.8125 -4.390625 9.8125 5.078125 
z
" id="DejaVuSans-74"/>
        <path d="M 34.28125 27.484375 
Q 23.390625 27.484375 19.1875 25 
Q 14.984375 22.515625 14.984375 16.5 
Q 14.984375 11.71875 18.140625 8.90625 
Q 21.296875 6.109375 26.703125 6.109375 
Q 34.1875 6.109375 38.703125 11.40625 
Q 43.21875 16.703125 43.21875 25.484375 
L 43.21875 27.484375 
z
M 52.203125 31.203125 
L 52.203125 0 
L 43.21875 0 
L 43.21875 8.296875 
Q 40.140625 3.328125 35.546875 0.953125 
Q 30.953125 -1.421875 24.3125 -1.421875 
Q 15.921875 -1.421875 10.953125 3.296875 
Q 6 8.015625 6 15.921875 
Q 6 25.140625 12.171875 29.828125 
Q 18.359375 34.515625 30.609375 34.515625 
L 43.21875 34.515625 
L 43.21875 35.40625 
Q 43.21875 41.609375 39.140625 45 
Q 35.0625 48.390625 27.6875 48.390625 
Q 23 48.390625 18.546875 47.265625 
Q 14.109375 46.140625 10.015625 43.890625 
L 10.015625 52.203125 
Q 14.9375 54.109375 19.578125 55.046875 
Q 24.21875 56 28.609375 56 
Q 40.484375 56 46.34375 49.84375 
Q 52.203125 43.703125 52.203125 31.203125 
z
" id="DejaVuSans-97"/>
        <path d="M 54.890625 33.015625 
L 54.890625 0 
L 45.90625 0 
L 45.90625 32.71875 
Q 45.90625 40.484375 42.875 44.328125 
Q 39.84375 48.1875 33.796875 48.1875 
Q 26.515625 48.1875 22.3125 43.546875 
Q 18.109375 38.921875 18.109375 30.90625 
L 18.109375 0 
L 9.078125 0 
L 9.078125 54.6875 
L 18.109375 54.6875 
L 18.109375 46.1875 
Q 21.34375 51.125 25.703125 53.5625 
Q 30.078125 56 35.796875 56 
Q 45.21875 56 50.046875 50.171875 
Q 54.890625 44.34375 54.890625 33.015625 
z
" id="DejaVuSans-110"/>
        <path d="M 48.78125 52.59375 
L 48.78125 44.1875 
Q 44.96875 46.296875 41.140625 47.34375 
Q 37.3125 48.390625 33.40625 48.390625 
Q 24.65625 48.390625 19.8125 42.84375 
Q 14.984375 37.3125 14.984375 27.296875 
Q 14.984375 17.28125 19.8125 11.734375 
Q 24.65625 6.203125 33.40625 6.203125 
Q 37.3125 6.203125 41.140625 7.25 
Q 44.96875 8.296875 48.78125 10.40625 
L 48.78125 2.09375 
Q 45.015625 0.34375 40.984375 -0.53125 
Q 36.96875 -1.421875 32.421875 -1.421875 
Q 20.0625 -1.421875 12.78125 6.34375 
Q 5.515625 14.109375 5.515625 27.296875 
Q 5.515625 40.671875 12.859375 48.328125 
Q 20.21875 56 33.015625 56 
Q 37.15625 56 41.109375 55.140625 
Q 45.0625 54.296875 48.78125 52.59375 
z
" id="DejaVuSans-99"/>
        <path d="M 54.890625 33.015625 
L 54.890625 0 
L 45.90625 0 
L 45.90625 32.71875 
Q 45.90625 40.484375 42.875 44.328125 
Q 39.84375 48.1875 33.796875 48.1875 
Q 26.515625 48.1875 22.3125 43.546875 
Q 18.109375 38.921875 18.109375 30.90625 
L 18.109375 0 
L 9.078125 0 
L 9.078125 75.984375 
L 18.109375 75.984375 
L 18.109375 46.1875 
Q 21.34375 51.125 25.703125 53.5625 
Q 30.078125 56 35.796875 56 
Q 45.21875 56 50.046875 50.171875 
Q 54.890625 44.34375 54.890625 33.015625 
z
" id="DejaVuSans-104"/>
        <path d="M 30.609375 48.390625 
Q 23.390625 48.390625 19.1875 42.75 
Q 14.984375 37.109375 14.984375 27.296875 
Q 14.984375 17.484375 19.15625 11.84375 
Q 23.34375 6.203125 30.609375 6.203125 
Q 37.796875 6.203125 41.984375 11.859375 
Q 46.1875 17.53125 46.1875 27.296875 
Q 46.1875 37.015625 41.984375 42.703125 
Q 37.796875 48.390625 30.609375 48.390625 
z
M 30.609375 56 
Q 42.328125 56 49.015625 48.375 
Q 55.71875 40.765625 55.71875 27.296875 
Q 55.71875 13.875 49.015625 6.21875 
Q 42.328125 -1.421875 30.609375 -1.421875 
Q 18.84375 -1.421875 12.171875 6.21875 
Q 5.515625 13.875 5.515625 27.296875 
Q 5.515625 40.765625 12.171875 48.375 
Q 18.84375 56 30.609375 56 
z
" id="DejaVuSans-111"/>
        <path d="M 37.109375 75.984375 
L 37.109375 68.5 
L 28.515625 68.5 
Q 23.6875 68.5 21.796875 66.546875 
Q 19.921875 64.59375 19.921875 59.515625 
L 19.921875 54.6875 
L 34.71875 54.6875 
L 34.71875 47.703125 
L 19.921875 47.703125 
L 19.921875 0 
L 10.890625 0 
L 10.890625 47.703125 
L 2.296875 47.703125 
L 2.296875 54.6875 
L 10.890625 54.6875 
L 10.890625 58.5 
Q 10.890625 67.625 15.140625 71.796875 
Q 19.390625 75.984375 28.609375 75.984375 
z
" id="DejaVuSans-102"/>
        <path d="M 18.3125 70.21875 
L 18.3125 54.6875 
L 36.8125 54.6875 
L 36.8125 47.703125 
L 18.3125 47.703125 
L 18.3125 18.015625 
Q 18.3125 11.328125 20.140625 9.421875 
Q 21.96875 7.515625 27.59375 7.515625 
L 36.8125 7.515625 
L 36.8125 0 
L 27.59375 0 
Q 17.1875 0 13.234375 3.875 
Q 9.28125 7.765625 9.28125 18.015625 
L 9.28125 47.703125 
L 2.6875 47.703125 
L 2.6875 54.6875 
L 9.28125 54.6875 
L 9.28125 70.21875 
z
" id="DejaVuSans-116"/>
       </defs>
       <use xlink:href="#DejaVuSans-79"/>
       <use x="78.710938" xlink:href="#DejaVuSans-108"/>
       <use x="106.494141" xlink:href="#DejaVuSans-105"/>
       <use x="134.277344" xlink:href="#DejaVuSans-118"/>
       <use x="193.457031" xlink:href="#DejaVuSans-101"/>
       <use x="254.980469" xlink:href="#DejaVuSans-114"/>
       <use x="296.09375" xlink:href="#DejaVuSans-32"/>
       <use x="327.880859" xlink:href="#DejaVuSans-74"/>
       <use x="357.373047" xlink:href="#DejaVuSans-97"/>
       <use x="418.652344" xlink:href="#DejaVuSans-110"/>
       <use x="482.03125" xlink:href="#DejaVuSans-105"/>
       <use x="509.814453" xlink:href="#DejaVuSans-99"/>
       <use x="564.794922" xlink:href="#DejaVuSans-104"/>
       <use x="628.173828" xlink:href="#DejaVuSans-32"/>
       <use x="659.960938" xlink:href="#DejaVuSans-111"/>
       <use x="721.142578" xlink:href="#DejaVuSans-101"/>
       <use x="782.666016" xlink:href="#DejaVuSans-102"/>
       <use x="817.871094" xlink:href="#DejaVuSans-102"/>
       <use x="853.076172" xlink:href="#DejaVuSans-101"/>
       <use x="914.599609" xlink:href="#DejaVuSans-110"/>
       <use x="977.978516" xlink:href="#DejaVuSans-116"/>
       <use x="1017.1875" xlink:href="#DejaVuSans-108"/>
       <use x="1044.970703" xlink:href="#DejaVuSans-105"/>
       <use x="1072.753906" xlink:href="#DejaVuSans-99"/>
       <use x="1127.734375" xlink:href="#DejaVuSans-104"/>
      </g>
     </g>
    </g>
    <g id="xtick_2">
     <g id="line2d_3">
      <path clip-path="url(#p759ea0c4b1)" d="M 702.381278 620.2 
L 702.381278 27.8 
" style="fill:none;stroke:#ffffff;stroke-linecap:square;stroke-width:0.8;"/>
     </g>
     <g id="line2d_4">
      <g>
       <use style="fill:#555555;stroke:#555555;stroke-width:0.8;" x="702.381278" xlink:href="#m36c4f5244a" y="620.2"/>
      </g>
     </g>
     <g id="text_2">
      <!-- ATTILA HILDMANN  -->
      <g style="fill:#555555;" transform="translate(655.269559 634.798437)scale(0.1 -0.1)">
       <defs>
        <path d="M 34.1875 63.1875 
L 20.796875 26.90625 
L 47.609375 26.90625 
z
M 28.609375 72.90625 
L 39.796875 72.90625 
L 67.578125 0 
L 57.328125 0 
L 50.6875 18.703125 
L 17.828125 18.703125 
L 11.1875 0 
L 0.78125 0 
z
" id="DejaVuSans-65"/>
        <path d="M -0.296875 72.90625 
L 61.375 72.90625 
L 61.375 64.59375 
L 35.5 64.59375 
L 35.5 0 
L 25.59375 0 
L 25.59375 64.59375 
L -0.296875 64.59375 
z
" id="DejaVuSans-84"/>
        <path d="M 9.8125 72.90625 
L 19.671875 72.90625 
L 19.671875 0 
L 9.8125 0 
z
" id="DejaVuSans-73"/>
        <path d="M 9.8125 72.90625 
L 19.671875 72.90625 
L 19.671875 8.296875 
L 55.171875 8.296875 
L 55.171875 0 
L 9.8125 0 
z
" id="DejaVuSans-76"/>
        <path d="M 9.8125 72.90625 
L 19.671875 72.90625 
L 19.671875 43.015625 
L 55.515625 43.015625 
L 55.515625 72.90625 
L 65.375 72.90625 
L 65.375 0 
L 55.515625 0 
L 55.515625 34.71875 
L 19.671875 34.71875 
L 19.671875 0 
L 9.8125 0 
z
" id="DejaVuSans-72"/>
        <path d="M 19.671875 64.796875 
L 19.671875 8.109375 
L 31.59375 8.109375 
Q 46.6875 8.109375 53.6875 14.9375 
Q 60.6875 21.78125 60.6875 36.53125 
Q 60.6875 51.171875 53.6875 57.984375 
Q 46.6875 64.796875 31.59375 64.796875 
z
M 9.8125 72.90625 
L 30.078125 72.90625 
Q 51.265625 72.90625 61.171875 64.09375 
Q 71.09375 55.28125 71.09375 36.53125 
Q 71.09375 17.671875 61.125 8.828125 
Q 51.171875 0 30.078125 0 
L 9.8125 0 
z
" id="DejaVuSans-68"/>
        <path d="M 9.8125 72.90625 
L 24.515625 72.90625 
L 43.109375 23.296875 
L 61.8125 72.90625 
L 76.515625 72.90625 
L 76.515625 0 
L 66.890625 0 
L 66.890625 64.015625 
L 48.09375 14.015625 
L 38.1875 14.015625 
L 19.390625 64.015625 
L 19.390625 0 
L 9.8125 0 
z
" id="DejaVuSans-77"/>
        <path d="M 9.8125 72.90625 
L 23.09375 72.90625 
L 55.421875 11.921875 
L 55.421875 72.90625 
L 64.984375 72.90625 
L 64.984375 0 
L 51.703125 0 
L 19.390625 60.984375 
L 19.390625 0 
L 9.8125 0 
z
" id="DejaVuSans-78"/>
       </defs>
       <use xlink:href="#DejaVuSans-65"/>
       <use x="60.658203" xlink:href="#DejaVuSans-84"/>
       <use x="119.992188" xlink:href="#DejaVuSans-84"/>
       <use x="181.076172" xlink:href="#DejaVuSans-73"/>
       <use x="210.568359" xlink:href="#DejaVuSans-76"/>
       <use x="268.53125" xlink:href="#DejaVuSans-65"/>
       <use x="336.939453" xlink:href="#DejaVuSans-32"/>
       <use x="368.726562" xlink:href="#DejaVuSans-72"/>
       <use x="443.921875" xlink:href="#DejaVuSans-73"/>
       <use x="473.414062" xlink:href="#DejaVuSans-76"/>
       <use x="529.126953" xlink:href="#DejaVuSans-68"/>
       <use x="606.128906" xlink:href="#DejaVuSans-77"/>
       <use x="692.408203" xlink:href="#DejaVuSans-65"/>
       <use x="760.816406" xlink:href="#DejaVuSans-78"/>
       <use x="835.621094" xlink:href="#DejaVuSans-78"/>
       <use x="910.425781" xlink:href="#DejaVuSans-32"/>
      </g>
     </g>
    </g>
    <g id="xtick_3">
     <g id="line2d_5">
      <path clip-path="url(#p759ea0c4b1)" d="M 1220.057399 620.2 
L 1220.057399 27.8 
" style="fill:none;stroke:#ffffff;stroke-linecap:square;stroke-width:0.8;"/>
     </g>
     <g id="line2d_6">
      <g>
       <use style="fill:#555555;stroke:#555555;stroke-width:0.8;" x="1220.057399" xlink:href="#m36c4f5244a" y="620.2"/>
      </g>
     </g>
     <g id="text_3">
      <!-- Eva Herman Offiziell -->
      <g style="fill:#555555;" transform="translate(1169.075368 634.798437)scale(0.1 -0.1)">
       <defs>
        <path d="M 9.8125 72.90625 
L 55.90625 72.90625 
L 55.90625 64.59375 
L 19.671875 64.59375 
L 19.671875 43.015625 
L 54.390625 43.015625 
L 54.390625 34.71875 
L 19.671875 34.71875 
L 19.671875 8.296875 
L 56.78125 8.296875 
L 56.78125 0 
L 9.8125 0 
z
" id="DejaVuSans-69"/>
        <path d="M 52 44.1875 
Q 55.375 50.25 60.0625 53.125 
Q 64.75 56 71.09375 56 
Q 79.640625 56 84.28125 50.015625 
Q 88.921875 44.046875 88.921875 33.015625 
L 88.921875 0 
L 79.890625 0 
L 79.890625 32.71875 
Q 79.890625 40.578125 77.09375 44.375 
Q 74.3125 48.1875 68.609375 48.1875 
Q 61.625 48.1875 57.5625 43.546875 
Q 53.515625 38.921875 53.515625 30.90625 
L 53.515625 0 
L 44.484375 0 
L 44.484375 32.71875 
Q 44.484375 40.625 41.703125 44.40625 
Q 38.921875 48.1875 33.109375 48.1875 
Q 26.21875 48.1875 22.15625 43.53125 
Q 18.109375 38.875 18.109375 30.90625 
L 18.109375 0 
L 9.078125 0 
L 9.078125 54.6875 
L 18.109375 54.6875 
L 18.109375 46.1875 
Q 21.1875 51.21875 25.484375 53.609375 
Q 29.78125 56 35.6875 56 
Q 41.65625 56 45.828125 52.96875 
Q 50 49.953125 52 44.1875 
z
" id="DejaVuSans-109"/>
        <path d="M 5.515625 54.6875 
L 48.1875 54.6875 
L 48.1875 46.484375 
L 14.40625 7.171875 
L 48.1875 7.171875 
L 48.1875 0 
L 4.296875 0 
L 4.296875 8.203125 
L 38.09375 47.515625 
L 5.515625 47.515625 
z
" id="DejaVuSans-122"/>
       </defs>
       <use xlink:href="#DejaVuSans-69"/>
       <use x="63.183594" xlink:href="#DejaVuSans-118"/>
       <use x="122.363281" xlink:href="#DejaVuSans-97"/>
       <use x="183.642578" xlink:href="#DejaVuSans-32"/>
       <use x="215.429688" xlink:href="#DejaVuSans-72"/>
       <use x="290.625" xlink:href="#DejaVuSans-101"/>
       <use x="352.148438" xlink:href="#DejaVuSans-114"/>
       <use x="391.511719" xlink:href="#DejaVuSans-109"/>
       <use x="488.923828" xlink:href="#DejaVuSans-97"/>
       <use x="550.203125" xlink:href="#DejaVuSans-110"/>
       <use x="613.582031" xlink:href="#DejaVuSans-32"/>
       <use x="645.369141" xlink:href="#DejaVuSans-79"/>
       <use x="724.080078" xlink:href="#DejaVuSans-102"/>
       <use x="759.285156" xlink:href="#DejaVuSans-102"/>
       <use x="794.490234" xlink:href="#DejaVuSans-105"/>
       <use x="822.273438" xlink:href="#DejaVuSans-122"/>
       <use x="874.763672" xlink:href="#DejaVuSans-105"/>
       <use x="902.546875" xlink:href="#DejaVuSans-101"/>
       <use x="964.070312" xlink:href="#DejaVuSans-108"/>
       <use x="991.853516" xlink:href="#DejaVuSans-108"/>
      </g>
     </g>
    </g>
    <g id="xtick_4">
     <g id="line2d_7">
      <path clip-path="url(#p759ea0c4b1)" d="M 1737.733521 620.2 
L 1737.733521 27.8 
" style="fill:none;stroke:#ffffff;stroke-linecap:square;stroke-width:0.8;"/>
     </g>
     <g id="line2d_8">
      <g>
       <use style="fill:#555555;stroke:#555555;stroke-width:0.8;" x="1737.733521" xlink:href="#m36c4f5244a" y="620.2"/>
      </g>
     </g>
     <g id="text_4">
      <!-- Xavier Naidoo inoffiziell -->
      <g style="fill:#555555;" transform="translate(1678.704615 634.798437)scale(0.1 -0.1)">
       <defs>
        <path d="M 6.296875 72.90625 
L 16.890625 72.90625 
L 35.015625 45.796875 
L 53.21875 72.90625 
L 63.8125 72.90625 
L 40.375 37.890625 
L 65.375 0 
L 54.78125 0 
L 34.28125 31 
L 13.625 0 
L 2.984375 0 
L 29 38.921875 
z
" id="DejaVuSans-88"/>
        <path d="M 45.40625 46.390625 
L 45.40625 75.984375 
L 54.390625 75.984375 
L 54.390625 0 
L 45.40625 0 
L 45.40625 8.203125 
Q 42.578125 3.328125 38.25 0.953125 
Q 33.9375 -1.421875 27.875 -1.421875 
Q 17.96875 -1.421875 11.734375 6.484375 
Q 5.515625 14.40625 5.515625 27.296875 
Q 5.515625 40.1875 11.734375 48.09375 
Q 17.96875 56 27.875 56 
Q 33.9375 56 38.25 53.625 
Q 42.578125 51.265625 45.40625 46.390625 
z
M 14.796875 27.296875 
Q 14.796875 17.390625 18.875 11.75 
Q 22.953125 6.109375 30.078125 6.109375 
Q 37.203125 6.109375 41.296875 11.75 
Q 45.40625 17.390625 45.40625 27.296875 
Q 45.40625 37.203125 41.296875 42.84375 
Q 37.203125 48.484375 30.078125 48.484375 
Q 22.953125 48.484375 18.875 42.84375 
Q 14.796875 37.203125 14.796875 27.296875 
z
" id="DejaVuSans-100"/>
       </defs>
       <use xlink:href="#DejaVuSans-88"/>
       <use x="68.505859" xlink:href="#DejaVuSans-97"/>
       <use x="129.785156" xlink:href="#DejaVuSans-118"/>
       <use x="188.964844" xlink:href="#DejaVuSans-105"/>
       <use x="216.748047" xlink:href="#DejaVuSans-101"/>
       <use x="278.271484" xlink:href="#DejaVuSans-114"/>
       <use x="319.384766" xlink:href="#DejaVuSans-32"/>
       <use x="351.171875" xlink:href="#DejaVuSans-78"/>
       <use x="425.976562" xlink:href="#DejaVuSans-97"/>
       <use x="487.255859" xlink:href="#DejaVuSans-105"/>
       <use x="515.039062" xlink:href="#DejaVuSans-100"/>
       <use x="578.515625" xlink:href="#DejaVuSans-111"/>
       <use x="639.697266" xlink:href="#DejaVuSans-111"/>
       <use x="700.878906" xlink:href="#DejaVuSans-32"/>
       <use x="732.666016" xlink:href="#DejaVuSans-105"/>
       <use x="760.449219" xlink:href="#DejaVuSans-110"/>
       <use x="823.828125" xlink:href="#DejaVuSans-111"/>
       <use x="885.009766" xlink:href="#DejaVuSans-102"/>
       <use x="920.214844" xlink:href="#DejaVuSans-102"/>
       <use x="955.419922" xlink:href="#DejaVuSans-105"/>
       <use x="983.203125" xlink:href="#DejaVuSans-122"/>
       <use x="1035.693359" xlink:href="#DejaVuSans-105"/>
       <use x="1063.476562" xlink:href="#DejaVuSans-101"/>
       <use x="1125" xlink:href="#DejaVuSans-108"/>
       <use x="1152.783203" xlink:href="#DejaVuSans-108"/>
      </g>
     </g>
    </g>
   </g>
   <g id="matplotlib.axis_2">
    <g id="ytick_1">
     <g id="line2d_9">
      <path clip-path="url(#p759ea0c4b1)" d="M 66.675 620.2 
L 2293.2 620.2 
" style="fill:none;stroke:#ffffff;stroke-linecap:square;stroke-width:0.8;"/>
     </g>
     <g id="line2d_10">
      <defs>
       <path d="M 0 0 
L -3.5 0 
" id="m7325e5ab3e" style="stroke:#555555;stroke-width:0.8;"/>
      </defs>
      <g>
       <use style="fill:#555555;stroke:#555555;stroke-width:0.8;" x="66.675" xlink:href="#m7325e5ab3e" y="620.2"/>
      </g>
     </g>
     <g id="text_5">
      <!-- 0 -->
      <g style="fill:#555555;" transform="translate(53.3125 623.999219)scale(0.1 -0.1)">
       <defs>
        <path d="M 31.78125 66.40625 
Q 24.171875 66.40625 20.328125 58.90625 
Q 16.5 51.421875 16.5 36.375 
Q 16.5 21.390625 20.328125 13.890625 
Q 24.171875 6.390625 31.78125 6.390625 
Q 39.453125 6.390625 43.28125 13.890625 
Q 47.125 21.390625 47.125 36.375 
Q 47.125 51.421875 43.28125 58.90625 
Q 39.453125 66.40625 31.78125 66.40625 
z
M 31.78125 74.21875 
Q 44.046875 74.21875 50.515625 64.515625 
Q 56.984375 54.828125 56.984375 36.375 
Q 56.984375 17.96875 50.515625 8.265625 
Q 44.046875 -1.421875 31.78125 -1.421875 
Q 19.53125 -1.421875 13.0625 8.265625 
Q 6.59375 17.96875 6.59375 36.375 
Q 6.59375 54.828125 13.0625 64.515625 
Q 19.53125 74.21875 31.78125 74.21875 
z
" id="DejaVuSans-48"/>
       </defs>
       <use xlink:href="#DejaVuSans-48"/>
      </g>
     </g>
    </g>
    <g id="ytick_2">
     <g id="line2d_11">
      <path clip-path="url(#p759ea0c4b1)" d="M 66.675 500.225842 
L 2293.2 500.225842 
" style="fill:none;stroke:#ffffff;stroke-linecap:square;stroke-width:0.8;"/>
     </g>
     <g id="line2d_12">
      <g>
       <use style="fill:#555555;stroke:#555555;stroke-width:0.8;" x="66.675" xlink:href="#m7325e5ab3e" y="500.225842"/>
      </g>
     </g>
     <g id="text_6">
      <!-- 10000 -->
      <g style="fill:#555555;" transform="translate(27.8625 504.025061)scale(0.1 -0.1)">
       <defs>
        <path d="M 12.40625 8.296875 
L 28.515625 8.296875 
L 28.515625 63.921875 
L 10.984375 60.40625 
L 10.984375 69.390625 
L 28.421875 72.90625 
L 38.28125 72.90625 
L 38.28125 8.296875 
L 54.390625 8.296875 
L 54.390625 0 
L 12.40625 0 
z
" id="DejaVuSans-49"/>
       </defs>
       <use xlink:href="#DejaVuSans-49"/>
       <use x="63.623047" xlink:href="#DejaVuSans-48"/>
       <use x="127.246094" xlink:href="#DejaVuSans-48"/>
       <use x="190.869141" xlink:href="#DejaVuSans-48"/>
       <use x="254.492188" xlink:href="#DejaVuSans-48"/>
      </g>
     </g>
    </g>
    <g id="ytick_3">
     <g id="line2d_13">
      <path clip-path="url(#p759ea0c4b1)" d="M 66.675 380.251684 
L 2293.2 380.251684 
" style="fill:none;stroke:#ffffff;stroke-linecap:square;stroke-width:0.8;"/>
     </g>
     <g id="line2d_14">
      <g>
       <use style="fill:#555555;stroke:#555555;stroke-width:0.8;" x="66.675" xlink:href="#m7325e5ab3e" y="380.251684"/>
      </g>
     </g>
     <g id="text_7">
      <!-- 20000 -->
      <g style="fill:#555555;" transform="translate(27.8625 384.050902)scale(0.1 -0.1)">
       <defs>
        <path d="M 19.1875 8.296875 
L 53.609375 8.296875 
L 53.609375 0 
L 7.328125 0 
L 7.328125 8.296875 
Q 12.9375 14.109375 22.625 23.890625 
Q 32.328125 33.6875 34.8125 36.53125 
Q 39.546875 41.84375 41.421875 45.53125 
Q 43.3125 49.21875 43.3125 52.78125 
Q 43.3125 58.59375 39.234375 62.25 
Q 35.15625 65.921875 28.609375 65.921875 
Q 23.96875 65.921875 18.8125 64.3125 
Q 13.671875 62.703125 7.8125 59.421875 
L 7.8125 69.390625 
Q 13.765625 71.78125 18.9375 73 
Q 24.125 74.21875 28.421875 74.21875 
Q 39.75 74.21875 46.484375 68.546875 
Q 53.21875 62.890625 53.21875 53.421875 
Q 53.21875 48.921875 51.53125 44.890625 
Q 49.859375 40.875 45.40625 35.40625 
Q 44.1875 33.984375 37.640625 27.21875 
Q 31.109375 20.453125 19.1875 8.296875 
z
" id="DejaVuSans-50"/>
       </defs>
       <use xlink:href="#DejaVuSans-50"/>
       <use x="63.623047" xlink:href="#DejaVuSans-48"/>
       <use x="127.246094" xlink:href="#DejaVuSans-48"/>
       <use x="190.869141" xlink:href="#DejaVuSans-48"/>
       <use x="254.492188" xlink:href="#DejaVuSans-48"/>
      </g>
     </g>
    </g>
    <g id="ytick_4">
     <g id="line2d_15">
      <path clip-path="url(#p759ea0c4b1)" d="M 66.675 260.277526 
L 2293.2 260.277526 
" style="fill:none;stroke:#ffffff;stroke-linecap:square;stroke-width:0.8;"/>
     </g>
     <g id="line2d_16">
      <g>
       <use style="fill:#555555;stroke:#555555;stroke-width:0.8;" x="66.675" xlink:href="#m7325e5ab3e" y="260.277526"/>
      </g>
     </g>
     <g id="text_8">
      <!-- 30000 -->
      <g style="fill:#555555;" transform="translate(27.8625 264.076744)scale(0.1 -0.1)">
       <defs>
        <path d="M 40.578125 39.3125 
Q 47.65625 37.796875 51.625 33 
Q 55.609375 28.21875 55.609375 21.1875 
Q 55.609375 10.40625 48.1875 4.484375 
Q 40.765625 -1.421875 27.09375 -1.421875 
Q 22.515625 -1.421875 17.65625 -0.515625 
Q 12.796875 0.390625 7.625 2.203125 
L 7.625 11.71875 
Q 11.71875 9.328125 16.59375 8.109375 
Q 21.484375 6.890625 26.8125 6.890625 
Q 36.078125 6.890625 40.9375 10.546875 
Q 45.796875 14.203125 45.796875 21.1875 
Q 45.796875 27.640625 41.28125 31.265625 
Q 36.765625 34.90625 28.71875 34.90625 
L 20.21875 34.90625 
L 20.21875 43.015625 
L 29.109375 43.015625 
Q 36.375 43.015625 40.234375 45.921875 
Q 44.09375 48.828125 44.09375 54.296875 
Q 44.09375 59.90625 40.109375 62.90625 
Q 36.140625 65.921875 28.71875 65.921875 
Q 24.65625 65.921875 20.015625 65.03125 
Q 15.375 64.15625 9.8125 62.3125 
L 9.8125 71.09375 
Q 15.4375 72.65625 20.34375 73.4375 
Q 25.25 74.21875 29.59375 74.21875 
Q 40.828125 74.21875 47.359375 69.109375 
Q 53.90625 64.015625 53.90625 55.328125 
Q 53.90625 49.265625 50.4375 45.09375 
Q 46.96875 40.921875 40.578125 39.3125 
z
" id="DejaVuSans-51"/>
       </defs>
       <use xlink:href="#DejaVuSans-51"/>
       <use x="63.623047" xlink:href="#DejaVuSans-48"/>
       <use x="127.246094" xlink:href="#DejaVuSans-48"/>
       <use x="190.869141" xlink:href="#DejaVuSans-48"/>
       <use x="254.492188" xlink:href="#DejaVuSans-48"/>
      </g>
     </g>
    </g>
    <g id="ytick_5">
     <g id="line2d_17">
      <path clip-path="url(#p759ea0c4b1)" d="M 66.675 140.303367 
L 2293.2 140.303367 
" style="fill:none;stroke:#ffffff;stroke-linecap:square;stroke-width:0.8;"/>
     </g>
     <g id="line2d_18">
      <g>
       <use style="fill:#555555;stroke:#555555;stroke-width:0.8;" x="66.675" xlink:href="#m7325e5ab3e" y="140.303367"/>
      </g>
     </g>
     <g id="text_9">
      <!-- 40000 -->
      <g style="fill:#555555;" transform="translate(27.8625 144.102586)scale(0.1 -0.1)">
       <defs>
        <path d="M 37.796875 64.3125 
L 12.890625 25.390625 
L 37.796875 25.390625 
z
M 35.203125 72.90625 
L 47.609375 72.90625 
L 47.609375 25.390625 
L 58.015625 25.390625 
L 58.015625 17.1875 
L 47.609375 17.1875 
L 47.609375 0 
L 37.796875 0 
L 37.796875 17.1875 
L 4.890625 17.1875 
L 4.890625 26.703125 
z
" id="DejaVuSans-52"/>
       </defs>
       <use xlink:href="#DejaVuSans-52"/>
       <use x="63.623047" xlink:href="#DejaVuSans-48"/>
       <use x="127.246094" xlink:href="#DejaVuSans-48"/>
       <use x="190.869141" xlink:href="#DejaVuSans-48"/>
       <use x="254.492188" xlink:href="#DejaVuSans-48"/>
      </g>
     </g>
    </g>
    <g id="text_10">
     <!-- Number of -->
     <g style="fill:#555555;" transform="translate(21.366875 355.793438)rotate(-90)scale(0.12 -0.12)">
      <defs>
       <path d="M 8.5 21.578125 
L 8.5 54.6875 
L 17.484375 54.6875 
L 17.484375 21.921875 
Q 17.484375 14.15625 20.5 10.265625 
Q 23.53125 6.390625 29.59375 6.390625 
Q 36.859375 6.390625 41.078125 11.03125 
Q 45.3125 15.671875 45.3125 23.6875 
L 45.3125 54.6875 
L 54.296875 54.6875 
L 54.296875 0 
L 45.3125 0 
L 45.3125 8.40625 
Q 42.046875 3.421875 37.71875 1 
Q 33.40625 -1.421875 27.6875 -1.421875 
Q 18.265625 -1.421875 13.375 4.4375 
Q 8.5 10.296875 8.5 21.578125 
z
M 31.109375 56 
z
" id="DejaVuSans-117"/>
       <path d="M 48.6875 27.296875 
Q 48.6875 37.203125 44.609375 42.84375 
Q 40.53125 48.484375 33.40625 48.484375 
Q 26.265625 48.484375 22.1875 42.84375 
Q 18.109375 37.203125 18.109375 27.296875 
Q 18.109375 17.390625 22.1875 11.75 
Q 26.265625 6.109375 33.40625 6.109375 
Q 40.53125 6.109375 44.609375 11.75 
Q 48.6875 17.390625 48.6875 27.296875 
z
M 18.109375 46.390625 
Q 20.953125 51.265625 25.265625 53.625 
Q 29.59375 56 35.59375 56 
Q 45.5625 56 51.78125 48.09375 
Q 58.015625 40.1875 58.015625 27.296875 
Q 58.015625 14.40625 51.78125 6.484375 
Q 45.5625 -1.421875 35.59375 -1.421875 
Q 29.59375 -1.421875 25.265625 0.953125 
Q 20.953125 3.328125 18.109375 8.203125 
L 18.109375 0 
L 9.078125 0 
L 9.078125 75.984375 
L 18.109375 75.984375 
z
" id="DejaVuSans-98"/>
      </defs>
      <use xlink:href="#DejaVuSans-78"/>
      <use x="74.804688" xlink:href="#DejaVuSans-117"/>
      <use x="138.183594" xlink:href="#DejaVuSans-109"/>
      <use x="235.595703" xlink:href="#DejaVuSans-98"/>
      <use x="299.072266" xlink:href="#DejaVuSans-101"/>
      <use x="360.595703" xlink:href="#DejaVuSans-114"/>
      <use x="401.708984" xlink:href="#DejaVuSans-32"/>
      <use x="433.496094" xlink:href="#DejaVuSans-111"/>
      <use x="494.677734" xlink:href="#DejaVuSans-102"/>
     </g>
    </g>
   </g>
   <g id="patch_3">
    <path clip-path="url(#p759ea0c4b1)" d="M 167.880682 620.2 
L 201.52963 620.2 
L 201.52963 56.009524 
L 167.880682 56.009524 
z
" style="fill:#1f77b4;"/>
   </g>
   <g id="patch_4">
    <path clip-path="url(#p759ea0c4b1)" d="M 685.556804 620.2 
L 719.205752 620.2 
L 719.205752 168.953196 
L 685.556804 168.953196 
z
" style="fill:#1f77b4;"/>
   </g>
   <g id="patch_5">
    <path clip-path="url(#p759ea0c4b1)" d="M 1203.232925 620.2 
L 1236.881873 620.2 
L 1236.881873 182.018382 
L 1203.232925 182.018382 
z
" style="fill:#1f77b4;"/>
   </g>
   <g id="patch_6">
    <path clip-path="url(#p759ea0c4b1)" d="M 1720.909047 620.2 
L 1754.557995 620.2 
L 1754.557995 473.663563 
L 1720.909047 473.663563 
z
" style="fill:#1f77b4;"/>
   </g>
   <g id="patch_7">
    <path clip-path="url(#p759ea0c4b1)" d="M 201.52963 620.2 
L 235.178578 620.2 
L 235.178578 233.031394 
L 201.52963 233.031394 
z
" style="fill:#ff7f0e;"/>
   </g>
   <g id="patch_8">
    <path clip-path="url(#p759ea0c4b1)" d="M 719.205752 620.2 
L 752.854699 620.2 
L 752.854699 378.716014 
L 719.205752 378.716014 
z
" style="fill:#ff7f0e;"/>
   </g>
   <g id="patch_9">
    <path clip-path="url(#p759ea0c4b1)" d="M 1236.881873 620.2 
L 1270.530821 620.2 
L 1270.530821 279.461393 
L 1236.881873 279.461393 
z
" style="fill:#ff7f0e;"/>
   </g>
   <g id="patch_10">
    <path clip-path="url(#p759ea0c4b1)" d="M 1754.557995 620.2 
L 1788.206943 620.2 
L 1788.206943 534.142536 
L 1754.557995 534.142536 
z
" style="fill:#ff7f0e;"/>
   </g>
   <g id="patch_11">
    <path clip-path="url(#p759ea0c4b1)" d="M 235.178578 620.2 
L 268.827526 620.2 
L 268.827526 242.581337 
L 235.178578 242.581337 
z
" style="fill:#2ca02c;"/>
   </g>
   <g id="patch_12">
    <path clip-path="url(#p759ea0c4b1)" d="M 752.854699 620.2 
L 786.503647 620.2 
L 786.503647 332.789907 
L 752.854699 332.789907 
z
" style="fill:#2ca02c;"/>
   </g>
   <g id="patch_13">
    <path clip-path="url(#p759ea0c4b1)" d="M 1270.530821 620.2 
L 1304.179769 620.2 
L 1304.179769 450.97645 
L 1270.530821 450.97645 
z
" style="fill:#2ca02c;"/>
   </g>
   <g id="patch_14">
    <path clip-path="url(#p759ea0c4b1)" d="M 1788.206943 620.2 
L 1821.855891 620.2 
L 1821.855891 509.547834 
L 1788.206943 509.547834 
z
" style="fill:#2ca02c;"/>
   </g>
   <g id="patch_15">
    <path clip-path="url(#p759ea0c4b1)" d="M 268.827526 620.2 
L 302.476473 620.2 
L 302.476473 563.332249 
L 268.827526 563.332249 
z
" style="fill:#d62728;"/>
   </g>
   <g id="patch_16">
    <path clip-path="url(#p759ea0c4b1)" d="M 786.503647 620.2 
L 820.152595 620.2 
L 820.152595 531.911017 
L 786.503647 531.911017 
z
" style="fill:#d62728;"/>
   </g>
   <g id="patch_17">
    <path clip-path="url(#p759ea0c4b1)" d="M 1304.179769 620.2 
L 1337.828717 620.2 
L 1337.828717 587.063138 
L 1304.179769 587.063138 
z
" style="fill:#d62728;"/>
   </g>
   <g id="patch_18">
    <path clip-path="url(#p759ea0c4b1)" d="M 1821.855891 620.2 
L 1855.504839 620.2 
L 1855.504839 588.11891 
L 1821.855891 588.11891 
z
" style="fill:#d62728;"/>
   </g>
   <g id="patch_19">
    <path clip-path="url(#p759ea0c4b1)" d="M 302.476473 620.2 
L 336.125421 620.2 
L 336.125421 417.971559 
L 302.476473 417.971559 
z
" style="fill:#9467bd;"/>
   </g>
   <g id="patch_20">
    <path clip-path="url(#p759ea0c4b1)" d="M 820.152595 620.2 
L 853.801543 620.2 
L 853.801543 510.44764 
L 820.152595 510.44764 
z
" style="fill:#9467bd;"/>
   </g>
   <g id="patch_21">
    <path clip-path="url(#p759ea0c4b1)" d="M 1337.828717 620.2 
L 1371.477665 620.2 
L 1371.477665 560.824789 
L 1337.828717 560.824789 
z
" style="fill:#9467bd;"/>
   </g>
   <g id="patch_22">
    <path clip-path="url(#p759ea0c4b1)" d="M 1855.504839 620.2 
L 1889.153787 620.2 
L 1889.153787 513.015087 
L 1855.504839 513.015087 
z
" style="fill:#9467bd;"/>
   </g>
   <g id="patch_23">
    <path clip-path="url(#p759ea0c4b1)" d="M 336.125421 620.2 
L 369.774369 620.2 
L 369.774369 525.096485 
L 336.125421 525.096485 
z
" style="fill:#8c564b;"/>
   </g>
   <g id="patch_24">
    <path clip-path="url(#p759ea0c4b1)" d="M 853.801543 620.2 
L 887.450491 620.2 
L 887.450491 444.94175 
L 853.801543 444.94175 
z
" style="fill:#8c564b;"/>
   </g>
   <g id="patch_25">
    <path clip-path="url(#p759ea0c4b1)" d="M 1371.477665 620.2 
L 1405.126613 620.2 
L 1405.126613 554.106236 
L 1371.477665 554.106236 
z
" style="fill:#8c564b;"/>
   </g>
   <g id="patch_26">
    <path clip-path="url(#p759ea0c4b1)" d="M 1889.153787 620.2 
L 1922.802735 620.2 
L 1922.802735 570.9866 
L 1889.153787 570.9866 
z
" style="fill:#8c564b;"/>
   </g>
   <g id="patch_27">
    <path clip-path="url(#p759ea0c4b1)" d="M 369.774369 620.2 
L 403.423317 620.2 
L 403.423317 542.564722 
L 369.774369 542.564722 
z
" style="fill:#e377c2;"/>
   </g>
   <g id="patch_28">
    <path clip-path="url(#p759ea0c4b1)" d="M 887.450491 620.2 
L 921.099439 620.2 
L 921.099439 570.734655 
L 887.450491 570.734655 
z
" style="fill:#e377c2;"/>
   </g>
   <g id="patch_29">
    <path clip-path="url(#p759ea0c4b1)" d="M 1405.126613 620.2 
L 1438.775561 620.2 
L 1438.775561 596.469112 
L 1405.126613 596.469112 
z
" style="fill:#e377c2;"/>
   </g>
   <g id="patch_30">
    <path clip-path="url(#p759ea0c4b1)" d="M 1922.802735 620.2 
L 1956.451683 620.2 
L 1956.451683 598.028776 
L 1922.802735 598.028776 
z
" style="fill:#e377c2;"/>
   </g>
   <g id="patch_31">
    <path clip-path="url(#p759ea0c4b1)" d="M 403.423317 620.2 
L 437.072265 620.2 
L 437.072265 247.224337 
L 403.423317 247.224337 
z
" style="fill:#7f7f7f;"/>
   </g>
   <g id="patch_32">
    <path clip-path="url(#p759ea0c4b1)" d="M 921.099439 620.2 
L 954.748387 620.2 
L 954.748387 455.115558 
L 921.099439 455.115558 
z
" style="fill:#7f7f7f;"/>
   </g>
   <g id="patch_33">
    <path clip-path="url(#p759ea0c4b1)" d="M 1438.775561 620.2 
L 1472.424509 620.2 
L 1472.424509 292.346618 
L 1438.775561 292.346618 
z
" style="fill:#7f7f7f;"/>
   </g>
   <g id="patch_34">
    <path clip-path="url(#p759ea0c4b1)" d="M 1956.451683 620.2 
L 1990.100631 620.2 
L 1990.100631 566.727518 
L 1956.451683 566.727518 
z
" style="fill:#7f7f7f;"/>
   </g>
   <g id="patch_35">
    <path clip-path="url(#p759ea0c4b1)" d="M 437.072265 620.2 
L 470.721213 620.2 
L 470.721213 602.491814 
L 437.072265 602.491814 
z
" style="fill:#bcbd22;"/>
   </g>
   <g id="patch_36">
    <path clip-path="url(#p759ea0c4b1)" d="M 954.748387 620.2 
L 988.397335 620.2 
L 988.397335 619.168222 
L 954.748387 619.168222 
z
" style="fill:#bcbd22;"/>
   </g>
   <g id="patch_37">
    <path clip-path="url(#p759ea0c4b1)" d="M 1472.424509 620.2 
L 1506.073457 620.2 
L 1506.073457 613.505442 
L 1472.424509 613.505442 
z
" style="fill:#bcbd22;"/>
   </g>
   <g id="patch_38">
    <path clip-path="url(#p759ea0c4b1)" d="M 1990.100631 620.2 
L 2023.749579 620.2 
L 2023.749579 596.889021 
L 1990.100631 596.889021 
z
" style="fill:#bcbd22;"/>
   </g>
   <g id="patch_39">
    <path clip-path="url(#p759ea0c4b1)" d="M 470.721213 620.2 
L 504.370161 620.2 
L 504.370161 572.162347 
L 470.721213 572.162347 
z
" style="fill:#17becf;"/>
   </g>
   <g id="patch_40">
    <path clip-path="url(#p759ea0c4b1)" d="M 988.397335 620.2 
L 1022.046283 620.2 
L 1022.046283 515.270601 
L 988.397335 515.270601 
z
" style="fill:#17becf;"/>
   </g>
   <g id="patch_41">
    <path clip-path="url(#p759ea0c4b1)" d="M 1506.073457 620.2 
L 1539.722405 620.2 
L 1539.722405 571.73044 
L 1506.073457 571.73044 
z
" style="fill:#17becf;"/>
   </g>
   <g id="patch_42">
    <path clip-path="url(#p759ea0c4b1)" d="M 2023.749579 620.2 
L 2057.398527 620.2 
L 2057.398527 608.1306 
L 2023.749579 608.1306 
z
" style="fill:#17becf;"/>
   </g>
   <g id="patch_43">
    <path clip-path="url(#p759ea0c4b1)" d="M 504.370161 620.2 
L 538.019109 620.2 
L 538.019109 608.586501 
L 504.370161 608.586501 
z
" style="fill:#1f77b4;"/>
   </g>
   <g id="patch_44">
    <path clip-path="url(#p759ea0c4b1)" d="M 1022.046283 620.2 
L 1055.695231 620.2 
L 1055.695231 617.69254 
L 1022.046283 617.69254 
z
" style="fill:#1f77b4;"/>
   </g>
   <g id="patch_45">
    <path clip-path="url(#p759ea0c4b1)" d="M 1539.722405 620.2 
L 1573.371353 620.2 
L 1573.371353 609.042403 
L 1539.722405 609.042403 
z
" style="fill:#1f77b4;"/>
   </g>
   <g id="patch_46">
    <path clip-path="url(#p759ea0c4b1)" d="M 2057.398527 620.2 
L 2091.047474 620.2 
L 2091.047474 618.124447 
L 2057.398527 618.124447 
z
" style="fill:#1f77b4;"/>
   </g>
   <g id="patch_47">
    <path clip-path="url(#p759ea0c4b1)" d="M 538.019109 620.2 
L 571.668057 620.2 
L 571.668057 619.420168 
L 538.019109 619.420168 
z
" style="fill:#1f77b4;"/>
   </g>
   <g id="patch_48">
    <path clip-path="url(#p759ea0c4b1)" d="M 1055.695231 620.2 
L 1089.344179 620.2 
L 1089.344179 619.996044 
L 1055.695231 619.996044 
z
" style="fill:#1f77b4;"/>
   </g>
   <g id="patch_49">
    <path clip-path="url(#p759ea0c4b1)" d="M 1573.371353 620.2 
L 1607.020301 620.2 
L 1607.020301 620.056031 
L 1573.371353 620.056031 
z
" style="fill:#1f77b4;"/>
   </g>
   <g id="patch_50">
    <path clip-path="url(#p759ea0c4b1)" d="M 2091.047474 620.2 
L 2124.696422 620.2 
L 2124.696422 619.384176 
L 2091.047474 619.384176 
z
" style="fill:#1f77b4;"/>
   </g>
   <g id="patch_51">
    <path clip-path="url(#p759ea0c4b1)" d="M 571.668057 620.2 
L 605.317005 620.2 
L 605.317005 619.744098 
L 571.668057 619.744098 
z
" style="fill:#ff7f0e;"/>
   </g>
   <g id="patch_52">
    <path clip-path="url(#p759ea0c4b1)" d="M 1089.344179 620.2 
L 1122.993127 620.2 
L 1122.993127 618.172437 
L 1089.344179 618.172437 
z
" style="fill:#ff7f0e;"/>
   </g>
   <g id="patch_53">
    <path clip-path="url(#p759ea0c4b1)" d="M 1607.020301 620.2 
L 1640.669248 620.2 
L 1640.669248 619.960052 
L 1607.020301 619.960052 
z
" style="fill:#ff7f0e;"/>
   </g>
   <g id="patch_54">
    <path clip-path="url(#p759ea0c4b1)" d="M 2124.696422 620.2 
L 2158.34537 620.2 
L 2158.34537 619.864072 
L 2124.696422 619.864072 
z
" style="fill:#ff7f0e;"/>
   </g>
   <g id="patch_55">
    <path clip-path="url(#p759ea0c4b1)" d="M 605.317005 620.2 
L 638.965953 620.2 
L 638.965953 566.06766 
L 605.317005 566.06766 
z
" style="fill:#2ca02c;"/>
   </g>
   <g id="patch_56">
    <path clip-path="url(#p759ea0c4b1)" d="M 1122.993127 620.2 
L 1156.642075 620.2 
L 1156.642075 472.931721 
L 1122.993127 472.931721 
z
" style="fill:#2ca02c;"/>
   </g>
   <g id="patch_57">
    <path clip-path="url(#p759ea0c4b1)" d="M 1640.669248 620.2 
L 1674.318196 620.2 
L 1674.318196 596.229163 
L 1640.669248 596.229163 
z
" style="fill:#2ca02c;"/>
   </g>
   <g id="patch_58">
    <path clip-path="url(#p759ea0c4b1)" d="M 2158.34537 620.2 
L 2191.994318 620.2 
L 2191.994318 565.803717 
L 2158.34537 565.803717 
z
" style="fill:#2ca02c;"/>
   </g>
   <g id="patch_59">
    <path d="M 66.675 620.2 
L 66.675 27.8 
" style="fill:none;stroke:#ffffff;stroke-linecap:square;stroke-linejoin:miter;"/>
   </g>
   <g id="patch_60">
    <path d="M 2293.2 620.2 
L 2293.2 27.8 
" style="fill:none;stroke:#ffffff;stroke-linecap:square;stroke-linejoin:miter;"/>
   </g>
   <g id="patch_61">
    <path d="M 66.675 620.2 
L 2293.2 620.2 
" style="fill:none;stroke:#ffffff;stroke-linecap:square;stroke-linejoin:miter;"/>
   </g>
   <g id="patch_62">
    <path d="M 66.675 27.8 
L 2293.2 27.8 
" style="fill:none;stroke:#ffffff;stroke-linecap:square;stroke-linejoin:miter;"/>
   </g>
   <g id="text_11">
    <!-- 47026 -->
    <g transform="translate(168.798906 50.929836)scale(0.1 -0.1)">
     <defs>
      <path d="M 8.203125 72.90625 
L 55.078125 72.90625 
L 55.078125 68.703125 
L 28.609375 0 
L 18.3125 0 
L 43.21875 64.59375 
L 8.203125 64.59375 
z
" id="DejaVuSans-55"/>
      <path d="M 33.015625 40.375 
Q 26.375 40.375 22.484375 35.828125 
Q 18.609375 31.296875 18.609375 23.390625 
Q 18.609375 15.53125 22.484375 10.953125 
Q 26.375 6.390625 33.015625 6.390625 
Q 39.65625 6.390625 43.53125 10.953125 
Q 47.40625 15.53125 47.40625 23.390625 
Q 47.40625 31.296875 43.53125 35.828125 
Q 39.65625 40.375 33.015625 40.375 
z
M 52.59375 71.296875 
L 52.59375 62.3125 
Q 48.875 64.0625 45.09375 64.984375 
Q 41.3125 65.921875 37.59375 65.921875 
Q 27.828125 65.921875 22.671875 59.328125 
Q 17.53125 52.734375 16.796875 39.40625 
Q 19.671875 43.65625 24.015625 45.921875 
Q 28.375 48.1875 33.59375 48.1875 
Q 44.578125 48.1875 50.953125 41.515625 
Q 57.328125 34.859375 57.328125 23.390625 
Q 57.328125 12.15625 50.6875 5.359375 
Q 44.046875 -1.421875 33.015625 -1.421875 
Q 20.359375 -1.421875 13.671875 8.265625 
Q 6.984375 17.96875 6.984375 36.375 
Q 6.984375 53.65625 15.1875 63.9375 
Q 23.390625 74.21875 37.203125 74.21875 
Q 40.921875 74.21875 44.703125 73.484375 
Q 48.484375 72.75 52.59375 71.296875 
z
" id="DejaVuSans-54"/>
     </defs>
     <use xlink:href="#DejaVuSans-52"/>
     <use x="63.623047" xlink:href="#DejaVuSans-55"/>
     <use x="127.246094" xlink:href="#DejaVuSans-48"/>
     <use x="190.869141" xlink:href="#DejaVuSans-50"/>
     <use x="254.492188" xlink:href="#DejaVuSans-54"/>
    </g>
   </g>
   <g id="text_12">
    <!-- 37612 -->
    <g transform="translate(686.475028 163.873509)scale(0.1 -0.1)">
     <use xlink:href="#DejaVuSans-51"/>
     <use x="63.623047" xlink:href="#DejaVuSans-55"/>
     <use x="127.246094" xlink:href="#DejaVuSans-54"/>
     <use x="190.869141" xlink:href="#DejaVuSans-49"/>
     <use x="254.492188" xlink:href="#DejaVuSans-50"/>
    </g>
   </g>
   <g id="text_13">
    <!-- 36523 -->
    <g transform="translate(1204.151149 176.938695)scale(0.1 -0.1)">
     <defs>
      <path d="M 10.796875 72.90625 
L 49.515625 72.90625 
L 49.515625 64.59375 
L 19.828125 64.59375 
L 19.828125 46.734375 
Q 21.96875 47.46875 24.109375 47.828125 
Q 26.265625 48.1875 28.421875 48.1875 
Q 40.625 48.1875 47.75 41.5 
Q 54.890625 34.8125 54.890625 23.390625 
Q 54.890625 11.625 47.5625 5.09375 
Q 40.234375 -1.421875 26.90625 -1.421875 
Q 22.3125 -1.421875 17.546875 -0.640625 
Q 12.796875 0.140625 7.71875 1.703125 
L 7.71875 11.625 
Q 12.109375 9.234375 16.796875 8.0625 
Q 21.484375 6.890625 26.703125 6.890625 
Q 35.15625 6.890625 40.078125 11.328125 
Q 45.015625 15.765625 45.015625 23.390625 
Q 45.015625 31 40.078125 35.4375 
Q 35.15625 39.890625 26.703125 39.890625 
Q 22.75 39.890625 18.8125 39.015625 
Q 14.890625 38.140625 10.796875 36.28125 
z
" id="DejaVuSans-53"/>
     </defs>
     <use xlink:href="#DejaVuSans-51"/>
     <use x="63.623047" xlink:href="#DejaVuSans-54"/>
     <use x="127.246094" xlink:href="#DejaVuSans-53"/>
     <use x="190.869141" xlink:href="#DejaVuSans-50"/>
     <use x="254.492188" xlink:href="#DejaVuSans-51"/>
    </g>
   </g>
   <g id="text_14">
    <!-- 12214 -->
    <g transform="translate(1721.827271 468.583876)scale(0.1 -0.1)">
     <use xlink:href="#DejaVuSans-49"/>
     <use x="63.623047" xlink:href="#DejaVuSans-50"/>
     <use x="127.246094" xlink:href="#DejaVuSans-50"/>
     <use x="190.869141" xlink:href="#DejaVuSans-49"/>
     <use x="254.492188" xlink:href="#DejaVuSans-52"/>
    </g>
   </g>
   <g id="text_15">
    <!-- 32271 -->
    <g transform="translate(202.447854 227.951707)scale(0.1 -0.1)">
     <use xlink:href="#DejaVuSans-51"/>
     <use x="63.623047" xlink:href="#DejaVuSans-50"/>
     <use x="127.246094" xlink:href="#DejaVuSans-50"/>
     <use x="190.869141" xlink:href="#DejaVuSans-55"/>
     <use x="254.492188" xlink:href="#DejaVuSans-49"/>
    </g>
   </g>
   <g id="text_16">
    <!-- 20128 -->
    <g transform="translate(720.123976 373.636327)scale(0.1 -0.1)">
     <defs>
      <path d="M 31.78125 34.625 
Q 24.75 34.625 20.71875 30.859375 
Q 16.703125 27.09375 16.703125 20.515625 
Q 16.703125 13.921875 20.71875 10.15625 
Q 24.75 6.390625 31.78125 6.390625 
Q 38.8125 6.390625 42.859375 10.171875 
Q 46.921875 13.96875 46.921875 20.515625 
Q 46.921875 27.09375 42.890625 30.859375 
Q 38.875 34.625 31.78125 34.625 
z
M 21.921875 38.8125 
Q 15.578125 40.375 12.03125 44.71875 
Q 8.5 49.078125 8.5 55.328125 
Q 8.5 64.0625 14.71875 69.140625 
Q 20.953125 74.21875 31.78125 74.21875 
Q 42.671875 74.21875 48.875 69.140625 
Q 55.078125 64.0625 55.078125 55.328125 
Q 55.078125 49.078125 51.53125 44.71875 
Q 48 40.375 41.703125 38.8125 
Q 48.828125 37.15625 52.796875 32.3125 
Q 56.78125 27.484375 56.78125 20.515625 
Q 56.78125 9.90625 50.3125 4.234375 
Q 43.84375 -1.421875 31.78125 -1.421875 
Q 19.734375 -1.421875 13.25 4.234375 
Q 6.78125 9.90625 6.78125 20.515625 
Q 6.78125 27.484375 10.78125 32.3125 
Q 14.796875 37.15625 21.921875 38.8125 
z
M 18.3125 54.390625 
Q 18.3125 48.734375 21.84375 45.5625 
Q 25.390625 42.390625 31.78125 42.390625 
Q 38.140625 42.390625 41.71875 45.5625 
Q 45.3125 48.734375 45.3125 54.390625 
Q 45.3125 60.0625 41.71875 63.234375 
Q 38.140625 66.40625 31.78125 66.40625 
Q 25.390625 66.40625 21.84375 63.234375 
Q 18.3125 60.0625 18.3125 54.390625 
z
" id="DejaVuSans-56"/>
     </defs>
     <use xlink:href="#DejaVuSans-50"/>
     <use x="63.623047" xlink:href="#DejaVuSans-48"/>
     <use x="127.246094" xlink:href="#DejaVuSans-49"/>
     <use x="190.869141" xlink:href="#DejaVuSans-50"/>
     <use x="254.492188" xlink:href="#DejaVuSans-56"/>
    </g>
   </g>
   <g id="text_17">
    <!-- 28401 -->
    <g transform="translate(1237.800097 274.381706)scale(0.1 -0.1)">
     <use xlink:href="#DejaVuSans-50"/>
     <use x="63.623047" xlink:href="#DejaVuSans-56"/>
     <use x="127.246094" xlink:href="#DejaVuSans-52"/>
     <use x="190.869141" xlink:href="#DejaVuSans-48"/>
     <use x="254.492188" xlink:href="#DejaVuSans-49"/>
    </g>
   </g>
   <g id="text_18">
    <!-- 7173 -->
    <g transform="translate(1758.657469 529.062849)scale(0.1 -0.1)">
     <use xlink:href="#DejaVuSans-55"/>
     <use x="63.623047" xlink:href="#DejaVuSans-49"/>
     <use x="127.246094" xlink:href="#DejaVuSans-55"/>
     <use x="190.869141" xlink:href="#DejaVuSans-51"/>
    </g>
   </g>
   <g id="text_19">
    <!-- 31475 -->
    <g transform="translate(236.096802 237.50165)scale(0.1 -0.1)">
     <use xlink:href="#DejaVuSans-51"/>
     <use x="63.623047" xlink:href="#DejaVuSans-49"/>
     <use x="127.246094" xlink:href="#DejaVuSans-52"/>
     <use x="190.869141" xlink:href="#DejaVuSans-55"/>
     <use x="254.492188" xlink:href="#DejaVuSans-53"/>
    </g>
   </g>
   <g id="text_20">
    <!-- 23956 -->
    <g transform="translate(753.772923 327.710219)scale(0.1 -0.1)">
     <defs>
      <path d="M 10.984375 1.515625 
L 10.984375 10.5 
Q 14.703125 8.734375 18.5 7.8125 
Q 22.3125 6.890625 25.984375 6.890625 
Q 35.75 6.890625 40.890625 13.453125 
Q 46.046875 20.015625 46.78125 33.40625 
Q 43.953125 29.203125 39.59375 26.953125 
Q 35.25 24.703125 29.984375 24.703125 
Q 19.046875 24.703125 12.671875 31.3125 
Q 6.296875 37.9375 6.296875 49.421875 
Q 6.296875 60.640625 12.9375 67.421875 
Q 19.578125 74.21875 30.609375 74.21875 
Q 43.265625 74.21875 49.921875 64.515625 
Q 56.59375 54.828125 56.59375 36.375 
Q 56.59375 19.140625 48.40625 8.859375 
Q 40.234375 -1.421875 26.421875 -1.421875 
Q 22.703125 -1.421875 18.890625 -0.6875 
Q 15.09375 0.046875 10.984375 1.515625 
z
M 30.609375 32.421875 
Q 37.25 32.421875 41.125 36.953125 
Q 45.015625 41.5 45.015625 49.421875 
Q 45.015625 57.28125 41.125 61.84375 
Q 37.25 66.40625 30.609375 66.40625 
Q 23.96875 66.40625 20.09375 61.84375 
Q 16.21875 57.28125 16.21875 49.421875 
Q 16.21875 41.5 20.09375 36.953125 
Q 23.96875 32.421875 30.609375 32.421875 
z
" id="DejaVuSans-57"/>
     </defs>
     <use xlink:href="#DejaVuSans-50"/>
     <use x="63.623047" xlink:href="#DejaVuSans-51"/>
     <use x="127.246094" xlink:href="#DejaVuSans-57"/>
     <use x="190.869141" xlink:href="#DejaVuSans-53"/>
     <use x="254.492188" xlink:href="#DejaVuSans-54"/>
    </g>
   </g>
   <g id="text_21">
    <!-- 14105 -->
    <g transform="translate(1271.449045 445.896762)scale(0.1 -0.1)">
     <use xlink:href="#DejaVuSans-49"/>
     <use x="63.623047" xlink:href="#DejaVuSans-52"/>
     <use x="127.246094" xlink:href="#DejaVuSans-49"/>
     <use x="190.869141" xlink:href="#DejaVuSans-48"/>
     <use x="254.492188" xlink:href="#DejaVuSans-53"/>
    </g>
   </g>
   <g id="text_22">
    <!-- 9223 -->
    <g transform="translate(1792.306417 504.468146)scale(0.1 -0.1)">
     <use xlink:href="#DejaVuSans-57"/>
     <use x="63.623047" xlink:href="#DejaVuSans-50"/>
     <use x="127.246094" xlink:href="#DejaVuSans-50"/>
     <use x="190.869141" xlink:href="#DejaVuSans-51"/>
    </g>
   </g>
   <g id="text_23">
    <!-- 4740 -->
    <g transform="translate(272.927 558.252562)scale(0.1 -0.1)">
     <use xlink:href="#DejaVuSans-52"/>
     <use x="63.623047" xlink:href="#DejaVuSans-55"/>
     <use x="127.246094" xlink:href="#DejaVuSans-52"/>
     <use x="190.869141" xlink:href="#DejaVuSans-48"/>
    </g>
   </g>
   <g id="text_24">
    <!-- 7359 -->
    <g transform="translate(790.603121 526.83133)scale(0.1 -0.1)">
     <use xlink:href="#DejaVuSans-55"/>
     <use x="63.623047" xlink:href="#DejaVuSans-51"/>
     <use x="127.246094" xlink:href="#DejaVuSans-53"/>
     <use x="190.869141" xlink:href="#DejaVuSans-57"/>
    </g>
   </g>
   <g id="text_25">
    <!-- 2762 -->
    <g transform="translate(1308.279243 581.98345)scale(0.1 -0.1)">
     <use xlink:href="#DejaVuSans-50"/>
     <use x="63.623047" xlink:href="#DejaVuSans-55"/>
     <use x="127.246094" xlink:href="#DejaVuSans-54"/>
     <use x="190.869141" xlink:href="#DejaVuSans-50"/>
    </g>
   </g>
   <g id="text_26">
    <!-- 2674 -->
    <g transform="translate(1825.955365 583.039223)scale(0.1 -0.1)">
     <use xlink:href="#DejaVuSans-50"/>
     <use x="63.623047" xlink:href="#DejaVuSans-54"/>
     <use x="127.246094" xlink:href="#DejaVuSans-55"/>
     <use x="190.869141" xlink:href="#DejaVuSans-52"/>
    </g>
   </g>
   <g id="text_27">
    <!-- 16856 -->
    <g transform="translate(303.394697 412.891871)scale(0.1 -0.1)">
     <use xlink:href="#DejaVuSans-49"/>
     <use x="63.623047" xlink:href="#DejaVuSans-54"/>
     <use x="127.246094" xlink:href="#DejaVuSans-56"/>
     <use x="190.869141" xlink:href="#DejaVuSans-53"/>
     <use x="254.492188" xlink:href="#DejaVuSans-54"/>
    </g>
   </g>
   <g id="text_28">
    <!-- 9148 -->
    <g transform="translate(824.252069 505.367953)scale(0.1 -0.1)">
     <use xlink:href="#DejaVuSans-57"/>
     <use x="63.623047" xlink:href="#DejaVuSans-49"/>
     <use x="127.246094" xlink:href="#DejaVuSans-52"/>
     <use x="190.869141" xlink:href="#DejaVuSans-56"/>
    </g>
   </g>
   <g id="text_29">
    <!-- 4949 -->
    <g transform="translate(1341.928191 555.745102)scale(0.1 -0.1)">
     <use xlink:href="#DejaVuSans-52"/>
     <use x="63.623047" xlink:href="#DejaVuSans-57"/>
     <use x="127.246094" xlink:href="#DejaVuSans-52"/>
     <use x="190.869141" xlink:href="#DejaVuSans-57"/>
    </g>
   </g>
   <g id="text_30">
    <!-- 8934 -->
    <g transform="translate(1859.604313 507.9354)scale(0.1 -0.1)">
     <use xlink:href="#DejaVuSans-56"/>
     <use x="63.623047" xlink:href="#DejaVuSans-57"/>
     <use x="127.246094" xlink:href="#DejaVuSans-51"/>
     <use x="190.869141" xlink:href="#DejaVuSans-52"/>
    </g>
   </g>
   <g id="text_31">
    <!-- 7927 -->
    <g transform="translate(340.224895 520.016797)scale(0.1 -0.1)">
     <use xlink:href="#DejaVuSans-55"/>
     <use x="63.623047" xlink:href="#DejaVuSans-57"/>
     <use x="127.246094" xlink:href="#DejaVuSans-50"/>
     <use x="190.869141" xlink:href="#DejaVuSans-55"/>
    </g>
   </g>
   <g id="text_32">
    <!-- 14608 -->
    <g transform="translate(854.719767 439.862062)scale(0.1 -0.1)">
     <use xlink:href="#DejaVuSans-49"/>
     <use x="63.623047" xlink:href="#DejaVuSans-52"/>
     <use x="127.246094" xlink:href="#DejaVuSans-54"/>
     <use x="190.869141" xlink:href="#DejaVuSans-48"/>
     <use x="254.492188" xlink:href="#DejaVuSans-56"/>
    </g>
   </g>
   <g id="text_33">
    <!-- 5509 -->
    <g transform="translate(1375.577139 549.026549)scale(0.1 -0.1)">
     <use xlink:href="#DejaVuSans-53"/>
     <use x="63.623047" xlink:href="#DejaVuSans-53"/>
     <use x="127.246094" xlink:href="#DejaVuSans-48"/>
     <use x="190.869141" xlink:href="#DejaVuSans-57"/>
    </g>
   </g>
   <g id="text_34">
    <!-- 4102 -->
    <g transform="translate(1893.253261 565.906913)scale(0.1 -0.1)">
     <use xlink:href="#DejaVuSans-52"/>
     <use x="63.623047" xlink:href="#DejaVuSans-49"/>
     <use x="127.246094" xlink:href="#DejaVuSans-48"/>
     <use x="190.869141" xlink:href="#DejaVuSans-50"/>
    </g>
   </g>
   <g id="text_35">
    <!-- 6471 -->
    <g transform="translate(373.873843 537.485035)scale(0.1 -0.1)">
     <use xlink:href="#DejaVuSans-54"/>
     <use x="63.623047" xlink:href="#DejaVuSans-52"/>
     <use x="127.246094" xlink:href="#DejaVuSans-55"/>
     <use x="190.869141" xlink:href="#DejaVuSans-49"/>
    </g>
   </g>
   <g id="text_36">
    <!-- 4123 -->
    <g transform="translate(891.549965 565.654967)scale(0.1 -0.1)">
     <use xlink:href="#DejaVuSans-52"/>
     <use x="63.623047" xlink:href="#DejaVuSans-49"/>
     <use x="127.246094" xlink:href="#DejaVuSans-50"/>
     <use x="190.869141" xlink:href="#DejaVuSans-51"/>
    </g>
   </g>
   <g id="text_37">
    <!-- 1978 -->
    <g transform="translate(1409.226087 591.389424)scale(0.1 -0.1)">
     <use xlink:href="#DejaVuSans-49"/>
     <use x="63.623047" xlink:href="#DejaVuSans-57"/>
     <use x="127.246094" xlink:href="#DejaVuSans-55"/>
     <use x="190.869141" xlink:href="#DejaVuSans-56"/>
    </g>
   </g>
   <g id="text_38">
    <!-- 1848 -->
    <g transform="translate(1926.902209 592.949088)scale(0.1 -0.1)">
     <use xlink:href="#DejaVuSans-49"/>
     <use x="63.623047" xlink:href="#DejaVuSans-56"/>
     <use x="127.246094" xlink:href="#DejaVuSans-52"/>
     <use x="190.869141" xlink:href="#DejaVuSans-56"/>
    </g>
   </g>
   <g id="text_39">
    <!-- 31088 -->
    <g transform="translate(404.341541 242.14465)scale(0.1 -0.1)">
     <use xlink:href="#DejaVuSans-51"/>
     <use x="63.623047" xlink:href="#DejaVuSans-49"/>
     <use x="127.246094" xlink:href="#DejaVuSans-48"/>
     <use x="190.869141" xlink:href="#DejaVuSans-56"/>
     <use x="254.492188" xlink:href="#DejaVuSans-56"/>
    </g>
   </g>
   <g id="text_40">
    <!-- 13760 -->
    <g transform="translate(922.017663 450.035871)scale(0.1 -0.1)">
     <use xlink:href="#DejaVuSans-49"/>
     <use x="63.623047" xlink:href="#DejaVuSans-51"/>
     <use x="127.246094" xlink:href="#DejaVuSans-55"/>
     <use x="190.869141" xlink:href="#DejaVuSans-54"/>
     <use x="254.492188" xlink:href="#DejaVuSans-48"/>
    </g>
   </g>
   <g id="text_41">
    <!-- 27327 -->
    <g transform="translate(1439.693785 287.26693)scale(0.1 -0.1)">
     <use xlink:href="#DejaVuSans-50"/>
     <use x="63.623047" xlink:href="#DejaVuSans-55"/>
     <use x="127.246094" xlink:href="#DejaVuSans-51"/>
     <use x="190.869141" xlink:href="#DejaVuSans-50"/>
     <use x="254.492188" xlink:href="#DejaVuSans-55"/>
    </g>
   </g>
   <g id="text_42">
    <!-- 4457 -->
    <g transform="translate(1960.551157 561.64783)scale(0.1 -0.1)">
     <use xlink:href="#DejaVuSans-52"/>
     <use x="63.623047" xlink:href="#DejaVuSans-52"/>
     <use x="127.246094" xlink:href="#DejaVuSans-53"/>
     <use x="190.869141" xlink:href="#DejaVuSans-55"/>
    </g>
   </g>
   <g id="text_43">
    <!-- 1476 -->
    <g transform="translate(441.171739 597.412127)scale(0.1 -0.1)">
     <use xlink:href="#DejaVuSans-49"/>
     <use x="63.623047" xlink:href="#DejaVuSans-52"/>
     <use x="127.246094" xlink:href="#DejaVuSans-55"/>
     <use x="190.869141" xlink:href="#DejaVuSans-54"/>
    </g>
   </g>
   <g id="text_44">
    <!-- 86 -->
    <g transform="translate(965.210361 614.088535)scale(0.1 -0.1)">
     <use xlink:href="#DejaVuSans-56"/>
     <use x="63.623047" xlink:href="#DejaVuSans-54"/>
    </g>
   </g>
   <g id="text_45">
    <!-- 558 -->
    <g transform="translate(1479.705233 608.425754)scale(0.1 -0.1)">
     <use xlink:href="#DejaVuSans-53"/>
     <use x="63.623047" xlink:href="#DejaVuSans-53"/>
     <use x="127.246094" xlink:href="#DejaVuSans-56"/>
    </g>
   </g>
   <g id="text_46">
    <!-- 1943 -->
    <g transform="translate(1994.200105 591.809334)scale(0.1 -0.1)">
     <use xlink:href="#DejaVuSans-49"/>
     <use x="63.623047" xlink:href="#DejaVuSans-57"/>
     <use x="127.246094" xlink:href="#DejaVuSans-52"/>
     <use x="190.869141" xlink:href="#DejaVuSans-51"/>
    </g>
   </g>
   <g id="text_47">
    <!-- 4004 -->
    <g transform="translate(474.820687 567.08266)scale(0.1 -0.1)">
     <use xlink:href="#DejaVuSans-52"/>
     <use x="63.623047" xlink:href="#DejaVuSans-48"/>
     <use x="127.246094" xlink:href="#DejaVuSans-48"/>
     <use x="190.869141" xlink:href="#DejaVuSans-52"/>
    </g>
   </g>
   <g id="text_48">
    <!-- 8746 -->
    <g transform="translate(992.496809 510.190914)scale(0.1 -0.1)">
     <use xlink:href="#DejaVuSans-56"/>
     <use x="63.623047" xlink:href="#DejaVuSans-55"/>
     <use x="127.246094" xlink:href="#DejaVuSans-52"/>
     <use x="190.869141" xlink:href="#DejaVuSans-54"/>
    </g>
   </g>
   <g id="text_49">
    <!-- 4040 -->
    <g transform="translate(1510.172931 566.650753)scale(0.1 -0.1)">
     <use xlink:href="#DejaVuSans-52"/>
     <use x="63.623047" xlink:href="#DejaVuSans-48"/>
     <use x="127.246094" xlink:href="#DejaVuSans-52"/>
     <use x="190.869141" xlink:href="#DejaVuSans-48"/>
    </g>
   </g>
   <g id="text_50">
    <!-- 1006 -->
    <g transform="translate(2027.849053 603.050912)scale(0.1 -0.1)">
     <use xlink:href="#DejaVuSans-49"/>
     <use x="63.623047" xlink:href="#DejaVuSans-48"/>
     <use x="127.246094" xlink:href="#DejaVuSans-48"/>
     <use x="190.869141" xlink:href="#DejaVuSans-54"/>
    </g>
   </g>
   <g id="text_51">
    <!-- 968 -->
    <g transform="translate(511.650885 603.506814)scale(0.1 -0.1)">
     <use xlink:href="#DejaVuSans-57"/>
     <use x="63.623047" xlink:href="#DejaVuSans-54"/>
     <use x="127.246094" xlink:href="#DejaVuSans-56"/>
    </g>
   </g>
   <g id="text_52">
    <!-- 209 -->
    <g transform="translate(1029.327007 612.612853)scale(0.1 -0.1)">
     <use xlink:href="#DejaVuSans-50"/>
     <use x="63.623047" xlink:href="#DejaVuSans-48"/>
     <use x="127.246094" xlink:href="#DejaVuSans-57"/>
    </g>
   </g>
   <g id="text_53">
    <!-- 930 -->
    <g transform="translate(1547.003129 603.962716)scale(0.1 -0.1)">
     <use xlink:href="#DejaVuSans-57"/>
     <use x="63.623047" xlink:href="#DejaVuSans-51"/>
     <use x="127.246094" xlink:href="#DejaVuSans-48"/>
    </g>
   </g>
   <g id="text_54">
    <!-- 173 -->
    <g transform="translate(2064.67925 613.04476)scale(0.1 -0.1)">
     <use xlink:href="#DejaVuSans-49"/>
     <use x="63.623047" xlink:href="#DejaVuSans-55"/>
     <use x="127.246094" xlink:href="#DejaVuSans-51"/>
    </g>
   </g>
   <g id="text_55">
    <!-- 65 -->
    <g transform="translate(548.481083 614.34048)scale(0.1 -0.1)">
     <use xlink:href="#DejaVuSans-54"/>
     <use x="63.623047" xlink:href="#DejaVuSans-53"/>
    </g>
   </g>
   <g id="text_56">
    <!-- 17 -->
    <g transform="translate(1066.157205 614.916356)scale(0.1 -0.1)">
     <use xlink:href="#DejaVuSans-49"/>
     <use x="63.623047" xlink:href="#DejaVuSans-55"/>
    </g>
   </g>
   <g id="text_57">
    <!-- 12 -->
    <g transform="translate(1583.833327 614.976344)scale(0.1 -0.1)">
     <use xlink:href="#DejaVuSans-49"/>
     <use x="63.623047" xlink:href="#DejaVuSans-50"/>
    </g>
   </g>
   <g id="text_58">
    <!-- 68 -->
    <g transform="translate(2101.509448 614.304488)scale(0.1 -0.1)">
     <use xlink:href="#DejaVuSans-54"/>
     <use x="63.623047" xlink:href="#DejaVuSans-56"/>
    </g>
   </g>
   <g id="text_59">
    <!-- 38 -->
    <g transform="translate(582.130031 614.664411)scale(0.1 -0.1)">
     <use xlink:href="#DejaVuSans-51"/>
     <use x="63.623047" xlink:href="#DejaVuSans-56"/>
    </g>
   </g>
   <g id="text_60">
    <!-- 169 -->
    <g transform="translate(1096.624903 613.092749)scale(0.1 -0.1)">
     <use xlink:href="#DejaVuSans-49"/>
     <use x="63.623047" xlink:href="#DejaVuSans-54"/>
     <use x="127.246094" xlink:href="#DejaVuSans-57"/>
    </g>
   </g>
   <g id="text_61">
    <!-- 20 -->
    <g transform="translate(1617.482274 614.880364)scale(0.1 -0.1)">
     <use xlink:href="#DejaVuSans-50"/>
     <use x="63.623047" xlink:href="#DejaVuSans-48"/>
    </g>
   </g>
   <g id="text_62">
    <!-- 28 -->
    <g transform="translate(2135.158396 614.784385)scale(0.1 -0.1)">
     <use xlink:href="#DejaVuSans-50"/>
     <use x="63.623047" xlink:href="#DejaVuSans-56"/>
    </g>
   </g>
   <g id="text_63">
    <!-- 4512 -->
    <g transform="translate(609.416479 560.987972)scale(0.1 -0.1)">
     <use xlink:href="#DejaVuSans-52"/>
     <use x="63.623047" xlink:href="#DejaVuSans-53"/>
     <use x="127.246094" xlink:href="#DejaVuSans-49"/>
     <use x="190.869141" xlink:href="#DejaVuSans-50"/>
    </g>
   </g>
   <g id="text_64">
    <!-- 12275 -->
    <g transform="translate(1123.911351 467.852033)scale(0.1 -0.1)">
     <use xlink:href="#DejaVuSans-49"/>
     <use x="63.623047" xlink:href="#DejaVuSans-50"/>
     <use x="127.246094" xlink:href="#DejaVuSans-50"/>
     <use x="190.869141" xlink:href="#DejaVuSans-55"/>
     <use x="254.492188" xlink:href="#DejaVuSans-53"/>
    </g>
   </g>
   <g id="text_65">
    <!-- 1998 -->
    <g transform="translate(1644.768722 591.149476)scale(0.1 -0.1)">
     <use xlink:href="#DejaVuSans-49"/>
     <use x="63.623047" xlink:href="#DejaVuSans-57"/>
     <use x="127.246094" xlink:href="#DejaVuSans-57"/>
     <use x="190.869141" xlink:href="#DejaVuSans-56"/>
    </g>
   </g>
   <g id="text_66">
    <!-- 4534 -->
    <g transform="translate(2162.444844 560.724029)scale(0.1 -0.1)">
     <use xlink:href="#DejaVuSans-52"/>
     <use x="63.623047" xlink:href="#DejaVuSans-53"/>
     <use x="127.246094" xlink:href="#DejaVuSans-51"/>
     <use x="190.869141" xlink:href="#DejaVuSans-52"/>
    </g>
   </g>
   <g id="text_67">
    <!-- Meta Overview (dataSet0) -->
    <g transform="translate(1085.343 21.8)scale(0.144 -0.144)">
     <defs>
      <path d="M 4.203125 54.6875 
L 13.1875 54.6875 
L 24.421875 12.015625 
L 35.59375 54.6875 
L 46.1875 54.6875 
L 57.421875 12.015625 
L 68.609375 54.6875 
L 77.59375 54.6875 
L 63.28125 0 
L 52.6875 0 
L 40.921875 44.828125 
L 29.109375 0 
L 18.5 0 
z
" id="DejaVuSans-119"/>
      <path d="M 31 75.875 
Q 24.46875 64.65625 21.28125 53.65625 
Q 18.109375 42.671875 18.109375 31.390625 
Q 18.109375 20.125 21.3125 9.0625 
Q 24.515625 -2 31 -13.1875 
L 23.1875 -13.1875 
Q 15.875 -1.703125 12.234375 9.375 
Q 8.59375 20.453125 8.59375 31.390625 
Q 8.59375 42.28125 12.203125 53.3125 
Q 15.828125 64.359375 23.1875 75.875 
z
" id="DejaVuSans-40"/>
      <path d="M 53.515625 70.515625 
L 53.515625 60.890625 
Q 47.90625 63.578125 42.921875 64.890625 
Q 37.9375 66.21875 33.296875 66.21875 
Q 25.25 66.21875 20.875 63.09375 
Q 16.5 59.96875 16.5 54.203125 
Q 16.5 49.359375 19.40625 46.890625 
Q 22.3125 44.4375 30.421875 42.921875 
L 36.375 41.703125 
Q 47.40625 39.59375 52.65625 34.296875 
Q 57.90625 29 57.90625 20.125 
Q 57.90625 9.515625 50.796875 4.046875 
Q 43.703125 -1.421875 29.984375 -1.421875 
Q 24.8125 -1.421875 18.96875 -0.25 
Q 13.140625 0.921875 6.890625 3.21875 
L 6.890625 13.375 
Q 12.890625 10.015625 18.65625 8.296875 
Q 24.421875 6.59375 29.984375 6.59375 
Q 38.421875 6.59375 43.015625 9.90625 
Q 47.609375 13.234375 47.609375 19.390625 
Q 47.609375 24.75 44.3125 27.78125 
Q 41.015625 30.8125 33.5 32.328125 
L 27.484375 33.5 
Q 16.453125 35.6875 11.515625 40.375 
Q 6.59375 45.0625 6.59375 53.421875 
Q 6.59375 63.09375 13.40625 68.65625 
Q 20.21875 74.21875 32.171875 74.21875 
Q 37.3125 74.21875 42.625 73.28125 
Q 47.953125 72.359375 53.515625 70.515625 
z
" id="DejaVuSans-83"/>
      <path d="M 8.015625 75.875 
L 15.828125 75.875 
Q 23.140625 64.359375 26.78125 53.3125 
Q 30.421875 42.28125 30.421875 31.390625 
Q 30.421875 20.453125 26.78125 9.375 
Q 23.140625 -1.703125 15.828125 -13.1875 
L 8.015625 -13.1875 
Q 14.5 -2 17.703125 9.0625 
Q 20.90625 20.125 20.90625 31.390625 
Q 20.90625 42.671875 17.703125 53.65625 
Q 14.5 64.65625 8.015625 75.875 
z
" id="DejaVuSans-41"/>
     </defs>
     <use xlink:href="#DejaVuSans-77"/>
     <use x="86.279297" xlink:href="#DejaVuSans-101"/>
     <use x="147.802734" xlink:href="#DejaVuSans-116"/>
     <use x="187.011719" xlink:href="#DejaVuSans-97"/>
     <use x="248.291016" xlink:href="#DejaVuSans-32"/>
     <use x="280.078125" xlink:href="#DejaVuSans-79"/>
     <use x="358.789062" xlink:href="#DejaVuSans-118"/>
     <use x="417.96875" xlink:href="#DejaVuSans-101"/>
     <use x="479.492188" xlink:href="#DejaVuSans-114"/>
     <use x="520.605469" xlink:href="#DejaVuSans-118"/>
     <use x="579.785156" xlink:href="#DejaVuSans-105"/>
     <use x="607.568359" xlink:href="#DejaVuSans-101"/>
     <use x="669.091797" xlink:href="#DejaVuSans-119"/>
     <use x="750.878906" xlink:href="#DejaVuSans-32"/>
     <use x="782.666016" xlink:href="#DejaVuSans-40"/>
     <use x="821.679688" xlink:href="#DejaVuSans-100"/>
     <use x="885.15625" xlink:href="#DejaVuSans-97"/>
     <use x="946.435547" xlink:href="#DejaVuSans-116"/>
     <use x="985.644531" xlink:href="#DejaVuSans-97"/>
     <use x="1046.923828" xlink:href="#DejaVuSans-83"/>
     <use x="1110.400391" xlink:href="#DejaVuSans-101"/>
     <use x="1171.923828" xlink:href="#DejaVuSans-116"/>
     <use x="1211.132812" xlink:href="#DejaVuSans-48"/>
     <use x="1274.755859" xlink:href="#DejaVuSans-41"/>
    </g>
   </g>
   <g id="legend_1">
    <g id="patch_63">
     <path d="M 2143.992188 241.29375 
L 2286.2 241.29375 
Q 2288.2 241.29375 2288.2 239.29375 
L 2288.2 34.8 
Q 2288.2 32.8 2286.2 32.8 
L 2143.992188 32.8 
Q 2141.992188 32.8 2141.992188 34.8 
L 2141.992188 239.29375 
Q 2141.992188 241.29375 2143.992188 241.29375 
z
" style="fill:#e5e5e5;opacity:0.8;stroke:#cccccc;stroke-linejoin:miter;stroke-width:0.5;"/>
    </g>
    <g id="patch_64">
     <path d="M 2145.992188 44.398438 
L 2165.992188 44.398438 
L 2165.992188 37.398438 
L 2145.992188 37.398438 
z
" style="fill:#1f77b4;"/>
    </g>
    <g id="text_68">
     <!-- Messages -->
     <g transform="translate(2173.992188 44.398438)scale(0.1 -0.1)">
      <defs>
       <path d="M 44.28125 53.078125 
L 44.28125 44.578125 
Q 40.484375 46.53125 36.375 47.5 
Q 32.28125 48.484375 27.875 48.484375 
Q 21.1875 48.484375 17.84375 46.4375 
Q 14.5 44.390625 14.5 40.28125 
Q 14.5 37.15625 16.890625 35.375 
Q 19.28125 33.59375 26.515625 31.984375 
L 29.59375 31.296875 
Q 39.15625 29.25 43.1875 25.515625 
Q 47.21875 21.78125 47.21875 15.09375 
Q 47.21875 7.46875 41.1875 3.015625 
Q 35.15625 -1.421875 24.609375 -1.421875 
Q 20.21875 -1.421875 15.453125 -0.5625 
Q 10.6875 0.296875 5.421875 2 
L 5.421875 11.28125 
Q 10.40625 8.6875 15.234375 7.390625 
Q 20.0625 6.109375 24.8125 6.109375 
Q 31.15625 6.109375 34.5625 8.28125 
Q 37.984375 10.453125 37.984375 14.40625 
Q 37.984375 18.0625 35.515625 20.015625 
Q 33.0625 21.96875 24.703125 23.78125 
L 21.578125 24.515625 
Q 13.234375 26.265625 9.515625 29.90625 
Q 5.8125 33.546875 5.8125 39.890625 
Q 5.8125 47.609375 11.28125 51.796875 
Q 16.75 56 26.8125 56 
Q 31.78125 56 36.171875 55.265625 
Q 40.578125 54.546875 44.28125 53.078125 
z
" id="DejaVuSans-115"/>
       <path d="M 45.40625 27.984375 
Q 45.40625 37.75 41.375 43.109375 
Q 37.359375 48.484375 30.078125 48.484375 
Q 22.859375 48.484375 18.828125 43.109375 
Q 14.796875 37.75 14.796875 27.984375 
Q 14.796875 18.265625 18.828125 12.890625 
Q 22.859375 7.515625 30.078125 7.515625 
Q 37.359375 7.515625 41.375 12.890625 
Q 45.40625 18.265625 45.40625 27.984375 
z
M 54.390625 6.78125 
Q 54.390625 -7.171875 48.1875 -13.984375 
Q 42 -20.796875 29.203125 -20.796875 
Q 24.46875 -20.796875 20.265625 -20.09375 
Q 16.0625 -19.390625 12.109375 -17.921875 
L 12.109375 -9.1875 
Q 16.0625 -11.328125 19.921875 -12.34375 
Q 23.78125 -13.375 27.78125 -13.375 
Q 36.625 -13.375 41.015625 -8.765625 
Q 45.40625 -4.15625 45.40625 5.171875 
L 45.40625 9.625 
Q 42.625 4.78125 38.28125 2.390625 
Q 33.9375 0 27.875 0 
Q 17.828125 0 11.671875 7.65625 
Q 5.515625 15.328125 5.515625 27.984375 
Q 5.515625 40.671875 11.671875 48.328125 
Q 17.828125 56 27.875 56 
Q 33.9375 56 38.28125 53.609375 
Q 42.625 51.21875 45.40625 46.390625 
L 45.40625 54.6875 
L 54.390625 54.6875 
z
" id="DejaVuSans-103"/>
      </defs>
      <use xlink:href="#DejaVuSans-77"/>
      <use x="86.279297" xlink:href="#DejaVuSans-101"/>
      <use x="147.802734" xlink:href="#DejaVuSans-115"/>
      <use x="199.902344" xlink:href="#DejaVuSans-115"/>
      <use x="252.001953" xlink:href="#DejaVuSans-97"/>
      <use x="313.28125" xlink:href="#DejaVuSans-103"/>
      <use x="376.757812" xlink:href="#DejaVuSans-101"/>
      <use x="438.28125" xlink:href="#DejaVuSans-115"/>
     </g>
    </g>
    <g id="patch_65">
     <path d="M 2145.992188 59.076563 
L 2165.992188 59.076563 
L 2165.992188 52.076563 
L 2145.992188 52.076563 
z
" style="fill:#ff7f0e;"/>
    </g>
    <g id="text_69">
     <!-- Formatted Messsages -->
     <g transform="translate(2173.992188 59.076563)scale(0.1 -0.1)">
      <defs>
       <path d="M 9.8125 72.90625 
L 51.703125 72.90625 
L 51.703125 64.59375 
L 19.671875 64.59375 
L 19.671875 43.109375 
L 48.578125 43.109375 
L 48.578125 34.8125 
L 19.671875 34.8125 
L 19.671875 0 
L 9.8125 0 
z
" id="DejaVuSans-70"/>
      </defs>
      <use xlink:href="#DejaVuSans-70"/>
      <use x="53.894531" xlink:href="#DejaVuSans-111"/>
      <use x="115.076172" xlink:href="#DejaVuSans-114"/>
      <use x="154.439453" xlink:href="#DejaVuSans-109"/>
      <use x="251.851562" xlink:href="#DejaVuSans-97"/>
      <use x="313.130859" xlink:href="#DejaVuSans-116"/>
      <use x="352.339844" xlink:href="#DejaVuSans-116"/>
      <use x="391.548828" xlink:href="#DejaVuSans-101"/>
      <use x="453.072266" xlink:href="#DejaVuSans-100"/>
      <use x="516.548828" xlink:href="#DejaVuSans-32"/>
      <use x="548.335938" xlink:href="#DejaVuSans-77"/>
      <use x="634.615234" xlink:href="#DejaVuSans-101"/>
      <use x="696.138672" xlink:href="#DejaVuSans-115"/>
      <use x="748.238281" xlink:href="#DejaVuSans-115"/>
      <use x="800.337891" xlink:href="#DejaVuSans-115"/>
      <use x="852.4375" xlink:href="#DejaVuSans-97"/>
      <use x="913.716797" xlink:href="#DejaVuSans-103"/>
      <use x="977.193359" xlink:href="#DejaVuSans-101"/>
      <use x="1038.716797" xlink:href="#DejaVuSans-115"/>
     </g>
    </g>
    <g id="patch_66">
     <path d="M 2145.992188 73.754688 
L 2165.992188 73.754688 
L 2165.992188 66.754688 
L 2145.992188 66.754688 
z
" style="fill:#2ca02c;"/>
    </g>
    <g id="text_70">
     <!-- Valid Text Messages -->
     <g transform="translate(2173.992188 73.754688)scale(0.1 -0.1)">
      <defs>
       <path d="M 28.609375 0 
L 0.78125 72.90625 
L 11.078125 72.90625 
L 34.1875 11.53125 
L 57.328125 72.90625 
L 67.578125 72.90625 
L 39.796875 0 
z
" id="DejaVuSans-86"/>
       <path d="M 54.890625 54.6875 
L 35.109375 28.078125 
L 55.90625 0 
L 45.3125 0 
L 29.390625 21.484375 
L 13.484375 0 
L 2.875 0 
L 24.125 28.609375 
L 4.6875 54.6875 
L 15.28125 54.6875 
L 29.78125 35.203125 
L 44.28125 54.6875 
z
" id="DejaVuSans-120"/>
      </defs>
      <use xlink:href="#DejaVuSans-86"/>
      <use x="60.658203" xlink:href="#DejaVuSans-97"/>
      <use x="121.9375" xlink:href="#DejaVuSans-108"/>
      <use x="149.720703" xlink:href="#DejaVuSans-105"/>
      <use x="177.503906" xlink:href="#DejaVuSans-100"/>
      <use x="240.980469" xlink:href="#DejaVuSans-32"/>
      <use x="272.767578" xlink:href="#DejaVuSans-84"/>
      <use x="316.851562" xlink:href="#DejaVuSans-101"/>
      <use x="376.625" xlink:href="#DejaVuSans-120"/>
      <use x="435.804688" xlink:href="#DejaVuSans-116"/>
      <use x="475.013672" xlink:href="#DejaVuSans-32"/>
      <use x="506.800781" xlink:href="#DejaVuSans-77"/>
      <use x="593.080078" xlink:href="#DejaVuSans-101"/>
      <use x="654.603516" xlink:href="#DejaVuSans-115"/>
      <use x="706.703125" xlink:href="#DejaVuSans-115"/>
      <use x="758.802734" xlink:href="#DejaVuSans-97"/>
      <use x="820.082031" xlink:href="#DejaVuSans-103"/>
      <use x="883.558594" xlink:href="#DejaVuSans-101"/>
      <use x="945.082031" xlink:href="#DejaVuSans-115"/>
     </g>
    </g>
    <g id="patch_67">
     <path d="M 2145.992188 88.432813 
L 2165.992188 88.432813 
L 2165.992188 81.432813 
L 2145.992188 81.432813 
z
" style="fill:#d62728;"/>
    </g>
    <g id="text_71">
     <!-- Edited Messages -->
     <g transform="translate(2173.992188 88.432813)scale(0.1 -0.1)">
      <use xlink:href="#DejaVuSans-69"/>
      <use x="63.183594" xlink:href="#DejaVuSans-100"/>
      <use x="126.660156" xlink:href="#DejaVuSans-105"/>
      <use x="154.443359" xlink:href="#DejaVuSans-116"/>
      <use x="193.652344" xlink:href="#DejaVuSans-101"/>
      <use x="255.175781" xlink:href="#DejaVuSans-100"/>
      <use x="318.652344" xlink:href="#DejaVuSans-32"/>
      <use x="350.439453" xlink:href="#DejaVuSans-77"/>
      <use x="436.71875" xlink:href="#DejaVuSans-101"/>
      <use x="498.242188" xlink:href="#DejaVuSans-115"/>
      <use x="550.341797" xlink:href="#DejaVuSans-115"/>
      <use x="602.441406" xlink:href="#DejaVuSans-97"/>
      <use x="663.720703" xlink:href="#DejaVuSans-103"/>
      <use x="727.197266" xlink:href="#DejaVuSans-101"/>
      <use x="788.720703" xlink:href="#DejaVuSans-115"/>
     </g>
    </g>
    <g id="patch_68">
     <path d="M 2145.992188 103.110938 
L 2165.992188 103.110938 
L 2165.992188 96.110938 
L 2145.992188 96.110938 
z
" style="fill:#9467bd;"/>
    </g>
    <g id="text_72">
     <!-- Forwarded Messages -->
     <g transform="translate(2173.992188 103.110938)scale(0.1 -0.1)">
      <use xlink:href="#DejaVuSans-70"/>
      <use x="53.894531" xlink:href="#DejaVuSans-111"/>
      <use x="115.076172" xlink:href="#DejaVuSans-114"/>
      <use x="156.189453" xlink:href="#DejaVuSans-119"/>
      <use x="237.976562" xlink:href="#DejaVuSans-97"/>
      <use x="299.255859" xlink:href="#DejaVuSans-114"/>
      <use x="338.619141" xlink:href="#DejaVuSans-100"/>
      <use x="402.095703" xlink:href="#DejaVuSans-101"/>
      <use x="463.619141" xlink:href="#DejaVuSans-100"/>
      <use x="527.095703" xlink:href="#DejaVuSans-32"/>
      <use x="558.882812" xlink:href="#DejaVuSans-77"/>
      <use x="645.162109" xlink:href="#DejaVuSans-101"/>
      <use x="706.685547" xlink:href="#DejaVuSans-115"/>
      <use x="758.785156" xlink:href="#DejaVuSans-115"/>
      <use x="810.884766" xlink:href="#DejaVuSans-97"/>
      <use x="872.164062" xlink:href="#DejaVuSans-103"/>
      <use x="935.640625" xlink:href="#DejaVuSans-101"/>
      <use x="997.164062" xlink:href="#DejaVuSans-115"/>
     </g>
    </g>
    <g id="patch_69">
     <path d="M 2145.992188 117.789063 
L 2165.992188 117.789063 
L 2165.992188 110.789063 
L 2145.992188 110.789063 
z
" style="fill:#8c564b;"/>
    </g>
    <g id="text_73">
     <!-- with Photo -->
     <g transform="translate(2173.992188 117.789063)scale(0.1 -0.1)">
      <defs>
       <path d="M 19.671875 64.796875 
L 19.671875 37.40625 
L 32.078125 37.40625 
Q 38.96875 37.40625 42.71875 40.96875 
Q 46.484375 44.53125 46.484375 51.125 
Q 46.484375 57.671875 42.71875 61.234375 
Q 38.96875 64.796875 32.078125 64.796875 
z
M 9.8125 72.90625 
L 32.078125 72.90625 
Q 44.34375 72.90625 50.609375 67.359375 
Q 56.890625 61.8125 56.890625 51.125 
Q 56.890625 40.328125 50.609375 34.8125 
Q 44.34375 29.296875 32.078125 29.296875 
L 19.671875 29.296875 
L 19.671875 0 
L 9.8125 0 
z
" id="DejaVuSans-80"/>
      </defs>
      <use xlink:href="#DejaVuSans-119"/>
      <use x="81.787109" xlink:href="#DejaVuSans-105"/>
      <use x="109.570312" xlink:href="#DejaVuSans-116"/>
      <use x="148.779297" xlink:href="#DejaVuSans-104"/>
      <use x="212.158203" xlink:href="#DejaVuSans-32"/>
      <use x="243.945312" xlink:href="#DejaVuSans-80"/>
      <use x="304.248047" xlink:href="#DejaVuSans-104"/>
      <use x="367.626953" xlink:href="#DejaVuSans-111"/>
      <use x="428.808594" xlink:href="#DejaVuSans-116"/>
      <use x="468.017578" xlink:href="#DejaVuSans-111"/>
     </g>
    </g>
    <g id="patch_70">
     <path d="M 2145.992188 132.467188 
L 2165.992188 132.467188 
L 2165.992188 125.467188 
L 2145.992188 125.467188 
z
" style="fill:#e377c2;"/>
    </g>
    <g id="text_74">
     <!-- with File -->
     <g transform="translate(2173.992188 132.467188)scale(0.1 -0.1)">
      <use xlink:href="#DejaVuSans-119"/>
      <use x="81.787109" xlink:href="#DejaVuSans-105"/>
      <use x="109.570312" xlink:href="#DejaVuSans-116"/>
      <use x="148.779297" xlink:href="#DejaVuSans-104"/>
      <use x="212.158203" xlink:href="#DejaVuSans-32"/>
      <use x="243.945312" xlink:href="#DejaVuSans-70"/>
      <use x="294.214844" xlink:href="#DejaVuSans-105"/>
      <use x="321.998047" xlink:href="#DejaVuSans-108"/>
      <use x="349.78125" xlink:href="#DejaVuSans-101"/>
     </g>
    </g>
    <g id="patch_71">
     <path d="M 2145.992188 147.145313 
L 2165.992188 147.145313 
L 2165.992188 140.145313 
L 2145.992188 140.145313 
z
" style="fill:#7f7f7f;"/>
    </g>
    <g id="text_75">
     <!-- with Url -->
     <g transform="translate(2173.992188 147.145313)scale(0.1 -0.1)">
      <defs>
       <path d="M 8.6875 72.90625 
L 18.609375 72.90625 
L 18.609375 28.609375 
Q 18.609375 16.890625 22.84375 11.734375 
Q 27.09375 6.59375 36.625 6.59375 
Q 46.09375 6.59375 50.34375 11.734375 
Q 54.59375 16.890625 54.59375 28.609375 
L 54.59375 72.90625 
L 64.5 72.90625 
L 64.5 27.390625 
Q 64.5 13.140625 57.4375 5.859375 
Q 50.390625 -1.421875 36.625 -1.421875 
Q 22.796875 -1.421875 15.734375 5.859375 
Q 8.6875 13.140625 8.6875 27.390625 
z
" id="DejaVuSans-85"/>
      </defs>
      <use xlink:href="#DejaVuSans-119"/>
      <use x="81.787109" xlink:href="#DejaVuSans-105"/>
      <use x="109.570312" xlink:href="#DejaVuSans-116"/>
      <use x="148.779297" xlink:href="#DejaVuSans-104"/>
      <use x="212.158203" xlink:href="#DejaVuSans-32"/>
      <use x="243.945312" xlink:href="#DejaVuSans-85"/>
      <use x="317.138672" xlink:href="#DejaVuSans-114"/>
      <use x="358.251953" xlink:href="#DejaVuSans-108"/>
     </g>
    </g>
    <g id="patch_72">
     <path d="M 2145.992188 161.823438 
L 2165.992188 161.823438 
L 2165.992188 154.823438 
L 2145.992188 154.823438 
z
" style="fill:#bcbd22;"/>
    </g>
    <g id="text_76">
     <!-- with Hashtag -->
     <g transform="translate(2173.992188 161.823438)scale(0.1 -0.1)">
      <use xlink:href="#DejaVuSans-119"/>
      <use x="81.787109" xlink:href="#DejaVuSans-105"/>
      <use x="109.570312" xlink:href="#DejaVuSans-116"/>
      <use x="148.779297" xlink:href="#DejaVuSans-104"/>
      <use x="212.158203" xlink:href="#DejaVuSans-32"/>
      <use x="243.945312" xlink:href="#DejaVuSans-72"/>
      <use x="319.140625" xlink:href="#DejaVuSans-97"/>
      <use x="380.419922" xlink:href="#DejaVuSans-115"/>
      <use x="432.519531" xlink:href="#DejaVuSans-104"/>
      <use x="495.898438" xlink:href="#DejaVuSans-116"/>
      <use x="535.107422" xlink:href="#DejaVuSans-97"/>
      <use x="596.386719" xlink:href="#DejaVuSans-103"/>
     </g>
    </g>
    <g id="patch_73">
     <path d="M 2145.992188 176.501563 
L 2165.992188 176.501563 
L 2165.992188 169.501563 
L 2145.992188 169.501563 
z
" style="fill:#17becf;"/>
    </g>
    <g id="text_77">
     <!-- with Bold Items -->
     <g transform="translate(2173.992188 176.501563)scale(0.1 -0.1)">
      <defs>
       <path d="M 19.671875 34.8125 
L 19.671875 8.109375 
L 35.5 8.109375 
Q 43.453125 8.109375 47.28125 11.40625 
Q 51.125 14.703125 51.125 21.484375 
Q 51.125 28.328125 47.28125 31.5625 
Q 43.453125 34.8125 35.5 34.8125 
z
M 19.671875 64.796875 
L 19.671875 42.828125 
L 34.28125 42.828125 
Q 41.5 42.828125 45.03125 45.53125 
Q 48.578125 48.25 48.578125 53.8125 
Q 48.578125 59.328125 45.03125 62.0625 
Q 41.5 64.796875 34.28125 64.796875 
z
M 9.8125 72.90625 
L 35.015625 72.90625 
Q 46.296875 72.90625 52.390625 68.21875 
Q 58.5 63.53125 58.5 54.890625 
Q 58.5 48.1875 55.375 44.234375 
Q 52.25 40.28125 46.1875 39.3125 
Q 53.46875 37.75 57.5 32.78125 
Q 61.53125 27.828125 61.53125 20.40625 
Q 61.53125 10.640625 54.890625 5.3125 
Q 48.25 0 35.984375 0 
L 9.8125 0 
z
" id="DejaVuSans-66"/>
      </defs>
      <use xlink:href="#DejaVuSans-119"/>
      <use x="81.787109" xlink:href="#DejaVuSans-105"/>
      <use x="109.570312" xlink:href="#DejaVuSans-116"/>
      <use x="148.779297" xlink:href="#DejaVuSans-104"/>
      <use x="212.158203" xlink:href="#DejaVuSans-32"/>
      <use x="243.945312" xlink:href="#DejaVuSans-66"/>
      <use x="312.548828" xlink:href="#DejaVuSans-111"/>
      <use x="373.730469" xlink:href="#DejaVuSans-108"/>
      <use x="401.513672" xlink:href="#DejaVuSans-100"/>
      <use x="464.990234" xlink:href="#DejaVuSans-32"/>
      <use x="496.777344" xlink:href="#DejaVuSans-73"/>
      <use x="526.269531" xlink:href="#DejaVuSans-116"/>
      <use x="565.478516" xlink:href="#DejaVuSans-101"/>
      <use x="627.001953" xlink:href="#DejaVuSans-109"/>
      <use x="724.414062" xlink:href="#DejaVuSans-115"/>
     </g>
    </g>
    <g id="patch_74">
     <path d="M 2145.992188 191.179688 
L 2165.992188 191.179688 
L 2165.992188 184.179688 
L 2145.992188 184.179688 
z
" style="fill:#1f77b4;"/>
    </g>
    <g id="text_78">
     <!-- with Italic Items -->
     <g transform="translate(2173.992188 191.179688)scale(0.1 -0.1)">
      <use xlink:href="#DejaVuSans-119"/>
      <use x="81.787109" xlink:href="#DejaVuSans-105"/>
      <use x="109.570312" xlink:href="#DejaVuSans-116"/>
      <use x="148.779297" xlink:href="#DejaVuSans-104"/>
      <use x="212.158203" xlink:href="#DejaVuSans-32"/>
      <use x="243.945312" xlink:href="#DejaVuSans-73"/>
      <use x="273.4375" xlink:href="#DejaVuSans-116"/>
      <use x="312.646484" xlink:href="#DejaVuSans-97"/>
      <use x="373.925781" xlink:href="#DejaVuSans-108"/>
      <use x="401.708984" xlink:href="#DejaVuSans-105"/>
      <use x="429.492188" xlink:href="#DejaVuSans-99"/>
      <use x="484.472656" xlink:href="#DejaVuSans-32"/>
      <use x="516.259766" xlink:href="#DejaVuSans-73"/>
      <use x="545.751953" xlink:href="#DejaVuSans-116"/>
      <use x="584.960938" xlink:href="#DejaVuSans-101"/>
      <use x="646.484375" xlink:href="#DejaVuSans-109"/>
      <use x="743.896484" xlink:href="#DejaVuSans-115"/>
     </g>
    </g>
    <g id="patch_75">
     <path d="M 2145.992188 205.857813 
L 2165.992188 205.857813 
L 2165.992188 198.857813 
L 2145.992188 198.857813 
z
" style="fill:#1f77b4;"/>
    </g>
    <g id="text_79">
     <!-- with Underlined Items -->
     <g transform="translate(2173.992188 205.857813)scale(0.1 -0.1)">
      <use xlink:href="#DejaVuSans-119"/>
      <use x="81.787109" xlink:href="#DejaVuSans-105"/>
      <use x="109.570312" xlink:href="#DejaVuSans-116"/>
      <use x="148.779297" xlink:href="#DejaVuSans-104"/>
      <use x="212.158203" xlink:href="#DejaVuSans-32"/>
      <use x="243.945312" xlink:href="#DejaVuSans-85"/>
      <use x="317.138672" xlink:href="#DejaVuSans-110"/>
      <use x="380.517578" xlink:href="#DejaVuSans-100"/>
      <use x="443.994141" xlink:href="#DejaVuSans-101"/>
      <use x="505.517578" xlink:href="#DejaVuSans-114"/>
      <use x="546.630859" xlink:href="#DejaVuSans-108"/>
      <use x="574.414062" xlink:href="#DejaVuSans-105"/>
      <use x="602.197266" xlink:href="#DejaVuSans-110"/>
      <use x="665.576172" xlink:href="#DejaVuSans-101"/>
      <use x="727.099609" xlink:href="#DejaVuSans-100"/>
      <use x="790.576172" xlink:href="#DejaVuSans-32"/>
      <use x="822.363281" xlink:href="#DejaVuSans-73"/>
      <use x="851.855469" xlink:href="#DejaVuSans-116"/>
      <use x="891.064453" xlink:href="#DejaVuSans-101"/>
      <use x="952.587891" xlink:href="#DejaVuSans-109"/>
      <use x="1050" xlink:href="#DejaVuSans-115"/>
     </g>
    </g>
    <g id="patch_76">
     <path d="M 2145.992188 220.535938 
L 2165.992188 220.535938 
L 2165.992188 213.535938 
L 2145.992188 213.535938 
z
" style="fill:#ff7f0e;"/>
    </g>
    <g id="text_80">
     <!-- with E-Mails -->
     <g transform="translate(2173.992188 220.535938)scale(0.1 -0.1)">
      <defs>
       <path d="M 4.890625 31.390625 
L 31.203125 31.390625 
L 31.203125 23.390625 
L 4.890625 23.390625 
z
" id="DejaVuSans-45"/>
      </defs>
      <use xlink:href="#DejaVuSans-119"/>
      <use x="81.787109" xlink:href="#DejaVuSans-105"/>
      <use x="109.570312" xlink:href="#DejaVuSans-116"/>
      <use x="148.779297" xlink:href="#DejaVuSans-104"/>
      <use x="212.158203" xlink:href="#DejaVuSans-32"/>
      <use x="243.945312" xlink:href="#DejaVuSans-69"/>
      <use x="307.128906" xlink:href="#DejaVuSans-45"/>
      <use x="343.212891" xlink:href="#DejaVuSans-77"/>
      <use x="429.492188" xlink:href="#DejaVuSans-97"/>
      <use x="490.771484" xlink:href="#DejaVuSans-105"/>
      <use x="518.554688" xlink:href="#DejaVuSans-108"/>
      <use x="546.337891" xlink:href="#DejaVuSans-115"/>
     </g>
    </g>
    <g id="patch_77">
     <path d="M 2145.992188 235.214063 
L 2165.992188 235.214063 
L 2165.992188 228.214063 
L 2145.992188 228.214063 
z
" style="fill:#2ca02c;"/>
    </g>
    <g id="text_81">
     <!-- with Emojis -->
     <g transform="translate(2173.992188 235.214063)scale(0.1 -0.1)">
      <defs>
       <path d="M 9.421875 54.6875 
L 18.40625 54.6875 
L 18.40625 -0.984375 
Q 18.40625 -11.421875 14.421875 -16.109375 
Q 10.453125 -20.796875 1.609375 -20.796875 
L -1.8125 -20.796875 
L -1.8125 -13.1875 
L 0.59375 -13.1875 
Q 5.71875 -13.1875 7.5625 -10.8125 
Q 9.421875 -8.453125 9.421875 -0.984375 
z
M 9.421875 75.984375 
L 18.40625 75.984375 
L 18.40625 64.59375 
L 9.421875 64.59375 
z
" id="DejaVuSans-106"/>
      </defs>
      <use xlink:href="#DejaVuSans-119"/>
      <use x="81.787109" xlink:href="#DejaVuSans-105"/>
      <use x="109.570312" xlink:href="#DejaVuSans-116"/>
      <use x="148.779297" xlink:href="#DejaVuSans-104"/>
      <use x="212.158203" xlink:href="#DejaVuSans-32"/>
      <use x="243.945312" xlink:href="#DejaVuSans-69"/>
      <use x="307.128906" xlink:href="#DejaVuSans-109"/>
      <use x="404.541016" xlink:href="#DejaVuSans-111"/>
      <use x="465.722656" xlink:href="#DejaVuSans-106"/>
      <use x="493.505859" xlink:href="#DejaVuSans-105"/>
      <use x="521.289062" xlink:href="#DejaVuSans-115"/>
     </g>
    </g>
   </g>
  </g>
 </g>
 <defs>
  <clipPath id="p759ea0c4b1">
   <rect height="592.4" width="2226.525" x="66.675" y="27.8"/>
  </clipPath>
 </defs>
</svg>
