<?xml version="1.0" encoding="utf-8" standalone="no"?>
<!DOCTYPE svg PUBLIC "-//W3C//DTD SVG 1.1//EN"
  "http://www.w3.org/Graphics/SVG/1.1/DTD/svg11.dtd">
<!-- Created with matplotlib (https://matplotlib.org/) -->
<svg height="648pt" version="1.1" viewBox="0 0 1152 648" width="1152pt" xmlns="http://www.w3.org/2000/svg" xmlns:xlink="http://www.w3.org/1999/xlink">
 <metadata>
  <rdf:RDF xmlns:cc="http://creativecommons.org/ns#" xmlns:dc="http://purl.org/dc/elements/1.1/" xmlns:rdf="http://www.w3.org/1999/02/22-rdf-syntax-ns#">
   <cc:Work>
    <dc:type rdf:resource="http://purl.org/dc/dcmitype/StillImage"/>
    <dc:date>2021-03-25T03:49:23.329300</dc:date>
    <dc:format>image/svg+xml</dc:format>
    <dc:creator>
     <cc:Agent>
      <dc:title>Matplotlib v3.3.4, https://matplotlib.org/</dc:title>
     </cc:Agent>
    </dc:creator>
   </cc:Work>
  </rdf:RDF>
 </metadata>
 <defs>
  <style type="text/css">*{stroke-linecap:butt;stroke-linejoin:round;}</style>
 </defs>
 <g id="figure_1">
  <g id="patch_1">
   <path d="M 0 648 
L 1152 648 
L 1152 0 
L 0 0 
z
" style="fill:#ffffff;"/>
  </g>
  <g id="axes_1">
   <g id="patch_2">
    <path d="M 89.54 613.96 
L 1137.96 613.96 
L 1137.96 35.04 
L 89.54 35.04 
z
" style="fill:#e5e5e5;"/>
   </g>
   <g id="matplotlib.axis_1">
    <g id="xtick_1">
     <g id="line2d_1">
      <path clip-path="url(#p21ea1702a0)" d="M 147.840144 613.96 
L 147.840144 35.04 
" style="fill:none;stroke:#ffffff;stroke-linecap:square;stroke-width:0.8;"/>
     </g>
     <g id="line2d_2">
      <defs>
       <path d="M 0 0 
L 0 3.5 
" id="m6ba3a29e80" style="stroke:#555555;stroke-width:0.8;"/>
      </defs>
      <g>
       <use style="fill:#555555;stroke:#555555;stroke-width:0.8;" x="147.840144" xlink:href="#m6ba3a29e80" y="613.96"/>
      </g>
     </g>
     <g id="text_1">
      <!-- FREIHEITSCHAT -->
      <g style="fill:#555555;" transform="translate(97.211237 630.837969)scale(0.13 -0.13)">
       <defs>
        <path d="M 9.8125 72.90625 
L 51.703125 72.90625 
L 51.703125 64.59375 
L 19.671875 64.59375 
L 19.671875 43.109375 
L 48.578125 43.109375 
L 48.578125 34.8125 
L 19.671875 34.8125 
L 19.671875 0 
L 9.8125 0 
z
" id="DejaVuSans-70"/>
        <path d="M 44.390625 34.1875 
Q 47.5625 33.109375 50.5625 29.59375 
Q 53.5625 26.078125 56.59375 19.921875 
L 66.609375 0 
L 56 0 
L 46.6875 18.703125 
Q 43.0625 26.03125 39.671875 28.421875 
Q 36.28125 30.8125 30.421875 30.8125 
L 19.671875 30.8125 
L 19.671875 0 
L 9.8125 0 
L 9.8125 72.90625 
L 32.078125 72.90625 
Q 44.578125 72.90625 50.734375 67.671875 
Q 56.890625 62.453125 56.890625 51.90625 
Q 56.890625 45.015625 53.6875 40.46875 
Q 50.484375 35.9375 44.390625 34.1875 
z
M 19.671875 64.796875 
L 19.671875 38.921875 
L 32.078125 38.921875 
Q 39.203125 38.921875 42.84375 42.21875 
Q 46.484375 45.515625 46.484375 51.90625 
Q 46.484375 58.296875 42.84375 61.546875 
Q 39.203125 64.796875 32.078125 64.796875 
z
" id="DejaVuSans-82"/>
        <path d="M 9.8125 72.90625 
L 55.90625 72.90625 
L 55.90625 64.59375 
L 19.671875 64.59375 
L 19.671875 43.015625 
L 54.390625 43.015625 
L 54.390625 34.71875 
L 19.671875 34.71875 
L 19.671875 8.296875 
L 56.78125 8.296875 
L 56.78125 0 
L 9.8125 0 
z
" id="DejaVuSans-69"/>
        <path d="M 9.8125 72.90625 
L 19.671875 72.90625 
L 19.671875 0 
L 9.8125 0 
z
" id="DejaVuSans-73"/>
        <path d="M 9.8125 72.90625 
L 19.671875 72.90625 
L 19.671875 43.015625 
L 55.515625 43.015625 
L 55.515625 72.90625 
L 65.375 72.90625 
L 65.375 0 
L 55.515625 0 
L 55.515625 34.71875 
L 19.671875 34.71875 
L 19.671875 0 
L 9.8125 0 
z
" id="DejaVuSans-72"/>
        <path d="M -0.296875 72.90625 
L 61.375 72.90625 
L 61.375 64.59375 
L 35.5 64.59375 
L 35.5 0 
L 25.59375 0 
L 25.59375 64.59375 
L -0.296875 64.59375 
z
" id="DejaVuSans-84"/>
        <path d="M 53.515625 70.515625 
L 53.515625 60.890625 
Q 47.90625 63.578125 42.921875 64.890625 
Q 37.9375 66.21875 33.296875 66.21875 
Q 25.25 66.21875 20.875 63.09375 
Q 16.5 59.96875 16.5 54.203125 
Q 16.5 49.359375 19.40625 46.890625 
Q 22.3125 44.4375 30.421875 42.921875 
L 36.375 41.703125 
Q 47.40625 39.59375 52.65625 34.296875 
Q 57.90625 29 57.90625 20.125 
Q 57.90625 9.515625 50.796875 4.046875 
Q 43.703125 -1.421875 29.984375 -1.421875 
Q 24.8125 -1.421875 18.96875 -0.25 
Q 13.140625 0.921875 6.890625 3.21875 
L 6.890625 13.375 
Q 12.890625 10.015625 18.65625 8.296875 
Q 24.421875 6.59375 29.984375 6.59375 
Q 38.421875 6.59375 43.015625 9.90625 
Q 47.609375 13.234375 47.609375 19.390625 
Q 47.609375 24.75 44.3125 27.78125 
Q 41.015625 30.8125 33.5 32.328125 
L 27.484375 33.5 
Q 16.453125 35.6875 11.515625 40.375 
Q 6.59375 45.0625 6.59375 53.421875 
Q 6.59375 63.09375 13.40625 68.65625 
Q 20.21875 74.21875 32.171875 74.21875 
Q 37.3125 74.21875 42.625 73.28125 
Q 47.953125 72.359375 53.515625 70.515625 
z
" id="DejaVuSans-83"/>
        <path d="M 64.40625 67.28125 
L 64.40625 56.890625 
Q 59.421875 61.53125 53.78125 63.8125 
Q 48.140625 66.109375 41.796875 66.109375 
Q 29.296875 66.109375 22.65625 58.46875 
Q 16.015625 50.828125 16.015625 36.375 
Q 16.015625 21.96875 22.65625 14.328125 
Q 29.296875 6.6875 41.796875 6.6875 
Q 48.140625 6.6875 53.78125 8.984375 
Q 59.421875 11.28125 64.40625 15.921875 
L 64.40625 5.609375 
Q 59.234375 2.09375 53.4375 0.328125 
Q 47.65625 -1.421875 41.21875 -1.421875 
Q 24.65625 -1.421875 15.125 8.703125 
Q 5.609375 18.84375 5.609375 36.375 
Q 5.609375 53.953125 15.125 64.078125 
Q 24.65625 74.21875 41.21875 74.21875 
Q 47.75 74.21875 53.53125 72.484375 
Q 59.328125 70.75 64.40625 67.28125 
z
" id="DejaVuSans-67"/>
        <path d="M 34.1875 63.1875 
L 20.796875 26.90625 
L 47.609375 26.90625 
z
M 28.609375 72.90625 
L 39.796875 72.90625 
L 67.578125 0 
L 57.328125 0 
L 50.6875 18.703125 
L 17.828125 18.703125 
L 11.1875 0 
L 0.78125 0 
z
" id="DejaVuSans-65"/>
       </defs>
       <use xlink:href="#DejaVuSans-70"/>
       <use x="57.519531" xlink:href="#DejaVuSans-82"/>
       <use x="127.001953" xlink:href="#DejaVuSans-69"/>
       <use x="190.185547" xlink:href="#DejaVuSans-73"/>
       <use x="219.677734" xlink:href="#DejaVuSans-72"/>
       <use x="294.873047" xlink:href="#DejaVuSans-69"/>
       <use x="358.056641" xlink:href="#DejaVuSans-73"/>
       <use x="387.548828" xlink:href="#DejaVuSans-84"/>
       <use x="448.632812" xlink:href="#DejaVuSans-83"/>
       <use x="512.109375" xlink:href="#DejaVuSans-67"/>
       <use x="581.933594" xlink:href="#DejaVuSans-72"/>
       <use x="657.128906" xlink:href="#DejaVuSans-65"/>
       <use x="717.787109" xlink:href="#DejaVuSans-84"/>
      </g>
     </g>
    </g>
    <g id="xtick_2">
     <g id="line2d_3">
      <path clip-path="url(#p21ea1702a0)" d="M 475.369041 613.96 
L 475.369041 35.04 
" style="fill:none;stroke:#ffffff;stroke-linecap:square;stroke-width:0.8;"/>
     </g>
     <g id="line2d_4">
      <g>
       <use style="fill:#555555;stroke:#555555;stroke-width:0.8;" x="475.369041" xlink:href="#m6ba3a29e80" y="613.96"/>
      </g>
     </g>
     <g id="text_2">
      <!-- FREIHEITSCHAT  BLITZ -->
      <g style="fill:#555555;" transform="translate(402.187166 630.837969)scale(0.13 -0.13)">
       <defs>
        <path id="DejaVuSans-32"/>
        <path d="M 19.671875 34.8125 
L 19.671875 8.109375 
L 35.5 8.109375 
Q 43.453125 8.109375 47.28125 11.40625 
Q 51.125 14.703125 51.125 21.484375 
Q 51.125 28.328125 47.28125 31.5625 
Q 43.453125 34.8125 35.5 34.8125 
z
M 19.671875 64.796875 
L 19.671875 42.828125 
L 34.28125 42.828125 
Q 41.5 42.828125 45.03125 45.53125 
Q 48.578125 48.25 48.578125 53.8125 
Q 48.578125 59.328125 45.03125 62.0625 
Q 41.5 64.796875 34.28125 64.796875 
z
M 9.8125 72.90625 
L 35.015625 72.90625 
Q 46.296875 72.90625 52.390625 68.21875 
Q 58.5 63.53125 58.5 54.890625 
Q 58.5 48.1875 55.375 44.234375 
Q 52.25 40.28125 46.1875 39.3125 
Q 53.46875 37.75 57.5 32.78125 
Q 61.53125 27.828125 61.53125 20.40625 
Q 61.53125 10.640625 54.890625 5.3125 
Q 48.25 0 35.984375 0 
L 9.8125 0 
z
" id="DejaVuSans-66"/>
        <path d="M 9.8125 72.90625 
L 19.671875 72.90625 
L 19.671875 8.296875 
L 55.171875 8.296875 
L 55.171875 0 
L 9.8125 0 
z
" id="DejaVuSans-76"/>
        <path d="M 5.609375 72.90625 
L 62.890625 72.90625 
L 62.890625 65.375 
L 16.796875 8.296875 
L 64.015625 8.296875 
L 64.015625 0 
L 4.5 0 
L 4.5 7.515625 
L 50.59375 64.59375 
L 5.609375 64.59375 
z
" id="DejaVuSans-90"/>
       </defs>
       <use xlink:href="#DejaVuSans-70"/>
       <use x="57.519531" xlink:href="#DejaVuSans-82"/>
       <use x="127.001953" xlink:href="#DejaVuSans-69"/>
       <use x="190.185547" xlink:href="#DejaVuSans-73"/>
       <use x="219.677734" xlink:href="#DejaVuSans-72"/>
       <use x="294.873047" xlink:href="#DejaVuSans-69"/>
       <use x="358.056641" xlink:href="#DejaVuSans-73"/>
       <use x="387.548828" xlink:href="#DejaVuSans-84"/>
       <use x="448.632812" xlink:href="#DejaVuSans-83"/>
       <use x="512.109375" xlink:href="#DejaVuSans-67"/>
       <use x="581.933594" xlink:href="#DejaVuSans-72"/>
       <use x="657.128906" xlink:href="#DejaVuSans-65"/>
       <use x="717.787109" xlink:href="#DejaVuSans-84"/>
       <use x="778.871094" xlink:href="#DejaVuSans-32"/>
       <use x="810.658203" xlink:href="#DejaVuSans-32"/>
       <use x="842.445312" xlink:href="#DejaVuSans-66"/>
       <use x="911.048828" xlink:href="#DejaVuSans-76"/>
       <use x="966.761719" xlink:href="#DejaVuSans-73"/>
       <use x="996.253906" xlink:href="#DejaVuSans-84"/>
       <use x="1057.337891" xlink:href="#DejaVuSans-90"/>
      </g>
     </g>
    </g>
    <g id="xtick_3">
     <g id="line2d_5">
      <path clip-path="url(#p21ea1702a0)" d="M 802.897938 613.96 
L 802.897938 35.04 
" style="fill:none;stroke:#ffffff;stroke-linecap:square;stroke-width:0.8;"/>
     </g>
     <g id="line2d_6">
      <g>
       <use style="fill:#555555;stroke:#555555;stroke-width:0.8;" x="802.897938" xlink:href="#m6ba3a29e80" y="613.96"/>
      </g>
     </g>
     <g id="text_3">
      <!-- Livestreaming fuer Deutschland -->
      <g style="fill:#555555;" transform="translate(698.800438 630.837969)scale(0.13 -0.13)">
       <defs>
        <path d="M 9.421875 54.6875 
L 18.40625 54.6875 
L 18.40625 0 
L 9.421875 0 
z
M 9.421875 75.984375 
L 18.40625 75.984375 
L 18.40625 64.59375 
L 9.421875 64.59375 
z
" id="DejaVuSans-105"/>
        <path d="M 2.984375 54.6875 
L 12.5 54.6875 
L 29.59375 8.796875 
L 46.6875 54.6875 
L 56.203125 54.6875 
L 35.6875 0 
L 23.484375 0 
z
" id="DejaVuSans-118"/>
        <path d="M 56.203125 29.59375 
L 56.203125 25.203125 
L 14.890625 25.203125 
Q 15.484375 15.921875 20.484375 11.0625 
Q 25.484375 6.203125 34.421875 6.203125 
Q 39.59375 6.203125 44.453125 7.46875 
Q 49.3125 8.734375 54.109375 11.28125 
L 54.109375 2.78125 
Q 49.265625 0.734375 44.1875 -0.34375 
Q 39.109375 -1.421875 33.890625 -1.421875 
Q 20.796875 -1.421875 13.15625 6.1875 
Q 5.515625 13.8125 5.515625 26.8125 
Q 5.515625 40.234375 12.765625 48.109375 
Q 20.015625 56 32.328125 56 
Q 43.359375 56 49.78125 48.890625 
Q 56.203125 41.796875 56.203125 29.59375 
z
M 47.21875 32.234375 
Q 47.125 39.59375 43.09375 43.984375 
Q 39.0625 48.390625 32.421875 48.390625 
Q 24.90625 48.390625 20.390625 44.140625 
Q 15.875 39.890625 15.1875 32.171875 
z
" id="DejaVuSans-101"/>
        <path d="M 44.28125 53.078125 
L 44.28125 44.578125 
Q 40.484375 46.53125 36.375 47.5 
Q 32.28125 48.484375 27.875 48.484375 
Q 21.1875 48.484375 17.84375 46.4375 
Q 14.5 44.390625 14.5 40.28125 
Q 14.5 37.15625 16.890625 35.375 
Q 19.28125 33.59375 26.515625 31.984375 
L 29.59375 31.296875 
Q 39.15625 29.25 43.1875 25.515625 
Q 47.21875 21.78125 47.21875 15.09375 
Q 47.21875 7.46875 41.1875 3.015625 
Q 35.15625 -1.421875 24.609375 -1.421875 
Q 20.21875 -1.421875 15.453125 -0.5625 
Q 10.6875 0.296875 5.421875 2 
L 5.421875 11.28125 
Q 10.40625 8.6875 15.234375 7.390625 
Q 20.0625 6.109375 24.8125 6.109375 
Q 31.15625 6.109375 34.5625 8.28125 
Q 37.984375 10.453125 37.984375 14.40625 
Q 37.984375 18.0625 35.515625 20.015625 
Q 33.0625 21.96875 24.703125 23.78125 
L 21.578125 24.515625 
Q 13.234375 26.265625 9.515625 29.90625 
Q 5.8125 33.546875 5.8125 39.890625 
Q 5.8125 47.609375 11.28125 51.796875 
Q 16.75 56 26.8125 56 
Q 31.78125 56 36.171875 55.265625 
Q 40.578125 54.546875 44.28125 53.078125 
z
" id="DejaVuSans-115"/>
        <path d="M 18.3125 70.21875 
L 18.3125 54.6875 
L 36.8125 54.6875 
L 36.8125 47.703125 
L 18.3125 47.703125 
L 18.3125 18.015625 
Q 18.3125 11.328125 20.140625 9.421875 
Q 21.96875 7.515625 27.59375 7.515625 
L 36.8125 7.515625 
L 36.8125 0 
L 27.59375 0 
Q 17.1875 0 13.234375 3.875 
Q 9.28125 7.765625 9.28125 18.015625 
L 9.28125 47.703125 
L 2.6875 47.703125 
L 2.6875 54.6875 
L 9.28125 54.6875 
L 9.28125 70.21875 
z
" id="DejaVuSans-116"/>
        <path d="M 41.109375 46.296875 
Q 39.59375 47.171875 37.8125 47.578125 
Q 36.03125 48 33.890625 48 
Q 26.265625 48 22.1875 43.046875 
Q 18.109375 38.09375 18.109375 28.8125 
L 18.109375 0 
L 9.078125 0 
L 9.078125 54.6875 
L 18.109375 54.6875 
L 18.109375 46.1875 
Q 20.953125 51.171875 25.484375 53.578125 
Q 30.03125 56 36.53125 56 
Q 37.453125 56 38.578125 55.875 
Q 39.703125 55.765625 41.0625 55.515625 
z
" id="DejaVuSans-114"/>
        <path d="M 34.28125 27.484375 
Q 23.390625 27.484375 19.1875 25 
Q 14.984375 22.515625 14.984375 16.5 
Q 14.984375 11.71875 18.140625 8.90625 
Q 21.296875 6.109375 26.703125 6.109375 
Q 34.1875 6.109375 38.703125 11.40625 
Q 43.21875 16.703125 43.21875 25.484375 
L 43.21875 27.484375 
z
M 52.203125 31.203125 
L 52.203125 0 
L 43.21875 0 
L 43.21875 8.296875 
Q 40.140625 3.328125 35.546875 0.953125 
Q 30.953125 -1.421875 24.3125 -1.421875 
Q 15.921875 -1.421875 10.953125 3.296875 
Q 6 8.015625 6 15.921875 
Q 6 25.140625 12.171875 29.828125 
Q 18.359375 34.515625 30.609375 34.515625 
L 43.21875 34.515625 
L 43.21875 35.40625 
Q 43.21875 41.609375 39.140625 45 
Q 35.0625 48.390625 27.6875 48.390625 
Q 23 48.390625 18.546875 47.265625 
Q 14.109375 46.140625 10.015625 43.890625 
L 10.015625 52.203125 
Q 14.9375 54.109375 19.578125 55.046875 
Q 24.21875 56 28.609375 56 
Q 40.484375 56 46.34375 49.84375 
Q 52.203125 43.703125 52.203125 31.203125 
z
" id="DejaVuSans-97"/>
        <path d="M 52 44.1875 
Q 55.375 50.25 60.0625 53.125 
Q 64.75 56 71.09375 56 
Q 79.640625 56 84.28125 50.015625 
Q 88.921875 44.046875 88.921875 33.015625 
L 88.921875 0 
L 79.890625 0 
L 79.890625 32.71875 
Q 79.890625 40.578125 77.09375 44.375 
Q 74.3125 48.1875 68.609375 48.1875 
Q 61.625 48.1875 57.5625 43.546875 
Q 53.515625 38.921875 53.515625 30.90625 
L 53.515625 0 
L 44.484375 0 
L 44.484375 32.71875 
Q 44.484375 40.625 41.703125 44.40625 
Q 38.921875 48.1875 33.109375 48.1875 
Q 26.21875 48.1875 22.15625 43.53125 
Q 18.109375 38.875 18.109375 30.90625 
L 18.109375 0 
L 9.078125 0 
L 9.078125 54.6875 
L 18.109375 54.6875 
L 18.109375 46.1875 
Q 21.1875 51.21875 25.484375 53.609375 
Q 29.78125 56 35.6875 56 
Q 41.65625 56 45.828125 52.96875 
Q 50 49.953125 52 44.1875 
z
" id="DejaVuSans-109"/>
        <path d="M 54.890625 33.015625 
L 54.890625 0 
L 45.90625 0 
L 45.90625 32.71875 
Q 45.90625 40.484375 42.875 44.328125 
Q 39.84375 48.1875 33.796875 48.1875 
Q 26.515625 48.1875 22.3125 43.546875 
Q 18.109375 38.921875 18.109375 30.90625 
L 18.109375 0 
L 9.078125 0 
L 9.078125 54.6875 
L 18.109375 54.6875 
L 18.109375 46.1875 
Q 21.34375 51.125 25.703125 53.5625 
Q 30.078125 56 35.796875 56 
Q 45.21875 56 50.046875 50.171875 
Q 54.890625 44.34375 54.890625 33.015625 
z
" id="DejaVuSans-110"/>
        <path d="M 45.40625 27.984375 
Q 45.40625 37.75 41.375 43.109375 
Q 37.359375 48.484375 30.078125 48.484375 
Q 22.859375 48.484375 18.828125 43.109375 
Q 14.796875 37.75 14.796875 27.984375 
Q 14.796875 18.265625 18.828125 12.890625 
Q 22.859375 7.515625 30.078125 7.515625 
Q 37.359375 7.515625 41.375 12.890625 
Q 45.40625 18.265625 45.40625 27.984375 
z
M 54.390625 6.78125 
Q 54.390625 -7.171875 48.1875 -13.984375 
Q 42 -20.796875 29.203125 -20.796875 
Q 24.46875 -20.796875 20.265625 -20.09375 
Q 16.0625 -19.390625 12.109375 -17.921875 
L 12.109375 -9.1875 
Q 16.0625 -11.328125 19.921875 -12.34375 
Q 23.78125 -13.375 27.78125 -13.375 
Q 36.625 -13.375 41.015625 -8.765625 
Q 45.40625 -4.15625 45.40625 5.171875 
L 45.40625 9.625 
Q 42.625 4.78125 38.28125 2.390625 
Q 33.9375 0 27.875 0 
Q 17.828125 0 11.671875 7.65625 
Q 5.515625 15.328125 5.515625 27.984375 
Q 5.515625 40.671875 11.671875 48.328125 
Q 17.828125 56 27.875 56 
Q 33.9375 56 38.28125 53.609375 
Q 42.625 51.21875 45.40625 46.390625 
L 45.40625 54.6875 
L 54.390625 54.6875 
z
" id="DejaVuSans-103"/>
        <path d="M 37.109375 75.984375 
L 37.109375 68.5 
L 28.515625 68.5 
Q 23.6875 68.5 21.796875 66.546875 
Q 19.921875 64.59375 19.921875 59.515625 
L 19.921875 54.6875 
L 34.71875 54.6875 
L 34.71875 47.703125 
L 19.921875 47.703125 
L 19.921875 0 
L 10.890625 0 
L 10.890625 47.703125 
L 2.296875 47.703125 
L 2.296875 54.6875 
L 10.890625 54.6875 
L 10.890625 58.5 
Q 10.890625 67.625 15.140625 71.796875 
Q 19.390625 75.984375 28.609375 75.984375 
z
" id="DejaVuSans-102"/>
        <path d="M 8.5 21.578125 
L 8.5 54.6875 
L 17.484375 54.6875 
L 17.484375 21.921875 
Q 17.484375 14.15625 20.5 10.265625 
Q 23.53125 6.390625 29.59375 6.390625 
Q 36.859375 6.390625 41.078125 11.03125 
Q 45.3125 15.671875 45.3125 23.6875 
L 45.3125 54.6875 
L 54.296875 54.6875 
L 54.296875 0 
L 45.3125 0 
L 45.3125 8.40625 
Q 42.046875 3.421875 37.71875 1 
Q 33.40625 -1.421875 27.6875 -1.421875 
Q 18.265625 -1.421875 13.375 4.4375 
Q 8.5 10.296875 8.5 21.578125 
z
M 31.109375 56 
z
" id="DejaVuSans-117"/>
        <path d="M 19.671875 64.796875 
L 19.671875 8.109375 
L 31.59375 8.109375 
Q 46.6875 8.109375 53.6875 14.9375 
Q 60.6875 21.78125 60.6875 36.53125 
Q 60.6875 51.171875 53.6875 57.984375 
Q 46.6875 64.796875 31.59375 64.796875 
z
M 9.8125 72.90625 
L 30.078125 72.90625 
Q 51.265625 72.90625 61.171875 64.09375 
Q 71.09375 55.28125 71.09375 36.53125 
Q 71.09375 17.671875 61.125 8.828125 
Q 51.171875 0 30.078125 0 
L 9.8125 0 
z
" id="DejaVuSans-68"/>
        <path d="M 48.78125 52.59375 
L 48.78125 44.1875 
Q 44.96875 46.296875 41.140625 47.34375 
Q 37.3125 48.390625 33.40625 48.390625 
Q 24.65625 48.390625 19.8125 42.84375 
Q 14.984375 37.3125 14.984375 27.296875 
Q 14.984375 17.28125 19.8125 11.734375 
Q 24.65625 6.203125 33.40625 6.203125 
Q 37.3125 6.203125 41.140625 7.25 
Q 44.96875 8.296875 48.78125 10.40625 
L 48.78125 2.09375 
Q 45.015625 0.34375 40.984375 -0.53125 
Q 36.96875 -1.421875 32.421875 -1.421875 
Q 20.0625 -1.421875 12.78125 6.34375 
Q 5.515625 14.109375 5.515625 27.296875 
Q 5.515625 40.671875 12.859375 48.328125 
Q 20.21875 56 33.015625 56 
Q 37.15625 56 41.109375 55.140625 
Q 45.0625 54.296875 48.78125 52.59375 
z
" id="DejaVuSans-99"/>
        <path d="M 54.890625 33.015625 
L 54.890625 0 
L 45.90625 0 
L 45.90625 32.71875 
Q 45.90625 40.484375 42.875 44.328125 
Q 39.84375 48.1875 33.796875 48.1875 
Q 26.515625 48.1875 22.3125 43.546875 
Q 18.109375 38.921875 18.109375 30.90625 
L 18.109375 0 
L 9.078125 0 
L 9.078125 75.984375 
L 18.109375 75.984375 
L 18.109375 46.1875 
Q 21.34375 51.125 25.703125 53.5625 
Q 30.078125 56 35.796875 56 
Q 45.21875 56 50.046875 50.171875 
Q 54.890625 44.34375 54.890625 33.015625 
z
" id="DejaVuSans-104"/>
        <path d="M 9.421875 75.984375 
L 18.40625 75.984375 
L 18.40625 0 
L 9.421875 0 
z
" id="DejaVuSans-108"/>
        <path d="M 45.40625 46.390625 
L 45.40625 75.984375 
L 54.390625 75.984375 
L 54.390625 0 
L 45.40625 0 
L 45.40625 8.203125 
Q 42.578125 3.328125 38.25 0.953125 
Q 33.9375 -1.421875 27.875 -1.421875 
Q 17.96875 -1.421875 11.734375 6.484375 
Q 5.515625 14.40625 5.515625 27.296875 
Q 5.515625 40.1875 11.734375 48.09375 
Q 17.96875 56 27.875 56 
Q 33.9375 56 38.25 53.625 
Q 42.578125 51.265625 45.40625 46.390625 
z
M 14.796875 27.296875 
Q 14.796875 17.390625 18.875 11.75 
Q 22.953125 6.109375 30.078125 6.109375 
Q 37.203125 6.109375 41.296875 11.75 
Q 45.40625 17.390625 45.40625 27.296875 
Q 45.40625 37.203125 41.296875 42.84375 
Q 37.203125 48.484375 30.078125 48.484375 
Q 22.953125 48.484375 18.875 42.84375 
Q 14.796875 37.203125 14.796875 27.296875 
z
" id="DejaVuSans-100"/>
       </defs>
       <use xlink:href="#DejaVuSans-76"/>
       <use x="55.712891" xlink:href="#DejaVuSans-105"/>
       <use x="83.496094" xlink:href="#DejaVuSans-118"/>
       <use x="142.675781" xlink:href="#DejaVuSans-101"/>
       <use x="204.199219" xlink:href="#DejaVuSans-115"/>
       <use x="256.298828" xlink:href="#DejaVuSans-116"/>
       <use x="295.507812" xlink:href="#DejaVuSans-114"/>
       <use x="334.371094" xlink:href="#DejaVuSans-101"/>
       <use x="395.894531" xlink:href="#DejaVuSans-97"/>
       <use x="457.173828" xlink:href="#DejaVuSans-109"/>
       <use x="554.585938" xlink:href="#DejaVuSans-105"/>
       <use x="582.369141" xlink:href="#DejaVuSans-110"/>
       <use x="645.748047" xlink:href="#DejaVuSans-103"/>
       <use x="709.224609" xlink:href="#DejaVuSans-32"/>
       <use x="741.011719" xlink:href="#DejaVuSans-102"/>
       <use x="776.216797" xlink:href="#DejaVuSans-117"/>
       <use x="839.595703" xlink:href="#DejaVuSans-101"/>
       <use x="901.119141" xlink:href="#DejaVuSans-114"/>
       <use x="942.232422" xlink:href="#DejaVuSans-32"/>
       <use x="974.019531" xlink:href="#DejaVuSans-68"/>
       <use x="1051.021484" xlink:href="#DejaVuSans-101"/>
       <use x="1112.544922" xlink:href="#DejaVuSans-117"/>
       <use x="1175.923828" xlink:href="#DejaVuSans-116"/>
       <use x="1215.132812" xlink:href="#DejaVuSans-115"/>
       <use x="1267.232422" xlink:href="#DejaVuSans-99"/>
       <use x="1322.212891" xlink:href="#DejaVuSans-104"/>
       <use x="1385.591797" xlink:href="#DejaVuSans-108"/>
       <use x="1413.375" xlink:href="#DejaVuSans-97"/>
       <use x="1474.654297" xlink:href="#DejaVuSans-110"/>
       <use x="1538.033203" xlink:href="#DejaVuSans-100"/>
      </g>
     </g>
    </g>
   </g>
   <g id="matplotlib.axis_2">
    <g id="ytick_1">
     <g id="line2d_7">
      <path clip-path="url(#p21ea1702a0)" d="M 89.54 613.96 
L 1137.96 613.96 
" style="fill:none;stroke:#ffffff;stroke-linecap:square;stroke-width:0.8;"/>
     </g>
     <g id="line2d_8">
      <defs>
       <path d="M 0 0 
L -3.5 0 
" id="ma5e3b0b912" style="stroke:#555555;stroke-width:0.8;"/>
      </defs>
      <g>
       <use style="fill:#555555;stroke:#555555;stroke-width:0.8;" x="89.54" xlink:href="#ma5e3b0b912" y="613.96"/>
      </g>
     </g>
     <g id="text_4">
      <!-- 0 -->
      <g style="fill:#555555;" transform="translate(74.26875 618.898984)scale(0.13 -0.13)">
       <defs>
        <path d="M 31.78125 66.40625 
Q 24.171875 66.40625 20.328125 58.90625 
Q 16.5 51.421875 16.5 36.375 
Q 16.5 21.390625 20.328125 13.890625 
Q 24.171875 6.390625 31.78125 6.390625 
Q 39.453125 6.390625 43.28125 13.890625 
Q 47.125 21.390625 47.125 36.375 
Q 47.125 51.421875 43.28125 58.90625 
Q 39.453125 66.40625 31.78125 66.40625 
z
M 31.78125 74.21875 
Q 44.046875 74.21875 50.515625 64.515625 
Q 56.984375 54.828125 56.984375 36.375 
Q 56.984375 17.96875 50.515625 8.265625 
Q 44.046875 -1.421875 31.78125 -1.421875 
Q 19.53125 -1.421875 13.0625 8.265625 
Q 6.59375 17.96875 6.59375 36.375 
Q 6.59375 54.828125 13.0625 64.515625 
Q 19.53125 74.21875 31.78125 74.21875 
z
" id="DejaVuSans-48"/>
       </defs>
       <use xlink:href="#DejaVuSans-48"/>
      </g>
     </g>
    </g>
    <g id="ytick_2">
     <g id="line2d_9">
      <path clip-path="url(#p21ea1702a0)" d="M 89.54 540.90707 
L 1137.96 540.90707 
" style="fill:none;stroke:#ffffff;stroke-linecap:square;stroke-width:0.8;"/>
     </g>
     <g id="line2d_10">
      <g>
       <use style="fill:#555555;stroke:#555555;stroke-width:0.8;" x="89.54" xlink:href="#ma5e3b0b912" y="540.90707"/>
      </g>
     </g>
     <g id="text_5">
      <!-- 50000 -->
      <g style="fill:#555555;" transform="translate(41.18375 545.846054)scale(0.13 -0.13)">
       <defs>
        <path d="M 10.796875 72.90625 
L 49.515625 72.90625 
L 49.515625 64.59375 
L 19.828125 64.59375 
L 19.828125 46.734375 
Q 21.96875 47.46875 24.109375 47.828125 
Q 26.265625 48.1875 28.421875 48.1875 
Q 40.625 48.1875 47.75 41.5 
Q 54.890625 34.8125 54.890625 23.390625 
Q 54.890625 11.625 47.5625 5.09375 
Q 40.234375 -1.421875 26.90625 -1.421875 
Q 22.3125 -1.421875 17.546875 -0.640625 
Q 12.796875 0.140625 7.71875 1.703125 
L 7.71875 11.625 
Q 12.109375 9.234375 16.796875 8.0625 
Q 21.484375 6.890625 26.703125 6.890625 
Q 35.15625 6.890625 40.078125 11.328125 
Q 45.015625 15.765625 45.015625 23.390625 
Q 45.015625 31 40.078125 35.4375 
Q 35.15625 39.890625 26.703125 39.890625 
Q 22.75 39.890625 18.8125 39.015625 
Q 14.890625 38.140625 10.796875 36.28125 
z
" id="DejaVuSans-53"/>
       </defs>
       <use xlink:href="#DejaVuSans-53"/>
       <use x="63.623047" xlink:href="#DejaVuSans-48"/>
       <use x="127.246094" xlink:href="#DejaVuSans-48"/>
       <use x="190.869141" xlink:href="#DejaVuSans-48"/>
       <use x="254.492188" xlink:href="#DejaVuSans-48"/>
      </g>
     </g>
    </g>
    <g id="ytick_3">
     <g id="line2d_11">
      <path clip-path="url(#p21ea1702a0)" d="M 89.54 467.854139 
L 1137.96 467.854139 
" style="fill:none;stroke:#ffffff;stroke-linecap:square;stroke-width:0.8;"/>
     </g>
     <g id="line2d_12">
      <g>
       <use style="fill:#555555;stroke:#555555;stroke-width:0.8;" x="89.54" xlink:href="#ma5e3b0b912" y="467.854139"/>
      </g>
     </g>
     <g id="text_6">
      <!-- 100000 -->
      <g style="fill:#555555;" transform="translate(32.9125 472.793124)scale(0.13 -0.13)">
       <defs>
        <path d="M 12.40625 8.296875 
L 28.515625 8.296875 
L 28.515625 63.921875 
L 10.984375 60.40625 
L 10.984375 69.390625 
L 28.421875 72.90625 
L 38.28125 72.90625 
L 38.28125 8.296875 
L 54.390625 8.296875 
L 54.390625 0 
L 12.40625 0 
z
" id="DejaVuSans-49"/>
       </defs>
       <use xlink:href="#DejaVuSans-49"/>
       <use x="63.623047" xlink:href="#DejaVuSans-48"/>
       <use x="127.246094" xlink:href="#DejaVuSans-48"/>
       <use x="190.869141" xlink:href="#DejaVuSans-48"/>
       <use x="254.492188" xlink:href="#DejaVuSans-48"/>
       <use x="318.115234" xlink:href="#DejaVuSans-48"/>
      </g>
     </g>
    </g>
    <g id="ytick_4">
     <g id="line2d_13">
      <path clip-path="url(#p21ea1702a0)" d="M 89.54 394.801209 
L 1137.96 394.801209 
" style="fill:none;stroke:#ffffff;stroke-linecap:square;stroke-width:0.8;"/>
     </g>
     <g id="line2d_14">
      <g>
       <use style="fill:#555555;stroke:#555555;stroke-width:0.8;" x="89.54" xlink:href="#ma5e3b0b912" y="394.801209"/>
      </g>
     </g>
     <g id="text_7">
      <!-- 150000 -->
      <g style="fill:#555555;" transform="translate(32.9125 399.740193)scale(0.13 -0.13)">
       <use xlink:href="#DejaVuSans-49"/>
       <use x="63.623047" xlink:href="#DejaVuSans-53"/>
       <use x="127.246094" xlink:href="#DejaVuSans-48"/>
       <use x="190.869141" xlink:href="#DejaVuSans-48"/>
       <use x="254.492188" xlink:href="#DejaVuSans-48"/>
       <use x="318.115234" xlink:href="#DejaVuSans-48"/>
      </g>
     </g>
    </g>
    <g id="ytick_5">
     <g id="line2d_15">
      <path clip-path="url(#p21ea1702a0)" d="M 89.54 321.748279 
L 1137.96 321.748279 
" style="fill:none;stroke:#ffffff;stroke-linecap:square;stroke-width:0.8;"/>
     </g>
     <g id="line2d_16">
      <g>
       <use style="fill:#555555;stroke:#555555;stroke-width:0.8;" x="89.54" xlink:href="#ma5e3b0b912" y="321.748279"/>
      </g>
     </g>
     <g id="text_8">
      <!-- 200000 -->
      <g style="fill:#555555;" transform="translate(32.9125 326.687263)scale(0.13 -0.13)">
       <defs>
        <path d="M 19.1875 8.296875 
L 53.609375 8.296875 
L 53.609375 0 
L 7.328125 0 
L 7.328125 8.296875 
Q 12.9375 14.109375 22.625 23.890625 
Q 32.328125 33.6875 34.8125 36.53125 
Q 39.546875 41.84375 41.421875 45.53125 
Q 43.3125 49.21875 43.3125 52.78125 
Q 43.3125 58.59375 39.234375 62.25 
Q 35.15625 65.921875 28.609375 65.921875 
Q 23.96875 65.921875 18.8125 64.3125 
Q 13.671875 62.703125 7.8125 59.421875 
L 7.8125 69.390625 
Q 13.765625 71.78125 18.9375 73 
Q 24.125 74.21875 28.421875 74.21875 
Q 39.75 74.21875 46.484375 68.546875 
Q 53.21875 62.890625 53.21875 53.421875 
Q 53.21875 48.921875 51.53125 44.890625 
Q 49.859375 40.875 45.40625 35.40625 
Q 44.1875 33.984375 37.640625 27.21875 
Q 31.109375 20.453125 19.1875 8.296875 
z
" id="DejaVuSans-50"/>
       </defs>
       <use xlink:href="#DejaVuSans-50"/>
       <use x="63.623047" xlink:href="#DejaVuSans-48"/>
       <use x="127.246094" xlink:href="#DejaVuSans-48"/>
       <use x="190.869141" xlink:href="#DejaVuSans-48"/>
       <use x="254.492188" xlink:href="#DejaVuSans-48"/>
       <use x="318.115234" xlink:href="#DejaVuSans-48"/>
      </g>
     </g>
    </g>
    <g id="ytick_6">
     <g id="line2d_17">
      <path clip-path="url(#p21ea1702a0)" d="M 89.54 248.695348 
L 1137.96 248.695348 
" style="fill:none;stroke:#ffffff;stroke-linecap:square;stroke-width:0.8;"/>
     </g>
     <g id="line2d_18">
      <g>
       <use style="fill:#555555;stroke:#555555;stroke-width:0.8;" x="89.54" xlink:href="#ma5e3b0b912" y="248.695348"/>
      </g>
     </g>
     <g id="text_9">
      <!-- 250000 -->
      <g style="fill:#555555;" transform="translate(32.9125 253.634333)scale(0.13 -0.13)">
       <use xlink:href="#DejaVuSans-50"/>
       <use x="63.623047" xlink:href="#DejaVuSans-53"/>
       <use x="127.246094" xlink:href="#DejaVuSans-48"/>
       <use x="190.869141" xlink:href="#DejaVuSans-48"/>
       <use x="254.492188" xlink:href="#DejaVuSans-48"/>
       <use x="318.115234" xlink:href="#DejaVuSans-48"/>
      </g>
     </g>
    </g>
    <g id="ytick_7">
     <g id="line2d_19">
      <path clip-path="url(#p21ea1702a0)" d="M 89.54 175.642418 
L 1137.96 175.642418 
" style="fill:none;stroke:#ffffff;stroke-linecap:square;stroke-width:0.8;"/>
     </g>
     <g id="line2d_20">
      <g>
       <use style="fill:#555555;stroke:#555555;stroke-width:0.8;" x="89.54" xlink:href="#ma5e3b0b912" y="175.642418"/>
      </g>
     </g>
     <g id="text_10">
      <!-- 300000 -->
      <g style="fill:#555555;" transform="translate(32.9125 180.581402)scale(0.13 -0.13)">
       <defs>
        <path d="M 40.578125 39.3125 
Q 47.65625 37.796875 51.625 33 
Q 55.609375 28.21875 55.609375 21.1875 
Q 55.609375 10.40625 48.1875 4.484375 
Q 40.765625 -1.421875 27.09375 -1.421875 
Q 22.515625 -1.421875 17.65625 -0.515625 
Q 12.796875 0.390625 7.625 2.203125 
L 7.625 11.71875 
Q 11.71875 9.328125 16.59375 8.109375 
Q 21.484375 6.890625 26.8125 6.890625 
Q 36.078125 6.890625 40.9375 10.546875 
Q 45.796875 14.203125 45.796875 21.1875 
Q 45.796875 27.640625 41.28125 31.265625 
Q 36.765625 34.90625 28.71875 34.90625 
L 20.21875 34.90625 
L 20.21875 43.015625 
L 29.109375 43.015625 
Q 36.375 43.015625 40.234375 45.921875 
Q 44.09375 48.828125 44.09375 54.296875 
Q 44.09375 59.90625 40.109375 62.90625 
Q 36.140625 65.921875 28.71875 65.921875 
Q 24.65625 65.921875 20.015625 65.03125 
Q 15.375 64.15625 9.8125 62.3125 
L 9.8125 71.09375 
Q 15.4375 72.65625 20.34375 73.4375 
Q 25.25 74.21875 29.59375 74.21875 
Q 40.828125 74.21875 47.359375 69.109375 
Q 53.90625 64.015625 53.90625 55.328125 
Q 53.90625 49.265625 50.4375 45.09375 
Q 46.96875 40.921875 40.578125 39.3125 
z
" id="DejaVuSans-51"/>
       </defs>
       <use xlink:href="#DejaVuSans-51"/>
       <use x="63.623047" xlink:href="#DejaVuSans-48"/>
       <use x="127.246094" xlink:href="#DejaVuSans-48"/>
       <use x="190.869141" xlink:href="#DejaVuSans-48"/>
       <use x="254.492188" xlink:href="#DejaVuSans-48"/>
       <use x="318.115234" xlink:href="#DejaVuSans-48"/>
      </g>
     </g>
    </g>
    <g id="ytick_8">
     <g id="line2d_21">
      <path clip-path="url(#p21ea1702a0)" d="M 89.54 102.589488 
L 1137.96 102.589488 
" style="fill:none;stroke:#ffffff;stroke-linecap:square;stroke-width:0.8;"/>
     </g>
     <g id="line2d_22">
      <g>
       <use style="fill:#555555;stroke:#555555;stroke-width:0.8;" x="89.54" xlink:href="#ma5e3b0b912" y="102.589488"/>
      </g>
     </g>
     <g id="text_11">
      <!-- 350000 -->
      <g style="fill:#555555;" transform="translate(32.9125 107.528472)scale(0.13 -0.13)">
       <use xlink:href="#DejaVuSans-51"/>
       <use x="63.623047" xlink:href="#DejaVuSans-53"/>
       <use x="127.246094" xlink:href="#DejaVuSans-48"/>
       <use x="190.869141" xlink:href="#DejaVuSans-48"/>
       <use x="254.492188" xlink:href="#DejaVuSans-48"/>
       <use x="318.115234" xlink:href="#DejaVuSans-48"/>
      </g>
     </g>
    </g>
    <g id="text_12">
     <!-- Number of -->
     <g style="fill:#555555;" transform="translate(25.668188 365.831469)rotate(-90)scale(0.156 -0.156)">
      <defs>
       <path d="M 9.8125 72.90625 
L 23.09375 72.90625 
L 55.421875 11.921875 
L 55.421875 72.90625 
L 64.984375 72.90625 
L 64.984375 0 
L 51.703125 0 
L 19.390625 60.984375 
L 19.390625 0 
L 9.8125 0 
z
" id="DejaVuSans-78"/>
       <path d="M 48.6875 27.296875 
Q 48.6875 37.203125 44.609375 42.84375 
Q 40.53125 48.484375 33.40625 48.484375 
Q 26.265625 48.484375 22.1875 42.84375 
Q 18.109375 37.203125 18.109375 27.296875 
Q 18.109375 17.390625 22.1875 11.75 
Q 26.265625 6.109375 33.40625 6.109375 
Q 40.53125 6.109375 44.609375 11.75 
Q 48.6875 17.390625 48.6875 27.296875 
z
M 18.109375 46.390625 
Q 20.953125 51.265625 25.265625 53.625 
Q 29.59375 56 35.59375 56 
Q 45.5625 56 51.78125 48.09375 
Q 58.015625 40.1875 58.015625 27.296875 
Q 58.015625 14.40625 51.78125 6.484375 
Q 45.5625 -1.421875 35.59375 -1.421875 
Q 29.59375 -1.421875 25.265625 0.953125 
Q 20.953125 3.328125 18.109375 8.203125 
L 18.109375 0 
L 9.078125 0 
L 9.078125 75.984375 
L 18.109375 75.984375 
z
" id="DejaVuSans-98"/>
       <path d="M 30.609375 48.390625 
Q 23.390625 48.390625 19.1875 42.75 
Q 14.984375 37.109375 14.984375 27.296875 
Q 14.984375 17.484375 19.15625 11.84375 
Q 23.34375 6.203125 30.609375 6.203125 
Q 37.796875 6.203125 41.984375 11.859375 
Q 46.1875 17.53125 46.1875 27.296875 
Q 46.1875 37.015625 41.984375 42.703125 
Q 37.796875 48.390625 30.609375 48.390625 
z
M 30.609375 56 
Q 42.328125 56 49.015625 48.375 
Q 55.71875 40.765625 55.71875 27.296875 
Q 55.71875 13.875 49.015625 6.21875 
Q 42.328125 -1.421875 30.609375 -1.421875 
Q 18.84375 -1.421875 12.171875 6.21875 
Q 5.515625 13.875 5.515625 27.296875 
Q 5.515625 40.765625 12.171875 48.375 
Q 18.84375 56 30.609375 56 
z
" id="DejaVuSans-111"/>
      </defs>
      <use xlink:href="#DejaVuSans-78"/>
      <use x="74.804688" xlink:href="#DejaVuSans-117"/>
      <use x="138.183594" xlink:href="#DejaVuSans-109"/>
      <use x="235.595703" xlink:href="#DejaVuSans-98"/>
      <use x="299.072266" xlink:href="#DejaVuSans-101"/>
      <use x="360.595703" xlink:href="#DejaVuSans-114"/>
      <use x="401.708984" xlink:href="#DejaVuSans-32"/>
      <use x="433.496094" xlink:href="#DejaVuSans-111"/>
      <use x="494.677734" xlink:href="#DejaVuSans-102"/>
     </g>
    </g>
   </g>
   <g id="patch_3">
    <path clip-path="url(#p21ea1702a0)" d="M 137.195455 613.96 
L 158.484833 613.96 
L 158.484833 62.607619 
L 137.195455 62.607619 
z
" style="fill:#1f77b4;"/>
   </g>
   <g id="patch_4">
    <path clip-path="url(#p21ea1702a0)" d="M 464.724352 613.96 
L 486.01373 613.96 
L 486.01373 429.92798 
L 464.724352 429.92798 
z
" style="fill:#1f77b4;"/>
   </g>
   <g id="patch_5">
    <path clip-path="url(#p21ea1702a0)" d="M 792.253249 613.96 
L 813.542627 613.96 
L 813.542627 603.598172 
L 792.253249 603.598172 
z
" style="fill:#1f77b4;"/>
   </g>
   <g id="patch_6">
    <path clip-path="url(#p21ea1702a0)" d="M 158.484833 613.96 
L 179.774211 613.96 
L 179.774211 433.063412 
L 158.484833 433.063412 
z
" style="fill:#ff7f0e;"/>
   </g>
   <g id="patch_7">
    <path clip-path="url(#p21ea1702a0)" d="M 486.01373 613.96 
L 507.303108 613.96 
L 507.303108 568.507928 
L 486.01373 568.507928 
z
" style="fill:#ff7f0e;"/>
   </g>
   <g id="patch_8">
    <path clip-path="url(#p21ea1702a0)" d="M 813.542627 613.96 
L 834.832006 613.96 
L 834.832006 606.276293 
L 813.542627 606.276293 
z
" style="fill:#ff7f0e;"/>
   </g>
   <g id="patch_9">
    <path clip-path="url(#p21ea1702a0)" d="M 179.774211 613.96 
L 201.06359 613.96 
L 201.06359 283.53283 
L 179.774211 283.53283 
z
" style="fill:#2ca02c;"/>
   </g>
   <g id="patch_10">
    <path clip-path="url(#p21ea1702a0)" d="M 507.303108 613.96 
L 528.592487 613.96 
L 528.592487 465.433165 
L 507.303108 465.433165 
z
" style="fill:#2ca02c;"/>
   </g>
   <g id="patch_11">
    <path clip-path="url(#p21ea1702a0)" d="M 834.832006 613.96 
L 856.121384 613.96 
L 856.121384 605.018321 
L 834.832006 605.018321 
z
" style="fill:#2ca02c;"/>
   </g>
   <g id="patch_12">
    <path clip-path="url(#p21ea1702a0)" d="M 201.06359 613.96 
L 222.352968 613.96 
L 222.352968 606.521751 
L 201.06359 606.521751 
z
" style="fill:#d62728;"/>
   </g>
   <g id="patch_13">
    <path clip-path="url(#p21ea1702a0)" d="M 528.592487 613.96 
L 549.881865 613.96 
L 549.881865 610.99259 
L 528.592487 610.99259 
z
" style="fill:#d62728;"/>
   </g>
   <g id="patch_14">
    <path clip-path="url(#p21ea1702a0)" d="M 856.121384 613.96 
L 877.410762 613.96 
L 877.410762 613.512916 
L 856.121384 613.512916 
z
" style="fill:#d62728;"/>
   </g>
   <g id="patch_15">
    <path clip-path="url(#p21ea1702a0)" d="M 222.352968 613.96 
L 243.642346 613.96 
L 243.642346 459.051261 
L 222.352968 459.051261 
z
" style="fill:#9467bd;"/>
   </g>
   <g id="patch_16">
    <path clip-path="url(#p21ea1702a0)" d="M 549.881865 613.96 
L 571.171243 613.96 
L 571.171243 573.287051 
L 549.881865 573.287051 
z
" style="fill:#9467bd;"/>
   </g>
   <g id="patch_17">
    <path clip-path="url(#p21ea1702a0)" d="M 877.410762 613.96 
L 898.700141 613.96 
L 898.700141 610.359952 
L 877.410762 610.359952 
z
" style="fill:#9467bd;"/>
   </g>
   <g id="patch_18">
    <path clip-path="url(#p21ea1702a0)" d="M 243.642346 613.96 
L 264.931724 613.96 
L 264.931724 539.276528 
L 243.642346 539.276528 
z
" style="fill:#8c564b;"/>
   </g>
   <g id="patch_19">
    <path clip-path="url(#p21ea1702a0)" d="M 571.171243 613.96 
L 592.460622 613.96 
L 592.460622 593.683429 
L 571.171243 593.683429 
z
" style="fill:#8c564b;"/>
   </g>
   <g id="patch_20">
    <path clip-path="url(#p21ea1702a0)" d="M 898.700141 613.96 
L 919.989519 613.96 
L 919.989519 613.869414 
L 898.700141 613.869414 
z
" style="fill:#8c564b;"/>
   </g>
   <g id="patch_21">
    <path clip-path="url(#p21ea1702a0)" d="M 264.931724 613.96 
L 286.221103 613.96 
L 286.221103 559.138159 
L 264.931724 559.138159 
z
" style="fill:#e377c2;"/>
   </g>
   <g id="patch_22">
    <path clip-path="url(#p21ea1702a0)" d="M 592.460622 613.96 
L 613.75 613.96 
L 613.75 599.61971 
L 592.460622 599.61971 
z
" style="fill:#e377c2;"/>
   </g>
   <g id="patch_23">
    <path clip-path="url(#p21ea1702a0)" d="M 919.989519 613.96 
L 941.278897 613.96 
L 941.278897 613.933701 
L 919.989519 613.933701 
z
" style="fill:#e377c2;"/>
   </g>
   <g id="patch_24">
    <path clip-path="url(#p21ea1702a0)" d="M 286.221103 613.96 
L 307.510481 613.96 
L 307.510481 463.43882 
L 286.221103 463.43882 
z
" style="fill:#7f7f7f;"/>
   </g>
   <g id="patch_25">
    <path clip-path="url(#p21ea1702a0)" d="M 613.75 613.96 
L 635.039378 613.96 
L 635.039378 580.774976 
L 613.75 580.774976 
z
" style="fill:#7f7f7f;"/>
   </g>
   <g id="patch_26">
    <path clip-path="url(#p21ea1702a0)" d="M 941.278897 613.96 
L 962.568276 613.96 
L 962.568276 606.353729 
L 941.278897 606.353729 
z
" style="fill:#7f7f7f;"/>
   </g>
   <g id="patch_27">
    <path clip-path="url(#p21ea1702a0)" d="M 307.510481 613.96 
L 328.799859 613.96 
L 328.799859 605.560374 
L 307.510481 605.560374 
z
" style="fill:#bcbd22;"/>
   </g>
   <g id="patch_28">
    <path clip-path="url(#p21ea1702a0)" d="M 635.039378 613.96 
L 656.328757 613.96 
L 656.328757 612.04163 
L 635.039378 612.04163 
z
" style="fill:#bcbd22;"/>
   </g>
   <g id="patch_29">
    <path clip-path="url(#p21ea1702a0)" d="M 962.568276 613.96 
L 983.857654 613.96 
L 983.857654 613.464701 
L 962.568276 613.464701 
z
" style="fill:#bcbd22;"/>
   </g>
   <g id="patch_30">
    <path clip-path="url(#p21ea1702a0)" d="M 328.799859 613.96 
L 350.089238 613.96 
L 350.089238 576.269071 
L 328.799859 576.269071 
z
" style="fill:#17becf;"/>
   </g>
   <g id="patch_31">
    <path clip-path="url(#p21ea1702a0)" d="M 656.328757 613.96 
L 677.618135 613.96 
L 677.618135 598.700704 
L 656.328757 598.700704 
z
" style="fill:#17becf;"/>
   </g>
   <g id="patch_32">
    <path clip-path="url(#p21ea1702a0)" d="M 983.857654 613.96 
L 1005.147032 613.96 
L 1005.147032 613.571358 
L 983.857654 613.571358 
z
" style="fill:#17becf;"/>
   </g>
   <g id="patch_33">
    <path clip-path="url(#p21ea1702a0)" d="M 350.089238 613.96 
L 371.378616 613.96 
L 371.378616 604.949652 
L 350.089238 604.949652 
z
" style="fill:#1f77b4;"/>
   </g>
   <g id="patch_34">
    <path clip-path="url(#p21ea1702a0)" d="M 677.618135 613.96 
L 698.907513 613.96 
L 698.907513 609.680559 
L 677.618135 609.680559 
z
" style="fill:#1f77b4;"/>
   </g>
   <g id="patch_35">
    <path clip-path="url(#p21ea1702a0)" d="M 1005.147032 613.96 
L 1026.43641 613.96 
L 1026.43641 613.787595 
L 1005.147032 613.787595 
z
" style="fill:#1f77b4;"/>
   </g>
   <g id="patch_36">
    <path clip-path="url(#p21ea1702a0)" d="M 371.378616 613.96 
L 392.667994 613.96 
L 392.667994 612.42735 
L 371.378616 612.42735 
z
" style="fill:#1f77b4;"/>
   </g>
   <g id="patch_37">
    <path clip-path="url(#p21ea1702a0)" d="M 698.907513 613.96 
L 720.196892 613.96 
L 720.196892 613.770062 
L 698.907513 613.770062 
z
" style="fill:#1f77b4;"/>
   </g>
   <g id="patch_38">
    <path clip-path="url(#p21ea1702a0)" d="M 1026.43641 613.96 
L 1047.725789 613.96 
L 1047.725789 613.72477 
L 1026.43641 613.72477 
z
" style="fill:#1f77b4;"/>
   </g>
   <g id="patch_39">
    <path clip-path="url(#p21ea1702a0)" d="M 392.667994 613.96 
L 413.957373 613.96 
L 413.957373 613.137424 
L 392.667994 613.137424 
z
" style="fill:#ff7f0e;"/>
   </g>
   <g id="patch_40">
    <path clip-path="url(#p21ea1702a0)" d="M 720.196892 613.96 
L 741.48627 613.96 
L 741.48627 613.753991 
L 720.196892 613.753991 
z
" style="fill:#ff7f0e;"/>
   </g>
   <g id="patch_41">
    <path clip-path="url(#p21ea1702a0)" d="M 1047.725789 613.96 
L 1069.015167 613.96 
L 1069.015167 613.955617 
L 1047.725789 613.955617 
z
" style="fill:#ff7f0e;"/>
   </g>
   <g id="patch_42">
    <path clip-path="url(#p21ea1702a0)" d="M 413.957373 613.96 
L 435.246751 613.96 
L 435.246751 490.426034 
L 413.957373 490.426034 
z
" style="fill:#2ca02c;"/>
   </g>
   <g id="patch_43">
    <path clip-path="url(#p21ea1702a0)" d="M 741.48627 613.96 
L 762.775648 613.96 
L 762.775648 570.570943 
L 741.48627 570.570943 
z
" style="fill:#2ca02c;"/>
   </g>
   <g id="patch_44">
    <path clip-path="url(#p21ea1702a0)" d="M 1069.015167 613.96 
L 1090.304545 613.96 
L 1090.304545 612.1103 
L 1069.015167 612.1103 
z
" style="fill:#2ca02c;"/>
   </g>
   <g id="patch_45">
    <path d="M 89.54 613.96 
L 89.54 35.04 
" style="fill:none;stroke:#ffffff;stroke-linecap:square;stroke-linejoin:miter;"/>
   </g>
   <g id="patch_46">
    <path d="M 1137.96 613.96 
L 1137.96 35.04 
" style="fill:none;stroke:#ffffff;stroke-linecap:square;stroke-linejoin:miter;"/>
   </g>
   <g id="patch_47">
    <path d="M 89.54 613.96 
L 1137.96 613.96 
" style="fill:none;stroke:#ffffff;stroke-linecap:square;stroke-linejoin:miter;"/>
   </g>
   <g id="patch_48">
    <path d="M 89.54 35.04 
L 1137.96 35.04 
" style="fill:none;stroke:#ffffff;stroke-linecap:square;stroke-linejoin:miter;"/>
   </g>
   <g id="text_13">
    <!-- 377365 -->
    <g transform="translate(123.026394 56.904025)scale(0.13 -0.13)">
     <defs>
      <path d="M 8.203125 72.90625 
L 55.078125 72.90625 
L 55.078125 68.703125 
L 28.609375 0 
L 18.3125 0 
L 43.21875 64.59375 
L 8.203125 64.59375 
z
" id="DejaVuSans-55"/>
      <path d="M 33.015625 40.375 
Q 26.375 40.375 22.484375 35.828125 
Q 18.609375 31.296875 18.609375 23.390625 
Q 18.609375 15.53125 22.484375 10.953125 
Q 26.375 6.390625 33.015625 6.390625 
Q 39.65625 6.390625 43.53125 10.953125 
Q 47.40625 15.53125 47.40625 23.390625 
Q 47.40625 31.296875 43.53125 35.828125 
Q 39.65625 40.375 33.015625 40.375 
z
M 52.59375 71.296875 
L 52.59375 62.3125 
Q 48.875 64.0625 45.09375 64.984375 
Q 41.3125 65.921875 37.59375 65.921875 
Q 27.828125 65.921875 22.671875 59.328125 
Q 17.53125 52.734375 16.796875 39.40625 
Q 19.671875 43.65625 24.015625 45.921875 
Q 28.375 48.1875 33.59375 48.1875 
Q 44.578125 48.1875 50.953125 41.515625 
Q 57.328125 34.859375 57.328125 23.390625 
Q 57.328125 12.15625 50.6875 5.359375 
Q 44.046875 -1.421875 33.015625 -1.421875 
Q 20.359375 -1.421875 13.671875 8.265625 
Q 6.984375 17.96875 6.984375 36.375 
Q 6.984375 53.65625 15.1875 63.9375 
Q 23.390625 74.21875 37.203125 74.21875 
Q 40.921875 74.21875 44.703125 73.484375 
Q 48.484375 72.75 52.59375 71.296875 
z
" id="DejaVuSans-54"/>
     </defs>
     <use xlink:href="#DejaVuSans-51"/>
     <use x="63.623047" xlink:href="#DejaVuSans-55"/>
     <use x="127.246094" xlink:href="#DejaVuSans-55"/>
     <use x="190.869141" xlink:href="#DejaVuSans-51"/>
     <use x="254.492188" xlink:href="#DejaVuSans-54"/>
     <use x="318.115234" xlink:href="#DejaVuSans-53"/>
    </g>
   </g>
   <g id="text_14">
    <!-- 125958 -->
    <g transform="translate(450.555291 424.224386)scale(0.13 -0.13)">
     <defs>
      <path d="M 10.984375 1.515625 
L 10.984375 10.5 
Q 14.703125 8.734375 18.5 7.8125 
Q 22.3125 6.890625 25.984375 6.890625 
Q 35.75 6.890625 40.890625 13.453125 
Q 46.046875 20.015625 46.78125 33.40625 
Q 43.953125 29.203125 39.59375 26.953125 
Q 35.25 24.703125 29.984375 24.703125 
Q 19.046875 24.703125 12.671875 31.3125 
Q 6.296875 37.9375 6.296875 49.421875 
Q 6.296875 60.640625 12.9375 67.421875 
Q 19.578125 74.21875 30.609375 74.21875 
Q 43.265625 74.21875 49.921875 64.515625 
Q 56.59375 54.828125 56.59375 36.375 
Q 56.59375 19.140625 48.40625 8.859375 
Q 40.234375 -1.421875 26.421875 -1.421875 
Q 22.703125 -1.421875 18.890625 -0.6875 
Q 15.09375 0.046875 10.984375 1.515625 
z
M 30.609375 32.421875 
Q 37.25 32.421875 41.125 36.953125 
Q 45.015625 41.5 45.015625 49.421875 
Q 45.015625 57.28125 41.125 61.84375 
Q 37.25 66.40625 30.609375 66.40625 
Q 23.96875 66.40625 20.09375 61.84375 
Q 16.21875 57.28125 16.21875 49.421875 
Q 16.21875 41.5 20.09375 36.953125 
Q 23.96875 32.421875 30.609375 32.421875 
z
" id="DejaVuSans-57"/>
      <path d="M 31.78125 34.625 
Q 24.75 34.625 20.71875 30.859375 
Q 16.703125 27.09375 16.703125 20.515625 
Q 16.703125 13.921875 20.71875 10.15625 
Q 24.75 6.390625 31.78125 6.390625 
Q 38.8125 6.390625 42.859375 10.171875 
Q 46.921875 13.96875 46.921875 20.515625 
Q 46.921875 27.09375 42.890625 30.859375 
Q 38.875 34.625 31.78125 34.625 
z
M 21.921875 38.8125 
Q 15.578125 40.375 12.03125 44.71875 
Q 8.5 49.078125 8.5 55.328125 
Q 8.5 64.0625 14.71875 69.140625 
Q 20.953125 74.21875 31.78125 74.21875 
Q 42.671875 74.21875 48.875 69.140625 
Q 55.078125 64.0625 55.078125 55.328125 
Q 55.078125 49.078125 51.53125 44.71875 
Q 48 40.375 41.703125 38.8125 
Q 48.828125 37.15625 52.796875 32.3125 
Q 56.78125 27.484375 56.78125 20.515625 
Q 56.78125 9.90625 50.3125 4.234375 
Q 43.84375 -1.421875 31.78125 -1.421875 
Q 19.734375 -1.421875 13.25 4.234375 
Q 6.78125 9.90625 6.78125 20.515625 
Q 6.78125 27.484375 10.78125 32.3125 
Q 14.796875 37.15625 21.921875 38.8125 
z
M 18.3125 54.390625 
Q 18.3125 48.734375 21.84375 45.5625 
Q 25.390625 42.390625 31.78125 42.390625 
Q 38.140625 42.390625 41.71875 45.5625 
Q 45.3125 48.734375 45.3125 54.390625 
Q 45.3125 60.0625 41.71875 63.234375 
Q 38.140625 66.40625 31.78125 66.40625 
Q 25.390625 66.40625 21.84375 63.234375 
Q 18.3125 60.0625 18.3125 54.390625 
z
" id="DejaVuSans-56"/>
     </defs>
     <use xlink:href="#DejaVuSans-49"/>
     <use x="63.623047" xlink:href="#DejaVuSans-50"/>
     <use x="127.246094" xlink:href="#DejaVuSans-53"/>
     <use x="190.869141" xlink:href="#DejaVuSans-57"/>
     <use x="254.492188" xlink:href="#DejaVuSans-53"/>
     <use x="318.115234" xlink:href="#DejaVuSans-56"/>
    </g>
   </g>
   <g id="text_15">
    <!-- 7092 -->
    <g transform="translate(786.355438 597.894579)scale(0.13 -0.13)">
     <use xlink:href="#DejaVuSans-55"/>
     <use x="63.623047" xlink:href="#DejaVuSans-48"/>
     <use x="127.246094" xlink:href="#DejaVuSans-57"/>
     <use x="190.869141" xlink:href="#DejaVuSans-50"/>
    </g>
   </g>
   <g id="text_16">
    <!-- 123812 -->
    <g transform="translate(144.315772 427.359818)scale(0.13 -0.13)">
     <use xlink:href="#DejaVuSans-49"/>
     <use x="63.623047" xlink:href="#DejaVuSans-50"/>
     <use x="127.246094" xlink:href="#DejaVuSans-51"/>
     <use x="190.869141" xlink:href="#DejaVuSans-56"/>
     <use x="254.492188" xlink:href="#DejaVuSans-49"/>
     <use x="318.115234" xlink:href="#DejaVuSans-50"/>
    </g>
   </g>
   <g id="text_17">
    <!-- 31109 -->
    <g transform="translate(475.980294 562.804334)scale(0.13 -0.13)">
     <use xlink:href="#DejaVuSans-51"/>
     <use x="63.623047" xlink:href="#DejaVuSans-49"/>
     <use x="127.246094" xlink:href="#DejaVuSans-49"/>
     <use x="190.869141" xlink:href="#DejaVuSans-48"/>
     <use x="254.492188" xlink:href="#DejaVuSans-57"/>
    </g>
   </g>
   <g id="text_18">
    <!-- 5259 -->
    <g transform="translate(807.644816 600.572699)scale(0.13 -0.13)">
     <use xlink:href="#DejaVuSans-53"/>
     <use x="63.623047" xlink:href="#DejaVuSans-50"/>
     <use x="127.246094" xlink:href="#DejaVuSans-53"/>
     <use x="190.869141" xlink:href="#DejaVuSans-57"/>
    </g>
   </g>
   <g id="text_19">
    <!-- 226156 -->
    <g transform="translate(165.60515 277.829236)scale(0.13 -0.13)">
     <use xlink:href="#DejaVuSans-50"/>
     <use x="63.623047" xlink:href="#DejaVuSans-50"/>
     <use x="127.246094" xlink:href="#DejaVuSans-54"/>
     <use x="190.869141" xlink:href="#DejaVuSans-49"/>
     <use x="254.492188" xlink:href="#DejaVuSans-53"/>
     <use x="318.115234" xlink:href="#DejaVuSans-54"/>
    </g>
   </g>
   <g id="text_20">
    <!-- 101657 -->
    <g transform="translate(493.134048 459.729572)scale(0.13 -0.13)">
     <use xlink:href="#DejaVuSans-49"/>
     <use x="63.623047" xlink:href="#DejaVuSans-48"/>
     <use x="127.246094" xlink:href="#DejaVuSans-49"/>
     <use x="190.869141" xlink:href="#DejaVuSans-54"/>
     <use x="254.492188" xlink:href="#DejaVuSans-53"/>
     <use x="318.115234" xlink:href="#DejaVuSans-55"/>
    </g>
   </g>
   <g id="text_21">
    <!-- 6120 -->
    <g transform="translate(828.934195 599.314728)scale(0.13 -0.13)">
     <use xlink:href="#DejaVuSans-54"/>
     <use x="63.623047" xlink:href="#DejaVuSans-49"/>
     <use x="127.246094" xlink:href="#DejaVuSans-50"/>
     <use x="190.869141" xlink:href="#DejaVuSans-48"/>
    </g>
   </g>
   <g id="text_22">
    <!-- 5091 -->
    <g transform="translate(195.165779 600.818157)scale(0.13 -0.13)">
     <use xlink:href="#DejaVuSans-53"/>
     <use x="63.623047" xlink:href="#DejaVuSans-48"/>
     <use x="127.246094" xlink:href="#DejaVuSans-57"/>
     <use x="190.869141" xlink:href="#DejaVuSans-49"/>
    </g>
   </g>
   <g id="text_23">
    <!-- 2031 -->
    <g transform="translate(522.694676 605.288996)scale(0.13 -0.13)">
     <use xlink:href="#DejaVuSans-50"/>
     <use x="63.623047" xlink:href="#DejaVuSans-48"/>
     <use x="127.246094" xlink:href="#DejaVuSans-51"/>
     <use x="190.869141" xlink:href="#DejaVuSans-49"/>
    </g>
   </g>
   <g id="text_24">
    <!-- 306 -->
    <g transform="translate(854.359198 607.809322)scale(0.13 -0.13)">
     <use xlink:href="#DejaVuSans-51"/>
     <use x="63.623047" xlink:href="#DejaVuSans-48"/>
     <use x="127.246094" xlink:href="#DejaVuSans-54"/>
    </g>
   </g>
   <g id="text_25">
    <!-- 106025 -->
    <g transform="translate(208.183907 453.347668)scale(0.13 -0.13)">
     <use xlink:href="#DejaVuSans-49"/>
     <use x="63.623047" xlink:href="#DejaVuSans-48"/>
     <use x="127.246094" xlink:href="#DejaVuSans-54"/>
     <use x="190.869141" xlink:href="#DejaVuSans-48"/>
     <use x="254.492188" xlink:href="#DejaVuSans-50"/>
     <use x="318.115234" xlink:href="#DejaVuSans-53"/>
    </g>
   </g>
   <g id="text_26">
    <!-- 27838 -->
    <g transform="translate(539.848429 567.583457)scale(0.13 -0.13)">
     <use xlink:href="#DejaVuSans-50"/>
     <use x="63.623047" xlink:href="#DejaVuSans-55"/>
     <use x="127.246094" xlink:href="#DejaVuSans-56"/>
     <use x="190.869141" xlink:href="#DejaVuSans-51"/>
     <use x="254.492188" xlink:href="#DejaVuSans-56"/>
    </g>
   </g>
   <g id="text_27">
    <!-- 2464 -->
    <g transform="translate(871.512951 604.656358)scale(0.13 -0.13)">
     <defs>
      <path d="M 37.796875 64.3125 
L 12.890625 25.390625 
L 37.796875 25.390625 
z
M 35.203125 72.90625 
L 47.609375 72.90625 
L 47.609375 25.390625 
L 58.015625 25.390625 
L 58.015625 17.1875 
L 47.609375 17.1875 
L 47.609375 0 
L 37.796875 0 
L 37.796875 17.1875 
L 4.890625 17.1875 
L 4.890625 26.703125 
z
" id="DejaVuSans-52"/>
     </defs>
     <use xlink:href="#DejaVuSans-50"/>
     <use x="63.623047" xlink:href="#DejaVuSans-52"/>
     <use x="127.246094" xlink:href="#DejaVuSans-54"/>
     <use x="190.869141" xlink:href="#DejaVuSans-52"/>
    </g>
   </g>
   <g id="text_28">
    <!-- 51116 -->
    <g transform="translate(233.60891 533.572935)scale(0.13 -0.13)">
     <use xlink:href="#DejaVuSans-53"/>
     <use x="63.623047" xlink:href="#DejaVuSans-49"/>
     <use x="127.246094" xlink:href="#DejaVuSans-49"/>
     <use x="190.869141" xlink:href="#DejaVuSans-49"/>
     <use x="254.492188" xlink:href="#DejaVuSans-54"/>
    </g>
   </g>
   <g id="text_29">
    <!-- 13878 -->
    <g transform="translate(561.137808 587.979835)scale(0.13 -0.13)">
     <use xlink:href="#DejaVuSans-49"/>
     <use x="63.623047" xlink:href="#DejaVuSans-51"/>
     <use x="127.246094" xlink:href="#DejaVuSans-56"/>
     <use x="190.869141" xlink:href="#DejaVuSans-55"/>
     <use x="254.492188" xlink:href="#DejaVuSans-56"/>
    </g>
   </g>
   <g id="text_30">
    <!-- 62 -->
    <g transform="translate(901.07358 608.165821)scale(0.13 -0.13)">
     <use xlink:href="#DejaVuSans-54"/>
     <use x="63.623047" xlink:href="#DejaVuSans-50"/>
    </g>
   </g>
   <g id="text_31">
    <!-- 37522 -->
    <g transform="translate(254.898289 553.434565)scale(0.13 -0.13)">
     <use xlink:href="#DejaVuSans-51"/>
     <use x="63.623047" xlink:href="#DejaVuSans-55"/>
     <use x="127.246094" xlink:href="#DejaVuSans-53"/>
     <use x="190.869141" xlink:href="#DejaVuSans-50"/>
     <use x="254.492188" xlink:href="#DejaVuSans-50"/>
    </g>
   </g>
   <g id="text_32">
    <!-- 9815 -->
    <g transform="translate(586.562811 593.916116)scale(0.13 -0.13)">
     <use xlink:href="#DejaVuSans-57"/>
     <use x="63.623047" xlink:href="#DejaVuSans-56"/>
     <use x="127.246094" xlink:href="#DejaVuSans-49"/>
     <use x="190.869141" xlink:href="#DejaVuSans-53"/>
    </g>
   </g>
   <g id="text_33">
    <!-- 18 -->
    <g transform="translate(922.362958 608.230107)scale(0.13 -0.13)">
     <use xlink:href="#DejaVuSans-49"/>
     <use x="63.623047" xlink:href="#DejaVuSans-56"/>
    </g>
   </g>
   <g id="text_34">
    <!-- 103022 -->
    <g transform="translate(272.052042 457.735227)scale(0.13 -0.13)">
     <use xlink:href="#DejaVuSans-49"/>
     <use x="63.623047" xlink:href="#DejaVuSans-48"/>
     <use x="127.246094" xlink:href="#DejaVuSans-51"/>
     <use x="190.869141" xlink:href="#DejaVuSans-48"/>
     <use x="254.492188" xlink:href="#DejaVuSans-50"/>
     <use x="318.115234" xlink:href="#DejaVuSans-50"/>
    </g>
   </g>
   <g id="text_35">
    <!-- 22713 -->
    <g transform="translate(603.716564 575.071382)scale(0.13 -0.13)">
     <use xlink:href="#DejaVuSans-50"/>
     <use x="63.623047" xlink:href="#DejaVuSans-50"/>
     <use x="127.246094" xlink:href="#DejaVuSans-55"/>
     <use x="190.869141" xlink:href="#DejaVuSans-49"/>
     <use x="254.492188" xlink:href="#DejaVuSans-51"/>
    </g>
   </g>
   <g id="text_36">
    <!-- 5206 -->
    <g transform="translate(935.381086 600.650135)scale(0.13 -0.13)">
     <use xlink:href="#DejaVuSans-53"/>
     <use x="63.623047" xlink:href="#DejaVuSans-50"/>
     <use x="127.246094" xlink:href="#DejaVuSans-48"/>
     <use x="190.869141" xlink:href="#DejaVuSans-54"/>
    </g>
   </g>
   <g id="text_37">
    <!-- 5749 -->
    <g transform="translate(301.61267 599.85678)scale(0.13 -0.13)">
     <use xlink:href="#DejaVuSans-53"/>
     <use x="63.623047" xlink:href="#DejaVuSans-55"/>
     <use x="127.246094" xlink:href="#DejaVuSans-52"/>
     <use x="190.869141" xlink:href="#DejaVuSans-57"/>
    </g>
   </g>
   <g id="text_38">
    <!-- 1313 -->
    <g transform="translate(629.141567 606.338036)scale(0.13 -0.13)">
     <use xlink:href="#DejaVuSans-49"/>
     <use x="63.623047" xlink:href="#DejaVuSans-51"/>
     <use x="127.246094" xlink:href="#DejaVuSans-49"/>
     <use x="190.869141" xlink:href="#DejaVuSans-51"/>
    </g>
   </g>
   <g id="text_39">
    <!-- 339 -->
    <g transform="translate(960.80609 607.761107)scale(0.13 -0.13)">
     <use xlink:href="#DejaVuSans-51"/>
     <use x="63.623047" xlink:href="#DejaVuSans-51"/>
     <use x="127.246094" xlink:href="#DejaVuSans-57"/>
    </g>
   </g>
   <g id="text_40">
    <!-- 25797 -->
    <g transform="translate(318.766424 570.565477)scale(0.13 -0.13)">
     <use xlink:href="#DejaVuSans-50"/>
     <use x="63.623047" xlink:href="#DejaVuSans-53"/>
     <use x="127.246094" xlink:href="#DejaVuSans-55"/>
     <use x="190.869141" xlink:href="#DejaVuSans-57"/>
     <use x="254.492188" xlink:href="#DejaVuSans-55"/>
    </g>
   </g>
   <g id="text_41">
    <!-- 10444 -->
    <g transform="translate(646.295321 592.99711)scale(0.13 -0.13)">
     <use xlink:href="#DejaVuSans-49"/>
     <use x="63.623047" xlink:href="#DejaVuSans-48"/>
     <use x="127.246094" xlink:href="#DejaVuSans-52"/>
     <use x="190.869141" xlink:href="#DejaVuSans-52"/>
     <use x="254.492188" xlink:href="#DejaVuSans-52"/>
    </g>
   </g>
   <g id="text_42">
    <!-- 266 -->
    <g transform="translate(982.095468 607.867765)scale(0.13 -0.13)">
     <use xlink:href="#DejaVuSans-50"/>
     <use x="63.623047" xlink:href="#DejaVuSans-54"/>
     <use x="127.246094" xlink:href="#DejaVuSans-54"/>
    </g>
   </g>
   <g id="text_43">
    <!-- 6167 -->
    <g transform="translate(344.191427 599.246058)scale(0.13 -0.13)">
     <use xlink:href="#DejaVuSans-54"/>
     <use x="63.623047" xlink:href="#DejaVuSans-49"/>
     <use x="127.246094" xlink:href="#DejaVuSans-54"/>
     <use x="190.869141" xlink:href="#DejaVuSans-55"/>
    </g>
   </g>
   <g id="text_44">
    <!-- 2929 -->
    <g transform="translate(671.720324 603.976966)scale(0.13 -0.13)">
     <use xlink:href="#DejaVuSans-50"/>
     <use x="63.623047" xlink:href="#DejaVuSans-57"/>
     <use x="127.246094" xlink:href="#DejaVuSans-50"/>
     <use x="190.869141" xlink:href="#DejaVuSans-57"/>
    </g>
   </g>
   <g id="text_45">
    <!-- 118 -->
    <g transform="translate(1003.384846 608.084001)scale(0.13 -0.13)">
     <use xlink:href="#DejaVuSans-49"/>
     <use x="63.623047" xlink:href="#DejaVuSans-49"/>
     <use x="127.246094" xlink:href="#DejaVuSans-56"/>
    </g>
   </g>
   <g id="text_46">
    <!-- 1049 -->
    <g transform="translate(365.480805 606.723756)scale(0.13 -0.13)">
     <use xlink:href="#DejaVuSans-49"/>
     <use x="63.623047" xlink:href="#DejaVuSans-48"/>
     <use x="127.246094" xlink:href="#DejaVuSans-52"/>
     <use x="190.869141" xlink:href="#DejaVuSans-57"/>
    </g>
   </g>
   <g id="text_47">
    <!-- 130 -->
    <g transform="translate(697.145327 608.066469)scale(0.13 -0.13)">
     <use xlink:href="#DejaVuSans-49"/>
     <use x="63.623047" xlink:href="#DejaVuSans-51"/>
     <use x="127.246094" xlink:href="#DejaVuSans-48"/>
    </g>
   </g>
   <g id="text_48">
    <!-- 161 -->
    <g transform="translate(1024.674225 608.021176)scale(0.13 -0.13)">
     <use xlink:href="#DejaVuSans-49"/>
     <use x="63.623047" xlink:href="#DejaVuSans-54"/>
     <use x="127.246094" xlink:href="#DejaVuSans-49"/>
    </g>
   </g>
   <g id="text_49">
    <!-- 563 -->
    <g transform="translate(390.905809 607.43383)scale(0.13 -0.13)">
     <use xlink:href="#DejaVuSans-53"/>
     <use x="63.623047" xlink:href="#DejaVuSans-54"/>
     <use x="127.246094" xlink:href="#DejaVuSans-51"/>
    </g>
   </g>
   <g id="text_50">
    <!-- 141 -->
    <g transform="translate(718.434706 608.050397)scale(0.13 -0.13)">
     <use xlink:href="#DejaVuSans-49"/>
     <use x="63.623047" xlink:href="#DejaVuSans-52"/>
     <use x="127.246094" xlink:href="#DejaVuSans-49"/>
    </g>
   </g>
   <g id="text_51">
    <!-- 3 -->
    <g transform="translate(1054.234853 608.252023)scale(0.13 -0.13)">
     <use xlink:href="#DejaVuSans-51"/>
    </g>
   </g>
   <g id="text_52">
    <!-- 84551 -->
    <g transform="translate(403.923937 484.72244)scale(0.13 -0.13)">
     <use xlink:href="#DejaVuSans-56"/>
     <use x="63.623047" xlink:href="#DejaVuSans-52"/>
     <use x="127.246094" xlink:href="#DejaVuSans-53"/>
     <use x="190.869141" xlink:href="#DejaVuSans-53"/>
     <use x="254.492188" xlink:href="#DejaVuSans-49"/>
    </g>
   </g>
   <g id="text_53">
    <!-- 29697 -->
    <g transform="translate(731.452834 564.867349)scale(0.13 -0.13)">
     <use xlink:href="#DejaVuSans-50"/>
     <use x="63.623047" xlink:href="#DejaVuSans-57"/>
     <use x="127.246094" xlink:href="#DejaVuSans-54"/>
     <use x="190.869141" xlink:href="#DejaVuSans-57"/>
     <use x="254.492188" xlink:href="#DejaVuSans-55"/>
    </g>
   </g>
   <g id="text_54">
    <!-- 1266 -->
    <g transform="translate(1063.117356 606.406706)scale(0.13 -0.13)">
     <use xlink:href="#DejaVuSans-49"/>
     <use x="63.623047" xlink:href="#DejaVuSans-50"/>
     <use x="127.246094" xlink:href="#DejaVuSans-54"/>
     <use x="190.869141" xlink:href="#DejaVuSans-54"/>
    </g>
   </g>
   <g id="text_55">
    <!-- Meta Overview (dataSet1a) -->
    <g transform="translate(485.041225 29.04)scale(0.1872 -0.1872)">
     <defs>
      <path d="M 9.8125 72.90625 
L 24.515625 72.90625 
L 43.109375 23.296875 
L 61.8125 72.90625 
L 76.515625 72.90625 
L 76.515625 0 
L 66.890625 0 
L 66.890625 64.015625 
L 48.09375 14.015625 
L 38.1875 14.015625 
L 19.390625 64.015625 
L 19.390625 0 
L 9.8125 0 
z
" id="DejaVuSans-77"/>
      <path d="M 39.40625 66.21875 
Q 28.65625 66.21875 22.328125 58.203125 
Q 16.015625 50.203125 16.015625 36.375 
Q 16.015625 22.609375 22.328125 14.59375 
Q 28.65625 6.59375 39.40625 6.59375 
Q 50.140625 6.59375 56.421875 14.59375 
Q 62.703125 22.609375 62.703125 36.375 
Q 62.703125 50.203125 56.421875 58.203125 
Q 50.140625 66.21875 39.40625 66.21875 
z
M 39.40625 74.21875 
Q 54.734375 74.21875 63.90625 63.9375 
Q 73.09375 53.65625 73.09375 36.375 
Q 73.09375 19.140625 63.90625 8.859375 
Q 54.734375 -1.421875 39.40625 -1.421875 
Q 24.03125 -1.421875 14.8125 8.828125 
Q 5.609375 19.09375 5.609375 36.375 
Q 5.609375 53.65625 14.8125 63.9375 
Q 24.03125 74.21875 39.40625 74.21875 
z
" id="DejaVuSans-79"/>
      <path d="M 4.203125 54.6875 
L 13.1875 54.6875 
L 24.421875 12.015625 
L 35.59375 54.6875 
L 46.1875 54.6875 
L 57.421875 12.015625 
L 68.609375 54.6875 
L 77.59375 54.6875 
L 63.28125 0 
L 52.6875 0 
L 40.921875 44.828125 
L 29.109375 0 
L 18.5 0 
z
" id="DejaVuSans-119"/>
      <path d="M 31 75.875 
Q 24.46875 64.65625 21.28125 53.65625 
Q 18.109375 42.671875 18.109375 31.390625 
Q 18.109375 20.125 21.3125 9.0625 
Q 24.515625 -2 31 -13.1875 
L 23.1875 -13.1875 
Q 15.875 -1.703125 12.234375 9.375 
Q 8.59375 20.453125 8.59375 31.390625 
Q 8.59375 42.28125 12.203125 53.3125 
Q 15.828125 64.359375 23.1875 75.875 
z
" id="DejaVuSans-40"/>
      <path d="M 8.015625 75.875 
L 15.828125 75.875 
Q 23.140625 64.359375 26.78125 53.3125 
Q 30.421875 42.28125 30.421875 31.390625 
Q 30.421875 20.453125 26.78125 9.375 
Q 23.140625 -1.703125 15.828125 -13.1875 
L 8.015625 -13.1875 
Q 14.5 -2 17.703125 9.0625 
Q 20.90625 20.125 20.90625 31.390625 
Q 20.90625 42.671875 17.703125 53.65625 
Q 14.5 64.65625 8.015625 75.875 
z
" id="DejaVuSans-41"/>
     </defs>
     <use xlink:href="#DejaVuSans-77"/>
     <use x="86.279297" xlink:href="#DejaVuSans-101"/>
     <use x="147.802734" xlink:href="#DejaVuSans-116"/>
     <use x="187.011719" xlink:href="#DejaVuSans-97"/>
     <use x="248.291016" xlink:href="#DejaVuSans-32"/>
     <use x="280.078125" xlink:href="#DejaVuSans-79"/>
     <use x="358.789062" xlink:href="#DejaVuSans-118"/>
     <use x="417.96875" xlink:href="#DejaVuSans-101"/>
     <use x="479.492188" xlink:href="#DejaVuSans-114"/>
     <use x="520.605469" xlink:href="#DejaVuSans-118"/>
     <use x="579.785156" xlink:href="#DejaVuSans-105"/>
     <use x="607.568359" xlink:href="#DejaVuSans-101"/>
     <use x="669.091797" xlink:href="#DejaVuSans-119"/>
     <use x="750.878906" xlink:href="#DejaVuSans-32"/>
     <use x="782.666016" xlink:href="#DejaVuSans-40"/>
     <use x="821.679688" xlink:href="#DejaVuSans-100"/>
     <use x="885.15625" xlink:href="#DejaVuSans-97"/>
     <use x="946.435547" xlink:href="#DejaVuSans-116"/>
     <use x="985.644531" xlink:href="#DejaVuSans-97"/>
     <use x="1046.923828" xlink:href="#DejaVuSans-83"/>
     <use x="1110.400391" xlink:href="#DejaVuSans-101"/>
     <use x="1171.923828" xlink:href="#DejaVuSans-116"/>
     <use x="1211.132812" xlink:href="#DejaVuSans-49"/>
     <use x="1274.755859" xlink:href="#DejaVuSans-97"/>
     <use x="1336.035156" xlink:href="#DejaVuSans-41"/>
    </g>
   </g>
   <g id="legend_1">
    <g id="patch_49">
     <path d="M 876.1075 312.581875 
L 1128.86 312.581875 
Q 1131.46 312.581875 1131.46 309.981875 
L 1131.46 44.14 
Q 1131.46 41.54 1128.86 41.54 
L 876.1075 41.54 
Q 873.5075 41.54 873.5075 44.14 
L 873.5075 309.981875 
Q 873.5075 312.581875 876.1075 312.581875 
z
" style="fill:#e5e5e5;opacity:0.8;stroke:#cccccc;stroke-linejoin:miter;stroke-width:0.5;"/>
    </g>
    <g id="patch_50">
     <path d="M 878.7075 56.617969 
L 904.7075 56.617969 
L 904.7075 47.517969 
L 878.7075 47.517969 
z
" style="fill:#1f77b4;"/>
    </g>
    <g id="text_56">
     <!-- Messages -->
     <g transform="translate(915.1075 56.617969)scale(0.13 -0.13)">
      <use xlink:href="#DejaVuSans-77"/>
      <use x="86.279297" xlink:href="#DejaVuSans-101"/>
      <use x="147.802734" xlink:href="#DejaVuSans-115"/>
      <use x="199.902344" xlink:href="#DejaVuSans-115"/>
      <use x="252.001953" xlink:href="#DejaVuSans-97"/>
      <use x="313.28125" xlink:href="#DejaVuSans-103"/>
      <use x="376.757812" xlink:href="#DejaVuSans-101"/>
      <use x="438.28125" xlink:href="#DejaVuSans-115"/>
     </g>
    </g>
    <g id="patch_51">
     <path d="M 878.7075 75.699531 
L 904.7075 75.699531 
L 904.7075 66.599531 
L 878.7075 66.599531 
z
" style="fill:#ff7f0e;"/>
    </g>
    <g id="text_57">
     <!-- Formatted Messsages -->
     <g transform="translate(915.1075 75.699531)scale(0.13 -0.13)">
      <use xlink:href="#DejaVuSans-70"/>
      <use x="53.894531" xlink:href="#DejaVuSans-111"/>
      <use x="115.076172" xlink:href="#DejaVuSans-114"/>
      <use x="154.439453" xlink:href="#DejaVuSans-109"/>
      <use x="251.851562" xlink:href="#DejaVuSans-97"/>
      <use x="313.130859" xlink:href="#DejaVuSans-116"/>
      <use x="352.339844" xlink:href="#DejaVuSans-116"/>
      <use x="391.548828" xlink:href="#DejaVuSans-101"/>
      <use x="453.072266" xlink:href="#DejaVuSans-100"/>
      <use x="516.548828" xlink:href="#DejaVuSans-32"/>
      <use x="548.335938" xlink:href="#DejaVuSans-77"/>
      <use x="634.615234" xlink:href="#DejaVuSans-101"/>
      <use x="696.138672" xlink:href="#DejaVuSans-115"/>
      <use x="748.238281" xlink:href="#DejaVuSans-115"/>
      <use x="800.337891" xlink:href="#DejaVuSans-115"/>
      <use x="852.4375" xlink:href="#DejaVuSans-97"/>
      <use x="913.716797" xlink:href="#DejaVuSans-103"/>
      <use x="977.193359" xlink:href="#DejaVuSans-101"/>
      <use x="1038.716797" xlink:href="#DejaVuSans-115"/>
     </g>
    </g>
    <g id="patch_52">
     <path d="M 878.7075 94.781094 
L 904.7075 94.781094 
L 904.7075 85.681094 
L 878.7075 85.681094 
z
" style="fill:#2ca02c;"/>
    </g>
    <g id="text_58">
     <!-- Valid Text Messages -->
     <g transform="translate(915.1075 94.781094)scale(0.13 -0.13)">
      <defs>
       <path d="M 28.609375 0 
L 0.78125 72.90625 
L 11.078125 72.90625 
L 34.1875 11.53125 
L 57.328125 72.90625 
L 67.578125 72.90625 
L 39.796875 0 
z
" id="DejaVuSans-86"/>
       <path d="M 54.890625 54.6875 
L 35.109375 28.078125 
L 55.90625 0 
L 45.3125 0 
L 29.390625 21.484375 
L 13.484375 0 
L 2.875 0 
L 24.125 28.609375 
L 4.6875 54.6875 
L 15.28125 54.6875 
L 29.78125 35.203125 
L 44.28125 54.6875 
z
" id="DejaVuSans-120"/>
      </defs>
      <use xlink:href="#DejaVuSans-86"/>
      <use x="60.658203" xlink:href="#DejaVuSans-97"/>
      <use x="121.9375" xlink:href="#DejaVuSans-108"/>
      <use x="149.720703" xlink:href="#DejaVuSans-105"/>
      <use x="177.503906" xlink:href="#DejaVuSans-100"/>
      <use x="240.980469" xlink:href="#DejaVuSans-32"/>
      <use x="272.767578" xlink:href="#DejaVuSans-84"/>
      <use x="316.851562" xlink:href="#DejaVuSans-101"/>
      <use x="376.625" xlink:href="#DejaVuSans-120"/>
      <use x="435.804688" xlink:href="#DejaVuSans-116"/>
      <use x="475.013672" xlink:href="#DejaVuSans-32"/>
      <use x="506.800781" xlink:href="#DejaVuSans-77"/>
      <use x="593.080078" xlink:href="#DejaVuSans-101"/>
      <use x="654.603516" xlink:href="#DejaVuSans-115"/>
      <use x="706.703125" xlink:href="#DejaVuSans-115"/>
      <use x="758.802734" xlink:href="#DejaVuSans-97"/>
      <use x="820.082031" xlink:href="#DejaVuSans-103"/>
      <use x="883.558594" xlink:href="#DejaVuSans-101"/>
      <use x="945.082031" xlink:href="#DejaVuSans-115"/>
     </g>
    </g>
    <g id="patch_53">
     <path d="M 878.7075 113.862656 
L 904.7075 113.862656 
L 904.7075 104.762656 
L 878.7075 104.762656 
z
" style="fill:#d62728;"/>
    </g>
    <g id="text_59">
     <!-- Edited Messages -->
     <g transform="translate(915.1075 113.862656)scale(0.13 -0.13)">
      <use xlink:href="#DejaVuSans-69"/>
      <use x="63.183594" xlink:href="#DejaVuSans-100"/>
      <use x="126.660156" xlink:href="#DejaVuSans-105"/>
      <use x="154.443359" xlink:href="#DejaVuSans-116"/>
      <use x="193.652344" xlink:href="#DejaVuSans-101"/>
      <use x="255.175781" xlink:href="#DejaVuSans-100"/>
      <use x="318.652344" xlink:href="#DejaVuSans-32"/>
      <use x="350.439453" xlink:href="#DejaVuSans-77"/>
      <use x="436.71875" xlink:href="#DejaVuSans-101"/>
      <use x="498.242188" xlink:href="#DejaVuSans-115"/>
      <use x="550.341797" xlink:href="#DejaVuSans-115"/>
      <use x="602.441406" xlink:href="#DejaVuSans-97"/>
      <use x="663.720703" xlink:href="#DejaVuSans-103"/>
      <use x="727.197266" xlink:href="#DejaVuSans-101"/>
      <use x="788.720703" xlink:href="#DejaVuSans-115"/>
     </g>
    </g>
    <g id="patch_54">
     <path d="M 878.7075 132.944219 
L 904.7075 132.944219 
L 904.7075 123.844219 
L 878.7075 123.844219 
z
" style="fill:#9467bd;"/>
    </g>
    <g id="text_60">
     <!-- Forwarded Messages -->
     <g transform="translate(915.1075 132.944219)scale(0.13 -0.13)">
      <use xlink:href="#DejaVuSans-70"/>
      <use x="53.894531" xlink:href="#DejaVuSans-111"/>
      <use x="115.076172" xlink:href="#DejaVuSans-114"/>
      <use x="156.189453" xlink:href="#DejaVuSans-119"/>
      <use x="237.976562" xlink:href="#DejaVuSans-97"/>
      <use x="299.255859" xlink:href="#DejaVuSans-114"/>
      <use x="338.619141" xlink:href="#DejaVuSans-100"/>
      <use x="402.095703" xlink:href="#DejaVuSans-101"/>
      <use x="463.619141" xlink:href="#DejaVuSans-100"/>
      <use x="527.095703" xlink:href="#DejaVuSans-32"/>
      <use x="558.882812" xlink:href="#DejaVuSans-77"/>
      <use x="645.162109" xlink:href="#DejaVuSans-101"/>
      <use x="706.685547" xlink:href="#DejaVuSans-115"/>
      <use x="758.785156" xlink:href="#DejaVuSans-115"/>
      <use x="810.884766" xlink:href="#DejaVuSans-97"/>
      <use x="872.164062" xlink:href="#DejaVuSans-103"/>
      <use x="935.640625" xlink:href="#DejaVuSans-101"/>
      <use x="997.164062" xlink:href="#DejaVuSans-115"/>
     </g>
    </g>
    <g id="patch_55">
     <path d="M 878.7075 152.025781 
L 904.7075 152.025781 
L 904.7075 142.925781 
L 878.7075 142.925781 
z
" style="fill:#8c564b;"/>
    </g>
    <g id="text_61">
     <!-- Messages with Photos -->
     <g transform="translate(915.1075 152.025781)scale(0.13 -0.13)">
      <defs>
       <path d="M 19.671875 64.796875 
L 19.671875 37.40625 
L 32.078125 37.40625 
Q 38.96875 37.40625 42.71875 40.96875 
Q 46.484375 44.53125 46.484375 51.125 
Q 46.484375 57.671875 42.71875 61.234375 
Q 38.96875 64.796875 32.078125 64.796875 
z
M 9.8125 72.90625 
L 32.078125 72.90625 
Q 44.34375 72.90625 50.609375 67.359375 
Q 56.890625 61.8125 56.890625 51.125 
Q 56.890625 40.328125 50.609375 34.8125 
Q 44.34375 29.296875 32.078125 29.296875 
L 19.671875 29.296875 
L 19.671875 0 
L 9.8125 0 
z
" id="DejaVuSans-80"/>
      </defs>
      <use xlink:href="#DejaVuSans-77"/>
      <use x="86.279297" xlink:href="#DejaVuSans-101"/>
      <use x="147.802734" xlink:href="#DejaVuSans-115"/>
      <use x="199.902344" xlink:href="#DejaVuSans-115"/>
      <use x="252.001953" xlink:href="#DejaVuSans-97"/>
      <use x="313.28125" xlink:href="#DejaVuSans-103"/>
      <use x="376.757812" xlink:href="#DejaVuSans-101"/>
      <use x="438.28125" xlink:href="#DejaVuSans-115"/>
      <use x="490.380859" xlink:href="#DejaVuSans-32"/>
      <use x="522.167969" xlink:href="#DejaVuSans-119"/>
      <use x="603.955078" xlink:href="#DejaVuSans-105"/>
      <use x="631.738281" xlink:href="#DejaVuSans-116"/>
      <use x="670.947266" xlink:href="#DejaVuSans-104"/>
      <use x="734.326172" xlink:href="#DejaVuSans-32"/>
      <use x="766.113281" xlink:href="#DejaVuSans-80"/>
      <use x="826.416016" xlink:href="#DejaVuSans-104"/>
      <use x="889.794922" xlink:href="#DejaVuSans-111"/>
      <use x="950.976562" xlink:href="#DejaVuSans-116"/>
      <use x="990.185547" xlink:href="#DejaVuSans-111"/>
      <use x="1051.367188" xlink:href="#DejaVuSans-115"/>
     </g>
    </g>
    <g id="patch_56">
     <path d="M 878.7075 171.107344 
L 904.7075 171.107344 
L 904.7075 162.007344 
L 878.7075 162.007344 
z
" style="fill:#e377c2;"/>
    </g>
    <g id="text_62">
     <!-- Messages with Files -->
     <g transform="translate(915.1075 171.107344)scale(0.13 -0.13)">
      <use xlink:href="#DejaVuSans-77"/>
      <use x="86.279297" xlink:href="#DejaVuSans-101"/>
      <use x="147.802734" xlink:href="#DejaVuSans-115"/>
      <use x="199.902344" xlink:href="#DejaVuSans-115"/>
      <use x="252.001953" xlink:href="#DejaVuSans-97"/>
      <use x="313.28125" xlink:href="#DejaVuSans-103"/>
      <use x="376.757812" xlink:href="#DejaVuSans-101"/>
      <use x="438.28125" xlink:href="#DejaVuSans-115"/>
      <use x="490.380859" xlink:href="#DejaVuSans-32"/>
      <use x="522.167969" xlink:href="#DejaVuSans-119"/>
      <use x="603.955078" xlink:href="#DejaVuSans-105"/>
      <use x="631.738281" xlink:href="#DejaVuSans-116"/>
      <use x="670.947266" xlink:href="#DejaVuSans-104"/>
      <use x="734.326172" xlink:href="#DejaVuSans-32"/>
      <use x="766.113281" xlink:href="#DejaVuSans-70"/>
      <use x="816.382812" xlink:href="#DejaVuSans-105"/>
      <use x="844.166016" xlink:href="#DejaVuSans-108"/>
      <use x="871.949219" xlink:href="#DejaVuSans-101"/>
      <use x="933.472656" xlink:href="#DejaVuSans-115"/>
     </g>
    </g>
    <g id="patch_57">
     <path d="M 878.7075 190.188906 
L 904.7075 190.188906 
L 904.7075 181.088906 
L 878.7075 181.088906 
z
" style="fill:#7f7f7f;"/>
    </g>
    <g id="text_63">
     <!-- Messages with Urls -->
     <g transform="translate(915.1075 190.188906)scale(0.13 -0.13)">
      <defs>
       <path d="M 8.6875 72.90625 
L 18.609375 72.90625 
L 18.609375 28.609375 
Q 18.609375 16.890625 22.84375 11.734375 
Q 27.09375 6.59375 36.625 6.59375 
Q 46.09375 6.59375 50.34375 11.734375 
Q 54.59375 16.890625 54.59375 28.609375 
L 54.59375 72.90625 
L 64.5 72.90625 
L 64.5 27.390625 
Q 64.5 13.140625 57.4375 5.859375 
Q 50.390625 -1.421875 36.625 -1.421875 
Q 22.796875 -1.421875 15.734375 5.859375 
Q 8.6875 13.140625 8.6875 27.390625 
z
" id="DejaVuSans-85"/>
      </defs>
      <use xlink:href="#DejaVuSans-77"/>
      <use x="86.279297" xlink:href="#DejaVuSans-101"/>
      <use x="147.802734" xlink:href="#DejaVuSans-115"/>
      <use x="199.902344" xlink:href="#DejaVuSans-115"/>
      <use x="252.001953" xlink:href="#DejaVuSans-97"/>
      <use x="313.28125" xlink:href="#DejaVuSans-103"/>
      <use x="376.757812" xlink:href="#DejaVuSans-101"/>
      <use x="438.28125" xlink:href="#DejaVuSans-115"/>
      <use x="490.380859" xlink:href="#DejaVuSans-32"/>
      <use x="522.167969" xlink:href="#DejaVuSans-119"/>
      <use x="603.955078" xlink:href="#DejaVuSans-105"/>
      <use x="631.738281" xlink:href="#DejaVuSans-116"/>
      <use x="670.947266" xlink:href="#DejaVuSans-104"/>
      <use x="734.326172" xlink:href="#DejaVuSans-32"/>
      <use x="766.113281" xlink:href="#DejaVuSans-85"/>
      <use x="839.306641" xlink:href="#DejaVuSans-114"/>
      <use x="880.419922" xlink:href="#DejaVuSans-108"/>
      <use x="908.203125" xlink:href="#DejaVuSans-115"/>
     </g>
    </g>
    <g id="patch_58">
     <path d="M 878.7075 209.270469 
L 904.7075 209.270469 
L 904.7075 200.170469 
L 878.7075 200.170469 
z
" style="fill:#bcbd22;"/>
    </g>
    <g id="text_64">
     <!-- Messages with Hashtags -->
     <g transform="translate(915.1075 209.270469)scale(0.13 -0.13)">
      <use xlink:href="#DejaVuSans-77"/>
      <use x="86.279297" xlink:href="#DejaVuSans-101"/>
      <use x="147.802734" xlink:href="#DejaVuSans-115"/>
      <use x="199.902344" xlink:href="#DejaVuSans-115"/>
      <use x="252.001953" xlink:href="#DejaVuSans-97"/>
      <use x="313.28125" xlink:href="#DejaVuSans-103"/>
      <use x="376.757812" xlink:href="#DejaVuSans-101"/>
      <use x="438.28125" xlink:href="#DejaVuSans-115"/>
      <use x="490.380859" xlink:href="#DejaVuSans-32"/>
      <use x="522.167969" xlink:href="#DejaVuSans-119"/>
      <use x="603.955078" xlink:href="#DejaVuSans-105"/>
      <use x="631.738281" xlink:href="#DejaVuSans-116"/>
      <use x="670.947266" xlink:href="#DejaVuSans-104"/>
      <use x="734.326172" xlink:href="#DejaVuSans-32"/>
      <use x="766.113281" xlink:href="#DejaVuSans-72"/>
      <use x="841.308594" xlink:href="#DejaVuSans-97"/>
      <use x="902.587891" xlink:href="#DejaVuSans-115"/>
      <use x="954.6875" xlink:href="#DejaVuSans-104"/>
      <use x="1018.066406" xlink:href="#DejaVuSans-116"/>
      <use x="1057.275391" xlink:href="#DejaVuSans-97"/>
      <use x="1118.554688" xlink:href="#DejaVuSans-103"/>
      <use x="1182.03125" xlink:href="#DejaVuSans-115"/>
     </g>
    </g>
    <g id="patch_59">
     <path d="M 878.7075 228.352031 
L 904.7075 228.352031 
L 904.7075 219.252031 
L 878.7075 219.252031 
z
" style="fill:#17becf;"/>
    </g>
    <g id="text_65">
     <!-- Messages with Bold Items -->
     <g transform="translate(915.1075 228.352031)scale(0.13 -0.13)">
      <use xlink:href="#DejaVuSans-77"/>
      <use x="86.279297" xlink:href="#DejaVuSans-101"/>
      <use x="147.802734" xlink:href="#DejaVuSans-115"/>
      <use x="199.902344" xlink:href="#DejaVuSans-115"/>
      <use x="252.001953" xlink:href="#DejaVuSans-97"/>
      <use x="313.28125" xlink:href="#DejaVuSans-103"/>
      <use x="376.757812" xlink:href="#DejaVuSans-101"/>
      <use x="438.28125" xlink:href="#DejaVuSans-115"/>
      <use x="490.380859" xlink:href="#DejaVuSans-32"/>
      <use x="522.167969" xlink:href="#DejaVuSans-119"/>
      <use x="603.955078" xlink:href="#DejaVuSans-105"/>
      <use x="631.738281" xlink:href="#DejaVuSans-116"/>
      <use x="670.947266" xlink:href="#DejaVuSans-104"/>
      <use x="734.326172" xlink:href="#DejaVuSans-32"/>
      <use x="766.113281" xlink:href="#DejaVuSans-66"/>
      <use x="834.716797" xlink:href="#DejaVuSans-111"/>
      <use x="895.898438" xlink:href="#DejaVuSans-108"/>
      <use x="923.681641" xlink:href="#DejaVuSans-100"/>
      <use x="987.158203" xlink:href="#DejaVuSans-32"/>
      <use x="1018.945312" xlink:href="#DejaVuSans-73"/>
      <use x="1048.4375" xlink:href="#DejaVuSans-116"/>
      <use x="1087.646484" xlink:href="#DejaVuSans-101"/>
      <use x="1149.169922" xlink:href="#DejaVuSans-109"/>
      <use x="1246.582031" xlink:href="#DejaVuSans-115"/>
     </g>
    </g>
    <g id="patch_60">
     <path d="M 878.7075 247.433594 
L 904.7075 247.433594 
L 904.7075 238.333594 
L 878.7075 238.333594 
z
" style="fill:#1f77b4;"/>
    </g>
    <g id="text_66">
     <!-- Messages with Italic Items -->
     <g transform="translate(915.1075 247.433594)scale(0.13 -0.13)">
      <use xlink:href="#DejaVuSans-77"/>
      <use x="86.279297" xlink:href="#DejaVuSans-101"/>
      <use x="147.802734" xlink:href="#DejaVuSans-115"/>
      <use x="199.902344" xlink:href="#DejaVuSans-115"/>
      <use x="252.001953" xlink:href="#DejaVuSans-97"/>
      <use x="313.28125" xlink:href="#DejaVuSans-103"/>
      <use x="376.757812" xlink:href="#DejaVuSans-101"/>
      <use x="438.28125" xlink:href="#DejaVuSans-115"/>
      <use x="490.380859" xlink:href="#DejaVuSans-32"/>
      <use x="522.167969" xlink:href="#DejaVuSans-119"/>
      <use x="603.955078" xlink:href="#DejaVuSans-105"/>
      <use x="631.738281" xlink:href="#DejaVuSans-116"/>
      <use x="670.947266" xlink:href="#DejaVuSans-104"/>
      <use x="734.326172" xlink:href="#DejaVuSans-32"/>
      <use x="766.113281" xlink:href="#DejaVuSans-73"/>
      <use x="795.605469" xlink:href="#DejaVuSans-116"/>
      <use x="834.814453" xlink:href="#DejaVuSans-97"/>
      <use x="896.09375" xlink:href="#DejaVuSans-108"/>
      <use x="923.876953" xlink:href="#DejaVuSans-105"/>
      <use x="951.660156" xlink:href="#DejaVuSans-99"/>
      <use x="1006.640625" xlink:href="#DejaVuSans-32"/>
      <use x="1038.427734" xlink:href="#DejaVuSans-73"/>
      <use x="1067.919922" xlink:href="#DejaVuSans-116"/>
      <use x="1107.128906" xlink:href="#DejaVuSans-101"/>
      <use x="1168.652344" xlink:href="#DejaVuSans-109"/>
      <use x="1266.064453" xlink:href="#DejaVuSans-115"/>
     </g>
    </g>
    <g id="patch_61">
     <path d="M 878.7075 266.515156 
L 904.7075 266.515156 
L 904.7075 257.415156 
L 878.7075 257.415156 
z
" style="fill:#1f77b4;"/>
    </g>
    <g id="text_67">
     <!-- Messages with Underlined Items -->
     <g transform="translate(915.1075 266.515156)scale(0.13 -0.13)">
      <use xlink:href="#DejaVuSans-77"/>
      <use x="86.279297" xlink:href="#DejaVuSans-101"/>
      <use x="147.802734" xlink:href="#DejaVuSans-115"/>
      <use x="199.902344" xlink:href="#DejaVuSans-115"/>
      <use x="252.001953" xlink:href="#DejaVuSans-97"/>
      <use x="313.28125" xlink:href="#DejaVuSans-103"/>
      <use x="376.757812" xlink:href="#DejaVuSans-101"/>
      <use x="438.28125" xlink:href="#DejaVuSans-115"/>
      <use x="490.380859" xlink:href="#DejaVuSans-32"/>
      <use x="522.167969" xlink:href="#DejaVuSans-119"/>
      <use x="603.955078" xlink:href="#DejaVuSans-105"/>
      <use x="631.738281" xlink:href="#DejaVuSans-116"/>
      <use x="670.947266" xlink:href="#DejaVuSans-104"/>
      <use x="734.326172" xlink:href="#DejaVuSans-32"/>
      <use x="766.113281" xlink:href="#DejaVuSans-85"/>
      <use x="839.306641" xlink:href="#DejaVuSans-110"/>
      <use x="902.685547" xlink:href="#DejaVuSans-100"/>
      <use x="966.162109" xlink:href="#DejaVuSans-101"/>
      <use x="1027.685547" xlink:href="#DejaVuSans-114"/>
      <use x="1068.798828" xlink:href="#DejaVuSans-108"/>
      <use x="1096.582031" xlink:href="#DejaVuSans-105"/>
      <use x="1124.365234" xlink:href="#DejaVuSans-110"/>
      <use x="1187.744141" xlink:href="#DejaVuSans-101"/>
      <use x="1249.267578" xlink:href="#DejaVuSans-100"/>
      <use x="1312.744141" xlink:href="#DejaVuSans-32"/>
      <use x="1344.53125" xlink:href="#DejaVuSans-73"/>
      <use x="1374.023438" xlink:href="#DejaVuSans-116"/>
      <use x="1413.232422" xlink:href="#DejaVuSans-101"/>
      <use x="1474.755859" xlink:href="#DejaVuSans-109"/>
      <use x="1572.167969" xlink:href="#DejaVuSans-115"/>
     </g>
    </g>
    <g id="patch_62">
     <path d="M 878.7075 285.596719 
L 904.7075 285.596719 
L 904.7075 276.496719 
L 878.7075 276.496719 
z
" style="fill:#ff7f0e;"/>
    </g>
    <g id="text_68">
     <!-- Messages with E-Mails -->
     <g transform="translate(915.1075 285.596719)scale(0.13 -0.13)">
      <defs>
       <path d="M 4.890625 31.390625 
L 31.203125 31.390625 
L 31.203125 23.390625 
L 4.890625 23.390625 
z
" id="DejaVuSans-45"/>
      </defs>
      <use xlink:href="#DejaVuSans-77"/>
      <use x="86.279297" xlink:href="#DejaVuSans-101"/>
      <use x="147.802734" xlink:href="#DejaVuSans-115"/>
      <use x="199.902344" xlink:href="#DejaVuSans-115"/>
      <use x="252.001953" xlink:href="#DejaVuSans-97"/>
      <use x="313.28125" xlink:href="#DejaVuSans-103"/>
      <use x="376.757812" xlink:href="#DejaVuSans-101"/>
      <use x="438.28125" xlink:href="#DejaVuSans-115"/>
      <use x="490.380859" xlink:href="#DejaVuSans-32"/>
      <use x="522.167969" xlink:href="#DejaVuSans-119"/>
      <use x="603.955078" xlink:href="#DejaVuSans-105"/>
      <use x="631.738281" xlink:href="#DejaVuSans-116"/>
      <use x="670.947266" xlink:href="#DejaVuSans-104"/>
      <use x="734.326172" xlink:href="#DejaVuSans-32"/>
      <use x="766.113281" xlink:href="#DejaVuSans-69"/>
      <use x="829.296875" xlink:href="#DejaVuSans-45"/>
      <use x="865.380859" xlink:href="#DejaVuSans-77"/>
      <use x="951.660156" xlink:href="#DejaVuSans-97"/>
      <use x="1012.939453" xlink:href="#DejaVuSans-105"/>
      <use x="1040.722656" xlink:href="#DejaVuSans-108"/>
      <use x="1068.505859" xlink:href="#DejaVuSans-115"/>
     </g>
    </g>
    <g id="patch_63">
     <path d="M 878.7075 304.678281 
L 904.7075 304.678281 
L 904.7075 295.578281 
L 878.7075 295.578281 
z
" style="fill:#2ca02c;"/>
    </g>
    <g id="text_69">
     <!-- Messages with Emojis -->
     <g transform="translate(915.1075 304.678281)scale(0.13 -0.13)">
      <defs>
       <path d="M 9.421875 54.6875 
L 18.40625 54.6875 
L 18.40625 -0.984375 
Q 18.40625 -11.421875 14.421875 -16.109375 
Q 10.453125 -20.796875 1.609375 -20.796875 
L -1.8125 -20.796875 
L -1.8125 -13.1875 
L 0.59375 -13.1875 
Q 5.71875 -13.1875 7.5625 -10.8125 
Q 9.421875 -8.453125 9.421875 -0.984375 
z
M 9.421875 75.984375 
L 18.40625 75.984375 
L 18.40625 64.59375 
L 9.421875 64.59375 
z
" id="DejaVuSans-106"/>
      </defs>
      <use xlink:href="#DejaVuSans-77"/>
      <use x="86.279297" xlink:href="#DejaVuSans-101"/>
      <use x="147.802734" xlink:href="#DejaVuSans-115"/>
      <use x="199.902344" xlink:href="#DejaVuSans-115"/>
      <use x="252.001953" xlink:href="#DejaVuSans-97"/>
      <use x="313.28125" xlink:href="#DejaVuSans-103"/>
      <use x="376.757812" xlink:href="#DejaVuSans-101"/>
      <use x="438.28125" xlink:href="#DejaVuSans-115"/>
      <use x="490.380859" xlink:href="#DejaVuSans-32"/>
      <use x="522.167969" xlink:href="#DejaVuSans-119"/>
      <use x="603.955078" xlink:href="#DejaVuSans-105"/>
      <use x="631.738281" xlink:href="#DejaVuSans-116"/>
      <use x="670.947266" xlink:href="#DejaVuSans-104"/>
      <use x="734.326172" xlink:href="#DejaVuSans-32"/>
      <use x="766.113281" xlink:href="#DejaVuSans-69"/>
      <use x="829.296875" xlink:href="#DejaVuSans-109"/>
      <use x="926.708984" xlink:href="#DejaVuSans-111"/>
      <use x="987.890625" xlink:href="#DejaVuSans-106"/>
      <use x="1015.673828" xlink:href="#DejaVuSans-105"/>
      <use x="1043.457031" xlink:href="#DejaVuSans-115"/>
     </g>
    </g>
   </g>
  </g>
 </g>
 <defs>
  <clipPath id="p21ea1702a0">
   <rect height="578.92" width="1048.42" x="89.54" y="35.04"/>
  </clipPath>
 </defs>
</svg>
