<?xml version="1.0" encoding="utf-8" standalone="no"?>
<!DOCTYPE svg PUBLIC "-//W3C//DTD SVG 1.1//EN"
  "http://www.w3.org/Graphics/SVG/1.1/DTD/svg11.dtd">
<!-- Created with matplotlib (https://matplotlib.org/) -->
<svg height="648pt" version="1.1" viewBox="0 0 1152 648" width="1152pt" xmlns="http://www.w3.org/2000/svg" xmlns:xlink="http://www.w3.org/1999/xlink">
 <metadata>
  <rdf:RDF xmlns:cc="http://creativecommons.org/ns#" xmlns:dc="http://purl.org/dc/elements/1.1/" xmlns:rdf="http://www.w3.org/1999/02/22-rdf-syntax-ns#">
   <cc:Work>
    <dc:type rdf:resource="http://purl.org/dc/dcmitype/StillImage"/>
    <dc:date>2021-03-25T04:03:50.494228</dc:date>
    <dc:format>image/svg+xml</dc:format>
    <dc:creator>
     <cc:Agent>
      <dc:title>Matplotlib v3.3.4, https://matplotlib.org/</dc:title>
     </cc:Agent>
    </dc:creator>
   </cc:Work>
  </rdf:RDF>
 </metadata>
 <defs>
  <style type="text/css">*{stroke-linecap:butt;stroke-linejoin:round;}</style>
 </defs>
 <g id="figure_1">
  <g id="patch_1">
   <path d="M 0 648 
L 1152 648 
L 1152 0 
L 0 0 
z
" style="fill:#ffffff;"/>
  </g>
  <g id="axes_1">
   <g id="patch_2">
    <path clip-path="url(#p44c5280816)" d="M 1024.295272 232.779519 
Q 910.451865 190.585469 802.479193 150.567303 
" style="fill:none;stroke:#000000;stroke-linecap:round;stroke-width:5.6;"/>
    <path clip-path="url(#p44c5280816)" d="M 807.062614 155.465491 
L 802.479193 150.567303 
L 809.147796 149.839479 
L 807.062614 155.465491 
z
" style="stroke:#000000;stroke-linecap:round;stroke-width:5.6;"/>
   </g>
   <g id="patch_3">
    <path clip-path="url(#p44c5280816)" d="M 1024.615302 254.165721 
Q 784.929193 351.251622 547.186058 447.550512 
" style="fill:none;stroke:#000000;stroke-linecap:round;stroke-width:1.875;"/>
    <path clip-path="url(#p44c5280816)" d="M 553.87345 448.078516 
L 547.186058 447.550512 
L 551.620897 442.517401 
L 553.87345 448.078516 
z
" style="stroke:#000000;stroke-linecap:round;stroke-width:1.875;"/>
   </g>
   <g id="patch_4">
    <path clip-path="url(#p44c5280816)" d="M 497.97015 558.801178 
Q 618.382389 363.549813 738.325133 169.059745 
" style="fill:none;stroke:#000000;stroke-linecap:round;stroke-width:0.8;"/>
    <path clip-path="url(#p44c5280816)" d="M 732.622193 172.591951 
L 738.325133 169.059745 
L 737.729134 175.741421 
L 732.622193 172.591951 
z
" style="stroke:#000000;stroke-linecap:round;stroke-width:0.8;"/>
   </g>
   <g id="patch_5">
    <path clip-path="url(#p44c5280816)" d="M 485.471943 553.843132 
Q 490.110596 531.383687 493.0532 517.13618 
" style="fill:none;stroke:#000000;stroke-linecap:round;stroke-width:7.5;"/>
    <path clip-path="url(#p44c5280816)" d="M 488.901614 522.405367 
L 493.0532 517.13618 
L 494.777598 523.618961 
L 488.901614 522.405367 
z
" style="stroke:#000000;stroke-linecap:round;stroke-width:7.5;"/>
   </g>
   <g id="patch_6">
    <path clip-path="url(#p44c5280816)" d="M 113.566378 57.848354 
Q 416.927459 93.917458 718.956283 129.828159 
" style="fill:none;stroke:#000000;stroke-linecap:round;stroke-width:1.2;"/>
    <path clip-path="url(#p44c5280816)" d="M 713.352449 126.140742 
L 718.956283 129.828159 
L 712.644049 132.098776 
L 713.352449 126.140742 
z
" style="stroke:#000000;stroke-linecap:round;stroke-width:1.2;"/>
   </g>
   <g id="patch_7">
    <path clip-path="url(#p44c5280816)" d="M 109.588793 65.973978 
Q 290.978953 249.639985 471.878097 432.808815 
" style="fill:none;stroke:#000000;stroke-linecap:round;stroke-width:0.625;"/>
    <path clip-path="url(#p44c5280816)" d="M 469.796492 426.431753 
L 471.878097 432.808815 
L 465.527484 430.647862 
L 469.796492 426.431753 
z
" style="stroke:#000000;stroke-linecap:round;stroke-width:0.625;"/>
   </g>
   <g id="patch_8">
    <path clip-path="url(#p44c5280816)" d="M 531.164604 429.759898 
Q 633.257424 297.837795 733.708017 168.037742 
" style="fill:none;stroke:#000000;stroke-linecap:round;stroke-width:2.4;"/>
    <path clip-path="url(#p44c5280816)" d="M 727.663364 170.946723 
L 733.708017 168.037742 
L 732.40841 174.618853 
L 727.663364 170.946723 
z
" style="stroke:#000000;stroke-linecap:round;stroke-width:2.4;"/>
   </g>
   <g id="text_1">
    <g id="patch_9">
     <path clip-path="url(#p44c5280816)" d="M 806.664164 162.986599 
L 997.829032 233.838484 
Q 1001.48594 235.193853 1002.841309 231.536945 
L 1007.213784 219.739607 
Q 1008.569152 216.082699 1004.912244 214.727331 
L 813.747376 143.875446 
Q 810.090468 142.520077 808.7351 146.176985 
L 804.362625 157.974323 
Q 803.007256 161.631231 806.664164 162.986599 
z
" style="fill:#ffffff;stroke:#ffffff;stroke-linejoin:miter;stroke-width:0.5;"/>
    </g>
    <g clip-path="url(#p44c5280816)">
     <!-- (1 - (7.000/12.500)) * 100 = 44 -->
     <g transform="translate(808.959114 156.794616)rotate(-339.663664)scale(0.13 -0.13)">
      <defs>
       <path d="M 31 75.875 
Q 24.46875 64.65625 21.28125 53.65625 
Q 18.109375 42.671875 18.109375 31.390625 
Q 18.109375 20.125 21.3125 9.0625 
Q 24.515625 -2 31 -13.1875 
L 23.1875 -13.1875 
Q 15.875 -1.703125 12.234375 9.375 
Q 8.59375 20.453125 8.59375 31.390625 
Q 8.59375 42.28125 12.203125 53.3125 
Q 15.828125 64.359375 23.1875 75.875 
z
" id="DejaVuSans-40"/>
       <path d="M 12.40625 8.296875 
L 28.515625 8.296875 
L 28.515625 63.921875 
L 10.984375 60.40625 
L 10.984375 69.390625 
L 28.421875 72.90625 
L 38.28125 72.90625 
L 38.28125 8.296875 
L 54.390625 8.296875 
L 54.390625 0 
L 12.40625 0 
z
" id="DejaVuSans-49"/>
       <path id="DejaVuSans-32"/>
       <path d="M 4.890625 31.390625 
L 31.203125 31.390625 
L 31.203125 23.390625 
L 4.890625 23.390625 
z
" id="DejaVuSans-45"/>
       <path d="M 8.203125 72.90625 
L 55.078125 72.90625 
L 55.078125 68.703125 
L 28.609375 0 
L 18.3125 0 
L 43.21875 64.59375 
L 8.203125 64.59375 
z
" id="DejaVuSans-55"/>
       <path d="M 10.6875 12.40625 
L 21 12.40625 
L 21 0 
L 10.6875 0 
z
" id="DejaVuSans-46"/>
       <path d="M 31.78125 66.40625 
Q 24.171875 66.40625 20.328125 58.90625 
Q 16.5 51.421875 16.5 36.375 
Q 16.5 21.390625 20.328125 13.890625 
Q 24.171875 6.390625 31.78125 6.390625 
Q 39.453125 6.390625 43.28125 13.890625 
Q 47.125 21.390625 47.125 36.375 
Q 47.125 51.421875 43.28125 58.90625 
Q 39.453125 66.40625 31.78125 66.40625 
z
M 31.78125 74.21875 
Q 44.046875 74.21875 50.515625 64.515625 
Q 56.984375 54.828125 56.984375 36.375 
Q 56.984375 17.96875 50.515625 8.265625 
Q 44.046875 -1.421875 31.78125 -1.421875 
Q 19.53125 -1.421875 13.0625 8.265625 
Q 6.59375 17.96875 6.59375 36.375 
Q 6.59375 54.828125 13.0625 64.515625 
Q 19.53125 74.21875 31.78125 74.21875 
z
" id="DejaVuSans-48"/>
       <path d="M 25.390625 72.90625 
L 33.6875 72.90625 
L 8.296875 -9.28125 
L 0 -9.28125 
z
" id="DejaVuSans-47"/>
       <path d="M 19.1875 8.296875 
L 53.609375 8.296875 
L 53.609375 0 
L 7.328125 0 
L 7.328125 8.296875 
Q 12.9375 14.109375 22.625 23.890625 
Q 32.328125 33.6875 34.8125 36.53125 
Q 39.546875 41.84375 41.421875 45.53125 
Q 43.3125 49.21875 43.3125 52.78125 
Q 43.3125 58.59375 39.234375 62.25 
Q 35.15625 65.921875 28.609375 65.921875 
Q 23.96875 65.921875 18.8125 64.3125 
Q 13.671875 62.703125 7.8125 59.421875 
L 7.8125 69.390625 
Q 13.765625 71.78125 18.9375 73 
Q 24.125 74.21875 28.421875 74.21875 
Q 39.75 74.21875 46.484375 68.546875 
Q 53.21875 62.890625 53.21875 53.421875 
Q 53.21875 48.921875 51.53125 44.890625 
Q 49.859375 40.875 45.40625 35.40625 
Q 44.1875 33.984375 37.640625 27.21875 
Q 31.109375 20.453125 19.1875 8.296875 
z
" id="DejaVuSans-50"/>
       <path d="M 10.796875 72.90625 
L 49.515625 72.90625 
L 49.515625 64.59375 
L 19.828125 64.59375 
L 19.828125 46.734375 
Q 21.96875 47.46875 24.109375 47.828125 
Q 26.265625 48.1875 28.421875 48.1875 
Q 40.625 48.1875 47.75 41.5 
Q 54.890625 34.8125 54.890625 23.390625 
Q 54.890625 11.625 47.5625 5.09375 
Q 40.234375 -1.421875 26.90625 -1.421875 
Q 22.3125 -1.421875 17.546875 -0.640625 
Q 12.796875 0.140625 7.71875 1.703125 
L 7.71875 11.625 
Q 12.109375 9.234375 16.796875 8.0625 
Q 21.484375 6.890625 26.703125 6.890625 
Q 35.15625 6.890625 40.078125 11.328125 
Q 45.015625 15.765625 45.015625 23.390625 
Q 45.015625 31 40.078125 35.4375 
Q 35.15625 39.890625 26.703125 39.890625 
Q 22.75 39.890625 18.8125 39.015625 
Q 14.890625 38.140625 10.796875 36.28125 
z
" id="DejaVuSans-53"/>
       <path d="M 8.015625 75.875 
L 15.828125 75.875 
Q 23.140625 64.359375 26.78125 53.3125 
Q 30.421875 42.28125 30.421875 31.390625 
Q 30.421875 20.453125 26.78125 9.375 
Q 23.140625 -1.703125 15.828125 -13.1875 
L 8.015625 -13.1875 
Q 14.5 -2 17.703125 9.0625 
Q 20.90625 20.125 20.90625 31.390625 
Q 20.90625 42.671875 17.703125 53.65625 
Q 14.5 64.65625 8.015625 75.875 
z
" id="DejaVuSans-41"/>
       <path d="M 47.015625 60.890625 
L 29.5 51.421875 
L 47.015625 41.890625 
L 44.1875 37.109375 
L 27.78125 47.015625 
L 27.78125 28.609375 
L 22.21875 28.609375 
L 22.21875 47.015625 
L 5.8125 37.109375 
L 2.984375 41.890625 
L 20.515625 51.421875 
L 2.984375 60.890625 
L 5.8125 65.71875 
L 22.21875 55.8125 
L 22.21875 74.21875 
L 27.78125 74.21875 
L 27.78125 55.8125 
L 44.1875 65.71875 
z
" id="DejaVuSans-42"/>
       <path d="M 10.59375 45.40625 
L 73.1875 45.40625 
L 73.1875 37.203125 
L 10.59375 37.203125 
z
M 10.59375 25.484375 
L 73.1875 25.484375 
L 73.1875 17.1875 
L 10.59375 17.1875 
z
" id="DejaVuSans-61"/>
       <path d="M 37.796875 64.3125 
L 12.890625 25.390625 
L 37.796875 25.390625 
z
M 35.203125 72.90625 
L 47.609375 72.90625 
L 47.609375 25.390625 
L 58.015625 25.390625 
L 58.015625 17.1875 
L 47.609375 17.1875 
L 47.609375 0 
L 37.796875 0 
L 37.796875 17.1875 
L 4.890625 17.1875 
L 4.890625 26.703125 
z
" id="DejaVuSans-52"/>
      </defs>
      <use xlink:href="#DejaVuSans-40"/>
      <use x="39.013672" xlink:href="#DejaVuSans-49"/>
      <use x="102.636719" xlink:href="#DejaVuSans-32"/>
      <use x="134.423828" xlink:href="#DejaVuSans-45"/>
      <use x="170.507812" xlink:href="#DejaVuSans-32"/>
      <use x="202.294922" xlink:href="#DejaVuSans-40"/>
      <use x="241.308594" xlink:href="#DejaVuSans-55"/>
      <use x="304.931641" xlink:href="#DejaVuSans-46"/>
      <use x="336.71875" xlink:href="#DejaVuSans-48"/>
      <use x="400.341797" xlink:href="#DejaVuSans-48"/>
      <use x="463.964844" xlink:href="#DejaVuSans-48"/>
      <use x="527.587891" xlink:href="#DejaVuSans-47"/>
      <use x="561.279297" xlink:href="#DejaVuSans-49"/>
      <use x="624.902344" xlink:href="#DejaVuSans-50"/>
      <use x="688.525391" xlink:href="#DejaVuSans-46"/>
      <use x="720.3125" xlink:href="#DejaVuSans-53"/>
      <use x="783.935547" xlink:href="#DejaVuSans-48"/>
      <use x="847.558594" xlink:href="#DejaVuSans-48"/>
      <use x="911.181641" xlink:href="#DejaVuSans-41"/>
      <use x="950.195312" xlink:href="#DejaVuSans-41"/>
      <use x="989.208984" xlink:href="#DejaVuSans-32"/>
      <use x="1020.996094" xlink:href="#DejaVuSans-42"/>
      <use x="1070.996094" xlink:href="#DejaVuSans-32"/>
      <use x="1102.783203" xlink:href="#DejaVuSans-49"/>
      <use x="1166.40625" xlink:href="#DejaVuSans-48"/>
      <use x="1230.029297" xlink:href="#DejaVuSans-48"/>
      <use x="1293.652344" xlink:href="#DejaVuSans-32"/>
      <use x="1325.439453" xlink:href="#DejaVuSans-61"/>
      <use x="1409.228516" xlink:href="#DejaVuSans-32"/>
      <use x="1441.015625" xlink:href="#DejaVuSans-52"/>
      <use x="1504.638672" xlink:href="#DejaVuSans-52"/>
     </g>
    </g>
   </g>
   <g id="text_2">
    <g id="patch_10">
     <path clip-path="url(#p44c5280816)" d="M 677.679164 405.688753 
L 885.800711 321.388215 
Q 889.415436 319.924055 887.951276 316.309331 
L 883.227834 304.648078 
Q 881.763674 301.033353 878.14895 302.497513 
L 670.027403 386.798051 
Q 666.412678 388.262211 667.876838 391.876935 
L 672.60028 403.538188 
Q 674.06444 407.152913 677.679164 405.688753 
z
" style="fill:#ffffff;stroke:#ffffff;stroke-linejoin:miter;stroke-width:0.5;"/>
    </g>
    <g clip-path="url(#p44c5280816)">
     <!-- (1 - (3.000/16.000)) * 100 = 81,25 -->
     <g transform="translate(675.200006 399.568196)rotate(-22.050623)scale(0.13 -0.13)">
      <defs>
       <path d="M 40.578125 39.3125 
Q 47.65625 37.796875 51.625 33 
Q 55.609375 28.21875 55.609375 21.1875 
Q 55.609375 10.40625 48.1875 4.484375 
Q 40.765625 -1.421875 27.09375 -1.421875 
Q 22.515625 -1.421875 17.65625 -0.515625 
Q 12.796875 0.390625 7.625 2.203125 
L 7.625 11.71875 
Q 11.71875 9.328125 16.59375 8.109375 
Q 21.484375 6.890625 26.8125 6.890625 
Q 36.078125 6.890625 40.9375 10.546875 
Q 45.796875 14.203125 45.796875 21.1875 
Q 45.796875 27.640625 41.28125 31.265625 
Q 36.765625 34.90625 28.71875 34.90625 
L 20.21875 34.90625 
L 20.21875 43.015625 
L 29.109375 43.015625 
Q 36.375 43.015625 40.234375 45.921875 
Q 44.09375 48.828125 44.09375 54.296875 
Q 44.09375 59.90625 40.109375 62.90625 
Q 36.140625 65.921875 28.71875 65.921875 
Q 24.65625 65.921875 20.015625 65.03125 
Q 15.375 64.15625 9.8125 62.3125 
L 9.8125 71.09375 
Q 15.4375 72.65625 20.34375 73.4375 
Q 25.25 74.21875 29.59375 74.21875 
Q 40.828125 74.21875 47.359375 69.109375 
Q 53.90625 64.015625 53.90625 55.328125 
Q 53.90625 49.265625 50.4375 45.09375 
Q 46.96875 40.921875 40.578125 39.3125 
z
" id="DejaVuSans-51"/>
       <path d="M 33.015625 40.375 
Q 26.375 40.375 22.484375 35.828125 
Q 18.609375 31.296875 18.609375 23.390625 
Q 18.609375 15.53125 22.484375 10.953125 
Q 26.375 6.390625 33.015625 6.390625 
Q 39.65625 6.390625 43.53125 10.953125 
Q 47.40625 15.53125 47.40625 23.390625 
Q 47.40625 31.296875 43.53125 35.828125 
Q 39.65625 40.375 33.015625 40.375 
z
M 52.59375 71.296875 
L 52.59375 62.3125 
Q 48.875 64.0625 45.09375 64.984375 
Q 41.3125 65.921875 37.59375 65.921875 
Q 27.828125 65.921875 22.671875 59.328125 
Q 17.53125 52.734375 16.796875 39.40625 
Q 19.671875 43.65625 24.015625 45.921875 
Q 28.375 48.1875 33.59375 48.1875 
Q 44.578125 48.1875 50.953125 41.515625 
Q 57.328125 34.859375 57.328125 23.390625 
Q 57.328125 12.15625 50.6875 5.359375 
Q 44.046875 -1.421875 33.015625 -1.421875 
Q 20.359375 -1.421875 13.671875 8.265625 
Q 6.984375 17.96875 6.984375 36.375 
Q 6.984375 53.65625 15.1875 63.9375 
Q 23.390625 74.21875 37.203125 74.21875 
Q 40.921875 74.21875 44.703125 73.484375 
Q 48.484375 72.75 52.59375 71.296875 
z
" id="DejaVuSans-54"/>
       <path d="M 31.78125 34.625 
Q 24.75 34.625 20.71875 30.859375 
Q 16.703125 27.09375 16.703125 20.515625 
Q 16.703125 13.921875 20.71875 10.15625 
Q 24.75 6.390625 31.78125 6.390625 
Q 38.8125 6.390625 42.859375 10.171875 
Q 46.921875 13.96875 46.921875 20.515625 
Q 46.921875 27.09375 42.890625 30.859375 
Q 38.875 34.625 31.78125 34.625 
z
M 21.921875 38.8125 
Q 15.578125 40.375 12.03125 44.71875 
Q 8.5 49.078125 8.5 55.328125 
Q 8.5 64.0625 14.71875 69.140625 
Q 20.953125 74.21875 31.78125 74.21875 
Q 42.671875 74.21875 48.875 69.140625 
Q 55.078125 64.0625 55.078125 55.328125 
Q 55.078125 49.078125 51.53125 44.71875 
Q 48 40.375 41.703125 38.8125 
Q 48.828125 37.15625 52.796875 32.3125 
Q 56.78125 27.484375 56.78125 20.515625 
Q 56.78125 9.90625 50.3125 4.234375 
Q 43.84375 -1.421875 31.78125 -1.421875 
Q 19.734375 -1.421875 13.25 4.234375 
Q 6.78125 9.90625 6.78125 20.515625 
Q 6.78125 27.484375 10.78125 32.3125 
Q 14.796875 37.15625 21.921875 38.8125 
z
M 18.3125 54.390625 
Q 18.3125 48.734375 21.84375 45.5625 
Q 25.390625 42.390625 31.78125 42.390625 
Q 38.140625 42.390625 41.71875 45.5625 
Q 45.3125 48.734375 45.3125 54.390625 
Q 45.3125 60.0625 41.71875 63.234375 
Q 38.140625 66.40625 31.78125 66.40625 
Q 25.390625 66.40625 21.84375 63.234375 
Q 18.3125 60.0625 18.3125 54.390625 
z
" id="DejaVuSans-56"/>
       <path d="M 11.71875 12.40625 
L 22.015625 12.40625 
L 22.015625 4 
L 14.015625 -11.625 
L 7.71875 -11.625 
L 11.71875 4 
z
" id="DejaVuSans-44"/>
      </defs>
      <use xlink:href="#DejaVuSans-40"/>
      <use x="39.013672" xlink:href="#DejaVuSans-49"/>
      <use x="102.636719" xlink:href="#DejaVuSans-32"/>
      <use x="134.423828" xlink:href="#DejaVuSans-45"/>
      <use x="170.507812" xlink:href="#DejaVuSans-32"/>
      <use x="202.294922" xlink:href="#DejaVuSans-40"/>
      <use x="241.308594" xlink:href="#DejaVuSans-51"/>
      <use x="304.931641" xlink:href="#DejaVuSans-46"/>
      <use x="336.71875" xlink:href="#DejaVuSans-48"/>
      <use x="400.341797" xlink:href="#DejaVuSans-48"/>
      <use x="463.964844" xlink:href="#DejaVuSans-48"/>
      <use x="527.587891" xlink:href="#DejaVuSans-47"/>
      <use x="561.279297" xlink:href="#DejaVuSans-49"/>
      <use x="624.902344" xlink:href="#DejaVuSans-54"/>
      <use x="688.525391" xlink:href="#DejaVuSans-46"/>
      <use x="720.3125" xlink:href="#DejaVuSans-48"/>
      <use x="783.935547" xlink:href="#DejaVuSans-48"/>
      <use x="847.558594" xlink:href="#DejaVuSans-48"/>
      <use x="911.181641" xlink:href="#DejaVuSans-41"/>
      <use x="950.195312" xlink:href="#DejaVuSans-41"/>
      <use x="989.208984" xlink:href="#DejaVuSans-32"/>
      <use x="1020.996094" xlink:href="#DejaVuSans-42"/>
      <use x="1070.996094" xlink:href="#DejaVuSans-32"/>
      <use x="1102.783203" xlink:href="#DejaVuSans-49"/>
      <use x="1166.40625" xlink:href="#DejaVuSans-48"/>
      <use x="1230.029297" xlink:href="#DejaVuSans-48"/>
      <use x="1293.652344" xlink:href="#DejaVuSans-32"/>
      <use x="1325.439453" xlink:href="#DejaVuSans-61"/>
      <use x="1409.228516" xlink:href="#DejaVuSans-32"/>
      <use x="1441.015625" xlink:href="#DejaVuSans-56"/>
      <use x="1504.638672" xlink:href="#DejaVuSans-49"/>
      <use x="1568.261719" xlink:href="#DejaVuSans-44"/>
      <use x="1600.048828" xlink:href="#DejaVuSans-50"/>
      <use x="1663.671875" xlink:href="#DejaVuSans-53"/>
     </g>
    </g>
   </g>
   <g id="text_3">
    <g id="patch_11">
     <path clip-path="url(#p44c5280816)" d="M 573.757625 455.324233 
L 680.772653 281.79677 
Q 682.819808 278.477259 679.500296 276.430104 
L 668.791414 269.825897 
Q 665.471903 267.778742 663.424748 271.098253 
L 556.40972 444.625715 
Q 554.362565 447.945227 557.682076 449.992382 
L 568.390959 456.596589 
Q 571.71047 458.643744 573.757625 455.324233 
z
" style="fill:#ffffff;stroke:#ffffff;stroke-linejoin:miter;stroke-width:0.5;"/>
    </g>
    <g clip-path="url(#p44c5280816)">
     <!-- (1 - (1.000/12.500)) * 100 = 92 -->
     <g transform="translate(568.136932 451.85793)rotate(-58.337712)scale(0.13 -0.13)">
      <defs>
       <path d="M 10.984375 1.515625 
L 10.984375 10.5 
Q 14.703125 8.734375 18.5 7.8125 
Q 22.3125 6.890625 25.984375 6.890625 
Q 35.75 6.890625 40.890625 13.453125 
Q 46.046875 20.015625 46.78125 33.40625 
Q 43.953125 29.203125 39.59375 26.953125 
Q 35.25 24.703125 29.984375 24.703125 
Q 19.046875 24.703125 12.671875 31.3125 
Q 6.296875 37.9375 6.296875 49.421875 
Q 6.296875 60.640625 12.9375 67.421875 
Q 19.578125 74.21875 30.609375 74.21875 
Q 43.265625 74.21875 49.921875 64.515625 
Q 56.59375 54.828125 56.59375 36.375 
Q 56.59375 19.140625 48.40625 8.859375 
Q 40.234375 -1.421875 26.421875 -1.421875 
Q 22.703125 -1.421875 18.890625 -0.6875 
Q 15.09375 0.046875 10.984375 1.515625 
z
M 30.609375 32.421875 
Q 37.25 32.421875 41.125 36.953125 
Q 45.015625 41.5 45.015625 49.421875 
Q 45.015625 57.28125 41.125 61.84375 
Q 37.25 66.40625 30.609375 66.40625 
Q 23.96875 66.40625 20.09375 61.84375 
Q 16.21875 57.28125 16.21875 49.421875 
Q 16.21875 41.5 20.09375 36.953125 
Q 23.96875 32.421875 30.609375 32.421875 
z
" id="DejaVuSans-57"/>
      </defs>
      <use xlink:href="#DejaVuSans-40"/>
      <use x="39.013672" xlink:href="#DejaVuSans-49"/>
      <use x="102.636719" xlink:href="#DejaVuSans-32"/>
      <use x="134.423828" xlink:href="#DejaVuSans-45"/>
      <use x="170.507812" xlink:href="#DejaVuSans-32"/>
      <use x="202.294922" xlink:href="#DejaVuSans-40"/>
      <use x="241.308594" xlink:href="#DejaVuSans-49"/>
      <use x="304.931641" xlink:href="#DejaVuSans-46"/>
      <use x="336.71875" xlink:href="#DejaVuSans-48"/>
      <use x="400.341797" xlink:href="#DejaVuSans-48"/>
      <use x="463.964844" xlink:href="#DejaVuSans-48"/>
      <use x="527.587891" xlink:href="#DejaVuSans-47"/>
      <use x="561.279297" xlink:href="#DejaVuSans-49"/>
      <use x="624.902344" xlink:href="#DejaVuSans-50"/>
      <use x="688.525391" xlink:href="#DejaVuSans-46"/>
      <use x="720.3125" xlink:href="#DejaVuSans-53"/>
      <use x="783.935547" xlink:href="#DejaVuSans-48"/>
      <use x="847.558594" xlink:href="#DejaVuSans-48"/>
      <use x="911.181641" xlink:href="#DejaVuSans-41"/>
      <use x="950.195312" xlink:href="#DejaVuSans-41"/>
      <use x="989.208984" xlink:href="#DejaVuSans-32"/>
      <use x="1020.996094" xlink:href="#DejaVuSans-42"/>
      <use x="1070.996094" xlink:href="#DejaVuSans-32"/>
      <use x="1102.783203" xlink:href="#DejaVuSans-49"/>
      <use x="1166.40625" xlink:href="#DejaVuSans-48"/>
      <use x="1230.029297" xlink:href="#DejaVuSans-48"/>
      <use x="1293.652344" xlink:href="#DejaVuSans-32"/>
      <use x="1325.439453" xlink:href="#DejaVuSans-61"/>
      <use x="1409.228516" xlink:href="#DejaVuSans-32"/>
      <use x="1441.015625" xlink:href="#DejaVuSans-57"/>
      <use x="1504.638672" xlink:href="#DejaVuSans-50"/>
     </g>
    </g>
   </g>
   <g id="text_4">
    <g id="patch_12">
     <path clip-path="url(#p44c5280816)" d="M 479.242482 634.388098 
L 522.151886 426.629214 
Q 522.940722 422.809825 519.121332 422.020989 
L 506.799822 419.47617 
Q 502.980432 418.687334 502.191596 422.506723 
L 459.282193 630.265607 
Q 458.493357 634.084997 462.312746 634.873833 
L 474.634256 637.418652 
Q 478.453646 638.207488 479.242482 634.388098 
z
" style="fill:#ffffff;stroke:#ffffff;stroke-linejoin:miter;stroke-width:0.5;"/>
    </g>
    <g clip-path="url(#p44c5280816)">
     <!-- (1 - (12.000/16.000)) * 100 = 25 -->
     <g transform="translate(472.77538 633.052418)rotate(-78.330518)scale(0.13 -0.13)">
      <use xlink:href="#DejaVuSans-40"/>
      <use x="39.013672" xlink:href="#DejaVuSans-49"/>
      <use x="102.636719" xlink:href="#DejaVuSans-32"/>
      <use x="134.423828" xlink:href="#DejaVuSans-45"/>
      <use x="170.507812" xlink:href="#DejaVuSans-32"/>
      <use x="202.294922" xlink:href="#DejaVuSans-40"/>
      <use x="241.308594" xlink:href="#DejaVuSans-49"/>
      <use x="304.931641" xlink:href="#DejaVuSans-50"/>
      <use x="368.554688" xlink:href="#DejaVuSans-46"/>
      <use x="400.341797" xlink:href="#DejaVuSans-48"/>
      <use x="463.964844" xlink:href="#DejaVuSans-48"/>
      <use x="527.587891" xlink:href="#DejaVuSans-48"/>
      <use x="591.210938" xlink:href="#DejaVuSans-47"/>
      <use x="624.902344" xlink:href="#DejaVuSans-49"/>
      <use x="688.525391" xlink:href="#DejaVuSans-54"/>
      <use x="752.148438" xlink:href="#DejaVuSans-46"/>
      <use x="783.935547" xlink:href="#DejaVuSans-48"/>
      <use x="847.558594" xlink:href="#DejaVuSans-48"/>
      <use x="911.181641" xlink:href="#DejaVuSans-48"/>
      <use x="974.804688" xlink:href="#DejaVuSans-41"/>
      <use x="1013.818359" xlink:href="#DejaVuSans-41"/>
      <use x="1052.832031" xlink:href="#DejaVuSans-32"/>
      <use x="1084.619141" xlink:href="#DejaVuSans-42"/>
      <use x="1134.619141" xlink:href="#DejaVuSans-32"/>
      <use x="1166.40625" xlink:href="#DejaVuSans-49"/>
      <use x="1230.029297" xlink:href="#DejaVuSans-48"/>
      <use x="1293.652344" xlink:href="#DejaVuSans-48"/>
      <use x="1357.275391" xlink:href="#DejaVuSans-32"/>
      <use x="1389.0625" xlink:href="#DejaVuSans-61"/>
      <use x="1472.851562" xlink:href="#DejaVuSans-32"/>
      <use x="1504.638672" xlink:href="#DejaVuSans-50"/>
      <use x="1568.261719" xlink:href="#DejaVuSans-53"/>
     </g>
    </g>
   </g>
   <g id="text_5">
    <g id="patch_13">
     <path clip-path="url(#p44c5280816)" d="M 327.32868 93.52688 
L 529.77523 117.597422 
Q 533.647952 118.057882 534.108412 114.18516 
L 535.593875 101.691597 
Q 536.054334 97.818875 532.181612 97.358415 
L 329.735063 73.287873 
Q 325.862341 72.827413 325.401881 76.700135 
L 323.916418 89.193698 
Q 323.455958 93.066421 327.32868 93.52688 
z
" style="fill:#ffffff;stroke:#ffffff;stroke-linejoin:miter;stroke-width:0.5;"/>
    </g>
    <g clip-path="url(#p44c5280816)">
     <!-- (1 - (1.500/12.500)) * 100 = 88 -->
     <g transform="translate(328.108345 86.969474)rotate(-353.219464)scale(0.13 -0.13)">
      <use xlink:href="#DejaVuSans-40"/>
      <use x="39.013672" xlink:href="#DejaVuSans-49"/>
      <use x="102.636719" xlink:href="#DejaVuSans-32"/>
      <use x="134.423828" xlink:href="#DejaVuSans-45"/>
      <use x="170.507812" xlink:href="#DejaVuSans-32"/>
      <use x="202.294922" xlink:href="#DejaVuSans-40"/>
      <use x="241.308594" xlink:href="#DejaVuSans-49"/>
      <use x="304.931641" xlink:href="#DejaVuSans-46"/>
      <use x="336.71875" xlink:href="#DejaVuSans-53"/>
      <use x="400.341797" xlink:href="#DejaVuSans-48"/>
      <use x="463.964844" xlink:href="#DejaVuSans-48"/>
      <use x="527.587891" xlink:href="#DejaVuSans-47"/>
      <use x="561.279297" xlink:href="#DejaVuSans-49"/>
      <use x="624.902344" xlink:href="#DejaVuSans-50"/>
      <use x="688.525391" xlink:href="#DejaVuSans-46"/>
      <use x="720.3125" xlink:href="#DejaVuSans-53"/>
      <use x="783.935547" xlink:href="#DejaVuSans-48"/>
      <use x="847.558594" xlink:href="#DejaVuSans-48"/>
      <use x="911.181641" xlink:href="#DejaVuSans-41"/>
      <use x="950.195312" xlink:href="#DejaVuSans-41"/>
      <use x="989.208984" xlink:href="#DejaVuSans-32"/>
      <use x="1020.996094" xlink:href="#DejaVuSans-42"/>
      <use x="1070.996094" xlink:href="#DejaVuSans-32"/>
      <use x="1102.783203" xlink:href="#DejaVuSans-49"/>
      <use x="1166.40625" xlink:href="#DejaVuSans-48"/>
      <use x="1230.029297" xlink:href="#DejaVuSans-48"/>
      <use x="1293.652344" xlink:href="#DejaVuSans-32"/>
      <use x="1325.439453" xlink:href="#DejaVuSans-61"/>
      <use x="1409.228516" xlink:href="#DejaVuSans-32"/>
      <use x="1441.015625" xlink:href="#DejaVuSans-56"/>
      <use x="1504.638672" xlink:href="#DejaVuSans-56"/>
     </g>
    </g>
   </g>
   <g id="text_6">
    <g id="patch_14">
     <path clip-path="url(#p44c5280816)" d="M 215.737512 187.957146 
L 373.52298 347.722301 
Q 376.263451 350.497155 379.038306 347.756685 
L 387.990103 338.915811 
Q 390.764958 336.17534 388.024487 333.400485 
L 230.239018 173.635331 
Q 227.498547 170.860476 224.723693 173.600947 
L 215.771895 182.44182 
Q 212.997041 185.182291 215.737512 187.957146 
z
" style="fill:#ffffff;stroke:#ffffff;stroke-linejoin:miter;stroke-width:0.5;"/>
    </g>
    <g clip-path="url(#p44c5280816)">
     <!-- (1 - (1.000/16.000)) * 100 = 93,75 -->
     <g transform="translate(220.435977 183.316901)rotate(-314.642809)scale(0.13 -0.13)">
      <use xlink:href="#DejaVuSans-40"/>
      <use x="39.013672" xlink:href="#DejaVuSans-49"/>
      <use x="102.636719" xlink:href="#DejaVuSans-32"/>
      <use x="134.423828" xlink:href="#DejaVuSans-45"/>
      <use x="170.507812" xlink:href="#DejaVuSans-32"/>
      <use x="202.294922" xlink:href="#DejaVuSans-40"/>
      <use x="241.308594" xlink:href="#DejaVuSans-49"/>
      <use x="304.931641" xlink:href="#DejaVuSans-46"/>
      <use x="336.71875" xlink:href="#DejaVuSans-48"/>
      <use x="400.341797" xlink:href="#DejaVuSans-48"/>
      <use x="463.964844" xlink:href="#DejaVuSans-48"/>
      <use x="527.587891" xlink:href="#DejaVuSans-47"/>
      <use x="561.279297" xlink:href="#DejaVuSans-49"/>
      <use x="624.902344" xlink:href="#DejaVuSans-54"/>
      <use x="688.525391" xlink:href="#DejaVuSans-46"/>
      <use x="720.3125" xlink:href="#DejaVuSans-48"/>
      <use x="783.935547" xlink:href="#DejaVuSans-48"/>
      <use x="847.558594" xlink:href="#DejaVuSans-48"/>
      <use x="911.181641" xlink:href="#DejaVuSans-41"/>
      <use x="950.195312" xlink:href="#DejaVuSans-41"/>
      <use x="989.208984" xlink:href="#DejaVuSans-32"/>
      <use x="1020.996094" xlink:href="#DejaVuSans-42"/>
      <use x="1070.996094" xlink:href="#DejaVuSans-32"/>
      <use x="1102.783203" xlink:href="#DejaVuSans-49"/>
      <use x="1166.40625" xlink:href="#DejaVuSans-48"/>
      <use x="1230.029297" xlink:href="#DejaVuSans-48"/>
      <use x="1293.652344" xlink:href="#DejaVuSans-32"/>
      <use x="1325.439453" xlink:href="#DejaVuSans-61"/>
      <use x="1409.228516" xlink:href="#DejaVuSans-32"/>
      <use x="1441.015625" xlink:href="#DejaVuSans-57"/>
      <use x="1504.638672" xlink:href="#DejaVuSans-51"/>
      <use x="1568.261719" xlink:href="#DejaVuSans-44"/>
      <use x="1600.048828" xlink:href="#DejaVuSans-55"/>
      <use x="1663.671875" xlink:href="#DejaVuSans-53"/>
     </g>
    </g>
   </g>
   <g id="text_7">
    <g id="patch_15">
     <path clip-path="url(#p44c5280816)" d="M 577.341296 386.742402 
L 702.115686 225.511673 
Q 704.50257 222.427393 701.41829 220.040509 
L 691.468275 212.34032 
Q 688.383995 209.953435 685.997111 213.037715 
L 561.222721 374.268444 
Q 558.835837 377.352724 561.920117 379.739608 
L 571.870132 387.439797 
Q 574.954412 389.826682 577.341296 386.742402 
z
" style="fill:#ffffff;stroke:#ffffff;stroke-linejoin:miter;stroke-width:0.5;"/>
    </g>
    <g clip-path="url(#p44c5280816)">
     <!-- (1 - (3.000/12.500)) * 100 = 76 -->
     <g transform="translate(572.118904 382.70086)rotate(-52.264173)scale(0.13 -0.13)">
      <use xlink:href="#DejaVuSans-40"/>
      <use x="39.013672" xlink:href="#DejaVuSans-49"/>
      <use x="102.636719" xlink:href="#DejaVuSans-32"/>
      <use x="134.423828" xlink:href="#DejaVuSans-45"/>
      <use x="170.507812" xlink:href="#DejaVuSans-32"/>
      <use x="202.294922" xlink:href="#DejaVuSans-40"/>
      <use x="241.308594" xlink:href="#DejaVuSans-51"/>
      <use x="304.931641" xlink:href="#DejaVuSans-46"/>
      <use x="336.71875" xlink:href="#DejaVuSans-48"/>
      <use x="400.341797" xlink:href="#DejaVuSans-48"/>
      <use x="463.964844" xlink:href="#DejaVuSans-48"/>
      <use x="527.587891" xlink:href="#DejaVuSans-47"/>
      <use x="561.279297" xlink:href="#DejaVuSans-49"/>
      <use x="624.902344" xlink:href="#DejaVuSans-50"/>
      <use x="688.525391" xlink:href="#DejaVuSans-46"/>
      <use x="720.3125" xlink:href="#DejaVuSans-53"/>
      <use x="783.935547" xlink:href="#DejaVuSans-48"/>
      <use x="847.558594" xlink:href="#DejaVuSans-48"/>
      <use x="911.181641" xlink:href="#DejaVuSans-41"/>
      <use x="950.195312" xlink:href="#DejaVuSans-41"/>
      <use x="989.208984" xlink:href="#DejaVuSans-32"/>
      <use x="1020.996094" xlink:href="#DejaVuSans-42"/>
      <use x="1070.996094" xlink:href="#DejaVuSans-32"/>
      <use x="1102.783203" xlink:href="#DejaVuSans-49"/>
      <use x="1166.40625" xlink:href="#DejaVuSans-48"/>
      <use x="1230.029297" xlink:href="#DejaVuSans-48"/>
      <use x="1293.652344" xlink:href="#DejaVuSans-32"/>
      <use x="1325.439453" xlink:href="#DejaVuSans-61"/>
      <use x="1409.228516" xlink:href="#DejaVuSans-32"/>
      <use x="1441.015625" xlink:href="#DejaVuSans-55"/>
      <use x="1504.638672" xlink:href="#DejaVuSans-54"/>
     </g>
    </g>
   </g>
   <g id="PathCollection_1">
    <path clip-path="url(#p44c5280816)" d="M 1052.033058 272.640438 
C 1059.877871 272.640438 1067.402438 269.523661 1072.949559 263.97654 
C 1078.496679 258.429419 1081.613457 250.904853 1081.613457 243.060039 
C 1081.613457 235.215226 1078.496679 227.69066 1072.949559 222.143539 
C 1067.402438 216.596418 1059.877871 213.47964 1052.033058 213.47964 
C 1044.188244 213.47964 1036.663678 216.596418 1031.116557 222.143539 
C 1025.569436 227.69066 1022.452659 235.215226 1022.452659 243.060039 
C 1022.452659 250.904853 1025.569436 258.429419 1031.116557 263.97654 
C 1036.663678 269.523661 1044.188244 272.640438 1052.033058 272.640438 
z
" style="fill:#ff8000;stroke:#ff8000;stroke-width:0.5;"/>
    <path clip-path="url(#p44c5280816)" d="M 759.543351 174.182361 
C 770.026424 174.182361 780.081548 170.017392 787.4942 162.60474 
C 794.906852 155.192088 799.071821 145.136964 799.071821 134.653891 
C 799.071821 124.170818 794.906852 114.115693 787.4942 106.703041 
C 780.081548 99.290389 770.026424 95.12542 759.543351 95.12542 
C 749.060278 95.12542 739.005153 99.290389 731.592501 106.703041 
C 724.179849 114.115693 720.01488 124.170818 720.01488 134.653891 
C 720.01488 145.136964 724.179849 155.192088 731.592501 162.60474 
C 739.005153 170.017392 749.060278 174.182361 759.543351 174.182361 
z
" style="fill:#0080ff;stroke:#0080ff;stroke-width:0.5;"/>
    <path clip-path="url(#p44c5280816)" d="M 477.639022 630.498429 
C 487.910294 630.498429 497.762264 626.417609 505.02515 619.154723 
C 512.288036 611.891837 516.368856 602.039867 516.368856 591.768595 
C 516.368856 581.497323 512.288036 571.645353 505.02515 564.382467 
C 497.762264 557.119581 487.910294 553.038762 477.639022 553.038762 
C 467.36775 553.038762 457.51578 557.119581 450.252894 564.382467 
C 442.990008 571.645353 438.909189 581.497323 438.909189 591.768595 
C 438.909189 602.039867 442.990008 611.891837 450.252894 619.154723 
C 457.51578 626.417609 467.36775 630.498429 477.639022 630.498429 
z
" style="fill:#ff8000;stroke:#ff8000;stroke-width:0.5;"/>
    <path clip-path="url(#p44c5280816)" d="M 99.966942 69.924469 
C 103.598385 69.924469 107.081583 68.481681 109.649401 65.913863 
C 112.217218 63.346045 113.660006 59.862848 113.660006 56.231405 
C 113.660006 52.599962 112.217218 49.116765 109.649401 46.548947 
C 107.081583 43.981129 103.598385 42.538341 99.966942 42.538341 
C 96.335499 42.538341 92.852302 43.981129 90.284484 46.548947 
C 87.716666 49.116765 86.273878 52.599962 86.273878 56.231405 
C 86.273878 59.862848 87.716666 63.346045 90.284484 65.913863 
C 92.852302 68.481681 96.335499 69.924469 99.966942 69.924469 
z
" style="fill:#ff8000;stroke:#ff8000;stroke-width:0.5;"/>
    <path clip-path="url(#p44c5280816)" d="M 503.795056 509.847586 
C 515.655299 509.847586 527.031374 505.135462 535.417833 496.749003 
C 543.804291 488.362545 548.516416 476.98647 548.516416 465.126227 
C 548.516416 453.265983 543.804291 441.889908 535.417833 433.50345 
C 527.031374 425.116992 515.655299 420.404867 503.795056 420.404867 
C 491.934813 420.404867 480.558738 425.116992 472.17228 433.50345 
C 463.785821 441.889908 459.073697 453.265983 459.073697 465.126227 
C 459.073697 476.98647 463.785821 488.362545 472.17228 496.749003 
C 480.558738 505.135462 491.934813 509.847586 503.795056 509.847586 
z
" style="fill:#0080ff;stroke:#0080ff;stroke-width:0.5;"/>
   </g>
   <g id="text_8">
    <g clip-path="url(#p44c5280816)">
     <!-- Autor 1 -->
     <g transform="translate(1029.911808 239.652602)scale(0.12 -0.12)">
      <defs>
       <path d="M 34.1875 63.1875 
L 20.796875 26.90625 
L 47.609375 26.90625 
z
M 28.609375 72.90625 
L 39.796875 72.90625 
L 67.578125 0 
L 57.328125 0 
L 50.6875 18.703125 
L 17.828125 18.703125 
L 11.1875 0 
L 0.78125 0 
z
" id="DejaVuSans-65"/>
       <path d="M 8.5 21.578125 
L 8.5 54.6875 
L 17.484375 54.6875 
L 17.484375 21.921875 
Q 17.484375 14.15625 20.5 10.265625 
Q 23.53125 6.390625 29.59375 6.390625 
Q 36.859375 6.390625 41.078125 11.03125 
Q 45.3125 15.671875 45.3125 23.6875 
L 45.3125 54.6875 
L 54.296875 54.6875 
L 54.296875 0 
L 45.3125 0 
L 45.3125 8.40625 
Q 42.046875 3.421875 37.71875 1 
Q 33.40625 -1.421875 27.6875 -1.421875 
Q 18.265625 -1.421875 13.375 4.4375 
Q 8.5 10.296875 8.5 21.578125 
z
M 31.109375 56 
z
" id="DejaVuSans-117"/>
       <path d="M 18.3125 70.21875 
L 18.3125 54.6875 
L 36.8125 54.6875 
L 36.8125 47.703125 
L 18.3125 47.703125 
L 18.3125 18.015625 
Q 18.3125 11.328125 20.140625 9.421875 
Q 21.96875 7.515625 27.59375 7.515625 
L 36.8125 7.515625 
L 36.8125 0 
L 27.59375 0 
Q 17.1875 0 13.234375 3.875 
Q 9.28125 7.765625 9.28125 18.015625 
L 9.28125 47.703125 
L 2.6875 47.703125 
L 2.6875 54.6875 
L 9.28125 54.6875 
L 9.28125 70.21875 
z
" id="DejaVuSans-116"/>
       <path d="M 30.609375 48.390625 
Q 23.390625 48.390625 19.1875 42.75 
Q 14.984375 37.109375 14.984375 27.296875 
Q 14.984375 17.484375 19.15625 11.84375 
Q 23.34375 6.203125 30.609375 6.203125 
Q 37.796875 6.203125 41.984375 11.859375 
Q 46.1875 17.53125 46.1875 27.296875 
Q 46.1875 37.015625 41.984375 42.703125 
Q 37.796875 48.390625 30.609375 48.390625 
z
M 30.609375 56 
Q 42.328125 56 49.015625 48.375 
Q 55.71875 40.765625 55.71875 27.296875 
Q 55.71875 13.875 49.015625 6.21875 
Q 42.328125 -1.421875 30.609375 -1.421875 
Q 18.84375 -1.421875 12.171875 6.21875 
Q 5.515625 13.875 5.515625 27.296875 
Q 5.515625 40.765625 12.171875 48.375 
Q 18.84375 56 30.609375 56 
z
" id="DejaVuSans-111"/>
       <path d="M 41.109375 46.296875 
Q 39.59375 47.171875 37.8125 47.578125 
Q 36.03125 48 33.890625 48 
Q 26.265625 48 22.1875 43.046875 
Q 18.109375 38.09375 18.109375 28.8125 
L 18.109375 0 
L 9.078125 0 
L 9.078125 54.6875 
L 18.109375 54.6875 
L 18.109375 46.1875 
Q 20.953125 51.171875 25.484375 53.578125 
Q 30.03125 56 36.53125 56 
Q 37.453125 56 38.578125 55.875 
Q 39.703125 55.765625 41.0625 55.515625 
z
" id="DejaVuSans-114"/>
      </defs>
      <use xlink:href="#DejaVuSans-65"/>
      <use x="68.408203" xlink:href="#DejaVuSans-117"/>
      <use x="131.787109" xlink:href="#DejaVuSans-116"/>
      <use x="170.996094" xlink:href="#DejaVuSans-111"/>
      <use x="232.177734" xlink:href="#DejaVuSans-114"/>
      <use x="273.291016" xlink:href="#DejaVuSans-32"/>
      <use x="305.078125" xlink:href="#DejaVuSans-49"/>
     </g>
    </g>
    <g clip-path="url(#p44c5280816)">
     <!-- [7.000] -->
     <g transform="translate(1030.174308 253.089977)scale(0.12 -0.12)">
      <defs>
       <path d="M 8.59375 75.984375 
L 29.296875 75.984375 
L 29.296875 69 
L 17.578125 69 
L 17.578125 -6.203125 
L 29.296875 -6.203125 
L 29.296875 -13.1875 
L 8.59375 -13.1875 
z
" id="DejaVuSans-91"/>
       <path d="M 30.421875 75.984375 
L 30.421875 -13.1875 
L 9.71875 -13.1875 
L 9.71875 -6.203125 
L 21.390625 -6.203125 
L 21.390625 69 
L 9.71875 69 
L 9.71875 75.984375 
z
" id="DejaVuSans-93"/>
      </defs>
      <use xlink:href="#DejaVuSans-91"/>
      <use x="39.013672" xlink:href="#DejaVuSans-55"/>
      <use x="102.636719" xlink:href="#DejaVuSans-46"/>
      <use x="134.423828" xlink:href="#DejaVuSans-48"/>
      <use x="198.046875" xlink:href="#DejaVuSans-48"/>
      <use x="261.669922" xlink:href="#DejaVuSans-48"/>
      <use x="325.292969" xlink:href="#DejaVuSans-93"/>
     </g>
    </g>
   </g>
   <g id="text_9">
    <g clip-path="url(#p44c5280816)">
     <!-- Chat 1 -->
     <g transform="translate(739.797726 131.246453)scale(0.12 -0.12)">
      <defs>
       <path d="M 64.40625 67.28125 
L 64.40625 56.890625 
Q 59.421875 61.53125 53.78125 63.8125 
Q 48.140625 66.109375 41.796875 66.109375 
Q 29.296875 66.109375 22.65625 58.46875 
Q 16.015625 50.828125 16.015625 36.375 
Q 16.015625 21.96875 22.65625 14.328125 
Q 29.296875 6.6875 41.796875 6.6875 
Q 48.140625 6.6875 53.78125 8.984375 
Q 59.421875 11.28125 64.40625 15.921875 
L 64.40625 5.609375 
Q 59.234375 2.09375 53.4375 0.328125 
Q 47.65625 -1.421875 41.21875 -1.421875 
Q 24.65625 -1.421875 15.125 8.703125 
Q 5.609375 18.84375 5.609375 36.375 
Q 5.609375 53.953125 15.125 64.078125 
Q 24.65625 74.21875 41.21875 74.21875 
Q 47.75 74.21875 53.53125 72.484375 
Q 59.328125 70.75 64.40625 67.28125 
z
" id="DejaVuSans-67"/>
       <path d="M 54.890625 33.015625 
L 54.890625 0 
L 45.90625 0 
L 45.90625 32.71875 
Q 45.90625 40.484375 42.875 44.328125 
Q 39.84375 48.1875 33.796875 48.1875 
Q 26.515625 48.1875 22.3125 43.546875 
Q 18.109375 38.921875 18.109375 30.90625 
L 18.109375 0 
L 9.078125 0 
L 9.078125 75.984375 
L 18.109375 75.984375 
L 18.109375 46.1875 
Q 21.34375 51.125 25.703125 53.5625 
Q 30.078125 56 35.796875 56 
Q 45.21875 56 50.046875 50.171875 
Q 54.890625 44.34375 54.890625 33.015625 
z
" id="DejaVuSans-104"/>
       <path d="M 34.28125 27.484375 
Q 23.390625 27.484375 19.1875 25 
Q 14.984375 22.515625 14.984375 16.5 
Q 14.984375 11.71875 18.140625 8.90625 
Q 21.296875 6.109375 26.703125 6.109375 
Q 34.1875 6.109375 38.703125 11.40625 
Q 43.21875 16.703125 43.21875 25.484375 
L 43.21875 27.484375 
z
M 52.203125 31.203125 
L 52.203125 0 
L 43.21875 0 
L 43.21875 8.296875 
Q 40.140625 3.328125 35.546875 0.953125 
Q 30.953125 -1.421875 24.3125 -1.421875 
Q 15.921875 -1.421875 10.953125 3.296875 
Q 6 8.015625 6 15.921875 
Q 6 25.140625 12.171875 29.828125 
Q 18.359375 34.515625 30.609375 34.515625 
L 43.21875 34.515625 
L 43.21875 35.40625 
Q 43.21875 41.609375 39.140625 45 
Q 35.0625 48.390625 27.6875 48.390625 
Q 23 48.390625 18.546875 47.265625 
Q 14.109375 46.140625 10.015625 43.890625 
L 10.015625 52.203125 
Q 14.9375 54.109375 19.578125 55.046875 
Q 24.21875 56 28.609375 56 
Q 40.484375 56 46.34375 49.84375 
Q 52.203125 43.703125 52.203125 31.203125 
z
" id="DejaVuSans-97"/>
      </defs>
      <use xlink:href="#DejaVuSans-67"/>
      <use x="69.824219" xlink:href="#DejaVuSans-104"/>
      <use x="133.203125" xlink:href="#DejaVuSans-97"/>
      <use x="194.482422" xlink:href="#DejaVuSans-116"/>
      <use x="233.691406" xlink:href="#DejaVuSans-32"/>
      <use x="265.478516" xlink:href="#DejaVuSans-49"/>
     </g>
    </g>
    <g clip-path="url(#p44c5280816)">
     <!-- [12.500] -->
     <g transform="translate(733.867101 144.683828)scale(0.12 -0.12)">
      <use xlink:href="#DejaVuSans-91"/>
      <use x="39.013672" xlink:href="#DejaVuSans-49"/>
      <use x="102.636719" xlink:href="#DejaVuSans-50"/>
      <use x="166.259766" xlink:href="#DejaVuSans-46"/>
      <use x="198.046875" xlink:href="#DejaVuSans-53"/>
      <use x="261.669922" xlink:href="#DejaVuSans-48"/>
      <use x="325.292969" xlink:href="#DejaVuSans-48"/>
      <use x="388.916016" xlink:href="#DejaVuSans-93"/>
     </g>
    </g>
   </g>
   <g id="text_10">
    <g clip-path="url(#p44c5280816)">
     <!-- Autor 2 -->
     <g transform="translate(455.517772 588.361158)scale(0.12 -0.12)">
      <use xlink:href="#DejaVuSans-65"/>
      <use x="68.408203" xlink:href="#DejaVuSans-117"/>
      <use x="131.787109" xlink:href="#DejaVuSans-116"/>
      <use x="170.996094" xlink:href="#DejaVuSans-111"/>
      <use x="232.177734" xlink:href="#DejaVuSans-114"/>
      <use x="273.291016" xlink:href="#DejaVuSans-32"/>
      <use x="305.078125" xlink:href="#DejaVuSans-50"/>
     </g>
    </g>
    <g clip-path="url(#p44c5280816)">
     <!-- [12.000] -->
     <g transform="translate(451.962772 601.798533)scale(0.12 -0.12)">
      <use xlink:href="#DejaVuSans-91"/>
      <use x="39.013672" xlink:href="#DejaVuSans-49"/>
      <use x="102.636719" xlink:href="#DejaVuSans-50"/>
      <use x="166.259766" xlink:href="#DejaVuSans-46"/>
      <use x="198.046875" xlink:href="#DejaVuSans-48"/>
      <use x="261.669922" xlink:href="#DejaVuSans-48"/>
      <use x="325.292969" xlink:href="#DejaVuSans-48"/>
      <use x="388.916016" xlink:href="#DejaVuSans-93"/>
     </g>
    </g>
   </g>
   <g id="text_11">
    <g clip-path="url(#p44c5280816)">
     <!-- Autor 3 -->
     <g transform="translate(77.845692 52.823967)scale(0.12 -0.12)">
      <use xlink:href="#DejaVuSans-65"/>
      <use x="68.408203" xlink:href="#DejaVuSans-117"/>
      <use x="131.787109" xlink:href="#DejaVuSans-116"/>
      <use x="170.996094" xlink:href="#DejaVuSans-111"/>
      <use x="232.177734" xlink:href="#DejaVuSans-114"/>
      <use x="273.291016" xlink:href="#DejaVuSans-32"/>
      <use x="305.078125" xlink:href="#DejaVuSans-51"/>
     </g>
    </g>
    <g clip-path="url(#p44c5280816)">
     <!-- [1.500] -->
     <g transform="translate(78.108192 66.261342)scale(0.12 -0.12)">
      <use xlink:href="#DejaVuSans-91"/>
      <use x="39.013672" xlink:href="#DejaVuSans-49"/>
      <use x="102.636719" xlink:href="#DejaVuSans-46"/>
      <use x="134.423828" xlink:href="#DejaVuSans-53"/>
      <use x="198.046875" xlink:href="#DejaVuSans-48"/>
      <use x="261.669922" xlink:href="#DejaVuSans-48"/>
      <use x="325.292969" xlink:href="#DejaVuSans-93"/>
     </g>
    </g>
   </g>
   <g id="text_12">
    <g clip-path="url(#p44c5280816)">
     <!-- Chat 2 -->
     <g transform="translate(484.049431 461.718789)scale(0.12 -0.12)">
      <use xlink:href="#DejaVuSans-67"/>
      <use x="69.824219" xlink:href="#DejaVuSans-104"/>
      <use x="133.203125" xlink:href="#DejaVuSans-97"/>
      <use x="194.482422" xlink:href="#DejaVuSans-116"/>
      <use x="233.691406" xlink:href="#DejaVuSans-32"/>
      <use x="265.478516" xlink:href="#DejaVuSans-50"/>
     </g>
    </g>
    <g clip-path="url(#p44c5280816)">
     <!-- [16.000] -->
     <g transform="translate(478.118806 475.156164)scale(0.12 -0.12)">
      <use xlink:href="#DejaVuSans-91"/>
      <use x="39.013672" xlink:href="#DejaVuSans-49"/>
      <use x="102.636719" xlink:href="#DejaVuSans-54"/>
      <use x="166.259766" xlink:href="#DejaVuSans-46"/>
      <use x="198.046875" xlink:href="#DejaVuSans-48"/>
      <use x="261.669922" xlink:href="#DejaVuSans-48"/>
      <use x="325.292969" xlink:href="#DejaVuSans-48"/>
      <use x="388.916016" xlink:href="#DejaVuSans-93"/>
     </g>
    </g>
   </g>
  </g>
 </g>
 <defs>
  <clipPath id="p44c5280816">
   <rect height="648" width="1152" x="0" y="0"/>
  </clipPath>
 </defs>
</svg>
