<?xml version="1.0" encoding="utf-8" standalone="no"?>
<!DOCTYPE svg PUBLIC "-//W3C//DTD SVG 1.1//EN"
  "http://www.w3.org/Graphics/SVG/1.1/DTD/svg11.dtd">
<!-- Created with matplotlib (https://matplotlib.org/) -->
<svg height="648pt" version="1.1" viewBox="0 0 1152 648" width="1152pt" xmlns="http://www.w3.org/2000/svg" xmlns:xlink="http://www.w3.org/1999/xlink">
 <metadata>
  <rdf:RDF xmlns:cc="http://creativecommons.org/ns#" xmlns:dc="http://purl.org/dc/elements/1.1/" xmlns:rdf="http://www.w3.org/1999/02/22-rdf-syntax-ns#">
   <cc:Work>
    <dc:type rdf:resource="http://purl.org/dc/dcmitype/StillImage"/>
    <dc:date>2021-03-28T10:55:43.624806</dc:date>
    <dc:format>image/svg+xml</dc:format>
    <dc:creator>
     <cc:Agent>
      <dc:title>Matplotlib v3.3.4, https://matplotlib.org/</dc:title>
     </cc:Agent>
    </dc:creator>
   </cc:Work>
  </rdf:RDF>
 </metadata>
 <defs>
  <style type="text/css">*{stroke-linecap:butt;stroke-linejoin:round;}</style>
 </defs>
 <g id="figure_1">
  <g id="patch_1">
   <path d="M 0 648 
L 1152 648 
L 1152 0 
L 0 0 
z
" style="fill:#ffffff;"/>
  </g>
  <g id="axes_1">
   <g id="patch_2">
    <path d="M 144 518.4 
L 1036.8 518.4 
L 1036.8 77.76 
L 144 77.76 
z
" style="fill:#e5e5e5;"/>
   </g>
   <g id="matplotlib.axis_1">
    <g id="xtick_1">
     <g id="line2d_1">
      <path clip-path="url(#p65291f375e)" d="M 228.88951 518.4 
L 228.88951 77.76 
" style="fill:none;stroke:#ffffff;stroke-linecap:square;stroke-width:0.8;"/>
     </g>
     <g id="line2d_2">
      <defs>
       <path d="M 0 0 
L 0 3.5 
" id="mdf068136a9" style="stroke:#555555;stroke-width:0.8;"/>
      </defs>
      <g>
       <use style="fill:#555555;stroke:#555555;stroke-width:0.8;" x="228.88951" xlink:href="#mdf068136a9" y="518.4"/>
      </g>
     </g>
     <g id="text_1">
      <!-- 2019-01 -->
      <g style="fill:#555555;" transform="translate(180.497243 561.1134)rotate(-30)scale(0.13 -0.13)">
       <defs>
        <path d="M 19.1875 8.296875 
L 53.609375 8.296875 
L 53.609375 0 
L 7.328125 0 
L 7.328125 8.296875 
Q 12.9375 14.109375 22.625 23.890625 
Q 32.328125 33.6875 34.8125 36.53125 
Q 39.546875 41.84375 41.421875 45.53125 
Q 43.3125 49.21875 43.3125 52.78125 
Q 43.3125 58.59375 39.234375 62.25 
Q 35.15625 65.921875 28.609375 65.921875 
Q 23.96875 65.921875 18.8125 64.3125 
Q 13.671875 62.703125 7.8125 59.421875 
L 7.8125 69.390625 
Q 13.765625 71.78125 18.9375 73 
Q 24.125 74.21875 28.421875 74.21875 
Q 39.75 74.21875 46.484375 68.546875 
Q 53.21875 62.890625 53.21875 53.421875 
Q 53.21875 48.921875 51.53125 44.890625 
Q 49.859375 40.875 45.40625 35.40625 
Q 44.1875 33.984375 37.640625 27.21875 
Q 31.109375 20.453125 19.1875 8.296875 
z
" id="DejaVuSans-50"/>
        <path d="M 31.78125 66.40625 
Q 24.171875 66.40625 20.328125 58.90625 
Q 16.5 51.421875 16.5 36.375 
Q 16.5 21.390625 20.328125 13.890625 
Q 24.171875 6.390625 31.78125 6.390625 
Q 39.453125 6.390625 43.28125 13.890625 
Q 47.125 21.390625 47.125 36.375 
Q 47.125 51.421875 43.28125 58.90625 
Q 39.453125 66.40625 31.78125 66.40625 
z
M 31.78125 74.21875 
Q 44.046875 74.21875 50.515625 64.515625 
Q 56.984375 54.828125 56.984375 36.375 
Q 56.984375 17.96875 50.515625 8.265625 
Q 44.046875 -1.421875 31.78125 -1.421875 
Q 19.53125 -1.421875 13.0625 8.265625 
Q 6.59375 17.96875 6.59375 36.375 
Q 6.59375 54.828125 13.0625 64.515625 
Q 19.53125 74.21875 31.78125 74.21875 
z
" id="DejaVuSans-48"/>
        <path d="M 12.40625 8.296875 
L 28.515625 8.296875 
L 28.515625 63.921875 
L 10.984375 60.40625 
L 10.984375 69.390625 
L 28.421875 72.90625 
L 38.28125 72.90625 
L 38.28125 8.296875 
L 54.390625 8.296875 
L 54.390625 0 
L 12.40625 0 
z
" id="DejaVuSans-49"/>
        <path d="M 10.984375 1.515625 
L 10.984375 10.5 
Q 14.703125 8.734375 18.5 7.8125 
Q 22.3125 6.890625 25.984375 6.890625 
Q 35.75 6.890625 40.890625 13.453125 
Q 46.046875 20.015625 46.78125 33.40625 
Q 43.953125 29.203125 39.59375 26.953125 
Q 35.25 24.703125 29.984375 24.703125 
Q 19.046875 24.703125 12.671875 31.3125 
Q 6.296875 37.9375 6.296875 49.421875 
Q 6.296875 60.640625 12.9375 67.421875 
Q 19.578125 74.21875 30.609375 74.21875 
Q 43.265625 74.21875 49.921875 64.515625 
Q 56.59375 54.828125 56.59375 36.375 
Q 56.59375 19.140625 48.40625 8.859375 
Q 40.234375 -1.421875 26.421875 -1.421875 
Q 22.703125 -1.421875 18.890625 -0.6875 
Q 15.09375 0.046875 10.984375 1.515625 
z
M 30.609375 32.421875 
Q 37.25 32.421875 41.125 36.953125 
Q 45.015625 41.5 45.015625 49.421875 
Q 45.015625 57.28125 41.125 61.84375 
Q 37.25 66.40625 30.609375 66.40625 
Q 23.96875 66.40625 20.09375 61.84375 
Q 16.21875 57.28125 16.21875 49.421875 
Q 16.21875 41.5 20.09375 36.953125 
Q 23.96875 32.421875 30.609375 32.421875 
z
" id="DejaVuSans-57"/>
        <path d="M 4.890625 31.390625 
L 31.203125 31.390625 
L 31.203125 23.390625 
L 4.890625 23.390625 
z
" id="DejaVuSans-45"/>
       </defs>
       <use xlink:href="#DejaVuSans-50"/>
       <use x="63.623047" xlink:href="#DejaVuSans-48"/>
       <use x="127.246094" xlink:href="#DejaVuSans-49"/>
       <use x="190.869141" xlink:href="#DejaVuSans-57"/>
       <use x="254.492188" xlink:href="#DejaVuSans-45"/>
       <use x="290.576172" xlink:href="#DejaVuSans-48"/>
       <use x="354.199219" xlink:href="#DejaVuSans-49"/>
      </g>
     </g>
    </g>
    <g id="xtick_2">
     <g id="line2d_3">
      <path clip-path="url(#p65291f375e)" d="M 319.518881 518.4 
L 319.518881 77.76 
" style="fill:none;stroke:#ffffff;stroke-linecap:square;stroke-width:0.8;"/>
     </g>
     <g id="line2d_4">
      <g>
       <use style="fill:#555555;stroke:#555555;stroke-width:0.8;" x="319.518881" xlink:href="#mdf068136a9" y="518.4"/>
      </g>
     </g>
     <g id="text_2">
      <!-- 2019-04 -->
      <g style="fill:#555555;" transform="translate(271.126614 561.1134)rotate(-30)scale(0.13 -0.13)">
       <defs>
        <path d="M 37.796875 64.3125 
L 12.890625 25.390625 
L 37.796875 25.390625 
z
M 35.203125 72.90625 
L 47.609375 72.90625 
L 47.609375 25.390625 
L 58.015625 25.390625 
L 58.015625 17.1875 
L 47.609375 17.1875 
L 47.609375 0 
L 37.796875 0 
L 37.796875 17.1875 
L 4.890625 17.1875 
L 4.890625 26.703125 
z
" id="DejaVuSans-52"/>
       </defs>
       <use xlink:href="#DejaVuSans-50"/>
       <use x="63.623047" xlink:href="#DejaVuSans-48"/>
       <use x="127.246094" xlink:href="#DejaVuSans-49"/>
       <use x="190.869141" xlink:href="#DejaVuSans-57"/>
       <use x="254.492188" xlink:href="#DejaVuSans-45"/>
       <use x="290.576172" xlink:href="#DejaVuSans-48"/>
       <use x="354.199219" xlink:href="#DejaVuSans-52"/>
      </g>
     </g>
    </g>
    <g id="xtick_3">
     <g id="line2d_5">
      <path clip-path="url(#p65291f375e)" d="M 411.155245 518.4 
L 411.155245 77.76 
" style="fill:none;stroke:#ffffff;stroke-linecap:square;stroke-width:0.8;"/>
     </g>
     <g id="line2d_6">
      <g>
       <use style="fill:#555555;stroke:#555555;stroke-width:0.8;" x="411.155245" xlink:href="#mdf068136a9" y="518.4"/>
      </g>
     </g>
     <g id="text_3">
      <!-- 2019-07 -->
      <g style="fill:#555555;" transform="translate(362.762978 561.1134)rotate(-30)scale(0.13 -0.13)">
       <defs>
        <path d="M 8.203125 72.90625 
L 55.078125 72.90625 
L 55.078125 68.703125 
L 28.609375 0 
L 18.3125 0 
L 43.21875 64.59375 
L 8.203125 64.59375 
z
" id="DejaVuSans-55"/>
       </defs>
       <use xlink:href="#DejaVuSans-50"/>
       <use x="63.623047" xlink:href="#DejaVuSans-48"/>
       <use x="127.246094" xlink:href="#DejaVuSans-49"/>
       <use x="190.869141" xlink:href="#DejaVuSans-57"/>
       <use x="254.492188" xlink:href="#DejaVuSans-45"/>
       <use x="290.576172" xlink:href="#DejaVuSans-48"/>
       <use x="354.199219" xlink:href="#DejaVuSans-55"/>
      </g>
     </g>
    </g>
    <g id="xtick_4">
     <g id="line2d_7">
      <path clip-path="url(#p65291f375e)" d="M 503.798601 518.4 
L 503.798601 77.76 
" style="fill:none;stroke:#ffffff;stroke-linecap:square;stroke-width:0.8;"/>
     </g>
     <g id="line2d_8">
      <g>
       <use style="fill:#555555;stroke:#555555;stroke-width:0.8;" x="503.798601" xlink:href="#mdf068136a9" y="518.4"/>
      </g>
     </g>
     <g id="text_4">
      <!-- 2019-10 -->
      <g style="fill:#555555;" transform="translate(455.406334 561.1134)rotate(-30)scale(0.13 -0.13)">
       <use xlink:href="#DejaVuSans-50"/>
       <use x="63.623047" xlink:href="#DejaVuSans-48"/>
       <use x="127.246094" xlink:href="#DejaVuSans-49"/>
       <use x="190.869141" xlink:href="#DejaVuSans-57"/>
       <use x="254.492188" xlink:href="#DejaVuSans-45"/>
       <use x="290.576172" xlink:href="#DejaVuSans-49"/>
       <use x="354.199219" xlink:href="#DejaVuSans-48"/>
      </g>
     </g>
    </g>
    <g id="xtick_5">
     <g id="line2d_9">
      <path clip-path="url(#p65291f375e)" d="M 596.441958 518.4 
L 596.441958 77.76 
" style="fill:none;stroke:#ffffff;stroke-linecap:square;stroke-width:0.8;"/>
     </g>
     <g id="line2d_10">
      <g>
       <use style="fill:#555555;stroke:#555555;stroke-width:0.8;" x="596.441958" xlink:href="#mdf068136a9" y="518.4"/>
      </g>
     </g>
     <g id="text_5">
      <!-- 2020-01 -->
      <g style="fill:#555555;" transform="translate(548.049691 561.1134)rotate(-30)scale(0.13 -0.13)">
       <use xlink:href="#DejaVuSans-50"/>
       <use x="63.623047" xlink:href="#DejaVuSans-48"/>
       <use x="127.246094" xlink:href="#DejaVuSans-50"/>
       <use x="190.869141" xlink:href="#DejaVuSans-48"/>
       <use x="254.492188" xlink:href="#DejaVuSans-45"/>
       <use x="290.576172" xlink:href="#DejaVuSans-48"/>
       <use x="354.199219" xlink:href="#DejaVuSans-49"/>
      </g>
     </g>
    </g>
    <g id="xtick_6">
     <g id="line2d_11">
      <path clip-path="url(#p65291f375e)" d="M 688.078322 518.4 
L 688.078322 77.76 
" style="fill:none;stroke:#ffffff;stroke-linecap:square;stroke-width:0.8;"/>
     </g>
     <g id="line2d_12">
      <g>
       <use style="fill:#555555;stroke:#555555;stroke-width:0.8;" x="688.078322" xlink:href="#mdf068136a9" y="518.4"/>
      </g>
     </g>
     <g id="text_6">
      <!-- 2020-04 -->
      <g style="fill:#555555;" transform="translate(639.686055 561.1134)rotate(-30)scale(0.13 -0.13)">
       <use xlink:href="#DejaVuSans-50"/>
       <use x="63.623047" xlink:href="#DejaVuSans-48"/>
       <use x="127.246094" xlink:href="#DejaVuSans-50"/>
       <use x="190.869141" xlink:href="#DejaVuSans-48"/>
       <use x="254.492188" xlink:href="#DejaVuSans-45"/>
       <use x="290.576172" xlink:href="#DejaVuSans-48"/>
       <use x="354.199219" xlink:href="#DejaVuSans-52"/>
      </g>
     </g>
    </g>
    <g id="xtick_7">
     <g id="line2d_13">
      <path clip-path="url(#p65291f375e)" d="M 779.714685 518.4 
L 779.714685 77.76 
" style="fill:none;stroke:#ffffff;stroke-linecap:square;stroke-width:0.8;"/>
     </g>
     <g id="line2d_14">
      <g>
       <use style="fill:#555555;stroke:#555555;stroke-width:0.8;" x="779.714685" xlink:href="#mdf068136a9" y="518.4"/>
      </g>
     </g>
     <g id="text_7">
      <!-- 2020-07 -->
      <g style="fill:#555555;" transform="translate(731.322418 561.1134)rotate(-30)scale(0.13 -0.13)">
       <use xlink:href="#DejaVuSans-50"/>
       <use x="63.623047" xlink:href="#DejaVuSans-48"/>
       <use x="127.246094" xlink:href="#DejaVuSans-50"/>
       <use x="190.869141" xlink:href="#DejaVuSans-48"/>
       <use x="254.492188" xlink:href="#DejaVuSans-45"/>
       <use x="290.576172" xlink:href="#DejaVuSans-48"/>
       <use x="354.199219" xlink:href="#DejaVuSans-55"/>
      </g>
     </g>
    </g>
    <g id="xtick_8">
     <g id="line2d_15">
      <path clip-path="url(#p65291f375e)" d="M 872.358042 518.4 
L 872.358042 77.76 
" style="fill:none;stroke:#ffffff;stroke-linecap:square;stroke-width:0.8;"/>
     </g>
     <g id="line2d_16">
      <g>
       <use style="fill:#555555;stroke:#555555;stroke-width:0.8;" x="872.358042" xlink:href="#mdf068136a9" y="518.4"/>
      </g>
     </g>
     <g id="text_8">
      <!-- 2020-10 -->
      <g style="fill:#555555;" transform="translate(823.965775 561.1134)rotate(-30)scale(0.13 -0.13)">
       <use xlink:href="#DejaVuSans-50"/>
       <use x="63.623047" xlink:href="#DejaVuSans-48"/>
       <use x="127.246094" xlink:href="#DejaVuSans-50"/>
       <use x="190.869141" xlink:href="#DejaVuSans-48"/>
       <use x="254.492188" xlink:href="#DejaVuSans-45"/>
       <use x="290.576172" xlink:href="#DejaVuSans-49"/>
       <use x="354.199219" xlink:href="#DejaVuSans-48"/>
      </g>
     </g>
    </g>
    <g id="xtick_9">
     <g id="line2d_17">
      <path clip-path="url(#p65291f375e)" d="M 965.001399 518.4 
L 965.001399 77.76 
" style="fill:none;stroke:#ffffff;stroke-linecap:square;stroke-width:0.8;"/>
     </g>
     <g id="line2d_18">
      <g>
       <use style="fill:#555555;stroke:#555555;stroke-width:0.8;" x="965.001399" xlink:href="#mdf068136a9" y="518.4"/>
      </g>
     </g>
     <g id="text_9">
      <!-- 2021-01 -->
      <g style="fill:#555555;" transform="translate(916.609132 561.1134)rotate(-30)scale(0.13 -0.13)">
       <use xlink:href="#DejaVuSans-50"/>
       <use x="63.623047" xlink:href="#DejaVuSans-48"/>
       <use x="127.246094" xlink:href="#DejaVuSans-50"/>
       <use x="190.869141" xlink:href="#DejaVuSans-49"/>
       <use x="254.492188" xlink:href="#DejaVuSans-45"/>
       <use x="290.576172" xlink:href="#DejaVuSans-48"/>
       <use x="354.199219" xlink:href="#DejaVuSans-49"/>
      </g>
     </g>
    </g>
   </g>
   <g id="matplotlib.axis_2">
    <g id="ytick_1">
     <g id="line2d_19">
      <path clip-path="url(#p65291f375e)" d="M 144 498.370909 
L 1036.8 498.370909 
" style="fill:none;stroke:#ffffff;stroke-linecap:square;stroke-width:0.8;"/>
     </g>
     <g id="line2d_20">
      <defs>
       <path d="M 0 0 
L -3.5 0 
" id="md0c8efd5d4" style="stroke:#555555;stroke-width:0.8;"/>
      </defs>
      <g>
       <use style="fill:#555555;stroke:#555555;stroke-width:0.8;" x="144" xlink:href="#md0c8efd5d4" y="498.370909"/>
      </g>
     </g>
     <g id="text_10">
      <!-- 0 -->
      <g style="fill:#555555;" transform="translate(128.72875 503.309893)scale(0.13 -0.13)">
       <use xlink:href="#DejaVuSans-48"/>
      </g>
     </g>
    </g>
    <g id="ytick_2">
     <g id="line2d_21">
      <path clip-path="url(#p65291f375e)" d="M 144 409.807745 
L 1036.8 409.807745 
" style="fill:none;stroke:#ffffff;stroke-linecap:square;stroke-width:0.8;"/>
     </g>
     <g id="line2d_22">
      <g>
       <use style="fill:#555555;stroke:#555555;stroke-width:0.8;" x="144" xlink:href="#md0c8efd5d4" y="409.807745"/>
      </g>
     </g>
     <g id="text_11">
      <!-- 50000 -->
      <g style="fill:#555555;" transform="translate(95.64375 414.74673)scale(0.13 -0.13)">
       <defs>
        <path d="M 10.796875 72.90625 
L 49.515625 72.90625 
L 49.515625 64.59375 
L 19.828125 64.59375 
L 19.828125 46.734375 
Q 21.96875 47.46875 24.109375 47.828125 
Q 26.265625 48.1875 28.421875 48.1875 
Q 40.625 48.1875 47.75 41.5 
Q 54.890625 34.8125 54.890625 23.390625 
Q 54.890625 11.625 47.5625 5.09375 
Q 40.234375 -1.421875 26.90625 -1.421875 
Q 22.3125 -1.421875 17.546875 -0.640625 
Q 12.796875 0.140625 7.71875 1.703125 
L 7.71875 11.625 
Q 12.109375 9.234375 16.796875 8.0625 
Q 21.484375 6.890625 26.703125 6.890625 
Q 35.15625 6.890625 40.078125 11.328125 
Q 45.015625 15.765625 45.015625 23.390625 
Q 45.015625 31 40.078125 35.4375 
Q 35.15625 39.890625 26.703125 39.890625 
Q 22.75 39.890625 18.8125 39.015625 
Q 14.890625 38.140625 10.796875 36.28125 
z
" id="DejaVuSans-53"/>
       </defs>
       <use xlink:href="#DejaVuSans-53"/>
       <use x="63.623047" xlink:href="#DejaVuSans-48"/>
       <use x="127.246094" xlink:href="#DejaVuSans-48"/>
       <use x="190.869141" xlink:href="#DejaVuSans-48"/>
       <use x="254.492188" xlink:href="#DejaVuSans-48"/>
      </g>
     </g>
    </g>
    <g id="ytick_3">
     <g id="line2d_23">
      <path clip-path="url(#p65291f375e)" d="M 144 321.244581 
L 1036.8 321.244581 
" style="fill:none;stroke:#ffffff;stroke-linecap:square;stroke-width:0.8;"/>
     </g>
     <g id="line2d_24">
      <g>
       <use style="fill:#555555;stroke:#555555;stroke-width:0.8;" x="144" xlink:href="#md0c8efd5d4" y="321.244581"/>
      </g>
     </g>
     <g id="text_12">
      <!-- 100000 -->
      <g style="fill:#555555;" transform="translate(87.3725 326.183566)scale(0.13 -0.13)">
       <use xlink:href="#DejaVuSans-49"/>
       <use x="63.623047" xlink:href="#DejaVuSans-48"/>
       <use x="127.246094" xlink:href="#DejaVuSans-48"/>
       <use x="190.869141" xlink:href="#DejaVuSans-48"/>
       <use x="254.492188" xlink:href="#DejaVuSans-48"/>
       <use x="318.115234" xlink:href="#DejaVuSans-48"/>
      </g>
     </g>
    </g>
    <g id="ytick_4">
     <g id="line2d_25">
      <path clip-path="url(#p65291f375e)" d="M 144 232.681417 
L 1036.8 232.681417 
" style="fill:none;stroke:#ffffff;stroke-linecap:square;stroke-width:0.8;"/>
     </g>
     <g id="line2d_26">
      <g>
       <use style="fill:#555555;stroke:#555555;stroke-width:0.8;" x="144" xlink:href="#md0c8efd5d4" y="232.681417"/>
      </g>
     </g>
     <g id="text_13">
      <!-- 150000 -->
      <g style="fill:#555555;" transform="translate(87.3725 237.620402)scale(0.13 -0.13)">
       <use xlink:href="#DejaVuSans-49"/>
       <use x="63.623047" xlink:href="#DejaVuSans-53"/>
       <use x="127.246094" xlink:href="#DejaVuSans-48"/>
       <use x="190.869141" xlink:href="#DejaVuSans-48"/>
       <use x="254.492188" xlink:href="#DejaVuSans-48"/>
       <use x="318.115234" xlink:href="#DejaVuSans-48"/>
      </g>
     </g>
    </g>
    <g id="ytick_5">
     <g id="line2d_27">
      <path clip-path="url(#p65291f375e)" d="M 144 144.118253 
L 1036.8 144.118253 
" style="fill:none;stroke:#ffffff;stroke-linecap:square;stroke-width:0.8;"/>
     </g>
     <g id="line2d_28">
      <g>
       <use style="fill:#555555;stroke:#555555;stroke-width:0.8;" x="144" xlink:href="#md0c8efd5d4" y="144.118253"/>
      </g>
     </g>
     <g id="text_14">
      <!-- 200000 -->
      <g style="fill:#555555;" transform="translate(87.3725 149.057238)scale(0.13 -0.13)">
       <use xlink:href="#DejaVuSans-50"/>
       <use x="63.623047" xlink:href="#DejaVuSans-48"/>
       <use x="127.246094" xlink:href="#DejaVuSans-48"/>
       <use x="190.869141" xlink:href="#DejaVuSans-48"/>
       <use x="254.492188" xlink:href="#DejaVuSans-48"/>
       <use x="318.115234" xlink:href="#DejaVuSans-48"/>
      </g>
     </g>
    </g>
   </g>
   <g id="LineCollection_1">
    <path clip-path="url(#p65291f375e)" d="M 206.735664 498.370909 
L 206.735664 97.789091 
" style="fill:none;stroke:#ffa500;stroke-dasharray:5.55,2.4;stroke-dashoffset:0;stroke-width:1.5;"/>
   </g>
   <g id="LineCollection_2">
    <path clip-path="url(#p65291f375e)" d="M 622.623776 498.370909 
L 622.623776 97.789091 
" style="fill:none;stroke:#808080;stroke-dasharray:5.55,2.4;stroke-dashoffset:0;stroke-width:1.5;"/>
   </g>
   <g id="LineCollection_3">
    <path clip-path="url(#p65291f375e)" d="M 678.008392 498.370909 
L 678.008392 97.789091 
" style="fill:none;stroke:#800080;stroke-dasharray:5.55,2.4;stroke-dashoffset:0;stroke-width:1.5;"/>
   </g>
   <g id="LineCollection_4">
    <path clip-path="url(#p65291f375e)" d="M 904.581818 498.370909 
L 904.581818 97.789091 
" style="fill:none;stroke:#800080;stroke-dasharray:5.55,2.4;stroke-dashoffset:0;stroke-width:1.5;"/>
   </g>
   <g id="LineCollection_5">
    <path clip-path="url(#p65291f375e)" d="M 948.88951 498.370909 
L 948.88951 97.789091 
" style="fill:none;stroke:#800080;stroke-dasharray:5.55,2.4;stroke-dashoffset:0;stroke-width:1.5;"/>
   </g>
   <g id="line2d_29">
    <path clip-path="url(#p65291f375e)" d="M 736.413986 493.188193 
L 738.427972 486.811645 
L 739.434965 484.200803 
L 742.455944 469.143294 
L 743.462937 464.282947 
L 745.476923 457.323654 
L 747.490909 446.260343 
L 749.504895 437.816731 
L 750.511888 431.929052 
L 752.525874 422.913322 
L 753.532867 418.299181 
L 754.53986 412.365449 
L 755.546853 407.947919 
L 756.553846 404.06531 
L 759.574825 391.468085 
L 760.581818 390.323849 
L 763.602797 386.094072 
L 764.60979 383.194514 
L 765.616783 381.162875 
L 766.623776 378.328854 
L 767.630769 375.838458 
L 769.644755 369.943694 
L 770.651748 366.863467 
L 771.658741 364.557282 
L 772.665734 362.566382 
L 773.672727 360.974017 
L 774.67972 359.693393 
L 776.693706 358.026634 
L 780.721678 354.71083 
L 783.742657 352.914769 
L 784.74965 351.813043 
L 786.763636 350.498765 
L 788.777622 349.099467 
L 789.784615 348.42993 
L 790.791608 348.080991 
L 791.798601 347.471677 
L 792.805594 346.444344 
L 794.81958 343.190533 
L 795.826573 341.401557 
L 796.833566 340.023514 
L 798.847552 337.56323 
L 802.875524 332.267153 
L 804.88951 330.949333 
L 805.896503 329.59963 
L 807.91049 327.571534 
L 809.924476 325.763074 
L 810.931469 324.739284 
L 811.938462 320.504193 
L 812.945455 317.634747 
L 814.959441 314.761758 
L 823.015385 303.26803 
L 829.057343 297.37858 
L 830.064336 295.699422 
L 831.071329 294.558729 
L 835.099301 290.936495 
L 836.106294 289.42915 
L 838.12028 284.515666 
L 839.127273 282.498197 
L 840.134266 277.857487 
L 843.155245 270.109982 
L 846.176224 264.140824 
L 851.211189 255.745036 
L 852.218182 253.768307 
L 855.239161 249.637721 
L 856.246154 248.250821 
L 859.267133 243.617197 
L 861.281119 240.891223 
L 863.295105 238.528357 
L 867.323077 233.508597 
L 873.365035 226.524506 
L 879.406993 220.700592 
L 880.413986 219.342033 
L 883.434965 215.751683 
L 892.497902 203.416605 
L 894.511888 200.164566 
L 896.525874 197.452762 
L 898.53986 194.151127 
L 899.546853 192.333811 
L 902.567832 186.194612 
L 909.616783 174.155336 
L 912.637762 169.459717 
L 915.658741 164.815465 
L 920.693706 156.572005 
L 922.707692 152.685854 
L 926.735664 147.237448 
L 929.756643 143.551449 
L 930.763636 142.481606 
L 933.784615 139.700723 
L 942.847552 130.656652 
L 944.861538 128.001529 
L 945.868531 126.795298 
L 948.88951 122.399023 
L 951.91049 118.309176 
L 954.931469 114.426567 
L 956.945455 112.044218 
L 957.952448 111.096592 
L 962.987413 105.325816 
L 963.994406 103.979656 
L 967.015385 100.644367 
L 969.029371 98.200024 
L 970.036364 97.789091 
L 996.218182 97.789091 
L 996.218182 97.789091 
" style="fill:none;stroke:#e24a33;stroke-linecap:square;stroke-width:1.5;"/>
   </g>
   <g id="line2d_30">
    <path clip-path="url(#p65291f375e)" d="M 827.043357 497.246157 
L 828.05035 496.95567 
L 829.057343 496.548279 
L 830.064336 496.380009 
L 831.071329 495.317251 
L 832.078322 495.053333 
L 833.085315 494.307631 
L 834.092308 493.925038 
L 835.099301 493.315724 
L 836.106294 492.523969 
L 838.12028 490.626946 
L 839.127273 490.285092 
L 841.141259 488.699812 
L 842.148252 488.232198 
L 844.162238 487.502438 
L 845.169231 487.024197 
L 853.225175 484.994329 
L 856.246154 484.149436 
L 857.253147 483.899688 
L 859.267133 483.008743 
L 860.274126 481.14006 
L 861.281119 480.477607 
L 862.288112 479.618545 
L 863.295105 478.957864 
L 865.309091 476.632195 
L 866.316084 475.890036 
L 867.323077 474.953037 
L 868.33007 473.569681 
L 869.337063 472.482125 
L 870.344056 470.898616 
L 872.358042 468.510953 
L 873.365035 467.113426 
L 874.372028 466.357097 
L 875.379021 465.388216 
L 876.386014 464.688567 
L 877.393007 463.446911 
L 879.406993 459.652865 
L 880.413986 458.067584 
L 881.420979 454.966102 
L 882.427972 452.482791 
L 884.441958 444.822078 
L 886.455944 438.089506 
L 888.46993 425.835907 
L 889.476923 423.258718 
L 890.483916 421.069437 
L 892.497902 417.884706 
L 893.504895 415.780445 
L 894.511888 414.317381 
L 897.532867 407.101255 
L 898.53986 404.699422 
L 899.546853 402.90159 
L 900.553846 400.558208 
L 901.560839 397.506322 
L 905.588811 390.575368 
L 907.602797 384.191736 
L 908.60979 381.414395 
L 909.616783 376.653239 
L 910.623776 373.015064 
L 912.637762 366.534012 
L 913.644755 363.019826 
L 916.665734 354.663005 
L 917.672727 352.470182 
L 918.67972 350.872502 
L 919.686713 349.048101 
L 920.693706 346.991664 
L 921.700699 345.516202 
L 927.742657 339.692288 
L 929.756643 338.062726 
L 932.777622 336.587264 
L 934.791608 335.48908 
L 943.854545 332.352173 
L 945.868531 331.934155 
L 949.896503 330.788148 
L 950.903497 328.326092 
L 951.91049 327.968297 
L 952.917483 327.729176 
L 953.924476 327.188941 
L 954.931469 326.792178 
L 955.938462 326.021678 
L 956.945455 325.759531 
L 958.959441 325.019143 
L 960.973427 324.388573 
L 961.98042 323.522426 
L 965.001399 319.960415 
L 969.029371 318.398161 
L 971.043357 318.309598 
L 996.218182 318.309598 
L 996.218182 318.309598 
" style="fill:none;stroke:#348abd;stroke-linecap:square;stroke-width:1.5;"/>
   </g>
   <g id="line2d_31">
    <path clip-path="url(#p65291f375e)" d="M 184.581818 498.369138 
L 203.714685 498.262862 
L 212.777622 498.20441 
L 457.476923 497.883812 
L 520.917483 497.777536 
L 567.239161 497.641149 
L 600.46993 497.478192 
L 695.127273 496.589018 
L 718.288112 496.294989 
L 721.309091 496.174543 
L 751.518881 495.538659 
L 771.658741 495.079902 
L 800.861538 494.612288 
L 812.945455 494.339514 
L 825.029371 493.680604 
L 828.05035 493.413143 
L 836.106294 493.035864 
L 839.127273 492.685154 
L 840.134266 492.345071 
L 843.155245 492.082924 
L 853.225175 491.585199 
L 857.253147 491.365563 
L 867.323077 491.018395 
L 869.337063 490.862524 
L 874.372028 490.657058 
L 877.393007 490.403767 
L 882.427972 490.18413 
L 885.448951 490.01586 
L 895.518881 489.610241 
L 903.574825 489.263073 
L 935.798601 488.294192 
L 977.085315 487.530778 
L 996.218182 487.530778 
L 996.218182 487.530778 
" style="fill:none;stroke:#988ed5;stroke-linecap:square;stroke-width:1.5;"/>
   </g>
   <g id="patch_3">
    <path d="M 144 518.4 
L 144 77.76 
" style="fill:none;stroke:#ffffff;stroke-linecap:square;stroke-linejoin:miter;"/>
   </g>
   <g id="patch_4">
    <path d="M 1036.8 518.4 
L 1036.8 77.76 
" style="fill:none;stroke:#ffffff;stroke-linecap:square;stroke-linejoin:miter;"/>
   </g>
   <g id="patch_5">
    <path d="M 144 518.4 
L 1036.8 518.4 
" style="fill:none;stroke:#ffffff;stroke-linecap:square;stroke-linejoin:miter;"/>
   </g>
   <g id="patch_6">
    <path d="M 144 77.76 
L 1036.8 77.76 
" style="fill:none;stroke:#ffffff;stroke-linecap:square;stroke-linejoin:miter;"/>
   </g>
   <g id="legend_1">
    <g id="patch_7">
     <path d="M 153.1 240.8125 
L 493.78125 240.8125 
Q 496.38125 240.8125 496.38125 238.2125 
L 496.38125 86.86 
Q 496.38125 84.26 493.78125 84.26 
L 153.1 84.26 
Q 150.5 84.26 150.5 86.86 
L 150.5 238.2125 
Q 150.5 240.8125 153.1 240.8125 
z
" style="fill:#e5e5e5;opacity:0.8;stroke:#cccccc;stroke-linejoin:miter;stroke-width:0.5;"/>
    </g>
    <g id="line2d_32">
     <path d="M 155.7 94.787969 
L 181.7 94.787969 
" style="fill:none;stroke:#e24a33;stroke-linecap:square;stroke-width:1.5;"/>
    </g>
    <g id="line2d_33"/>
    <g id="text_15">
     <!-- FREIHEITSCHAT -->
     <g transform="translate(192.1 99.337969)scale(0.13 -0.13)">
      <defs>
       <path d="M 9.8125 72.90625 
L 51.703125 72.90625 
L 51.703125 64.59375 
L 19.671875 64.59375 
L 19.671875 43.109375 
L 48.578125 43.109375 
L 48.578125 34.8125 
L 19.671875 34.8125 
L 19.671875 0 
L 9.8125 0 
z
" id="DejaVuSans-70"/>
       <path d="M 44.390625 34.1875 
Q 47.5625 33.109375 50.5625 29.59375 
Q 53.5625 26.078125 56.59375 19.921875 
L 66.609375 0 
L 56 0 
L 46.6875 18.703125 
Q 43.0625 26.03125 39.671875 28.421875 
Q 36.28125 30.8125 30.421875 30.8125 
L 19.671875 30.8125 
L 19.671875 0 
L 9.8125 0 
L 9.8125 72.90625 
L 32.078125 72.90625 
Q 44.578125 72.90625 50.734375 67.671875 
Q 56.890625 62.453125 56.890625 51.90625 
Q 56.890625 45.015625 53.6875 40.46875 
Q 50.484375 35.9375 44.390625 34.1875 
z
M 19.671875 64.796875 
L 19.671875 38.921875 
L 32.078125 38.921875 
Q 39.203125 38.921875 42.84375 42.21875 
Q 46.484375 45.515625 46.484375 51.90625 
Q 46.484375 58.296875 42.84375 61.546875 
Q 39.203125 64.796875 32.078125 64.796875 
z
" id="DejaVuSans-82"/>
       <path d="M 9.8125 72.90625 
L 55.90625 72.90625 
L 55.90625 64.59375 
L 19.671875 64.59375 
L 19.671875 43.015625 
L 54.390625 43.015625 
L 54.390625 34.71875 
L 19.671875 34.71875 
L 19.671875 8.296875 
L 56.78125 8.296875 
L 56.78125 0 
L 9.8125 0 
z
" id="DejaVuSans-69"/>
       <path d="M 9.8125 72.90625 
L 19.671875 72.90625 
L 19.671875 0 
L 9.8125 0 
z
" id="DejaVuSans-73"/>
       <path d="M 9.8125 72.90625 
L 19.671875 72.90625 
L 19.671875 43.015625 
L 55.515625 43.015625 
L 55.515625 72.90625 
L 65.375 72.90625 
L 65.375 0 
L 55.515625 0 
L 55.515625 34.71875 
L 19.671875 34.71875 
L 19.671875 0 
L 9.8125 0 
z
" id="DejaVuSans-72"/>
       <path d="M -0.296875 72.90625 
L 61.375 72.90625 
L 61.375 64.59375 
L 35.5 64.59375 
L 35.5 0 
L 25.59375 0 
L 25.59375 64.59375 
L -0.296875 64.59375 
z
" id="DejaVuSans-84"/>
       <path d="M 53.515625 70.515625 
L 53.515625 60.890625 
Q 47.90625 63.578125 42.921875 64.890625 
Q 37.9375 66.21875 33.296875 66.21875 
Q 25.25 66.21875 20.875 63.09375 
Q 16.5 59.96875 16.5 54.203125 
Q 16.5 49.359375 19.40625 46.890625 
Q 22.3125 44.4375 30.421875 42.921875 
L 36.375 41.703125 
Q 47.40625 39.59375 52.65625 34.296875 
Q 57.90625 29 57.90625 20.125 
Q 57.90625 9.515625 50.796875 4.046875 
Q 43.703125 -1.421875 29.984375 -1.421875 
Q 24.8125 -1.421875 18.96875 -0.25 
Q 13.140625 0.921875 6.890625 3.21875 
L 6.890625 13.375 
Q 12.890625 10.015625 18.65625 8.296875 
Q 24.421875 6.59375 29.984375 6.59375 
Q 38.421875 6.59375 43.015625 9.90625 
Q 47.609375 13.234375 47.609375 19.390625 
Q 47.609375 24.75 44.3125 27.78125 
Q 41.015625 30.8125 33.5 32.328125 
L 27.484375 33.5 
Q 16.453125 35.6875 11.515625 40.375 
Q 6.59375 45.0625 6.59375 53.421875 
Q 6.59375 63.09375 13.40625 68.65625 
Q 20.21875 74.21875 32.171875 74.21875 
Q 37.3125 74.21875 42.625 73.28125 
Q 47.953125 72.359375 53.515625 70.515625 
z
" id="DejaVuSans-83"/>
       <path d="M 64.40625 67.28125 
L 64.40625 56.890625 
Q 59.421875 61.53125 53.78125 63.8125 
Q 48.140625 66.109375 41.796875 66.109375 
Q 29.296875 66.109375 22.65625 58.46875 
Q 16.015625 50.828125 16.015625 36.375 
Q 16.015625 21.96875 22.65625 14.328125 
Q 29.296875 6.6875 41.796875 6.6875 
Q 48.140625 6.6875 53.78125 8.984375 
Q 59.421875 11.28125 64.40625 15.921875 
L 64.40625 5.609375 
Q 59.234375 2.09375 53.4375 0.328125 
Q 47.65625 -1.421875 41.21875 -1.421875 
Q 24.65625 -1.421875 15.125 8.703125 
Q 5.609375 18.84375 5.609375 36.375 
Q 5.609375 53.953125 15.125 64.078125 
Q 24.65625 74.21875 41.21875 74.21875 
Q 47.75 74.21875 53.53125 72.484375 
Q 59.328125 70.75 64.40625 67.28125 
z
" id="DejaVuSans-67"/>
       <path d="M 34.1875 63.1875 
L 20.796875 26.90625 
L 47.609375 26.90625 
z
M 28.609375 72.90625 
L 39.796875 72.90625 
L 67.578125 0 
L 57.328125 0 
L 50.6875 18.703125 
L 17.828125 18.703125 
L 11.1875 0 
L 0.78125 0 
z
" id="DejaVuSans-65"/>
      </defs>
      <use xlink:href="#DejaVuSans-70"/>
      <use x="57.519531" xlink:href="#DejaVuSans-82"/>
      <use x="127.001953" xlink:href="#DejaVuSans-69"/>
      <use x="190.185547" xlink:href="#DejaVuSans-73"/>
      <use x="219.677734" xlink:href="#DejaVuSans-72"/>
      <use x="294.873047" xlink:href="#DejaVuSans-69"/>
      <use x="358.056641" xlink:href="#DejaVuSans-73"/>
      <use x="387.548828" xlink:href="#DejaVuSans-84"/>
      <use x="448.632812" xlink:href="#DejaVuSans-83"/>
      <use x="512.109375" xlink:href="#DejaVuSans-67"/>
      <use x="581.933594" xlink:href="#DejaVuSans-72"/>
      <use x="657.128906" xlink:href="#DejaVuSans-65"/>
      <use x="717.787109" xlink:href="#DejaVuSans-84"/>
     </g>
    </g>
    <g id="line2d_34">
     <path d="M 155.7 113.869531 
L 181.7 113.869531 
" style="fill:none;stroke:#348abd;stroke-linecap:square;stroke-width:1.5;"/>
    </g>
    <g id="line2d_35"/>
    <g id="text_16">
     <!-- FREIHEITSCHAT  BLITZ -->
     <g transform="translate(192.1 118.419531)scale(0.13 -0.13)">
      <defs>
       <path id="DejaVuSans-32"/>
       <path d="M 19.671875 34.8125 
L 19.671875 8.109375 
L 35.5 8.109375 
Q 43.453125 8.109375 47.28125 11.40625 
Q 51.125 14.703125 51.125 21.484375 
Q 51.125 28.328125 47.28125 31.5625 
Q 43.453125 34.8125 35.5 34.8125 
z
M 19.671875 64.796875 
L 19.671875 42.828125 
L 34.28125 42.828125 
Q 41.5 42.828125 45.03125 45.53125 
Q 48.578125 48.25 48.578125 53.8125 
Q 48.578125 59.328125 45.03125 62.0625 
Q 41.5 64.796875 34.28125 64.796875 
z
M 9.8125 72.90625 
L 35.015625 72.90625 
Q 46.296875 72.90625 52.390625 68.21875 
Q 58.5 63.53125 58.5 54.890625 
Q 58.5 48.1875 55.375 44.234375 
Q 52.25 40.28125 46.1875 39.3125 
Q 53.46875 37.75 57.5 32.78125 
Q 61.53125 27.828125 61.53125 20.40625 
Q 61.53125 10.640625 54.890625 5.3125 
Q 48.25 0 35.984375 0 
L 9.8125 0 
z
" id="DejaVuSans-66"/>
       <path d="M 9.8125 72.90625 
L 19.671875 72.90625 
L 19.671875 8.296875 
L 55.171875 8.296875 
L 55.171875 0 
L 9.8125 0 
z
" id="DejaVuSans-76"/>
       <path d="M 5.609375 72.90625 
L 62.890625 72.90625 
L 62.890625 65.375 
L 16.796875 8.296875 
L 64.015625 8.296875 
L 64.015625 0 
L 4.5 0 
L 4.5 7.515625 
L 50.59375 64.59375 
L 5.609375 64.59375 
z
" id="DejaVuSans-90"/>
      </defs>
      <use xlink:href="#DejaVuSans-70"/>
      <use x="57.519531" xlink:href="#DejaVuSans-82"/>
      <use x="127.001953" xlink:href="#DejaVuSans-69"/>
      <use x="190.185547" xlink:href="#DejaVuSans-73"/>
      <use x="219.677734" xlink:href="#DejaVuSans-72"/>
      <use x="294.873047" xlink:href="#DejaVuSans-69"/>
      <use x="358.056641" xlink:href="#DejaVuSans-73"/>
      <use x="387.548828" xlink:href="#DejaVuSans-84"/>
      <use x="448.632812" xlink:href="#DejaVuSans-83"/>
      <use x="512.109375" xlink:href="#DejaVuSans-67"/>
      <use x="581.933594" xlink:href="#DejaVuSans-72"/>
      <use x="657.128906" xlink:href="#DejaVuSans-65"/>
      <use x="717.787109" xlink:href="#DejaVuSans-84"/>
      <use x="778.871094" xlink:href="#DejaVuSans-32"/>
      <use x="810.658203" xlink:href="#DejaVuSans-32"/>
      <use x="842.445312" xlink:href="#DejaVuSans-66"/>
      <use x="911.048828" xlink:href="#DejaVuSans-76"/>
      <use x="966.761719" xlink:href="#DejaVuSans-73"/>
      <use x="996.253906" xlink:href="#DejaVuSans-84"/>
      <use x="1057.337891" xlink:href="#DejaVuSans-90"/>
     </g>
    </g>
    <g id="line2d_36">
     <path d="M 155.7 132.951094 
L 181.7 132.951094 
" style="fill:none;stroke:#988ed5;stroke-linecap:square;stroke-width:1.5;"/>
    </g>
    <g id="line2d_37"/>
    <g id="text_17">
     <!-- Livestreaming fuer Deutschland -->
     <g transform="translate(192.1 137.501094)scale(0.13 -0.13)">
      <defs>
       <path d="M 9.421875 54.6875 
L 18.40625 54.6875 
L 18.40625 0 
L 9.421875 0 
z
M 9.421875 75.984375 
L 18.40625 75.984375 
L 18.40625 64.59375 
L 9.421875 64.59375 
z
" id="DejaVuSans-105"/>
       <path d="M 2.984375 54.6875 
L 12.5 54.6875 
L 29.59375 8.796875 
L 46.6875 54.6875 
L 56.203125 54.6875 
L 35.6875 0 
L 23.484375 0 
z
" id="DejaVuSans-118"/>
       <path d="M 56.203125 29.59375 
L 56.203125 25.203125 
L 14.890625 25.203125 
Q 15.484375 15.921875 20.484375 11.0625 
Q 25.484375 6.203125 34.421875 6.203125 
Q 39.59375 6.203125 44.453125 7.46875 
Q 49.3125 8.734375 54.109375 11.28125 
L 54.109375 2.78125 
Q 49.265625 0.734375 44.1875 -0.34375 
Q 39.109375 -1.421875 33.890625 -1.421875 
Q 20.796875 -1.421875 13.15625 6.1875 
Q 5.515625 13.8125 5.515625 26.8125 
Q 5.515625 40.234375 12.765625 48.109375 
Q 20.015625 56 32.328125 56 
Q 43.359375 56 49.78125 48.890625 
Q 56.203125 41.796875 56.203125 29.59375 
z
M 47.21875 32.234375 
Q 47.125 39.59375 43.09375 43.984375 
Q 39.0625 48.390625 32.421875 48.390625 
Q 24.90625 48.390625 20.390625 44.140625 
Q 15.875 39.890625 15.1875 32.171875 
z
" id="DejaVuSans-101"/>
       <path d="M 44.28125 53.078125 
L 44.28125 44.578125 
Q 40.484375 46.53125 36.375 47.5 
Q 32.28125 48.484375 27.875 48.484375 
Q 21.1875 48.484375 17.84375 46.4375 
Q 14.5 44.390625 14.5 40.28125 
Q 14.5 37.15625 16.890625 35.375 
Q 19.28125 33.59375 26.515625 31.984375 
L 29.59375 31.296875 
Q 39.15625 29.25 43.1875 25.515625 
Q 47.21875 21.78125 47.21875 15.09375 
Q 47.21875 7.46875 41.1875 3.015625 
Q 35.15625 -1.421875 24.609375 -1.421875 
Q 20.21875 -1.421875 15.453125 -0.5625 
Q 10.6875 0.296875 5.421875 2 
L 5.421875 11.28125 
Q 10.40625 8.6875 15.234375 7.390625 
Q 20.0625 6.109375 24.8125 6.109375 
Q 31.15625 6.109375 34.5625 8.28125 
Q 37.984375 10.453125 37.984375 14.40625 
Q 37.984375 18.0625 35.515625 20.015625 
Q 33.0625 21.96875 24.703125 23.78125 
L 21.578125 24.515625 
Q 13.234375 26.265625 9.515625 29.90625 
Q 5.8125 33.546875 5.8125 39.890625 
Q 5.8125 47.609375 11.28125 51.796875 
Q 16.75 56 26.8125 56 
Q 31.78125 56 36.171875 55.265625 
Q 40.578125 54.546875 44.28125 53.078125 
z
" id="DejaVuSans-115"/>
       <path d="M 18.3125 70.21875 
L 18.3125 54.6875 
L 36.8125 54.6875 
L 36.8125 47.703125 
L 18.3125 47.703125 
L 18.3125 18.015625 
Q 18.3125 11.328125 20.140625 9.421875 
Q 21.96875 7.515625 27.59375 7.515625 
L 36.8125 7.515625 
L 36.8125 0 
L 27.59375 0 
Q 17.1875 0 13.234375 3.875 
Q 9.28125 7.765625 9.28125 18.015625 
L 9.28125 47.703125 
L 2.6875 47.703125 
L 2.6875 54.6875 
L 9.28125 54.6875 
L 9.28125 70.21875 
z
" id="DejaVuSans-116"/>
       <path d="M 41.109375 46.296875 
Q 39.59375 47.171875 37.8125 47.578125 
Q 36.03125 48 33.890625 48 
Q 26.265625 48 22.1875 43.046875 
Q 18.109375 38.09375 18.109375 28.8125 
L 18.109375 0 
L 9.078125 0 
L 9.078125 54.6875 
L 18.109375 54.6875 
L 18.109375 46.1875 
Q 20.953125 51.171875 25.484375 53.578125 
Q 30.03125 56 36.53125 56 
Q 37.453125 56 38.578125 55.875 
Q 39.703125 55.765625 41.0625 55.515625 
z
" id="DejaVuSans-114"/>
       <path d="M 34.28125 27.484375 
Q 23.390625 27.484375 19.1875 25 
Q 14.984375 22.515625 14.984375 16.5 
Q 14.984375 11.71875 18.140625 8.90625 
Q 21.296875 6.109375 26.703125 6.109375 
Q 34.1875 6.109375 38.703125 11.40625 
Q 43.21875 16.703125 43.21875 25.484375 
L 43.21875 27.484375 
z
M 52.203125 31.203125 
L 52.203125 0 
L 43.21875 0 
L 43.21875 8.296875 
Q 40.140625 3.328125 35.546875 0.953125 
Q 30.953125 -1.421875 24.3125 -1.421875 
Q 15.921875 -1.421875 10.953125 3.296875 
Q 6 8.015625 6 15.921875 
Q 6 25.140625 12.171875 29.828125 
Q 18.359375 34.515625 30.609375 34.515625 
L 43.21875 34.515625 
L 43.21875 35.40625 
Q 43.21875 41.609375 39.140625 45 
Q 35.0625 48.390625 27.6875 48.390625 
Q 23 48.390625 18.546875 47.265625 
Q 14.109375 46.140625 10.015625 43.890625 
L 10.015625 52.203125 
Q 14.9375 54.109375 19.578125 55.046875 
Q 24.21875 56 28.609375 56 
Q 40.484375 56 46.34375 49.84375 
Q 52.203125 43.703125 52.203125 31.203125 
z
" id="DejaVuSans-97"/>
       <path d="M 52 44.1875 
Q 55.375 50.25 60.0625 53.125 
Q 64.75 56 71.09375 56 
Q 79.640625 56 84.28125 50.015625 
Q 88.921875 44.046875 88.921875 33.015625 
L 88.921875 0 
L 79.890625 0 
L 79.890625 32.71875 
Q 79.890625 40.578125 77.09375 44.375 
Q 74.3125 48.1875 68.609375 48.1875 
Q 61.625 48.1875 57.5625 43.546875 
Q 53.515625 38.921875 53.515625 30.90625 
L 53.515625 0 
L 44.484375 0 
L 44.484375 32.71875 
Q 44.484375 40.625 41.703125 44.40625 
Q 38.921875 48.1875 33.109375 48.1875 
Q 26.21875 48.1875 22.15625 43.53125 
Q 18.109375 38.875 18.109375 30.90625 
L 18.109375 0 
L 9.078125 0 
L 9.078125 54.6875 
L 18.109375 54.6875 
L 18.109375 46.1875 
Q 21.1875 51.21875 25.484375 53.609375 
Q 29.78125 56 35.6875 56 
Q 41.65625 56 45.828125 52.96875 
Q 50 49.953125 52 44.1875 
z
" id="DejaVuSans-109"/>
       <path d="M 54.890625 33.015625 
L 54.890625 0 
L 45.90625 0 
L 45.90625 32.71875 
Q 45.90625 40.484375 42.875 44.328125 
Q 39.84375 48.1875 33.796875 48.1875 
Q 26.515625 48.1875 22.3125 43.546875 
Q 18.109375 38.921875 18.109375 30.90625 
L 18.109375 0 
L 9.078125 0 
L 9.078125 54.6875 
L 18.109375 54.6875 
L 18.109375 46.1875 
Q 21.34375 51.125 25.703125 53.5625 
Q 30.078125 56 35.796875 56 
Q 45.21875 56 50.046875 50.171875 
Q 54.890625 44.34375 54.890625 33.015625 
z
" id="DejaVuSans-110"/>
       <path d="M 45.40625 27.984375 
Q 45.40625 37.75 41.375 43.109375 
Q 37.359375 48.484375 30.078125 48.484375 
Q 22.859375 48.484375 18.828125 43.109375 
Q 14.796875 37.75 14.796875 27.984375 
Q 14.796875 18.265625 18.828125 12.890625 
Q 22.859375 7.515625 30.078125 7.515625 
Q 37.359375 7.515625 41.375 12.890625 
Q 45.40625 18.265625 45.40625 27.984375 
z
M 54.390625 6.78125 
Q 54.390625 -7.171875 48.1875 -13.984375 
Q 42 -20.796875 29.203125 -20.796875 
Q 24.46875 -20.796875 20.265625 -20.09375 
Q 16.0625 -19.390625 12.109375 -17.921875 
L 12.109375 -9.1875 
Q 16.0625 -11.328125 19.921875 -12.34375 
Q 23.78125 -13.375 27.78125 -13.375 
Q 36.625 -13.375 41.015625 -8.765625 
Q 45.40625 -4.15625 45.40625 5.171875 
L 45.40625 9.625 
Q 42.625 4.78125 38.28125 2.390625 
Q 33.9375 0 27.875 0 
Q 17.828125 0 11.671875 7.65625 
Q 5.515625 15.328125 5.515625 27.984375 
Q 5.515625 40.671875 11.671875 48.328125 
Q 17.828125 56 27.875 56 
Q 33.9375 56 38.28125 53.609375 
Q 42.625 51.21875 45.40625 46.390625 
L 45.40625 54.6875 
L 54.390625 54.6875 
z
" id="DejaVuSans-103"/>
       <path d="M 37.109375 75.984375 
L 37.109375 68.5 
L 28.515625 68.5 
Q 23.6875 68.5 21.796875 66.546875 
Q 19.921875 64.59375 19.921875 59.515625 
L 19.921875 54.6875 
L 34.71875 54.6875 
L 34.71875 47.703125 
L 19.921875 47.703125 
L 19.921875 0 
L 10.890625 0 
L 10.890625 47.703125 
L 2.296875 47.703125 
L 2.296875 54.6875 
L 10.890625 54.6875 
L 10.890625 58.5 
Q 10.890625 67.625 15.140625 71.796875 
Q 19.390625 75.984375 28.609375 75.984375 
z
" id="DejaVuSans-102"/>
       <path d="M 8.5 21.578125 
L 8.5 54.6875 
L 17.484375 54.6875 
L 17.484375 21.921875 
Q 17.484375 14.15625 20.5 10.265625 
Q 23.53125 6.390625 29.59375 6.390625 
Q 36.859375 6.390625 41.078125 11.03125 
Q 45.3125 15.671875 45.3125 23.6875 
L 45.3125 54.6875 
L 54.296875 54.6875 
L 54.296875 0 
L 45.3125 0 
L 45.3125 8.40625 
Q 42.046875 3.421875 37.71875 1 
Q 33.40625 -1.421875 27.6875 -1.421875 
Q 18.265625 -1.421875 13.375 4.4375 
Q 8.5 10.296875 8.5 21.578125 
z
M 31.109375 56 
z
" id="DejaVuSans-117"/>
       <path d="M 19.671875 64.796875 
L 19.671875 8.109375 
L 31.59375 8.109375 
Q 46.6875 8.109375 53.6875 14.9375 
Q 60.6875 21.78125 60.6875 36.53125 
Q 60.6875 51.171875 53.6875 57.984375 
Q 46.6875 64.796875 31.59375 64.796875 
z
M 9.8125 72.90625 
L 30.078125 72.90625 
Q 51.265625 72.90625 61.171875 64.09375 
Q 71.09375 55.28125 71.09375 36.53125 
Q 71.09375 17.671875 61.125 8.828125 
Q 51.171875 0 30.078125 0 
L 9.8125 0 
z
" id="DejaVuSans-68"/>
       <path d="M 48.78125 52.59375 
L 48.78125 44.1875 
Q 44.96875 46.296875 41.140625 47.34375 
Q 37.3125 48.390625 33.40625 48.390625 
Q 24.65625 48.390625 19.8125 42.84375 
Q 14.984375 37.3125 14.984375 27.296875 
Q 14.984375 17.28125 19.8125 11.734375 
Q 24.65625 6.203125 33.40625 6.203125 
Q 37.3125 6.203125 41.140625 7.25 
Q 44.96875 8.296875 48.78125 10.40625 
L 48.78125 2.09375 
Q 45.015625 0.34375 40.984375 -0.53125 
Q 36.96875 -1.421875 32.421875 -1.421875 
Q 20.0625 -1.421875 12.78125 6.34375 
Q 5.515625 14.109375 5.515625 27.296875 
Q 5.515625 40.671875 12.859375 48.328125 
Q 20.21875 56 33.015625 56 
Q 37.15625 56 41.109375 55.140625 
Q 45.0625 54.296875 48.78125 52.59375 
z
" id="DejaVuSans-99"/>
       <path d="M 54.890625 33.015625 
L 54.890625 0 
L 45.90625 0 
L 45.90625 32.71875 
Q 45.90625 40.484375 42.875 44.328125 
Q 39.84375 48.1875 33.796875 48.1875 
Q 26.515625 48.1875 22.3125 43.546875 
Q 18.109375 38.921875 18.109375 30.90625 
L 18.109375 0 
L 9.078125 0 
L 9.078125 75.984375 
L 18.109375 75.984375 
L 18.109375 46.1875 
Q 21.34375 51.125 25.703125 53.5625 
Q 30.078125 56 35.796875 56 
Q 45.21875 56 50.046875 50.171875 
Q 54.890625 44.34375 54.890625 33.015625 
z
" id="DejaVuSans-104"/>
       <path d="M 9.421875 75.984375 
L 18.40625 75.984375 
L 18.40625 0 
L 9.421875 0 
z
" id="DejaVuSans-108"/>
       <path d="M 45.40625 46.390625 
L 45.40625 75.984375 
L 54.390625 75.984375 
L 54.390625 0 
L 45.40625 0 
L 45.40625 8.203125 
Q 42.578125 3.328125 38.25 0.953125 
Q 33.9375 -1.421875 27.875 -1.421875 
Q 17.96875 -1.421875 11.734375 6.484375 
Q 5.515625 14.40625 5.515625 27.296875 
Q 5.515625 40.1875 11.734375 48.09375 
Q 17.96875 56 27.875 56 
Q 33.9375 56 38.25 53.625 
Q 42.578125 51.265625 45.40625 46.390625 
z
M 14.796875 27.296875 
Q 14.796875 17.390625 18.875 11.75 
Q 22.953125 6.109375 30.078125 6.109375 
Q 37.203125 6.109375 41.296875 11.75 
Q 45.40625 17.390625 45.40625 27.296875 
Q 45.40625 37.203125 41.296875 42.84375 
Q 37.203125 48.484375 30.078125 48.484375 
Q 22.953125 48.484375 18.875 42.84375 
Q 14.796875 37.203125 14.796875 27.296875 
z
" id="DejaVuSans-100"/>
      </defs>
      <use xlink:href="#DejaVuSans-76"/>
      <use x="55.712891" xlink:href="#DejaVuSans-105"/>
      <use x="83.496094" xlink:href="#DejaVuSans-118"/>
      <use x="142.675781" xlink:href="#DejaVuSans-101"/>
      <use x="204.199219" xlink:href="#DejaVuSans-115"/>
      <use x="256.298828" xlink:href="#DejaVuSans-116"/>
      <use x="295.507812" xlink:href="#DejaVuSans-114"/>
      <use x="334.371094" xlink:href="#DejaVuSans-101"/>
      <use x="395.894531" xlink:href="#DejaVuSans-97"/>
      <use x="457.173828" xlink:href="#DejaVuSans-109"/>
      <use x="554.585938" xlink:href="#DejaVuSans-105"/>
      <use x="582.369141" xlink:href="#DejaVuSans-110"/>
      <use x="645.748047" xlink:href="#DejaVuSans-103"/>
      <use x="709.224609" xlink:href="#DejaVuSans-32"/>
      <use x="741.011719" xlink:href="#DejaVuSans-102"/>
      <use x="776.216797" xlink:href="#DejaVuSans-117"/>
      <use x="839.595703" xlink:href="#DejaVuSans-101"/>
      <use x="901.119141" xlink:href="#DejaVuSans-114"/>
      <use x="942.232422" xlink:href="#DejaVuSans-32"/>
      <use x="974.019531" xlink:href="#DejaVuSans-68"/>
      <use x="1051.021484" xlink:href="#DejaVuSans-101"/>
      <use x="1112.544922" xlink:href="#DejaVuSans-117"/>
      <use x="1175.923828" xlink:href="#DejaVuSans-116"/>
      <use x="1215.132812" xlink:href="#DejaVuSans-115"/>
      <use x="1267.232422" xlink:href="#DejaVuSans-99"/>
      <use x="1322.212891" xlink:href="#DejaVuSans-104"/>
      <use x="1385.591797" xlink:href="#DejaVuSans-108"/>
      <use x="1413.375" xlink:href="#DejaVuSans-97"/>
      <use x="1474.654297" xlink:href="#DejaVuSans-110"/>
      <use x="1538.033203" xlink:href="#DejaVuSans-100"/>
     </g>
    </g>
    <g id="line2d_38">
     <path d="M 155.7 152.032656 
L 181.7 152.032656 
" style="fill:none;stroke:#ffa500;stroke-dasharray:5.55,2.4;stroke-dashoffset:0;stroke-width:1.5;"/>
    </g>
    <g id="text_18">
     <!-- Global Compact for Migration (10.12.2018) -->
     <g transform="translate(192.1 156.582656)scale(0.13 -0.13)">
      <defs>
       <path d="M 59.515625 10.40625 
L 59.515625 29.984375 
L 43.40625 29.984375 
L 43.40625 38.09375 
L 69.28125 38.09375 
L 69.28125 6.78125 
Q 63.578125 2.734375 56.6875 0.65625 
Q 49.8125 -1.421875 42 -1.421875 
Q 24.90625 -1.421875 15.25 8.5625 
Q 5.609375 18.5625 5.609375 36.375 
Q 5.609375 54.25 15.25 64.234375 
Q 24.90625 74.21875 42 74.21875 
Q 49.125 74.21875 55.546875 72.453125 
Q 61.96875 70.703125 67.390625 67.28125 
L 67.390625 56.78125 
Q 61.921875 61.421875 55.765625 63.765625 
Q 49.609375 66.109375 42.828125 66.109375 
Q 29.4375 66.109375 22.71875 58.640625 
Q 16.015625 51.171875 16.015625 36.375 
Q 16.015625 21.625 22.71875 14.15625 
Q 29.4375 6.6875 42.828125 6.6875 
Q 48.046875 6.6875 52.140625 7.59375 
Q 56.25 8.5 59.515625 10.40625 
z
" id="DejaVuSans-71"/>
       <path d="M 30.609375 48.390625 
Q 23.390625 48.390625 19.1875 42.75 
Q 14.984375 37.109375 14.984375 27.296875 
Q 14.984375 17.484375 19.15625 11.84375 
Q 23.34375 6.203125 30.609375 6.203125 
Q 37.796875 6.203125 41.984375 11.859375 
Q 46.1875 17.53125 46.1875 27.296875 
Q 46.1875 37.015625 41.984375 42.703125 
Q 37.796875 48.390625 30.609375 48.390625 
z
M 30.609375 56 
Q 42.328125 56 49.015625 48.375 
Q 55.71875 40.765625 55.71875 27.296875 
Q 55.71875 13.875 49.015625 6.21875 
Q 42.328125 -1.421875 30.609375 -1.421875 
Q 18.84375 -1.421875 12.171875 6.21875 
Q 5.515625 13.875 5.515625 27.296875 
Q 5.515625 40.765625 12.171875 48.375 
Q 18.84375 56 30.609375 56 
z
" id="DejaVuSans-111"/>
       <path d="M 48.6875 27.296875 
Q 48.6875 37.203125 44.609375 42.84375 
Q 40.53125 48.484375 33.40625 48.484375 
Q 26.265625 48.484375 22.1875 42.84375 
Q 18.109375 37.203125 18.109375 27.296875 
Q 18.109375 17.390625 22.1875 11.75 
Q 26.265625 6.109375 33.40625 6.109375 
Q 40.53125 6.109375 44.609375 11.75 
Q 48.6875 17.390625 48.6875 27.296875 
z
M 18.109375 46.390625 
Q 20.953125 51.265625 25.265625 53.625 
Q 29.59375 56 35.59375 56 
Q 45.5625 56 51.78125 48.09375 
Q 58.015625 40.1875 58.015625 27.296875 
Q 58.015625 14.40625 51.78125 6.484375 
Q 45.5625 -1.421875 35.59375 -1.421875 
Q 29.59375 -1.421875 25.265625 0.953125 
Q 20.953125 3.328125 18.109375 8.203125 
L 18.109375 0 
L 9.078125 0 
L 9.078125 75.984375 
L 18.109375 75.984375 
z
" id="DejaVuSans-98"/>
       <path d="M 18.109375 8.203125 
L 18.109375 -20.796875 
L 9.078125 -20.796875 
L 9.078125 54.6875 
L 18.109375 54.6875 
L 18.109375 46.390625 
Q 20.953125 51.265625 25.265625 53.625 
Q 29.59375 56 35.59375 56 
Q 45.5625 56 51.78125 48.09375 
Q 58.015625 40.1875 58.015625 27.296875 
Q 58.015625 14.40625 51.78125 6.484375 
Q 45.5625 -1.421875 35.59375 -1.421875 
Q 29.59375 -1.421875 25.265625 0.953125 
Q 20.953125 3.328125 18.109375 8.203125 
z
M 48.6875 27.296875 
Q 48.6875 37.203125 44.609375 42.84375 
Q 40.53125 48.484375 33.40625 48.484375 
Q 26.265625 48.484375 22.1875 42.84375 
Q 18.109375 37.203125 18.109375 27.296875 
Q 18.109375 17.390625 22.1875 11.75 
Q 26.265625 6.109375 33.40625 6.109375 
Q 40.53125 6.109375 44.609375 11.75 
Q 48.6875 17.390625 48.6875 27.296875 
z
" id="DejaVuSans-112"/>
       <path d="M 9.8125 72.90625 
L 24.515625 72.90625 
L 43.109375 23.296875 
L 61.8125 72.90625 
L 76.515625 72.90625 
L 76.515625 0 
L 66.890625 0 
L 66.890625 64.015625 
L 48.09375 14.015625 
L 38.1875 14.015625 
L 19.390625 64.015625 
L 19.390625 0 
L 9.8125 0 
z
" id="DejaVuSans-77"/>
       <path d="M 31 75.875 
Q 24.46875 64.65625 21.28125 53.65625 
Q 18.109375 42.671875 18.109375 31.390625 
Q 18.109375 20.125 21.3125 9.0625 
Q 24.515625 -2 31 -13.1875 
L 23.1875 -13.1875 
Q 15.875 -1.703125 12.234375 9.375 
Q 8.59375 20.453125 8.59375 31.390625 
Q 8.59375 42.28125 12.203125 53.3125 
Q 15.828125 64.359375 23.1875 75.875 
z
" id="DejaVuSans-40"/>
       <path d="M 10.6875 12.40625 
L 21 12.40625 
L 21 0 
L 10.6875 0 
z
" id="DejaVuSans-46"/>
       <path d="M 31.78125 34.625 
Q 24.75 34.625 20.71875 30.859375 
Q 16.703125 27.09375 16.703125 20.515625 
Q 16.703125 13.921875 20.71875 10.15625 
Q 24.75 6.390625 31.78125 6.390625 
Q 38.8125 6.390625 42.859375 10.171875 
Q 46.921875 13.96875 46.921875 20.515625 
Q 46.921875 27.09375 42.890625 30.859375 
Q 38.875 34.625 31.78125 34.625 
z
M 21.921875 38.8125 
Q 15.578125 40.375 12.03125 44.71875 
Q 8.5 49.078125 8.5 55.328125 
Q 8.5 64.0625 14.71875 69.140625 
Q 20.953125 74.21875 31.78125 74.21875 
Q 42.671875 74.21875 48.875 69.140625 
Q 55.078125 64.0625 55.078125 55.328125 
Q 55.078125 49.078125 51.53125 44.71875 
Q 48 40.375 41.703125 38.8125 
Q 48.828125 37.15625 52.796875 32.3125 
Q 56.78125 27.484375 56.78125 20.515625 
Q 56.78125 9.90625 50.3125 4.234375 
Q 43.84375 -1.421875 31.78125 -1.421875 
Q 19.734375 -1.421875 13.25 4.234375 
Q 6.78125 9.90625 6.78125 20.515625 
Q 6.78125 27.484375 10.78125 32.3125 
Q 14.796875 37.15625 21.921875 38.8125 
z
M 18.3125 54.390625 
Q 18.3125 48.734375 21.84375 45.5625 
Q 25.390625 42.390625 31.78125 42.390625 
Q 38.140625 42.390625 41.71875 45.5625 
Q 45.3125 48.734375 45.3125 54.390625 
Q 45.3125 60.0625 41.71875 63.234375 
Q 38.140625 66.40625 31.78125 66.40625 
Q 25.390625 66.40625 21.84375 63.234375 
Q 18.3125 60.0625 18.3125 54.390625 
z
" id="DejaVuSans-56"/>
       <path d="M 8.015625 75.875 
L 15.828125 75.875 
Q 23.140625 64.359375 26.78125 53.3125 
Q 30.421875 42.28125 30.421875 31.390625 
Q 30.421875 20.453125 26.78125 9.375 
Q 23.140625 -1.703125 15.828125 -13.1875 
L 8.015625 -13.1875 
Q 14.5 -2 17.703125 9.0625 
Q 20.90625 20.125 20.90625 31.390625 
Q 20.90625 42.671875 17.703125 53.65625 
Q 14.5 64.65625 8.015625 75.875 
z
" id="DejaVuSans-41"/>
      </defs>
      <use xlink:href="#DejaVuSans-71"/>
      <use x="77.490234" xlink:href="#DejaVuSans-108"/>
      <use x="105.273438" xlink:href="#DejaVuSans-111"/>
      <use x="166.455078" xlink:href="#DejaVuSans-98"/>
      <use x="229.931641" xlink:href="#DejaVuSans-97"/>
      <use x="291.210938" xlink:href="#DejaVuSans-108"/>
      <use x="318.994141" xlink:href="#DejaVuSans-32"/>
      <use x="350.78125" xlink:href="#DejaVuSans-67"/>
      <use x="420.605469" xlink:href="#DejaVuSans-111"/>
      <use x="481.787109" xlink:href="#DejaVuSans-109"/>
      <use x="579.199219" xlink:href="#DejaVuSans-112"/>
      <use x="642.675781" xlink:href="#DejaVuSans-97"/>
      <use x="703.955078" xlink:href="#DejaVuSans-99"/>
      <use x="758.935547" xlink:href="#DejaVuSans-116"/>
      <use x="798.144531" xlink:href="#DejaVuSans-32"/>
      <use x="829.931641" xlink:href="#DejaVuSans-102"/>
      <use x="865.136719" xlink:href="#DejaVuSans-111"/>
      <use x="926.318359" xlink:href="#DejaVuSans-114"/>
      <use x="967.431641" xlink:href="#DejaVuSans-32"/>
      <use x="999.21875" xlink:href="#DejaVuSans-77"/>
      <use x="1085.498047" xlink:href="#DejaVuSans-105"/>
      <use x="1113.28125" xlink:href="#DejaVuSans-103"/>
      <use x="1176.757812" xlink:href="#DejaVuSans-114"/>
      <use x="1217.871094" xlink:href="#DejaVuSans-97"/>
      <use x="1279.150391" xlink:href="#DejaVuSans-116"/>
      <use x="1318.359375" xlink:href="#DejaVuSans-105"/>
      <use x="1346.142578" xlink:href="#DejaVuSans-111"/>
      <use x="1407.324219" xlink:href="#DejaVuSans-110"/>
      <use x="1470.703125" xlink:href="#DejaVuSans-32"/>
      <use x="1502.490234" xlink:href="#DejaVuSans-40"/>
      <use x="1541.503906" xlink:href="#DejaVuSans-49"/>
      <use x="1605.126953" xlink:href="#DejaVuSans-48"/>
      <use x="1668.75" xlink:href="#DejaVuSans-46"/>
      <use x="1700.537109" xlink:href="#DejaVuSans-49"/>
      <use x="1764.160156" xlink:href="#DejaVuSans-50"/>
      <use x="1827.783203" xlink:href="#DejaVuSans-46"/>
      <use x="1859.570312" xlink:href="#DejaVuSans-50"/>
      <use x="1923.193359" xlink:href="#DejaVuSans-48"/>
      <use x="1986.816406" xlink:href="#DejaVuSans-49"/>
      <use x="2050.439453" xlink:href="#DejaVuSans-56"/>
      <use x="2114.0625" xlink:href="#DejaVuSans-41"/>
     </g>
    </g>
    <g id="line2d_39">
     <path d="M 155.7 171.114219 
L 181.7 171.114219 
" style="fill:none;stroke:#808080;stroke-dasharray:5.55,2.4;stroke-dashoffset:0;stroke-width:1.5;"/>
    </g>
    <g id="text_19">
     <!-- COVID-19 Patient Zero Germany (27.01.2020) -->
     <g transform="translate(192.1 175.664219)scale(0.13 -0.13)">
      <defs>
       <path d="M 39.40625 66.21875 
Q 28.65625 66.21875 22.328125 58.203125 
Q 16.015625 50.203125 16.015625 36.375 
Q 16.015625 22.609375 22.328125 14.59375 
Q 28.65625 6.59375 39.40625 6.59375 
Q 50.140625 6.59375 56.421875 14.59375 
Q 62.703125 22.609375 62.703125 36.375 
Q 62.703125 50.203125 56.421875 58.203125 
Q 50.140625 66.21875 39.40625 66.21875 
z
M 39.40625 74.21875 
Q 54.734375 74.21875 63.90625 63.9375 
Q 73.09375 53.65625 73.09375 36.375 
Q 73.09375 19.140625 63.90625 8.859375 
Q 54.734375 -1.421875 39.40625 -1.421875 
Q 24.03125 -1.421875 14.8125 8.828125 
Q 5.609375 19.09375 5.609375 36.375 
Q 5.609375 53.65625 14.8125 63.9375 
Q 24.03125 74.21875 39.40625 74.21875 
z
" id="DejaVuSans-79"/>
       <path d="M 28.609375 0 
L 0.78125 72.90625 
L 11.078125 72.90625 
L 34.1875 11.53125 
L 57.328125 72.90625 
L 67.578125 72.90625 
L 39.796875 0 
z
" id="DejaVuSans-86"/>
       <path d="M 19.671875 64.796875 
L 19.671875 37.40625 
L 32.078125 37.40625 
Q 38.96875 37.40625 42.71875 40.96875 
Q 46.484375 44.53125 46.484375 51.125 
Q 46.484375 57.671875 42.71875 61.234375 
Q 38.96875 64.796875 32.078125 64.796875 
z
M 9.8125 72.90625 
L 32.078125 72.90625 
Q 44.34375 72.90625 50.609375 67.359375 
Q 56.890625 61.8125 56.890625 51.125 
Q 56.890625 40.328125 50.609375 34.8125 
Q 44.34375 29.296875 32.078125 29.296875 
L 19.671875 29.296875 
L 19.671875 0 
L 9.8125 0 
z
" id="DejaVuSans-80"/>
       <path d="M 32.171875 -5.078125 
Q 28.375 -14.84375 24.75 -17.8125 
Q 21.140625 -20.796875 15.09375 -20.796875 
L 7.90625 -20.796875 
L 7.90625 -13.28125 
L 13.1875 -13.28125 
Q 16.890625 -13.28125 18.9375 -11.515625 
Q 21 -9.765625 23.484375 -3.21875 
L 25.09375 0.875 
L 2.984375 54.6875 
L 12.5 54.6875 
L 29.59375 11.921875 
L 46.6875 54.6875 
L 56.203125 54.6875 
z
" id="DejaVuSans-121"/>
      </defs>
      <use xlink:href="#DejaVuSans-67"/>
      <use x="69.824219" xlink:href="#DejaVuSans-79"/>
      <use x="146.785156" xlink:href="#DejaVuSans-86"/>
      <use x="215.193359" xlink:href="#DejaVuSans-73"/>
      <use x="244.685547" xlink:href="#DejaVuSans-68"/>
      <use x="321.6875" xlink:href="#DejaVuSans-45"/>
      <use x="357.771484" xlink:href="#DejaVuSans-49"/>
      <use x="421.394531" xlink:href="#DejaVuSans-57"/>
      <use x="485.017578" xlink:href="#DejaVuSans-32"/>
      <use x="516.804688" xlink:href="#DejaVuSans-80"/>
      <use x="572.607422" xlink:href="#DejaVuSans-97"/>
      <use x="633.886719" xlink:href="#DejaVuSans-116"/>
      <use x="673.095703" xlink:href="#DejaVuSans-105"/>
      <use x="700.878906" xlink:href="#DejaVuSans-101"/>
      <use x="762.402344" xlink:href="#DejaVuSans-110"/>
      <use x="825.78125" xlink:href="#DejaVuSans-116"/>
      <use x="864.990234" xlink:href="#DejaVuSans-32"/>
      <use x="896.777344" xlink:href="#DejaVuSans-90"/>
      <use x="965.283203" xlink:href="#DejaVuSans-101"/>
      <use x="1026.806641" xlink:href="#DejaVuSans-114"/>
      <use x="1065.669922" xlink:href="#DejaVuSans-111"/>
      <use x="1126.851562" xlink:href="#DejaVuSans-32"/>
      <use x="1158.638672" xlink:href="#DejaVuSans-71"/>
      <use x="1236.128906" xlink:href="#DejaVuSans-101"/>
      <use x="1297.652344" xlink:href="#DejaVuSans-114"/>
      <use x="1337.015625" xlink:href="#DejaVuSans-109"/>
      <use x="1434.427734" xlink:href="#DejaVuSans-97"/>
      <use x="1495.707031" xlink:href="#DejaVuSans-110"/>
      <use x="1559.085938" xlink:href="#DejaVuSans-121"/>
      <use x="1618.265625" xlink:href="#DejaVuSans-32"/>
      <use x="1650.052734" xlink:href="#DejaVuSans-40"/>
      <use x="1689.066406" xlink:href="#DejaVuSans-50"/>
      <use x="1752.689453" xlink:href="#DejaVuSans-55"/>
      <use x="1816.3125" xlink:href="#DejaVuSans-46"/>
      <use x="1848.099609" xlink:href="#DejaVuSans-48"/>
      <use x="1911.722656" xlink:href="#DejaVuSans-49"/>
      <use x="1975.345703" xlink:href="#DejaVuSans-46"/>
      <use x="2007.132812" xlink:href="#DejaVuSans-50"/>
      <use x="2070.755859" xlink:href="#DejaVuSans-48"/>
      <use x="2134.378906" xlink:href="#DejaVuSans-50"/>
      <use x="2198.001953" xlink:href="#DejaVuSans-48"/>
      <use x="2261.625" xlink:href="#DejaVuSans-41"/>
     </g>
    </g>
    <g id="line2d_40">
     <path d="M 155.7 190.195781 
L 181.7 190.195781 
" style="fill:none;stroke:#800080;stroke-dasharray:5.55,2.4;stroke-dashoffset:0;stroke-width:1.5;"/>
    </g>
    <g id="text_20">
     <!-- 1. Lockdown Germany (22.03.2020) -->
     <g transform="translate(192.1 194.745781)scale(0.13 -0.13)">
      <defs>
       <path d="M 9.078125 75.984375 
L 18.109375 75.984375 
L 18.109375 31.109375 
L 44.921875 54.6875 
L 56.390625 54.6875 
L 27.390625 29.109375 
L 57.625 0 
L 45.90625 0 
L 18.109375 26.703125 
L 18.109375 0 
L 9.078125 0 
z
" id="DejaVuSans-107"/>
       <path d="M 4.203125 54.6875 
L 13.1875 54.6875 
L 24.421875 12.015625 
L 35.59375 54.6875 
L 46.1875 54.6875 
L 57.421875 12.015625 
L 68.609375 54.6875 
L 77.59375 54.6875 
L 63.28125 0 
L 52.6875 0 
L 40.921875 44.828125 
L 29.109375 0 
L 18.5 0 
z
" id="DejaVuSans-119"/>
       <path d="M 40.578125 39.3125 
Q 47.65625 37.796875 51.625 33 
Q 55.609375 28.21875 55.609375 21.1875 
Q 55.609375 10.40625 48.1875 4.484375 
Q 40.765625 -1.421875 27.09375 -1.421875 
Q 22.515625 -1.421875 17.65625 -0.515625 
Q 12.796875 0.390625 7.625 2.203125 
L 7.625 11.71875 
Q 11.71875 9.328125 16.59375 8.109375 
Q 21.484375 6.890625 26.8125 6.890625 
Q 36.078125 6.890625 40.9375 10.546875 
Q 45.796875 14.203125 45.796875 21.1875 
Q 45.796875 27.640625 41.28125 31.265625 
Q 36.765625 34.90625 28.71875 34.90625 
L 20.21875 34.90625 
L 20.21875 43.015625 
L 29.109375 43.015625 
Q 36.375 43.015625 40.234375 45.921875 
Q 44.09375 48.828125 44.09375 54.296875 
Q 44.09375 59.90625 40.109375 62.90625 
Q 36.140625 65.921875 28.71875 65.921875 
Q 24.65625 65.921875 20.015625 65.03125 
Q 15.375 64.15625 9.8125 62.3125 
L 9.8125 71.09375 
Q 15.4375 72.65625 20.34375 73.4375 
Q 25.25 74.21875 29.59375 74.21875 
Q 40.828125 74.21875 47.359375 69.109375 
Q 53.90625 64.015625 53.90625 55.328125 
Q 53.90625 49.265625 50.4375 45.09375 
Q 46.96875 40.921875 40.578125 39.3125 
z
" id="DejaVuSans-51"/>
      </defs>
      <use xlink:href="#DejaVuSans-49"/>
      <use x="63.623047" xlink:href="#DejaVuSans-46"/>
      <use x="95.410156" xlink:href="#DejaVuSans-32"/>
      <use x="127.197266" xlink:href="#DejaVuSans-76"/>
      <use x="181.160156" xlink:href="#DejaVuSans-111"/>
      <use x="242.341797" xlink:href="#DejaVuSans-99"/>
      <use x="297.322266" xlink:href="#DejaVuSans-107"/>
      <use x="355.232422" xlink:href="#DejaVuSans-100"/>
      <use x="418.708984" xlink:href="#DejaVuSans-111"/>
      <use x="479.890625" xlink:href="#DejaVuSans-119"/>
      <use x="561.677734" xlink:href="#DejaVuSans-110"/>
      <use x="625.056641" xlink:href="#DejaVuSans-32"/>
      <use x="656.84375" xlink:href="#DejaVuSans-71"/>
      <use x="734.333984" xlink:href="#DejaVuSans-101"/>
      <use x="795.857422" xlink:href="#DejaVuSans-114"/>
      <use x="835.220703" xlink:href="#DejaVuSans-109"/>
      <use x="932.632812" xlink:href="#DejaVuSans-97"/>
      <use x="993.912109" xlink:href="#DejaVuSans-110"/>
      <use x="1057.291016" xlink:href="#DejaVuSans-121"/>
      <use x="1116.470703" xlink:href="#DejaVuSans-32"/>
      <use x="1148.257812" xlink:href="#DejaVuSans-40"/>
      <use x="1187.271484" xlink:href="#DejaVuSans-50"/>
      <use x="1250.894531" xlink:href="#DejaVuSans-50"/>
      <use x="1314.517578" xlink:href="#DejaVuSans-46"/>
      <use x="1346.304688" xlink:href="#DejaVuSans-48"/>
      <use x="1409.927734" xlink:href="#DejaVuSans-51"/>
      <use x="1473.550781" xlink:href="#DejaVuSans-46"/>
      <use x="1505.337891" xlink:href="#DejaVuSans-50"/>
      <use x="1568.960938" xlink:href="#DejaVuSans-48"/>
      <use x="1632.583984" xlink:href="#DejaVuSans-50"/>
      <use x="1696.207031" xlink:href="#DejaVuSans-48"/>
      <use x="1759.830078" xlink:href="#DejaVuSans-41"/>
     </g>
    </g>
    <g id="line2d_41">
     <path d="M 155.7 209.277344 
L 181.7 209.277344 
" style="fill:none;stroke:#800080;stroke-dasharray:5.55,2.4;stroke-dashoffset:0;stroke-width:1.5;"/>
    </g>
    <g id="text_21">
     <!-- 2. Lockdown light Germany (02.11.2020) -->
     <g transform="translate(192.1 213.827344)scale(0.13 -0.13)">
      <use xlink:href="#DejaVuSans-50"/>
      <use x="63.623047" xlink:href="#DejaVuSans-46"/>
      <use x="95.410156" xlink:href="#DejaVuSans-32"/>
      <use x="127.197266" xlink:href="#DejaVuSans-76"/>
      <use x="181.160156" xlink:href="#DejaVuSans-111"/>
      <use x="242.341797" xlink:href="#DejaVuSans-99"/>
      <use x="297.322266" xlink:href="#DejaVuSans-107"/>
      <use x="355.232422" xlink:href="#DejaVuSans-100"/>
      <use x="418.708984" xlink:href="#DejaVuSans-111"/>
      <use x="479.890625" xlink:href="#DejaVuSans-119"/>
      <use x="561.677734" xlink:href="#DejaVuSans-110"/>
      <use x="625.056641" xlink:href="#DejaVuSans-32"/>
      <use x="656.84375" xlink:href="#DejaVuSans-108"/>
      <use x="684.626953" xlink:href="#DejaVuSans-105"/>
      <use x="712.410156" xlink:href="#DejaVuSans-103"/>
      <use x="775.886719" xlink:href="#DejaVuSans-104"/>
      <use x="839.265625" xlink:href="#DejaVuSans-116"/>
      <use x="878.474609" xlink:href="#DejaVuSans-32"/>
      <use x="910.261719" xlink:href="#DejaVuSans-71"/>
      <use x="987.751953" xlink:href="#DejaVuSans-101"/>
      <use x="1049.275391" xlink:href="#DejaVuSans-114"/>
      <use x="1088.638672" xlink:href="#DejaVuSans-109"/>
      <use x="1186.050781" xlink:href="#DejaVuSans-97"/>
      <use x="1247.330078" xlink:href="#DejaVuSans-110"/>
      <use x="1310.708984" xlink:href="#DejaVuSans-121"/>
      <use x="1369.888672" xlink:href="#DejaVuSans-32"/>
      <use x="1401.675781" xlink:href="#DejaVuSans-40"/>
      <use x="1440.689453" xlink:href="#DejaVuSans-48"/>
      <use x="1504.3125" xlink:href="#DejaVuSans-50"/>
      <use x="1567.935547" xlink:href="#DejaVuSans-46"/>
      <use x="1599.722656" xlink:href="#DejaVuSans-49"/>
      <use x="1663.345703" xlink:href="#DejaVuSans-49"/>
      <use x="1726.96875" xlink:href="#DejaVuSans-46"/>
      <use x="1758.755859" xlink:href="#DejaVuSans-50"/>
      <use x="1822.378906" xlink:href="#DejaVuSans-48"/>
      <use x="1886.001953" xlink:href="#DejaVuSans-50"/>
      <use x="1949.625" xlink:href="#DejaVuSans-48"/>
      <use x="2013.248047" xlink:href="#DejaVuSans-41"/>
     </g>
    </g>
    <g id="line2d_42">
     <path d="M 155.7 228.358906 
L 181.7 228.358906 
" style="fill:none;stroke:#800080;stroke-dasharray:5.55,2.4;stroke-dashoffset:0;stroke-width:1.5;"/>
    </g>
    <g id="text_22">
     <!-- 3. Lockdown Germany (16.12.2020) -->
     <g transform="translate(192.1 232.908906)scale(0.13 -0.13)">
      <defs>
       <path d="M 33.015625 40.375 
Q 26.375 40.375 22.484375 35.828125 
Q 18.609375 31.296875 18.609375 23.390625 
Q 18.609375 15.53125 22.484375 10.953125 
Q 26.375 6.390625 33.015625 6.390625 
Q 39.65625 6.390625 43.53125 10.953125 
Q 47.40625 15.53125 47.40625 23.390625 
Q 47.40625 31.296875 43.53125 35.828125 
Q 39.65625 40.375 33.015625 40.375 
z
M 52.59375 71.296875 
L 52.59375 62.3125 
Q 48.875 64.0625 45.09375 64.984375 
Q 41.3125 65.921875 37.59375 65.921875 
Q 27.828125 65.921875 22.671875 59.328125 
Q 17.53125 52.734375 16.796875 39.40625 
Q 19.671875 43.65625 24.015625 45.921875 
Q 28.375 48.1875 33.59375 48.1875 
Q 44.578125 48.1875 50.953125 41.515625 
Q 57.328125 34.859375 57.328125 23.390625 
Q 57.328125 12.15625 50.6875 5.359375 
Q 44.046875 -1.421875 33.015625 -1.421875 
Q 20.359375 -1.421875 13.671875 8.265625 
Q 6.984375 17.96875 6.984375 36.375 
Q 6.984375 53.65625 15.1875 63.9375 
Q 23.390625 74.21875 37.203125 74.21875 
Q 40.921875 74.21875 44.703125 73.484375 
Q 48.484375 72.75 52.59375 71.296875 
z
" id="DejaVuSans-54"/>
      </defs>
      <use xlink:href="#DejaVuSans-51"/>
      <use x="63.623047" xlink:href="#DejaVuSans-46"/>
      <use x="95.410156" xlink:href="#DejaVuSans-32"/>
      <use x="127.197266" xlink:href="#DejaVuSans-76"/>
      <use x="181.160156" xlink:href="#DejaVuSans-111"/>
      <use x="242.341797" xlink:href="#DejaVuSans-99"/>
      <use x="297.322266" xlink:href="#DejaVuSans-107"/>
      <use x="355.232422" xlink:href="#DejaVuSans-100"/>
      <use x="418.708984" xlink:href="#DejaVuSans-111"/>
      <use x="479.890625" xlink:href="#DejaVuSans-119"/>
      <use x="561.677734" xlink:href="#DejaVuSans-110"/>
      <use x="625.056641" xlink:href="#DejaVuSans-32"/>
      <use x="656.84375" xlink:href="#DejaVuSans-71"/>
      <use x="734.333984" xlink:href="#DejaVuSans-101"/>
      <use x="795.857422" xlink:href="#DejaVuSans-114"/>
      <use x="835.220703" xlink:href="#DejaVuSans-109"/>
      <use x="932.632812" xlink:href="#DejaVuSans-97"/>
      <use x="993.912109" xlink:href="#DejaVuSans-110"/>
      <use x="1057.291016" xlink:href="#DejaVuSans-121"/>
      <use x="1116.470703" xlink:href="#DejaVuSans-32"/>
      <use x="1148.257812" xlink:href="#DejaVuSans-40"/>
      <use x="1187.271484" xlink:href="#DejaVuSans-49"/>
      <use x="1250.894531" xlink:href="#DejaVuSans-54"/>
      <use x="1314.517578" xlink:href="#DejaVuSans-46"/>
      <use x="1346.304688" xlink:href="#DejaVuSans-49"/>
      <use x="1409.927734" xlink:href="#DejaVuSans-50"/>
      <use x="1473.550781" xlink:href="#DejaVuSans-46"/>
      <use x="1505.337891" xlink:href="#DejaVuSans-50"/>
      <use x="1568.960938" xlink:href="#DejaVuSans-48"/>
      <use x="1632.583984" xlink:href="#DejaVuSans-50"/>
      <use x="1696.207031" xlink:href="#DejaVuSans-48"/>
      <use x="1759.830078" xlink:href="#DejaVuSans-41"/>
     </g>
    </g>
   </g>
  </g>
 </g>
 <defs>
  <clipPath id="p65291f375e">
   <rect height="440.64" width="892.8" x="144" y="77.76"/>
  </clipPath>
 </defs>
</svg>
