<?xml version="1.0" encoding="utf-8" standalone="no"?>
<!DOCTYPE svg PUBLIC "-//W3C//DTD SVG 1.1//EN"
  "http://www.w3.org/Graphics/SVG/1.1/DTD/svg11.dtd">
<!-- Created with matplotlib (https://matplotlib.org/) -->
<svg height="648pt" version="1.1" viewBox="0 0 1152 648" width="1152pt" xmlns="http://www.w3.org/2000/svg" xmlns:xlink="http://www.w3.org/1999/xlink">
 <metadata>
  <rdf:RDF xmlns:cc="http://creativecommons.org/ns#" xmlns:dc="http://purl.org/dc/elements/1.1/" xmlns:rdf="http://www.w3.org/1999/02/22-rdf-syntax-ns#">
   <cc:Work>
    <dc:type rdf:resource="http://purl.org/dc/dcmitype/StillImage"/>
    <dc:date>2021-03-28T10:21:08.391078</dc:date>
    <dc:format>image/svg+xml</dc:format>
    <dc:creator>
     <cc:Agent>
      <dc:title>Matplotlib v3.3.4, https://matplotlib.org/</dc:title>
     </cc:Agent>
    </dc:creator>
   </cc:Work>
  </rdf:RDF>
 </metadata>
 <defs>
  <style type="text/css">*{stroke-linecap:butt;stroke-linejoin:round;}</style>
 </defs>
 <g id="figure_1">
  <g id="patch_1">
   <path d="M 0 648 
L 1152 648 
L 1152 0 
L 0 0 
z
" style="fill:#ffffff;"/>
  </g>
  <g id="axes_1">
   <g id="patch_2">
    <path d="M 144 518.4 
L 1036.8 518.4 
L 1036.8 77.76 
L 144 77.76 
z
" style="fill:#e5e5e5;"/>
   </g>
   <g id="matplotlib.axis_1">
    <g id="xtick_1">
     <g id="line2d_1">
      <path clip-path="url(#pfdab194c06)" d="M 212.126039 518.4 
L 212.126039 77.76 
" style="fill:none;stroke:#ffffff;stroke-linecap:square;stroke-width:0.8;"/>
     </g>
     <g id="line2d_2">
      <defs>
       <path d="M 0 0 
L 0 3.5 
" id="mf3acf1c8a8" style="stroke:#555555;stroke-width:0.8;"/>
      </defs>
      <g>
       <use style="fill:#555555;stroke:#555555;stroke-width:0.8;" x="212.126039" xlink:href="#mf3acf1c8a8" y="518.4"/>
      </g>
     </g>
     <g id="text_1">
      <!-- 2018-10 -->
      <g style="fill:#555555;" transform="translate(163.733772 561.1134)rotate(-30)scale(0.13 -0.13)">
       <defs>
        <path d="M 19.1875 8.296875 
L 53.609375 8.296875 
L 53.609375 0 
L 7.328125 0 
L 7.328125 8.296875 
Q 12.9375 14.109375 22.625 23.890625 
Q 32.328125 33.6875 34.8125 36.53125 
Q 39.546875 41.84375 41.421875 45.53125 
Q 43.3125 49.21875 43.3125 52.78125 
Q 43.3125 58.59375 39.234375 62.25 
Q 35.15625 65.921875 28.609375 65.921875 
Q 23.96875 65.921875 18.8125 64.3125 
Q 13.671875 62.703125 7.8125 59.421875 
L 7.8125 69.390625 
Q 13.765625 71.78125 18.9375 73 
Q 24.125 74.21875 28.421875 74.21875 
Q 39.75 74.21875 46.484375 68.546875 
Q 53.21875 62.890625 53.21875 53.421875 
Q 53.21875 48.921875 51.53125 44.890625 
Q 49.859375 40.875 45.40625 35.40625 
Q 44.1875 33.984375 37.640625 27.21875 
Q 31.109375 20.453125 19.1875 8.296875 
z
" id="DejaVuSans-50"/>
        <path d="M 31.78125 66.40625 
Q 24.171875 66.40625 20.328125 58.90625 
Q 16.5 51.421875 16.5 36.375 
Q 16.5 21.390625 20.328125 13.890625 
Q 24.171875 6.390625 31.78125 6.390625 
Q 39.453125 6.390625 43.28125 13.890625 
Q 47.125 21.390625 47.125 36.375 
Q 47.125 51.421875 43.28125 58.90625 
Q 39.453125 66.40625 31.78125 66.40625 
z
M 31.78125 74.21875 
Q 44.046875 74.21875 50.515625 64.515625 
Q 56.984375 54.828125 56.984375 36.375 
Q 56.984375 17.96875 50.515625 8.265625 
Q 44.046875 -1.421875 31.78125 -1.421875 
Q 19.53125 -1.421875 13.0625 8.265625 
Q 6.59375 17.96875 6.59375 36.375 
Q 6.59375 54.828125 13.0625 64.515625 
Q 19.53125 74.21875 31.78125 74.21875 
z
" id="DejaVuSans-48"/>
        <path d="M 12.40625 8.296875 
L 28.515625 8.296875 
L 28.515625 63.921875 
L 10.984375 60.40625 
L 10.984375 69.390625 
L 28.421875 72.90625 
L 38.28125 72.90625 
L 38.28125 8.296875 
L 54.390625 8.296875 
L 54.390625 0 
L 12.40625 0 
z
" id="DejaVuSans-49"/>
        <path d="M 31.78125 34.625 
Q 24.75 34.625 20.71875 30.859375 
Q 16.703125 27.09375 16.703125 20.515625 
Q 16.703125 13.921875 20.71875 10.15625 
Q 24.75 6.390625 31.78125 6.390625 
Q 38.8125 6.390625 42.859375 10.171875 
Q 46.921875 13.96875 46.921875 20.515625 
Q 46.921875 27.09375 42.890625 30.859375 
Q 38.875 34.625 31.78125 34.625 
z
M 21.921875 38.8125 
Q 15.578125 40.375 12.03125 44.71875 
Q 8.5 49.078125 8.5 55.328125 
Q 8.5 64.0625 14.71875 69.140625 
Q 20.953125 74.21875 31.78125 74.21875 
Q 42.671875 74.21875 48.875 69.140625 
Q 55.078125 64.0625 55.078125 55.328125 
Q 55.078125 49.078125 51.53125 44.71875 
Q 48 40.375 41.703125 38.8125 
Q 48.828125 37.15625 52.796875 32.3125 
Q 56.78125 27.484375 56.78125 20.515625 
Q 56.78125 9.90625 50.3125 4.234375 
Q 43.84375 -1.421875 31.78125 -1.421875 
Q 19.734375 -1.421875 13.25 4.234375 
Q 6.78125 9.90625 6.78125 20.515625 
Q 6.78125 27.484375 10.78125 32.3125 
Q 14.796875 37.15625 21.921875 38.8125 
z
M 18.3125 54.390625 
Q 18.3125 48.734375 21.84375 45.5625 
Q 25.390625 42.390625 31.78125 42.390625 
Q 38.140625 42.390625 41.71875 45.5625 
Q 45.3125 48.734375 45.3125 54.390625 
Q 45.3125 60.0625 41.71875 63.234375 
Q 38.140625 66.40625 31.78125 66.40625 
Q 25.390625 66.40625 21.84375 63.234375 
Q 18.3125 60.0625 18.3125 54.390625 
z
" id="DejaVuSans-56"/>
        <path d="M 4.890625 31.390625 
L 31.203125 31.390625 
L 31.203125 23.390625 
L 4.890625 23.390625 
z
" id="DejaVuSans-45"/>
       </defs>
       <use xlink:href="#DejaVuSans-50"/>
       <use x="63.623047" xlink:href="#DejaVuSans-48"/>
       <use x="127.246094" xlink:href="#DejaVuSans-49"/>
       <use x="190.869141" xlink:href="#DejaVuSans-56"/>
       <use x="254.492188" xlink:href="#DejaVuSans-45"/>
       <use x="290.576172" xlink:href="#DejaVuSans-49"/>
       <use x="354.199219" xlink:href="#DejaVuSans-48"/>
      </g>
     </g>
    </g>
    <g id="xtick_2">
     <g id="line2d_3">
      <path clip-path="url(#pfdab194c06)" d="M 296.594981 518.4 
L 296.594981 77.76 
" style="fill:none;stroke:#ffffff;stroke-linecap:square;stroke-width:0.8;"/>
     </g>
     <g id="line2d_4">
      <g>
       <use style="fill:#555555;stroke:#555555;stroke-width:0.8;" x="296.594981" xlink:href="#mf3acf1c8a8" y="518.4"/>
      </g>
     </g>
     <g id="text_2">
      <!-- 2019-01 -->
      <g style="fill:#555555;" transform="translate(248.202714 561.1134)rotate(-30)scale(0.13 -0.13)">
       <defs>
        <path d="M 10.984375 1.515625 
L 10.984375 10.5 
Q 14.703125 8.734375 18.5 7.8125 
Q 22.3125 6.890625 25.984375 6.890625 
Q 35.75 6.890625 40.890625 13.453125 
Q 46.046875 20.015625 46.78125 33.40625 
Q 43.953125 29.203125 39.59375 26.953125 
Q 35.25 24.703125 29.984375 24.703125 
Q 19.046875 24.703125 12.671875 31.3125 
Q 6.296875 37.9375 6.296875 49.421875 
Q 6.296875 60.640625 12.9375 67.421875 
Q 19.578125 74.21875 30.609375 74.21875 
Q 43.265625 74.21875 49.921875 64.515625 
Q 56.59375 54.828125 56.59375 36.375 
Q 56.59375 19.140625 48.40625 8.859375 
Q 40.234375 -1.421875 26.421875 -1.421875 
Q 22.703125 -1.421875 18.890625 -0.6875 
Q 15.09375 0.046875 10.984375 1.515625 
z
M 30.609375 32.421875 
Q 37.25 32.421875 41.125 36.953125 
Q 45.015625 41.5 45.015625 49.421875 
Q 45.015625 57.28125 41.125 61.84375 
Q 37.25 66.40625 30.609375 66.40625 
Q 23.96875 66.40625 20.09375 61.84375 
Q 16.21875 57.28125 16.21875 49.421875 
Q 16.21875 41.5 20.09375 36.953125 
Q 23.96875 32.421875 30.609375 32.421875 
z
" id="DejaVuSans-57"/>
       </defs>
       <use xlink:href="#DejaVuSans-50"/>
       <use x="63.623047" xlink:href="#DejaVuSans-48"/>
       <use x="127.246094" xlink:href="#DejaVuSans-49"/>
       <use x="190.869141" xlink:href="#DejaVuSans-57"/>
       <use x="254.492188" xlink:href="#DejaVuSans-45"/>
       <use x="290.576172" xlink:href="#DejaVuSans-48"/>
       <use x="354.199219" xlink:href="#DejaVuSans-49"/>
      </g>
     </g>
    </g>
    <g id="xtick_3">
     <g id="line2d_5">
      <path clip-path="url(#pfdab194c06)" d="M 379.227643 518.4 
L 379.227643 77.76 
" style="fill:none;stroke:#ffffff;stroke-linecap:square;stroke-width:0.8;"/>
     </g>
     <g id="line2d_6">
      <g>
       <use style="fill:#555555;stroke:#555555;stroke-width:0.8;" x="379.227643" xlink:href="#mf3acf1c8a8" y="518.4"/>
      </g>
     </g>
     <g id="text_3">
      <!-- 2019-04 -->
      <g style="fill:#555555;" transform="translate(330.835376 561.1134)rotate(-30)scale(0.13 -0.13)">
       <defs>
        <path d="M 37.796875 64.3125 
L 12.890625 25.390625 
L 37.796875 25.390625 
z
M 35.203125 72.90625 
L 47.609375 72.90625 
L 47.609375 25.390625 
L 58.015625 25.390625 
L 58.015625 17.1875 
L 47.609375 17.1875 
L 47.609375 0 
L 37.796875 0 
L 37.796875 17.1875 
L 4.890625 17.1875 
L 4.890625 26.703125 
z
" id="DejaVuSans-52"/>
       </defs>
       <use xlink:href="#DejaVuSans-50"/>
       <use x="63.623047" xlink:href="#DejaVuSans-48"/>
       <use x="127.246094" xlink:href="#DejaVuSans-49"/>
       <use x="190.869141" xlink:href="#DejaVuSans-57"/>
       <use x="254.492188" xlink:href="#DejaVuSans-45"/>
       <use x="290.576172" xlink:href="#DejaVuSans-48"/>
       <use x="354.199219" xlink:href="#DejaVuSans-52"/>
      </g>
     </g>
    </g>
    <g id="xtick_4">
     <g id="line2d_7">
      <path clip-path="url(#pfdab194c06)" d="M 462.778445 518.4 
L 462.778445 77.76 
" style="fill:none;stroke:#ffffff;stroke-linecap:square;stroke-width:0.8;"/>
     </g>
     <g id="line2d_8">
      <g>
       <use style="fill:#555555;stroke:#555555;stroke-width:0.8;" x="462.778445" xlink:href="#mf3acf1c8a8" y="518.4"/>
      </g>
     </g>
     <g id="text_4">
      <!-- 2019-07 -->
      <g style="fill:#555555;" transform="translate(414.386178 561.1134)rotate(-30)scale(0.13 -0.13)">
       <defs>
        <path d="M 8.203125 72.90625 
L 55.078125 72.90625 
L 55.078125 68.703125 
L 28.609375 0 
L 18.3125 0 
L 43.21875 64.59375 
L 8.203125 64.59375 
z
" id="DejaVuSans-55"/>
       </defs>
       <use xlink:href="#DejaVuSans-50"/>
       <use x="63.623047" xlink:href="#DejaVuSans-48"/>
       <use x="127.246094" xlink:href="#DejaVuSans-49"/>
       <use x="190.869141" xlink:href="#DejaVuSans-57"/>
       <use x="254.492188" xlink:href="#DejaVuSans-45"/>
       <use x="290.576172" xlink:href="#DejaVuSans-48"/>
       <use x="354.199219" xlink:href="#DejaVuSans-55"/>
      </g>
     </g>
    </g>
    <g id="xtick_5">
     <g id="line2d_9">
      <path clip-path="url(#pfdab194c06)" d="M 547.247388 518.4 
L 547.247388 77.76 
" style="fill:none;stroke:#ffffff;stroke-linecap:square;stroke-width:0.8;"/>
     </g>
     <g id="line2d_10">
      <g>
       <use style="fill:#555555;stroke:#555555;stroke-width:0.8;" x="547.247388" xlink:href="#mf3acf1c8a8" y="518.4"/>
      </g>
     </g>
     <g id="text_5">
      <!-- 2019-10 -->
      <g style="fill:#555555;" transform="translate(498.855121 561.1134)rotate(-30)scale(0.13 -0.13)">
       <use xlink:href="#DejaVuSans-50"/>
       <use x="63.623047" xlink:href="#DejaVuSans-48"/>
       <use x="127.246094" xlink:href="#DejaVuSans-49"/>
       <use x="190.869141" xlink:href="#DejaVuSans-57"/>
       <use x="254.492188" xlink:href="#DejaVuSans-45"/>
       <use x="290.576172" xlink:href="#DejaVuSans-49"/>
       <use x="354.199219" xlink:href="#DejaVuSans-48"/>
      </g>
     </g>
    </g>
    <g id="xtick_6">
     <g id="line2d_11">
      <path clip-path="url(#pfdab194c06)" d="M 631.716331 518.4 
L 631.716331 77.76 
" style="fill:none;stroke:#ffffff;stroke-linecap:square;stroke-width:0.8;"/>
     </g>
     <g id="line2d_12">
      <g>
       <use style="fill:#555555;stroke:#555555;stroke-width:0.8;" x="631.716331" xlink:href="#mf3acf1c8a8" y="518.4"/>
      </g>
     </g>
     <g id="text_6">
      <!-- 2020-01 -->
      <g style="fill:#555555;" transform="translate(583.324064 561.1134)rotate(-30)scale(0.13 -0.13)">
       <use xlink:href="#DejaVuSans-50"/>
       <use x="63.623047" xlink:href="#DejaVuSans-48"/>
       <use x="127.246094" xlink:href="#DejaVuSans-50"/>
       <use x="190.869141" xlink:href="#DejaVuSans-48"/>
       <use x="254.492188" xlink:href="#DejaVuSans-45"/>
       <use x="290.576172" xlink:href="#DejaVuSans-48"/>
       <use x="354.199219" xlink:href="#DejaVuSans-49"/>
      </g>
     </g>
    </g>
    <g id="xtick_7">
     <g id="line2d_13">
      <path clip-path="url(#pfdab194c06)" d="M 715.267133 518.4 
L 715.267133 77.76 
" style="fill:none;stroke:#ffffff;stroke-linecap:square;stroke-width:0.8;"/>
     </g>
     <g id="line2d_14">
      <g>
       <use style="fill:#555555;stroke:#555555;stroke-width:0.8;" x="715.267133" xlink:href="#mf3acf1c8a8" y="518.4"/>
      </g>
     </g>
     <g id="text_7">
      <!-- 2020-04 -->
      <g style="fill:#555555;" transform="translate(666.874866 561.1134)rotate(-30)scale(0.13 -0.13)">
       <use xlink:href="#DejaVuSans-50"/>
       <use x="63.623047" xlink:href="#DejaVuSans-48"/>
       <use x="127.246094" xlink:href="#DejaVuSans-50"/>
       <use x="190.869141" xlink:href="#DejaVuSans-48"/>
       <use x="254.492188" xlink:href="#DejaVuSans-45"/>
       <use x="290.576172" xlink:href="#DejaVuSans-48"/>
       <use x="354.199219" xlink:href="#DejaVuSans-52"/>
      </g>
     </g>
    </g>
    <g id="xtick_8">
     <g id="line2d_15">
      <path clip-path="url(#pfdab194c06)" d="M 798.817935 518.4 
L 798.817935 77.76 
" style="fill:none;stroke:#ffffff;stroke-linecap:square;stroke-width:0.8;"/>
     </g>
     <g id="line2d_16">
      <g>
       <use style="fill:#555555;stroke:#555555;stroke-width:0.8;" x="798.817935" xlink:href="#mf3acf1c8a8" y="518.4"/>
      </g>
     </g>
     <g id="text_8">
      <!-- 2020-07 -->
      <g style="fill:#555555;" transform="translate(750.425668 561.1134)rotate(-30)scale(0.13 -0.13)">
       <use xlink:href="#DejaVuSans-50"/>
       <use x="63.623047" xlink:href="#DejaVuSans-48"/>
       <use x="127.246094" xlink:href="#DejaVuSans-50"/>
       <use x="190.869141" xlink:href="#DejaVuSans-48"/>
       <use x="254.492188" xlink:href="#DejaVuSans-45"/>
       <use x="290.576172" xlink:href="#DejaVuSans-48"/>
       <use x="354.199219" xlink:href="#DejaVuSans-55"/>
      </g>
     </g>
    </g>
    <g id="xtick_9">
     <g id="line2d_17">
      <path clip-path="url(#pfdab194c06)" d="M 883.286878 518.4 
L 883.286878 77.76 
" style="fill:none;stroke:#ffffff;stroke-linecap:square;stroke-width:0.8;"/>
     </g>
     <g id="line2d_18">
      <g>
       <use style="fill:#555555;stroke:#555555;stroke-width:0.8;" x="883.286878" xlink:href="#mf3acf1c8a8" y="518.4"/>
      </g>
     </g>
     <g id="text_9">
      <!-- 2020-10 -->
      <g style="fill:#555555;" transform="translate(834.894611 561.1134)rotate(-30)scale(0.13 -0.13)">
       <use xlink:href="#DejaVuSans-50"/>
       <use x="63.623047" xlink:href="#DejaVuSans-48"/>
       <use x="127.246094" xlink:href="#DejaVuSans-50"/>
       <use x="190.869141" xlink:href="#DejaVuSans-48"/>
       <use x="254.492188" xlink:href="#DejaVuSans-45"/>
       <use x="290.576172" xlink:href="#DejaVuSans-49"/>
       <use x="354.199219" xlink:href="#DejaVuSans-48"/>
      </g>
     </g>
    </g>
    <g id="xtick_10">
     <g id="line2d_19">
      <path clip-path="url(#pfdab194c06)" d="M 967.755821 518.4 
L 967.755821 77.76 
" style="fill:none;stroke:#ffffff;stroke-linecap:square;stroke-width:0.8;"/>
     </g>
     <g id="line2d_20">
      <g>
       <use style="fill:#555555;stroke:#555555;stroke-width:0.8;" x="967.755821" xlink:href="#mf3acf1c8a8" y="518.4"/>
      </g>
     </g>
     <g id="text_10">
      <!-- 2021-01 -->
      <g style="fill:#555555;" transform="translate(919.363554 561.1134)rotate(-30)scale(0.13 -0.13)">
       <use xlink:href="#DejaVuSans-50"/>
       <use x="63.623047" xlink:href="#DejaVuSans-48"/>
       <use x="127.246094" xlink:href="#DejaVuSans-50"/>
       <use x="190.869141" xlink:href="#DejaVuSans-49"/>
       <use x="254.492188" xlink:href="#DejaVuSans-45"/>
       <use x="290.576172" xlink:href="#DejaVuSans-48"/>
       <use x="354.199219" xlink:href="#DejaVuSans-49"/>
      </g>
     </g>
    </g>
   </g>
   <g id="matplotlib.axis_2">
    <g id="ytick_1">
     <g id="line2d_21">
      <path clip-path="url(#pfdab194c06)" d="M 144 498.370909 
L 1036.8 498.370909 
" style="fill:none;stroke:#ffffff;stroke-linecap:square;stroke-width:0.8;"/>
     </g>
     <g id="line2d_22">
      <defs>
       <path d="M 0 0 
L -3.5 0 
" id="m9d8b1737ea" style="stroke:#555555;stroke-width:0.8;"/>
      </defs>
      <g>
       <use style="fill:#555555;stroke:#555555;stroke-width:0.8;" x="144" xlink:href="#m9d8b1737ea" y="498.370909"/>
      </g>
     </g>
     <g id="text_11">
      <!-- 0 -->
      <g style="fill:#555555;" transform="translate(128.72875 503.309893)scale(0.13 -0.13)">
       <use xlink:href="#DejaVuSans-48"/>
      </g>
     </g>
    </g>
    <g id="ytick_2">
     <g id="line2d_23">
      <path clip-path="url(#pfdab194c06)" d="M 144 433.650287 
L 1036.8 433.650287 
" style="fill:none;stroke:#ffffff;stroke-linecap:square;stroke-width:0.8;"/>
     </g>
     <g id="line2d_24">
      <g>
       <use style="fill:#555555;stroke:#555555;stroke-width:0.8;" x="144" xlink:href="#m9d8b1737ea" y="433.650287"/>
      </g>
     </g>
     <g id="text_12">
      <!-- 5000 -->
      <g style="fill:#555555;" transform="translate(103.915 438.589271)scale(0.13 -0.13)">
       <defs>
        <path d="M 10.796875 72.90625 
L 49.515625 72.90625 
L 49.515625 64.59375 
L 19.828125 64.59375 
L 19.828125 46.734375 
Q 21.96875 47.46875 24.109375 47.828125 
Q 26.265625 48.1875 28.421875 48.1875 
Q 40.625 48.1875 47.75 41.5 
Q 54.890625 34.8125 54.890625 23.390625 
Q 54.890625 11.625 47.5625 5.09375 
Q 40.234375 -1.421875 26.90625 -1.421875 
Q 22.3125 -1.421875 17.546875 -0.640625 
Q 12.796875 0.140625 7.71875 1.703125 
L 7.71875 11.625 
Q 12.109375 9.234375 16.796875 8.0625 
Q 21.484375 6.890625 26.703125 6.890625 
Q 35.15625 6.890625 40.078125 11.328125 
Q 45.015625 15.765625 45.015625 23.390625 
Q 45.015625 31 40.078125 35.4375 
Q 35.15625 39.890625 26.703125 39.890625 
Q 22.75 39.890625 18.8125 39.015625 
Q 14.890625 38.140625 10.796875 36.28125 
z
" id="DejaVuSans-53"/>
       </defs>
       <use xlink:href="#DejaVuSans-53"/>
       <use x="63.623047" xlink:href="#DejaVuSans-48"/>
       <use x="127.246094" xlink:href="#DejaVuSans-48"/>
       <use x="190.869141" xlink:href="#DejaVuSans-48"/>
      </g>
     </g>
    </g>
    <g id="ytick_3">
     <g id="line2d_25">
      <path clip-path="url(#pfdab194c06)" d="M 144 368.929665 
L 1036.8 368.929665 
" style="fill:none;stroke:#ffffff;stroke-linecap:square;stroke-width:0.8;"/>
     </g>
     <g id="line2d_26">
      <g>
       <use style="fill:#555555;stroke:#555555;stroke-width:0.8;" x="144" xlink:href="#m9d8b1737ea" y="368.929665"/>
      </g>
     </g>
     <g id="text_13">
      <!-- 10000 -->
      <g style="fill:#555555;" transform="translate(95.64375 373.868649)scale(0.13 -0.13)">
       <use xlink:href="#DejaVuSans-49"/>
       <use x="63.623047" xlink:href="#DejaVuSans-48"/>
       <use x="127.246094" xlink:href="#DejaVuSans-48"/>
       <use x="190.869141" xlink:href="#DejaVuSans-48"/>
       <use x="254.492188" xlink:href="#DejaVuSans-48"/>
      </g>
     </g>
    </g>
    <g id="ytick_4">
     <g id="line2d_27">
      <path clip-path="url(#pfdab194c06)" d="M 144 304.209043 
L 1036.8 304.209043 
" style="fill:none;stroke:#ffffff;stroke-linecap:square;stroke-width:0.8;"/>
     </g>
     <g id="line2d_28">
      <g>
       <use style="fill:#555555;stroke:#555555;stroke-width:0.8;" x="144" xlink:href="#m9d8b1737ea" y="304.209043"/>
      </g>
     </g>
     <g id="text_14">
      <!-- 15000 -->
      <g style="fill:#555555;" transform="translate(95.64375 309.148027)scale(0.13 -0.13)">
       <use xlink:href="#DejaVuSans-49"/>
       <use x="63.623047" xlink:href="#DejaVuSans-53"/>
       <use x="127.246094" xlink:href="#DejaVuSans-48"/>
       <use x="190.869141" xlink:href="#DejaVuSans-48"/>
       <use x="254.492188" xlink:href="#DejaVuSans-48"/>
      </g>
     </g>
    </g>
    <g id="ytick_5">
     <g id="line2d_29">
      <path clip-path="url(#pfdab194c06)" d="M 144 239.488421 
L 1036.8 239.488421 
" style="fill:none;stroke:#ffffff;stroke-linecap:square;stroke-width:0.8;"/>
     </g>
     <g id="line2d_30">
      <g>
       <use style="fill:#555555;stroke:#555555;stroke-width:0.8;" x="144" xlink:href="#m9d8b1737ea" y="239.488421"/>
      </g>
     </g>
     <g id="text_15">
      <!-- 20000 -->
      <g style="fill:#555555;" transform="translate(95.64375 244.427405)scale(0.13 -0.13)">
       <use xlink:href="#DejaVuSans-50"/>
       <use x="63.623047" xlink:href="#DejaVuSans-48"/>
       <use x="127.246094" xlink:href="#DejaVuSans-48"/>
       <use x="190.869141" xlink:href="#DejaVuSans-48"/>
       <use x="254.492188" xlink:href="#DejaVuSans-48"/>
      </g>
     </g>
    </g>
    <g id="ytick_6">
     <g id="line2d_31">
      <path clip-path="url(#pfdab194c06)" d="M 144 174.767799 
L 1036.8 174.767799 
" style="fill:none;stroke:#ffffff;stroke-linecap:square;stroke-width:0.8;"/>
     </g>
     <g id="line2d_32">
      <g>
       <use style="fill:#555555;stroke:#555555;stroke-width:0.8;" x="144" xlink:href="#m9d8b1737ea" y="174.767799"/>
      </g>
     </g>
     <g id="text_16">
      <!-- 25000 -->
      <g style="fill:#555555;" transform="translate(95.64375 179.706783)scale(0.13 -0.13)">
       <use xlink:href="#DejaVuSans-50"/>
       <use x="63.623047" xlink:href="#DejaVuSans-53"/>
       <use x="127.246094" xlink:href="#DejaVuSans-48"/>
       <use x="190.869141" xlink:href="#DejaVuSans-48"/>
       <use x="254.492188" xlink:href="#DejaVuSans-48"/>
      </g>
     </g>
    </g>
    <g id="ytick_7">
     <g id="line2d_33">
      <path clip-path="url(#pfdab194c06)" d="M 144 110.047177 
L 1036.8 110.047177 
" style="fill:none;stroke:#ffffff;stroke-linecap:square;stroke-width:0.8;"/>
     </g>
     <g id="line2d_34">
      <g>
       <use style="fill:#555555;stroke:#555555;stroke-width:0.8;" x="144" xlink:href="#m9d8b1737ea" y="110.047177"/>
      </g>
     </g>
     <g id="text_17">
      <!-- 30000 -->
      <g style="fill:#555555;" transform="translate(95.64375 114.986161)scale(0.13 -0.13)">
       <defs>
        <path d="M 40.578125 39.3125 
Q 47.65625 37.796875 51.625 33 
Q 55.609375 28.21875 55.609375 21.1875 
Q 55.609375 10.40625 48.1875 4.484375 
Q 40.765625 -1.421875 27.09375 -1.421875 
Q 22.515625 -1.421875 17.65625 -0.515625 
Q 12.796875 0.390625 7.625 2.203125 
L 7.625 11.71875 
Q 11.71875 9.328125 16.59375 8.109375 
Q 21.484375 6.890625 26.8125 6.890625 
Q 36.078125 6.890625 40.9375 10.546875 
Q 45.796875 14.203125 45.796875 21.1875 
Q 45.796875 27.640625 41.28125 31.265625 
Q 36.765625 34.90625 28.71875 34.90625 
L 20.21875 34.90625 
L 20.21875 43.015625 
L 29.109375 43.015625 
Q 36.375 43.015625 40.234375 45.921875 
Q 44.09375 48.828125 44.09375 54.296875 
Q 44.09375 59.90625 40.109375 62.90625 
Q 36.140625 65.921875 28.71875 65.921875 
Q 24.65625 65.921875 20.015625 65.03125 
Q 15.375 64.15625 9.8125 62.3125 
L 9.8125 71.09375 
Q 15.4375 72.65625 20.34375 73.4375 
Q 25.25 74.21875 29.59375 74.21875 
Q 40.828125 74.21875 47.359375 69.109375 
Q 53.90625 64.015625 53.90625 55.328125 
Q 53.90625 49.265625 50.4375 45.09375 
Q 46.96875 40.921875 40.578125 39.3125 
z
" id="DejaVuSans-51"/>
       </defs>
       <use xlink:href="#DejaVuSans-51"/>
       <use x="63.623047" xlink:href="#DejaVuSans-48"/>
       <use x="127.246094" xlink:href="#DejaVuSans-48"/>
       <use x="190.869141" xlink:href="#DejaVuSans-48"/>
       <use x="254.492188" xlink:href="#DejaVuSans-48"/>
      </g>
     </g>
    </g>
   </g>
   <g id="LineCollection_1">
    <path clip-path="url(#pfdab194c06)" d="M 276.395886 498.370909 
L 276.395886 97.789091 
" style="fill:none;stroke:#ffa500;stroke-dasharray:5.55,2.4;stroke-dashoffset:0;stroke-width:1.5;"/>
   </g>
   <g id="LineCollection_2">
    <path clip-path="url(#pfdab194c06)" d="M 655.587988 498.370909 
L 655.587988 97.789091 
" style="fill:none;stroke:#808080;stroke-dasharray:5.55,2.4;stroke-dashoffset:0;stroke-width:1.5;"/>
   </g>
   <g id="LineCollection_3">
    <path clip-path="url(#pfdab194c06)" d="M 706.085726 498.370909 
L 706.085726 97.789091 
" style="fill:none;stroke:#800080;stroke-dasharray:5.55,2.4;stroke-dashoffset:0;stroke-width:1.5;"/>
   </g>
   <g id="LineCollection_4">
    <path clip-path="url(#pfdab194c06)" d="M 912.66738 498.370909 
L 912.66738 97.789091 
" style="fill:none;stroke:#800080;stroke-dasharray:5.55,2.4;stroke-dashoffset:0;stroke-width:1.5;"/>
   </g>
   <g id="LineCollection_5">
    <path clip-path="url(#pfdab194c06)" d="M 953.06557 498.370909 
L 953.06557 97.789091 
" style="fill:none;stroke:#800080;stroke-dasharray:5.55,2.4;stroke-dashoffset:0;stroke-width:1.5;"/>
   </g>
   <g id="line2d_35">
    <path clip-path="url(#pfdab194c06)" d="M 740.975072 497.904921 
L 741.893213 497.46482 
L 742.811353 496.545788 
L 743.729494 494.940716 
L 744.647635 493.85341 
L 748.320197 488.740481 
L 749.238338 488.196827 
L 750.156479 487.303683 
L 751.074619 486.747085 
L 752.910901 485.116126 
L 754.747182 483.951154 
L 756.583464 482.203698 
L 757.501604 481.517659 
L 758.419745 480.624515 
L 759.337886 479.550152 
L 760.256026 478.786449 
L 761.174167 477.802695 
L 762.092308 477.038992 
L 763.010448 476.598892 
L 763.928589 475.796356 
L 764.84673 475.343312 
L 765.76487 474.592553 
L 766.683011 474.061843 
L 767.601152 473.349917 
L 768.519292 472.327331 
L 769.437433 471.524795 
L 770.355574 470.308047 
L 771.273715 469.350182 
L 773.109996 466.839022 
L 775.864418 464.172532 
L 777.700699 462.580405 
L 778.61884 461.700205 
L 782.291403 456.302505 
L 783.209543 455.254031 
L 784.127684 453.93373 
L 785.045825 453.079418 
L 785.963965 451.396682 
L 787.800247 448.652527 
L 789.636528 445.636546 
L 790.554669 442.594677 
L 791.47281 440.924885 
L 793.309091 438.93149 
L 794.227232 437.779463 
L 796.063513 436.342665 
L 797.899794 433.870337 
L 801.572357 428.407917 
L 802.490498 427.25589 
L 803.408638 426.401577 
L 804.326779 425.262494 
L 807.081201 420.88738 
L 807.999342 420.084845 
L 808.917483 419.437638 
L 809.835623 417.780791 
L 811.671905 415.010748 
L 812.590045 413.457453 
L 813.508186 410.648578 
L 814.426327 408.240971 
L 815.344467 406.855949 
L 816.262608 405.729811 
L 818.098889 402.882103 
L 823.607733 394.274261 
L 824.525874 393.057513 
L 825.444015 391.581883 
L 827.280296 387.983416 
L 829.116578 385.601697 
L 830.034718 383.944849 
L 830.952859 382.003231 
L 831.871 379.414406 
L 833.707281 376.903246 
L 834.625422 375.531168 
L 835.543562 374.417974 
L 836.461703 372.942344 
L 837.379844 371.842093 
L 839.216125 370.04286 
L 840.134266 369.369765 
L 841.970547 367.233985 
L 842.888688 365.538304 
L 845.64311 361.797452 
L 847.479391 359.532231 
L 849.315673 357.681221 
L 851.151954 355.610161 
L 852.070095 354.872346 
L 853.906376 353.086057 
L 855.742657 351.519818 
L 857.578939 349.448758 
L 859.41522 347.235312 
L 863.087783 343.339131 
L 864.005923 342.678981 
L 864.924064 341.695227 
L 865.842205 340.892691 
L 871.351049 333.320379 
L 875.023612 329.061762 
L 875.941752 328.103897 
L 876.859893 326.938925 
L 877.778034 326.317607 
L 879.614315 324.28538 
L 880.532456 323.016856 
L 881.450596 321.981326 
L 885.123159 316.946061 
L 886.959441 314.551398 
L 888.795722 311.988462 
L 889.713863 310.53872 
L 890.632003 308.739486 
L 891.550144 307.354465 
L 894.304566 304.467925 
L 897.058988 301.322503 
L 897.977129 300.131644 
L 898.895269 299.160834 
L 899.81341 297.866422 
L 901.649691 294.669223 
L 902.567832 293.297146 
L 907.158536 285.012906 
L 908.994817 282.721796 
L 910.831098 279.835257 
L 911.749239 278.359626 
L 912.66738 277.181711 
L 913.58552 275.64136 
L 914.503661 273.803295 
L 917.258083 269.195186 
L 918.176224 267.939606 
L 919.094364 266.981741 
L 920.012505 265.299005 
L 920.930646 264.082257 
L 922.766927 261.23455 
L 923.685068 259.862473 
L 925.521349 256.380503 
L 926.43949 255.137867 
L 927.357631 254.374164 
L 928.275771 253.895231 
L 930.112053 252.160719 
L 931.030193 251.0993 
L 931.948334 250.413262 
L 933.784615 248.212761 
L 934.702756 247.280784 
L 935.620897 245.986371 
L 937.457178 244.096529 
L 938.375319 243.397546 
L 939.293459 242.918614 
L 941.129741 240.588671 
L 942.966022 237.404417 
L 943.884163 236.213557 
L 944.802304 234.828536 
L 945.720444 233.094023 
L 949.393007 227.230335 
L 951.229288 223.929583 
L 952.147429 222.182127 
L 953.06557 220.71944 
L 953.98371 219.010816 
L 955.819992 216.020723 
L 956.738132 215.658288 
L 957.656273 214.44154 
L 958.574414 212.771748 
L 959.492555 211.516168 
L 960.410695 209.496885 
L 964.083258 203.58142 
L 965.919539 201.795131 
L 968.673961 199.555797 
L 969.592102 198.481435 
L 970.510243 197.601234 
L 971.428383 196.500984 
L 972.346524 196.255045 
L 996.218182 196.255045 
L 996.218182 196.255045 
" style="fill:none;stroke:#e24a33;stroke-linecap:square;stroke-width:1.5;"/>
   </g>
   <g id="line2d_36">
    <path clip-path="url(#pfdab194c06)" d="M 184.581818 498.293244 
L 196.517647 498.228524 
L 210.289757 498.124971 
L 219.471164 498.099082 
L 232.325134 498.047306 
L 237.833978 497.68487 
L 242.424681 497.581318 
L 243.342822 497.542485 
L 246.097244 497.154161 
L 247.015385 497.115329 
L 251.606088 496.403402 
L 252.524229 496.299849 
L 259.869354 494.643001 
L 262.623776 494.189957 
L 263.541917 493.892242 
L 268.13262 493.180315 
L 269.050761 493.089706 
L 272.723324 492.144785 
L 273.641464 491.756462 
L 274.559605 491.575244 
L 276.395886 490.695043 
L 278.232168 490.177278 
L 280.068449 489.763066 
L 282.822871 489.025251 
L 285.577293 488.572207 
L 286.495434 488.196827 
L 287.413575 487.950889 
L 288.331715 487.562565 
L 289.249856 487.355459 
L 291.086137 487.316627 
L 293.840559 486.734141 
L 297.513122 486.488203 
L 300.267544 486.151656 
L 302.103826 485.892773 
L 303.940107 485.7245 
L 304.858248 485.387952 
L 306.694529 485.154958 
L 310.367092 484.365366 
L 312.203373 483.925266 
L 314.957795 483.588719 
L 321.38478 482.320195 
L 322.302921 482.177809 
L 324.139202 481.685933 
L 326.893624 481.284665 
L 327.811765 480.922229 
L 328.729905 480.831621 
L 329.648046 480.54685 
L 330.566187 480.482129 
L 334.238749 479.57604 
L 336.993172 478.786449 
L 337.911312 478.631119 
L 339.747594 478.126299 
L 341.583875 477.686198 
L 342.502016 477.271986 
L 343.420156 477.038992 
L 344.338297 476.676557 
L 345.256438 476.534171 
L 346.174578 476.262345 
L 348.01086 476.016406 
L 348.929 475.731635 
L 349.847141 475.563362 
L 352.601563 474.747882 
L 354.437845 474.281894 
L 359.028548 472.715655 
L 360.864829 472.340275 
L 361.78297 472.055504 
L 362.701111 471.628348 
L 366.373673 470.657539 
L 368.209955 469.816171 
L 370.046236 469.207797 
L 370.964377 468.573535 
L 374.63694 467.033184 
L 375.55508 466.890799 
L 376.473221 466.411866 
L 377.391362 466.114151 
L 378.309502 465.674051 
L 380.145784 465.259839 
L 381.063924 465.091565 
L 381.982065 464.72913 
L 383.818346 463.745376 
L 385.654628 463.201723 
L 387.490909 462.450964 
L 390.245331 460.923557 
L 392.081613 460.379904 
L 393.917894 459.39615 
L 394.836035 459.201989 
L 396.672316 458.567727 
L 398.508597 458.218235 
L 400.344879 457.648694 
L 404.935582 456.496667 
L 405.853723 456.134231 
L 406.771863 455.927125 
L 407.690004 455.577634 
L 409.526285 455.085757 
L 413.198848 453.843121 
L 415.03513 453.415965 
L 415.95327 453.157083 
L 416.871411 453.014697 
L 418.707692 452.432212 
L 420.543974 452.056832 
L 421.462114 451.86267 
L 422.380255 451.500235 
L 424.216536 451.20252 
L 426.052818 450.568258 
L 426.970958 450.361152 
L 427.889099 450.01166 
L 430.643521 449.35151 
L 435.234225 448.251259 
L 437.070506 447.992377 
L 445.333772 445.947205 
L 450.842616 444.238581 
L 451.760757 444.10914 
L 453.597038 443.410157 
L 455.43332 443.125386 
L 456.35146 442.866504 
L 457.269601 442.750006 
L 460.024023 441.934527 
L 462.778445 441.00255 
L 464.614726 440.381232 
L 465.532867 439.928187 
L 466.451008 439.74697 
L 467.369148 439.268037 
L 471.041711 437.973625 
L 472.877993 437.30053 
L 473.796133 437.08048 
L 476.550555 435.941397 
L 482.97754 433.37846 
L 487.568244 431.967551 
L 489.404525 431.100295 
L 490.322666 430.789636 
L 491.240806 430.233038 
L 495.83151 428.420861 
L 497.667791 427.450051 
L 498.585932 427.268834 
L 499.504072 426.893454 
L 501.340354 426.479242 
L 503.176635 425.508433 
L 504.094776 425.288383 
L 505.012916 424.925947 
L 505.931057 424.382294 
L 506.849198 424.201076 
L 507.767339 423.877473 
L 510.521761 422.51834 
L 511.439901 421.897022 
L 515.112464 420.421392 
L 516.948745 419.437638 
L 517.866886 419.010482 
L 521.539449 417.871399 
L 524.293871 416.706428 
L 525.212012 416.421657 
L 527.966434 415.04958 
L 528.884574 414.713033 
L 531.638996 413.172682 
L 532.557137 412.564308 
L 534.393418 411.72294 
L 536.2297 410.570913 
L 537.14784 409.781322 
L 538.065981 409.354166 
L 539.902262 408.279803 
L 540.820403 407.270161 
L 541.738544 406.972447 
L 543.574825 405.690978 
L 545.411107 405.147325 
L 547.247388 403.503421 
L 548.165529 403.244539 
L 550.919951 401.510026 
L 551.838091 400.992261 
L 552.756232 400.137949 
L 554.592513 399.102419 
L 556.428795 398.312827 
L 557.346935 397.665621 
L 559.183217 396.888974 
L 560.101357 396.099382 
L 561.019498 395.62045 
L 562.85578 394.313093 
L 563.77392 394.015378 
L 564.692061 393.471725 
L 565.610202 393.057513 
L 566.528342 392.837463 
L 569.282764 391.128838 
L 570.200905 390.792291 
L 571.119046 390.22275 
L 572.037186 389.873258 
L 572.955327 389.18722 
L 573.873468 388.695343 
L 575.709749 388.086969 
L 577.54603 387.362098 
L 578.464171 386.74078 
L 580.300452 385.912356 
L 581.218593 385.187485 
L 582.136734 384.850938 
L 583.054875 384.38495 
L 583.973015 384.151955 
L 584.891156 384.061346 
L 586.727437 383.556526 
L 587.645578 382.572772 
L 592.236281 380.5276 
L 598.663266 377.459843 
L 600.499548 376.734972 
L 607.844673 372.929399 
L 608.762814 372.152752 
L 610.599095 371.401993 
L 611.517236 370.728898 
L 612.435376 370.547681 
L 613.353517 369.874586 
L 614.271658 369.473318 
L 615.189798 368.903777 
L 617.02608 368.19185 
L 619.780502 367.026879 
L 620.698643 366.858605 
L 622.534924 366.237287 
L 623.453065 365.810131 
L 624.371205 365.512416 
L 626.207487 365.473584 
L 628.043768 364.800489 
L 628.961909 364.554551 
L 629.880049 363.894401 
L 632.634471 363.363691 
L 637.225175 361.16319 
L 638.143316 361.033749 
L 639.061456 360.231213 
L 641.815878 359.079186 
L 643.65216 358.004824 
L 646.406582 356.464473 
L 650.079144 355.001787 
L 650.997285 354.380469 
L 653.751707 353.073113 
L 660.178692 350.600785 
L 662.933114 349.966523 
L 667.523817 347.403586 
L 668.441958 347.19648 
L 669.360099 346.769324 
L 672.114521 345.073644 
L 673.032661 344.68532 
L 673.950802 344.46527 
L 674.868943 343.856896 
L 676.705224 343.080249 
L 678.541506 342.031774 
L 679.459646 341.669339 
L 680.377787 341.462233 
L 682.214068 340.569088 
L 683.132209 340.284318 
L 684.05035 340.116044 
L 688.641053 338.265034 
L 689.559194 337.824934 
L 690.477334 337.59194 
L 691.395475 337.229504 
L 692.313616 336.634075 
L 693.231756 336.40108 
L 694.149897 335.96098 
L 695.986179 335.391439 
L 697.82246 334.550071 
L 699.658741 334.084082 
L 701.495023 333.087384 
L 703.331304 331.831804 
L 704.249445 331.37876 
L 706.085726 330.925716 
L 707.003867 330.34323 
L 708.840148 329.540694 
L 709.758289 329.08765 
L 710.676429 328.505164 
L 711.59457 328.220394 
L 714.348992 326.731819 
L 715.267133 325.994004 
L 716.185274 325.657457 
L 718.021555 324.583095 
L 718.939696 324.363045 
L 719.857836 323.961777 
L 720.775977 323.172185 
L 721.694118 322.667364 
L 726.284821 321.450617 
L 727.202962 321.023461 
L 728.121102 320.777522 
L 729.039243 319.974986 
L 729.957384 319.625495 
L 732.711806 318.162809 
L 733.629947 317.890982 
L 735.466228 316.933117 
L 740.056931 314.90089 
L 740.975072 314.201907 
L 741.893213 313.722974 
L 742.811353 313.399371 
L 746.483916 311.367144 
L 748.320197 310.31867 
L 752.910901 307.807509 
L 754.747182 306.849644 
L 755.665323 306.085941 
L 757.501604 304.908026 
L 758.419745 304.157266 
L 759.337886 303.639501 
L 760.256026 303.29001 
L 767.601152 299.225555 
L 768.519292 298.966673 
L 769.437433 298.345355 
L 772.191855 295.937747 
L 774.028137 295.122268 
L 774.946277 294.177346 
L 775.864418 293.478364 
L 777.700699 291.873292 
L 778.61884 291.070757 
L 779.536981 290.656545 
L 780.455121 290.048171 
L 781.373262 289.155026 
L 782.291403 288.650205 
L 783.209543 287.990055 
L 784.127684 287.019246 
L 785.963965 285.737777 
L 786.882106 284.792856 
L 788.718387 283.886768 
L 789.636528 283.511388 
L 790.554669 282.437026 
L 791.47281 281.712155 
L 795.145372 279.56343 
L 796.063513 278.955056 
L 796.981654 278.074856 
L 799.736076 276.625114 
L 800.654216 275.64136 
L 801.572357 275.188316 
L 802.490498 274.217507 
L 804.326779 273.220809 
L 805.24492 271.965229 
L 807.999342 269.80356 
L 812.590045 266.502808 
L 814.426327 264.78124 
L 817.180749 262.632515 
L 818.098889 261.778203 
L 819.01703 261.07922 
L 819.935171 260.211964 
L 820.853311 259.707143 
L 822.689593 258.956384 
L 824.525874 257.882022 
L 825.444015 257.53253 
L 826.362155 256.950045 
L 828.198437 255.150811 
L 829.116578 254.037617 
L 830.952859 252.406657 
L 833.707281 250.167323 
L 834.625422 249.714279 
L 838.297984 246.698298 
L 840.134266 245.2615 
L 841.052406 244.912009 
L 843.806828 242.232575 
L 844.724969 241.171157 
L 847.479391 239.268371 
L 848.397532 238.841215 
L 851.151954 236.731322 
L 852.988235 234.724983 
L 853.906376 232.7057 
L 854.824517 231.320678 
L 855.742657 230.285148 
L 857.578939 228.938959 
L 858.497079 227.592771 
L 860.333361 226.453688 
L 863.087783 224.369684 
L 865.842205 221.573753 
L 867.678486 220.460558 
L 870.432908 217.703459 
L 871.351049 217.250415 
L 873.18733 215.658288 
L 874.105471 215.075802 
L 875.023612 214.22149 
L 875.941752 213.548396 
L 876.859893 212.577586 
L 879.614315 210.51947 
L 880.532456 209.587493 
L 881.450596 208.215416 
L 882.368737 207.296383 
L 884.205019 204.772279 
L 885.123159 204.125073 
L 887.877581 201.212645 
L 888.795722 200.681936 
L 889.713863 199.478132 
L 890.632003 197.886005 
L 893.386425 195.776113 
L 894.304566 194.766471 
L 895.222707 194.067488 
L 896.140847 193.536779 
L 897.058988 192.164702 
L 897.977129 191.051507 
L 898.895269 190.391357 
L 899.81341 189.329939 
L 900.731551 188.618012 
L 901.649691 187.595426 
L 902.567832 186.883499 
L 903.485973 185.847969 
L 904.404114 184.087568 
L 905.322254 183.440362 
L 906.240395 182.003564 
L 907.158536 181.149252 
L 909.912958 178.042662 
L 910.831098 176.74825 
L 911.749239 176.217541 
L 912.66738 175.531502 
L 913.58552 173.784045 
L 914.503661 172.722627 
L 916.339942 168.68406 
L 917.258083 167.040157 
L 918.176224 164.956152 
L 919.094364 163.44169 
L 920.012505 162.432048 
L 923.685068 156.697801 
L 924.603209 155.558718 
L 926.43949 153.008726 
L 927.357631 152.102637 
L 928.275771 149.293762 
L 929.193912 147.300367 
L 931.030193 144.582101 
L 931.948334 142.977029 
L 932.866475 142.00622 
L 933.784615 140.802416 
L 935.620897 137.436944 
L 938.375319 134.848119 
L 939.293459 133.191271 
L 940.2116 132.285182 
L 942.966022 128.69966 
L 944.802304 125.81312 
L 948.474866 122.318207 
L 949.393007 121.127347 
L 950.311148 119.470499 
L 951.229288 118.913902 
L 952.147429 118.201975 
L 953.98371 115.703759 
L 954.901851 114.629397 
L 955.819992 113.283208 
L 956.738132 112.364175 
L 957.656273 111.199204 
L 960.410695 108.480938 
L 961.328836 108.002005 
L 962.246977 107.031196 
L 963.165117 105.659119 
L 964.083258 104.843639 
L 965.919539 102.759635 
L 966.83768 102.267758 
L 969.592102 99.769542 
L 971.428383 98.047973 
L 972.346524 97.789091 
L 996.218182 97.789091 
L 996.218182 97.789091 
" style="fill:none;stroke:#348abd;stroke-linecap:square;stroke-width:1.5;"/>
   </g>
   <g id="line2d_37">
    <path clip-path="url(#pfdab194c06)" d="M 566.528342 498.2803 
L 575.709749 497.555429 
L 577.54603 497.477765 
L 583.054875 496.856447 
L 584.891156 496.727005 
L 587.645578 496.442235 
L 593.154422 495.885637 
L 594.990703 495.587922 
L 606.008392 494.707722 
L 607.844673 494.384119 
L 611.517236 493.982851 
L 618.862361 493.568639 
L 627.125627 493.374477 
L 629.880049 493.180315 
L 630.79819 492.921433 
L 632.634471 492.81788 
L 634.470753 492.468388 
L 635.388893 492.416612 
L 637.225175 491.976512 
L 639.979597 491.691741 
L 641.815878 491.588188 
L 643.65216 491.316361 
L 645.488441 491.173976 
L 646.406582 490.979814 
L 648.242863 490.798596 
L 649.161004 490.604434 
L 650.997285 490.462049 
L 651.915426 490.190222 
L 654.669848 489.853675 
L 655.587988 489.633625 
L 657.42427 489.413575 
L 658.342411 489.258246 
L 660.178692 488.714592 
L 662.933114 488.274492 
L 669.360099 487.446068 
L 673.032661 486.785918 
L 675.787084 486.38465 
L 682.214068 485.19379 
L 683.132209 484.947852 
L 684.05035 484.585417 
L 688.641053 483.420445 
L 689.559194 482.993289 
L 695.068038 481.58238 
L 695.986179 481.232888 
L 696.904319 481.168168 
L 697.82246 480.844565 
L 699.658741 480.469185 
L 702.413163 479.459543 
L 707.003867 477.737975 
L 707.922007 477.116657 
L 709.758289 476.236456 
L 710.676429 476.016406 
L 712.512711 474.760826 
L 713.430852 474.010067 
L 714.348992 473.531134 
L 716.185274 471.693069 
L 717.103414 471.149415 
L 718.021555 470.34688 
L 721.694118 468.806529 
L 722.612258 468.249932 
L 724.44854 467.576837 
L 725.36668 466.709581 
L 729.039243 465.246895 
L 729.957384 464.612633 
L 732.711806 463.47355 
L 733.629947 462.891064 
L 734.548087 462.476852 
L 735.466228 461.751981 
L 736.384369 461.544875 
L 737.302509 460.910613 
L 740.056931 459.603256 
L 741.893213 458.399453 
L 742.811353 457.842856 
L 743.729494 457.428644 
L 744.647635 457.143873 
L 745.565775 456.690828 
L 746.483916 455.78474 
L 749.238338 454.671545 
L 750.156479 453.726624 
L 752.910901 452.406323 
L 753.829042 451.733229 
L 756.583464 450.102269 
L 757.501604 449.13146 
L 758.419745 448.587807 
L 760.256026 447.772327 
L 761.174167 447.073344 
L 762.092308 446.84035 
L 763.010448 446.24492 
L 763.928589 445.791876 
L 764.84673 445.170558 
L 765.76487 444.083251 
L 767.601152 443.047721 
L 768.519292 442.271074 
L 769.437433 441.869806 
L 770.355574 441.106103 
L 772.191855 440.161182 
L 777.700699 436.48505 
L 778.61884 436.04495 
L 779.536981 435.216526 
L 781.373262 434.297493 
L 782.291403 433.766784 
L 783.209543 433.391405 
L 784.127684 432.860695 
L 785.045825 432.537092 
L 786.882106 431.346233 
L 787.800247 430.906133 
L 788.718387 430.634306 
L 789.636528 429.922379 
L 790.554669 429.572888 
L 792.39095 428.51147 
L 795.145372 427.333554 
L 796.063513 427.152337 
L 798.817935 425.611986 
L 799.736076 425.391936 
L 801.572357 424.485847 
L 802.490498 424.265797 
L 804.326779 423.450317 
L 805.24492 422.89372 
L 807.081201 422.414787 
L 807.999342 421.63814 
L 809.835623 420.939157 
L 812.590045 419.722409 
L 813.508186 419.502359 
L 817.180749 417.754902 
L 818.098889 417.094752 
L 819.01703 416.719372 
L 819.935171 415.929781 
L 820.853311 415.399072 
L 821.771452 415.101357 
L 822.689593 414.648312 
L 823.607733 414.454151 
L 824.525874 414.117603 
L 825.444015 413.988162 
L 827.280296 413.224459 
L 830.034718 412.09832 
L 831.871 411.295784 
L 833.707281 410.894516 
L 837.379844 409.58716 
L 841.970547 407.800871 
L 843.806828 406.855949 
L 844.724969 406.26052 
L 846.561251 405.522705 
L 849.315673 404.18946 
L 850.233813 403.606974 
L 851.151954 403.179818 
L 852.070095 402.5585 
L 852.988235 401.639467 
L 853.906376 400.345055 
L 856.660798 398.235163 
L 860.333361 396.306488 
L 861.251501 396.008773 
L 863.087783 395.115629 
L 864.924064 393.963602 
L 865.842205 393.510557 
L 867.678486 392.35853 
L 869.514768 391.452441 
L 870.432908 391.180615 
L 873.18733 389.329605 
L 874.105471 389.006002 
L 875.023612 388.527069 
L 875.941752 387.828087 
L 877.778034 386.818445 
L 878.696174 386.443065 
L 879.614315 385.782915 
L 880.532456 385.329871 
L 882.368737 384.151955 
L 883.286878 383.673023 
L 884.205019 382.702213 
L 885.123159 381.925566 
L 886.0413 381.407801 
L 886.959441 381.12303 
L 888.795722 379.906282 
L 889.713863 379.440294 
L 892.468285 377.304513 
L 893.386425 376.838525 
L 897.058988 374.081426 
L 898.895269 373.032952 
L 899.81341 372.657573 
L 904.404114 369.486262 
L 907.158536 367.842359 
L 908.076676 366.962158 
L 909.912958 365.784243 
L 910.831098 365.098204 
L 911.749239 364.580439 
L 913.58552 363.182474 
L 914.503661 362.276385 
L 916.339942 359.868778 
L 917.258083 359.338069 
L 918.176224 358.444924 
L 919.094364 357.707109 
L 921.848787 354.911178 
L 922.766927 353.84976 
L 923.685068 353.111945 
L 924.603209 352.050527 
L 925.521349 351.597482 
L 926.43949 350.652561 
L 927.357631 349.966523 
L 928.275771 348.840384 
L 930.112053 347.442418 
L 932.866475 345.513744 
L 934.702756 344.284052 
L 935.620897 343.339131 
L 939.293459 341.255127 
L 941.129741 339.326452 
L 944.802304 336.62113 
L 947.556726 334.2653 
L 950.311148 332.013022 
L 952.147429 330.226733 
L 953.06557 329.605415 
L 954.901851 327.909735 
L 955.819992 327.029534 
L 960.410695 323.664062 
L 961.328836 322.926247 
L 963.165117 321.787164 
L 966.83768 319.431333 
L 968.673961 318.279306 
L 969.592102 317.450882 
L 970.510243 316.997838 
L 971.428383 316.234134 
L 973.264665 316.143526 
L 996.218182 316.143526 
L 996.218182 316.143526 
" style="fill:none;stroke:#988ed5;stroke-linecap:square;stroke-width:1.5;"/>
   </g>
   <g id="line2d_38">
    <path clip-path="url(#pfdab194c06)" d="M 695.068038 498.345021 
L 696.904319 498.241468 
L 700.576882 497.943753 
L 703.331304 497.697815 
L 706.085726 497.68487 
L 707.003867 497.542485 
L 708.840148 497.529541 
L 709.758289 497.257714 
L 713.430852 497.18005 
L 717.103414 496.830558 
L 718.939696 496.701117 
L 726.284821 496.494011 
L 729.957384 496.286905 
L 732.711806 496.066855 
L 735.466228 495.497313 
L 737.302509 492.753159 
L 738.22065 491.523467 
L 739.138791 491.070423 
L 740.056931 490.177278 
L 742.811353 488.623983 
L 744.647635 488.067386 
L 745.565775 487.950889 
L 747.402057 487.148353 
L 749.238338 486.125767 
L 751.074619 484.624249 
L 752.910901 483.446334 
L 753.829042 482.980345 
L 754.747182 482.371971 
L 755.665323 481.58238 
L 756.583464 480.974006 
L 758.419745 479.006499 
L 759.337886 478.333405 
L 760.256026 477.906248 
L 761.174167 476.585948 
L 762.092308 475.615138 
L 763.928589 473.129866 
L 764.84673 471.744845 
L 765.76487 470.113885 
L 766.683011 469.479623 
L 767.601152 468.677088 
L 768.519292 468.159323 
L 769.437433 467.033184 
L 770.355574 466.476587 
L 771.273715 465.725827 
L 773.109996 464.677353 
L 775.864418 464.172532 
L 778.61884 463.149947 
L 779.536981 462.606293 
L 780.455121 461.713149 
L 790.554669 460.599954 
L 795.145372 460.457569 
L 798.817935 460.043357 
L 800.654216 459.642089 
L 806.16306 459.422039 
L 807.081201 459.344374 
L 807.999342 459.072547 
L 819.935171 458.800721 
L 820.853311 458.761888 
L 822.689593 458.503006 
L 825.444015 458.386509 
L 826.362155 458.373565 
L 827.280296 458.218235 
L 828.198437 457.63575 
L 831.871 457.596917 
L 832.78914 457.519252 
L 833.707281 457.208593 
L 834.625422 457.182705 
L 835.543562 456.936767 
L 838.297984 456.470778 
L 839.216125 456.147175 
L 845.64311 454.74921 
L 848.397532 453.661903 
L 849.315673 452.949977 
L 850.233813 452.483988 
L 852.988235 450.490593 
L 854.824517 450.141102 
L 856.660798 448.950242 
L 857.578939 447.979433 
L 858.497079 446.477914 
L 860.333361 444.743402 
L 861.251501 444.264469 
L 863.087783 443.707872 
L 864.005923 442.413459 
L 866.760346 440.25179 
L 867.678486 439.772858 
L 868.596627 439.112708 
L 869.514768 438.724384 
L 870.432908 438.193675 
L 871.351049 438.064233 
L 874.105471 437.248754 
L 875.023612 436.510939 
L 875.941752 435.514241 
L 876.859893 434.828202 
L 877.778034 434.439879 
L 879.614315 433.948002 
L 880.532456 433.844449 
L 881.450596 433.326684 
L 883.286878 432.666534 
L 884.205019 431.747501 
L 885.123159 427.579493 
L 888.795722 426.764013 
L 889.713863 426.22036 
L 890.632003 425.107165 
L 891.550144 424.226964 
L 892.468285 423.010217 
L 894.304566 422.039407 
L 895.222707 421.780525 
L 896.140847 420.926213 
L 897.977129 419.968348 
L 899.81341 418.932818 
L 901.649691 418.220891 
L 903.485973 416.24044 
L 904.404114 414.60948 
L 905.322254 414.311765 
L 907.158536 413.366844 
L 908.076676 412.499588 
L 909.912958 411.554667 
L 913.58552 409.755433 
L 916.339942 409.470663 
L 917.258083 409.405942 
L 918.176224 409.017618 
L 920.012505 408.810512 
L 921.848787 408.61635 
L 922.766927 408.538686 
L 924.603209 407.878535 
L 925.521349 406.765341 
L 927.357631 406.234632 
L 928.275771 405.846308 
L 929.193912 405.186157 
L 930.112053 404.836666 
L 931.030193 404.616616 
L 931.948334 404.564839 
L 932.866475 404.267125 
L 933.784615 403.81408 
L 934.702756 403.710527 
L 935.620897 403.15393 
L 936.539037 402.907992 
L 937.457178 402.390227 
L 938.375319 402.183121 
L 939.293459 401.134647 
L 940.2116 400.370943 
L 941.129741 399.982619 
L 942.047882 399.257748 
L 942.966022 398.817648 
L 943.884163 398.066889 
L 944.802304 397.562068 
L 945.720444 396.164103 
L 947.556726 394.662584 
L 948.474866 394.222484 
L 949.393007 392.009039 
L 950.311148 391.297112 
L 951.229288 390.416911 
L 952.147429 389.886202 
L 953.98371 389.213108 
L 954.901851 388.397628 
L 955.819992 388.125801 
L 956.738132 387.724534 
L 957.656273 387.504484 
L 960.410695 385.459312 
L 961.328836 385.26515 
L 962.246977 384.799161 
L 964.083258 383.56947 
L 965.919539 382.999928 
L 966.83768 382.922263 
L 967.755821 382.663381 
L 968.673961 382.53394 
L 970.510243 381.485466 
L 971.428383 380.46288 
L 972.346524 380.113388 
L 996.218182 380.113388 
L 996.218182 380.113388 
" style="fill:none;stroke:#777777;stroke-linecap:square;stroke-width:1.5;"/>
   </g>
   <g id="patch_3">
    <path d="M 144 518.4 
L 144 77.76 
" style="fill:none;stroke:#ffffff;stroke-linecap:square;stroke-linejoin:miter;"/>
   </g>
   <g id="patch_4">
    <path d="M 1036.8 518.4 
L 1036.8 77.76 
" style="fill:none;stroke:#ffffff;stroke-linecap:square;stroke-linejoin:miter;"/>
   </g>
   <g id="patch_5">
    <path d="M 144 518.4 
L 1036.8 518.4 
" style="fill:none;stroke:#ffffff;stroke-linecap:square;stroke-linejoin:miter;"/>
   </g>
   <g id="patch_6">
    <path d="M 144 77.76 
L 1036.8 77.76 
" style="fill:none;stroke:#ffffff;stroke-linecap:square;stroke-linejoin:miter;"/>
   </g>
   <g id="legend_1">
    <g id="patch_7">
     <path d="M 153.1 259.894062 
L 493.78125 259.894062 
Q 496.38125 259.894062 496.38125 257.294062 
L 496.38125 86.86 
Q 496.38125 84.26 493.78125 84.26 
L 153.1 84.26 
Q 150.5 84.26 150.5 86.86 
L 150.5 257.294062 
Q 150.5 259.894062 153.1 259.894062 
z
" style="fill:#e5e5e5;opacity:0.8;stroke:#cccccc;stroke-linejoin:miter;stroke-width:0.5;"/>
    </g>
    <g id="line2d_39">
     <path d="M 155.7 94.787969 
L 181.7 94.787969 
" style="fill:none;stroke:#e24a33;stroke-linecap:square;stroke-width:1.5;"/>
    </g>
    <g id="line2d_40"/>
    <g id="text_18">
     <!-- ATTILA HILDMANN  -->
     <g transform="translate(192.1 99.337969)scale(0.13 -0.13)">
      <defs>
       <path d="M 34.1875 63.1875 
L 20.796875 26.90625 
L 47.609375 26.90625 
z
M 28.609375 72.90625 
L 39.796875 72.90625 
L 67.578125 0 
L 57.328125 0 
L 50.6875 18.703125 
L 17.828125 18.703125 
L 11.1875 0 
L 0.78125 0 
z
" id="DejaVuSans-65"/>
       <path d="M -0.296875 72.90625 
L 61.375 72.90625 
L 61.375 64.59375 
L 35.5 64.59375 
L 35.5 0 
L 25.59375 0 
L 25.59375 64.59375 
L -0.296875 64.59375 
z
" id="DejaVuSans-84"/>
       <path d="M 9.8125 72.90625 
L 19.671875 72.90625 
L 19.671875 0 
L 9.8125 0 
z
" id="DejaVuSans-73"/>
       <path d="M 9.8125 72.90625 
L 19.671875 72.90625 
L 19.671875 8.296875 
L 55.171875 8.296875 
L 55.171875 0 
L 9.8125 0 
z
" id="DejaVuSans-76"/>
       <path id="DejaVuSans-32"/>
       <path d="M 9.8125 72.90625 
L 19.671875 72.90625 
L 19.671875 43.015625 
L 55.515625 43.015625 
L 55.515625 72.90625 
L 65.375 72.90625 
L 65.375 0 
L 55.515625 0 
L 55.515625 34.71875 
L 19.671875 34.71875 
L 19.671875 0 
L 9.8125 0 
z
" id="DejaVuSans-72"/>
       <path d="M 19.671875 64.796875 
L 19.671875 8.109375 
L 31.59375 8.109375 
Q 46.6875 8.109375 53.6875 14.9375 
Q 60.6875 21.78125 60.6875 36.53125 
Q 60.6875 51.171875 53.6875 57.984375 
Q 46.6875 64.796875 31.59375 64.796875 
z
M 9.8125 72.90625 
L 30.078125 72.90625 
Q 51.265625 72.90625 61.171875 64.09375 
Q 71.09375 55.28125 71.09375 36.53125 
Q 71.09375 17.671875 61.125 8.828125 
Q 51.171875 0 30.078125 0 
L 9.8125 0 
z
" id="DejaVuSans-68"/>
       <path d="M 9.8125 72.90625 
L 24.515625 72.90625 
L 43.109375 23.296875 
L 61.8125 72.90625 
L 76.515625 72.90625 
L 76.515625 0 
L 66.890625 0 
L 66.890625 64.015625 
L 48.09375 14.015625 
L 38.1875 14.015625 
L 19.390625 64.015625 
L 19.390625 0 
L 9.8125 0 
z
" id="DejaVuSans-77"/>
       <path d="M 9.8125 72.90625 
L 23.09375 72.90625 
L 55.421875 11.921875 
L 55.421875 72.90625 
L 64.984375 72.90625 
L 64.984375 0 
L 51.703125 0 
L 19.390625 60.984375 
L 19.390625 0 
L 9.8125 0 
z
" id="DejaVuSans-78"/>
      </defs>
      <use xlink:href="#DejaVuSans-65"/>
      <use x="60.658203" xlink:href="#DejaVuSans-84"/>
      <use x="119.992188" xlink:href="#DejaVuSans-84"/>
      <use x="181.076172" xlink:href="#DejaVuSans-73"/>
      <use x="210.568359" xlink:href="#DejaVuSans-76"/>
      <use x="268.53125" xlink:href="#DejaVuSans-65"/>
      <use x="336.939453" xlink:href="#DejaVuSans-32"/>
      <use x="368.726562" xlink:href="#DejaVuSans-72"/>
      <use x="443.921875" xlink:href="#DejaVuSans-73"/>
      <use x="473.414062" xlink:href="#DejaVuSans-76"/>
      <use x="529.126953" xlink:href="#DejaVuSans-68"/>
      <use x="606.128906" xlink:href="#DejaVuSans-77"/>
      <use x="692.408203" xlink:href="#DejaVuSans-65"/>
      <use x="760.816406" xlink:href="#DejaVuSans-78"/>
      <use x="835.621094" xlink:href="#DejaVuSans-78"/>
      <use x="910.425781" xlink:href="#DejaVuSans-32"/>
     </g>
    </g>
    <g id="line2d_41">
     <path d="M 155.7 113.869531 
L 181.7 113.869531 
" style="fill:none;stroke:#348abd;stroke-linecap:square;stroke-width:1.5;"/>
    </g>
    <g id="line2d_42"/>
    <g id="text_19">
     <!-- Oliver Janich oeffentlich -->
     <g transform="translate(192.1 118.419531)scale(0.13 -0.13)">
      <defs>
       <path d="M 39.40625 66.21875 
Q 28.65625 66.21875 22.328125 58.203125 
Q 16.015625 50.203125 16.015625 36.375 
Q 16.015625 22.609375 22.328125 14.59375 
Q 28.65625 6.59375 39.40625 6.59375 
Q 50.140625 6.59375 56.421875 14.59375 
Q 62.703125 22.609375 62.703125 36.375 
Q 62.703125 50.203125 56.421875 58.203125 
Q 50.140625 66.21875 39.40625 66.21875 
z
M 39.40625 74.21875 
Q 54.734375 74.21875 63.90625 63.9375 
Q 73.09375 53.65625 73.09375 36.375 
Q 73.09375 19.140625 63.90625 8.859375 
Q 54.734375 -1.421875 39.40625 -1.421875 
Q 24.03125 -1.421875 14.8125 8.828125 
Q 5.609375 19.09375 5.609375 36.375 
Q 5.609375 53.65625 14.8125 63.9375 
Q 24.03125 74.21875 39.40625 74.21875 
z
" id="DejaVuSans-79"/>
       <path d="M 9.421875 75.984375 
L 18.40625 75.984375 
L 18.40625 0 
L 9.421875 0 
z
" id="DejaVuSans-108"/>
       <path d="M 9.421875 54.6875 
L 18.40625 54.6875 
L 18.40625 0 
L 9.421875 0 
z
M 9.421875 75.984375 
L 18.40625 75.984375 
L 18.40625 64.59375 
L 9.421875 64.59375 
z
" id="DejaVuSans-105"/>
       <path d="M 2.984375 54.6875 
L 12.5 54.6875 
L 29.59375 8.796875 
L 46.6875 54.6875 
L 56.203125 54.6875 
L 35.6875 0 
L 23.484375 0 
z
" id="DejaVuSans-118"/>
       <path d="M 56.203125 29.59375 
L 56.203125 25.203125 
L 14.890625 25.203125 
Q 15.484375 15.921875 20.484375 11.0625 
Q 25.484375 6.203125 34.421875 6.203125 
Q 39.59375 6.203125 44.453125 7.46875 
Q 49.3125 8.734375 54.109375 11.28125 
L 54.109375 2.78125 
Q 49.265625 0.734375 44.1875 -0.34375 
Q 39.109375 -1.421875 33.890625 -1.421875 
Q 20.796875 -1.421875 13.15625 6.1875 
Q 5.515625 13.8125 5.515625 26.8125 
Q 5.515625 40.234375 12.765625 48.109375 
Q 20.015625 56 32.328125 56 
Q 43.359375 56 49.78125 48.890625 
Q 56.203125 41.796875 56.203125 29.59375 
z
M 47.21875 32.234375 
Q 47.125 39.59375 43.09375 43.984375 
Q 39.0625 48.390625 32.421875 48.390625 
Q 24.90625 48.390625 20.390625 44.140625 
Q 15.875 39.890625 15.1875 32.171875 
z
" id="DejaVuSans-101"/>
       <path d="M 41.109375 46.296875 
Q 39.59375 47.171875 37.8125 47.578125 
Q 36.03125 48 33.890625 48 
Q 26.265625 48 22.1875 43.046875 
Q 18.109375 38.09375 18.109375 28.8125 
L 18.109375 0 
L 9.078125 0 
L 9.078125 54.6875 
L 18.109375 54.6875 
L 18.109375 46.1875 
Q 20.953125 51.171875 25.484375 53.578125 
Q 30.03125 56 36.53125 56 
Q 37.453125 56 38.578125 55.875 
Q 39.703125 55.765625 41.0625 55.515625 
z
" id="DejaVuSans-114"/>
       <path d="M 9.8125 72.90625 
L 19.671875 72.90625 
L 19.671875 5.078125 
Q 19.671875 -8.109375 14.671875 -14.0625 
Q 9.671875 -20.015625 -1.421875 -20.015625 
L -5.171875 -20.015625 
L -5.171875 -11.71875 
L -2.09375 -11.71875 
Q 4.4375 -11.71875 7.125 -8.046875 
Q 9.8125 -4.390625 9.8125 5.078125 
z
" id="DejaVuSans-74"/>
       <path d="M 34.28125 27.484375 
Q 23.390625 27.484375 19.1875 25 
Q 14.984375 22.515625 14.984375 16.5 
Q 14.984375 11.71875 18.140625 8.90625 
Q 21.296875 6.109375 26.703125 6.109375 
Q 34.1875 6.109375 38.703125 11.40625 
Q 43.21875 16.703125 43.21875 25.484375 
L 43.21875 27.484375 
z
M 52.203125 31.203125 
L 52.203125 0 
L 43.21875 0 
L 43.21875 8.296875 
Q 40.140625 3.328125 35.546875 0.953125 
Q 30.953125 -1.421875 24.3125 -1.421875 
Q 15.921875 -1.421875 10.953125 3.296875 
Q 6 8.015625 6 15.921875 
Q 6 25.140625 12.171875 29.828125 
Q 18.359375 34.515625 30.609375 34.515625 
L 43.21875 34.515625 
L 43.21875 35.40625 
Q 43.21875 41.609375 39.140625 45 
Q 35.0625 48.390625 27.6875 48.390625 
Q 23 48.390625 18.546875 47.265625 
Q 14.109375 46.140625 10.015625 43.890625 
L 10.015625 52.203125 
Q 14.9375 54.109375 19.578125 55.046875 
Q 24.21875 56 28.609375 56 
Q 40.484375 56 46.34375 49.84375 
Q 52.203125 43.703125 52.203125 31.203125 
z
" id="DejaVuSans-97"/>
       <path d="M 54.890625 33.015625 
L 54.890625 0 
L 45.90625 0 
L 45.90625 32.71875 
Q 45.90625 40.484375 42.875 44.328125 
Q 39.84375 48.1875 33.796875 48.1875 
Q 26.515625 48.1875 22.3125 43.546875 
Q 18.109375 38.921875 18.109375 30.90625 
L 18.109375 0 
L 9.078125 0 
L 9.078125 54.6875 
L 18.109375 54.6875 
L 18.109375 46.1875 
Q 21.34375 51.125 25.703125 53.5625 
Q 30.078125 56 35.796875 56 
Q 45.21875 56 50.046875 50.171875 
Q 54.890625 44.34375 54.890625 33.015625 
z
" id="DejaVuSans-110"/>
       <path d="M 48.78125 52.59375 
L 48.78125 44.1875 
Q 44.96875 46.296875 41.140625 47.34375 
Q 37.3125 48.390625 33.40625 48.390625 
Q 24.65625 48.390625 19.8125 42.84375 
Q 14.984375 37.3125 14.984375 27.296875 
Q 14.984375 17.28125 19.8125 11.734375 
Q 24.65625 6.203125 33.40625 6.203125 
Q 37.3125 6.203125 41.140625 7.25 
Q 44.96875 8.296875 48.78125 10.40625 
L 48.78125 2.09375 
Q 45.015625 0.34375 40.984375 -0.53125 
Q 36.96875 -1.421875 32.421875 -1.421875 
Q 20.0625 -1.421875 12.78125 6.34375 
Q 5.515625 14.109375 5.515625 27.296875 
Q 5.515625 40.671875 12.859375 48.328125 
Q 20.21875 56 33.015625 56 
Q 37.15625 56 41.109375 55.140625 
Q 45.0625 54.296875 48.78125 52.59375 
z
" id="DejaVuSans-99"/>
       <path d="M 54.890625 33.015625 
L 54.890625 0 
L 45.90625 0 
L 45.90625 32.71875 
Q 45.90625 40.484375 42.875 44.328125 
Q 39.84375 48.1875 33.796875 48.1875 
Q 26.515625 48.1875 22.3125 43.546875 
Q 18.109375 38.921875 18.109375 30.90625 
L 18.109375 0 
L 9.078125 0 
L 9.078125 75.984375 
L 18.109375 75.984375 
L 18.109375 46.1875 
Q 21.34375 51.125 25.703125 53.5625 
Q 30.078125 56 35.796875 56 
Q 45.21875 56 50.046875 50.171875 
Q 54.890625 44.34375 54.890625 33.015625 
z
" id="DejaVuSans-104"/>
       <path d="M 30.609375 48.390625 
Q 23.390625 48.390625 19.1875 42.75 
Q 14.984375 37.109375 14.984375 27.296875 
Q 14.984375 17.484375 19.15625 11.84375 
Q 23.34375 6.203125 30.609375 6.203125 
Q 37.796875 6.203125 41.984375 11.859375 
Q 46.1875 17.53125 46.1875 27.296875 
Q 46.1875 37.015625 41.984375 42.703125 
Q 37.796875 48.390625 30.609375 48.390625 
z
M 30.609375 56 
Q 42.328125 56 49.015625 48.375 
Q 55.71875 40.765625 55.71875 27.296875 
Q 55.71875 13.875 49.015625 6.21875 
Q 42.328125 -1.421875 30.609375 -1.421875 
Q 18.84375 -1.421875 12.171875 6.21875 
Q 5.515625 13.875 5.515625 27.296875 
Q 5.515625 40.765625 12.171875 48.375 
Q 18.84375 56 30.609375 56 
z
" id="DejaVuSans-111"/>
       <path d="M 37.109375 75.984375 
L 37.109375 68.5 
L 28.515625 68.5 
Q 23.6875 68.5 21.796875 66.546875 
Q 19.921875 64.59375 19.921875 59.515625 
L 19.921875 54.6875 
L 34.71875 54.6875 
L 34.71875 47.703125 
L 19.921875 47.703125 
L 19.921875 0 
L 10.890625 0 
L 10.890625 47.703125 
L 2.296875 47.703125 
L 2.296875 54.6875 
L 10.890625 54.6875 
L 10.890625 58.5 
Q 10.890625 67.625 15.140625 71.796875 
Q 19.390625 75.984375 28.609375 75.984375 
z
" id="DejaVuSans-102"/>
       <path d="M 18.3125 70.21875 
L 18.3125 54.6875 
L 36.8125 54.6875 
L 36.8125 47.703125 
L 18.3125 47.703125 
L 18.3125 18.015625 
Q 18.3125 11.328125 20.140625 9.421875 
Q 21.96875 7.515625 27.59375 7.515625 
L 36.8125 7.515625 
L 36.8125 0 
L 27.59375 0 
Q 17.1875 0 13.234375 3.875 
Q 9.28125 7.765625 9.28125 18.015625 
L 9.28125 47.703125 
L 2.6875 47.703125 
L 2.6875 54.6875 
L 9.28125 54.6875 
L 9.28125 70.21875 
z
" id="DejaVuSans-116"/>
      </defs>
      <use xlink:href="#DejaVuSans-79"/>
      <use x="78.710938" xlink:href="#DejaVuSans-108"/>
      <use x="106.494141" xlink:href="#DejaVuSans-105"/>
      <use x="134.277344" xlink:href="#DejaVuSans-118"/>
      <use x="193.457031" xlink:href="#DejaVuSans-101"/>
      <use x="254.980469" xlink:href="#DejaVuSans-114"/>
      <use x="296.09375" xlink:href="#DejaVuSans-32"/>
      <use x="327.880859" xlink:href="#DejaVuSans-74"/>
      <use x="357.373047" xlink:href="#DejaVuSans-97"/>
      <use x="418.652344" xlink:href="#DejaVuSans-110"/>
      <use x="482.03125" xlink:href="#DejaVuSans-105"/>
      <use x="509.814453" xlink:href="#DejaVuSans-99"/>
      <use x="564.794922" xlink:href="#DejaVuSans-104"/>
      <use x="628.173828" xlink:href="#DejaVuSans-32"/>
      <use x="659.960938" xlink:href="#DejaVuSans-111"/>
      <use x="721.142578" xlink:href="#DejaVuSans-101"/>
      <use x="782.666016" xlink:href="#DejaVuSans-102"/>
      <use x="817.871094" xlink:href="#DejaVuSans-102"/>
      <use x="853.076172" xlink:href="#DejaVuSans-101"/>
      <use x="914.599609" xlink:href="#DejaVuSans-110"/>
      <use x="977.978516" xlink:href="#DejaVuSans-116"/>
      <use x="1017.1875" xlink:href="#DejaVuSans-108"/>
      <use x="1044.970703" xlink:href="#DejaVuSans-105"/>
      <use x="1072.753906" xlink:href="#DejaVuSans-99"/>
      <use x="1127.734375" xlink:href="#DejaVuSans-104"/>
     </g>
    </g>
    <g id="line2d_43">
     <path d="M 155.7 132.951094 
L 181.7 132.951094 
" style="fill:none;stroke:#988ed5;stroke-linecap:square;stroke-width:1.5;"/>
    </g>
    <g id="line2d_44"/>
    <g id="text_20">
     <!-- Eva Herman Offiziell -->
     <g transform="translate(192.1 137.501094)scale(0.13 -0.13)">
      <defs>
       <path d="M 9.8125 72.90625 
L 55.90625 72.90625 
L 55.90625 64.59375 
L 19.671875 64.59375 
L 19.671875 43.015625 
L 54.390625 43.015625 
L 54.390625 34.71875 
L 19.671875 34.71875 
L 19.671875 8.296875 
L 56.78125 8.296875 
L 56.78125 0 
L 9.8125 0 
z
" id="DejaVuSans-69"/>
       <path d="M 52 44.1875 
Q 55.375 50.25 60.0625 53.125 
Q 64.75 56 71.09375 56 
Q 79.640625 56 84.28125 50.015625 
Q 88.921875 44.046875 88.921875 33.015625 
L 88.921875 0 
L 79.890625 0 
L 79.890625 32.71875 
Q 79.890625 40.578125 77.09375 44.375 
Q 74.3125 48.1875 68.609375 48.1875 
Q 61.625 48.1875 57.5625 43.546875 
Q 53.515625 38.921875 53.515625 30.90625 
L 53.515625 0 
L 44.484375 0 
L 44.484375 32.71875 
Q 44.484375 40.625 41.703125 44.40625 
Q 38.921875 48.1875 33.109375 48.1875 
Q 26.21875 48.1875 22.15625 43.53125 
Q 18.109375 38.875 18.109375 30.90625 
L 18.109375 0 
L 9.078125 0 
L 9.078125 54.6875 
L 18.109375 54.6875 
L 18.109375 46.1875 
Q 21.1875 51.21875 25.484375 53.609375 
Q 29.78125 56 35.6875 56 
Q 41.65625 56 45.828125 52.96875 
Q 50 49.953125 52 44.1875 
z
" id="DejaVuSans-109"/>
       <path d="M 5.515625 54.6875 
L 48.1875 54.6875 
L 48.1875 46.484375 
L 14.40625 7.171875 
L 48.1875 7.171875 
L 48.1875 0 
L 4.296875 0 
L 4.296875 8.203125 
L 38.09375 47.515625 
L 5.515625 47.515625 
z
" id="DejaVuSans-122"/>
      </defs>
      <use xlink:href="#DejaVuSans-69"/>
      <use x="63.183594" xlink:href="#DejaVuSans-118"/>
      <use x="122.363281" xlink:href="#DejaVuSans-97"/>
      <use x="183.642578" xlink:href="#DejaVuSans-32"/>
      <use x="215.429688" xlink:href="#DejaVuSans-72"/>
      <use x="290.625" xlink:href="#DejaVuSans-101"/>
      <use x="352.148438" xlink:href="#DejaVuSans-114"/>
      <use x="391.511719" xlink:href="#DejaVuSans-109"/>
      <use x="488.923828" xlink:href="#DejaVuSans-97"/>
      <use x="550.203125" xlink:href="#DejaVuSans-110"/>
      <use x="613.582031" xlink:href="#DejaVuSans-32"/>
      <use x="645.369141" xlink:href="#DejaVuSans-79"/>
      <use x="724.080078" xlink:href="#DejaVuSans-102"/>
      <use x="759.285156" xlink:href="#DejaVuSans-102"/>
      <use x="794.490234" xlink:href="#DejaVuSans-105"/>
      <use x="822.273438" xlink:href="#DejaVuSans-122"/>
      <use x="874.763672" xlink:href="#DejaVuSans-105"/>
      <use x="902.546875" xlink:href="#DejaVuSans-101"/>
      <use x="964.070312" xlink:href="#DejaVuSans-108"/>
      <use x="991.853516" xlink:href="#DejaVuSans-108"/>
     </g>
    </g>
    <g id="line2d_45">
     <path d="M 155.7 152.032656 
L 181.7 152.032656 
" style="fill:none;stroke:#777777;stroke-linecap:square;stroke-width:1.5;"/>
    </g>
    <g id="line2d_46"/>
    <g id="text_21">
     <!-- Xavier Naidoo inoffiziell -->
     <g transform="translate(192.1 156.582656)scale(0.13 -0.13)">
      <defs>
       <path d="M 6.296875 72.90625 
L 16.890625 72.90625 
L 35.015625 45.796875 
L 53.21875 72.90625 
L 63.8125 72.90625 
L 40.375 37.890625 
L 65.375 0 
L 54.78125 0 
L 34.28125 31 
L 13.625 0 
L 2.984375 0 
L 29 38.921875 
z
" id="DejaVuSans-88"/>
       <path d="M 45.40625 46.390625 
L 45.40625 75.984375 
L 54.390625 75.984375 
L 54.390625 0 
L 45.40625 0 
L 45.40625 8.203125 
Q 42.578125 3.328125 38.25 0.953125 
Q 33.9375 -1.421875 27.875 -1.421875 
Q 17.96875 -1.421875 11.734375 6.484375 
Q 5.515625 14.40625 5.515625 27.296875 
Q 5.515625 40.1875 11.734375 48.09375 
Q 17.96875 56 27.875 56 
Q 33.9375 56 38.25 53.625 
Q 42.578125 51.265625 45.40625 46.390625 
z
M 14.796875 27.296875 
Q 14.796875 17.390625 18.875 11.75 
Q 22.953125 6.109375 30.078125 6.109375 
Q 37.203125 6.109375 41.296875 11.75 
Q 45.40625 17.390625 45.40625 27.296875 
Q 45.40625 37.203125 41.296875 42.84375 
Q 37.203125 48.484375 30.078125 48.484375 
Q 22.953125 48.484375 18.875 42.84375 
Q 14.796875 37.203125 14.796875 27.296875 
z
" id="DejaVuSans-100"/>
      </defs>
      <use xlink:href="#DejaVuSans-88"/>
      <use x="68.505859" xlink:href="#DejaVuSans-97"/>
      <use x="129.785156" xlink:href="#DejaVuSans-118"/>
      <use x="188.964844" xlink:href="#DejaVuSans-105"/>
      <use x="216.748047" xlink:href="#DejaVuSans-101"/>
      <use x="278.271484" xlink:href="#DejaVuSans-114"/>
      <use x="319.384766" xlink:href="#DejaVuSans-32"/>
      <use x="351.171875" xlink:href="#DejaVuSans-78"/>
      <use x="425.976562" xlink:href="#DejaVuSans-97"/>
      <use x="487.255859" xlink:href="#DejaVuSans-105"/>
      <use x="515.039062" xlink:href="#DejaVuSans-100"/>
      <use x="578.515625" xlink:href="#DejaVuSans-111"/>
      <use x="639.697266" xlink:href="#DejaVuSans-111"/>
      <use x="700.878906" xlink:href="#DejaVuSans-32"/>
      <use x="732.666016" xlink:href="#DejaVuSans-105"/>
      <use x="760.449219" xlink:href="#DejaVuSans-110"/>
      <use x="823.828125" xlink:href="#DejaVuSans-111"/>
      <use x="885.009766" xlink:href="#DejaVuSans-102"/>
      <use x="920.214844" xlink:href="#DejaVuSans-102"/>
      <use x="955.419922" xlink:href="#DejaVuSans-105"/>
      <use x="983.203125" xlink:href="#DejaVuSans-122"/>
      <use x="1035.693359" xlink:href="#DejaVuSans-105"/>
      <use x="1063.476562" xlink:href="#DejaVuSans-101"/>
      <use x="1125" xlink:href="#DejaVuSans-108"/>
      <use x="1152.783203" xlink:href="#DejaVuSans-108"/>
     </g>
    </g>
    <g id="line2d_47">
     <path d="M 155.7 171.114219 
L 181.7 171.114219 
" style="fill:none;stroke:#ffa500;stroke-dasharray:5.55,2.4;stroke-dashoffset:0;stroke-width:1.5;"/>
    </g>
    <g id="text_22">
     <!-- Global Compact for Migration (10.12.2018) -->
     <g transform="translate(192.1 175.664219)scale(0.13 -0.13)">
      <defs>
       <path d="M 59.515625 10.40625 
L 59.515625 29.984375 
L 43.40625 29.984375 
L 43.40625 38.09375 
L 69.28125 38.09375 
L 69.28125 6.78125 
Q 63.578125 2.734375 56.6875 0.65625 
Q 49.8125 -1.421875 42 -1.421875 
Q 24.90625 -1.421875 15.25 8.5625 
Q 5.609375 18.5625 5.609375 36.375 
Q 5.609375 54.25 15.25 64.234375 
Q 24.90625 74.21875 42 74.21875 
Q 49.125 74.21875 55.546875 72.453125 
Q 61.96875 70.703125 67.390625 67.28125 
L 67.390625 56.78125 
Q 61.921875 61.421875 55.765625 63.765625 
Q 49.609375 66.109375 42.828125 66.109375 
Q 29.4375 66.109375 22.71875 58.640625 
Q 16.015625 51.171875 16.015625 36.375 
Q 16.015625 21.625 22.71875 14.15625 
Q 29.4375 6.6875 42.828125 6.6875 
Q 48.046875 6.6875 52.140625 7.59375 
Q 56.25 8.5 59.515625 10.40625 
z
" id="DejaVuSans-71"/>
       <path d="M 48.6875 27.296875 
Q 48.6875 37.203125 44.609375 42.84375 
Q 40.53125 48.484375 33.40625 48.484375 
Q 26.265625 48.484375 22.1875 42.84375 
Q 18.109375 37.203125 18.109375 27.296875 
Q 18.109375 17.390625 22.1875 11.75 
Q 26.265625 6.109375 33.40625 6.109375 
Q 40.53125 6.109375 44.609375 11.75 
Q 48.6875 17.390625 48.6875 27.296875 
z
M 18.109375 46.390625 
Q 20.953125 51.265625 25.265625 53.625 
Q 29.59375 56 35.59375 56 
Q 45.5625 56 51.78125 48.09375 
Q 58.015625 40.1875 58.015625 27.296875 
Q 58.015625 14.40625 51.78125 6.484375 
Q 45.5625 -1.421875 35.59375 -1.421875 
Q 29.59375 -1.421875 25.265625 0.953125 
Q 20.953125 3.328125 18.109375 8.203125 
L 18.109375 0 
L 9.078125 0 
L 9.078125 75.984375 
L 18.109375 75.984375 
z
" id="DejaVuSans-98"/>
       <path d="M 64.40625 67.28125 
L 64.40625 56.890625 
Q 59.421875 61.53125 53.78125 63.8125 
Q 48.140625 66.109375 41.796875 66.109375 
Q 29.296875 66.109375 22.65625 58.46875 
Q 16.015625 50.828125 16.015625 36.375 
Q 16.015625 21.96875 22.65625 14.328125 
Q 29.296875 6.6875 41.796875 6.6875 
Q 48.140625 6.6875 53.78125 8.984375 
Q 59.421875 11.28125 64.40625 15.921875 
L 64.40625 5.609375 
Q 59.234375 2.09375 53.4375 0.328125 
Q 47.65625 -1.421875 41.21875 -1.421875 
Q 24.65625 -1.421875 15.125 8.703125 
Q 5.609375 18.84375 5.609375 36.375 
Q 5.609375 53.953125 15.125 64.078125 
Q 24.65625 74.21875 41.21875 74.21875 
Q 47.75 74.21875 53.53125 72.484375 
Q 59.328125 70.75 64.40625 67.28125 
z
" id="DejaVuSans-67"/>
       <path d="M 18.109375 8.203125 
L 18.109375 -20.796875 
L 9.078125 -20.796875 
L 9.078125 54.6875 
L 18.109375 54.6875 
L 18.109375 46.390625 
Q 20.953125 51.265625 25.265625 53.625 
Q 29.59375 56 35.59375 56 
Q 45.5625 56 51.78125 48.09375 
Q 58.015625 40.1875 58.015625 27.296875 
Q 58.015625 14.40625 51.78125 6.484375 
Q 45.5625 -1.421875 35.59375 -1.421875 
Q 29.59375 -1.421875 25.265625 0.953125 
Q 20.953125 3.328125 18.109375 8.203125 
z
M 48.6875 27.296875 
Q 48.6875 37.203125 44.609375 42.84375 
Q 40.53125 48.484375 33.40625 48.484375 
Q 26.265625 48.484375 22.1875 42.84375 
Q 18.109375 37.203125 18.109375 27.296875 
Q 18.109375 17.390625 22.1875 11.75 
Q 26.265625 6.109375 33.40625 6.109375 
Q 40.53125 6.109375 44.609375 11.75 
Q 48.6875 17.390625 48.6875 27.296875 
z
" id="DejaVuSans-112"/>
       <path d="M 45.40625 27.984375 
Q 45.40625 37.75 41.375 43.109375 
Q 37.359375 48.484375 30.078125 48.484375 
Q 22.859375 48.484375 18.828125 43.109375 
Q 14.796875 37.75 14.796875 27.984375 
Q 14.796875 18.265625 18.828125 12.890625 
Q 22.859375 7.515625 30.078125 7.515625 
Q 37.359375 7.515625 41.375 12.890625 
Q 45.40625 18.265625 45.40625 27.984375 
z
M 54.390625 6.78125 
Q 54.390625 -7.171875 48.1875 -13.984375 
Q 42 -20.796875 29.203125 -20.796875 
Q 24.46875 -20.796875 20.265625 -20.09375 
Q 16.0625 -19.390625 12.109375 -17.921875 
L 12.109375 -9.1875 
Q 16.0625 -11.328125 19.921875 -12.34375 
Q 23.78125 -13.375 27.78125 -13.375 
Q 36.625 -13.375 41.015625 -8.765625 
Q 45.40625 -4.15625 45.40625 5.171875 
L 45.40625 9.625 
Q 42.625 4.78125 38.28125 2.390625 
Q 33.9375 0 27.875 0 
Q 17.828125 0 11.671875 7.65625 
Q 5.515625 15.328125 5.515625 27.984375 
Q 5.515625 40.671875 11.671875 48.328125 
Q 17.828125 56 27.875 56 
Q 33.9375 56 38.28125 53.609375 
Q 42.625 51.21875 45.40625 46.390625 
L 45.40625 54.6875 
L 54.390625 54.6875 
z
" id="DejaVuSans-103"/>
       <path d="M 31 75.875 
Q 24.46875 64.65625 21.28125 53.65625 
Q 18.109375 42.671875 18.109375 31.390625 
Q 18.109375 20.125 21.3125 9.0625 
Q 24.515625 -2 31 -13.1875 
L 23.1875 -13.1875 
Q 15.875 -1.703125 12.234375 9.375 
Q 8.59375 20.453125 8.59375 31.390625 
Q 8.59375 42.28125 12.203125 53.3125 
Q 15.828125 64.359375 23.1875 75.875 
z
" id="DejaVuSans-40"/>
       <path d="M 10.6875 12.40625 
L 21 12.40625 
L 21 0 
L 10.6875 0 
z
" id="DejaVuSans-46"/>
       <path d="M 8.015625 75.875 
L 15.828125 75.875 
Q 23.140625 64.359375 26.78125 53.3125 
Q 30.421875 42.28125 30.421875 31.390625 
Q 30.421875 20.453125 26.78125 9.375 
Q 23.140625 -1.703125 15.828125 -13.1875 
L 8.015625 -13.1875 
Q 14.5 -2 17.703125 9.0625 
Q 20.90625 20.125 20.90625 31.390625 
Q 20.90625 42.671875 17.703125 53.65625 
Q 14.5 64.65625 8.015625 75.875 
z
" id="DejaVuSans-41"/>
      </defs>
      <use xlink:href="#DejaVuSans-71"/>
      <use x="77.490234" xlink:href="#DejaVuSans-108"/>
      <use x="105.273438" xlink:href="#DejaVuSans-111"/>
      <use x="166.455078" xlink:href="#DejaVuSans-98"/>
      <use x="229.931641" xlink:href="#DejaVuSans-97"/>
      <use x="291.210938" xlink:href="#DejaVuSans-108"/>
      <use x="318.994141" xlink:href="#DejaVuSans-32"/>
      <use x="350.78125" xlink:href="#DejaVuSans-67"/>
      <use x="420.605469" xlink:href="#DejaVuSans-111"/>
      <use x="481.787109" xlink:href="#DejaVuSans-109"/>
      <use x="579.199219" xlink:href="#DejaVuSans-112"/>
      <use x="642.675781" xlink:href="#DejaVuSans-97"/>
      <use x="703.955078" xlink:href="#DejaVuSans-99"/>
      <use x="758.935547" xlink:href="#DejaVuSans-116"/>
      <use x="798.144531" xlink:href="#DejaVuSans-32"/>
      <use x="829.931641" xlink:href="#DejaVuSans-102"/>
      <use x="865.136719" xlink:href="#DejaVuSans-111"/>
      <use x="926.318359" xlink:href="#DejaVuSans-114"/>
      <use x="967.431641" xlink:href="#DejaVuSans-32"/>
      <use x="999.21875" xlink:href="#DejaVuSans-77"/>
      <use x="1085.498047" xlink:href="#DejaVuSans-105"/>
      <use x="1113.28125" xlink:href="#DejaVuSans-103"/>
      <use x="1176.757812" xlink:href="#DejaVuSans-114"/>
      <use x="1217.871094" xlink:href="#DejaVuSans-97"/>
      <use x="1279.150391" xlink:href="#DejaVuSans-116"/>
      <use x="1318.359375" xlink:href="#DejaVuSans-105"/>
      <use x="1346.142578" xlink:href="#DejaVuSans-111"/>
      <use x="1407.324219" xlink:href="#DejaVuSans-110"/>
      <use x="1470.703125" xlink:href="#DejaVuSans-32"/>
      <use x="1502.490234" xlink:href="#DejaVuSans-40"/>
      <use x="1541.503906" xlink:href="#DejaVuSans-49"/>
      <use x="1605.126953" xlink:href="#DejaVuSans-48"/>
      <use x="1668.75" xlink:href="#DejaVuSans-46"/>
      <use x="1700.537109" xlink:href="#DejaVuSans-49"/>
      <use x="1764.160156" xlink:href="#DejaVuSans-50"/>
      <use x="1827.783203" xlink:href="#DejaVuSans-46"/>
      <use x="1859.570312" xlink:href="#DejaVuSans-50"/>
      <use x="1923.193359" xlink:href="#DejaVuSans-48"/>
      <use x="1986.816406" xlink:href="#DejaVuSans-49"/>
      <use x="2050.439453" xlink:href="#DejaVuSans-56"/>
      <use x="2114.0625" xlink:href="#DejaVuSans-41"/>
     </g>
    </g>
    <g id="line2d_48">
     <path d="M 155.7 190.195781 
L 181.7 190.195781 
" style="fill:none;stroke:#808080;stroke-dasharray:5.55,2.4;stroke-dashoffset:0;stroke-width:1.5;"/>
    </g>
    <g id="text_23">
     <!-- COVID-19 Patient Zero Germany (27.01.2020) -->
     <g transform="translate(192.1 194.745781)scale(0.13 -0.13)">
      <defs>
       <path d="M 28.609375 0 
L 0.78125 72.90625 
L 11.078125 72.90625 
L 34.1875 11.53125 
L 57.328125 72.90625 
L 67.578125 72.90625 
L 39.796875 0 
z
" id="DejaVuSans-86"/>
       <path d="M 19.671875 64.796875 
L 19.671875 37.40625 
L 32.078125 37.40625 
Q 38.96875 37.40625 42.71875 40.96875 
Q 46.484375 44.53125 46.484375 51.125 
Q 46.484375 57.671875 42.71875 61.234375 
Q 38.96875 64.796875 32.078125 64.796875 
z
M 9.8125 72.90625 
L 32.078125 72.90625 
Q 44.34375 72.90625 50.609375 67.359375 
Q 56.890625 61.8125 56.890625 51.125 
Q 56.890625 40.328125 50.609375 34.8125 
Q 44.34375 29.296875 32.078125 29.296875 
L 19.671875 29.296875 
L 19.671875 0 
L 9.8125 0 
z
" id="DejaVuSans-80"/>
       <path d="M 5.609375 72.90625 
L 62.890625 72.90625 
L 62.890625 65.375 
L 16.796875 8.296875 
L 64.015625 8.296875 
L 64.015625 0 
L 4.5 0 
L 4.5 7.515625 
L 50.59375 64.59375 
L 5.609375 64.59375 
z
" id="DejaVuSans-90"/>
       <path d="M 32.171875 -5.078125 
Q 28.375 -14.84375 24.75 -17.8125 
Q 21.140625 -20.796875 15.09375 -20.796875 
L 7.90625 -20.796875 
L 7.90625 -13.28125 
L 13.1875 -13.28125 
Q 16.890625 -13.28125 18.9375 -11.515625 
Q 21 -9.765625 23.484375 -3.21875 
L 25.09375 0.875 
L 2.984375 54.6875 
L 12.5 54.6875 
L 29.59375 11.921875 
L 46.6875 54.6875 
L 56.203125 54.6875 
z
" id="DejaVuSans-121"/>
      </defs>
      <use xlink:href="#DejaVuSans-67"/>
      <use x="69.824219" xlink:href="#DejaVuSans-79"/>
      <use x="146.785156" xlink:href="#DejaVuSans-86"/>
      <use x="215.193359" xlink:href="#DejaVuSans-73"/>
      <use x="244.685547" xlink:href="#DejaVuSans-68"/>
      <use x="321.6875" xlink:href="#DejaVuSans-45"/>
      <use x="357.771484" xlink:href="#DejaVuSans-49"/>
      <use x="421.394531" xlink:href="#DejaVuSans-57"/>
      <use x="485.017578" xlink:href="#DejaVuSans-32"/>
      <use x="516.804688" xlink:href="#DejaVuSans-80"/>
      <use x="572.607422" xlink:href="#DejaVuSans-97"/>
      <use x="633.886719" xlink:href="#DejaVuSans-116"/>
      <use x="673.095703" xlink:href="#DejaVuSans-105"/>
      <use x="700.878906" xlink:href="#DejaVuSans-101"/>
      <use x="762.402344" xlink:href="#DejaVuSans-110"/>
      <use x="825.78125" xlink:href="#DejaVuSans-116"/>
      <use x="864.990234" xlink:href="#DejaVuSans-32"/>
      <use x="896.777344" xlink:href="#DejaVuSans-90"/>
      <use x="965.283203" xlink:href="#DejaVuSans-101"/>
      <use x="1026.806641" xlink:href="#DejaVuSans-114"/>
      <use x="1065.669922" xlink:href="#DejaVuSans-111"/>
      <use x="1126.851562" xlink:href="#DejaVuSans-32"/>
      <use x="1158.638672" xlink:href="#DejaVuSans-71"/>
      <use x="1236.128906" xlink:href="#DejaVuSans-101"/>
      <use x="1297.652344" xlink:href="#DejaVuSans-114"/>
      <use x="1337.015625" xlink:href="#DejaVuSans-109"/>
      <use x="1434.427734" xlink:href="#DejaVuSans-97"/>
      <use x="1495.707031" xlink:href="#DejaVuSans-110"/>
      <use x="1559.085938" xlink:href="#DejaVuSans-121"/>
      <use x="1618.265625" xlink:href="#DejaVuSans-32"/>
      <use x="1650.052734" xlink:href="#DejaVuSans-40"/>
      <use x="1689.066406" xlink:href="#DejaVuSans-50"/>
      <use x="1752.689453" xlink:href="#DejaVuSans-55"/>
      <use x="1816.3125" xlink:href="#DejaVuSans-46"/>
      <use x="1848.099609" xlink:href="#DejaVuSans-48"/>
      <use x="1911.722656" xlink:href="#DejaVuSans-49"/>
      <use x="1975.345703" xlink:href="#DejaVuSans-46"/>
      <use x="2007.132812" xlink:href="#DejaVuSans-50"/>
      <use x="2070.755859" xlink:href="#DejaVuSans-48"/>
      <use x="2134.378906" xlink:href="#DejaVuSans-50"/>
      <use x="2198.001953" xlink:href="#DejaVuSans-48"/>
      <use x="2261.625" xlink:href="#DejaVuSans-41"/>
     </g>
    </g>
    <g id="line2d_49">
     <path d="M 155.7 209.277344 
L 181.7 209.277344 
" style="fill:none;stroke:#800080;stroke-dasharray:5.55,2.4;stroke-dashoffset:0;stroke-width:1.5;"/>
    </g>
    <g id="text_24">
     <!-- 1. Lockdown Germany (22.03.2020) -->
     <g transform="translate(192.1 213.827344)scale(0.13 -0.13)">
      <defs>
       <path d="M 9.078125 75.984375 
L 18.109375 75.984375 
L 18.109375 31.109375 
L 44.921875 54.6875 
L 56.390625 54.6875 
L 27.390625 29.109375 
L 57.625 0 
L 45.90625 0 
L 18.109375 26.703125 
L 18.109375 0 
L 9.078125 0 
z
" id="DejaVuSans-107"/>
       <path d="M 4.203125 54.6875 
L 13.1875 54.6875 
L 24.421875 12.015625 
L 35.59375 54.6875 
L 46.1875 54.6875 
L 57.421875 12.015625 
L 68.609375 54.6875 
L 77.59375 54.6875 
L 63.28125 0 
L 52.6875 0 
L 40.921875 44.828125 
L 29.109375 0 
L 18.5 0 
z
" id="DejaVuSans-119"/>
      </defs>
      <use xlink:href="#DejaVuSans-49"/>
      <use x="63.623047" xlink:href="#DejaVuSans-46"/>
      <use x="95.410156" xlink:href="#DejaVuSans-32"/>
      <use x="127.197266" xlink:href="#DejaVuSans-76"/>
      <use x="181.160156" xlink:href="#DejaVuSans-111"/>
      <use x="242.341797" xlink:href="#DejaVuSans-99"/>
      <use x="297.322266" xlink:href="#DejaVuSans-107"/>
      <use x="355.232422" xlink:href="#DejaVuSans-100"/>
      <use x="418.708984" xlink:href="#DejaVuSans-111"/>
      <use x="479.890625" xlink:href="#DejaVuSans-119"/>
      <use x="561.677734" xlink:href="#DejaVuSans-110"/>
      <use x="625.056641" xlink:href="#DejaVuSans-32"/>
      <use x="656.84375" xlink:href="#DejaVuSans-71"/>
      <use x="734.333984" xlink:href="#DejaVuSans-101"/>
      <use x="795.857422" xlink:href="#DejaVuSans-114"/>
      <use x="835.220703" xlink:href="#DejaVuSans-109"/>
      <use x="932.632812" xlink:href="#DejaVuSans-97"/>
      <use x="993.912109" xlink:href="#DejaVuSans-110"/>
      <use x="1057.291016" xlink:href="#DejaVuSans-121"/>
      <use x="1116.470703" xlink:href="#DejaVuSans-32"/>
      <use x="1148.257812" xlink:href="#DejaVuSans-40"/>
      <use x="1187.271484" xlink:href="#DejaVuSans-50"/>
      <use x="1250.894531" xlink:href="#DejaVuSans-50"/>
      <use x="1314.517578" xlink:href="#DejaVuSans-46"/>
      <use x="1346.304688" xlink:href="#DejaVuSans-48"/>
      <use x="1409.927734" xlink:href="#DejaVuSans-51"/>
      <use x="1473.550781" xlink:href="#DejaVuSans-46"/>
      <use x="1505.337891" xlink:href="#DejaVuSans-50"/>
      <use x="1568.960938" xlink:href="#DejaVuSans-48"/>
      <use x="1632.583984" xlink:href="#DejaVuSans-50"/>
      <use x="1696.207031" xlink:href="#DejaVuSans-48"/>
      <use x="1759.830078" xlink:href="#DejaVuSans-41"/>
     </g>
    </g>
    <g id="line2d_50">
     <path d="M 155.7 228.358906 
L 181.7 228.358906 
" style="fill:none;stroke:#800080;stroke-dasharray:5.55,2.4;stroke-dashoffset:0;stroke-width:1.5;"/>
    </g>
    <g id="text_25">
     <!-- 2. Lockdown light Germany (02.11.2020) -->
     <g transform="translate(192.1 232.908906)scale(0.13 -0.13)">
      <use xlink:href="#DejaVuSans-50"/>
      <use x="63.623047" xlink:href="#DejaVuSans-46"/>
      <use x="95.410156" xlink:href="#DejaVuSans-32"/>
      <use x="127.197266" xlink:href="#DejaVuSans-76"/>
      <use x="181.160156" xlink:href="#DejaVuSans-111"/>
      <use x="242.341797" xlink:href="#DejaVuSans-99"/>
      <use x="297.322266" xlink:href="#DejaVuSans-107"/>
      <use x="355.232422" xlink:href="#DejaVuSans-100"/>
      <use x="418.708984" xlink:href="#DejaVuSans-111"/>
      <use x="479.890625" xlink:href="#DejaVuSans-119"/>
      <use x="561.677734" xlink:href="#DejaVuSans-110"/>
      <use x="625.056641" xlink:href="#DejaVuSans-32"/>
      <use x="656.84375" xlink:href="#DejaVuSans-108"/>
      <use x="684.626953" xlink:href="#DejaVuSans-105"/>
      <use x="712.410156" xlink:href="#DejaVuSans-103"/>
      <use x="775.886719" xlink:href="#DejaVuSans-104"/>
      <use x="839.265625" xlink:href="#DejaVuSans-116"/>
      <use x="878.474609" xlink:href="#DejaVuSans-32"/>
      <use x="910.261719" xlink:href="#DejaVuSans-71"/>
      <use x="987.751953" xlink:href="#DejaVuSans-101"/>
      <use x="1049.275391" xlink:href="#DejaVuSans-114"/>
      <use x="1088.638672" xlink:href="#DejaVuSans-109"/>
      <use x="1186.050781" xlink:href="#DejaVuSans-97"/>
      <use x="1247.330078" xlink:href="#DejaVuSans-110"/>
      <use x="1310.708984" xlink:href="#DejaVuSans-121"/>
      <use x="1369.888672" xlink:href="#DejaVuSans-32"/>
      <use x="1401.675781" xlink:href="#DejaVuSans-40"/>
      <use x="1440.689453" xlink:href="#DejaVuSans-48"/>
      <use x="1504.3125" xlink:href="#DejaVuSans-50"/>
      <use x="1567.935547" xlink:href="#DejaVuSans-46"/>
      <use x="1599.722656" xlink:href="#DejaVuSans-49"/>
      <use x="1663.345703" xlink:href="#DejaVuSans-49"/>
      <use x="1726.96875" xlink:href="#DejaVuSans-46"/>
      <use x="1758.755859" xlink:href="#DejaVuSans-50"/>
      <use x="1822.378906" xlink:href="#DejaVuSans-48"/>
      <use x="1886.001953" xlink:href="#DejaVuSans-50"/>
      <use x="1949.625" xlink:href="#DejaVuSans-48"/>
      <use x="2013.248047" xlink:href="#DejaVuSans-41"/>
     </g>
    </g>
    <g id="line2d_51">
     <path d="M 155.7 247.440469 
L 181.7 247.440469 
" style="fill:none;stroke:#800080;stroke-dasharray:5.55,2.4;stroke-dashoffset:0;stroke-width:1.5;"/>
    </g>
    <g id="text_26">
     <!-- 3. Lockdown Germany (16.12.2020) -->
     <g transform="translate(192.1 251.990469)scale(0.13 -0.13)">
      <defs>
       <path d="M 33.015625 40.375 
Q 26.375 40.375 22.484375 35.828125 
Q 18.609375 31.296875 18.609375 23.390625 
Q 18.609375 15.53125 22.484375 10.953125 
Q 26.375 6.390625 33.015625 6.390625 
Q 39.65625 6.390625 43.53125 10.953125 
Q 47.40625 15.53125 47.40625 23.390625 
Q 47.40625 31.296875 43.53125 35.828125 
Q 39.65625 40.375 33.015625 40.375 
z
M 52.59375 71.296875 
L 52.59375 62.3125 
Q 48.875 64.0625 45.09375 64.984375 
Q 41.3125 65.921875 37.59375 65.921875 
Q 27.828125 65.921875 22.671875 59.328125 
Q 17.53125 52.734375 16.796875 39.40625 
Q 19.671875 43.65625 24.015625 45.921875 
Q 28.375 48.1875 33.59375 48.1875 
Q 44.578125 48.1875 50.953125 41.515625 
Q 57.328125 34.859375 57.328125 23.390625 
Q 57.328125 12.15625 50.6875 5.359375 
Q 44.046875 -1.421875 33.015625 -1.421875 
Q 20.359375 -1.421875 13.671875 8.265625 
Q 6.984375 17.96875 6.984375 36.375 
Q 6.984375 53.65625 15.1875 63.9375 
Q 23.390625 74.21875 37.203125 74.21875 
Q 40.921875 74.21875 44.703125 73.484375 
Q 48.484375 72.75 52.59375 71.296875 
z
" id="DejaVuSans-54"/>
      </defs>
      <use xlink:href="#DejaVuSans-51"/>
      <use x="63.623047" xlink:href="#DejaVuSans-46"/>
      <use x="95.410156" xlink:href="#DejaVuSans-32"/>
      <use x="127.197266" xlink:href="#DejaVuSans-76"/>
      <use x="181.160156" xlink:href="#DejaVuSans-111"/>
      <use x="242.341797" xlink:href="#DejaVuSans-99"/>
      <use x="297.322266" xlink:href="#DejaVuSans-107"/>
      <use x="355.232422" xlink:href="#DejaVuSans-100"/>
      <use x="418.708984" xlink:href="#DejaVuSans-111"/>
      <use x="479.890625" xlink:href="#DejaVuSans-119"/>
      <use x="561.677734" xlink:href="#DejaVuSans-110"/>
      <use x="625.056641" xlink:href="#DejaVuSans-32"/>
      <use x="656.84375" xlink:href="#DejaVuSans-71"/>
      <use x="734.333984" xlink:href="#DejaVuSans-101"/>
      <use x="795.857422" xlink:href="#DejaVuSans-114"/>
      <use x="835.220703" xlink:href="#DejaVuSans-109"/>
      <use x="932.632812" xlink:href="#DejaVuSans-97"/>
      <use x="993.912109" xlink:href="#DejaVuSans-110"/>
      <use x="1057.291016" xlink:href="#DejaVuSans-121"/>
      <use x="1116.470703" xlink:href="#DejaVuSans-32"/>
      <use x="1148.257812" xlink:href="#DejaVuSans-40"/>
      <use x="1187.271484" xlink:href="#DejaVuSans-49"/>
      <use x="1250.894531" xlink:href="#DejaVuSans-54"/>
      <use x="1314.517578" xlink:href="#DejaVuSans-46"/>
      <use x="1346.304688" xlink:href="#DejaVuSans-49"/>
      <use x="1409.927734" xlink:href="#DejaVuSans-50"/>
      <use x="1473.550781" xlink:href="#DejaVuSans-46"/>
      <use x="1505.337891" xlink:href="#DejaVuSans-50"/>
      <use x="1568.960938" xlink:href="#DejaVuSans-48"/>
      <use x="1632.583984" xlink:href="#DejaVuSans-50"/>
      <use x="1696.207031" xlink:href="#DejaVuSans-48"/>
      <use x="1759.830078" xlink:href="#DejaVuSans-41"/>
     </g>
    </g>
   </g>
  </g>
 </g>
 <defs>
  <clipPath id="pfdab194c06">
   <rect height="440.64" width="892.8" x="144" y="77.76"/>
  </clipPath>
 </defs>
</svg>
