<?xml version="1.0" encoding="utf-8" standalone="no"?>
<!DOCTYPE svg PUBLIC "-//W3C//DTD SVG 1.1//EN"
  "http://www.w3.org/Graphics/SVG/1.1/DTD/svg11.dtd">
<!-- Created with matplotlib (https://matplotlib.org/) -->
<svg height="648pt" version="1.1" viewBox="0 0 1152 648" width="1152pt" xmlns="http://www.w3.org/2000/svg" xmlns:xlink="http://www.w3.org/1999/xlink">
 <metadata>
  <rdf:RDF xmlns:cc="http://creativecommons.org/ns#" xmlns:dc="http://purl.org/dc/elements/1.1/" xmlns:rdf="http://www.w3.org/1999/02/22-rdf-syntax-ns#">
   <cc:Work>
    <dc:type rdf:resource="http://purl.org/dc/dcmitype/StillImage"/>
    <dc:date>2021-02-20T19:14:02.729720</dc:date>
    <dc:format>image/svg+xml</dc:format>
    <dc:creator>
     <cc:Agent>
      <dc:title>Matplotlib v3.3.4, https://matplotlib.org/</dc:title>
     </cc:Agent>
    </dc:creator>
   </cc:Work>
  </rdf:RDF>
 </metadata>
 <defs>
  <style type="text/css">*{stroke-linecap:butt;stroke-linejoin:round;}</style>
 </defs>
 <g id="figure_1">
  <g id="patch_1">
   <path d="M 0 648 
L 1152 648 
L 1152 0 
L 0 0 
z
" style="fill:#ffffff;"/>
  </g>
  <g id="axes_1">
   <g id="patch_2">
    <path d="M 144 518.4 
L 1036.8 518.4 
L 1036.8 77.76 
L 144 77.76 
z
" style="fill:#e5e5e5;"/>
   </g>
   <g id="matplotlib.axis_1">
    <g id="xtick_1">
     <g id="line2d_1">
      <path clip-path="url(#pb94b5cc095)" d="M 207.357328 518.4 
L 207.357328 77.76 
" style="fill:none;stroke:#ffffff;stroke-linecap:square;stroke-width:0.8;"/>
     </g>
     <g id="line2d_2">
      <defs>
       <path d="M 0 0 
L 0 3.5 
" id="m78aaaf0625" style="stroke:#555555;stroke-width:0.8;"/>
      </defs>
      <g>
       <use style="fill:#555555;stroke:#555555;stroke-width:0.8;" x="207.357328" xlink:href="#m78aaaf0625" y="518.4"/>
      </g>
     </g>
     <g id="text_1">
      <!-- 2019-01 -->
      <g style="fill:#555555;" transform="translate(170.132508 552.871846)rotate(-30)scale(0.1 -0.1)">
       <defs>
        <path d="M 19.1875 8.296875 
L 53.609375 8.296875 
L 53.609375 0 
L 7.328125 0 
L 7.328125 8.296875 
Q 12.9375 14.109375 22.625 23.890625 
Q 32.328125 33.6875 34.8125 36.53125 
Q 39.546875 41.84375 41.421875 45.53125 
Q 43.3125 49.21875 43.3125 52.78125 
Q 43.3125 58.59375 39.234375 62.25 
Q 35.15625 65.921875 28.609375 65.921875 
Q 23.96875 65.921875 18.8125 64.3125 
Q 13.671875 62.703125 7.8125 59.421875 
L 7.8125 69.390625 
Q 13.765625 71.78125 18.9375 73 
Q 24.125 74.21875 28.421875 74.21875 
Q 39.75 74.21875 46.484375 68.546875 
Q 53.21875 62.890625 53.21875 53.421875 
Q 53.21875 48.921875 51.53125 44.890625 
Q 49.859375 40.875 45.40625 35.40625 
Q 44.1875 33.984375 37.640625 27.21875 
Q 31.109375 20.453125 19.1875 8.296875 
z
" id="DejaVuSans-50"/>
        <path d="M 31.78125 66.40625 
Q 24.171875 66.40625 20.328125 58.90625 
Q 16.5 51.421875 16.5 36.375 
Q 16.5 21.390625 20.328125 13.890625 
Q 24.171875 6.390625 31.78125 6.390625 
Q 39.453125 6.390625 43.28125 13.890625 
Q 47.125 21.390625 47.125 36.375 
Q 47.125 51.421875 43.28125 58.90625 
Q 39.453125 66.40625 31.78125 66.40625 
z
M 31.78125 74.21875 
Q 44.046875 74.21875 50.515625 64.515625 
Q 56.984375 54.828125 56.984375 36.375 
Q 56.984375 17.96875 50.515625 8.265625 
Q 44.046875 -1.421875 31.78125 -1.421875 
Q 19.53125 -1.421875 13.0625 8.265625 
Q 6.59375 17.96875 6.59375 36.375 
Q 6.59375 54.828125 13.0625 64.515625 
Q 19.53125 74.21875 31.78125 74.21875 
z
" id="DejaVuSans-48"/>
        <path d="M 12.40625 8.296875 
L 28.515625 8.296875 
L 28.515625 63.921875 
L 10.984375 60.40625 
L 10.984375 69.390625 
L 28.421875 72.90625 
L 38.28125 72.90625 
L 38.28125 8.296875 
L 54.390625 8.296875 
L 54.390625 0 
L 12.40625 0 
z
" id="DejaVuSans-49"/>
        <path d="M 10.984375 1.515625 
L 10.984375 10.5 
Q 14.703125 8.734375 18.5 7.8125 
Q 22.3125 6.890625 25.984375 6.890625 
Q 35.75 6.890625 40.890625 13.453125 
Q 46.046875 20.015625 46.78125 33.40625 
Q 43.953125 29.203125 39.59375 26.953125 
Q 35.25 24.703125 29.984375 24.703125 
Q 19.046875 24.703125 12.671875 31.3125 
Q 6.296875 37.9375 6.296875 49.421875 
Q 6.296875 60.640625 12.9375 67.421875 
Q 19.578125 74.21875 30.609375 74.21875 
Q 43.265625 74.21875 49.921875 64.515625 
Q 56.59375 54.828125 56.59375 36.375 
Q 56.59375 19.140625 48.40625 8.859375 
Q 40.234375 -1.421875 26.421875 -1.421875 
Q 22.703125 -1.421875 18.890625 -0.6875 
Q 15.09375 0.046875 10.984375 1.515625 
z
M 30.609375 32.421875 
Q 37.25 32.421875 41.125 36.953125 
Q 45.015625 41.5 45.015625 49.421875 
Q 45.015625 57.28125 41.125 61.84375 
Q 37.25 66.40625 30.609375 66.40625 
Q 23.96875 66.40625 20.09375 61.84375 
Q 16.21875 57.28125 16.21875 49.421875 
Q 16.21875 41.5 20.09375 36.953125 
Q 23.96875 32.421875 30.609375 32.421875 
z
" id="DejaVuSans-57"/>
        <path d="M 4.890625 31.390625 
L 31.203125 31.390625 
L 31.203125 23.390625 
L 4.890625 23.390625 
z
" id="DejaVuSans-45"/>
       </defs>
       <use xlink:href="#DejaVuSans-50"/>
       <use x="63.623047" xlink:href="#DejaVuSans-48"/>
       <use x="127.246094" xlink:href="#DejaVuSans-49"/>
       <use x="190.869141" xlink:href="#DejaVuSans-57"/>
       <use x="254.492188" xlink:href="#DejaVuSans-45"/>
       <use x="290.576172" xlink:href="#DejaVuSans-48"/>
       <use x="354.199219" xlink:href="#DejaVuSans-49"/>
      </g>
     </g>
    </g>
    <g id="xtick_2">
     <g id="line2d_3">
      <path clip-path="url(#pb94b5cc095)" d="M 300.52987 518.4 
L 300.52987 77.76 
" style="fill:none;stroke:#ffffff;stroke-linecap:square;stroke-width:0.8;"/>
     </g>
     <g id="line2d_4">
      <g>
       <use style="fill:#555555;stroke:#555555;stroke-width:0.8;" x="300.52987" xlink:href="#m78aaaf0625" y="518.4"/>
      </g>
     </g>
     <g id="text_2">
      <!-- 2019-04 -->
      <g style="fill:#555555;" transform="translate(263.305049 552.871846)rotate(-30)scale(0.1 -0.1)">
       <defs>
        <path d="M 37.796875 64.3125 
L 12.890625 25.390625 
L 37.796875 25.390625 
z
M 35.203125 72.90625 
L 47.609375 72.90625 
L 47.609375 25.390625 
L 58.015625 25.390625 
L 58.015625 17.1875 
L 47.609375 17.1875 
L 47.609375 0 
L 37.796875 0 
L 37.796875 17.1875 
L 4.890625 17.1875 
L 4.890625 26.703125 
z
" id="DejaVuSans-52"/>
       </defs>
       <use xlink:href="#DejaVuSans-50"/>
       <use x="63.623047" xlink:href="#DejaVuSans-48"/>
       <use x="127.246094" xlink:href="#DejaVuSans-49"/>
       <use x="190.869141" xlink:href="#DejaVuSans-57"/>
       <use x="254.492188" xlink:href="#DejaVuSans-45"/>
       <use x="290.576172" xlink:href="#DejaVuSans-48"/>
       <use x="354.199219" xlink:href="#DejaVuSans-52"/>
      </g>
     </g>
    </g>
    <g id="xtick_3">
     <g id="line2d_5">
      <path clip-path="url(#pb94b5cc095)" d="M 394.737662 518.4 
L 394.737662 77.76 
" style="fill:none;stroke:#ffffff;stroke-linecap:square;stroke-width:0.8;"/>
     </g>
     <g id="line2d_6">
      <g>
       <use style="fill:#555555;stroke:#555555;stroke-width:0.8;" x="394.737662" xlink:href="#m78aaaf0625" y="518.4"/>
      </g>
     </g>
     <g id="text_3">
      <!-- 2019-07 -->
      <g style="fill:#555555;" transform="translate(357.512842 552.871846)rotate(-30)scale(0.1 -0.1)">
       <defs>
        <path d="M 8.203125 72.90625 
L 55.078125 72.90625 
L 55.078125 68.703125 
L 28.609375 0 
L 18.3125 0 
L 43.21875 64.59375 
L 8.203125 64.59375 
z
" id="DejaVuSans-55"/>
       </defs>
       <use xlink:href="#DejaVuSans-50"/>
       <use x="63.623047" xlink:href="#DejaVuSans-48"/>
       <use x="127.246094" xlink:href="#DejaVuSans-49"/>
       <use x="190.869141" xlink:href="#DejaVuSans-57"/>
       <use x="254.492188" xlink:href="#DejaVuSans-45"/>
       <use x="290.576172" xlink:href="#DejaVuSans-48"/>
       <use x="354.199219" xlink:href="#DejaVuSans-55"/>
      </g>
     </g>
    </g>
    <g id="xtick_4">
     <g id="line2d_7">
      <path clip-path="url(#pb94b5cc095)" d="M 489.980705 518.4 
L 489.980705 77.76 
" style="fill:none;stroke:#ffffff;stroke-linecap:square;stroke-width:0.8;"/>
     </g>
     <g id="line2d_8">
      <g>
       <use style="fill:#555555;stroke:#555555;stroke-width:0.8;" x="489.980705" xlink:href="#m78aaaf0625" y="518.4"/>
      </g>
     </g>
     <g id="text_4">
      <!-- 2019-10 -->
      <g style="fill:#555555;" transform="translate(452.755884 552.871846)rotate(-30)scale(0.1 -0.1)">
       <use xlink:href="#DejaVuSans-50"/>
       <use x="63.623047" xlink:href="#DejaVuSans-48"/>
       <use x="127.246094" xlink:href="#DejaVuSans-49"/>
       <use x="190.869141" xlink:href="#DejaVuSans-57"/>
       <use x="254.492188" xlink:href="#DejaVuSans-45"/>
       <use x="290.576172" xlink:href="#DejaVuSans-49"/>
       <use x="354.199219" xlink:href="#DejaVuSans-48"/>
      </g>
     </g>
    </g>
    <g id="xtick_5">
     <g id="line2d_9">
      <path clip-path="url(#pb94b5cc095)" d="M 585.223748 518.4 
L 585.223748 77.76 
" style="fill:none;stroke:#ffffff;stroke-linecap:square;stroke-width:0.8;"/>
     </g>
     <g id="line2d_10">
      <g>
       <use style="fill:#555555;stroke:#555555;stroke-width:0.8;" x="585.223748" xlink:href="#m78aaaf0625" y="518.4"/>
      </g>
     </g>
     <g id="text_5">
      <!-- 2020-01 -->
      <g style="fill:#555555;" transform="translate(547.998927 552.871846)rotate(-30)scale(0.1 -0.1)">
       <use xlink:href="#DejaVuSans-50"/>
       <use x="63.623047" xlink:href="#DejaVuSans-48"/>
       <use x="127.246094" xlink:href="#DejaVuSans-50"/>
       <use x="190.869141" xlink:href="#DejaVuSans-48"/>
       <use x="254.492188" xlink:href="#DejaVuSans-45"/>
       <use x="290.576172" xlink:href="#DejaVuSans-48"/>
       <use x="354.199219" xlink:href="#DejaVuSans-49"/>
      </g>
     </g>
    </g>
    <g id="xtick_6">
     <g id="line2d_11">
      <path clip-path="url(#pb94b5cc095)" d="M 679.43154 518.4 
L 679.43154 77.76 
" style="fill:none;stroke:#ffffff;stroke-linecap:square;stroke-width:0.8;"/>
     </g>
     <g id="line2d_12">
      <g>
       <use style="fill:#555555;stroke:#555555;stroke-width:0.8;" x="679.43154" xlink:href="#m78aaaf0625" y="518.4"/>
      </g>
     </g>
     <g id="text_6">
      <!-- 2020-04 -->
      <g style="fill:#555555;" transform="translate(642.206719 552.871846)rotate(-30)scale(0.1 -0.1)">
       <use xlink:href="#DejaVuSans-50"/>
       <use x="63.623047" xlink:href="#DejaVuSans-48"/>
       <use x="127.246094" xlink:href="#DejaVuSans-50"/>
       <use x="190.869141" xlink:href="#DejaVuSans-48"/>
       <use x="254.492188" xlink:href="#DejaVuSans-45"/>
       <use x="290.576172" xlink:href="#DejaVuSans-48"/>
       <use x="354.199219" xlink:href="#DejaVuSans-52"/>
      </g>
     </g>
    </g>
    <g id="xtick_7">
     <g id="line2d_13">
      <path clip-path="url(#pb94b5cc095)" d="M 773.639332 518.4 
L 773.639332 77.76 
" style="fill:none;stroke:#ffffff;stroke-linecap:square;stroke-width:0.8;"/>
     </g>
     <g id="line2d_14">
      <g>
       <use style="fill:#555555;stroke:#555555;stroke-width:0.8;" x="773.639332" xlink:href="#m78aaaf0625" y="518.4"/>
      </g>
     </g>
     <g id="text_7">
      <!-- 2020-07 -->
      <g style="fill:#555555;" transform="translate(736.414511 552.871846)rotate(-30)scale(0.1 -0.1)">
       <use xlink:href="#DejaVuSans-50"/>
       <use x="63.623047" xlink:href="#DejaVuSans-48"/>
       <use x="127.246094" xlink:href="#DejaVuSans-50"/>
       <use x="190.869141" xlink:href="#DejaVuSans-48"/>
       <use x="254.492188" xlink:href="#DejaVuSans-45"/>
       <use x="290.576172" xlink:href="#DejaVuSans-48"/>
       <use x="354.199219" xlink:href="#DejaVuSans-55"/>
      </g>
     </g>
    </g>
    <g id="xtick_8">
     <g id="line2d_15">
      <path clip-path="url(#pb94b5cc095)" d="M 868.882375 518.4 
L 868.882375 77.76 
" style="fill:none;stroke:#ffffff;stroke-linecap:square;stroke-width:0.8;"/>
     </g>
     <g id="line2d_16">
      <g>
       <use style="fill:#555555;stroke:#555555;stroke-width:0.8;" x="868.882375" xlink:href="#m78aaaf0625" y="518.4"/>
      </g>
     </g>
     <g id="text_8">
      <!-- 2020-10 -->
      <g style="fill:#555555;" transform="translate(831.657554 552.871846)rotate(-30)scale(0.1 -0.1)">
       <use xlink:href="#DejaVuSans-50"/>
       <use x="63.623047" xlink:href="#DejaVuSans-48"/>
       <use x="127.246094" xlink:href="#DejaVuSans-50"/>
       <use x="190.869141" xlink:href="#DejaVuSans-48"/>
       <use x="254.492188" xlink:href="#DejaVuSans-45"/>
       <use x="290.576172" xlink:href="#DejaVuSans-49"/>
       <use x="354.199219" xlink:href="#DejaVuSans-48"/>
      </g>
     </g>
    </g>
    <g id="xtick_9">
     <g id="line2d_17">
      <path clip-path="url(#pb94b5cc095)" d="M 964.125417 518.4 
L 964.125417 77.76 
" style="fill:none;stroke:#ffffff;stroke-linecap:square;stroke-width:0.8;"/>
     </g>
     <g id="line2d_18">
      <g>
       <use style="fill:#555555;stroke:#555555;stroke-width:0.8;" x="964.125417" xlink:href="#m78aaaf0625" y="518.4"/>
      </g>
     </g>
     <g id="text_9">
      <!-- 2021-01 -->
      <g style="fill:#555555;" transform="translate(926.900597 552.871846)rotate(-30)scale(0.1 -0.1)">
       <use xlink:href="#DejaVuSans-50"/>
       <use x="63.623047" xlink:href="#DejaVuSans-48"/>
       <use x="127.246094" xlink:href="#DejaVuSans-50"/>
       <use x="190.869141" xlink:href="#DejaVuSans-49"/>
       <use x="254.492188" xlink:href="#DejaVuSans-45"/>
       <use x="290.576172" xlink:href="#DejaVuSans-48"/>
       <use x="354.199219" xlink:href="#DejaVuSans-49"/>
      </g>
     </g>
    </g>
   </g>
   <g id="matplotlib.axis_2">
    <g id="ytick_1">
     <g id="line2d_19">
      <path clip-path="url(#pb94b5cc095)" d="M 144 498.370909 
L 1036.8 498.370909 
" style="fill:none;stroke:#ffffff;stroke-linecap:square;stroke-width:0.8;"/>
     </g>
     <g id="line2d_20">
      <defs>
       <path d="M 0 0 
L -3.5 0 
" id="me802f62bd4" style="stroke:#555555;stroke-width:0.8;"/>
      </defs>
      <g>
       <use style="fill:#555555;stroke:#555555;stroke-width:0.8;" x="144" xlink:href="#me802f62bd4" y="498.370909"/>
      </g>
     </g>
     <g id="text_10">
      <!-- 0 -->
      <g style="fill:#555555;" transform="translate(130.6375 502.170128)scale(0.1 -0.1)">
       <use xlink:href="#DejaVuSans-48"/>
      </g>
     </g>
    </g>
    <g id="ytick_2">
     <g id="line2d_21">
      <path clip-path="url(#pb94b5cc095)" d="M 144 437.740999 
L 1036.8 437.740999 
" style="fill:none;stroke:#ffffff;stroke-linecap:square;stroke-width:0.8;"/>
     </g>
     <g id="line2d_22">
      <g>
       <use style="fill:#555555;stroke:#555555;stroke-width:0.8;" x="144" xlink:href="#me802f62bd4" y="437.740999"/>
      </g>
     </g>
     <g id="text_11">
      <!-- 10000 -->
      <g style="fill:#555555;" transform="translate(105.1875 441.540217)scale(0.1 -0.1)">
       <use xlink:href="#DejaVuSans-49"/>
       <use x="63.623047" xlink:href="#DejaVuSans-48"/>
       <use x="127.246094" xlink:href="#DejaVuSans-48"/>
       <use x="190.869141" xlink:href="#DejaVuSans-48"/>
       <use x="254.492188" xlink:href="#DejaVuSans-48"/>
      </g>
     </g>
    </g>
    <g id="ytick_3">
     <g id="line2d_23">
      <path clip-path="url(#pb94b5cc095)" d="M 144 377.111088 
L 1036.8 377.111088 
" style="fill:none;stroke:#ffffff;stroke-linecap:square;stroke-width:0.8;"/>
     </g>
     <g id="line2d_24">
      <g>
       <use style="fill:#555555;stroke:#555555;stroke-width:0.8;" x="144" xlink:href="#me802f62bd4" y="377.111088"/>
      </g>
     </g>
     <g id="text_12">
      <!-- 20000 -->
      <g style="fill:#555555;" transform="translate(105.1875 380.910307)scale(0.1 -0.1)">
       <use xlink:href="#DejaVuSans-50"/>
       <use x="63.623047" xlink:href="#DejaVuSans-48"/>
       <use x="127.246094" xlink:href="#DejaVuSans-48"/>
       <use x="190.869141" xlink:href="#DejaVuSans-48"/>
       <use x="254.492188" xlink:href="#DejaVuSans-48"/>
      </g>
     </g>
    </g>
    <g id="ytick_4">
     <g id="line2d_25">
      <path clip-path="url(#pb94b5cc095)" d="M 144 316.481178 
L 1036.8 316.481178 
" style="fill:none;stroke:#ffffff;stroke-linecap:square;stroke-width:0.8;"/>
     </g>
     <g id="line2d_26">
      <g>
       <use style="fill:#555555;stroke:#555555;stroke-width:0.8;" x="144" xlink:href="#me802f62bd4" y="316.481178"/>
      </g>
     </g>
     <g id="text_13">
      <!-- 30000 -->
      <g style="fill:#555555;" transform="translate(105.1875 320.280397)scale(0.1 -0.1)">
       <defs>
        <path d="M 40.578125 39.3125 
Q 47.65625 37.796875 51.625 33 
Q 55.609375 28.21875 55.609375 21.1875 
Q 55.609375 10.40625 48.1875 4.484375 
Q 40.765625 -1.421875 27.09375 -1.421875 
Q 22.515625 -1.421875 17.65625 -0.515625 
Q 12.796875 0.390625 7.625 2.203125 
L 7.625 11.71875 
Q 11.71875 9.328125 16.59375 8.109375 
Q 21.484375 6.890625 26.8125 6.890625 
Q 36.078125 6.890625 40.9375 10.546875 
Q 45.796875 14.203125 45.796875 21.1875 
Q 45.796875 27.640625 41.28125 31.265625 
Q 36.765625 34.90625 28.71875 34.90625 
L 20.21875 34.90625 
L 20.21875 43.015625 
L 29.109375 43.015625 
Q 36.375 43.015625 40.234375 45.921875 
Q 44.09375 48.828125 44.09375 54.296875 
Q 44.09375 59.90625 40.109375 62.90625 
Q 36.140625 65.921875 28.71875 65.921875 
Q 24.65625 65.921875 20.015625 65.03125 
Q 15.375 64.15625 9.8125 62.3125 
L 9.8125 71.09375 
Q 15.4375 72.65625 20.34375 73.4375 
Q 25.25 74.21875 29.59375 74.21875 
Q 40.828125 74.21875 47.359375 69.109375 
Q 53.90625 64.015625 53.90625 55.328125 
Q 53.90625 49.265625 50.4375 45.09375 
Q 46.96875 40.921875 40.578125 39.3125 
z
" id="DejaVuSans-51"/>
       </defs>
       <use xlink:href="#DejaVuSans-51"/>
       <use x="63.623047" xlink:href="#DejaVuSans-48"/>
       <use x="127.246094" xlink:href="#DejaVuSans-48"/>
       <use x="190.869141" xlink:href="#DejaVuSans-48"/>
       <use x="254.492188" xlink:href="#DejaVuSans-48"/>
      </g>
     </g>
    </g>
    <g id="ytick_5">
     <g id="line2d_27">
      <path clip-path="url(#pb94b5cc095)" d="M 144 255.851267 
L 1036.8 255.851267 
" style="fill:none;stroke:#ffffff;stroke-linecap:square;stroke-width:0.8;"/>
     </g>
     <g id="line2d_28">
      <g>
       <use style="fill:#555555;stroke:#555555;stroke-width:0.8;" x="144" xlink:href="#me802f62bd4" y="255.851267"/>
      </g>
     </g>
     <g id="text_14">
      <!-- 40000 -->
      <g style="fill:#555555;" transform="translate(105.1875 259.650486)scale(0.1 -0.1)">
       <use xlink:href="#DejaVuSans-52"/>
       <use x="63.623047" xlink:href="#DejaVuSans-48"/>
       <use x="127.246094" xlink:href="#DejaVuSans-48"/>
       <use x="190.869141" xlink:href="#DejaVuSans-48"/>
       <use x="254.492188" xlink:href="#DejaVuSans-48"/>
      </g>
     </g>
    </g>
    <g id="ytick_6">
     <g id="line2d_29">
      <path clip-path="url(#pb94b5cc095)" d="M 144 195.221357 
L 1036.8 195.221357 
" style="fill:none;stroke:#ffffff;stroke-linecap:square;stroke-width:0.8;"/>
     </g>
     <g id="line2d_30">
      <g>
       <use style="fill:#555555;stroke:#555555;stroke-width:0.8;" x="144" xlink:href="#me802f62bd4" y="195.221357"/>
      </g>
     </g>
     <g id="text_15">
      <!-- 50000 -->
      <g style="fill:#555555;" transform="translate(105.1875 199.020576)scale(0.1 -0.1)">
       <defs>
        <path d="M 10.796875 72.90625 
L 49.515625 72.90625 
L 49.515625 64.59375 
L 19.828125 64.59375 
L 19.828125 46.734375 
Q 21.96875 47.46875 24.109375 47.828125 
Q 26.265625 48.1875 28.421875 48.1875 
Q 40.625 48.1875 47.75 41.5 
Q 54.890625 34.8125 54.890625 23.390625 
Q 54.890625 11.625 47.5625 5.09375 
Q 40.234375 -1.421875 26.90625 -1.421875 
Q 22.3125 -1.421875 17.546875 -0.640625 
Q 12.796875 0.140625 7.71875 1.703125 
L 7.71875 11.625 
Q 12.109375 9.234375 16.796875 8.0625 
Q 21.484375 6.890625 26.703125 6.890625 
Q 35.15625 6.890625 40.078125 11.328125 
Q 45.015625 15.765625 45.015625 23.390625 
Q 45.015625 31 40.078125 35.4375 
Q 35.15625 39.890625 26.703125 39.890625 
Q 22.75 39.890625 18.8125 39.015625 
Q 14.890625 38.140625 10.796875 36.28125 
z
" id="DejaVuSans-53"/>
       </defs>
       <use xlink:href="#DejaVuSans-53"/>
       <use x="63.623047" xlink:href="#DejaVuSans-48"/>
       <use x="127.246094" xlink:href="#DejaVuSans-48"/>
       <use x="190.869141" xlink:href="#DejaVuSans-48"/>
       <use x="254.492188" xlink:href="#DejaVuSans-48"/>
      </g>
     </g>
    </g>
    <g id="ytick_7">
     <g id="line2d_31">
      <path clip-path="url(#pb94b5cc095)" d="M 144 134.591447 
L 1036.8 134.591447 
" style="fill:none;stroke:#ffffff;stroke-linecap:square;stroke-width:0.8;"/>
     </g>
     <g id="line2d_32">
      <g>
       <use style="fill:#555555;stroke:#555555;stroke-width:0.8;" x="144" xlink:href="#me802f62bd4" y="134.591447"/>
      </g>
     </g>
     <g id="text_16">
      <!-- 60000 -->
      <g style="fill:#555555;" transform="translate(105.1875 138.390665)scale(0.1 -0.1)">
       <defs>
        <path d="M 33.015625 40.375 
Q 26.375 40.375 22.484375 35.828125 
Q 18.609375 31.296875 18.609375 23.390625 
Q 18.609375 15.53125 22.484375 10.953125 
Q 26.375 6.390625 33.015625 6.390625 
Q 39.65625 6.390625 43.53125 10.953125 
Q 47.40625 15.53125 47.40625 23.390625 
Q 47.40625 31.296875 43.53125 35.828125 
Q 39.65625 40.375 33.015625 40.375 
z
M 52.59375 71.296875 
L 52.59375 62.3125 
Q 48.875 64.0625 45.09375 64.984375 
Q 41.3125 65.921875 37.59375 65.921875 
Q 27.828125 65.921875 22.671875 59.328125 
Q 17.53125 52.734375 16.796875 39.40625 
Q 19.671875 43.65625 24.015625 45.921875 
Q 28.375 48.1875 33.59375 48.1875 
Q 44.578125 48.1875 50.953125 41.515625 
Q 57.328125 34.859375 57.328125 23.390625 
Q 57.328125 12.15625 50.6875 5.359375 
Q 44.046875 -1.421875 33.015625 -1.421875 
Q 20.359375 -1.421875 13.671875 8.265625 
Q 6.984375 17.96875 6.984375 36.375 
Q 6.984375 53.65625 15.1875 63.9375 
Q 23.390625 74.21875 37.203125 74.21875 
Q 40.921875 74.21875 44.703125 73.484375 
Q 48.484375 72.75 52.59375 71.296875 
z
" id="DejaVuSans-54"/>
       </defs>
       <use xlink:href="#DejaVuSans-54"/>
       <use x="63.623047" xlink:href="#DejaVuSans-48"/>
       <use x="127.246094" xlink:href="#DejaVuSans-48"/>
       <use x="190.869141" xlink:href="#DejaVuSans-48"/>
       <use x="254.492188" xlink:href="#DejaVuSans-48"/>
      </g>
     </g>
    </g>
   </g>
   <g id="LineCollection_1">
    <path clip-path="url(#pb94b5cc095)" d="M 184.581818 498.370909 
L 184.581818 97.789091 
" style="fill:none;stroke:#ffa500;stroke-dasharray:5.55,2.4;stroke-dashoffset:0;stroke-width:1.5;"/>
   </g>
   <g id="LineCollection_2">
    <path clip-path="url(#pb94b5cc095)" d="M 612.14026 498.370909 
L 612.14026 97.789091 
" style="fill:none;stroke:#808080;stroke-dasharray:5.55,2.4;stroke-dashoffset:0;stroke-width:1.5;"/>
   </g>
   <g id="LineCollection_3">
    <path clip-path="url(#pb94b5cc095)" d="M 670.114286 498.370909 
L 670.114286 97.789091 
" style="fill:none;stroke:#800080;stroke-dasharray:5.55,2.4;stroke-dashoffset:0;stroke-width:1.5;"/>
   </g>
   <g id="LineCollection_4">
    <path clip-path="url(#pb94b5cc095)" d="M 902.01039 498.370909 
L 902.01039 97.789091 
" style="fill:none;stroke:#800080;stroke-dasharray:5.55,2.4;stroke-dashoffset:0;stroke-width:1.5;"/>
   </g>
   <g id="LineCollection_5">
    <path clip-path="url(#pb94b5cc095)" d="M 947.56141 498.370909 
L 947.56141 97.789091 
" style="fill:none;stroke:#800080;stroke-dasharray:5.55,2.4;stroke-dashoffset:0;stroke-width:1.5;"/>
   </g>
   <g id="line2d_33">
    <path clip-path="url(#pb94b5cc095)" d="M 776.745083 498.358783 
L 781.921336 498.298153 
L 782.956586 497.800988 
L 783.991837 496.655083 
L 785.027087 496.339807 
L 786.062338 495.800201 
L 788.132839 494.266264 
L 789.168089 493.878233 
L 791.23859 492.817209 
L 792.27384 492.132091 
L 794.344341 491.040753 
L 795.379592 490.295005 
L 796.414842 489.779651 
L 797.450093 488.96721 
L 798.485343 488.451856 
L 799.520594 487.42721 
L 800.555844 486.566266 
L 801.591095 485.923588 
L 805.732096 482.29792 
L 807.802597 477.817369 
L 808.837848 475.79233 
L 809.873098 472.882095 
L 810.908349 471.633119 
L 812.97885 468.547056 
L 814.0141 467.146505 
L 815.049351 465.127529 
L 816.084601 463.363199 
L 817.119852 461.168396 
L 818.155102 459.773908 
L 819.190353 456.803043 
L 820.225603 454.632492 
L 821.260853 453.12887 
L 822.296104 451.231154 
L 823.331354 448.16328 
L 824.366605 446.495958 
L 825.401855 444.204147 
L 826.437106 443.21588 
L 828.507607 439.802416 
L 829.542857 437.528794 
L 830.578108 435.831156 
L 831.613358 433.897062 
L 832.648609 430.847378 
L 833.683859 430.616984 
L 837.824861 430.477535 
L 838.860111 430.089504 
L 839.895362 429.549898 
L 840.930612 427.20352 
L 843.001113 423.329269 
L 844.036364 422.765411 
L 845.071614 420.109821 
L 846.106865 414.944152 
L 847.142115 411.609507 
L 849.212616 411.397303 
L 850.247866 391.055968 
L 851.283117 386.854315 
L 853.353618 386.654236 
L 856.459369 386.308646 
L 858.52987 382.537465 
L 859.565121 375.298254 
L 860.600371 371.096601 
L 861.635622 363.420854 
L 862.670872 357.873218 
L 863.706122 354.22936 
L 864.741373 349.148574 
L 865.776623 345.341015 
L 866.811874 342.679362 
L 867.847124 338.993064 
L 868.882375 335.797867 
L 869.917625 331.905427 
L 870.952876 328.837554 
L 875.093878 318.657792 
L 876.129128 316.614564 
L 877.164378 313.795273 
L 879.234879 309.047951 
L 880.27013 309.041888 
L 884.411132 298.358898 
L 885.446382 295.254646 
L 886.481633 293.035591 
L 891.657885 278.975515 
L 893.728386 274.313075 
L 894.763636 270.566147 
L 895.798887 267.583155 
L 896.834137 265.145833 
L 898.904638 257.148747 
L 899.939889 254.329457 
L 900.975139 251.983079 
L 902.01039 250.8493 
L 906.151391 237.631979 
L 907.186642 234.703555 
L 908.221892 233.07261 
L 909.257143 233.060484 
L 910.292393 229.713713 
L 914.433395 218.030329 
L 915.468646 214.604739 
L 916.503896 212.191669 
L 917.539147 209.408756 
L 919.609647 200.750805 
L 920.644898 197.270648 
L 921.680148 194.918207 
L 923.750649 188.200413 
L 924.7859 185.890414 
L 925.82115 182.877107 
L 926.856401 181.100651 
L 927.891651 178.311675 
L 928.926902 176.001675 
L 930.997403 173.218762 
L 934.103154 168.168291 
L 936.173655 165.403567 
L 937.208905 164.597189 
L 938.244156 162.323568 
L 940.314657 158.419001 
L 941.349907 156.139317 
L 943.420408 152.525774 
L 944.455659 151.246483 
L 946.52616 146.602232 
L 949.631911 140.745382 
L 950.667161 139.175068 
L 951.702412 137.31373 
L 952.737662 136.022312 
L 953.772913 134.070029 
L 955.843414 130.971841 
L 958.949165 128.043416 
L 962.054917 123.659874 
L 963.090167 121.780346 
L 964.125417 120.264599 
L 965.160668 119.276331 
L 967.231169 115.820426 
L 968.266419 114.63208 
L 969.30167 112.631293 
L 970.33692 109.963577 
L 973.442672 104.197672 
L 975.513173 100.796334 
L 976.548423 97.934603 
L 977.583673 97.789091 
L 996.218182 97.789091 
L 996.218182 97.789091 
" style="fill:none;stroke:#e24a33;stroke-linecap:square;stroke-width:1.5;"/>
   </g>
   <g id="line2d_34">
    <path clip-path="url(#pb94b5cc095)" d="M 822.296104 498.35272 
L 850.247866 498.134452 
L 860.600371 498.025319 
L 913.398145 497.509964 
L 996.218182 497.491775 
L 996.218182 497.491775 
" style="fill:none;stroke:#348abd;stroke-linecap:square;stroke-width:1.5;"/>
   </g>
   <g id="line2d_35">
    <path clip-path="url(#pb94b5cc095)" d="M 776.745083 498.340594 
L 777.780334 498.286027 
L 778.815584 498.104137 
L 779.850835 498.061697 
L 781.921336 497.182563 
L 783.991837 496.915791 
L 787.097588 496.642957 
L 789.168089 496.388311 
L 790.20334 496.145791 
L 794.344341 495.606185 
L 796.414842 495.096894 
L 798.485343 494.345083 
L 803.661596 493.453823 
L 805.732096 493.144611 
L 806.767347 492.526186 
L 808.837848 492.016894 
L 811.943599 491.065005 
L 812.97885 490.919493 
L 815.049351 490.343509 
L 817.119852 490.113115 
L 820.225603 489.136974 
L 821.260853 488.791383 
L 823.331354 488.336659 
L 824.366605 487.857683 
L 826.437106 487.275635 
L 827.472356 487.190754 
L 829.542857 486.59658 
L 831.613358 486.099415 
L 832.648609 485.735636 
L 834.719109 485.565872 
L 839.895362 485.2991 
L 840.930612 484.905006 
L 844.036364 484.353274 
L 846.106865 483.783353 
L 848.177365 483.061857 
L 849.212616 482.70414 
L 851.283117 482.570754 
L 854.388868 481.721936 
L 857.49462 481.273274 
L 859.565121 480.406267 
L 861.635622 479.896975 
L 864.741373 479.260361 
L 865.776623 478.50855 
L 868.882375 478.28422 
L 870.952876 477.720362 
L 871.988126 477.192881 
L 873.023377 476.416819 
L 874.058627 476.319811 
L 875.093878 476.028787 
L 876.129128 475.956031 
L 877.164378 475.737764 
L 879.234879 475.464929 
L 881.30538 475.052646 
L 886.481633 473.603591 
L 887.516883 473.470205 
L 888.552134 472.766898 
L 889.587384 472.451622 
L 891.657885 472.057528 
L 892.693135 471.596741 
L 895.798887 471.160205 
L 896.834137 470.948001 
L 898.904638 470.153749 
L 899.939889 469.868788 
L 900.975139 469.844536 
L 904.080891 469.056347 
L 910.292393 467.807371 
L 911.327644 467.000993 
L 913.398145 466.340127 
L 915.468646 465.570128 
L 916.503896 464.915325 
L 918.574397 464.199892 
L 919.609647 463.636033 
L 923.750649 462.265797 
L 924.7859 461.52005 
L 925.82115 461.283593 
L 926.856401 461.222963 
L 930.997403 460.295325 
L 932.032653 459.622333 
L 933.067904 459.313121 
L 937.208905 458.50068 
L 938.244156 458.209656 
L 941.349907 457.67005 
L 943.420408 457.088003 
L 944.455659 456.863672 
L 952.737662 454.177767 
L 954.808163 453.929185 
L 955.843414 453.674539 
L 962.054917 452.783279 
L 965.160668 451.83139 
L 967.231169 451.340288 
L 968.266419 451.188713 
L 969.30167 450.824933 
L 970.33692 450.17013 
L 971.372171 449.994304 
L 972.407421 449.509264 
L 974.477922 448.81202 
L 977.583673 448.229973 
L 996.218182 448.229973 
L 996.218182 448.229973 
" style="fill:none;stroke:#988ed5;stroke-linecap:square;stroke-width:1.5;"/>
   </g>
   <g id="line2d_36">
    <path clip-path="url(#pb94b5cc095)" d="M 856.459369 498.364846 
L 899.939889 498.255712 
L 907.186642 498.189019 
L 940.314657 498.079886 
L 983.795176 497.934374 
L 996.218182 497.934374 
L 996.218182 497.934374 
" style="fill:none;stroke:#777777;stroke-linecap:square;stroke-width:1.5;"/>
   </g>
   <g id="line2d_37">
    <path clip-path="url(#pb94b5cc095)" d="M 698.066048 498.286027 
L 704.277551 497.412957 
L 705.312801 496.46713 
L 706.348052 496.303429 
L 712.559555 496.127602 
L 717.735807 495.976028 
L 730.158813 495.733508 
L 738.440816 495.533429 
L 789.168089 495.04839 
L 800.555844 494.939256 
L 834.719109 494.848311 
L 885.446382 494.739177 
L 910.292393 494.7028 
L 996.218182 494.690674 
L 996.218182 494.690674 
" style="fill:none;stroke:#fbc15e;stroke-linecap:square;stroke-width:1.5;"/>
   </g>
   <g id="line2d_38">
    <path clip-path="url(#pb94b5cc095)" d="M 715.665306 498.328468 
L 726.017811 498.085949 
L 728.088312 497.916185 
L 735.335065 497.625161 
L 753.969573 497.1765 
L 783.991837 496.715713 
L 789.168089 496.570201 
L 824.366605 495.87902 
L 828.507607 495.648626 
L 831.613358 495.57587 
L 838.860111 495.236343 
L 852.318367 494.945319 
L 866.811874 494.678548 
L 893.728386 493.975241 
L 898.904638 493.914611 
L 902.01039 493.841855 
L 917.539147 493.556894 
L 924.7859 493.28406 
L 929.962152 493.199178 
L 934.103154 493.083981 
L 958.949165 492.126028 
L 963.090167 491.919887 
L 978.618924 491.362091 
L 996.218182 491.362091 
L 996.218182 491.362091 
" style="fill:none;stroke:#8eba42;stroke-linecap:square;stroke-width:1.5;"/>
   </g>
   <g id="line2d_39">
    <path clip-path="url(#pb94b5cc095)" d="M 776.745083 498.35272 
L 777.780334 498.237523 
L 778.815584 497.855555 
L 779.850835 497.231067 
L 780.886085 496.879413 
L 781.921336 496.10335 
L 782.956586 495.563744 
L 785.027087 494.993823 
L 786.062338 494.696737 
L 787.097588 494.145004 
L 789.168089 492.756579 
L 792.27384 491.089257 
L 793.309091 490.331383 
L 794.344341 489.058155 
L 795.379592 488.300281 
L 797.450093 486.099415 
L 798.485343 485.675006 
L 799.520594 484.747368 
L 800.555844 483.977368 
L 801.591095 483.346817 
L 803.661596 482.516188 
L 808.837848 479.120913 
L 809.873098 478.084141 
L 810.908349 477.653669 
L 812.97885 475.477055 
L 814.0141 474.276583 
L 815.049351 472.397055 
L 818.155102 469.026032 
L 819.190353 467.698237 
L 820.225603 466.170364 
L 821.260853 463.951309 
L 822.296104 462.33249 
L 824.366605 458.252097 
L 825.401855 456.936428 
L 826.437106 454.747689 
L 827.472356 453.201626 
L 828.507607 451.249343 
L 829.542857 447.769186 
L 830.578108 446.138241 
L 831.613358 444.295092 
L 832.648609 442.063911 
L 833.683859 441.663754 
L 836.78961 441.43336 
L 837.824861 439.384069 
L 840.930612 434.460921 
L 841.965863 433.218007 
L 843.001113 431.126275 
L 844.036364 428.585882 
L 845.071614 426.882182 
L 846.106865 423.735489 
L 847.142115 423.177694 
L 848.177365 422.146986 
L 849.212616 420.722183 
L 850.247866 419.661159 
L 852.318367 418.127223 
L 853.353618 416.841869 
L 854.388868 415.835412 
L 855.424119 415.350373 
L 857.49462 413.282893 
L 858.52987 411.476121 
L 862.670872 405.564705 
L 863.706122 404.691634 
L 864.741373 404.11565 
L 865.776623 403.194076 
L 866.811874 401.963289 
L 867.847124 401.266045 
L 868.882375 400.726438 
L 869.917625 399.483525 
L 873.023377 397.955651 
L 874.058627 397.294785 
L 877.164378 393.49329 
L 879.234879 391.819905 
L 880.27013 390.89833 
L 881.30538 389.752425 
L 882.340631 388.782346 
L 883.375881 387.624315 
L 884.411132 386.769433 
L 887.516883 383.313528 
L 888.552134 381.379434 
L 889.587384 380.476048 
L 891.657885 378.390379 
L 892.693135 377.359671 
L 893.728386 375.95912 
L 894.763636 374.231167 
L 896.834137 371.484633 
L 897.869388 368.756287 
L 899.939889 366.137074 
L 900.975139 365.306445 
L 903.04564 362.165815 
L 905.116141 360.304477 
L 907.186642 357.448808 
L 908.221892 356.430226 
L 911.327644 351.567707 
L 912.362894 349.876132 
L 913.398145 347.226605 
L 914.433395 344.092039 
L 915.468646 338.465583 
L 918.574397 328.898183 
L 920.644898 321.343697 
L 921.680148 319.421728 
L 922.715399 318.112122 
L 923.750649 316.493304 
L 924.7859 313.958974 
L 926.856401 310.751651 
L 927.891651 309.563305 
L 928.926902 308.550786 
L 930.997403 305.779999 
L 932.032653 304.973621 
L 933.067904 303.75496 
L 934.103154 302.754566 
L 935.138404 302.245275 
L 936.173655 301.396456 
L 937.208905 300.323307 
L 938.244156 298.898504 
L 939.279406 297.801102 
L 941.349907 292.010946 
L 943.420408 287.51827 
L 944.455659 280.527641 
L 945.490909 275.17402 
L 946.52616 272.718508 
L 947.56141 271.712052 
L 948.59666 268.753312 
L 952.737662 263.654337 
L 954.808163 261.811188 
L 955.843414 261.241266 
L 956.878664 260.810794 
L 957.913915 259.949849 
L 958.949165 258.925204 
L 959.984416 257.70048 
L 961.019666 256.827409 
L 962.054917 255.748197 
L 963.090167 254.844811 
L 964.125417 254.208197 
L 965.160668 253.20174 
L 966.195918 252.656071 
L 968.266419 251.886071 
L 971.372171 250.188434 
L 973.442672 249.133473 
L 976.548423 247.690481 
L 978.618924 247.617726 
L 996.218182 247.617726 
L 996.218182 247.617726 
" style="fill:none;stroke:#ffb5b8;stroke-linecap:square;stroke-width:1.5;"/>
   </g>
   <g id="line2d_40">
    <path clip-path="url(#pb94b5cc095)" d="M 786.062338 498.358783 
L 805.732096 498.23146 
L 815.049351 498.146578 
L 820.225603 498.00713 
L 831.613358 497.843429 
L 841.965863 497.710043 
L 858.52987 497.625161 
L 863.706122 497.576657 
L 886.481633 497.485712 
L 891.657885 497.419019 
L 909.257143 497.309886 
L 980.689425 497.000673 
L 996.218182 497.000673 
L 996.218182 497.000673 
" style="fill:none;stroke:#e24a33;stroke-linecap:square;stroke-width:1.5;"/>
   </g>
   <g id="patch_3">
    <path d="M 144 518.4 
L 144 77.76 
" style="fill:none;stroke:#ffffff;stroke-linecap:square;stroke-linejoin:miter;"/>
   </g>
   <g id="patch_4">
    <path d="M 1036.8 518.4 
L 1036.8 77.76 
" style="fill:none;stroke:#ffffff;stroke-linecap:square;stroke-linejoin:miter;"/>
   </g>
   <g id="patch_5">
    <path d="M 144 518.4 
L 1036.8 518.4 
" style="fill:none;stroke:#ffffff;stroke-linecap:square;stroke-linejoin:miter;"/>
   </g>
   <g id="patch_6">
    <path d="M 144 77.76 
L 1036.8 77.76 
" style="fill:none;stroke:#ffffff;stroke-linecap:square;stroke-linejoin:miter;"/>
   </g>
   <g id="legend_1">
    <g id="patch_7">
     <path d="M 151 276.575625 
L 399.167188 276.575625 
Q 401.167188 276.575625 401.167188 274.575625 
L 401.167188 84.76 
Q 401.167188 82.76 399.167188 82.76 
L 151 82.76 
Q 149 82.76 149 84.76 
L 149 274.575625 
Q 149 276.575625 151 276.575625 
z
" style="fill:#e5e5e5;opacity:0.8;stroke:#cccccc;stroke-linejoin:miter;stroke-width:0.5;"/>
    </g>
    <g id="line2d_41">
     <path d="M 153 90.858438 
L 173 90.858438 
" style="fill:none;stroke:#e24a33;stroke-linecap:square;stroke-width:1.5;"/>
    </g>
    <g id="line2d_42"/>
    <g id="text_17">
     <!-- Querdenken 089  MUeNCHEN  Disk -->
     <g transform="translate(181 94.358438)scale(0.1 -0.1)">
      <defs>
       <path d="M 39.40625 66.21875 
Q 28.65625 66.21875 22.328125 58.203125 
Q 16.015625 50.203125 16.015625 36.375 
Q 16.015625 22.609375 22.328125 14.59375 
Q 28.65625 6.59375 39.40625 6.59375 
Q 50.140625 6.59375 56.421875 14.59375 
Q 62.703125 22.609375 62.703125 36.375 
Q 62.703125 50.203125 56.421875 58.203125 
Q 50.140625 66.21875 39.40625 66.21875 
z
M 53.21875 1.3125 
L 66.21875 -12.890625 
L 54.296875 -12.890625 
L 43.5 -1.21875 
Q 41.890625 -1.3125 41.03125 -1.359375 
Q 40.1875 -1.421875 39.40625 -1.421875 
Q 24.03125 -1.421875 14.8125 8.859375 
Q 5.609375 19.140625 5.609375 36.375 
Q 5.609375 53.65625 14.8125 63.9375 
Q 24.03125 74.21875 39.40625 74.21875 
Q 54.734375 74.21875 63.90625 63.9375 
Q 73.09375 53.65625 73.09375 36.375 
Q 73.09375 23.6875 67.984375 14.640625 
Q 62.890625 5.609375 53.21875 1.3125 
z
" id="DejaVuSans-81"/>
       <path d="M 8.5 21.578125 
L 8.5 54.6875 
L 17.484375 54.6875 
L 17.484375 21.921875 
Q 17.484375 14.15625 20.5 10.265625 
Q 23.53125 6.390625 29.59375 6.390625 
Q 36.859375 6.390625 41.078125 11.03125 
Q 45.3125 15.671875 45.3125 23.6875 
L 45.3125 54.6875 
L 54.296875 54.6875 
L 54.296875 0 
L 45.3125 0 
L 45.3125 8.40625 
Q 42.046875 3.421875 37.71875 1 
Q 33.40625 -1.421875 27.6875 -1.421875 
Q 18.265625 -1.421875 13.375 4.4375 
Q 8.5 10.296875 8.5 21.578125 
z
M 31.109375 56 
z
" id="DejaVuSans-117"/>
       <path d="M 56.203125 29.59375 
L 56.203125 25.203125 
L 14.890625 25.203125 
Q 15.484375 15.921875 20.484375 11.0625 
Q 25.484375 6.203125 34.421875 6.203125 
Q 39.59375 6.203125 44.453125 7.46875 
Q 49.3125 8.734375 54.109375 11.28125 
L 54.109375 2.78125 
Q 49.265625 0.734375 44.1875 -0.34375 
Q 39.109375 -1.421875 33.890625 -1.421875 
Q 20.796875 -1.421875 13.15625 6.1875 
Q 5.515625 13.8125 5.515625 26.8125 
Q 5.515625 40.234375 12.765625 48.109375 
Q 20.015625 56 32.328125 56 
Q 43.359375 56 49.78125 48.890625 
Q 56.203125 41.796875 56.203125 29.59375 
z
M 47.21875 32.234375 
Q 47.125 39.59375 43.09375 43.984375 
Q 39.0625 48.390625 32.421875 48.390625 
Q 24.90625 48.390625 20.390625 44.140625 
Q 15.875 39.890625 15.1875 32.171875 
z
" id="DejaVuSans-101"/>
       <path d="M 41.109375 46.296875 
Q 39.59375 47.171875 37.8125 47.578125 
Q 36.03125 48 33.890625 48 
Q 26.265625 48 22.1875 43.046875 
Q 18.109375 38.09375 18.109375 28.8125 
L 18.109375 0 
L 9.078125 0 
L 9.078125 54.6875 
L 18.109375 54.6875 
L 18.109375 46.1875 
Q 20.953125 51.171875 25.484375 53.578125 
Q 30.03125 56 36.53125 56 
Q 37.453125 56 38.578125 55.875 
Q 39.703125 55.765625 41.0625 55.515625 
z
" id="DejaVuSans-114"/>
       <path d="M 45.40625 46.390625 
L 45.40625 75.984375 
L 54.390625 75.984375 
L 54.390625 0 
L 45.40625 0 
L 45.40625 8.203125 
Q 42.578125 3.328125 38.25 0.953125 
Q 33.9375 -1.421875 27.875 -1.421875 
Q 17.96875 -1.421875 11.734375 6.484375 
Q 5.515625 14.40625 5.515625 27.296875 
Q 5.515625 40.1875 11.734375 48.09375 
Q 17.96875 56 27.875 56 
Q 33.9375 56 38.25 53.625 
Q 42.578125 51.265625 45.40625 46.390625 
z
M 14.796875 27.296875 
Q 14.796875 17.390625 18.875 11.75 
Q 22.953125 6.109375 30.078125 6.109375 
Q 37.203125 6.109375 41.296875 11.75 
Q 45.40625 17.390625 45.40625 27.296875 
Q 45.40625 37.203125 41.296875 42.84375 
Q 37.203125 48.484375 30.078125 48.484375 
Q 22.953125 48.484375 18.875 42.84375 
Q 14.796875 37.203125 14.796875 27.296875 
z
" id="DejaVuSans-100"/>
       <path d="M 54.890625 33.015625 
L 54.890625 0 
L 45.90625 0 
L 45.90625 32.71875 
Q 45.90625 40.484375 42.875 44.328125 
Q 39.84375 48.1875 33.796875 48.1875 
Q 26.515625 48.1875 22.3125 43.546875 
Q 18.109375 38.921875 18.109375 30.90625 
L 18.109375 0 
L 9.078125 0 
L 9.078125 54.6875 
L 18.109375 54.6875 
L 18.109375 46.1875 
Q 21.34375 51.125 25.703125 53.5625 
Q 30.078125 56 35.796875 56 
Q 45.21875 56 50.046875 50.171875 
Q 54.890625 44.34375 54.890625 33.015625 
z
" id="DejaVuSans-110"/>
       <path d="M 9.078125 75.984375 
L 18.109375 75.984375 
L 18.109375 31.109375 
L 44.921875 54.6875 
L 56.390625 54.6875 
L 27.390625 29.109375 
L 57.625 0 
L 45.90625 0 
L 18.109375 26.703125 
L 18.109375 0 
L 9.078125 0 
z
" id="DejaVuSans-107"/>
       <path id="DejaVuSans-32"/>
       <path d="M 31.78125 34.625 
Q 24.75 34.625 20.71875 30.859375 
Q 16.703125 27.09375 16.703125 20.515625 
Q 16.703125 13.921875 20.71875 10.15625 
Q 24.75 6.390625 31.78125 6.390625 
Q 38.8125 6.390625 42.859375 10.171875 
Q 46.921875 13.96875 46.921875 20.515625 
Q 46.921875 27.09375 42.890625 30.859375 
Q 38.875 34.625 31.78125 34.625 
z
M 21.921875 38.8125 
Q 15.578125 40.375 12.03125 44.71875 
Q 8.5 49.078125 8.5 55.328125 
Q 8.5 64.0625 14.71875 69.140625 
Q 20.953125 74.21875 31.78125 74.21875 
Q 42.671875 74.21875 48.875 69.140625 
Q 55.078125 64.0625 55.078125 55.328125 
Q 55.078125 49.078125 51.53125 44.71875 
Q 48 40.375 41.703125 38.8125 
Q 48.828125 37.15625 52.796875 32.3125 
Q 56.78125 27.484375 56.78125 20.515625 
Q 56.78125 9.90625 50.3125 4.234375 
Q 43.84375 -1.421875 31.78125 -1.421875 
Q 19.734375 -1.421875 13.25 4.234375 
Q 6.78125 9.90625 6.78125 20.515625 
Q 6.78125 27.484375 10.78125 32.3125 
Q 14.796875 37.15625 21.921875 38.8125 
z
M 18.3125 54.390625 
Q 18.3125 48.734375 21.84375 45.5625 
Q 25.390625 42.390625 31.78125 42.390625 
Q 38.140625 42.390625 41.71875 45.5625 
Q 45.3125 48.734375 45.3125 54.390625 
Q 45.3125 60.0625 41.71875 63.234375 
Q 38.140625 66.40625 31.78125 66.40625 
Q 25.390625 66.40625 21.84375 63.234375 
Q 18.3125 60.0625 18.3125 54.390625 
z
" id="DejaVuSans-56"/>
       <path d="M 9.8125 72.90625 
L 24.515625 72.90625 
L 43.109375 23.296875 
L 61.8125 72.90625 
L 76.515625 72.90625 
L 76.515625 0 
L 66.890625 0 
L 66.890625 64.015625 
L 48.09375 14.015625 
L 38.1875 14.015625 
L 19.390625 64.015625 
L 19.390625 0 
L 9.8125 0 
z
" id="DejaVuSans-77"/>
       <path d="M 8.6875 72.90625 
L 18.609375 72.90625 
L 18.609375 28.609375 
Q 18.609375 16.890625 22.84375 11.734375 
Q 27.09375 6.59375 36.625 6.59375 
Q 46.09375 6.59375 50.34375 11.734375 
Q 54.59375 16.890625 54.59375 28.609375 
L 54.59375 72.90625 
L 64.5 72.90625 
L 64.5 27.390625 
Q 64.5 13.140625 57.4375 5.859375 
Q 50.390625 -1.421875 36.625 -1.421875 
Q 22.796875 -1.421875 15.734375 5.859375 
Q 8.6875 13.140625 8.6875 27.390625 
z
" id="DejaVuSans-85"/>
       <path d="M 9.8125 72.90625 
L 23.09375 72.90625 
L 55.421875 11.921875 
L 55.421875 72.90625 
L 64.984375 72.90625 
L 64.984375 0 
L 51.703125 0 
L 19.390625 60.984375 
L 19.390625 0 
L 9.8125 0 
z
" id="DejaVuSans-78"/>
       <path d="M 64.40625 67.28125 
L 64.40625 56.890625 
Q 59.421875 61.53125 53.78125 63.8125 
Q 48.140625 66.109375 41.796875 66.109375 
Q 29.296875 66.109375 22.65625 58.46875 
Q 16.015625 50.828125 16.015625 36.375 
Q 16.015625 21.96875 22.65625 14.328125 
Q 29.296875 6.6875 41.796875 6.6875 
Q 48.140625 6.6875 53.78125 8.984375 
Q 59.421875 11.28125 64.40625 15.921875 
L 64.40625 5.609375 
Q 59.234375 2.09375 53.4375 0.328125 
Q 47.65625 -1.421875 41.21875 -1.421875 
Q 24.65625 -1.421875 15.125 8.703125 
Q 5.609375 18.84375 5.609375 36.375 
Q 5.609375 53.953125 15.125 64.078125 
Q 24.65625 74.21875 41.21875 74.21875 
Q 47.75 74.21875 53.53125 72.484375 
Q 59.328125 70.75 64.40625 67.28125 
z
" id="DejaVuSans-67"/>
       <path d="M 9.8125 72.90625 
L 19.671875 72.90625 
L 19.671875 43.015625 
L 55.515625 43.015625 
L 55.515625 72.90625 
L 65.375 72.90625 
L 65.375 0 
L 55.515625 0 
L 55.515625 34.71875 
L 19.671875 34.71875 
L 19.671875 0 
L 9.8125 0 
z
" id="DejaVuSans-72"/>
       <path d="M 9.8125 72.90625 
L 55.90625 72.90625 
L 55.90625 64.59375 
L 19.671875 64.59375 
L 19.671875 43.015625 
L 54.390625 43.015625 
L 54.390625 34.71875 
L 19.671875 34.71875 
L 19.671875 8.296875 
L 56.78125 8.296875 
L 56.78125 0 
L 9.8125 0 
z
" id="DejaVuSans-69"/>
       <path d="M 19.671875 64.796875 
L 19.671875 8.109375 
L 31.59375 8.109375 
Q 46.6875 8.109375 53.6875 14.9375 
Q 60.6875 21.78125 60.6875 36.53125 
Q 60.6875 51.171875 53.6875 57.984375 
Q 46.6875 64.796875 31.59375 64.796875 
z
M 9.8125 72.90625 
L 30.078125 72.90625 
Q 51.265625 72.90625 61.171875 64.09375 
Q 71.09375 55.28125 71.09375 36.53125 
Q 71.09375 17.671875 61.125 8.828125 
Q 51.171875 0 30.078125 0 
L 9.8125 0 
z
" id="DejaVuSans-68"/>
       <path d="M 9.421875 54.6875 
L 18.40625 54.6875 
L 18.40625 0 
L 9.421875 0 
z
M 9.421875 75.984375 
L 18.40625 75.984375 
L 18.40625 64.59375 
L 9.421875 64.59375 
z
" id="DejaVuSans-105"/>
       <path d="M 44.28125 53.078125 
L 44.28125 44.578125 
Q 40.484375 46.53125 36.375 47.5 
Q 32.28125 48.484375 27.875 48.484375 
Q 21.1875 48.484375 17.84375 46.4375 
Q 14.5 44.390625 14.5 40.28125 
Q 14.5 37.15625 16.890625 35.375 
Q 19.28125 33.59375 26.515625 31.984375 
L 29.59375 31.296875 
Q 39.15625 29.25 43.1875 25.515625 
Q 47.21875 21.78125 47.21875 15.09375 
Q 47.21875 7.46875 41.1875 3.015625 
Q 35.15625 -1.421875 24.609375 -1.421875 
Q 20.21875 -1.421875 15.453125 -0.5625 
Q 10.6875 0.296875 5.421875 2 
L 5.421875 11.28125 
Q 10.40625 8.6875 15.234375 7.390625 
Q 20.0625 6.109375 24.8125 6.109375 
Q 31.15625 6.109375 34.5625 8.28125 
Q 37.984375 10.453125 37.984375 14.40625 
Q 37.984375 18.0625 35.515625 20.015625 
Q 33.0625 21.96875 24.703125 23.78125 
L 21.578125 24.515625 
Q 13.234375 26.265625 9.515625 29.90625 
Q 5.8125 33.546875 5.8125 39.890625 
Q 5.8125 47.609375 11.28125 51.796875 
Q 16.75 56 26.8125 56 
Q 31.78125 56 36.171875 55.265625 
Q 40.578125 54.546875 44.28125 53.078125 
z
" id="DejaVuSans-115"/>
      </defs>
      <use xlink:href="#DejaVuSans-81"/>
      <use x="78.710938" xlink:href="#DejaVuSans-117"/>
      <use x="142.089844" xlink:href="#DejaVuSans-101"/>
      <use x="203.613281" xlink:href="#DejaVuSans-114"/>
      <use x="242.976562" xlink:href="#DejaVuSans-100"/>
      <use x="306.453125" xlink:href="#DejaVuSans-101"/>
      <use x="367.976562" xlink:href="#DejaVuSans-110"/>
      <use x="431.355469" xlink:href="#DejaVuSans-107"/>
      <use x="485.640625" xlink:href="#DejaVuSans-101"/>
      <use x="547.164062" xlink:href="#DejaVuSans-110"/>
      <use x="610.542969" xlink:href="#DejaVuSans-32"/>
      <use x="642.330078" xlink:href="#DejaVuSans-48"/>
      <use x="705.953125" xlink:href="#DejaVuSans-56"/>
      <use x="769.576172" xlink:href="#DejaVuSans-57"/>
      <use x="833.199219" xlink:href="#DejaVuSans-32"/>
      <use x="864.986328" xlink:href="#DejaVuSans-32"/>
      <use x="896.773438" xlink:href="#DejaVuSans-77"/>
      <use x="983.052734" xlink:href="#DejaVuSans-85"/>
      <use x="1056.246094" xlink:href="#DejaVuSans-101"/>
      <use x="1117.769531" xlink:href="#DejaVuSans-78"/>
      <use x="1192.574219" xlink:href="#DejaVuSans-67"/>
      <use x="1262.398438" xlink:href="#DejaVuSans-72"/>
      <use x="1337.59375" xlink:href="#DejaVuSans-69"/>
      <use x="1400.777344" xlink:href="#DejaVuSans-78"/>
      <use x="1475.582031" xlink:href="#DejaVuSans-32"/>
      <use x="1507.369141" xlink:href="#DejaVuSans-32"/>
      <use x="1539.15625" xlink:href="#DejaVuSans-68"/>
      <use x="1616.158203" xlink:href="#DejaVuSans-105"/>
      <use x="1643.941406" xlink:href="#DejaVuSans-115"/>
      <use x="1696.041016" xlink:href="#DejaVuSans-107"/>
     </g>
    </g>
    <g id="line2d_43">
     <path d="M 153 105.536563 
L 173 105.536563 
" style="fill:none;stroke:#348abd;stroke-linecap:square;stroke-width:1.5;"/>
    </g>
    <g id="line2d_44"/>
    <g id="text_18">
     <!-- QUERDENKEN 591  Emsland  INFOK -->
     <g transform="translate(181 109.036563)scale(0.1 -0.1)">
      <defs>
       <path d="M 44.390625 34.1875 
Q 47.5625 33.109375 50.5625 29.59375 
Q 53.5625 26.078125 56.59375 19.921875 
L 66.609375 0 
L 56 0 
L 46.6875 18.703125 
Q 43.0625 26.03125 39.671875 28.421875 
Q 36.28125 30.8125 30.421875 30.8125 
L 19.671875 30.8125 
L 19.671875 0 
L 9.8125 0 
L 9.8125 72.90625 
L 32.078125 72.90625 
Q 44.578125 72.90625 50.734375 67.671875 
Q 56.890625 62.453125 56.890625 51.90625 
Q 56.890625 45.015625 53.6875 40.46875 
Q 50.484375 35.9375 44.390625 34.1875 
z
M 19.671875 64.796875 
L 19.671875 38.921875 
L 32.078125 38.921875 
Q 39.203125 38.921875 42.84375 42.21875 
Q 46.484375 45.515625 46.484375 51.90625 
Q 46.484375 58.296875 42.84375 61.546875 
Q 39.203125 64.796875 32.078125 64.796875 
z
" id="DejaVuSans-82"/>
       <path d="M 9.8125 72.90625 
L 19.671875 72.90625 
L 19.671875 42.09375 
L 52.390625 72.90625 
L 65.09375 72.90625 
L 28.90625 38.921875 
L 67.671875 0 
L 54.6875 0 
L 19.671875 35.109375 
L 19.671875 0 
L 9.8125 0 
z
" id="DejaVuSans-75"/>
       <path d="M 52 44.1875 
Q 55.375 50.25 60.0625 53.125 
Q 64.75 56 71.09375 56 
Q 79.640625 56 84.28125 50.015625 
Q 88.921875 44.046875 88.921875 33.015625 
L 88.921875 0 
L 79.890625 0 
L 79.890625 32.71875 
Q 79.890625 40.578125 77.09375 44.375 
Q 74.3125 48.1875 68.609375 48.1875 
Q 61.625 48.1875 57.5625 43.546875 
Q 53.515625 38.921875 53.515625 30.90625 
L 53.515625 0 
L 44.484375 0 
L 44.484375 32.71875 
Q 44.484375 40.625 41.703125 44.40625 
Q 38.921875 48.1875 33.109375 48.1875 
Q 26.21875 48.1875 22.15625 43.53125 
Q 18.109375 38.875 18.109375 30.90625 
L 18.109375 0 
L 9.078125 0 
L 9.078125 54.6875 
L 18.109375 54.6875 
L 18.109375 46.1875 
Q 21.1875 51.21875 25.484375 53.609375 
Q 29.78125 56 35.6875 56 
Q 41.65625 56 45.828125 52.96875 
Q 50 49.953125 52 44.1875 
z
" id="DejaVuSans-109"/>
       <path d="M 9.421875 75.984375 
L 18.40625 75.984375 
L 18.40625 0 
L 9.421875 0 
z
" id="DejaVuSans-108"/>
       <path d="M 34.28125 27.484375 
Q 23.390625 27.484375 19.1875 25 
Q 14.984375 22.515625 14.984375 16.5 
Q 14.984375 11.71875 18.140625 8.90625 
Q 21.296875 6.109375 26.703125 6.109375 
Q 34.1875 6.109375 38.703125 11.40625 
Q 43.21875 16.703125 43.21875 25.484375 
L 43.21875 27.484375 
z
M 52.203125 31.203125 
L 52.203125 0 
L 43.21875 0 
L 43.21875 8.296875 
Q 40.140625 3.328125 35.546875 0.953125 
Q 30.953125 -1.421875 24.3125 -1.421875 
Q 15.921875 -1.421875 10.953125 3.296875 
Q 6 8.015625 6 15.921875 
Q 6 25.140625 12.171875 29.828125 
Q 18.359375 34.515625 30.609375 34.515625 
L 43.21875 34.515625 
L 43.21875 35.40625 
Q 43.21875 41.609375 39.140625 45 
Q 35.0625 48.390625 27.6875 48.390625 
Q 23 48.390625 18.546875 47.265625 
Q 14.109375 46.140625 10.015625 43.890625 
L 10.015625 52.203125 
Q 14.9375 54.109375 19.578125 55.046875 
Q 24.21875 56 28.609375 56 
Q 40.484375 56 46.34375 49.84375 
Q 52.203125 43.703125 52.203125 31.203125 
z
" id="DejaVuSans-97"/>
       <path d="M 9.8125 72.90625 
L 19.671875 72.90625 
L 19.671875 0 
L 9.8125 0 
z
" id="DejaVuSans-73"/>
       <path d="M 9.8125 72.90625 
L 51.703125 72.90625 
L 51.703125 64.59375 
L 19.671875 64.59375 
L 19.671875 43.109375 
L 48.578125 43.109375 
L 48.578125 34.8125 
L 19.671875 34.8125 
L 19.671875 0 
L 9.8125 0 
z
" id="DejaVuSans-70"/>
       <path d="M 39.40625 66.21875 
Q 28.65625 66.21875 22.328125 58.203125 
Q 16.015625 50.203125 16.015625 36.375 
Q 16.015625 22.609375 22.328125 14.59375 
Q 28.65625 6.59375 39.40625 6.59375 
Q 50.140625 6.59375 56.421875 14.59375 
Q 62.703125 22.609375 62.703125 36.375 
Q 62.703125 50.203125 56.421875 58.203125 
Q 50.140625 66.21875 39.40625 66.21875 
z
M 39.40625 74.21875 
Q 54.734375 74.21875 63.90625 63.9375 
Q 73.09375 53.65625 73.09375 36.375 
Q 73.09375 19.140625 63.90625 8.859375 
Q 54.734375 -1.421875 39.40625 -1.421875 
Q 24.03125 -1.421875 14.8125 8.828125 
Q 5.609375 19.09375 5.609375 36.375 
Q 5.609375 53.65625 14.8125 63.9375 
Q 24.03125 74.21875 39.40625 74.21875 
z
" id="DejaVuSans-79"/>
      </defs>
      <use xlink:href="#DejaVuSans-81"/>
      <use x="78.710938" xlink:href="#DejaVuSans-85"/>
      <use x="151.904297" xlink:href="#DejaVuSans-69"/>
      <use x="215.087891" xlink:href="#DejaVuSans-82"/>
      <use x="284.570312" xlink:href="#DejaVuSans-68"/>
      <use x="361.572266" xlink:href="#DejaVuSans-69"/>
      <use x="424.755859" xlink:href="#DejaVuSans-78"/>
      <use x="499.560547" xlink:href="#DejaVuSans-75"/>
      <use x="565.136719" xlink:href="#DejaVuSans-69"/>
      <use x="628.320312" xlink:href="#DejaVuSans-78"/>
      <use x="703.125" xlink:href="#DejaVuSans-32"/>
      <use x="734.912109" xlink:href="#DejaVuSans-53"/>
      <use x="798.535156" xlink:href="#DejaVuSans-57"/>
      <use x="862.158203" xlink:href="#DejaVuSans-49"/>
      <use x="925.78125" xlink:href="#DejaVuSans-32"/>
      <use x="957.568359" xlink:href="#DejaVuSans-32"/>
      <use x="989.355469" xlink:href="#DejaVuSans-69"/>
      <use x="1052.539062" xlink:href="#DejaVuSans-109"/>
      <use x="1149.951172" xlink:href="#DejaVuSans-115"/>
      <use x="1202.050781" xlink:href="#DejaVuSans-108"/>
      <use x="1229.833984" xlink:href="#DejaVuSans-97"/>
      <use x="1291.113281" xlink:href="#DejaVuSans-110"/>
      <use x="1354.492188" xlink:href="#DejaVuSans-100"/>
      <use x="1417.96875" xlink:href="#DejaVuSans-32"/>
      <use x="1449.755859" xlink:href="#DejaVuSans-32"/>
      <use x="1481.542969" xlink:href="#DejaVuSans-73"/>
      <use x="1511.035156" xlink:href="#DejaVuSans-78"/>
      <use x="1585.839844" xlink:href="#DejaVuSans-70"/>
      <use x="1643.359375" xlink:href="#DejaVuSans-79"/>
      <use x="1722.070312" xlink:href="#DejaVuSans-75"/>
     </g>
    </g>
    <g id="line2d_45">
     <path d="M 153 120.214688 
L 173 120.214688 
" style="fill:none;stroke:#988ed5;stroke-linecap:square;stroke-width:1.5;"/>
    </g>
    <g id="line2d_46"/>
    <g id="text_19">
     <!-- QUERDENKEN 773  HEGAU  Diskuss -->
     <g transform="translate(181 123.714688)scale(0.1 -0.1)">
      <defs>
       <path d="M 59.515625 10.40625 
L 59.515625 29.984375 
L 43.40625 29.984375 
L 43.40625 38.09375 
L 69.28125 38.09375 
L 69.28125 6.78125 
Q 63.578125 2.734375 56.6875 0.65625 
Q 49.8125 -1.421875 42 -1.421875 
Q 24.90625 -1.421875 15.25 8.5625 
Q 5.609375 18.5625 5.609375 36.375 
Q 5.609375 54.25 15.25 64.234375 
Q 24.90625 74.21875 42 74.21875 
Q 49.125 74.21875 55.546875 72.453125 
Q 61.96875 70.703125 67.390625 67.28125 
L 67.390625 56.78125 
Q 61.921875 61.421875 55.765625 63.765625 
Q 49.609375 66.109375 42.828125 66.109375 
Q 29.4375 66.109375 22.71875 58.640625 
Q 16.015625 51.171875 16.015625 36.375 
Q 16.015625 21.625 22.71875 14.15625 
Q 29.4375 6.6875 42.828125 6.6875 
Q 48.046875 6.6875 52.140625 7.59375 
Q 56.25 8.5 59.515625 10.40625 
z
" id="DejaVuSans-71"/>
       <path d="M 34.1875 63.1875 
L 20.796875 26.90625 
L 47.609375 26.90625 
z
M 28.609375 72.90625 
L 39.796875 72.90625 
L 67.578125 0 
L 57.328125 0 
L 50.6875 18.703125 
L 17.828125 18.703125 
L 11.1875 0 
L 0.78125 0 
z
" id="DejaVuSans-65"/>
      </defs>
      <use xlink:href="#DejaVuSans-81"/>
      <use x="78.710938" xlink:href="#DejaVuSans-85"/>
      <use x="151.904297" xlink:href="#DejaVuSans-69"/>
      <use x="215.087891" xlink:href="#DejaVuSans-82"/>
      <use x="284.570312" xlink:href="#DejaVuSans-68"/>
      <use x="361.572266" xlink:href="#DejaVuSans-69"/>
      <use x="424.755859" xlink:href="#DejaVuSans-78"/>
      <use x="499.560547" xlink:href="#DejaVuSans-75"/>
      <use x="565.136719" xlink:href="#DejaVuSans-69"/>
      <use x="628.320312" xlink:href="#DejaVuSans-78"/>
      <use x="703.125" xlink:href="#DejaVuSans-32"/>
      <use x="734.912109" xlink:href="#DejaVuSans-55"/>
      <use x="798.535156" xlink:href="#DejaVuSans-55"/>
      <use x="862.158203" xlink:href="#DejaVuSans-51"/>
      <use x="925.78125" xlink:href="#DejaVuSans-32"/>
      <use x="957.568359" xlink:href="#DejaVuSans-32"/>
      <use x="989.355469" xlink:href="#DejaVuSans-72"/>
      <use x="1064.550781" xlink:href="#DejaVuSans-69"/>
      <use x="1127.734375" xlink:href="#DejaVuSans-71"/>
      <use x="1205.224609" xlink:href="#DejaVuSans-65"/>
      <use x="1273.632812" xlink:href="#DejaVuSans-85"/>
      <use x="1346.826172" xlink:href="#DejaVuSans-32"/>
      <use x="1378.613281" xlink:href="#DejaVuSans-32"/>
      <use x="1410.400391" xlink:href="#DejaVuSans-68"/>
      <use x="1487.402344" xlink:href="#DejaVuSans-105"/>
      <use x="1515.185547" xlink:href="#DejaVuSans-115"/>
      <use x="1567.285156" xlink:href="#DejaVuSans-107"/>
      <use x="1622.070312" xlink:href="#DejaVuSans-117"/>
      <use x="1685.449219" xlink:href="#DejaVuSans-115"/>
      <use x="1737.548828" xlink:href="#DejaVuSans-115"/>
     </g>
    </g>
    <g id="line2d_47">
     <path d="M 153 134.892813 
L 173 134.892813 
" style="fill:none;stroke:#777777;stroke-linecap:square;stroke-width:1.5;"/>
    </g>
    <g id="line2d_48"/>
    <g id="text_20">
     <!-- QUERDENKEN 773  HEGAU  INFOKan -->
     <g transform="translate(181 138.392813)scale(0.1 -0.1)">
      <use xlink:href="#DejaVuSans-81"/>
      <use x="78.710938" xlink:href="#DejaVuSans-85"/>
      <use x="151.904297" xlink:href="#DejaVuSans-69"/>
      <use x="215.087891" xlink:href="#DejaVuSans-82"/>
      <use x="284.570312" xlink:href="#DejaVuSans-68"/>
      <use x="361.572266" xlink:href="#DejaVuSans-69"/>
      <use x="424.755859" xlink:href="#DejaVuSans-78"/>
      <use x="499.560547" xlink:href="#DejaVuSans-75"/>
      <use x="565.136719" xlink:href="#DejaVuSans-69"/>
      <use x="628.320312" xlink:href="#DejaVuSans-78"/>
      <use x="703.125" xlink:href="#DejaVuSans-32"/>
      <use x="734.912109" xlink:href="#DejaVuSans-55"/>
      <use x="798.535156" xlink:href="#DejaVuSans-55"/>
      <use x="862.158203" xlink:href="#DejaVuSans-51"/>
      <use x="925.78125" xlink:href="#DejaVuSans-32"/>
      <use x="957.568359" xlink:href="#DejaVuSans-32"/>
      <use x="989.355469" xlink:href="#DejaVuSans-72"/>
      <use x="1064.550781" xlink:href="#DejaVuSans-69"/>
      <use x="1127.734375" xlink:href="#DejaVuSans-71"/>
      <use x="1205.224609" xlink:href="#DejaVuSans-65"/>
      <use x="1273.632812" xlink:href="#DejaVuSans-85"/>
      <use x="1346.826172" xlink:href="#DejaVuSans-32"/>
      <use x="1378.613281" xlink:href="#DejaVuSans-32"/>
      <use x="1410.400391" xlink:href="#DejaVuSans-73"/>
      <use x="1439.892578" xlink:href="#DejaVuSans-78"/>
      <use x="1514.697266" xlink:href="#DejaVuSans-70"/>
      <use x="1572.216797" xlink:href="#DejaVuSans-79"/>
      <use x="1650.927734" xlink:href="#DejaVuSans-75"/>
      <use x="1714.753906" xlink:href="#DejaVuSans-97"/>
      <use x="1776.033203" xlink:href="#DejaVuSans-110"/>
     </g>
    </g>
    <g id="line2d_49">
     <path d="M 153 149.570938 
L 173 149.570938 
" style="fill:none;stroke:#fbc15e;stroke-linecap:square;stroke-width:1.5;"/>
    </g>
    <g id="line2d_50"/>
    <g id="text_21">
     <!-- Querdenken 711  STUTTGART  Wir -->
     <g transform="translate(181 153.070938)scale(0.1 -0.1)">
      <defs>
       <path d="M 53.515625 70.515625 
L 53.515625 60.890625 
Q 47.90625 63.578125 42.921875 64.890625 
Q 37.9375 66.21875 33.296875 66.21875 
Q 25.25 66.21875 20.875 63.09375 
Q 16.5 59.96875 16.5 54.203125 
Q 16.5 49.359375 19.40625 46.890625 
Q 22.3125 44.4375 30.421875 42.921875 
L 36.375 41.703125 
Q 47.40625 39.59375 52.65625 34.296875 
Q 57.90625 29 57.90625 20.125 
Q 57.90625 9.515625 50.796875 4.046875 
Q 43.703125 -1.421875 29.984375 -1.421875 
Q 24.8125 -1.421875 18.96875 -0.25 
Q 13.140625 0.921875 6.890625 3.21875 
L 6.890625 13.375 
Q 12.890625 10.015625 18.65625 8.296875 
Q 24.421875 6.59375 29.984375 6.59375 
Q 38.421875 6.59375 43.015625 9.90625 
Q 47.609375 13.234375 47.609375 19.390625 
Q 47.609375 24.75 44.3125 27.78125 
Q 41.015625 30.8125 33.5 32.328125 
L 27.484375 33.5 
Q 16.453125 35.6875 11.515625 40.375 
Q 6.59375 45.0625 6.59375 53.421875 
Q 6.59375 63.09375 13.40625 68.65625 
Q 20.21875 74.21875 32.171875 74.21875 
Q 37.3125 74.21875 42.625 73.28125 
Q 47.953125 72.359375 53.515625 70.515625 
z
" id="DejaVuSans-83"/>
       <path d="M -0.296875 72.90625 
L 61.375 72.90625 
L 61.375 64.59375 
L 35.5 64.59375 
L 35.5 0 
L 25.59375 0 
L 25.59375 64.59375 
L -0.296875 64.59375 
z
" id="DejaVuSans-84"/>
       <path d="M 3.328125 72.90625 
L 13.28125 72.90625 
L 28.609375 11.28125 
L 43.890625 72.90625 
L 54.984375 72.90625 
L 70.3125 11.28125 
L 85.59375 72.90625 
L 95.609375 72.90625 
L 77.296875 0 
L 64.890625 0 
L 49.515625 63.28125 
L 33.984375 0 
L 21.578125 0 
z
" id="DejaVuSans-87"/>
      </defs>
      <use xlink:href="#DejaVuSans-81"/>
      <use x="78.710938" xlink:href="#DejaVuSans-117"/>
      <use x="142.089844" xlink:href="#DejaVuSans-101"/>
      <use x="203.613281" xlink:href="#DejaVuSans-114"/>
      <use x="242.976562" xlink:href="#DejaVuSans-100"/>
      <use x="306.453125" xlink:href="#DejaVuSans-101"/>
      <use x="367.976562" xlink:href="#DejaVuSans-110"/>
      <use x="431.355469" xlink:href="#DejaVuSans-107"/>
      <use x="485.640625" xlink:href="#DejaVuSans-101"/>
      <use x="547.164062" xlink:href="#DejaVuSans-110"/>
      <use x="610.542969" xlink:href="#DejaVuSans-32"/>
      <use x="642.330078" xlink:href="#DejaVuSans-55"/>
      <use x="705.953125" xlink:href="#DejaVuSans-49"/>
      <use x="769.576172" xlink:href="#DejaVuSans-49"/>
      <use x="833.199219" xlink:href="#DejaVuSans-32"/>
      <use x="864.986328" xlink:href="#DejaVuSans-32"/>
      <use x="896.773438" xlink:href="#DejaVuSans-83"/>
      <use x="960.25" xlink:href="#DejaVuSans-84"/>
      <use x="1021.333984" xlink:href="#DejaVuSans-85"/>
      <use x="1094.527344" xlink:href="#DejaVuSans-84"/>
      <use x="1153.861328" xlink:href="#DejaVuSans-84"/>
      <use x="1214.945312" xlink:href="#DejaVuSans-71"/>
      <use x="1292.435547" xlink:href="#DejaVuSans-65"/>
      <use x="1360.84375" xlink:href="#DejaVuSans-82"/>
      <use x="1423.076172" xlink:href="#DejaVuSans-84"/>
      <use x="1484.160156" xlink:href="#DejaVuSans-32"/>
      <use x="1515.947266" xlink:href="#DejaVuSans-32"/>
      <use x="1547.734375" xlink:href="#DejaVuSans-87"/>
      <use x="1644.361328" xlink:href="#DejaVuSans-105"/>
      <use x="1672.144531" xlink:href="#DejaVuSans-114"/>
     </g>
    </g>
    <g id="line2d_51">
     <path d="M 153 164.249063 
L 173 164.249063 
" style="fill:none;stroke:#8eba42;stroke-linecap:square;stroke-width:1.5;"/>
    </g>
    <g id="line2d_52"/>
    <g id="text_22">
     <!-- QUERDENKEN 711  STUTTGART  INF -->
     <g transform="translate(181 167.749063)scale(0.1 -0.1)">
      <use xlink:href="#DejaVuSans-81"/>
      <use x="78.710938" xlink:href="#DejaVuSans-85"/>
      <use x="151.904297" xlink:href="#DejaVuSans-69"/>
      <use x="215.087891" xlink:href="#DejaVuSans-82"/>
      <use x="284.570312" xlink:href="#DejaVuSans-68"/>
      <use x="361.572266" xlink:href="#DejaVuSans-69"/>
      <use x="424.755859" xlink:href="#DejaVuSans-78"/>
      <use x="499.560547" xlink:href="#DejaVuSans-75"/>
      <use x="565.136719" xlink:href="#DejaVuSans-69"/>
      <use x="628.320312" xlink:href="#DejaVuSans-78"/>
      <use x="703.125" xlink:href="#DejaVuSans-32"/>
      <use x="734.912109" xlink:href="#DejaVuSans-55"/>
      <use x="798.535156" xlink:href="#DejaVuSans-49"/>
      <use x="862.158203" xlink:href="#DejaVuSans-49"/>
      <use x="925.78125" xlink:href="#DejaVuSans-32"/>
      <use x="957.568359" xlink:href="#DejaVuSans-32"/>
      <use x="989.355469" xlink:href="#DejaVuSans-83"/>
      <use x="1052.832031" xlink:href="#DejaVuSans-84"/>
      <use x="1113.916016" xlink:href="#DejaVuSans-85"/>
      <use x="1187.109375" xlink:href="#DejaVuSans-84"/>
      <use x="1246.443359" xlink:href="#DejaVuSans-84"/>
      <use x="1307.527344" xlink:href="#DejaVuSans-71"/>
      <use x="1385.017578" xlink:href="#DejaVuSans-65"/>
      <use x="1453.425781" xlink:href="#DejaVuSans-82"/>
      <use x="1515.658203" xlink:href="#DejaVuSans-84"/>
      <use x="1576.742188" xlink:href="#DejaVuSans-32"/>
      <use x="1608.529297" xlink:href="#DejaVuSans-32"/>
      <use x="1640.316406" xlink:href="#DejaVuSans-73"/>
      <use x="1669.808594" xlink:href="#DejaVuSans-78"/>
      <use x="1744.613281" xlink:href="#DejaVuSans-70"/>
     </g>
    </g>
    <g id="line2d_53">
     <path d="M 153 178.927188 
L 173 178.927188 
" style="fill:none;stroke:#ffb5b8;stroke-linecap:square;stroke-width:1.5;"/>
    </g>
    <g id="line2d_54"/>
    <g id="text_23">
     <!-- Querdenken 69  FRANKFURT  Disk -->
     <g transform="translate(181 182.427188)scale(0.1 -0.1)">
      <use xlink:href="#DejaVuSans-81"/>
      <use x="78.710938" xlink:href="#DejaVuSans-117"/>
      <use x="142.089844" xlink:href="#DejaVuSans-101"/>
      <use x="203.613281" xlink:href="#DejaVuSans-114"/>
      <use x="242.976562" xlink:href="#DejaVuSans-100"/>
      <use x="306.453125" xlink:href="#DejaVuSans-101"/>
      <use x="367.976562" xlink:href="#DejaVuSans-110"/>
      <use x="431.355469" xlink:href="#DejaVuSans-107"/>
      <use x="485.640625" xlink:href="#DejaVuSans-101"/>
      <use x="547.164062" xlink:href="#DejaVuSans-110"/>
      <use x="610.542969" xlink:href="#DejaVuSans-32"/>
      <use x="642.330078" xlink:href="#DejaVuSans-54"/>
      <use x="705.953125" xlink:href="#DejaVuSans-57"/>
      <use x="769.576172" xlink:href="#DejaVuSans-32"/>
      <use x="801.363281" xlink:href="#DejaVuSans-32"/>
      <use x="833.150391" xlink:href="#DejaVuSans-70"/>
      <use x="890.669922" xlink:href="#DejaVuSans-82"/>
      <use x="956.152344" xlink:href="#DejaVuSans-65"/>
      <use x="1024.560547" xlink:href="#DejaVuSans-78"/>
      <use x="1099.365234" xlink:href="#DejaVuSans-75"/>
      <use x="1164.941406" xlink:href="#DejaVuSans-70"/>
      <use x="1222.460938" xlink:href="#DejaVuSans-85"/>
      <use x="1295.654297" xlink:href="#DejaVuSans-82"/>
      <use x="1357.886719" xlink:href="#DejaVuSans-84"/>
      <use x="1418.970703" xlink:href="#DejaVuSans-32"/>
      <use x="1450.757812" xlink:href="#DejaVuSans-32"/>
      <use x="1482.544922" xlink:href="#DejaVuSans-68"/>
      <use x="1559.546875" xlink:href="#DejaVuSans-105"/>
      <use x="1587.330078" xlink:href="#DejaVuSans-115"/>
      <use x="1639.429688" xlink:href="#DejaVuSans-107"/>
     </g>
    </g>
    <g id="line2d_55">
     <path d="M 153 193.605313 
L 173 193.605313 
" style="fill:none;stroke:#e24a33;stroke-linecap:square;stroke-width:1.5;"/>
    </g>
    <g id="line2d_56"/>
    <g id="text_24">
     <!-- Querdenken 69 Frankfurt  Info  -->
     <g transform="translate(181 197.105313)scale(0.1 -0.1)">
      <defs>
       <path d="M 37.109375 75.984375 
L 37.109375 68.5 
L 28.515625 68.5 
Q 23.6875 68.5 21.796875 66.546875 
Q 19.921875 64.59375 19.921875 59.515625 
L 19.921875 54.6875 
L 34.71875 54.6875 
L 34.71875 47.703125 
L 19.921875 47.703125 
L 19.921875 0 
L 10.890625 0 
L 10.890625 47.703125 
L 2.296875 47.703125 
L 2.296875 54.6875 
L 10.890625 54.6875 
L 10.890625 58.5 
Q 10.890625 67.625 15.140625 71.796875 
Q 19.390625 75.984375 28.609375 75.984375 
z
" id="DejaVuSans-102"/>
       <path d="M 18.3125 70.21875 
L 18.3125 54.6875 
L 36.8125 54.6875 
L 36.8125 47.703125 
L 18.3125 47.703125 
L 18.3125 18.015625 
Q 18.3125 11.328125 20.140625 9.421875 
Q 21.96875 7.515625 27.59375 7.515625 
L 36.8125 7.515625 
L 36.8125 0 
L 27.59375 0 
Q 17.1875 0 13.234375 3.875 
Q 9.28125 7.765625 9.28125 18.015625 
L 9.28125 47.703125 
L 2.6875 47.703125 
L 2.6875 54.6875 
L 9.28125 54.6875 
L 9.28125 70.21875 
z
" id="DejaVuSans-116"/>
       <path d="M 30.609375 48.390625 
Q 23.390625 48.390625 19.1875 42.75 
Q 14.984375 37.109375 14.984375 27.296875 
Q 14.984375 17.484375 19.15625 11.84375 
Q 23.34375 6.203125 30.609375 6.203125 
Q 37.796875 6.203125 41.984375 11.859375 
Q 46.1875 17.53125 46.1875 27.296875 
Q 46.1875 37.015625 41.984375 42.703125 
Q 37.796875 48.390625 30.609375 48.390625 
z
M 30.609375 56 
Q 42.328125 56 49.015625 48.375 
Q 55.71875 40.765625 55.71875 27.296875 
Q 55.71875 13.875 49.015625 6.21875 
Q 42.328125 -1.421875 30.609375 -1.421875 
Q 18.84375 -1.421875 12.171875 6.21875 
Q 5.515625 13.875 5.515625 27.296875 
Q 5.515625 40.765625 12.171875 48.375 
Q 18.84375 56 30.609375 56 
z
" id="DejaVuSans-111"/>
      </defs>
      <use xlink:href="#DejaVuSans-81"/>
      <use x="78.710938" xlink:href="#DejaVuSans-117"/>
      <use x="142.089844" xlink:href="#DejaVuSans-101"/>
      <use x="203.613281" xlink:href="#DejaVuSans-114"/>
      <use x="242.976562" xlink:href="#DejaVuSans-100"/>
      <use x="306.453125" xlink:href="#DejaVuSans-101"/>
      <use x="367.976562" xlink:href="#DejaVuSans-110"/>
      <use x="431.355469" xlink:href="#DejaVuSans-107"/>
      <use x="485.640625" xlink:href="#DejaVuSans-101"/>
      <use x="547.164062" xlink:href="#DejaVuSans-110"/>
      <use x="610.542969" xlink:href="#DejaVuSans-32"/>
      <use x="642.330078" xlink:href="#DejaVuSans-54"/>
      <use x="705.953125" xlink:href="#DejaVuSans-57"/>
      <use x="769.576172" xlink:href="#DejaVuSans-32"/>
      <use x="801.363281" xlink:href="#DejaVuSans-70"/>
      <use x="851.632812" xlink:href="#DejaVuSans-114"/>
      <use x="892.746094" xlink:href="#DejaVuSans-97"/>
      <use x="954.025391" xlink:href="#DejaVuSans-110"/>
      <use x="1017.404297" xlink:href="#DejaVuSans-107"/>
      <use x="1075.314453" xlink:href="#DejaVuSans-102"/>
      <use x="1110.519531" xlink:href="#DejaVuSans-117"/>
      <use x="1173.898438" xlink:href="#DejaVuSans-114"/>
      <use x="1215.011719" xlink:href="#DejaVuSans-116"/>
      <use x="1254.220703" xlink:href="#DejaVuSans-32"/>
      <use x="1286.007812" xlink:href="#DejaVuSans-32"/>
      <use x="1317.794922" xlink:href="#DejaVuSans-73"/>
      <use x="1347.287109" xlink:href="#DejaVuSans-110"/>
      <use x="1410.666016" xlink:href="#DejaVuSans-102"/>
      <use x="1445.871094" xlink:href="#DejaVuSans-111"/>
      <use x="1507.052734" xlink:href="#DejaVuSans-32"/>
     </g>
    </g>
    <g id="line2d_57">
     <path d="M 153 208.283438 
L 173 208.283438 
" style="fill:none;stroke:#ffa500;stroke-dasharray:5.55,2.4;stroke-dashoffset:0;stroke-width:1.5;"/>
    </g>
    <g id="text_25">
     <!-- Global Compact for Migration (2018-12-10) -->
     <g transform="translate(181 211.783438)scale(0.1 -0.1)">
      <defs>
       <path d="M 48.6875 27.296875 
Q 48.6875 37.203125 44.609375 42.84375 
Q 40.53125 48.484375 33.40625 48.484375 
Q 26.265625 48.484375 22.1875 42.84375 
Q 18.109375 37.203125 18.109375 27.296875 
Q 18.109375 17.390625 22.1875 11.75 
Q 26.265625 6.109375 33.40625 6.109375 
Q 40.53125 6.109375 44.609375 11.75 
Q 48.6875 17.390625 48.6875 27.296875 
z
M 18.109375 46.390625 
Q 20.953125 51.265625 25.265625 53.625 
Q 29.59375 56 35.59375 56 
Q 45.5625 56 51.78125 48.09375 
Q 58.015625 40.1875 58.015625 27.296875 
Q 58.015625 14.40625 51.78125 6.484375 
Q 45.5625 -1.421875 35.59375 -1.421875 
Q 29.59375 -1.421875 25.265625 0.953125 
Q 20.953125 3.328125 18.109375 8.203125 
L 18.109375 0 
L 9.078125 0 
L 9.078125 75.984375 
L 18.109375 75.984375 
z
" id="DejaVuSans-98"/>
       <path d="M 18.109375 8.203125 
L 18.109375 -20.796875 
L 9.078125 -20.796875 
L 9.078125 54.6875 
L 18.109375 54.6875 
L 18.109375 46.390625 
Q 20.953125 51.265625 25.265625 53.625 
Q 29.59375 56 35.59375 56 
Q 45.5625 56 51.78125 48.09375 
Q 58.015625 40.1875 58.015625 27.296875 
Q 58.015625 14.40625 51.78125 6.484375 
Q 45.5625 -1.421875 35.59375 -1.421875 
Q 29.59375 -1.421875 25.265625 0.953125 
Q 20.953125 3.328125 18.109375 8.203125 
z
M 48.6875 27.296875 
Q 48.6875 37.203125 44.609375 42.84375 
Q 40.53125 48.484375 33.40625 48.484375 
Q 26.265625 48.484375 22.1875 42.84375 
Q 18.109375 37.203125 18.109375 27.296875 
Q 18.109375 17.390625 22.1875 11.75 
Q 26.265625 6.109375 33.40625 6.109375 
Q 40.53125 6.109375 44.609375 11.75 
Q 48.6875 17.390625 48.6875 27.296875 
z
" id="DejaVuSans-112"/>
       <path d="M 48.78125 52.59375 
L 48.78125 44.1875 
Q 44.96875 46.296875 41.140625 47.34375 
Q 37.3125 48.390625 33.40625 48.390625 
Q 24.65625 48.390625 19.8125 42.84375 
Q 14.984375 37.3125 14.984375 27.296875 
Q 14.984375 17.28125 19.8125 11.734375 
Q 24.65625 6.203125 33.40625 6.203125 
Q 37.3125 6.203125 41.140625 7.25 
Q 44.96875 8.296875 48.78125 10.40625 
L 48.78125 2.09375 
Q 45.015625 0.34375 40.984375 -0.53125 
Q 36.96875 -1.421875 32.421875 -1.421875 
Q 20.0625 -1.421875 12.78125 6.34375 
Q 5.515625 14.109375 5.515625 27.296875 
Q 5.515625 40.671875 12.859375 48.328125 
Q 20.21875 56 33.015625 56 
Q 37.15625 56 41.109375 55.140625 
Q 45.0625 54.296875 48.78125 52.59375 
z
" id="DejaVuSans-99"/>
       <path d="M 45.40625 27.984375 
Q 45.40625 37.75 41.375 43.109375 
Q 37.359375 48.484375 30.078125 48.484375 
Q 22.859375 48.484375 18.828125 43.109375 
Q 14.796875 37.75 14.796875 27.984375 
Q 14.796875 18.265625 18.828125 12.890625 
Q 22.859375 7.515625 30.078125 7.515625 
Q 37.359375 7.515625 41.375 12.890625 
Q 45.40625 18.265625 45.40625 27.984375 
z
M 54.390625 6.78125 
Q 54.390625 -7.171875 48.1875 -13.984375 
Q 42 -20.796875 29.203125 -20.796875 
Q 24.46875 -20.796875 20.265625 -20.09375 
Q 16.0625 -19.390625 12.109375 -17.921875 
L 12.109375 -9.1875 
Q 16.0625 -11.328125 19.921875 -12.34375 
Q 23.78125 -13.375 27.78125 -13.375 
Q 36.625 -13.375 41.015625 -8.765625 
Q 45.40625 -4.15625 45.40625 5.171875 
L 45.40625 9.625 
Q 42.625 4.78125 38.28125 2.390625 
Q 33.9375 0 27.875 0 
Q 17.828125 0 11.671875 7.65625 
Q 5.515625 15.328125 5.515625 27.984375 
Q 5.515625 40.671875 11.671875 48.328125 
Q 17.828125 56 27.875 56 
Q 33.9375 56 38.28125 53.609375 
Q 42.625 51.21875 45.40625 46.390625 
L 45.40625 54.6875 
L 54.390625 54.6875 
z
" id="DejaVuSans-103"/>
       <path d="M 31 75.875 
Q 24.46875 64.65625 21.28125 53.65625 
Q 18.109375 42.671875 18.109375 31.390625 
Q 18.109375 20.125 21.3125 9.0625 
Q 24.515625 -2 31 -13.1875 
L 23.1875 -13.1875 
Q 15.875 -1.703125 12.234375 9.375 
Q 8.59375 20.453125 8.59375 31.390625 
Q 8.59375 42.28125 12.203125 53.3125 
Q 15.828125 64.359375 23.1875 75.875 
z
" id="DejaVuSans-40"/>
       <path d="M 8.015625 75.875 
L 15.828125 75.875 
Q 23.140625 64.359375 26.78125 53.3125 
Q 30.421875 42.28125 30.421875 31.390625 
Q 30.421875 20.453125 26.78125 9.375 
Q 23.140625 -1.703125 15.828125 -13.1875 
L 8.015625 -13.1875 
Q 14.5 -2 17.703125 9.0625 
Q 20.90625 20.125 20.90625 31.390625 
Q 20.90625 42.671875 17.703125 53.65625 
Q 14.5 64.65625 8.015625 75.875 
z
" id="DejaVuSans-41"/>
      </defs>
      <use xlink:href="#DejaVuSans-71"/>
      <use x="77.490234" xlink:href="#DejaVuSans-108"/>
      <use x="105.273438" xlink:href="#DejaVuSans-111"/>
      <use x="166.455078" xlink:href="#DejaVuSans-98"/>
      <use x="229.931641" xlink:href="#DejaVuSans-97"/>
      <use x="291.210938" xlink:href="#DejaVuSans-108"/>
      <use x="318.994141" xlink:href="#DejaVuSans-32"/>
      <use x="350.78125" xlink:href="#DejaVuSans-67"/>
      <use x="420.605469" xlink:href="#DejaVuSans-111"/>
      <use x="481.787109" xlink:href="#DejaVuSans-109"/>
      <use x="579.199219" xlink:href="#DejaVuSans-112"/>
      <use x="642.675781" xlink:href="#DejaVuSans-97"/>
      <use x="703.955078" xlink:href="#DejaVuSans-99"/>
      <use x="758.935547" xlink:href="#DejaVuSans-116"/>
      <use x="798.144531" xlink:href="#DejaVuSans-32"/>
      <use x="829.931641" xlink:href="#DejaVuSans-102"/>
      <use x="865.136719" xlink:href="#DejaVuSans-111"/>
      <use x="926.318359" xlink:href="#DejaVuSans-114"/>
      <use x="967.431641" xlink:href="#DejaVuSans-32"/>
      <use x="999.21875" xlink:href="#DejaVuSans-77"/>
      <use x="1085.498047" xlink:href="#DejaVuSans-105"/>
      <use x="1113.28125" xlink:href="#DejaVuSans-103"/>
      <use x="1176.757812" xlink:href="#DejaVuSans-114"/>
      <use x="1217.871094" xlink:href="#DejaVuSans-97"/>
      <use x="1279.150391" xlink:href="#DejaVuSans-116"/>
      <use x="1318.359375" xlink:href="#DejaVuSans-105"/>
      <use x="1346.142578" xlink:href="#DejaVuSans-111"/>
      <use x="1407.324219" xlink:href="#DejaVuSans-110"/>
      <use x="1470.703125" xlink:href="#DejaVuSans-32"/>
      <use x="1502.490234" xlink:href="#DejaVuSans-40"/>
      <use x="1541.503906" xlink:href="#DejaVuSans-50"/>
      <use x="1605.126953" xlink:href="#DejaVuSans-48"/>
      <use x="1668.75" xlink:href="#DejaVuSans-49"/>
      <use x="1732.373047" xlink:href="#DejaVuSans-56"/>
      <use x="1795.996094" xlink:href="#DejaVuSans-45"/>
      <use x="1832.080078" xlink:href="#DejaVuSans-49"/>
      <use x="1895.703125" xlink:href="#DejaVuSans-50"/>
      <use x="1959.326172" xlink:href="#DejaVuSans-45"/>
      <use x="1995.410156" xlink:href="#DejaVuSans-49"/>
      <use x="2059.033203" xlink:href="#DejaVuSans-48"/>
      <use x="2122.65625" xlink:href="#DejaVuSans-41"/>
     </g>
    </g>
    <g id="line2d_58">
     <path d="M 153 222.961563 
L 173 222.961563 
" style="fill:none;stroke:#808080;stroke-dasharray:5.55,2.4;stroke-dashoffset:0;stroke-width:1.5;"/>
    </g>
    <g id="text_26">
     <!-- Corona Patient Zero Germany -->
     <g transform="translate(181 226.461563)scale(0.1 -0.1)">
      <defs>
       <path d="M 19.671875 64.796875 
L 19.671875 37.40625 
L 32.078125 37.40625 
Q 38.96875 37.40625 42.71875 40.96875 
Q 46.484375 44.53125 46.484375 51.125 
Q 46.484375 57.671875 42.71875 61.234375 
Q 38.96875 64.796875 32.078125 64.796875 
z
M 9.8125 72.90625 
L 32.078125 72.90625 
Q 44.34375 72.90625 50.609375 67.359375 
Q 56.890625 61.8125 56.890625 51.125 
Q 56.890625 40.328125 50.609375 34.8125 
Q 44.34375 29.296875 32.078125 29.296875 
L 19.671875 29.296875 
L 19.671875 0 
L 9.8125 0 
z
" id="DejaVuSans-80"/>
       <path d="M 5.609375 72.90625 
L 62.890625 72.90625 
L 62.890625 65.375 
L 16.796875 8.296875 
L 64.015625 8.296875 
L 64.015625 0 
L 4.5 0 
L 4.5 7.515625 
L 50.59375 64.59375 
L 5.609375 64.59375 
z
" id="DejaVuSans-90"/>
       <path d="M 32.171875 -5.078125 
Q 28.375 -14.84375 24.75 -17.8125 
Q 21.140625 -20.796875 15.09375 -20.796875 
L 7.90625 -20.796875 
L 7.90625 -13.28125 
L 13.1875 -13.28125 
Q 16.890625 -13.28125 18.9375 -11.515625 
Q 21 -9.765625 23.484375 -3.21875 
L 25.09375 0.875 
L 2.984375 54.6875 
L 12.5 54.6875 
L 29.59375 11.921875 
L 46.6875 54.6875 
L 56.203125 54.6875 
z
" id="DejaVuSans-121"/>
      </defs>
      <use xlink:href="#DejaVuSans-67"/>
      <use x="69.824219" xlink:href="#DejaVuSans-111"/>
      <use x="131.005859" xlink:href="#DejaVuSans-114"/>
      <use x="169.869141" xlink:href="#DejaVuSans-111"/>
      <use x="231.050781" xlink:href="#DejaVuSans-110"/>
      <use x="294.429688" xlink:href="#DejaVuSans-97"/>
      <use x="355.708984" xlink:href="#DejaVuSans-32"/>
      <use x="387.496094" xlink:href="#DejaVuSans-80"/>
      <use x="443.298828" xlink:href="#DejaVuSans-97"/>
      <use x="504.578125" xlink:href="#DejaVuSans-116"/>
      <use x="543.787109" xlink:href="#DejaVuSans-105"/>
      <use x="571.570312" xlink:href="#DejaVuSans-101"/>
      <use x="633.09375" xlink:href="#DejaVuSans-110"/>
      <use x="696.472656" xlink:href="#DejaVuSans-116"/>
      <use x="735.681641" xlink:href="#DejaVuSans-32"/>
      <use x="767.46875" xlink:href="#DejaVuSans-90"/>
      <use x="835.974609" xlink:href="#DejaVuSans-101"/>
      <use x="897.498047" xlink:href="#DejaVuSans-114"/>
      <use x="936.361328" xlink:href="#DejaVuSans-111"/>
      <use x="997.542969" xlink:href="#DejaVuSans-32"/>
      <use x="1029.330078" xlink:href="#DejaVuSans-71"/>
      <use x="1106.820312" xlink:href="#DejaVuSans-101"/>
      <use x="1168.34375" xlink:href="#DejaVuSans-114"/>
      <use x="1207.707031" xlink:href="#DejaVuSans-109"/>
      <use x="1305.119141" xlink:href="#DejaVuSans-97"/>
      <use x="1366.398438" xlink:href="#DejaVuSans-110"/>
      <use x="1429.777344" xlink:href="#DejaVuSans-121"/>
     </g>
    </g>
    <g id="line2d_59">
     <path d="M 153 237.639688 
L 173 237.639688 
" style="fill:none;stroke:#800080;stroke-dasharray:5.55,2.4;stroke-dashoffset:0;stroke-width:1.5;"/>
    </g>
    <g id="text_27">
     <!-- 1. Lockdown Germany (2020-03-23) -->
     <g transform="translate(181 241.139688)scale(0.1 -0.1)">
      <defs>
       <path d="M 10.6875 12.40625 
L 21 12.40625 
L 21 0 
L 10.6875 0 
z
" id="DejaVuSans-46"/>
       <path d="M 9.8125 72.90625 
L 19.671875 72.90625 
L 19.671875 8.296875 
L 55.171875 8.296875 
L 55.171875 0 
L 9.8125 0 
z
" id="DejaVuSans-76"/>
       <path d="M 4.203125 54.6875 
L 13.1875 54.6875 
L 24.421875 12.015625 
L 35.59375 54.6875 
L 46.1875 54.6875 
L 57.421875 12.015625 
L 68.609375 54.6875 
L 77.59375 54.6875 
L 63.28125 0 
L 52.6875 0 
L 40.921875 44.828125 
L 29.109375 0 
L 18.5 0 
z
" id="DejaVuSans-119"/>
      </defs>
      <use xlink:href="#DejaVuSans-49"/>
      <use x="63.623047" xlink:href="#DejaVuSans-46"/>
      <use x="95.410156" xlink:href="#DejaVuSans-32"/>
      <use x="127.197266" xlink:href="#DejaVuSans-76"/>
      <use x="181.160156" xlink:href="#DejaVuSans-111"/>
      <use x="242.341797" xlink:href="#DejaVuSans-99"/>
      <use x="297.322266" xlink:href="#DejaVuSans-107"/>
      <use x="355.232422" xlink:href="#DejaVuSans-100"/>
      <use x="418.708984" xlink:href="#DejaVuSans-111"/>
      <use x="479.890625" xlink:href="#DejaVuSans-119"/>
      <use x="561.677734" xlink:href="#DejaVuSans-110"/>
      <use x="625.056641" xlink:href="#DejaVuSans-32"/>
      <use x="656.84375" xlink:href="#DejaVuSans-71"/>
      <use x="734.333984" xlink:href="#DejaVuSans-101"/>
      <use x="795.857422" xlink:href="#DejaVuSans-114"/>
      <use x="835.220703" xlink:href="#DejaVuSans-109"/>
      <use x="932.632812" xlink:href="#DejaVuSans-97"/>
      <use x="993.912109" xlink:href="#DejaVuSans-110"/>
      <use x="1057.291016" xlink:href="#DejaVuSans-121"/>
      <use x="1116.470703" xlink:href="#DejaVuSans-32"/>
      <use x="1148.257812" xlink:href="#DejaVuSans-40"/>
      <use x="1187.271484" xlink:href="#DejaVuSans-50"/>
      <use x="1250.894531" xlink:href="#DejaVuSans-48"/>
      <use x="1314.517578" xlink:href="#DejaVuSans-50"/>
      <use x="1378.140625" xlink:href="#DejaVuSans-48"/>
      <use x="1441.763672" xlink:href="#DejaVuSans-45"/>
      <use x="1477.847656" xlink:href="#DejaVuSans-48"/>
      <use x="1541.470703" xlink:href="#DejaVuSans-51"/>
      <use x="1605.09375" xlink:href="#DejaVuSans-45"/>
      <use x="1641.177734" xlink:href="#DejaVuSans-50"/>
      <use x="1704.800781" xlink:href="#DejaVuSans-51"/>
      <use x="1768.423828" xlink:href="#DejaVuSans-41"/>
     </g>
    </g>
    <g id="line2d_60">
     <path d="M 153 252.317813 
L 173 252.317813 
" style="fill:none;stroke:#800080;stroke-dasharray:5.55,2.4;stroke-dashoffset:0;stroke-width:1.5;"/>
    </g>
    <g id="text_28">
     <!-- 2. Lockdown light Germany (2020-11-02) -->
     <g transform="translate(181 255.817813)scale(0.1 -0.1)">
      <defs>
       <path d="M 54.890625 33.015625 
L 54.890625 0 
L 45.90625 0 
L 45.90625 32.71875 
Q 45.90625 40.484375 42.875 44.328125 
Q 39.84375 48.1875 33.796875 48.1875 
Q 26.515625 48.1875 22.3125 43.546875 
Q 18.109375 38.921875 18.109375 30.90625 
L 18.109375 0 
L 9.078125 0 
L 9.078125 75.984375 
L 18.109375 75.984375 
L 18.109375 46.1875 
Q 21.34375 51.125 25.703125 53.5625 
Q 30.078125 56 35.796875 56 
Q 45.21875 56 50.046875 50.171875 
Q 54.890625 44.34375 54.890625 33.015625 
z
" id="DejaVuSans-104"/>
      </defs>
      <use xlink:href="#DejaVuSans-50"/>
      <use x="63.623047" xlink:href="#DejaVuSans-46"/>
      <use x="95.410156" xlink:href="#DejaVuSans-32"/>
      <use x="127.197266" xlink:href="#DejaVuSans-76"/>
      <use x="181.160156" xlink:href="#DejaVuSans-111"/>
      <use x="242.341797" xlink:href="#DejaVuSans-99"/>
      <use x="297.322266" xlink:href="#DejaVuSans-107"/>
      <use x="355.232422" xlink:href="#DejaVuSans-100"/>
      <use x="418.708984" xlink:href="#DejaVuSans-111"/>
      <use x="479.890625" xlink:href="#DejaVuSans-119"/>
      <use x="561.677734" xlink:href="#DejaVuSans-110"/>
      <use x="625.056641" xlink:href="#DejaVuSans-32"/>
      <use x="656.84375" xlink:href="#DejaVuSans-108"/>
      <use x="684.626953" xlink:href="#DejaVuSans-105"/>
      <use x="712.410156" xlink:href="#DejaVuSans-103"/>
      <use x="775.886719" xlink:href="#DejaVuSans-104"/>
      <use x="839.265625" xlink:href="#DejaVuSans-116"/>
      <use x="878.474609" xlink:href="#DejaVuSans-32"/>
      <use x="910.261719" xlink:href="#DejaVuSans-71"/>
      <use x="987.751953" xlink:href="#DejaVuSans-101"/>
      <use x="1049.275391" xlink:href="#DejaVuSans-114"/>
      <use x="1088.638672" xlink:href="#DejaVuSans-109"/>
      <use x="1186.050781" xlink:href="#DejaVuSans-97"/>
      <use x="1247.330078" xlink:href="#DejaVuSans-110"/>
      <use x="1310.708984" xlink:href="#DejaVuSans-121"/>
      <use x="1369.888672" xlink:href="#DejaVuSans-32"/>
      <use x="1401.675781" xlink:href="#DejaVuSans-40"/>
      <use x="1440.689453" xlink:href="#DejaVuSans-50"/>
      <use x="1504.3125" xlink:href="#DejaVuSans-48"/>
      <use x="1567.935547" xlink:href="#DejaVuSans-50"/>
      <use x="1631.558594" xlink:href="#DejaVuSans-48"/>
      <use x="1695.181641" xlink:href="#DejaVuSans-45"/>
      <use x="1731.265625" xlink:href="#DejaVuSans-49"/>
      <use x="1794.888672" xlink:href="#DejaVuSans-49"/>
      <use x="1858.511719" xlink:href="#DejaVuSans-45"/>
      <use x="1894.595703" xlink:href="#DejaVuSans-48"/>
      <use x="1958.21875" xlink:href="#DejaVuSans-50"/>
      <use x="2021.841797" xlink:href="#DejaVuSans-41"/>
     </g>
    </g>
    <g id="line2d_61">
     <path d="M 153 266.995937 
L 173 266.995937 
" style="fill:none;stroke:#800080;stroke-dasharray:5.55,2.4;stroke-dashoffset:0;stroke-width:1.5;"/>
    </g>
    <g id="text_29">
     <!-- 3. Lockdown Germany (2020-12-16) -->
     <g transform="translate(181 270.495937)scale(0.1 -0.1)">
      <use xlink:href="#DejaVuSans-51"/>
      <use x="63.623047" xlink:href="#DejaVuSans-46"/>
      <use x="95.410156" xlink:href="#DejaVuSans-32"/>
      <use x="127.197266" xlink:href="#DejaVuSans-76"/>
      <use x="181.160156" xlink:href="#DejaVuSans-111"/>
      <use x="242.341797" xlink:href="#DejaVuSans-99"/>
      <use x="297.322266" xlink:href="#DejaVuSans-107"/>
      <use x="355.232422" xlink:href="#DejaVuSans-100"/>
      <use x="418.708984" xlink:href="#DejaVuSans-111"/>
      <use x="479.890625" xlink:href="#DejaVuSans-119"/>
      <use x="561.677734" xlink:href="#DejaVuSans-110"/>
      <use x="625.056641" xlink:href="#DejaVuSans-32"/>
      <use x="656.84375" xlink:href="#DejaVuSans-71"/>
      <use x="734.333984" xlink:href="#DejaVuSans-101"/>
      <use x="795.857422" xlink:href="#DejaVuSans-114"/>
      <use x="835.220703" xlink:href="#DejaVuSans-109"/>
      <use x="932.632812" xlink:href="#DejaVuSans-97"/>
      <use x="993.912109" xlink:href="#DejaVuSans-110"/>
      <use x="1057.291016" xlink:href="#DejaVuSans-121"/>
      <use x="1116.470703" xlink:href="#DejaVuSans-32"/>
      <use x="1148.257812" xlink:href="#DejaVuSans-40"/>
      <use x="1187.271484" xlink:href="#DejaVuSans-50"/>
      <use x="1250.894531" xlink:href="#DejaVuSans-48"/>
      <use x="1314.517578" xlink:href="#DejaVuSans-50"/>
      <use x="1378.140625" xlink:href="#DejaVuSans-48"/>
      <use x="1441.763672" xlink:href="#DejaVuSans-45"/>
      <use x="1477.847656" xlink:href="#DejaVuSans-49"/>
      <use x="1541.470703" xlink:href="#DejaVuSans-50"/>
      <use x="1605.09375" xlink:href="#DejaVuSans-45"/>
      <use x="1641.177734" xlink:href="#DejaVuSans-49"/>
      <use x="1704.800781" xlink:href="#DejaVuSans-54"/>
      <use x="1768.423828" xlink:href="#DejaVuSans-41"/>
     </g>
    </g>
   </g>
  </g>
 </g>
 <defs>
  <clipPath id="pb94b5cc095">
   <rect height="440.64" width="892.8" x="144" y="77.76"/>
  </clipPath>
 </defs>
</svg>
