<?xml version="1.0" encoding="utf-8" standalone="no"?>
<!DOCTYPE svg PUBLIC "-//W3C//DTD SVG 1.1//EN"
  "http://www.w3.org/Graphics/SVG/1.1/DTD/svg11.dtd">
<!-- Created with matplotlib (https://matplotlib.org/) -->
<svg height="648pt" version="1.1" viewBox="0 0 1152 648" width="1152pt" xmlns="http://www.w3.org/2000/svg" xmlns:xlink="http://www.w3.org/1999/xlink">
 <metadata>
  <rdf:RDF xmlns:cc="http://creativecommons.org/ns#" xmlns:dc="http://purl.org/dc/elements/1.1/" xmlns:rdf="http://www.w3.org/1999/02/22-rdf-syntax-ns#">
   <cc:Work>
    <dc:type rdf:resource="http://purl.org/dc/dcmitype/StillImage"/>
    <dc:date>2021-02-20T18:32:10.558803</dc:date>
    <dc:format>image/svg+xml</dc:format>
    <dc:creator>
     <cc:Agent>
      <dc:title>Matplotlib v3.3.4, https://matplotlib.org/</dc:title>
     </cc:Agent>
    </dc:creator>
   </cc:Work>
  </rdf:RDF>
 </metadata>
 <defs>
  <style type="text/css">*{stroke-linecap:butt;stroke-linejoin:round;}</style>
 </defs>
 <g id="figure_1">
  <g id="patch_1">
   <path d="M 0 648 
L 1152 648 
L 1152 0 
L 0 0 
z
" style="fill:#ffffff;"/>
  </g>
  <g id="axes_1">
   <g id="patch_2">
    <path d="M 144 518.4 
L 1036.8 518.4 
L 1036.8 77.76 
L 144 77.76 
z
" style="fill:#e5e5e5;"/>
   </g>
   <g id="matplotlib.axis_1">
    <g id="xtick_1">
     <g id="line2d_1">
      <path clip-path="url(#p7d6b506894)" d="M 212.126039 518.4 
L 212.126039 77.76 
" style="fill:none;stroke:#ffffff;stroke-linecap:square;stroke-width:0.8;"/>
     </g>
     <g id="line2d_2">
      <defs>
       <path d="M 0 0 
L 0 3.5 
" id="mdabe912c67" style="stroke:#555555;stroke-width:0.8;"/>
      </defs>
      <g>
       <use style="fill:#555555;stroke:#555555;stroke-width:0.8;" x="212.126039" xlink:href="#mdabe912c67" y="518.4"/>
      </g>
     </g>
     <g id="text_1">
      <!-- 2018-10 -->
      <g style="fill:#555555;" transform="translate(174.901218 552.871846)rotate(-30)scale(0.1 -0.1)">
       <defs>
        <path d="M 19.1875 8.296875 
L 53.609375 8.296875 
L 53.609375 0 
L 7.328125 0 
L 7.328125 8.296875 
Q 12.9375 14.109375 22.625 23.890625 
Q 32.328125 33.6875 34.8125 36.53125 
Q 39.546875 41.84375 41.421875 45.53125 
Q 43.3125 49.21875 43.3125 52.78125 
Q 43.3125 58.59375 39.234375 62.25 
Q 35.15625 65.921875 28.609375 65.921875 
Q 23.96875 65.921875 18.8125 64.3125 
Q 13.671875 62.703125 7.8125 59.421875 
L 7.8125 69.390625 
Q 13.765625 71.78125 18.9375 73 
Q 24.125 74.21875 28.421875 74.21875 
Q 39.75 74.21875 46.484375 68.546875 
Q 53.21875 62.890625 53.21875 53.421875 
Q 53.21875 48.921875 51.53125 44.890625 
Q 49.859375 40.875 45.40625 35.40625 
Q 44.1875 33.984375 37.640625 27.21875 
Q 31.109375 20.453125 19.1875 8.296875 
z
" id="DejaVuSans-50"/>
        <path d="M 31.78125 66.40625 
Q 24.171875 66.40625 20.328125 58.90625 
Q 16.5 51.421875 16.5 36.375 
Q 16.5 21.390625 20.328125 13.890625 
Q 24.171875 6.390625 31.78125 6.390625 
Q 39.453125 6.390625 43.28125 13.890625 
Q 47.125 21.390625 47.125 36.375 
Q 47.125 51.421875 43.28125 58.90625 
Q 39.453125 66.40625 31.78125 66.40625 
z
M 31.78125 74.21875 
Q 44.046875 74.21875 50.515625 64.515625 
Q 56.984375 54.828125 56.984375 36.375 
Q 56.984375 17.96875 50.515625 8.265625 
Q 44.046875 -1.421875 31.78125 -1.421875 
Q 19.53125 -1.421875 13.0625 8.265625 
Q 6.59375 17.96875 6.59375 36.375 
Q 6.59375 54.828125 13.0625 64.515625 
Q 19.53125 74.21875 31.78125 74.21875 
z
" id="DejaVuSans-48"/>
        <path d="M 12.40625 8.296875 
L 28.515625 8.296875 
L 28.515625 63.921875 
L 10.984375 60.40625 
L 10.984375 69.390625 
L 28.421875 72.90625 
L 38.28125 72.90625 
L 38.28125 8.296875 
L 54.390625 8.296875 
L 54.390625 0 
L 12.40625 0 
z
" id="DejaVuSans-49"/>
        <path d="M 31.78125 34.625 
Q 24.75 34.625 20.71875 30.859375 
Q 16.703125 27.09375 16.703125 20.515625 
Q 16.703125 13.921875 20.71875 10.15625 
Q 24.75 6.390625 31.78125 6.390625 
Q 38.8125 6.390625 42.859375 10.171875 
Q 46.921875 13.96875 46.921875 20.515625 
Q 46.921875 27.09375 42.890625 30.859375 
Q 38.875 34.625 31.78125 34.625 
z
M 21.921875 38.8125 
Q 15.578125 40.375 12.03125 44.71875 
Q 8.5 49.078125 8.5 55.328125 
Q 8.5 64.0625 14.71875 69.140625 
Q 20.953125 74.21875 31.78125 74.21875 
Q 42.671875 74.21875 48.875 69.140625 
Q 55.078125 64.0625 55.078125 55.328125 
Q 55.078125 49.078125 51.53125 44.71875 
Q 48 40.375 41.703125 38.8125 
Q 48.828125 37.15625 52.796875 32.3125 
Q 56.78125 27.484375 56.78125 20.515625 
Q 56.78125 9.90625 50.3125 4.234375 
Q 43.84375 -1.421875 31.78125 -1.421875 
Q 19.734375 -1.421875 13.25 4.234375 
Q 6.78125 9.90625 6.78125 20.515625 
Q 6.78125 27.484375 10.78125 32.3125 
Q 14.796875 37.15625 21.921875 38.8125 
z
M 18.3125 54.390625 
Q 18.3125 48.734375 21.84375 45.5625 
Q 25.390625 42.390625 31.78125 42.390625 
Q 38.140625 42.390625 41.71875 45.5625 
Q 45.3125 48.734375 45.3125 54.390625 
Q 45.3125 60.0625 41.71875 63.234375 
Q 38.140625 66.40625 31.78125 66.40625 
Q 25.390625 66.40625 21.84375 63.234375 
Q 18.3125 60.0625 18.3125 54.390625 
z
" id="DejaVuSans-56"/>
        <path d="M 4.890625 31.390625 
L 31.203125 31.390625 
L 31.203125 23.390625 
L 4.890625 23.390625 
z
" id="DejaVuSans-45"/>
       </defs>
       <use xlink:href="#DejaVuSans-50"/>
       <use x="63.623047" xlink:href="#DejaVuSans-48"/>
       <use x="127.246094" xlink:href="#DejaVuSans-49"/>
       <use x="190.869141" xlink:href="#DejaVuSans-56"/>
       <use x="254.492188" xlink:href="#DejaVuSans-45"/>
       <use x="290.576172" xlink:href="#DejaVuSans-49"/>
       <use x="354.199219" xlink:href="#DejaVuSans-48"/>
      </g>
     </g>
    </g>
    <g id="xtick_2">
     <g id="line2d_3">
      <path clip-path="url(#p7d6b506894)" d="M 296.594981 518.4 
L 296.594981 77.76 
" style="fill:none;stroke:#ffffff;stroke-linecap:square;stroke-width:0.8;"/>
     </g>
     <g id="line2d_4">
      <g>
       <use style="fill:#555555;stroke:#555555;stroke-width:0.8;" x="296.594981" xlink:href="#mdabe912c67" y="518.4"/>
      </g>
     </g>
     <g id="text_2">
      <!-- 2019-01 -->
      <g style="fill:#555555;" transform="translate(259.370161 552.871846)rotate(-30)scale(0.1 -0.1)">
       <defs>
        <path d="M 10.984375 1.515625 
L 10.984375 10.5 
Q 14.703125 8.734375 18.5 7.8125 
Q 22.3125 6.890625 25.984375 6.890625 
Q 35.75 6.890625 40.890625 13.453125 
Q 46.046875 20.015625 46.78125 33.40625 
Q 43.953125 29.203125 39.59375 26.953125 
Q 35.25 24.703125 29.984375 24.703125 
Q 19.046875 24.703125 12.671875 31.3125 
Q 6.296875 37.9375 6.296875 49.421875 
Q 6.296875 60.640625 12.9375 67.421875 
Q 19.578125 74.21875 30.609375 74.21875 
Q 43.265625 74.21875 49.921875 64.515625 
Q 56.59375 54.828125 56.59375 36.375 
Q 56.59375 19.140625 48.40625 8.859375 
Q 40.234375 -1.421875 26.421875 -1.421875 
Q 22.703125 -1.421875 18.890625 -0.6875 
Q 15.09375 0.046875 10.984375 1.515625 
z
M 30.609375 32.421875 
Q 37.25 32.421875 41.125 36.953125 
Q 45.015625 41.5 45.015625 49.421875 
Q 45.015625 57.28125 41.125 61.84375 
Q 37.25 66.40625 30.609375 66.40625 
Q 23.96875 66.40625 20.09375 61.84375 
Q 16.21875 57.28125 16.21875 49.421875 
Q 16.21875 41.5 20.09375 36.953125 
Q 23.96875 32.421875 30.609375 32.421875 
z
" id="DejaVuSans-57"/>
       </defs>
       <use xlink:href="#DejaVuSans-50"/>
       <use x="63.623047" xlink:href="#DejaVuSans-48"/>
       <use x="127.246094" xlink:href="#DejaVuSans-49"/>
       <use x="190.869141" xlink:href="#DejaVuSans-57"/>
       <use x="254.492188" xlink:href="#DejaVuSans-45"/>
       <use x="290.576172" xlink:href="#DejaVuSans-48"/>
       <use x="354.199219" xlink:href="#DejaVuSans-49"/>
      </g>
     </g>
    </g>
    <g id="xtick_3">
     <g id="line2d_5">
      <path clip-path="url(#p7d6b506894)" d="M 379.227643 518.4 
L 379.227643 77.76 
" style="fill:none;stroke:#ffffff;stroke-linecap:square;stroke-width:0.8;"/>
     </g>
     <g id="line2d_6">
      <g>
       <use style="fill:#555555;stroke:#555555;stroke-width:0.8;" x="379.227643" xlink:href="#mdabe912c67" y="518.4"/>
      </g>
     </g>
     <g id="text_3">
      <!-- 2019-04 -->
      <g style="fill:#555555;" transform="translate(342.002822 552.871846)rotate(-30)scale(0.1 -0.1)">
       <defs>
        <path d="M 37.796875 64.3125 
L 12.890625 25.390625 
L 37.796875 25.390625 
z
M 35.203125 72.90625 
L 47.609375 72.90625 
L 47.609375 25.390625 
L 58.015625 25.390625 
L 58.015625 17.1875 
L 47.609375 17.1875 
L 47.609375 0 
L 37.796875 0 
L 37.796875 17.1875 
L 4.890625 17.1875 
L 4.890625 26.703125 
z
" id="DejaVuSans-52"/>
       </defs>
       <use xlink:href="#DejaVuSans-50"/>
       <use x="63.623047" xlink:href="#DejaVuSans-48"/>
       <use x="127.246094" xlink:href="#DejaVuSans-49"/>
       <use x="190.869141" xlink:href="#DejaVuSans-57"/>
       <use x="254.492188" xlink:href="#DejaVuSans-45"/>
       <use x="290.576172" xlink:href="#DejaVuSans-48"/>
       <use x="354.199219" xlink:href="#DejaVuSans-52"/>
      </g>
     </g>
    </g>
    <g id="xtick_4">
     <g id="line2d_7">
      <path clip-path="url(#p7d6b506894)" d="M 462.778445 518.4 
L 462.778445 77.76 
" style="fill:none;stroke:#ffffff;stroke-linecap:square;stroke-width:0.8;"/>
     </g>
     <g id="line2d_8">
      <g>
       <use style="fill:#555555;stroke:#555555;stroke-width:0.8;" x="462.778445" xlink:href="#mdabe912c67" y="518.4"/>
      </g>
     </g>
     <g id="text_4">
      <!-- 2019-07 -->
      <g style="fill:#555555;" transform="translate(425.553624 552.871846)rotate(-30)scale(0.1 -0.1)">
       <defs>
        <path d="M 8.203125 72.90625 
L 55.078125 72.90625 
L 55.078125 68.703125 
L 28.609375 0 
L 18.3125 0 
L 43.21875 64.59375 
L 8.203125 64.59375 
z
" id="DejaVuSans-55"/>
       </defs>
       <use xlink:href="#DejaVuSans-50"/>
       <use x="63.623047" xlink:href="#DejaVuSans-48"/>
       <use x="127.246094" xlink:href="#DejaVuSans-49"/>
       <use x="190.869141" xlink:href="#DejaVuSans-57"/>
       <use x="254.492188" xlink:href="#DejaVuSans-45"/>
       <use x="290.576172" xlink:href="#DejaVuSans-48"/>
       <use x="354.199219" xlink:href="#DejaVuSans-55"/>
      </g>
     </g>
    </g>
    <g id="xtick_5">
     <g id="line2d_9">
      <path clip-path="url(#p7d6b506894)" d="M 547.247388 518.4 
L 547.247388 77.76 
" style="fill:none;stroke:#ffffff;stroke-linecap:square;stroke-width:0.8;"/>
     </g>
     <g id="line2d_10">
      <g>
       <use style="fill:#555555;stroke:#555555;stroke-width:0.8;" x="547.247388" xlink:href="#mdabe912c67" y="518.4"/>
      </g>
     </g>
     <g id="text_5">
      <!-- 2019-10 -->
      <g style="fill:#555555;" transform="translate(510.022567 552.871846)rotate(-30)scale(0.1 -0.1)">
       <use xlink:href="#DejaVuSans-50"/>
       <use x="63.623047" xlink:href="#DejaVuSans-48"/>
       <use x="127.246094" xlink:href="#DejaVuSans-49"/>
       <use x="190.869141" xlink:href="#DejaVuSans-57"/>
       <use x="254.492188" xlink:href="#DejaVuSans-45"/>
       <use x="290.576172" xlink:href="#DejaVuSans-49"/>
       <use x="354.199219" xlink:href="#DejaVuSans-48"/>
      </g>
     </g>
    </g>
    <g id="xtick_6">
     <g id="line2d_11">
      <path clip-path="url(#p7d6b506894)" d="M 631.716331 518.4 
L 631.716331 77.76 
" style="fill:none;stroke:#ffffff;stroke-linecap:square;stroke-width:0.8;"/>
     </g>
     <g id="line2d_12">
      <g>
       <use style="fill:#555555;stroke:#555555;stroke-width:0.8;" x="631.716331" xlink:href="#mdabe912c67" y="518.4"/>
      </g>
     </g>
     <g id="text_6">
      <!-- 2020-01 -->
      <g style="fill:#555555;" transform="translate(594.49151 552.871846)rotate(-30)scale(0.1 -0.1)">
       <use xlink:href="#DejaVuSans-50"/>
       <use x="63.623047" xlink:href="#DejaVuSans-48"/>
       <use x="127.246094" xlink:href="#DejaVuSans-50"/>
       <use x="190.869141" xlink:href="#DejaVuSans-48"/>
       <use x="254.492188" xlink:href="#DejaVuSans-45"/>
       <use x="290.576172" xlink:href="#DejaVuSans-48"/>
       <use x="354.199219" xlink:href="#DejaVuSans-49"/>
      </g>
     </g>
    </g>
    <g id="xtick_7">
     <g id="line2d_13">
      <path clip-path="url(#p7d6b506894)" d="M 715.267133 518.4 
L 715.267133 77.76 
" style="fill:none;stroke:#ffffff;stroke-linecap:square;stroke-width:0.8;"/>
     </g>
     <g id="line2d_14">
      <g>
       <use style="fill:#555555;stroke:#555555;stroke-width:0.8;" x="715.267133" xlink:href="#mdabe912c67" y="518.4"/>
      </g>
     </g>
     <g id="text_7">
      <!-- 2020-04 -->
      <g style="fill:#555555;" transform="translate(678.042312 552.871846)rotate(-30)scale(0.1 -0.1)">
       <use xlink:href="#DejaVuSans-50"/>
       <use x="63.623047" xlink:href="#DejaVuSans-48"/>
       <use x="127.246094" xlink:href="#DejaVuSans-50"/>
       <use x="190.869141" xlink:href="#DejaVuSans-48"/>
       <use x="254.492188" xlink:href="#DejaVuSans-45"/>
       <use x="290.576172" xlink:href="#DejaVuSans-48"/>
       <use x="354.199219" xlink:href="#DejaVuSans-52"/>
      </g>
     </g>
    </g>
    <g id="xtick_8">
     <g id="line2d_15">
      <path clip-path="url(#p7d6b506894)" d="M 798.817935 518.4 
L 798.817935 77.76 
" style="fill:none;stroke:#ffffff;stroke-linecap:square;stroke-width:0.8;"/>
     </g>
     <g id="line2d_16">
      <g>
       <use style="fill:#555555;stroke:#555555;stroke-width:0.8;" x="798.817935" xlink:href="#mdabe912c67" y="518.4"/>
      </g>
     </g>
     <g id="text_8">
      <!-- 2020-07 -->
      <g style="fill:#555555;" transform="translate(761.593114 552.871846)rotate(-30)scale(0.1 -0.1)">
       <use xlink:href="#DejaVuSans-50"/>
       <use x="63.623047" xlink:href="#DejaVuSans-48"/>
       <use x="127.246094" xlink:href="#DejaVuSans-50"/>
       <use x="190.869141" xlink:href="#DejaVuSans-48"/>
       <use x="254.492188" xlink:href="#DejaVuSans-45"/>
       <use x="290.576172" xlink:href="#DejaVuSans-48"/>
       <use x="354.199219" xlink:href="#DejaVuSans-55"/>
      </g>
     </g>
    </g>
    <g id="xtick_9">
     <g id="line2d_17">
      <path clip-path="url(#p7d6b506894)" d="M 883.286878 518.4 
L 883.286878 77.76 
" style="fill:none;stroke:#ffffff;stroke-linecap:square;stroke-width:0.8;"/>
     </g>
     <g id="line2d_18">
      <g>
       <use style="fill:#555555;stroke:#555555;stroke-width:0.8;" x="883.286878" xlink:href="#mdabe912c67" y="518.4"/>
      </g>
     </g>
     <g id="text_9">
      <!-- 2020-10 -->
      <g style="fill:#555555;" transform="translate(846.062057 552.871846)rotate(-30)scale(0.1 -0.1)">
       <use xlink:href="#DejaVuSans-50"/>
       <use x="63.623047" xlink:href="#DejaVuSans-48"/>
       <use x="127.246094" xlink:href="#DejaVuSans-50"/>
       <use x="190.869141" xlink:href="#DejaVuSans-48"/>
       <use x="254.492188" xlink:href="#DejaVuSans-45"/>
       <use x="290.576172" xlink:href="#DejaVuSans-49"/>
       <use x="354.199219" xlink:href="#DejaVuSans-48"/>
      </g>
     </g>
    </g>
    <g id="xtick_10">
     <g id="line2d_19">
      <path clip-path="url(#p7d6b506894)" d="M 967.755821 518.4 
L 967.755821 77.76 
" style="fill:none;stroke:#ffffff;stroke-linecap:square;stroke-width:0.8;"/>
     </g>
     <g id="line2d_20">
      <g>
       <use style="fill:#555555;stroke:#555555;stroke-width:0.8;" x="967.755821" xlink:href="#mdabe912c67" y="518.4"/>
      </g>
     </g>
     <g id="text_10">
      <!-- 2021-01 -->
      <g style="fill:#555555;" transform="translate(930.531 552.871846)rotate(-30)scale(0.1 -0.1)">
       <use xlink:href="#DejaVuSans-50"/>
       <use x="63.623047" xlink:href="#DejaVuSans-48"/>
       <use x="127.246094" xlink:href="#DejaVuSans-50"/>
       <use x="190.869141" xlink:href="#DejaVuSans-49"/>
       <use x="254.492188" xlink:href="#DejaVuSans-45"/>
       <use x="290.576172" xlink:href="#DejaVuSans-48"/>
       <use x="354.199219" xlink:href="#DejaVuSans-49"/>
      </g>
     </g>
    </g>
   </g>
   <g id="matplotlib.axis_2">
    <g id="ytick_1">
     <g id="line2d_21">
      <path clip-path="url(#p7d6b506894)" d="M 144 498.370909 
L 1036.8 498.370909 
" style="fill:none;stroke:#ffffff;stroke-linecap:square;stroke-width:0.8;"/>
     </g>
     <g id="line2d_22">
      <defs>
       <path d="M 0 0 
L -3.5 0 
" id="m392bf1445a" style="stroke:#555555;stroke-width:0.8;"/>
      </defs>
      <g>
       <use style="fill:#555555;stroke:#555555;stroke-width:0.8;" x="144" xlink:href="#m392bf1445a" y="498.370909"/>
      </g>
     </g>
     <g id="text_11">
      <!-- 0 -->
      <g style="fill:#555555;" transform="translate(130.6375 502.170128)scale(0.1 -0.1)">
       <use xlink:href="#DejaVuSans-48"/>
      </g>
     </g>
    </g>
    <g id="ytick_2">
     <g id="line2d_23">
      <path clip-path="url(#p7d6b506894)" d="M 144 434.73599 
L 1036.8 434.73599 
" style="fill:none;stroke:#ffffff;stroke-linecap:square;stroke-width:0.8;"/>
     </g>
     <g id="line2d_24">
      <g>
       <use style="fill:#555555;stroke:#555555;stroke-width:0.8;" x="144" xlink:href="#m392bf1445a" y="434.73599"/>
      </g>
     </g>
     <g id="text_12">
      <!-- 5000 -->
      <g style="fill:#555555;" transform="translate(111.55 438.535208)scale(0.1 -0.1)">
       <defs>
        <path d="M 10.796875 72.90625 
L 49.515625 72.90625 
L 49.515625 64.59375 
L 19.828125 64.59375 
L 19.828125 46.734375 
Q 21.96875 47.46875 24.109375 47.828125 
Q 26.265625 48.1875 28.421875 48.1875 
Q 40.625 48.1875 47.75 41.5 
Q 54.890625 34.8125 54.890625 23.390625 
Q 54.890625 11.625 47.5625 5.09375 
Q 40.234375 -1.421875 26.90625 -1.421875 
Q 22.3125 -1.421875 17.546875 -0.640625 
Q 12.796875 0.140625 7.71875 1.703125 
L 7.71875 11.625 
Q 12.109375 9.234375 16.796875 8.0625 
Q 21.484375 6.890625 26.703125 6.890625 
Q 35.15625 6.890625 40.078125 11.328125 
Q 45.015625 15.765625 45.015625 23.390625 
Q 45.015625 31 40.078125 35.4375 
Q 35.15625 39.890625 26.703125 39.890625 
Q 22.75 39.890625 18.8125 39.015625 
Q 14.890625 38.140625 10.796875 36.28125 
z
" id="DejaVuSans-53"/>
       </defs>
       <use xlink:href="#DejaVuSans-53"/>
       <use x="63.623047" xlink:href="#DejaVuSans-48"/>
       <use x="127.246094" xlink:href="#DejaVuSans-48"/>
       <use x="190.869141" xlink:href="#DejaVuSans-48"/>
      </g>
     </g>
    </g>
    <g id="ytick_3">
     <g id="line2d_25">
      <path clip-path="url(#p7d6b506894)" d="M 144 371.10107 
L 1036.8 371.10107 
" style="fill:none;stroke:#ffffff;stroke-linecap:square;stroke-width:0.8;"/>
     </g>
     <g id="line2d_26">
      <g>
       <use style="fill:#555555;stroke:#555555;stroke-width:0.8;" x="144" xlink:href="#m392bf1445a" y="371.10107"/>
      </g>
     </g>
     <g id="text_13">
      <!-- 10000 -->
      <g style="fill:#555555;" transform="translate(105.1875 374.900289)scale(0.1 -0.1)">
       <use xlink:href="#DejaVuSans-49"/>
       <use x="63.623047" xlink:href="#DejaVuSans-48"/>
       <use x="127.246094" xlink:href="#DejaVuSans-48"/>
       <use x="190.869141" xlink:href="#DejaVuSans-48"/>
       <use x="254.492188" xlink:href="#DejaVuSans-48"/>
      </g>
     </g>
    </g>
    <g id="ytick_4">
     <g id="line2d_27">
      <path clip-path="url(#p7d6b506894)" d="M 144 307.466151 
L 1036.8 307.466151 
" style="fill:none;stroke:#ffffff;stroke-linecap:square;stroke-width:0.8;"/>
     </g>
     <g id="line2d_28">
      <g>
       <use style="fill:#555555;stroke:#555555;stroke-width:0.8;" x="144" xlink:href="#m392bf1445a" y="307.466151"/>
      </g>
     </g>
     <g id="text_14">
      <!-- 15000 -->
      <g style="fill:#555555;" transform="translate(105.1875 311.265369)scale(0.1 -0.1)">
       <use xlink:href="#DejaVuSans-49"/>
       <use x="63.623047" xlink:href="#DejaVuSans-53"/>
       <use x="127.246094" xlink:href="#DejaVuSans-48"/>
       <use x="190.869141" xlink:href="#DejaVuSans-48"/>
       <use x="254.492188" xlink:href="#DejaVuSans-48"/>
      </g>
     </g>
    </g>
    <g id="ytick_5">
     <g id="line2d_29">
      <path clip-path="url(#p7d6b506894)" d="M 144 243.831231 
L 1036.8 243.831231 
" style="fill:none;stroke:#ffffff;stroke-linecap:square;stroke-width:0.8;"/>
     </g>
     <g id="line2d_30">
      <g>
       <use style="fill:#555555;stroke:#555555;stroke-width:0.8;" x="144" xlink:href="#m392bf1445a" y="243.831231"/>
      </g>
     </g>
     <g id="text_15">
      <!-- 20000 -->
      <g style="fill:#555555;" transform="translate(105.1875 247.63045)scale(0.1 -0.1)">
       <use xlink:href="#DejaVuSans-50"/>
       <use x="63.623047" xlink:href="#DejaVuSans-48"/>
       <use x="127.246094" xlink:href="#DejaVuSans-48"/>
       <use x="190.869141" xlink:href="#DejaVuSans-48"/>
       <use x="254.492188" xlink:href="#DejaVuSans-48"/>
      </g>
     </g>
    </g>
    <g id="ytick_6">
     <g id="line2d_31">
      <path clip-path="url(#p7d6b506894)" d="M 144 180.196312 
L 1036.8 180.196312 
" style="fill:none;stroke:#ffffff;stroke-linecap:square;stroke-width:0.8;"/>
     </g>
     <g id="line2d_32">
      <g>
       <use style="fill:#555555;stroke:#555555;stroke-width:0.8;" x="144" xlink:href="#m392bf1445a" y="180.196312"/>
      </g>
     </g>
     <g id="text_16">
      <!-- 25000 -->
      <g style="fill:#555555;" transform="translate(105.1875 183.99553)scale(0.1 -0.1)">
       <use xlink:href="#DejaVuSans-50"/>
       <use x="63.623047" xlink:href="#DejaVuSans-53"/>
       <use x="127.246094" xlink:href="#DejaVuSans-48"/>
       <use x="190.869141" xlink:href="#DejaVuSans-48"/>
       <use x="254.492188" xlink:href="#DejaVuSans-48"/>
      </g>
     </g>
    </g>
    <g id="ytick_7">
     <g id="line2d_33">
      <path clip-path="url(#p7d6b506894)" d="M 144 116.561392 
L 1036.8 116.561392 
" style="fill:none;stroke:#ffffff;stroke-linecap:square;stroke-width:0.8;"/>
     </g>
     <g id="line2d_34">
      <g>
       <use style="fill:#555555;stroke:#555555;stroke-width:0.8;" x="144" xlink:href="#m392bf1445a" y="116.561392"/>
      </g>
     </g>
     <g id="text_17">
      <!-- 30000 -->
      <g style="fill:#555555;" transform="translate(105.1875 120.360611)scale(0.1 -0.1)">
       <defs>
        <path d="M 40.578125 39.3125 
Q 47.65625 37.796875 51.625 33 
Q 55.609375 28.21875 55.609375 21.1875 
Q 55.609375 10.40625 48.1875 4.484375 
Q 40.765625 -1.421875 27.09375 -1.421875 
Q 22.515625 -1.421875 17.65625 -0.515625 
Q 12.796875 0.390625 7.625 2.203125 
L 7.625 11.71875 
Q 11.71875 9.328125 16.59375 8.109375 
Q 21.484375 6.890625 26.8125 6.890625 
Q 36.078125 6.890625 40.9375 10.546875 
Q 45.796875 14.203125 45.796875 21.1875 
Q 45.796875 27.640625 41.28125 31.265625 
Q 36.765625 34.90625 28.71875 34.90625 
L 20.21875 34.90625 
L 20.21875 43.015625 
L 29.109375 43.015625 
Q 36.375 43.015625 40.234375 45.921875 
Q 44.09375 48.828125 44.09375 54.296875 
Q 44.09375 59.90625 40.109375 62.90625 
Q 36.140625 65.921875 28.71875 65.921875 
Q 24.65625 65.921875 20.015625 65.03125 
Q 15.375 64.15625 9.8125 62.3125 
L 9.8125 71.09375 
Q 15.4375 72.65625 20.34375 73.4375 
Q 25.25 74.21875 29.59375 74.21875 
Q 40.828125 74.21875 47.359375 69.109375 
Q 53.90625 64.015625 53.90625 55.328125 
Q 53.90625 49.265625 50.4375 45.09375 
Q 46.96875 40.921875 40.578125 39.3125 
z
" id="DejaVuSans-51"/>
       </defs>
       <use xlink:href="#DejaVuSans-51"/>
       <use x="63.623047" xlink:href="#DejaVuSans-48"/>
       <use x="127.246094" xlink:href="#DejaVuSans-48"/>
       <use x="190.869141" xlink:href="#DejaVuSans-48"/>
       <use x="254.492188" xlink:href="#DejaVuSans-48"/>
      </g>
     </g>
    </g>
   </g>
   <g id="LineCollection_1">
    <path clip-path="url(#p7d6b506894)" d="M 276.395886 498.370909 
L 276.395886 97.789091 
" style="fill:none;stroke:#ffa500;stroke-dasharray:5.55,2.4;stroke-dashoffset:0;stroke-width:1.5;"/>
   </g>
   <g id="LineCollection_2">
    <path clip-path="url(#p7d6b506894)" d="M 655.587988 498.370909 
L 655.587988 97.789091 
" style="fill:none;stroke:#808080;stroke-dasharray:5.55,2.4;stroke-dashoffset:0;stroke-width:1.5;"/>
   </g>
   <g id="LineCollection_3">
    <path clip-path="url(#p7d6b506894)" d="M 707.003867 498.370909 
L 707.003867 97.789091 
" style="fill:none;stroke:#800080;stroke-dasharray:5.55,2.4;stroke-dashoffset:0;stroke-width:1.5;"/>
   </g>
   <g id="LineCollection_4">
    <path clip-path="url(#p7d6b506894)" d="M 912.66738 498.370909 
L 912.66738 97.789091 
" style="fill:none;stroke:#800080;stroke-dasharray:5.55,2.4;stroke-dashoffset:0;stroke-width:1.5;"/>
   </g>
   <g id="LineCollection_5">
    <path clip-path="url(#p7d6b506894)" d="M 953.06557 498.370909 
L 953.06557 97.789091 
" style="fill:none;stroke:#800080;stroke-dasharray:5.55,2.4;stroke-dashoffset:0;stroke-width:1.5;"/>
   </g>
   <g id="line2d_35">
    <path clip-path="url(#p7d6b506894)" d="M 740.975072 497.874557 
L 741.893213 497.390931 
L 742.811353 496.461862 
L 743.729494 494.794627 
L 745.565775 492.452862 
L 746.483916 491.332887 
L 747.402057 489.805649 
L 748.320197 488.609312 
L 749.238338 488.049325 
L 750.156479 487.107528 
L 751.074619 486.547541 
L 752.910901 484.867579 
L 754.747182 483.671243 
L 756.583464 481.914919 
L 757.501604 481.214935 
L 758.419745 480.311319 
L 759.337886 479.216798 
L 760.256026 478.427725 
L 761.174167 477.460475 
L 762.092308 476.684129 
L 763.010448 476.251411 
L 763.928589 475.449611 
L 764.84673 475.004167 
L 765.76487 474.266002 
L 766.683011 473.706014 
L 767.601152 472.942395 
L 768.519292 471.91151 
L 769.437433 471.084256 
L 770.355574 469.837011 
L 771.273715 468.86976 
L 773.109996 466.29891 
L 776.782559 462.684446 
L 778.61884 460.953576 
L 782.291403 455.506427 
L 783.209543 454.437361 
L 784.127684 453.0883 
L 785.045825 452.222865 
L 785.963965 450.453815 
L 787.800247 447.628424 
L 789.636528 444.472132 
L 790.554669 441.392202 
L 791.47281 439.648605 
L 793.309091 437.625015 
L 794.227232 436.466859 
L 795.145372 435.639605 
L 796.063513 435.003256 
L 797.899794 432.521494 
L 798.817935 431.121526 
L 799.736076 429.505199 
L 802.490498 425.712558 
L 803.408638 424.808942 
L 804.326779 423.625333 
L 807.081201 419.056345 
L 807.999342 418.216365 
L 808.917483 417.541834 
L 809.835623 415.887326 
L 811.671905 412.985574 
L 812.590045 411.381974 
L 813.508186 408.543857 
L 814.426327 406.138457 
L 815.344467 404.687581 
L 816.262608 403.503971 
L 818.098889 400.551311 
L 823.607733 391.858781 
L 824.525874 390.63699 
L 825.444015 389.071571 
L 827.280296 385.418927 
L 829.116578 382.911711 
L 830.034718 381.231749 
L 830.952859 379.220886 
L 831.871 376.560946 
L 835.543562 371.431972 
L 836.461703 369.917461 
L 837.379844 368.810213 
L 839.216125 367.002981 
L 840.134266 366.328451 
L 841.970547 364.164864 
L 842.888688 362.446721 
L 845.64311 358.615899 
L 847.479391 356.312315 
L 848.397532 355.44688 
L 851.151954 352.354223 
L 852.070095 351.616058 
L 853.906376 349.796099 
L 855.742657 348.179772 
L 863.087783 339.729055 
L 864.005923 339.054525 
L 864.924064 338.023639 
L 865.842205 337.221839 
L 869.514768 332.207407 
L 872.26919 328.529309 
L 874.105471 326.28936 
L 875.941752 324.43122 
L 876.859893 323.260338 
L 877.778034 322.649442 
L 879.614315 320.625852 
L 880.532456 319.378608 
L 881.450596 318.360449 
L 885.123159 313.346017 
L 886.959441 310.966071 
L 888.795722 308.420674 
L 889.713863 306.969798 
L 890.632003 305.200747 
L 891.550144 303.826233 
L 894.304566 300.962662 
L 897.058988 297.80637 
L 897.977129 296.635487 
L 898.895269 295.680964 
L 899.81341 294.408265 
L 901.649691 291.251973 
L 902.567832 289.890186 
L 907.158536 281.6431 
L 908.994817 279.390424 
L 910.831098 276.552307 
L 911.749239 275.101431 
L 912.66738 273.930548 
L 913.58552 272.416037 
L 914.503661 270.583351 
L 917.258083 266.001637 
L 918.176224 264.754393 
L 919.094364 263.812596 
L 920.012505 262.145361 
L 920.930646 260.910844 
L 922.766927 258.110907 
L 923.685068 256.74912 
L 925.521349 253.325561 
L 926.43949 252.103771 
L 927.357631 251.340152 
L 928.275771 250.843799 
L 930.112053 249.087475 
L 931.030193 248.043863 
L 931.948334 247.356606 
L 933.784615 245.180291 
L 934.702756 244.263949 
L 935.620897 242.978523 
L 937.457178 241.107657 
L 938.375319 240.407672 
L 939.293459 239.936774 
L 941.129741 237.63319 
L 942.966022 234.476898 
L 943.884163 233.293288 
L 944.802304 231.880593 
L 945.720444 230.16245 
L 949.393007 224.346219 
L 951.229288 221.062657 
L 952.147429 219.31906 
L 953.06557 217.880911 
L 954.901851 214.750073 
L 955.819992 213.197381 
L 956.738132 212.841025 
L 957.656273 211.619235 
L 958.574414 209.952 
L 959.492555 208.704756 
L 960.410695 206.693892 
L 964.083258 200.775845 
L 965.919539 198.994067 
L 968.673961 196.754118 
L 969.592102 195.685051 
L 970.510243 194.819616 
L 971.428383 193.737823 
L 972.346524 193.483283 
L 996.218182 193.483283 
L 996.218182 193.483283 
" style="fill:none;stroke:#e24a33;stroke-linecap:square;stroke-width:1.5;"/>
   </g>
   <g id="line2d_36">
    <path clip-path="url(#p7d6b506894)" d="M 184.581818 498.294547 
L 196.517647 498.230912 
L 210.289757 498.129096 
L 219.471164 498.103642 
L 232.325134 498.052734 
L 237.833978 497.696379 
L 242.424681 497.594563 
L 243.342822 497.556382 
L 246.097244 497.174573 
L 247.015385 497.136392 
L 251.606088 496.436408 
L 252.524229 496.334592 
L 257.114932 495.176436 
L 258.033073 495.087347 
L 260.787495 494.540087 
L 262.623776 494.247366 
L 263.541917 493.941919 
L 266.296339 493.509201 
L 269.050761 493.140119 
L 272.723324 492.198322 
L 273.641464 491.816512 
L 274.559605 491.638335 
L 276.395886 490.7729 
L 279.150309 490.085643 
L 282.822871 489.092938 
L 284.659153 488.838398 
L 285.577293 488.622039 
L 286.495434 488.252957 
L 287.413575 488.011144 
L 288.331715 487.616608 
L 289.249856 487.412976 
L 291.086137 487.374795 
L 293.840559 486.802081 
L 297.513122 486.560268 
L 300.267544 486.229366 
L 302.103826 485.974827 
L 303.940107 485.796649 
L 304.858248 485.465747 
L 306.694529 485.236662 
L 310.367092 484.434862 
L 312.203373 484.002144 
L 314.957795 483.671243 
L 321.38478 482.398544 
L 322.302921 482.258547 
L 324.139202 481.736741 
L 326.893624 481.304024 
L 327.811765 480.947668 
L 328.729905 480.858579 
L 329.648046 480.578586 
L 330.566187 480.502224 
L 335.15689 479.331341 
L 336.993172 478.784081 
L 337.911312 478.61863 
L 339.747594 478.122278 
L 341.583875 477.676833 
L 342.502016 477.256843 
L 343.420156 477.027757 
L 344.338297 476.645948 
L 345.256438 476.493224 
L 346.174578 476.21323 
L 348.01086 475.95869 
L 349.847141 475.462338 
L 352.601563 474.647811 
L 354.437845 474.164186 
L 359.946689 472.407862 
L 361.78297 471.898783 
L 362.701111 471.466065 
L 366.373673 470.447906 
L 368.209955 469.595198 
L 370.046236 468.958849 
L 370.964377 468.335227 
L 374.63694 466.795262 
L 375.55508 466.642538 
L 376.473221 466.146186 
L 380.145784 464.975303 
L 381.063924 464.797126 
L 381.982065 464.44077 
L 383.818346 463.422611 
L 384.736487 463.206253 
L 387.490909 462.124459 
L 390.245331 460.597221 
L 392.081613 460.062688 
L 393.917894 459.08271 
L 394.836035 458.879078 
L 396.672316 458.242729 
L 398.508597 457.8991 
L 400.344879 457.313659 
L 406.771863 455.582789 
L 407.690004 455.239161 
L 409.526285 454.755535 
L 413.198848 453.508291 
L 415.03513 453.0883 
L 419.625833 451.86651 
L 421.462114 451.535608 
L 422.380255 451.166526 
L 424.216536 450.861078 
L 426.052818 450.224729 
L 426.970958 450.021097 
L 427.889099 449.664742 
L 430.643521 449.015666 
L 433.397943 448.328408 
L 434.316084 448.175685 
L 435.234225 447.908418 
L 437.070506 447.641151 
L 441.661209 446.482996 
L 442.57935 446.38118 
L 452.678898 443.352158 
L 453.597038 443.04671 
L 455.43332 442.753989 
L 456.35146 442.49945 
L 457.269601 442.384907 
L 460.942164 441.252205 
L 462.778445 440.666764 
L 464.614726 440.055869 
L 465.532867 439.610424 
L 466.451008 439.432247 
L 467.369148 438.948621 
L 471.041711 437.663196 
L 479.304977 434.545085 
L 480.223118 434.036005 
L 481.141259 433.80692 
L 483.895681 432.788761 
L 484.813821 432.559675 
L 490.322666 430.446996 
L 491.240806 429.861555 
L 495.83151 428.054323 
L 497.667791 427.061618 
L 498.585932 426.883441 
L 499.504072 426.501631 
L 501.340354 426.068914 
L 503.176635 425.101663 
L 504.094776 424.885304 
L 505.012916 424.516222 
L 505.931057 423.956234 
L 506.849198 423.765329 
L 508.685479 422.963529 
L 509.60362 422.45445 
L 510.521761 422.072641 
L 511.439901 421.423564 
L 515.112464 419.934507 
L 516.948745 418.929076 
L 518.785027 418.165457 
L 519.703167 417.961825 
L 524.293871 416.103685 
L 525.212012 415.810965 
L 527.966434 414.449177 
L 528.884574 414.118276 
L 531.638996 412.578311 
L 532.557137 411.980142 
L 534.393418 411.140161 
L 536.2297 409.969279 
L 537.14784 409.167479 
L 538.984122 408.14932 
L 539.902262 407.60206 
L 540.820403 406.583901 
L 541.738544 406.278454 
L 543.574825 404.954847 
L 545.411107 404.39486 
L 547.247388 402.714898 
L 548.165529 402.460358 
L 550.00181 401.327657 
L 551.838091 400.220409 
L 552.756232 399.380428 
L 554.592513 398.349543 
L 556.428795 397.573197 
L 557.346935 396.936847 
L 559.183217 396.147774 
L 560.101357 395.371428 
L 561.019498 394.875076 
L 562.85578 393.589651 
L 563.77392 393.29693 
L 565.610202 392.342406 
L 566.528342 392.126048 
L 569.282764 390.420632 
L 570.200905 390.08973 
L 571.119046 389.529743 
L 572.037186 389.186114 
L 572.955327 388.511584 
L 573.873468 388.015232 
L 575.709749 387.39161 
L 577.54603 386.678898 
L 578.464171 386.068003 
L 580.300452 385.253476 
L 581.218593 384.540765 
L 582.136734 384.209864 
L 583.054875 383.751692 
L 583.973015 383.509879 
L 584.891156 383.420791 
L 586.727437 382.924438 
L 587.645578 381.94446 
L 592.236281 379.92087 
L 599.581407 376.573673 
L 601.417688 375.708238 
L 607.844673 372.373769 
L 608.762814 371.584696 
L 610.599095 370.84653 
L 611.517236 370.184727 
L 612.435376 370.006549 
L 613.353517 369.344746 
L 614.271658 368.95021 
L 615.189798 368.390223 
L 617.02608 367.677511 
L 619.780502 366.506629 
L 620.698643 366.341178 
L 622.534924 365.730283 
L 623.453065 365.310292 
L 624.371205 365.017572 
L 626.207487 364.979391 
L 628.043768 364.317588 
L 628.961909 364.075775 
L 629.880049 363.426699 
L 632.634471 362.879439 
L 637.225175 360.715851 
L 638.143316 360.575854 
L 639.061456 359.786781 
L 641.815878 358.615899 
L 643.65216 357.559559 
L 646.406582 356.032321 
L 650.079144 354.594172 
L 650.997285 353.983277 
L 653.751707 352.685124 
L 658.342411 350.954255 
L 662.014973 349.70701 
L 662.933114 349.554286 
L 667.523817 346.996163 
L 668.441958 346.767077 
L 669.360099 346.308905 
L 672.114521 344.641671 
L 673.032661 344.259861 
L 673.950802 344.030775 
L 674.868943 343.432607 
L 676.705224 342.643534 
L 678.541506 341.549014 
L 679.459646 341.179931 
L 680.377787 340.950845 
L 682.214068 340.034502 
L 684.96849 339.232702 
L 685.886631 338.787258 
L 687.722912 338.087274 
L 691.395475 336.71276 
L 692.313616 336.127318 
L 693.231756 335.898233 
L 694.149897 335.465515 
L 695.986179 334.892801 
L 697.82246 334.040093 
L 699.658741 333.581922 
L 701.495023 332.601944 
L 703.331304 331.354699 
L 704.249445 330.896528 
L 706.085726 330.451084 
L 707.003867 329.865642 
L 709.758289 328.605671 
L 710.676429 328.032957 
L 711.59457 327.752963 
L 714.348992 326.276633 
L 715.267133 325.538468 
L 716.185274 325.207566 
L 718.021555 324.125773 
L 718.939696 323.909414 
L 719.857836 323.476696 
L 720.775977 322.70035 
L 721.694118 322.203998 
L 726.284821 320.982208 
L 727.202962 320.562217 
L 728.121102 320.307677 
L 729.039243 319.518604 
L 729.957384 319.174976 
L 732.711806 317.711373 
L 733.629947 317.431379 
L 735.466228 316.489582 
L 740.056931 314.440538 
L 740.975072 313.753281 
L 741.893213 313.269655 
L 742.811353 312.951481 
L 754.747182 306.384357 
L 755.665323 305.620738 
L 757.501604 304.437128 
L 758.419745 303.698963 
L 759.337886 303.189884 
L 760.256026 302.846255 
L 764.84673 300.249951 
L 767.601152 298.824529 
L 768.519292 298.544535 
L 769.437433 297.93364 
L 772.191855 295.553694 
L 774.028137 294.72644 
L 774.946277 293.759189 
L 775.864418 293.071932 
L 777.700699 291.468332 
L 778.61884 290.641078 
L 779.536981 290.233814 
L 780.455121 289.622919 
L 781.373262 288.73203 
L 782.291403 288.222951 
L 783.209543 287.548421 
L 784.127684 286.593897 
L 785.963965 285.321199 
L 786.882106 284.328494 
L 788.718387 283.424878 
L 789.636528 283.055796 
L 790.554669 281.986729 
L 791.47281 281.248564 
L 795.145372 279.084977 
L 796.063513 278.474081 
L 796.981654 277.608646 
L 799.736076 276.170497 
L 800.654216 275.203246 
L 801.572357 274.757802 
L 802.490498 273.803278 
L 804.326779 272.797846 
L 805.24492 271.563329 
L 807.999342 269.412469 
L 812.590045 266.103453 
L 814.426327 264.359856 
L 817.180749 262.208996 
L 819.935171 259.790869 
L 821.771452 258.912707 
L 822.689593 258.518171 
L 824.525874 257.461831 
L 825.444015 257.118202 
L 826.362155 256.532761 
L 828.198437 254.687348 
L 829.116578 253.554647 
L 830.952859 251.887412 
L 831.871 251.187428 
L 833.707281 249.622009 
L 834.625422 249.176564 
L 837.379844 246.796618 
L 840.134266 244.709393 
L 841.052406 244.365764 
L 843.806828 241.705825 
L 844.724969 240.662212 
L 847.479391 238.753165 
L 848.397532 238.333174 
L 850.233813 236.945933 
L 851.151954 236.245949 
L 852.988235 234.273266 
L 853.906376 232.262403 
L 854.824517 230.900615 
L 855.742657 229.831549 
L 857.578939 228.495216 
L 858.497079 227.158882 
L 860.333361 226.000727 
L 863.087783 223.926228 
L 865.842205 221.151746 
L 867.678486 220.031771 
L 869.514768 218.135451 
L 870.432908 217.29547 
L 871.351049 216.850025 
L 873.18733 215.271879 
L 874.105471 214.673711 
L 875.023612 213.83373 
L 875.941752 213.146473 
L 876.859893 212.191949 
L 879.614315 210.130178 
L 880.532456 209.213835 
L 881.450596 207.864775 
L 882.368737 206.948432 
L 884.205019 204.428489 
L 885.123159 203.79214 
L 887.877581 200.864933 
L 888.795722 200.343127 
L 889.713863 199.159518 
L 890.632003 197.594099 
L 893.386425 195.494146 
L 894.304566 194.501442 
L 895.222707 193.814184 
L 896.140847 193.266924 
L 897.058988 191.917864 
L 897.977129 190.823343 
L 898.895269 190.148813 
L 899.81341 189.1052 
L 900.731551 188.379762 
L 901.649691 187.361604 
L 902.567832 186.661619 
L 903.485973 185.60528 
L 904.404114 183.810775 
L 905.322254 183.161699 
L 906.240395 181.736277 
L 907.158536 180.896296 
L 909.912958 177.803639 
L 910.831098 176.518213 
L 911.749239 175.996407 
L 912.66738 175.30915 
L 913.58552 173.514645 
L 914.503661 172.458305 
L 915.421802 170.281991 
L 918.176224 164.669391 
L 919.094364 163.167607 
L 920.012505 162.149448 
L 923.685068 156.44776 
L 924.603209 155.315058 
L 926.43949 152.769661 
L 927.357631 151.878772 
L 928.275771 149.066109 
L 929.193912 147.0807 
L 931.948334 142.791706 
L 932.866475 141.837182 
L 933.784615 140.653573 
L 935.620897 137.306376 
L 938.375319 134.697344 
L 939.293459 133.06829 
L 940.2116 132.164674 
L 942.966022 128.601119 
L 944.802304 125.724821 
L 948.474866 122.275808 
L 949.393007 121.104925 
L 950.311148 119.437691 
L 951.229288 118.89043 
L 952.147429 118.177719 
L 953.98371 115.657776 
L 954.901851 114.575983 
L 955.819992 113.226922 
L 956.738132 112.323307 
L 957.656273 111.177878 
L 960.410695 108.479757 
L 961.328836 108.008859 
L 962.246977 107.041608 
L 963.165117 105.64164 
L 964.083258 104.814386 
L 965.919539 102.739888 
L 966.83768 102.256262 
L 968.673961 100.665389 
L 971.428383 98.043631 
L 972.346524 97.789091 
L 996.218182 97.789091 
L 996.218182 97.789091 
" style="fill:none;stroke:#348abd;stroke-linecap:square;stroke-width:1.5;"/>
   </g>
   <g id="line2d_37">
    <path clip-path="url(#p7d6b506894)" d="M 566.528342 498.28182 
L 575.709749 497.569109 
L 577.54603 497.492747 
L 583.054875 496.881852 
L 584.891156 496.754582 
L 587.645578 496.474588 
L 593.154422 495.927328 
L 594.990703 495.634608 
L 606.008392 494.769173 
L 607.844673 494.450998 
L 611.517236 494.056462 
L 618.862361 493.649198 
L 627.125627 493.458293 
L 629.880049 493.267389 
L 630.79819 493.012849 
L 632.634471 492.911033 
L 634.470753 492.567404 
L 635.388893 492.516496 
L 637.225175 492.083779 
L 639.979597 491.803785 
L 641.815878 491.70197 
L 643.65216 491.434703 
L 645.488441 491.294706 
L 646.406582 491.103801 
L 648.242863 490.925624 
L 649.161004 490.721992 
L 650.997285 490.581995 
L 651.915426 490.314728 
L 654.669848 489.983827 
L 655.587988 489.767468 
L 657.42427 489.551109 
L 658.342411 489.398385 
L 660.178692 488.863852 
L 662.933114 488.431135 
L 671.19638 487.323887 
L 672.114521 487.043893 
L 674.868943 486.674811 
L 678.541506 486.140278 
L 683.132209 485.147573 
L 684.05035 484.791217 
L 688.641053 483.645789 
L 689.559194 483.225798 
L 695.068038 481.838557 
L 695.986179 481.494928 
L 696.904319 481.431294 
L 697.82246 481.113119 
L 699.658741 480.744036 
L 702.413163 479.751332 
L 707.003867 478.058643 
L 707.922007 477.447748 
L 709.758289 476.582313 
L 710.676429 476.365954 
L 712.512711 475.131436 
L 713.430852 474.393271 
L 714.348992 473.922373 
L 716.185274 472.115141 
L 717.103414 471.580608 
L 718.021555 470.791535 
L 721.694118 469.264297 
L 722.612258 468.717037 
L 724.44854 468.055233 
L 725.36668 467.202526 
L 729.039243 465.764376 
L 729.957384 465.140754 
L 732.711806 464.008053 
L 733.629947 463.435338 
L 734.548087 463.028075 
L 735.466228 462.315364 
L 736.384369 462.111732 
L 737.302509 461.48811 
L 740.056931 460.202684 
L 741.893213 459.019075 
L 742.811353 458.471815 
L 743.729494 458.064551 
L 744.647635 457.784557 
L 745.565775 457.339113 
L 746.483916 456.448224 
L 749.238338 455.353704 
L 750.156479 454.424634 
L 752.910901 453.126481 
L 753.829042 452.464678 
L 756.583464 450.861078 
L 757.501604 449.906554 
L 758.419745 449.372021 
L 760.256026 448.570221 
L 761.174167 447.882964 
L 762.092308 447.653878 
L 763.010448 447.068437 
L 763.928589 446.622993 
L 764.84673 445.99937 
L 765.76487 444.917577 
L 767.601152 443.899418 
L 768.519292 443.135799 
L 769.437433 442.741262 
L 770.355574 441.99037 
L 772.191855 441.061301 
L 777.700699 437.446837 
L 778.61884 437.01412 
L 779.536981 436.199593 
L 781.373262 435.295977 
L 782.291403 434.774171 
L 783.209543 434.405088 
L 784.127684 433.883282 
L 785.045825 433.565107 
L 786.882106 432.394225 
L 787.800247 431.961507 
L 788.718387 431.69424 
L 789.636528 430.994256 
L 790.554669 430.650628 
L 792.39095 429.607015 
L 795.145372 428.44886 
L 796.063513 428.270682 
L 798.817935 426.756171 
L 799.736076 426.539812 
L 801.572357 425.648923 
L 802.490498 425.432564 
L 804.326779 424.630764 
L 805.24492 424.083504 
L 807.081201 423.612606 
L 807.999342 422.848987 
L 809.835623 422.16173 
L 812.590045 420.965393 
L 813.508186 420.749034 
L 817.180749 419.030891 
L 818.098889 418.381815 
L 819.01703 418.012733 
L 819.935171 417.236387 
L 820.853311 416.71458 
L 821.771452 416.42186 
L 822.689593 415.976415 
L 823.607733 415.785511 
L 824.525874 415.454609 
L 825.444015 415.327339 
L 827.280296 414.576447 
L 830.034718 413.4692 
L 831.871 412.680127 
L 833.707281 412.28559 
L 837.379844 411.000165 
L 841.970547 409.243841 
L 843.806828 408.314771 
L 844.724969 407.72933 
L 846.561251 407.003892 
L 849.315673 405.693012 
L 850.233813 405.120298 
L 851.151954 404.700308 
L 852.070095 404.089412 
L 852.988235 403.185797 
L 853.906376 401.913098 
L 856.660798 399.8386 
L 860.333361 397.942279 
L 861.251501 397.649559 
L 863.087783 396.771397 
L 864.924064 395.638695 
L 865.842205 395.193251 
L 867.678486 394.060549 
L 869.514768 393.16966 
L 870.432908 392.902394 
L 873.18733 391.082435 
L 874.105471 390.76426 
L 875.023612 390.293362 
L 875.941752 389.606105 
L 877.778034 388.6134 
L 878.696174 388.244317 
L 879.614315 387.595241 
L 880.532456 387.149797 
L 882.368737 385.991641 
L 883.286878 385.520743 
L 884.205019 384.566219 
L 885.123159 383.8026 
L 886.0413 383.293521 
L 886.959441 383.013527 
L 888.795722 381.817191 
L 889.713863 381.359019 
L 892.468285 379.259067 
L 893.386425 378.800895 
L 897.058988 376.090048 
L 898.895269 375.059162 
L 899.81341 374.69008 
L 904.404114 371.559242 
L 907.158536 369.942915 
L 908.076676 369.07748 
L 909.912958 367.919324 
L 910.831098 367.244794 
L 911.749239 366.735715 
L 913.58552 365.348473 
L 914.503661 364.457585 
L 916.339942 362.064912 
L 917.258083 361.543105 
L 924.603209 354.377813 
L 925.521349 353.932369 
L 926.43949 353.003299 
L 927.357631 352.328769 
L 928.275771 351.221521 
L 930.112053 349.847007 
L 932.866475 347.950686 
L 934.702756 346.716169 
L 935.620897 345.774372 
L 939.293459 343.687147 
L 941.129741 341.765372 
L 944.802304 339.054525 
L 947.556726 336.738214 
L 950.311148 334.523718 
L 952.147429 332.754668 
L 953.06557 332.131045 
L 954.901851 330.463811 
L 955.819992 329.598376 
L 960.410695 326.28936 
L 961.328836 325.563922 
L 964.083258 323.807598 
L 968.673961 320.956754 
L 969.592102 320.142227 
L 970.510243 319.696782 
L 971.428383 318.94589 
L 973.264665 318.856801 
L 996.218182 318.856801 
L 996.218182 318.856801 
" style="fill:none;stroke:#988ed5;stroke-linecap:square;stroke-width:1.5;"/>
   </g>
   <g id="line2d_38">
    <path clip-path="url(#p7d6b506894)" d="M 695.068038 498.345455 
L 696.904319 498.243639 
L 700.576882 497.950919 
L 703.331304 497.709106 
L 706.085726 497.696379 
L 707.003867 497.556382 
L 708.840148 497.543655 
L 709.758289 497.276388 
L 713.430852 497.200027 
L 717.103414 496.856398 
L 718.939696 496.729128 
L 726.284821 496.525496 
L 729.957384 496.321865 
L 732.711806 496.105506 
L 735.466228 495.545519 
L 737.302509 492.834671 
L 738.22065 491.625608 
L 739.138791 491.180163 
L 740.056931 490.302001 
L 742.811353 488.762036 
L 744.647635 488.214776 
L 745.565775 488.100233 
L 747.402057 487.298433 
L 749.238338 486.293001 
L 751.074619 484.803944 
L 752.910901 483.645789 
L 753.829042 483.187617 
L 754.747182 482.576722 
L 755.665323 481.787649 
L 756.583464 481.1513 
L 758.419745 479.191344 
L 759.337886 478.516814 
L 760.256026 478.07137 
L 761.174167 476.735036 
L 762.092308 475.780513 
L 763.928589 473.286024 
L 764.84673 471.898783 
L 765.76487 470.295183 
L 766.683011 469.67156 
L 767.601152 468.86976 
L 768.519292 468.347954 
L 769.437433 467.227979 
L 770.355574 466.680719 
L 771.273715 465.942554 
L 773.109996 464.911668 
L 775.864418 464.402589 
L 778.61884 463.397157 
L 779.536981 462.862624 
L 780.455121 461.984462 
L 791.47281 460.864488 
L 795.145372 460.737218 
L 798.817935 460.329954 
L 800.654216 459.935418 
L 806.16306 459.719059 
L 807.081201 459.642697 
L 807.999342 459.362703 
L 819.935171 459.095437 
L 820.853311 459.057256 
L 822.689593 458.802716 
L 825.444015 458.688173 
L 826.362155 458.675446 
L 827.280296 458.522723 
L 828.198437 457.950008 
L 831.871 457.911827 
L 832.78914 457.835465 
L 833.707281 457.530018 
L 834.625422 457.504564 
L 836.461703 457.135481 
L 838.297984 456.80458 
L 839.216125 456.486405 
L 842.888688 455.697332 
L 843.806828 455.417338 
L 845.64311 455.099164 
L 848.397532 454.030097 
L 849.315673 453.330113 
L 850.233813 452.859215 
L 852.988235 450.873805 
L 854.824517 450.530177 
L 856.660798 449.346567 
L 857.578939 448.392043 
L 858.497079 446.890259 
L 860.333361 445.159389 
L 861.251501 444.688491 
L 863.087783 444.141231 
L 864.005923 442.843078 
L 866.760346 440.704945 
L 867.678486 440.234047 
L 868.596627 439.58497 
L 869.514768 439.203161 
L 870.432908 438.681355 
L 871.351049 438.554085 
L 874.105471 437.752285 
L 875.023612 437.026847 
L 875.941752 436.021415 
L 876.859893 435.346885 
L 877.778034 434.965075 
L 879.614315 434.48145 
L 880.532456 434.379634 
L 881.450596 433.870555 
L 883.286878 433.221479 
L 884.205019 432.317863 
L 885.123159 428.219774 
L 888.795722 427.417974 
L 889.713863 426.883441 
L 890.632003 425.78892 
L 891.550144 424.910758 
L 892.468285 423.688968 
L 894.304566 422.721717 
L 895.222707 422.45445 
L 896.140847 421.614469 
L 897.977129 420.672672 
L 899.81341 419.641787 
L 901.649691 418.941803 
L 903.485973 416.981847 
L 904.404114 415.36552 
L 905.322254 415.072799 
L 907.158536 414.131003 
L 908.076676 413.278295 
L 909.912958 412.349225 
L 913.58552 410.580174 
L 916.339942 410.300181 
L 917.258083 410.236546 
L 918.176224 409.854736 
L 920.012505 409.651104 
L 921.848787 409.4602 
L 922.766927 409.383838 
L 924.603209 408.734761 
L 925.521349 407.614787 
L 927.357631 407.092981 
L 928.275771 406.711171 
L 929.193912 406.023914 
L 931.030193 405.4512 
L 931.948334 405.362111 
L 932.866475 405.06939 
L 933.784615 404.623946 
L 934.702756 404.52213 
L 935.620897 403.97487 
L 936.539037 403.733057 
L 937.457178 403.198524 
L 938.375319 402.994892 
L 939.293459 401.964006 
L 940.2116 401.18766 
L 941.129741 400.793124 
L 942.047882 400.067685 
L 942.966022 399.634968 
L 943.884163 398.858622 
L 944.802304 398.336816 
L 945.720444 396.962301 
L 947.556726 395.473244 
L 948.474866 395.040527 
L 949.393007 392.851486 
L 950.311148 392.138774 
L 951.229288 391.27334 
L 952.147429 390.751533 
L 953.98371 390.077003 
L 954.901851 389.262476 
L 955.819992 388.995209 
L 956.738132 388.587946 
L 957.656273 388.371587 
L 960.410695 386.297089 
L 961.328836 386.106184 
L 962.246977 385.648013 
L 964.083258 384.438949 
L 965.919539 383.878962 
L 966.83768 383.8026 
L 967.755821 383.54806 
L 968.673961 383.420791 
L 970.510243 382.364451 
L 971.428383 381.346292 
L 972.346524 380.989937 
L 996.218182 380.989937 
L 996.218182 380.989937 
" style="fill:none;stroke:#777777;stroke-linecap:square;stroke-width:1.5;"/>
   </g>
   <g id="patch_3">
    <path d="M 144 518.4 
L 144 77.76 
" style="fill:none;stroke:#ffffff;stroke-linecap:square;stroke-linejoin:miter;"/>
   </g>
   <g id="patch_4">
    <path d="M 1036.8 518.4 
L 1036.8 77.76 
" style="fill:none;stroke:#ffffff;stroke-linecap:square;stroke-linejoin:miter;"/>
   </g>
   <g id="patch_5">
    <path d="M 144 518.4 
L 1036.8 518.4 
" style="fill:none;stroke:#ffffff;stroke-linecap:square;stroke-linejoin:miter;"/>
   </g>
   <g id="patch_6">
    <path d="M 144 77.76 
L 1036.8 77.76 
" style="fill:none;stroke:#ffffff;stroke-linecap:square;stroke-linejoin:miter;"/>
   </g>
   <g id="legend_1">
    <g id="patch_7">
     <path d="M 151 217.863125 
L 399.167188 217.863125 
Q 401.167188 217.863125 401.167188 215.863125 
L 401.167188 84.76 
Q 401.167188 82.76 399.167188 82.76 
L 151 82.76 
Q 149 82.76 149 84.76 
L 149 215.863125 
Q 149 217.863125 151 217.863125 
z
" style="fill:#e5e5e5;opacity:0.8;stroke:#cccccc;stroke-linejoin:miter;stroke-width:0.5;"/>
    </g>
    <g id="line2d_39">
     <path d="M 153 90.858438 
L 173 90.858438 
" style="fill:none;stroke:#e24a33;stroke-linecap:square;stroke-width:1.5;"/>
    </g>
    <g id="line2d_40"/>
    <g id="text_18">
     <!-- ATTILA HILDMANN  -->
     <g transform="translate(181 94.358438)scale(0.1 -0.1)">
      <defs>
       <path d="M 34.1875 63.1875 
L 20.796875 26.90625 
L 47.609375 26.90625 
z
M 28.609375 72.90625 
L 39.796875 72.90625 
L 67.578125 0 
L 57.328125 0 
L 50.6875 18.703125 
L 17.828125 18.703125 
L 11.1875 0 
L 0.78125 0 
z
" id="DejaVuSans-65"/>
       <path d="M -0.296875 72.90625 
L 61.375 72.90625 
L 61.375 64.59375 
L 35.5 64.59375 
L 35.5 0 
L 25.59375 0 
L 25.59375 64.59375 
L -0.296875 64.59375 
z
" id="DejaVuSans-84"/>
       <path d="M 9.8125 72.90625 
L 19.671875 72.90625 
L 19.671875 0 
L 9.8125 0 
z
" id="DejaVuSans-73"/>
       <path d="M 9.8125 72.90625 
L 19.671875 72.90625 
L 19.671875 8.296875 
L 55.171875 8.296875 
L 55.171875 0 
L 9.8125 0 
z
" id="DejaVuSans-76"/>
       <path id="DejaVuSans-32"/>
       <path d="M 9.8125 72.90625 
L 19.671875 72.90625 
L 19.671875 43.015625 
L 55.515625 43.015625 
L 55.515625 72.90625 
L 65.375 72.90625 
L 65.375 0 
L 55.515625 0 
L 55.515625 34.71875 
L 19.671875 34.71875 
L 19.671875 0 
L 9.8125 0 
z
" id="DejaVuSans-72"/>
       <path d="M 19.671875 64.796875 
L 19.671875 8.109375 
L 31.59375 8.109375 
Q 46.6875 8.109375 53.6875 14.9375 
Q 60.6875 21.78125 60.6875 36.53125 
Q 60.6875 51.171875 53.6875 57.984375 
Q 46.6875 64.796875 31.59375 64.796875 
z
M 9.8125 72.90625 
L 30.078125 72.90625 
Q 51.265625 72.90625 61.171875 64.09375 
Q 71.09375 55.28125 71.09375 36.53125 
Q 71.09375 17.671875 61.125 8.828125 
Q 51.171875 0 30.078125 0 
L 9.8125 0 
z
" id="DejaVuSans-68"/>
       <path d="M 9.8125 72.90625 
L 24.515625 72.90625 
L 43.109375 23.296875 
L 61.8125 72.90625 
L 76.515625 72.90625 
L 76.515625 0 
L 66.890625 0 
L 66.890625 64.015625 
L 48.09375 14.015625 
L 38.1875 14.015625 
L 19.390625 64.015625 
L 19.390625 0 
L 9.8125 0 
z
" id="DejaVuSans-77"/>
       <path d="M 9.8125 72.90625 
L 23.09375 72.90625 
L 55.421875 11.921875 
L 55.421875 72.90625 
L 64.984375 72.90625 
L 64.984375 0 
L 51.703125 0 
L 19.390625 60.984375 
L 19.390625 0 
L 9.8125 0 
z
" id="DejaVuSans-78"/>
      </defs>
      <use xlink:href="#DejaVuSans-65"/>
      <use x="60.658203" xlink:href="#DejaVuSans-84"/>
      <use x="119.992188" xlink:href="#DejaVuSans-84"/>
      <use x="181.076172" xlink:href="#DejaVuSans-73"/>
      <use x="210.568359" xlink:href="#DejaVuSans-76"/>
      <use x="268.53125" xlink:href="#DejaVuSans-65"/>
      <use x="336.939453" xlink:href="#DejaVuSans-32"/>
      <use x="368.726562" xlink:href="#DejaVuSans-72"/>
      <use x="443.921875" xlink:href="#DejaVuSans-73"/>
      <use x="473.414062" xlink:href="#DejaVuSans-76"/>
      <use x="529.126953" xlink:href="#DejaVuSans-68"/>
      <use x="606.128906" xlink:href="#DejaVuSans-77"/>
      <use x="692.408203" xlink:href="#DejaVuSans-65"/>
      <use x="760.816406" xlink:href="#DejaVuSans-78"/>
      <use x="835.621094" xlink:href="#DejaVuSans-78"/>
      <use x="910.425781" xlink:href="#DejaVuSans-32"/>
     </g>
    </g>
    <g id="line2d_41">
     <path d="M 153 105.536563 
L 173 105.536563 
" style="fill:none;stroke:#348abd;stroke-linecap:square;stroke-width:1.5;"/>
    </g>
    <g id="line2d_42"/>
    <g id="text_19">
     <!-- Oliver Janich oeffentlich -->
     <g transform="translate(181 109.036563)scale(0.1 -0.1)">
      <defs>
       <path d="M 39.40625 66.21875 
Q 28.65625 66.21875 22.328125 58.203125 
Q 16.015625 50.203125 16.015625 36.375 
Q 16.015625 22.609375 22.328125 14.59375 
Q 28.65625 6.59375 39.40625 6.59375 
Q 50.140625 6.59375 56.421875 14.59375 
Q 62.703125 22.609375 62.703125 36.375 
Q 62.703125 50.203125 56.421875 58.203125 
Q 50.140625 66.21875 39.40625 66.21875 
z
M 39.40625 74.21875 
Q 54.734375 74.21875 63.90625 63.9375 
Q 73.09375 53.65625 73.09375 36.375 
Q 73.09375 19.140625 63.90625 8.859375 
Q 54.734375 -1.421875 39.40625 -1.421875 
Q 24.03125 -1.421875 14.8125 8.828125 
Q 5.609375 19.09375 5.609375 36.375 
Q 5.609375 53.65625 14.8125 63.9375 
Q 24.03125 74.21875 39.40625 74.21875 
z
" id="DejaVuSans-79"/>
       <path d="M 9.421875 75.984375 
L 18.40625 75.984375 
L 18.40625 0 
L 9.421875 0 
z
" id="DejaVuSans-108"/>
       <path d="M 9.421875 54.6875 
L 18.40625 54.6875 
L 18.40625 0 
L 9.421875 0 
z
M 9.421875 75.984375 
L 18.40625 75.984375 
L 18.40625 64.59375 
L 9.421875 64.59375 
z
" id="DejaVuSans-105"/>
       <path d="M 2.984375 54.6875 
L 12.5 54.6875 
L 29.59375 8.796875 
L 46.6875 54.6875 
L 56.203125 54.6875 
L 35.6875 0 
L 23.484375 0 
z
" id="DejaVuSans-118"/>
       <path d="M 56.203125 29.59375 
L 56.203125 25.203125 
L 14.890625 25.203125 
Q 15.484375 15.921875 20.484375 11.0625 
Q 25.484375 6.203125 34.421875 6.203125 
Q 39.59375 6.203125 44.453125 7.46875 
Q 49.3125 8.734375 54.109375 11.28125 
L 54.109375 2.78125 
Q 49.265625 0.734375 44.1875 -0.34375 
Q 39.109375 -1.421875 33.890625 -1.421875 
Q 20.796875 -1.421875 13.15625 6.1875 
Q 5.515625 13.8125 5.515625 26.8125 
Q 5.515625 40.234375 12.765625 48.109375 
Q 20.015625 56 32.328125 56 
Q 43.359375 56 49.78125 48.890625 
Q 56.203125 41.796875 56.203125 29.59375 
z
M 47.21875 32.234375 
Q 47.125 39.59375 43.09375 43.984375 
Q 39.0625 48.390625 32.421875 48.390625 
Q 24.90625 48.390625 20.390625 44.140625 
Q 15.875 39.890625 15.1875 32.171875 
z
" id="DejaVuSans-101"/>
       <path d="M 41.109375 46.296875 
Q 39.59375 47.171875 37.8125 47.578125 
Q 36.03125 48 33.890625 48 
Q 26.265625 48 22.1875 43.046875 
Q 18.109375 38.09375 18.109375 28.8125 
L 18.109375 0 
L 9.078125 0 
L 9.078125 54.6875 
L 18.109375 54.6875 
L 18.109375 46.1875 
Q 20.953125 51.171875 25.484375 53.578125 
Q 30.03125 56 36.53125 56 
Q 37.453125 56 38.578125 55.875 
Q 39.703125 55.765625 41.0625 55.515625 
z
" id="DejaVuSans-114"/>
       <path d="M 9.8125 72.90625 
L 19.671875 72.90625 
L 19.671875 5.078125 
Q 19.671875 -8.109375 14.671875 -14.0625 
Q 9.671875 -20.015625 -1.421875 -20.015625 
L -5.171875 -20.015625 
L -5.171875 -11.71875 
L -2.09375 -11.71875 
Q 4.4375 -11.71875 7.125 -8.046875 
Q 9.8125 -4.390625 9.8125 5.078125 
z
" id="DejaVuSans-74"/>
       <path d="M 34.28125 27.484375 
Q 23.390625 27.484375 19.1875 25 
Q 14.984375 22.515625 14.984375 16.5 
Q 14.984375 11.71875 18.140625 8.90625 
Q 21.296875 6.109375 26.703125 6.109375 
Q 34.1875 6.109375 38.703125 11.40625 
Q 43.21875 16.703125 43.21875 25.484375 
L 43.21875 27.484375 
z
M 52.203125 31.203125 
L 52.203125 0 
L 43.21875 0 
L 43.21875 8.296875 
Q 40.140625 3.328125 35.546875 0.953125 
Q 30.953125 -1.421875 24.3125 -1.421875 
Q 15.921875 -1.421875 10.953125 3.296875 
Q 6 8.015625 6 15.921875 
Q 6 25.140625 12.171875 29.828125 
Q 18.359375 34.515625 30.609375 34.515625 
L 43.21875 34.515625 
L 43.21875 35.40625 
Q 43.21875 41.609375 39.140625 45 
Q 35.0625 48.390625 27.6875 48.390625 
Q 23 48.390625 18.546875 47.265625 
Q 14.109375 46.140625 10.015625 43.890625 
L 10.015625 52.203125 
Q 14.9375 54.109375 19.578125 55.046875 
Q 24.21875 56 28.609375 56 
Q 40.484375 56 46.34375 49.84375 
Q 52.203125 43.703125 52.203125 31.203125 
z
" id="DejaVuSans-97"/>
       <path d="M 54.890625 33.015625 
L 54.890625 0 
L 45.90625 0 
L 45.90625 32.71875 
Q 45.90625 40.484375 42.875 44.328125 
Q 39.84375 48.1875 33.796875 48.1875 
Q 26.515625 48.1875 22.3125 43.546875 
Q 18.109375 38.921875 18.109375 30.90625 
L 18.109375 0 
L 9.078125 0 
L 9.078125 54.6875 
L 18.109375 54.6875 
L 18.109375 46.1875 
Q 21.34375 51.125 25.703125 53.5625 
Q 30.078125 56 35.796875 56 
Q 45.21875 56 50.046875 50.171875 
Q 54.890625 44.34375 54.890625 33.015625 
z
" id="DejaVuSans-110"/>
       <path d="M 48.78125 52.59375 
L 48.78125 44.1875 
Q 44.96875 46.296875 41.140625 47.34375 
Q 37.3125 48.390625 33.40625 48.390625 
Q 24.65625 48.390625 19.8125 42.84375 
Q 14.984375 37.3125 14.984375 27.296875 
Q 14.984375 17.28125 19.8125 11.734375 
Q 24.65625 6.203125 33.40625 6.203125 
Q 37.3125 6.203125 41.140625 7.25 
Q 44.96875 8.296875 48.78125 10.40625 
L 48.78125 2.09375 
Q 45.015625 0.34375 40.984375 -0.53125 
Q 36.96875 -1.421875 32.421875 -1.421875 
Q 20.0625 -1.421875 12.78125 6.34375 
Q 5.515625 14.109375 5.515625 27.296875 
Q 5.515625 40.671875 12.859375 48.328125 
Q 20.21875 56 33.015625 56 
Q 37.15625 56 41.109375 55.140625 
Q 45.0625 54.296875 48.78125 52.59375 
z
" id="DejaVuSans-99"/>
       <path d="M 54.890625 33.015625 
L 54.890625 0 
L 45.90625 0 
L 45.90625 32.71875 
Q 45.90625 40.484375 42.875 44.328125 
Q 39.84375 48.1875 33.796875 48.1875 
Q 26.515625 48.1875 22.3125 43.546875 
Q 18.109375 38.921875 18.109375 30.90625 
L 18.109375 0 
L 9.078125 0 
L 9.078125 75.984375 
L 18.109375 75.984375 
L 18.109375 46.1875 
Q 21.34375 51.125 25.703125 53.5625 
Q 30.078125 56 35.796875 56 
Q 45.21875 56 50.046875 50.171875 
Q 54.890625 44.34375 54.890625 33.015625 
z
" id="DejaVuSans-104"/>
       <path d="M 30.609375 48.390625 
Q 23.390625 48.390625 19.1875 42.75 
Q 14.984375 37.109375 14.984375 27.296875 
Q 14.984375 17.484375 19.15625 11.84375 
Q 23.34375 6.203125 30.609375 6.203125 
Q 37.796875 6.203125 41.984375 11.859375 
Q 46.1875 17.53125 46.1875 27.296875 
Q 46.1875 37.015625 41.984375 42.703125 
Q 37.796875 48.390625 30.609375 48.390625 
z
M 30.609375 56 
Q 42.328125 56 49.015625 48.375 
Q 55.71875 40.765625 55.71875 27.296875 
Q 55.71875 13.875 49.015625 6.21875 
Q 42.328125 -1.421875 30.609375 -1.421875 
Q 18.84375 -1.421875 12.171875 6.21875 
Q 5.515625 13.875 5.515625 27.296875 
Q 5.515625 40.765625 12.171875 48.375 
Q 18.84375 56 30.609375 56 
z
" id="DejaVuSans-111"/>
       <path d="M 37.109375 75.984375 
L 37.109375 68.5 
L 28.515625 68.5 
Q 23.6875 68.5 21.796875 66.546875 
Q 19.921875 64.59375 19.921875 59.515625 
L 19.921875 54.6875 
L 34.71875 54.6875 
L 34.71875 47.703125 
L 19.921875 47.703125 
L 19.921875 0 
L 10.890625 0 
L 10.890625 47.703125 
L 2.296875 47.703125 
L 2.296875 54.6875 
L 10.890625 54.6875 
L 10.890625 58.5 
Q 10.890625 67.625 15.140625 71.796875 
Q 19.390625 75.984375 28.609375 75.984375 
z
" id="DejaVuSans-102"/>
       <path d="M 18.3125 70.21875 
L 18.3125 54.6875 
L 36.8125 54.6875 
L 36.8125 47.703125 
L 18.3125 47.703125 
L 18.3125 18.015625 
Q 18.3125 11.328125 20.140625 9.421875 
Q 21.96875 7.515625 27.59375 7.515625 
L 36.8125 7.515625 
L 36.8125 0 
L 27.59375 0 
Q 17.1875 0 13.234375 3.875 
Q 9.28125 7.765625 9.28125 18.015625 
L 9.28125 47.703125 
L 2.6875 47.703125 
L 2.6875 54.6875 
L 9.28125 54.6875 
L 9.28125 70.21875 
z
" id="DejaVuSans-116"/>
      </defs>
      <use xlink:href="#DejaVuSans-79"/>
      <use x="78.710938" xlink:href="#DejaVuSans-108"/>
      <use x="106.494141" xlink:href="#DejaVuSans-105"/>
      <use x="134.277344" xlink:href="#DejaVuSans-118"/>
      <use x="193.457031" xlink:href="#DejaVuSans-101"/>
      <use x="254.980469" xlink:href="#DejaVuSans-114"/>
      <use x="296.09375" xlink:href="#DejaVuSans-32"/>
      <use x="327.880859" xlink:href="#DejaVuSans-74"/>
      <use x="357.373047" xlink:href="#DejaVuSans-97"/>
      <use x="418.652344" xlink:href="#DejaVuSans-110"/>
      <use x="482.03125" xlink:href="#DejaVuSans-105"/>
      <use x="509.814453" xlink:href="#DejaVuSans-99"/>
      <use x="564.794922" xlink:href="#DejaVuSans-104"/>
      <use x="628.173828" xlink:href="#DejaVuSans-32"/>
      <use x="659.960938" xlink:href="#DejaVuSans-111"/>
      <use x="721.142578" xlink:href="#DejaVuSans-101"/>
      <use x="782.666016" xlink:href="#DejaVuSans-102"/>
      <use x="817.871094" xlink:href="#DejaVuSans-102"/>
      <use x="853.076172" xlink:href="#DejaVuSans-101"/>
      <use x="914.599609" xlink:href="#DejaVuSans-110"/>
      <use x="977.978516" xlink:href="#DejaVuSans-116"/>
      <use x="1017.1875" xlink:href="#DejaVuSans-108"/>
      <use x="1044.970703" xlink:href="#DejaVuSans-105"/>
      <use x="1072.753906" xlink:href="#DejaVuSans-99"/>
      <use x="1127.734375" xlink:href="#DejaVuSans-104"/>
     </g>
    </g>
    <g id="line2d_43">
     <path d="M 153 120.214688 
L 173 120.214688 
" style="fill:none;stroke:#988ed5;stroke-linecap:square;stroke-width:1.5;"/>
    </g>
    <g id="line2d_44"/>
    <g id="text_20">
     <!-- Eva Herman Offiziell -->
     <g transform="translate(181 123.714688)scale(0.1 -0.1)">
      <defs>
       <path d="M 9.8125 72.90625 
L 55.90625 72.90625 
L 55.90625 64.59375 
L 19.671875 64.59375 
L 19.671875 43.015625 
L 54.390625 43.015625 
L 54.390625 34.71875 
L 19.671875 34.71875 
L 19.671875 8.296875 
L 56.78125 8.296875 
L 56.78125 0 
L 9.8125 0 
z
" id="DejaVuSans-69"/>
       <path d="M 52 44.1875 
Q 55.375 50.25 60.0625 53.125 
Q 64.75 56 71.09375 56 
Q 79.640625 56 84.28125 50.015625 
Q 88.921875 44.046875 88.921875 33.015625 
L 88.921875 0 
L 79.890625 0 
L 79.890625 32.71875 
Q 79.890625 40.578125 77.09375 44.375 
Q 74.3125 48.1875 68.609375 48.1875 
Q 61.625 48.1875 57.5625 43.546875 
Q 53.515625 38.921875 53.515625 30.90625 
L 53.515625 0 
L 44.484375 0 
L 44.484375 32.71875 
Q 44.484375 40.625 41.703125 44.40625 
Q 38.921875 48.1875 33.109375 48.1875 
Q 26.21875 48.1875 22.15625 43.53125 
Q 18.109375 38.875 18.109375 30.90625 
L 18.109375 0 
L 9.078125 0 
L 9.078125 54.6875 
L 18.109375 54.6875 
L 18.109375 46.1875 
Q 21.1875 51.21875 25.484375 53.609375 
Q 29.78125 56 35.6875 56 
Q 41.65625 56 45.828125 52.96875 
Q 50 49.953125 52 44.1875 
z
" id="DejaVuSans-109"/>
       <path d="M 5.515625 54.6875 
L 48.1875 54.6875 
L 48.1875 46.484375 
L 14.40625 7.171875 
L 48.1875 7.171875 
L 48.1875 0 
L 4.296875 0 
L 4.296875 8.203125 
L 38.09375 47.515625 
L 5.515625 47.515625 
z
" id="DejaVuSans-122"/>
      </defs>
      <use xlink:href="#DejaVuSans-69"/>
      <use x="63.183594" xlink:href="#DejaVuSans-118"/>
      <use x="122.363281" xlink:href="#DejaVuSans-97"/>
      <use x="183.642578" xlink:href="#DejaVuSans-32"/>
      <use x="215.429688" xlink:href="#DejaVuSans-72"/>
      <use x="290.625" xlink:href="#DejaVuSans-101"/>
      <use x="352.148438" xlink:href="#DejaVuSans-114"/>
      <use x="391.511719" xlink:href="#DejaVuSans-109"/>
      <use x="488.923828" xlink:href="#DejaVuSans-97"/>
      <use x="550.203125" xlink:href="#DejaVuSans-110"/>
      <use x="613.582031" xlink:href="#DejaVuSans-32"/>
      <use x="645.369141" xlink:href="#DejaVuSans-79"/>
      <use x="724.080078" xlink:href="#DejaVuSans-102"/>
      <use x="759.285156" xlink:href="#DejaVuSans-102"/>
      <use x="794.490234" xlink:href="#DejaVuSans-105"/>
      <use x="822.273438" xlink:href="#DejaVuSans-122"/>
      <use x="874.763672" xlink:href="#DejaVuSans-105"/>
      <use x="902.546875" xlink:href="#DejaVuSans-101"/>
      <use x="964.070312" xlink:href="#DejaVuSans-108"/>
      <use x="991.853516" xlink:href="#DejaVuSans-108"/>
     </g>
    </g>
    <g id="line2d_45">
     <path d="M 153 134.892813 
L 173 134.892813 
" style="fill:none;stroke:#777777;stroke-linecap:square;stroke-width:1.5;"/>
    </g>
    <g id="line2d_46"/>
    <g id="text_21">
     <!-- Xavier Naidoo inoffiziell -->
     <g transform="translate(181 138.392813)scale(0.1 -0.1)">
      <defs>
       <path d="M 6.296875 72.90625 
L 16.890625 72.90625 
L 35.015625 45.796875 
L 53.21875 72.90625 
L 63.8125 72.90625 
L 40.375 37.890625 
L 65.375 0 
L 54.78125 0 
L 34.28125 31 
L 13.625 0 
L 2.984375 0 
L 29 38.921875 
z
" id="DejaVuSans-88"/>
       <path d="M 45.40625 46.390625 
L 45.40625 75.984375 
L 54.390625 75.984375 
L 54.390625 0 
L 45.40625 0 
L 45.40625 8.203125 
Q 42.578125 3.328125 38.25 0.953125 
Q 33.9375 -1.421875 27.875 -1.421875 
Q 17.96875 -1.421875 11.734375 6.484375 
Q 5.515625 14.40625 5.515625 27.296875 
Q 5.515625 40.1875 11.734375 48.09375 
Q 17.96875 56 27.875 56 
Q 33.9375 56 38.25 53.625 
Q 42.578125 51.265625 45.40625 46.390625 
z
M 14.796875 27.296875 
Q 14.796875 17.390625 18.875 11.75 
Q 22.953125 6.109375 30.078125 6.109375 
Q 37.203125 6.109375 41.296875 11.75 
Q 45.40625 17.390625 45.40625 27.296875 
Q 45.40625 37.203125 41.296875 42.84375 
Q 37.203125 48.484375 30.078125 48.484375 
Q 22.953125 48.484375 18.875 42.84375 
Q 14.796875 37.203125 14.796875 27.296875 
z
" id="DejaVuSans-100"/>
      </defs>
      <use xlink:href="#DejaVuSans-88"/>
      <use x="68.505859" xlink:href="#DejaVuSans-97"/>
      <use x="129.785156" xlink:href="#DejaVuSans-118"/>
      <use x="188.964844" xlink:href="#DejaVuSans-105"/>
      <use x="216.748047" xlink:href="#DejaVuSans-101"/>
      <use x="278.271484" xlink:href="#DejaVuSans-114"/>
      <use x="319.384766" xlink:href="#DejaVuSans-32"/>
      <use x="351.171875" xlink:href="#DejaVuSans-78"/>
      <use x="425.976562" xlink:href="#DejaVuSans-97"/>
      <use x="487.255859" xlink:href="#DejaVuSans-105"/>
      <use x="515.039062" xlink:href="#DejaVuSans-100"/>
      <use x="578.515625" xlink:href="#DejaVuSans-111"/>
      <use x="639.697266" xlink:href="#DejaVuSans-111"/>
      <use x="700.878906" xlink:href="#DejaVuSans-32"/>
      <use x="732.666016" xlink:href="#DejaVuSans-105"/>
      <use x="760.449219" xlink:href="#DejaVuSans-110"/>
      <use x="823.828125" xlink:href="#DejaVuSans-111"/>
      <use x="885.009766" xlink:href="#DejaVuSans-102"/>
      <use x="920.214844" xlink:href="#DejaVuSans-102"/>
      <use x="955.419922" xlink:href="#DejaVuSans-105"/>
      <use x="983.203125" xlink:href="#DejaVuSans-122"/>
      <use x="1035.693359" xlink:href="#DejaVuSans-105"/>
      <use x="1063.476562" xlink:href="#DejaVuSans-101"/>
      <use x="1125" xlink:href="#DejaVuSans-108"/>
      <use x="1152.783203" xlink:href="#DejaVuSans-108"/>
     </g>
    </g>
    <g id="line2d_47">
     <path d="M 153 149.570938 
L 173 149.570938 
" style="fill:none;stroke:#ffa500;stroke-dasharray:5.55,2.4;stroke-dashoffset:0;stroke-width:1.5;"/>
    </g>
    <g id="text_22">
     <!-- Global Compact for Migration (2018-12-10) -->
     <g transform="translate(181 153.070938)scale(0.1 -0.1)">
      <defs>
       <path d="M 59.515625 10.40625 
L 59.515625 29.984375 
L 43.40625 29.984375 
L 43.40625 38.09375 
L 69.28125 38.09375 
L 69.28125 6.78125 
Q 63.578125 2.734375 56.6875 0.65625 
Q 49.8125 -1.421875 42 -1.421875 
Q 24.90625 -1.421875 15.25 8.5625 
Q 5.609375 18.5625 5.609375 36.375 
Q 5.609375 54.25 15.25 64.234375 
Q 24.90625 74.21875 42 74.21875 
Q 49.125 74.21875 55.546875 72.453125 
Q 61.96875 70.703125 67.390625 67.28125 
L 67.390625 56.78125 
Q 61.921875 61.421875 55.765625 63.765625 
Q 49.609375 66.109375 42.828125 66.109375 
Q 29.4375 66.109375 22.71875 58.640625 
Q 16.015625 51.171875 16.015625 36.375 
Q 16.015625 21.625 22.71875 14.15625 
Q 29.4375 6.6875 42.828125 6.6875 
Q 48.046875 6.6875 52.140625 7.59375 
Q 56.25 8.5 59.515625 10.40625 
z
" id="DejaVuSans-71"/>
       <path d="M 48.6875 27.296875 
Q 48.6875 37.203125 44.609375 42.84375 
Q 40.53125 48.484375 33.40625 48.484375 
Q 26.265625 48.484375 22.1875 42.84375 
Q 18.109375 37.203125 18.109375 27.296875 
Q 18.109375 17.390625 22.1875 11.75 
Q 26.265625 6.109375 33.40625 6.109375 
Q 40.53125 6.109375 44.609375 11.75 
Q 48.6875 17.390625 48.6875 27.296875 
z
M 18.109375 46.390625 
Q 20.953125 51.265625 25.265625 53.625 
Q 29.59375 56 35.59375 56 
Q 45.5625 56 51.78125 48.09375 
Q 58.015625 40.1875 58.015625 27.296875 
Q 58.015625 14.40625 51.78125 6.484375 
Q 45.5625 -1.421875 35.59375 -1.421875 
Q 29.59375 -1.421875 25.265625 0.953125 
Q 20.953125 3.328125 18.109375 8.203125 
L 18.109375 0 
L 9.078125 0 
L 9.078125 75.984375 
L 18.109375 75.984375 
z
" id="DejaVuSans-98"/>
       <path d="M 64.40625 67.28125 
L 64.40625 56.890625 
Q 59.421875 61.53125 53.78125 63.8125 
Q 48.140625 66.109375 41.796875 66.109375 
Q 29.296875 66.109375 22.65625 58.46875 
Q 16.015625 50.828125 16.015625 36.375 
Q 16.015625 21.96875 22.65625 14.328125 
Q 29.296875 6.6875 41.796875 6.6875 
Q 48.140625 6.6875 53.78125 8.984375 
Q 59.421875 11.28125 64.40625 15.921875 
L 64.40625 5.609375 
Q 59.234375 2.09375 53.4375 0.328125 
Q 47.65625 -1.421875 41.21875 -1.421875 
Q 24.65625 -1.421875 15.125 8.703125 
Q 5.609375 18.84375 5.609375 36.375 
Q 5.609375 53.953125 15.125 64.078125 
Q 24.65625 74.21875 41.21875 74.21875 
Q 47.75 74.21875 53.53125 72.484375 
Q 59.328125 70.75 64.40625 67.28125 
z
" id="DejaVuSans-67"/>
       <path d="M 18.109375 8.203125 
L 18.109375 -20.796875 
L 9.078125 -20.796875 
L 9.078125 54.6875 
L 18.109375 54.6875 
L 18.109375 46.390625 
Q 20.953125 51.265625 25.265625 53.625 
Q 29.59375 56 35.59375 56 
Q 45.5625 56 51.78125 48.09375 
Q 58.015625 40.1875 58.015625 27.296875 
Q 58.015625 14.40625 51.78125 6.484375 
Q 45.5625 -1.421875 35.59375 -1.421875 
Q 29.59375 -1.421875 25.265625 0.953125 
Q 20.953125 3.328125 18.109375 8.203125 
z
M 48.6875 27.296875 
Q 48.6875 37.203125 44.609375 42.84375 
Q 40.53125 48.484375 33.40625 48.484375 
Q 26.265625 48.484375 22.1875 42.84375 
Q 18.109375 37.203125 18.109375 27.296875 
Q 18.109375 17.390625 22.1875 11.75 
Q 26.265625 6.109375 33.40625 6.109375 
Q 40.53125 6.109375 44.609375 11.75 
Q 48.6875 17.390625 48.6875 27.296875 
z
" id="DejaVuSans-112"/>
       <path d="M 45.40625 27.984375 
Q 45.40625 37.75 41.375 43.109375 
Q 37.359375 48.484375 30.078125 48.484375 
Q 22.859375 48.484375 18.828125 43.109375 
Q 14.796875 37.75 14.796875 27.984375 
Q 14.796875 18.265625 18.828125 12.890625 
Q 22.859375 7.515625 30.078125 7.515625 
Q 37.359375 7.515625 41.375 12.890625 
Q 45.40625 18.265625 45.40625 27.984375 
z
M 54.390625 6.78125 
Q 54.390625 -7.171875 48.1875 -13.984375 
Q 42 -20.796875 29.203125 -20.796875 
Q 24.46875 -20.796875 20.265625 -20.09375 
Q 16.0625 -19.390625 12.109375 -17.921875 
L 12.109375 -9.1875 
Q 16.0625 -11.328125 19.921875 -12.34375 
Q 23.78125 -13.375 27.78125 -13.375 
Q 36.625 -13.375 41.015625 -8.765625 
Q 45.40625 -4.15625 45.40625 5.171875 
L 45.40625 9.625 
Q 42.625 4.78125 38.28125 2.390625 
Q 33.9375 0 27.875 0 
Q 17.828125 0 11.671875 7.65625 
Q 5.515625 15.328125 5.515625 27.984375 
Q 5.515625 40.671875 11.671875 48.328125 
Q 17.828125 56 27.875 56 
Q 33.9375 56 38.28125 53.609375 
Q 42.625 51.21875 45.40625 46.390625 
L 45.40625 54.6875 
L 54.390625 54.6875 
z
" id="DejaVuSans-103"/>
       <path d="M 31 75.875 
Q 24.46875 64.65625 21.28125 53.65625 
Q 18.109375 42.671875 18.109375 31.390625 
Q 18.109375 20.125 21.3125 9.0625 
Q 24.515625 -2 31 -13.1875 
L 23.1875 -13.1875 
Q 15.875 -1.703125 12.234375 9.375 
Q 8.59375 20.453125 8.59375 31.390625 
Q 8.59375 42.28125 12.203125 53.3125 
Q 15.828125 64.359375 23.1875 75.875 
z
" id="DejaVuSans-40"/>
       <path d="M 8.015625 75.875 
L 15.828125 75.875 
Q 23.140625 64.359375 26.78125 53.3125 
Q 30.421875 42.28125 30.421875 31.390625 
Q 30.421875 20.453125 26.78125 9.375 
Q 23.140625 -1.703125 15.828125 -13.1875 
L 8.015625 -13.1875 
Q 14.5 -2 17.703125 9.0625 
Q 20.90625 20.125 20.90625 31.390625 
Q 20.90625 42.671875 17.703125 53.65625 
Q 14.5 64.65625 8.015625 75.875 
z
" id="DejaVuSans-41"/>
      </defs>
      <use xlink:href="#DejaVuSans-71"/>
      <use x="77.490234" xlink:href="#DejaVuSans-108"/>
      <use x="105.273438" xlink:href="#DejaVuSans-111"/>
      <use x="166.455078" xlink:href="#DejaVuSans-98"/>
      <use x="229.931641" xlink:href="#DejaVuSans-97"/>
      <use x="291.210938" xlink:href="#DejaVuSans-108"/>
      <use x="318.994141" xlink:href="#DejaVuSans-32"/>
      <use x="350.78125" xlink:href="#DejaVuSans-67"/>
      <use x="420.605469" xlink:href="#DejaVuSans-111"/>
      <use x="481.787109" xlink:href="#DejaVuSans-109"/>
      <use x="579.199219" xlink:href="#DejaVuSans-112"/>
      <use x="642.675781" xlink:href="#DejaVuSans-97"/>
      <use x="703.955078" xlink:href="#DejaVuSans-99"/>
      <use x="758.935547" xlink:href="#DejaVuSans-116"/>
      <use x="798.144531" xlink:href="#DejaVuSans-32"/>
      <use x="829.931641" xlink:href="#DejaVuSans-102"/>
      <use x="865.136719" xlink:href="#DejaVuSans-111"/>
      <use x="926.318359" xlink:href="#DejaVuSans-114"/>
      <use x="967.431641" xlink:href="#DejaVuSans-32"/>
      <use x="999.21875" xlink:href="#DejaVuSans-77"/>
      <use x="1085.498047" xlink:href="#DejaVuSans-105"/>
      <use x="1113.28125" xlink:href="#DejaVuSans-103"/>
      <use x="1176.757812" xlink:href="#DejaVuSans-114"/>
      <use x="1217.871094" xlink:href="#DejaVuSans-97"/>
      <use x="1279.150391" xlink:href="#DejaVuSans-116"/>
      <use x="1318.359375" xlink:href="#DejaVuSans-105"/>
      <use x="1346.142578" xlink:href="#DejaVuSans-111"/>
      <use x="1407.324219" xlink:href="#DejaVuSans-110"/>
      <use x="1470.703125" xlink:href="#DejaVuSans-32"/>
      <use x="1502.490234" xlink:href="#DejaVuSans-40"/>
      <use x="1541.503906" xlink:href="#DejaVuSans-50"/>
      <use x="1605.126953" xlink:href="#DejaVuSans-48"/>
      <use x="1668.75" xlink:href="#DejaVuSans-49"/>
      <use x="1732.373047" xlink:href="#DejaVuSans-56"/>
      <use x="1795.996094" xlink:href="#DejaVuSans-45"/>
      <use x="1832.080078" xlink:href="#DejaVuSans-49"/>
      <use x="1895.703125" xlink:href="#DejaVuSans-50"/>
      <use x="1959.326172" xlink:href="#DejaVuSans-45"/>
      <use x="1995.410156" xlink:href="#DejaVuSans-49"/>
      <use x="2059.033203" xlink:href="#DejaVuSans-48"/>
      <use x="2122.65625" xlink:href="#DejaVuSans-41"/>
     </g>
    </g>
    <g id="line2d_48">
     <path d="M 153 164.249063 
L 173 164.249063 
" style="fill:none;stroke:#808080;stroke-dasharray:5.55,2.4;stroke-dashoffset:0;stroke-width:1.5;"/>
    </g>
    <g id="text_23">
     <!-- Corona Patient Zero Germany -->
     <g transform="translate(181 167.749063)scale(0.1 -0.1)">
      <defs>
       <path d="M 19.671875 64.796875 
L 19.671875 37.40625 
L 32.078125 37.40625 
Q 38.96875 37.40625 42.71875 40.96875 
Q 46.484375 44.53125 46.484375 51.125 
Q 46.484375 57.671875 42.71875 61.234375 
Q 38.96875 64.796875 32.078125 64.796875 
z
M 9.8125 72.90625 
L 32.078125 72.90625 
Q 44.34375 72.90625 50.609375 67.359375 
Q 56.890625 61.8125 56.890625 51.125 
Q 56.890625 40.328125 50.609375 34.8125 
Q 44.34375 29.296875 32.078125 29.296875 
L 19.671875 29.296875 
L 19.671875 0 
L 9.8125 0 
z
" id="DejaVuSans-80"/>
       <path d="M 5.609375 72.90625 
L 62.890625 72.90625 
L 62.890625 65.375 
L 16.796875 8.296875 
L 64.015625 8.296875 
L 64.015625 0 
L 4.5 0 
L 4.5 7.515625 
L 50.59375 64.59375 
L 5.609375 64.59375 
z
" id="DejaVuSans-90"/>
       <path d="M 32.171875 -5.078125 
Q 28.375 -14.84375 24.75 -17.8125 
Q 21.140625 -20.796875 15.09375 -20.796875 
L 7.90625 -20.796875 
L 7.90625 -13.28125 
L 13.1875 -13.28125 
Q 16.890625 -13.28125 18.9375 -11.515625 
Q 21 -9.765625 23.484375 -3.21875 
L 25.09375 0.875 
L 2.984375 54.6875 
L 12.5 54.6875 
L 29.59375 11.921875 
L 46.6875 54.6875 
L 56.203125 54.6875 
z
" id="DejaVuSans-121"/>
      </defs>
      <use xlink:href="#DejaVuSans-67"/>
      <use x="69.824219" xlink:href="#DejaVuSans-111"/>
      <use x="131.005859" xlink:href="#DejaVuSans-114"/>
      <use x="169.869141" xlink:href="#DejaVuSans-111"/>
      <use x="231.050781" xlink:href="#DejaVuSans-110"/>
      <use x="294.429688" xlink:href="#DejaVuSans-97"/>
      <use x="355.708984" xlink:href="#DejaVuSans-32"/>
      <use x="387.496094" xlink:href="#DejaVuSans-80"/>
      <use x="443.298828" xlink:href="#DejaVuSans-97"/>
      <use x="504.578125" xlink:href="#DejaVuSans-116"/>
      <use x="543.787109" xlink:href="#DejaVuSans-105"/>
      <use x="571.570312" xlink:href="#DejaVuSans-101"/>
      <use x="633.09375" xlink:href="#DejaVuSans-110"/>
      <use x="696.472656" xlink:href="#DejaVuSans-116"/>
      <use x="735.681641" xlink:href="#DejaVuSans-32"/>
      <use x="767.46875" xlink:href="#DejaVuSans-90"/>
      <use x="835.974609" xlink:href="#DejaVuSans-101"/>
      <use x="897.498047" xlink:href="#DejaVuSans-114"/>
      <use x="936.361328" xlink:href="#DejaVuSans-111"/>
      <use x="997.542969" xlink:href="#DejaVuSans-32"/>
      <use x="1029.330078" xlink:href="#DejaVuSans-71"/>
      <use x="1106.820312" xlink:href="#DejaVuSans-101"/>
      <use x="1168.34375" xlink:href="#DejaVuSans-114"/>
      <use x="1207.707031" xlink:href="#DejaVuSans-109"/>
      <use x="1305.119141" xlink:href="#DejaVuSans-97"/>
      <use x="1366.398438" xlink:href="#DejaVuSans-110"/>
      <use x="1429.777344" xlink:href="#DejaVuSans-121"/>
     </g>
    </g>
    <g id="line2d_49">
     <path d="M 153 178.927188 
L 173 178.927188 
" style="fill:none;stroke:#800080;stroke-dasharray:5.55,2.4;stroke-dashoffset:0;stroke-width:1.5;"/>
    </g>
    <g id="text_24">
     <!-- 1. Lockdown Germany (2020-03-23) -->
     <g transform="translate(181 182.427188)scale(0.1 -0.1)">
      <defs>
       <path d="M 10.6875 12.40625 
L 21 12.40625 
L 21 0 
L 10.6875 0 
z
" id="DejaVuSans-46"/>
       <path d="M 9.078125 75.984375 
L 18.109375 75.984375 
L 18.109375 31.109375 
L 44.921875 54.6875 
L 56.390625 54.6875 
L 27.390625 29.109375 
L 57.625 0 
L 45.90625 0 
L 18.109375 26.703125 
L 18.109375 0 
L 9.078125 0 
z
" id="DejaVuSans-107"/>
       <path d="M 4.203125 54.6875 
L 13.1875 54.6875 
L 24.421875 12.015625 
L 35.59375 54.6875 
L 46.1875 54.6875 
L 57.421875 12.015625 
L 68.609375 54.6875 
L 77.59375 54.6875 
L 63.28125 0 
L 52.6875 0 
L 40.921875 44.828125 
L 29.109375 0 
L 18.5 0 
z
" id="DejaVuSans-119"/>
      </defs>
      <use xlink:href="#DejaVuSans-49"/>
      <use x="63.623047" xlink:href="#DejaVuSans-46"/>
      <use x="95.410156" xlink:href="#DejaVuSans-32"/>
      <use x="127.197266" xlink:href="#DejaVuSans-76"/>
      <use x="181.160156" xlink:href="#DejaVuSans-111"/>
      <use x="242.341797" xlink:href="#DejaVuSans-99"/>
      <use x="297.322266" xlink:href="#DejaVuSans-107"/>
      <use x="355.232422" xlink:href="#DejaVuSans-100"/>
      <use x="418.708984" xlink:href="#DejaVuSans-111"/>
      <use x="479.890625" xlink:href="#DejaVuSans-119"/>
      <use x="561.677734" xlink:href="#DejaVuSans-110"/>
      <use x="625.056641" xlink:href="#DejaVuSans-32"/>
      <use x="656.84375" xlink:href="#DejaVuSans-71"/>
      <use x="734.333984" xlink:href="#DejaVuSans-101"/>
      <use x="795.857422" xlink:href="#DejaVuSans-114"/>
      <use x="835.220703" xlink:href="#DejaVuSans-109"/>
      <use x="932.632812" xlink:href="#DejaVuSans-97"/>
      <use x="993.912109" xlink:href="#DejaVuSans-110"/>
      <use x="1057.291016" xlink:href="#DejaVuSans-121"/>
      <use x="1116.470703" xlink:href="#DejaVuSans-32"/>
      <use x="1148.257812" xlink:href="#DejaVuSans-40"/>
      <use x="1187.271484" xlink:href="#DejaVuSans-50"/>
      <use x="1250.894531" xlink:href="#DejaVuSans-48"/>
      <use x="1314.517578" xlink:href="#DejaVuSans-50"/>
      <use x="1378.140625" xlink:href="#DejaVuSans-48"/>
      <use x="1441.763672" xlink:href="#DejaVuSans-45"/>
      <use x="1477.847656" xlink:href="#DejaVuSans-48"/>
      <use x="1541.470703" xlink:href="#DejaVuSans-51"/>
      <use x="1605.09375" xlink:href="#DejaVuSans-45"/>
      <use x="1641.177734" xlink:href="#DejaVuSans-50"/>
      <use x="1704.800781" xlink:href="#DejaVuSans-51"/>
      <use x="1768.423828" xlink:href="#DejaVuSans-41"/>
     </g>
    </g>
    <g id="line2d_50">
     <path d="M 153 193.605313 
L 173 193.605313 
" style="fill:none;stroke:#800080;stroke-dasharray:5.55,2.4;stroke-dashoffset:0;stroke-width:1.5;"/>
    </g>
    <g id="text_25">
     <!-- 2. Lockdown light Germany (2020-11-02) -->
     <g transform="translate(181 197.105313)scale(0.1 -0.1)">
      <use xlink:href="#DejaVuSans-50"/>
      <use x="63.623047" xlink:href="#DejaVuSans-46"/>
      <use x="95.410156" xlink:href="#DejaVuSans-32"/>
      <use x="127.197266" xlink:href="#DejaVuSans-76"/>
      <use x="181.160156" xlink:href="#DejaVuSans-111"/>
      <use x="242.341797" xlink:href="#DejaVuSans-99"/>
      <use x="297.322266" xlink:href="#DejaVuSans-107"/>
      <use x="355.232422" xlink:href="#DejaVuSans-100"/>
      <use x="418.708984" xlink:href="#DejaVuSans-111"/>
      <use x="479.890625" xlink:href="#DejaVuSans-119"/>
      <use x="561.677734" xlink:href="#DejaVuSans-110"/>
      <use x="625.056641" xlink:href="#DejaVuSans-32"/>
      <use x="656.84375" xlink:href="#DejaVuSans-108"/>
      <use x="684.626953" xlink:href="#DejaVuSans-105"/>
      <use x="712.410156" xlink:href="#DejaVuSans-103"/>
      <use x="775.886719" xlink:href="#DejaVuSans-104"/>
      <use x="839.265625" xlink:href="#DejaVuSans-116"/>
      <use x="878.474609" xlink:href="#DejaVuSans-32"/>
      <use x="910.261719" xlink:href="#DejaVuSans-71"/>
      <use x="987.751953" xlink:href="#DejaVuSans-101"/>
      <use x="1049.275391" xlink:href="#DejaVuSans-114"/>
      <use x="1088.638672" xlink:href="#DejaVuSans-109"/>
      <use x="1186.050781" xlink:href="#DejaVuSans-97"/>
      <use x="1247.330078" xlink:href="#DejaVuSans-110"/>
      <use x="1310.708984" xlink:href="#DejaVuSans-121"/>
      <use x="1369.888672" xlink:href="#DejaVuSans-32"/>
      <use x="1401.675781" xlink:href="#DejaVuSans-40"/>
      <use x="1440.689453" xlink:href="#DejaVuSans-50"/>
      <use x="1504.3125" xlink:href="#DejaVuSans-48"/>
      <use x="1567.935547" xlink:href="#DejaVuSans-50"/>
      <use x="1631.558594" xlink:href="#DejaVuSans-48"/>
      <use x="1695.181641" xlink:href="#DejaVuSans-45"/>
      <use x="1731.265625" xlink:href="#DejaVuSans-49"/>
      <use x="1794.888672" xlink:href="#DejaVuSans-49"/>
      <use x="1858.511719" xlink:href="#DejaVuSans-45"/>
      <use x="1894.595703" xlink:href="#DejaVuSans-48"/>
      <use x="1958.21875" xlink:href="#DejaVuSans-50"/>
      <use x="2021.841797" xlink:href="#DejaVuSans-41"/>
     </g>
    </g>
    <g id="line2d_51">
     <path d="M 153 208.283437 
L 173 208.283437 
" style="fill:none;stroke:#800080;stroke-dasharray:5.55,2.4;stroke-dashoffset:0;stroke-width:1.5;"/>
    </g>
    <g id="text_26">
     <!-- 3. Lockdown Germany (2020-12-16) -->
     <g transform="translate(181 211.783437)scale(0.1 -0.1)">
      <defs>
       <path d="M 33.015625 40.375 
Q 26.375 40.375 22.484375 35.828125 
Q 18.609375 31.296875 18.609375 23.390625 
Q 18.609375 15.53125 22.484375 10.953125 
Q 26.375 6.390625 33.015625 6.390625 
Q 39.65625 6.390625 43.53125 10.953125 
Q 47.40625 15.53125 47.40625 23.390625 
Q 47.40625 31.296875 43.53125 35.828125 
Q 39.65625 40.375 33.015625 40.375 
z
M 52.59375 71.296875 
L 52.59375 62.3125 
Q 48.875 64.0625 45.09375 64.984375 
Q 41.3125 65.921875 37.59375 65.921875 
Q 27.828125 65.921875 22.671875 59.328125 
Q 17.53125 52.734375 16.796875 39.40625 
Q 19.671875 43.65625 24.015625 45.921875 
Q 28.375 48.1875 33.59375 48.1875 
Q 44.578125 48.1875 50.953125 41.515625 
Q 57.328125 34.859375 57.328125 23.390625 
Q 57.328125 12.15625 50.6875 5.359375 
Q 44.046875 -1.421875 33.015625 -1.421875 
Q 20.359375 -1.421875 13.671875 8.265625 
Q 6.984375 17.96875 6.984375 36.375 
Q 6.984375 53.65625 15.1875 63.9375 
Q 23.390625 74.21875 37.203125 74.21875 
Q 40.921875 74.21875 44.703125 73.484375 
Q 48.484375 72.75 52.59375 71.296875 
z
" id="DejaVuSans-54"/>
      </defs>
      <use xlink:href="#DejaVuSans-51"/>
      <use x="63.623047" xlink:href="#DejaVuSans-46"/>
      <use x="95.410156" xlink:href="#DejaVuSans-32"/>
      <use x="127.197266" xlink:href="#DejaVuSans-76"/>
      <use x="181.160156" xlink:href="#DejaVuSans-111"/>
      <use x="242.341797" xlink:href="#DejaVuSans-99"/>
      <use x="297.322266" xlink:href="#DejaVuSans-107"/>
      <use x="355.232422" xlink:href="#DejaVuSans-100"/>
      <use x="418.708984" xlink:href="#DejaVuSans-111"/>
      <use x="479.890625" xlink:href="#DejaVuSans-119"/>
      <use x="561.677734" xlink:href="#DejaVuSans-110"/>
      <use x="625.056641" xlink:href="#DejaVuSans-32"/>
      <use x="656.84375" xlink:href="#DejaVuSans-71"/>
      <use x="734.333984" xlink:href="#DejaVuSans-101"/>
      <use x="795.857422" xlink:href="#DejaVuSans-114"/>
      <use x="835.220703" xlink:href="#DejaVuSans-109"/>
      <use x="932.632812" xlink:href="#DejaVuSans-97"/>
      <use x="993.912109" xlink:href="#DejaVuSans-110"/>
      <use x="1057.291016" xlink:href="#DejaVuSans-121"/>
      <use x="1116.470703" xlink:href="#DejaVuSans-32"/>
      <use x="1148.257812" xlink:href="#DejaVuSans-40"/>
      <use x="1187.271484" xlink:href="#DejaVuSans-50"/>
      <use x="1250.894531" xlink:href="#DejaVuSans-48"/>
      <use x="1314.517578" xlink:href="#DejaVuSans-50"/>
      <use x="1378.140625" xlink:href="#DejaVuSans-48"/>
      <use x="1441.763672" xlink:href="#DejaVuSans-45"/>
      <use x="1477.847656" xlink:href="#DejaVuSans-49"/>
      <use x="1541.470703" xlink:href="#DejaVuSans-50"/>
      <use x="1605.09375" xlink:href="#DejaVuSans-45"/>
      <use x="1641.177734" xlink:href="#DejaVuSans-49"/>
      <use x="1704.800781" xlink:href="#DejaVuSans-54"/>
      <use x="1768.423828" xlink:href="#DejaVuSans-41"/>
     </g>
    </g>
   </g>
  </g>
 </g>
 <defs>
  <clipPath id="p7d6b506894">
   <rect height="440.64" width="892.8" x="144" y="77.76"/>
  </clipPath>
 </defs>
</svg>
