<?xml version="1.0" encoding="utf-8" standalone="no"?>
<!DOCTYPE svg PUBLIC "-//W3C//DTD SVG 1.1//EN"
  "http://www.w3.org/Graphics/SVG/1.1/DTD/svg11.dtd">
<!-- Created with matplotlib (https://matplotlib.org/) -->
<svg height="648pt" version="1.1" viewBox="0 0 1152 648" width="1152pt" xmlns="http://www.w3.org/2000/svg" xmlns:xlink="http://www.w3.org/1999/xlink">
 <metadata>
  <rdf:RDF xmlns:cc="http://creativecommons.org/ns#" xmlns:dc="http://purl.org/dc/elements/1.1/" xmlns:rdf="http://www.w3.org/1999/02/22-rdf-syntax-ns#">
   <cc:Work>
    <dc:type rdf:resource="http://purl.org/dc/dcmitype/StillImage"/>
    <dc:date>2021-03-28T11:41:18.462314</dc:date>
    <dc:format>image/svg+xml</dc:format>
    <dc:creator>
     <cc:Agent>
      <dc:title>Matplotlib v3.3.4, https://matplotlib.org/</dc:title>
     </cc:Agent>
    </dc:creator>
   </cc:Work>
  </rdf:RDF>
 </metadata>
 <defs>
  <style type="text/css">*{stroke-linecap:butt;stroke-linejoin:round;}</style>
 </defs>
 <g id="figure_1">
  <g id="patch_1">
   <path d="M 0 648 
L 1152 648 
L 1152 0 
L 0 0 
z
" style="fill:#ffffff;"/>
  </g>
  <g id="axes_1">
   <g id="patch_2">
    <path d="M 144 518.4 
L 1036.8 518.4 
L 1036.8 77.76 
L 144 77.76 
z
" style="fill:#e5e5e5;"/>
   </g>
   <g id="matplotlib.axis_1">
    <g id="xtick_1">
     <g id="line2d_1">
      <path clip-path="url(#pa8682a402b)" d="M 207.357328 518.4 
L 207.357328 77.76 
" style="fill:none;stroke:#ffffff;stroke-linecap:square;stroke-width:0.8;"/>
     </g>
     <g id="line2d_2">
      <defs>
       <path d="M 0 0 
L 0 3.5 
" id="m17385ab5e9" style="stroke:#555555;stroke-width:0.8;"/>
      </defs>
      <g>
       <use style="fill:#555555;stroke:#555555;stroke-width:0.8;" x="207.357328" xlink:href="#m17385ab5e9" y="518.4"/>
      </g>
     </g>
     <g id="text_1">
      <!-- 2019-01 -->
      <g style="fill:#555555;" transform="translate(158.965061 561.1134)rotate(-30)scale(0.13 -0.13)">
       <defs>
        <path d="M 19.1875 8.296875 
L 53.609375 8.296875 
L 53.609375 0 
L 7.328125 0 
L 7.328125 8.296875 
Q 12.9375 14.109375 22.625 23.890625 
Q 32.328125 33.6875 34.8125 36.53125 
Q 39.546875 41.84375 41.421875 45.53125 
Q 43.3125 49.21875 43.3125 52.78125 
Q 43.3125 58.59375 39.234375 62.25 
Q 35.15625 65.921875 28.609375 65.921875 
Q 23.96875 65.921875 18.8125 64.3125 
Q 13.671875 62.703125 7.8125 59.421875 
L 7.8125 69.390625 
Q 13.765625 71.78125 18.9375 73 
Q 24.125 74.21875 28.421875 74.21875 
Q 39.75 74.21875 46.484375 68.546875 
Q 53.21875 62.890625 53.21875 53.421875 
Q 53.21875 48.921875 51.53125 44.890625 
Q 49.859375 40.875 45.40625 35.40625 
Q 44.1875 33.984375 37.640625 27.21875 
Q 31.109375 20.453125 19.1875 8.296875 
z
" id="DejaVuSans-50"/>
        <path d="M 31.78125 66.40625 
Q 24.171875 66.40625 20.328125 58.90625 
Q 16.5 51.421875 16.5 36.375 
Q 16.5 21.390625 20.328125 13.890625 
Q 24.171875 6.390625 31.78125 6.390625 
Q 39.453125 6.390625 43.28125 13.890625 
Q 47.125 21.390625 47.125 36.375 
Q 47.125 51.421875 43.28125 58.90625 
Q 39.453125 66.40625 31.78125 66.40625 
z
M 31.78125 74.21875 
Q 44.046875 74.21875 50.515625 64.515625 
Q 56.984375 54.828125 56.984375 36.375 
Q 56.984375 17.96875 50.515625 8.265625 
Q 44.046875 -1.421875 31.78125 -1.421875 
Q 19.53125 -1.421875 13.0625 8.265625 
Q 6.59375 17.96875 6.59375 36.375 
Q 6.59375 54.828125 13.0625 64.515625 
Q 19.53125 74.21875 31.78125 74.21875 
z
" id="DejaVuSans-48"/>
        <path d="M 12.40625 8.296875 
L 28.515625 8.296875 
L 28.515625 63.921875 
L 10.984375 60.40625 
L 10.984375 69.390625 
L 28.421875 72.90625 
L 38.28125 72.90625 
L 38.28125 8.296875 
L 54.390625 8.296875 
L 54.390625 0 
L 12.40625 0 
z
" id="DejaVuSans-49"/>
        <path d="M 10.984375 1.515625 
L 10.984375 10.5 
Q 14.703125 8.734375 18.5 7.8125 
Q 22.3125 6.890625 25.984375 6.890625 
Q 35.75 6.890625 40.890625 13.453125 
Q 46.046875 20.015625 46.78125 33.40625 
Q 43.953125 29.203125 39.59375 26.953125 
Q 35.25 24.703125 29.984375 24.703125 
Q 19.046875 24.703125 12.671875 31.3125 
Q 6.296875 37.9375 6.296875 49.421875 
Q 6.296875 60.640625 12.9375 67.421875 
Q 19.578125 74.21875 30.609375 74.21875 
Q 43.265625 74.21875 49.921875 64.515625 
Q 56.59375 54.828125 56.59375 36.375 
Q 56.59375 19.140625 48.40625 8.859375 
Q 40.234375 -1.421875 26.421875 -1.421875 
Q 22.703125 -1.421875 18.890625 -0.6875 
Q 15.09375 0.046875 10.984375 1.515625 
z
M 30.609375 32.421875 
Q 37.25 32.421875 41.125 36.953125 
Q 45.015625 41.5 45.015625 49.421875 
Q 45.015625 57.28125 41.125 61.84375 
Q 37.25 66.40625 30.609375 66.40625 
Q 23.96875 66.40625 20.09375 61.84375 
Q 16.21875 57.28125 16.21875 49.421875 
Q 16.21875 41.5 20.09375 36.953125 
Q 23.96875 32.421875 30.609375 32.421875 
z
" id="DejaVuSans-57"/>
        <path d="M 4.890625 31.390625 
L 31.203125 31.390625 
L 31.203125 23.390625 
L 4.890625 23.390625 
z
" id="DejaVuSans-45"/>
       </defs>
       <use xlink:href="#DejaVuSans-50"/>
       <use x="63.623047" xlink:href="#DejaVuSans-48"/>
       <use x="127.246094" xlink:href="#DejaVuSans-49"/>
       <use x="190.869141" xlink:href="#DejaVuSans-57"/>
       <use x="254.492188" xlink:href="#DejaVuSans-45"/>
       <use x="290.576172" xlink:href="#DejaVuSans-48"/>
       <use x="354.199219" xlink:href="#DejaVuSans-49"/>
      </g>
     </g>
    </g>
    <g id="xtick_2">
     <g id="line2d_3">
      <path clip-path="url(#pa8682a402b)" d="M 300.52987 518.4 
L 300.52987 77.76 
" style="fill:none;stroke:#ffffff;stroke-linecap:square;stroke-width:0.8;"/>
     </g>
     <g id="line2d_4">
      <g>
       <use style="fill:#555555;stroke:#555555;stroke-width:0.8;" x="300.52987" xlink:href="#m17385ab5e9" y="518.4"/>
      </g>
     </g>
     <g id="text_2">
      <!-- 2019-04 -->
      <g style="fill:#555555;" transform="translate(252.137603 561.1134)rotate(-30)scale(0.13 -0.13)">
       <defs>
        <path d="M 37.796875 64.3125 
L 12.890625 25.390625 
L 37.796875 25.390625 
z
M 35.203125 72.90625 
L 47.609375 72.90625 
L 47.609375 25.390625 
L 58.015625 25.390625 
L 58.015625 17.1875 
L 47.609375 17.1875 
L 47.609375 0 
L 37.796875 0 
L 37.796875 17.1875 
L 4.890625 17.1875 
L 4.890625 26.703125 
z
" id="DejaVuSans-52"/>
       </defs>
       <use xlink:href="#DejaVuSans-50"/>
       <use x="63.623047" xlink:href="#DejaVuSans-48"/>
       <use x="127.246094" xlink:href="#DejaVuSans-49"/>
       <use x="190.869141" xlink:href="#DejaVuSans-57"/>
       <use x="254.492188" xlink:href="#DejaVuSans-45"/>
       <use x="290.576172" xlink:href="#DejaVuSans-48"/>
       <use x="354.199219" xlink:href="#DejaVuSans-52"/>
      </g>
     </g>
    </g>
    <g id="xtick_3">
     <g id="line2d_5">
      <path clip-path="url(#pa8682a402b)" d="M 394.737662 518.4 
L 394.737662 77.76 
" style="fill:none;stroke:#ffffff;stroke-linecap:square;stroke-width:0.8;"/>
     </g>
     <g id="line2d_6">
      <g>
       <use style="fill:#555555;stroke:#555555;stroke-width:0.8;" x="394.737662" xlink:href="#m17385ab5e9" y="518.4"/>
      </g>
     </g>
     <g id="text_3">
      <!-- 2019-07 -->
      <g style="fill:#555555;" transform="translate(346.345395 561.1134)rotate(-30)scale(0.13 -0.13)">
       <defs>
        <path d="M 8.203125 72.90625 
L 55.078125 72.90625 
L 55.078125 68.703125 
L 28.609375 0 
L 18.3125 0 
L 43.21875 64.59375 
L 8.203125 64.59375 
z
" id="DejaVuSans-55"/>
       </defs>
       <use xlink:href="#DejaVuSans-50"/>
       <use x="63.623047" xlink:href="#DejaVuSans-48"/>
       <use x="127.246094" xlink:href="#DejaVuSans-49"/>
       <use x="190.869141" xlink:href="#DejaVuSans-57"/>
       <use x="254.492188" xlink:href="#DejaVuSans-45"/>
       <use x="290.576172" xlink:href="#DejaVuSans-48"/>
       <use x="354.199219" xlink:href="#DejaVuSans-55"/>
      </g>
     </g>
    </g>
    <g id="xtick_4">
     <g id="line2d_7">
      <path clip-path="url(#pa8682a402b)" d="M 489.980705 518.4 
L 489.980705 77.76 
" style="fill:none;stroke:#ffffff;stroke-linecap:square;stroke-width:0.8;"/>
     </g>
     <g id="line2d_8">
      <g>
       <use style="fill:#555555;stroke:#555555;stroke-width:0.8;" x="489.980705" xlink:href="#m17385ab5e9" y="518.4"/>
      </g>
     </g>
     <g id="text_4">
      <!-- 2019-10 -->
      <g style="fill:#555555;" transform="translate(441.588438 561.1134)rotate(-30)scale(0.13 -0.13)">
       <use xlink:href="#DejaVuSans-50"/>
       <use x="63.623047" xlink:href="#DejaVuSans-48"/>
       <use x="127.246094" xlink:href="#DejaVuSans-49"/>
       <use x="190.869141" xlink:href="#DejaVuSans-57"/>
       <use x="254.492188" xlink:href="#DejaVuSans-45"/>
       <use x="290.576172" xlink:href="#DejaVuSans-49"/>
       <use x="354.199219" xlink:href="#DejaVuSans-48"/>
      </g>
     </g>
    </g>
    <g id="xtick_5">
     <g id="line2d_9">
      <path clip-path="url(#pa8682a402b)" d="M 585.223748 518.4 
L 585.223748 77.76 
" style="fill:none;stroke:#ffffff;stroke-linecap:square;stroke-width:0.8;"/>
     </g>
     <g id="line2d_10">
      <g>
       <use style="fill:#555555;stroke:#555555;stroke-width:0.8;" x="585.223748" xlink:href="#m17385ab5e9" y="518.4"/>
      </g>
     </g>
     <g id="text_5">
      <!-- 2020-01 -->
      <g style="fill:#555555;" transform="translate(536.831481 561.1134)rotate(-30)scale(0.13 -0.13)">
       <use xlink:href="#DejaVuSans-50"/>
       <use x="63.623047" xlink:href="#DejaVuSans-48"/>
       <use x="127.246094" xlink:href="#DejaVuSans-50"/>
       <use x="190.869141" xlink:href="#DejaVuSans-48"/>
       <use x="254.492188" xlink:href="#DejaVuSans-45"/>
       <use x="290.576172" xlink:href="#DejaVuSans-48"/>
       <use x="354.199219" xlink:href="#DejaVuSans-49"/>
      </g>
     </g>
    </g>
    <g id="xtick_6">
     <g id="line2d_11">
      <path clip-path="url(#pa8682a402b)" d="M 679.43154 518.4 
L 679.43154 77.76 
" style="fill:none;stroke:#ffffff;stroke-linecap:square;stroke-width:0.8;"/>
     </g>
     <g id="line2d_12">
      <g>
       <use style="fill:#555555;stroke:#555555;stroke-width:0.8;" x="679.43154" xlink:href="#m17385ab5e9" y="518.4"/>
      </g>
     </g>
     <g id="text_6">
      <!-- 2020-04 -->
      <g style="fill:#555555;" transform="translate(631.039273 561.1134)rotate(-30)scale(0.13 -0.13)">
       <use xlink:href="#DejaVuSans-50"/>
       <use x="63.623047" xlink:href="#DejaVuSans-48"/>
       <use x="127.246094" xlink:href="#DejaVuSans-50"/>
       <use x="190.869141" xlink:href="#DejaVuSans-48"/>
       <use x="254.492188" xlink:href="#DejaVuSans-45"/>
       <use x="290.576172" xlink:href="#DejaVuSans-48"/>
       <use x="354.199219" xlink:href="#DejaVuSans-52"/>
      </g>
     </g>
    </g>
    <g id="xtick_7">
     <g id="line2d_13">
      <path clip-path="url(#pa8682a402b)" d="M 773.639332 518.4 
L 773.639332 77.76 
" style="fill:none;stroke:#ffffff;stroke-linecap:square;stroke-width:0.8;"/>
     </g>
     <g id="line2d_14">
      <g>
       <use style="fill:#555555;stroke:#555555;stroke-width:0.8;" x="773.639332" xlink:href="#m17385ab5e9" y="518.4"/>
      </g>
     </g>
     <g id="text_7">
      <!-- 2020-07 -->
      <g style="fill:#555555;" transform="translate(725.247065 561.1134)rotate(-30)scale(0.13 -0.13)">
       <use xlink:href="#DejaVuSans-50"/>
       <use x="63.623047" xlink:href="#DejaVuSans-48"/>
       <use x="127.246094" xlink:href="#DejaVuSans-50"/>
       <use x="190.869141" xlink:href="#DejaVuSans-48"/>
       <use x="254.492188" xlink:href="#DejaVuSans-45"/>
       <use x="290.576172" xlink:href="#DejaVuSans-48"/>
       <use x="354.199219" xlink:href="#DejaVuSans-55"/>
      </g>
     </g>
    </g>
    <g id="xtick_8">
     <g id="line2d_15">
      <path clip-path="url(#pa8682a402b)" d="M 868.882375 518.4 
L 868.882375 77.76 
" style="fill:none;stroke:#ffffff;stroke-linecap:square;stroke-width:0.8;"/>
     </g>
     <g id="line2d_16">
      <g>
       <use style="fill:#555555;stroke:#555555;stroke-width:0.8;" x="868.882375" xlink:href="#m17385ab5e9" y="518.4"/>
      </g>
     </g>
     <g id="text_8">
      <!-- 2020-10 -->
      <g style="fill:#555555;" transform="translate(820.490108 561.1134)rotate(-30)scale(0.13 -0.13)">
       <use xlink:href="#DejaVuSans-50"/>
       <use x="63.623047" xlink:href="#DejaVuSans-48"/>
       <use x="127.246094" xlink:href="#DejaVuSans-50"/>
       <use x="190.869141" xlink:href="#DejaVuSans-48"/>
       <use x="254.492188" xlink:href="#DejaVuSans-45"/>
       <use x="290.576172" xlink:href="#DejaVuSans-49"/>
       <use x="354.199219" xlink:href="#DejaVuSans-48"/>
      </g>
     </g>
    </g>
    <g id="xtick_9">
     <g id="line2d_17">
      <path clip-path="url(#pa8682a402b)" d="M 964.125417 518.4 
L 964.125417 77.76 
" style="fill:none;stroke:#ffffff;stroke-linecap:square;stroke-width:0.8;"/>
     </g>
     <g id="line2d_18">
      <g>
       <use style="fill:#555555;stroke:#555555;stroke-width:0.8;" x="964.125417" xlink:href="#m17385ab5e9" y="518.4"/>
      </g>
     </g>
     <g id="text_9">
      <!-- 2021-01 -->
      <g style="fill:#555555;" transform="translate(915.73315 561.1134)rotate(-30)scale(0.13 -0.13)">
       <use xlink:href="#DejaVuSans-50"/>
       <use x="63.623047" xlink:href="#DejaVuSans-48"/>
       <use x="127.246094" xlink:href="#DejaVuSans-50"/>
       <use x="190.869141" xlink:href="#DejaVuSans-49"/>
       <use x="254.492188" xlink:href="#DejaVuSans-45"/>
       <use x="290.576172" xlink:href="#DejaVuSans-48"/>
       <use x="354.199219" xlink:href="#DejaVuSans-49"/>
      </g>
     </g>
    </g>
   </g>
   <g id="matplotlib.axis_2">
    <g id="ytick_1">
     <g id="line2d_19">
      <path clip-path="url(#pa8682a402b)" d="M 144 498.370909 
L 1036.8 498.370909 
" style="fill:none;stroke:#ffffff;stroke-linecap:square;stroke-width:0.8;"/>
     </g>
     <g id="line2d_20">
      <defs>
       <path d="M 0 0 
L -3.5 0 
" id="ma09a651835" style="stroke:#555555;stroke-width:0.8;"/>
      </defs>
      <g>
       <use style="fill:#555555;stroke:#555555;stroke-width:0.8;" x="144" xlink:href="#ma09a651835" y="498.370909"/>
      </g>
     </g>
     <g id="text_10">
      <!-- 0 -->
      <g style="fill:#555555;" transform="translate(128.72875 503.309893)scale(0.13 -0.13)">
       <use xlink:href="#DejaVuSans-48"/>
      </g>
     </g>
    </g>
    <g id="ytick_2">
     <g id="line2d_21">
      <path clip-path="url(#pa8682a402b)" d="M 144 445.313715 
L 1036.8 445.313715 
" style="fill:none;stroke:#ffffff;stroke-linecap:square;stroke-width:0.8;"/>
     </g>
     <g id="line2d_22">
      <g>
       <use style="fill:#555555;stroke:#555555;stroke-width:0.8;" x="144" xlink:href="#ma09a651835" y="445.313715"/>
      </g>
     </g>
     <g id="text_11">
      <!-- 20 -->
      <g style="fill:#555555;" transform="translate(120.4575 450.252699)scale(0.13 -0.13)">
       <use xlink:href="#DejaVuSans-50"/>
       <use x="63.623047" xlink:href="#DejaVuSans-48"/>
      </g>
     </g>
    </g>
    <g id="ytick_3">
     <g id="line2d_23">
      <path clip-path="url(#pa8682a402b)" d="M 144 392.25652 
L 1036.8 392.25652 
" style="fill:none;stroke:#ffffff;stroke-linecap:square;stroke-width:0.8;"/>
     </g>
     <g id="line2d_24">
      <g>
       <use style="fill:#555555;stroke:#555555;stroke-width:0.8;" x="144" xlink:href="#ma09a651835" y="392.25652"/>
      </g>
     </g>
     <g id="text_12">
      <!-- 40 -->
      <g style="fill:#555555;" transform="translate(120.4575 397.195505)scale(0.13 -0.13)">
       <use xlink:href="#DejaVuSans-52"/>
       <use x="63.623047" xlink:href="#DejaVuSans-48"/>
      </g>
     </g>
    </g>
    <g id="ytick_4">
     <g id="line2d_25">
      <path clip-path="url(#pa8682a402b)" d="M 144 339.199326 
L 1036.8 339.199326 
" style="fill:none;stroke:#ffffff;stroke-linecap:square;stroke-width:0.8;"/>
     </g>
     <g id="line2d_26">
      <g>
       <use style="fill:#555555;stroke:#555555;stroke-width:0.8;" x="144" xlink:href="#ma09a651835" y="339.199326"/>
      </g>
     </g>
     <g id="text_13">
      <!-- 60 -->
      <g style="fill:#555555;" transform="translate(120.4575 344.13831)scale(0.13 -0.13)">
       <defs>
        <path d="M 33.015625 40.375 
Q 26.375 40.375 22.484375 35.828125 
Q 18.609375 31.296875 18.609375 23.390625 
Q 18.609375 15.53125 22.484375 10.953125 
Q 26.375 6.390625 33.015625 6.390625 
Q 39.65625 6.390625 43.53125 10.953125 
Q 47.40625 15.53125 47.40625 23.390625 
Q 47.40625 31.296875 43.53125 35.828125 
Q 39.65625 40.375 33.015625 40.375 
z
M 52.59375 71.296875 
L 52.59375 62.3125 
Q 48.875 64.0625 45.09375 64.984375 
Q 41.3125 65.921875 37.59375 65.921875 
Q 27.828125 65.921875 22.671875 59.328125 
Q 17.53125 52.734375 16.796875 39.40625 
Q 19.671875 43.65625 24.015625 45.921875 
Q 28.375 48.1875 33.59375 48.1875 
Q 44.578125 48.1875 50.953125 41.515625 
Q 57.328125 34.859375 57.328125 23.390625 
Q 57.328125 12.15625 50.6875 5.359375 
Q 44.046875 -1.421875 33.015625 -1.421875 
Q 20.359375 -1.421875 13.671875 8.265625 
Q 6.984375 17.96875 6.984375 36.375 
Q 6.984375 53.65625 15.1875 63.9375 
Q 23.390625 74.21875 37.203125 74.21875 
Q 40.921875 74.21875 44.703125 73.484375 
Q 48.484375 72.75 52.59375 71.296875 
z
" id="DejaVuSans-54"/>
       </defs>
       <use xlink:href="#DejaVuSans-54"/>
       <use x="63.623047" xlink:href="#DejaVuSans-48"/>
      </g>
     </g>
    </g>
    <g id="ytick_5">
     <g id="line2d_27">
      <path clip-path="url(#pa8682a402b)" d="M 144 286.142131 
L 1036.8 286.142131 
" style="fill:none;stroke:#ffffff;stroke-linecap:square;stroke-width:0.8;"/>
     </g>
     <g id="line2d_28">
      <g>
       <use style="fill:#555555;stroke:#555555;stroke-width:0.8;" x="144" xlink:href="#ma09a651835" y="286.142131"/>
      </g>
     </g>
     <g id="text_14">
      <!-- 80 -->
      <g style="fill:#555555;" transform="translate(120.4575 291.081116)scale(0.13 -0.13)">
       <defs>
        <path d="M 31.78125 34.625 
Q 24.75 34.625 20.71875 30.859375 
Q 16.703125 27.09375 16.703125 20.515625 
Q 16.703125 13.921875 20.71875 10.15625 
Q 24.75 6.390625 31.78125 6.390625 
Q 38.8125 6.390625 42.859375 10.171875 
Q 46.921875 13.96875 46.921875 20.515625 
Q 46.921875 27.09375 42.890625 30.859375 
Q 38.875 34.625 31.78125 34.625 
z
M 21.921875 38.8125 
Q 15.578125 40.375 12.03125 44.71875 
Q 8.5 49.078125 8.5 55.328125 
Q 8.5 64.0625 14.71875 69.140625 
Q 20.953125 74.21875 31.78125 74.21875 
Q 42.671875 74.21875 48.875 69.140625 
Q 55.078125 64.0625 55.078125 55.328125 
Q 55.078125 49.078125 51.53125 44.71875 
Q 48 40.375 41.703125 38.8125 
Q 48.828125 37.15625 52.796875 32.3125 
Q 56.78125 27.484375 56.78125 20.515625 
Q 56.78125 9.90625 50.3125 4.234375 
Q 43.84375 -1.421875 31.78125 -1.421875 
Q 19.734375 -1.421875 13.25 4.234375 
Q 6.78125 9.90625 6.78125 20.515625 
Q 6.78125 27.484375 10.78125 32.3125 
Q 14.796875 37.15625 21.921875 38.8125 
z
M 18.3125 54.390625 
Q 18.3125 48.734375 21.84375 45.5625 
Q 25.390625 42.390625 31.78125 42.390625 
Q 38.140625 42.390625 41.71875 45.5625 
Q 45.3125 48.734375 45.3125 54.390625 
Q 45.3125 60.0625 41.71875 63.234375 
Q 38.140625 66.40625 31.78125 66.40625 
Q 25.390625 66.40625 21.84375 63.234375 
Q 18.3125 60.0625 18.3125 54.390625 
z
" id="DejaVuSans-56"/>
       </defs>
       <use xlink:href="#DejaVuSans-56"/>
       <use x="63.623047" xlink:href="#DejaVuSans-48"/>
      </g>
     </g>
    </g>
    <g id="ytick_6">
     <g id="line2d_29">
      <path clip-path="url(#pa8682a402b)" d="M 144 233.084937 
L 1036.8 233.084937 
" style="fill:none;stroke:#ffffff;stroke-linecap:square;stroke-width:0.8;"/>
     </g>
     <g id="line2d_30">
      <g>
       <use style="fill:#555555;stroke:#555555;stroke-width:0.8;" x="144" xlink:href="#ma09a651835" y="233.084937"/>
      </g>
     </g>
     <g id="text_15">
      <!-- 100 -->
      <g style="fill:#555555;" transform="translate(112.18625 238.023921)scale(0.13 -0.13)">
       <use xlink:href="#DejaVuSans-49"/>
       <use x="63.623047" xlink:href="#DejaVuSans-48"/>
       <use x="127.246094" xlink:href="#DejaVuSans-48"/>
      </g>
     </g>
    </g>
    <g id="ytick_7">
     <g id="line2d_31">
      <path clip-path="url(#pa8682a402b)" d="M 144 180.027742 
L 1036.8 180.027742 
" style="fill:none;stroke:#ffffff;stroke-linecap:square;stroke-width:0.8;"/>
     </g>
     <g id="line2d_32">
      <g>
       <use style="fill:#555555;stroke:#555555;stroke-width:0.8;" x="144" xlink:href="#ma09a651835" y="180.027742"/>
      </g>
     </g>
     <g id="text_16">
      <!-- 120 -->
      <g style="fill:#555555;" transform="translate(112.18625 184.966727)scale(0.13 -0.13)">
       <use xlink:href="#DejaVuSans-49"/>
       <use x="63.623047" xlink:href="#DejaVuSans-50"/>
       <use x="127.246094" xlink:href="#DejaVuSans-48"/>
      </g>
     </g>
    </g>
    <g id="ytick_8">
     <g id="line2d_33">
      <path clip-path="url(#pa8682a402b)" d="M 144 126.970548 
L 1036.8 126.970548 
" style="fill:none;stroke:#ffffff;stroke-linecap:square;stroke-width:0.8;"/>
     </g>
     <g id="line2d_34">
      <g>
       <use style="fill:#555555;stroke:#555555;stroke-width:0.8;" x="144" xlink:href="#ma09a651835" y="126.970548"/>
      </g>
     </g>
     <g id="text_17">
      <!-- 140 -->
      <g style="fill:#555555;" transform="translate(112.18625 131.909532)scale(0.13 -0.13)">
       <use xlink:href="#DejaVuSans-49"/>
       <use x="63.623047" xlink:href="#DejaVuSans-52"/>
       <use x="127.246094" xlink:href="#DejaVuSans-48"/>
      </g>
     </g>
    </g>
   </g>
   <g id="LineCollection_1">
    <path clip-path="url(#pa8682a402b)" d="M 184.581818 498.370909 
L 184.581818 97.789091 
" style="fill:none;stroke:#ffa500;stroke-dasharray:5.55,2.4;stroke-dashoffset:0;stroke-width:1.5;"/>
   </g>
   <g id="LineCollection_2">
    <path clip-path="url(#pa8682a402b)" d="M 612.14026 498.370909 
L 612.14026 97.789091 
" style="fill:none;stroke:#808080;stroke-dasharray:5.55,2.4;stroke-dashoffset:0;stroke-width:1.5;"/>
   </g>
   <g id="LineCollection_3">
    <path clip-path="url(#pa8682a402b)" d="M 669.079035 498.370909 
L 669.079035 97.789091 
" style="fill:none;stroke:#800080;stroke-dasharray:5.55,2.4;stroke-dashoffset:0;stroke-width:1.5;"/>
   </g>
   <g id="LineCollection_4">
    <path clip-path="url(#pa8682a402b)" d="M 902.01039 498.370909 
L 902.01039 97.789091 
" style="fill:none;stroke:#800080;stroke-dasharray:5.55,2.4;stroke-dashoffset:0;stroke-width:1.5;"/>
   </g>
   <g id="LineCollection_5">
    <path clip-path="url(#pa8682a402b)" d="M 947.56141 498.370909 
L 947.56141 97.789091 
" style="fill:none;stroke:#800080;stroke-dasharray:5.55,2.4;stroke-dashoffset:0;stroke-width:1.5;"/>
   </g>
   <g id="line2d_35">
    <path clip-path="url(#pa8682a402b)" d="M 708.418553 495.718049 
L 709.453803 493.06519 
L 714.630056 493.06519 
L 716.700557 487.75947 
L 720.841558 487.75947 
L 721.876809 485.10661 
L 728.088312 485.10661 
L 729.123562 479.800891 
L 731.194063 479.800891 
L 732.229314 477.148031 
L 824.366605 477.148031 
L 825.401855 474.495172 
L 827.472356 474.495172 
L 828.507607 471.842312 
L 830.578108 471.842312 
L 831.613358 469.189452 
L 838.860111 469.189452 
L 839.895362 466.536592 
L 845.071614 466.536592 
L 847.142115 461.230873 
L 854.388868 461.230873 
L 855.424119 458.578013 
L 859.565121 458.578013 
L 860.600371 455.925154 
L 861.635622 455.925154 
L 863.706122 450.619434 
L 866.811874 450.619434 
L 867.847124 447.966574 
L 871.988126 447.966574 
L 873.023377 445.313715 
L 884.411132 445.313715 
L 885.446382 442.660855 
L 894.763636 442.660855 
L 895.798887 440.007995 
L 902.01039 440.007995 
L 903.04564 437.355135 
L 915.468646 437.355135 
L 917.539147 432.049416 
L 919.609647 432.049416 
L 920.644898 429.396556 
L 925.82115 429.396556 
L 926.856401 426.743697 
L 932.032653 426.743697 
L 933.067904 424.090837 
L 939.279406 424.090837 
L 940.314657 421.437977 
L 959.984416 421.437977 
L 961.019666 418.785117 
L 996.218182 418.785117 
L 996.218182 418.785117 
" style="fill:none;stroke:#e24a33;stroke-linecap:square;stroke-width:1.5;"/>
   </g>
   <g id="line2d_36">
    <path clip-path="url(#pa8682a402b)" d="M 662.867532 495.718049 
L 716.700557 495.718049 
L 718.771058 490.41233 
L 722.912059 490.41233 
L 723.94731 487.75947 
L 724.98256 487.75947 
L 726.017811 485.10661 
L 728.088312 485.10661 
L 729.123562 482.453751 
L 738.440816 482.453751 
L 739.476067 479.800891 
L 740.511317 479.800891 
L 741.546568 474.495172 
L 787.097588 474.495172 
L 788.132839 471.842312 
L 805.732096 471.842312 
L 806.767347 469.189452 
L 817.119852 469.189452 
L 818.155102 466.536592 
L 819.190353 466.536592 
L 820.225603 463.883733 
L 837.824861 463.883733 
L 839.895362 458.578013 
L 840.930612 458.578013 
L 843.001113 453.272294 
L 845.071614 453.272294 
L 848.177365 445.313715 
L 850.247866 445.313715 
L 852.318367 440.007995 
L 859.565121 440.007995 
L 860.600371 437.355135 
L 865.776623 437.355135 
L 866.811874 432.049416 
L 871.988126 432.049416 
L 873.023377 429.396556 
L 874.058627 429.396556 
L 875.093878 426.743697 
L 889.587384 426.743697 
L 890.622635 424.090837 
L 891.657885 424.090837 
L 892.693135 418.785117 
L 894.763636 418.785117 
L 897.869388 410.826538 
L 900.975139 410.826538 
L 902.01039 408.173679 
L 915.468646 408.173679 
L 917.539147 402.867959 
L 919.609647 402.867959 
L 920.644898 400.215099 
L 929.962152 400.215099 
L 930.997403 397.56224 
L 932.032653 392.25652 
L 937.208905 392.25652 
L 938.244156 386.950801 
L 939.279406 384.297941 
L 940.314657 378.992222 
L 945.490909 378.992222 
L 946.52616 376.339362 
L 996.218182 376.339362 
L 996.218182 376.339362 
" style="fill:none;stroke:#348abd;stroke-linecap:square;stroke-width:1.5;"/>
   </g>
   <g id="line2d_37">
    <path clip-path="url(#pa8682a402b)" d="M 717.735807 495.718049 
L 728.088312 495.718049 
L 729.123562 493.06519 
L 730.158813 493.06519 
L 731.194063 490.41233 
L 740.511317 490.41233 
L 741.546568 487.75947 
L 742.581818 487.75947 
L 743.617069 485.10661 
L 751.899072 485.10661 
L 752.934323 482.453751 
L 774.674583 482.453751 
L 775.709833 479.800891 
L 822.296104 479.800891 
L 823.331354 477.148031 
L 829.542857 477.148031 
L 830.578108 471.842312 
L 831.613358 471.842312 
L 832.648609 469.189452 
L 886.481633 469.189452 
L 887.516883 466.536592 
L 894.763636 466.536592 
L 895.798887 463.883733 
L 896.834137 463.883733 
L 897.869388 461.230873 
L 919.609647 461.230873 
L 920.644898 458.578013 
L 927.891651 458.578013 
L 928.926902 455.925154 
L 935.138404 455.925154 
L 936.173655 447.966574 
L 943.420408 447.966574 
L 944.455659 445.313715 
L 996.218182 445.313715 
L 996.218182 445.313715 
" style="fill:none;stroke:#988ed5;stroke-linecap:square;stroke-width:1.5;"/>
   </g>
   <g id="line2d_38">
    <path clip-path="url(#pa8682a402b)" d="M 717.735807 495.718049 
L 728.088312 495.718049 
L 729.123562 490.41233 
L 735.335065 490.41233 
L 736.370315 487.75947 
L 738.440816 487.75947 
L 739.476067 485.10661 
L 787.097588 485.10661 
L 788.132839 482.453751 
L 891.657885 482.453751 
L 892.693135 479.800891 
L 905.116141 479.800891 
L 906.151391 477.148031 
L 996.218182 477.148031 
L 996.218182 477.148031 
" style="fill:none;stroke:#777777;stroke-linecap:square;stroke-width:1.5;"/>
   </g>
   <g id="line2d_39">
    <path clip-path="url(#pa8682a402b)" d="M 705.312801 495.718049 
L 706.348052 493.06519 
L 707.383302 493.06519 
L 708.418553 490.41233 
L 713.594805 490.41233 
L 714.630056 487.75947 
L 716.700557 487.75947 
L 717.735807 482.453751 
L 718.771058 479.800891 
L 726.017811 479.800891 
L 727.053061 477.148031 
L 728.088312 471.842312 
L 729.123562 469.189452 
L 733.264564 469.189452 
L 734.299814 466.536592 
L 736.370315 466.536592 
L 737.405566 463.883733 
L 740.511317 463.883733 
L 741.546568 461.230873 
L 798.485343 461.230873 
L 799.520594 458.578013 
L 811.943599 458.578013 
L 812.97885 455.925154 
L 826.437106 455.925154 
L 827.472356 453.272294 
L 831.613358 453.272294 
L 832.648609 450.619434 
L 836.78961 450.619434 
L 837.824861 445.313715 
L 838.860111 442.660855 
L 839.895362 442.660855 
L 840.930612 440.007995 
L 841.965863 440.007995 
L 843.001113 437.355135 
L 845.071614 437.355135 
L 846.106865 434.702276 
L 853.353618 434.702276 
L 855.424119 429.396556 
L 859.565121 429.396556 
L 861.635622 424.090837 
L 863.706122 424.090837 
L 864.741373 421.437977 
L 868.882375 421.437977 
L 870.952876 416.132258 
L 871.988126 416.132258 
L 873.023377 413.479398 
L 874.058627 413.479398 
L 875.093878 410.826538 
L 878.199629 410.826538 
L 879.234879 408.173679 
L 883.375881 408.173679 
L 884.411132 405.520819 
L 886.481633 405.520819 
L 888.552134 400.215099 
L 889.587384 400.215099 
L 890.622635 397.56224 
L 902.01039 397.56224 
L 903.04564 394.90938 
L 909.257143 394.90938 
L 910.292393 392.25652 
L 916.503896 392.25652 
L 918.574397 386.950801 
L 919.609647 386.950801 
L 920.644898 384.297941 
L 923.750649 384.297941 
L 925.82115 378.992222 
L 929.962152 378.992222 
L 932.032653 373.686502 
L 936.173655 373.686502 
L 937.208905 371.033642 
L 967.231169 371.033642 
L 968.266419 368.380783 
L 996.218182 368.380783 
L 996.218182 368.380783 
" style="fill:none;stroke:#fbc15e;stroke-linecap:square;stroke-width:1.5;"/>
   </g>
   <g id="line2d_40">
    <path clip-path="url(#pa8682a402b)" d="M 704.277551 495.718049 
L 713.594805 495.718049 
L 714.630056 493.06519 
L 731.194063 493.06519 
L 732.229314 490.41233 
L 773.639332 490.41233 
L 774.674583 487.75947 
L 787.097588 487.75947 
L 788.132839 485.10661 
L 829.542857 485.10661 
L 830.578108 479.800891 
L 832.648609 479.800891 
L 833.683859 477.148031 
L 841.965863 477.148031 
L 843.001113 466.536592 
L 845.071614 466.536592 
L 846.106865 463.883733 
L 851.283117 463.883733 
L 852.318367 458.578013 
L 856.459369 458.578013 
L 857.49462 455.925154 
L 860.600371 455.925154 
L 862.670872 450.619434 
L 871.988126 450.619434 
L 873.023377 437.355135 
L 877.164378 437.355135 
L 878.199629 434.702276 
L 917.539147 434.702276 
L 918.574397 432.049416 
L 919.609647 432.049416 
L 920.644898 429.396556 
L 939.279406 429.396556 
L 940.314657 426.743697 
L 946.52616 426.743697 
L 947.56141 424.090837 
L 952.737662 424.090837 
L 953.772913 421.437977 
L 966.195918 421.437977 
L 967.231169 418.785117 
L 996.218182 418.785117 
L 996.218182 418.785117 
" style="fill:none;stroke:#8eba42;stroke-linecap:square;stroke-width:1.5;"/>
   </g>
   <g id="line2d_41">
    <path clip-path="url(#pa8682a402b)" d="M 703.242301 495.718049 
L 705.312801 495.718049 
L 706.348052 493.06519 
L 707.383302 482.453751 
L 710.489054 474.495172 
L 712.559555 474.495172 
L 713.594805 471.842312 
L 715.665306 461.230873 
L 716.700557 458.578013 
L 718.771058 458.578013 
L 719.806308 450.619434 
L 720.841558 447.966574 
L 724.98256 447.966574 
L 726.017811 442.660855 
L 727.053061 440.007995 
L 729.123562 429.396556 
L 730.158813 429.396556 
L 731.194063 424.090837 
L 733.264564 424.090837 
L 735.335065 413.479398 
L 736.370315 413.479398 
L 737.405566 408.173679 
L 738.440816 405.520819 
L 739.476067 405.520819 
L 742.581818 397.56224 
L 744.652319 397.56224 
L 745.68757 394.90938 
L 751.899072 394.90938 
L 753.969573 389.60366 
L 771.568831 389.60366 
L 772.604082 386.950801 
L 798.485343 386.950801 
L 799.520594 384.297941 
L 805.732096 384.297941 
L 806.767347 381.645081 
L 817.119852 381.645081 
L 818.155102 378.992222 
L 820.225603 378.992222 
L 821.260853 376.339362 
L 822.296104 376.339362 
L 823.331354 373.686502 
L 829.542857 373.686502 
L 830.578108 371.033642 
L 831.613358 371.033642 
L 833.683859 365.727923 
L 834.719109 365.727923 
L 835.75436 363.075063 
L 836.78961 363.075063 
L 837.824861 357.769344 
L 840.930612 349.810765 
L 841.965863 339.199326 
L 843.001113 339.199326 
L 845.071614 333.893606 
L 846.106865 328.587887 
L 847.142115 325.935027 
L 851.283117 325.935027 
L 852.318367 323.282167 
L 853.353618 323.282167 
L 855.424119 317.976448 
L 856.459369 317.976448 
L 857.49462 315.323588 
L 859.565121 315.323588 
L 860.600371 312.670728 
L 865.776623 312.670728 
L 866.811874 307.365009 
L 867.847124 296.75357 
L 869.917625 286.142131 
L 876.129128 286.142131 
L 877.164378 283.489272 
L 879.234879 272.877833 
L 880.27013 270.224973 
L 881.30538 270.224973 
L 883.375881 264.919253 
L 885.446382 264.919253 
L 886.481633 256.960674 
L 888.552134 256.960674 
L 889.587384 254.307815 
L 890.622635 241.043516 
L 892.693135 225.126358 
L 893.728386 225.126358 
L 894.763636 222.473498 
L 896.834137 211.862059 
L 897.869388 211.862059 
L 898.904638 209.209199 
L 899.939889 193.292041 
L 900.975139 193.292041 
L 904.080891 185.333462 
L 915.468646 185.333462 
L 916.503896 180.027742 
L 918.574397 174.722023 
L 925.82115 174.722023 
L 926.856401 172.069163 
L 929.962152 172.069163 
L 930.997403 169.416303 
L 932.032653 169.416303 
L 933.067904 161.457724 
L 934.103154 161.457724 
L 935.138404 158.804865 
L 936.173655 158.804865 
L 937.208905 156.152005 
L 939.279406 156.152005 
L 940.314657 153.499145 
L 941.349907 145.540566 
L 942.385158 145.540566 
L 943.420408 134.929127 
L 944.455659 129.623408 
L 946.52616 124.317688 
L 948.59666 124.317688 
L 950.667161 119.011969 
L 952.737662 119.011969 
L 953.772913 116.359109 
L 954.808163 116.359109 
L 955.843414 113.706249 
L 965.160668 113.706249 
L 966.195918 100.441951 
L 967.231169 97.789091 
L 996.218182 97.789091 
L 996.218182 97.789091 
" style="fill:none;stroke:#ffb5b8;stroke-linecap:square;stroke-width:1.5;"/>
   </g>
   <g id="patch_3">
    <path d="M 144 518.4 
L 144 77.76 
" style="fill:none;stroke:#ffffff;stroke-linecap:square;stroke-linejoin:miter;"/>
   </g>
   <g id="patch_4">
    <path d="M 1036.8 518.4 
L 1036.8 77.76 
" style="fill:none;stroke:#ffffff;stroke-linecap:square;stroke-linejoin:miter;"/>
   </g>
   <g id="patch_5">
    <path d="M 144 518.4 
L 1036.8 518.4 
" style="fill:none;stroke:#ffffff;stroke-linecap:square;stroke-linejoin:miter;"/>
   </g>
   <g id="patch_6">
    <path d="M 144 77.76 
L 1036.8 77.76 
" style="fill:none;stroke:#ffffff;stroke-linecap:square;stroke-linejoin:miter;"/>
   </g>
   <g id="legend_1">
    <g id="patch_7">
     <path d="M 153.1 317.13875 
L 493.78125 317.13875 
Q 496.38125 317.13875 496.38125 314.53875 
L 496.38125 86.86 
Q 496.38125 84.26 493.78125 84.26 
L 153.1 84.26 
Q 150.5 84.26 150.5 86.86 
L 150.5 314.53875 
Q 150.5 317.13875 153.1 317.13875 
z
" style="fill:#e5e5e5;opacity:0.8;stroke:#cccccc;stroke-linejoin:miter;stroke-width:0.5;"/>
    </g>
    <g id="line2d_42">
     <path d="M 155.7 94.787969 
L 181.7 94.787969 
" style="fill:none;stroke:#e24a33;stroke-linecap:square;stroke-width:1.5;"/>
    </g>
    <g id="line2d_43"/>
    <g id="text_18">
     <!-- Xavier Naidoo inoffiziell usages of 'cdu' -->
     <g transform="translate(192.1 99.337969)scale(0.13 -0.13)">
      <defs>
       <path d="M 6.296875 72.90625 
L 16.890625 72.90625 
L 35.015625 45.796875 
L 53.21875 72.90625 
L 63.8125 72.90625 
L 40.375 37.890625 
L 65.375 0 
L 54.78125 0 
L 34.28125 31 
L 13.625 0 
L 2.984375 0 
L 29 38.921875 
z
" id="DejaVuSans-88"/>
       <path d="M 34.28125 27.484375 
Q 23.390625 27.484375 19.1875 25 
Q 14.984375 22.515625 14.984375 16.5 
Q 14.984375 11.71875 18.140625 8.90625 
Q 21.296875 6.109375 26.703125 6.109375 
Q 34.1875 6.109375 38.703125 11.40625 
Q 43.21875 16.703125 43.21875 25.484375 
L 43.21875 27.484375 
z
M 52.203125 31.203125 
L 52.203125 0 
L 43.21875 0 
L 43.21875 8.296875 
Q 40.140625 3.328125 35.546875 0.953125 
Q 30.953125 -1.421875 24.3125 -1.421875 
Q 15.921875 -1.421875 10.953125 3.296875 
Q 6 8.015625 6 15.921875 
Q 6 25.140625 12.171875 29.828125 
Q 18.359375 34.515625 30.609375 34.515625 
L 43.21875 34.515625 
L 43.21875 35.40625 
Q 43.21875 41.609375 39.140625 45 
Q 35.0625 48.390625 27.6875 48.390625 
Q 23 48.390625 18.546875 47.265625 
Q 14.109375 46.140625 10.015625 43.890625 
L 10.015625 52.203125 
Q 14.9375 54.109375 19.578125 55.046875 
Q 24.21875 56 28.609375 56 
Q 40.484375 56 46.34375 49.84375 
Q 52.203125 43.703125 52.203125 31.203125 
z
" id="DejaVuSans-97"/>
       <path d="M 2.984375 54.6875 
L 12.5 54.6875 
L 29.59375 8.796875 
L 46.6875 54.6875 
L 56.203125 54.6875 
L 35.6875 0 
L 23.484375 0 
z
" id="DejaVuSans-118"/>
       <path d="M 9.421875 54.6875 
L 18.40625 54.6875 
L 18.40625 0 
L 9.421875 0 
z
M 9.421875 75.984375 
L 18.40625 75.984375 
L 18.40625 64.59375 
L 9.421875 64.59375 
z
" id="DejaVuSans-105"/>
       <path d="M 56.203125 29.59375 
L 56.203125 25.203125 
L 14.890625 25.203125 
Q 15.484375 15.921875 20.484375 11.0625 
Q 25.484375 6.203125 34.421875 6.203125 
Q 39.59375 6.203125 44.453125 7.46875 
Q 49.3125 8.734375 54.109375 11.28125 
L 54.109375 2.78125 
Q 49.265625 0.734375 44.1875 -0.34375 
Q 39.109375 -1.421875 33.890625 -1.421875 
Q 20.796875 -1.421875 13.15625 6.1875 
Q 5.515625 13.8125 5.515625 26.8125 
Q 5.515625 40.234375 12.765625 48.109375 
Q 20.015625 56 32.328125 56 
Q 43.359375 56 49.78125 48.890625 
Q 56.203125 41.796875 56.203125 29.59375 
z
M 47.21875 32.234375 
Q 47.125 39.59375 43.09375 43.984375 
Q 39.0625 48.390625 32.421875 48.390625 
Q 24.90625 48.390625 20.390625 44.140625 
Q 15.875 39.890625 15.1875 32.171875 
z
" id="DejaVuSans-101"/>
       <path d="M 41.109375 46.296875 
Q 39.59375 47.171875 37.8125 47.578125 
Q 36.03125 48 33.890625 48 
Q 26.265625 48 22.1875 43.046875 
Q 18.109375 38.09375 18.109375 28.8125 
L 18.109375 0 
L 9.078125 0 
L 9.078125 54.6875 
L 18.109375 54.6875 
L 18.109375 46.1875 
Q 20.953125 51.171875 25.484375 53.578125 
Q 30.03125 56 36.53125 56 
Q 37.453125 56 38.578125 55.875 
Q 39.703125 55.765625 41.0625 55.515625 
z
" id="DejaVuSans-114"/>
       <path id="DejaVuSans-32"/>
       <path d="M 9.8125 72.90625 
L 23.09375 72.90625 
L 55.421875 11.921875 
L 55.421875 72.90625 
L 64.984375 72.90625 
L 64.984375 0 
L 51.703125 0 
L 19.390625 60.984375 
L 19.390625 0 
L 9.8125 0 
z
" id="DejaVuSans-78"/>
       <path d="M 45.40625 46.390625 
L 45.40625 75.984375 
L 54.390625 75.984375 
L 54.390625 0 
L 45.40625 0 
L 45.40625 8.203125 
Q 42.578125 3.328125 38.25 0.953125 
Q 33.9375 -1.421875 27.875 -1.421875 
Q 17.96875 -1.421875 11.734375 6.484375 
Q 5.515625 14.40625 5.515625 27.296875 
Q 5.515625 40.1875 11.734375 48.09375 
Q 17.96875 56 27.875 56 
Q 33.9375 56 38.25 53.625 
Q 42.578125 51.265625 45.40625 46.390625 
z
M 14.796875 27.296875 
Q 14.796875 17.390625 18.875 11.75 
Q 22.953125 6.109375 30.078125 6.109375 
Q 37.203125 6.109375 41.296875 11.75 
Q 45.40625 17.390625 45.40625 27.296875 
Q 45.40625 37.203125 41.296875 42.84375 
Q 37.203125 48.484375 30.078125 48.484375 
Q 22.953125 48.484375 18.875 42.84375 
Q 14.796875 37.203125 14.796875 27.296875 
z
" id="DejaVuSans-100"/>
       <path d="M 30.609375 48.390625 
Q 23.390625 48.390625 19.1875 42.75 
Q 14.984375 37.109375 14.984375 27.296875 
Q 14.984375 17.484375 19.15625 11.84375 
Q 23.34375 6.203125 30.609375 6.203125 
Q 37.796875 6.203125 41.984375 11.859375 
Q 46.1875 17.53125 46.1875 27.296875 
Q 46.1875 37.015625 41.984375 42.703125 
Q 37.796875 48.390625 30.609375 48.390625 
z
M 30.609375 56 
Q 42.328125 56 49.015625 48.375 
Q 55.71875 40.765625 55.71875 27.296875 
Q 55.71875 13.875 49.015625 6.21875 
Q 42.328125 -1.421875 30.609375 -1.421875 
Q 18.84375 -1.421875 12.171875 6.21875 
Q 5.515625 13.875 5.515625 27.296875 
Q 5.515625 40.765625 12.171875 48.375 
Q 18.84375 56 30.609375 56 
z
" id="DejaVuSans-111"/>
       <path d="M 54.890625 33.015625 
L 54.890625 0 
L 45.90625 0 
L 45.90625 32.71875 
Q 45.90625 40.484375 42.875 44.328125 
Q 39.84375 48.1875 33.796875 48.1875 
Q 26.515625 48.1875 22.3125 43.546875 
Q 18.109375 38.921875 18.109375 30.90625 
L 18.109375 0 
L 9.078125 0 
L 9.078125 54.6875 
L 18.109375 54.6875 
L 18.109375 46.1875 
Q 21.34375 51.125 25.703125 53.5625 
Q 30.078125 56 35.796875 56 
Q 45.21875 56 50.046875 50.171875 
Q 54.890625 44.34375 54.890625 33.015625 
z
" id="DejaVuSans-110"/>
       <path d="M 37.109375 75.984375 
L 37.109375 68.5 
L 28.515625 68.5 
Q 23.6875 68.5 21.796875 66.546875 
Q 19.921875 64.59375 19.921875 59.515625 
L 19.921875 54.6875 
L 34.71875 54.6875 
L 34.71875 47.703125 
L 19.921875 47.703125 
L 19.921875 0 
L 10.890625 0 
L 10.890625 47.703125 
L 2.296875 47.703125 
L 2.296875 54.6875 
L 10.890625 54.6875 
L 10.890625 58.5 
Q 10.890625 67.625 15.140625 71.796875 
Q 19.390625 75.984375 28.609375 75.984375 
z
" id="DejaVuSans-102"/>
       <path d="M 5.515625 54.6875 
L 48.1875 54.6875 
L 48.1875 46.484375 
L 14.40625 7.171875 
L 48.1875 7.171875 
L 48.1875 0 
L 4.296875 0 
L 4.296875 8.203125 
L 38.09375 47.515625 
L 5.515625 47.515625 
z
" id="DejaVuSans-122"/>
       <path d="M 9.421875 75.984375 
L 18.40625 75.984375 
L 18.40625 0 
L 9.421875 0 
z
" id="DejaVuSans-108"/>
       <path d="M 8.5 21.578125 
L 8.5 54.6875 
L 17.484375 54.6875 
L 17.484375 21.921875 
Q 17.484375 14.15625 20.5 10.265625 
Q 23.53125 6.390625 29.59375 6.390625 
Q 36.859375 6.390625 41.078125 11.03125 
Q 45.3125 15.671875 45.3125 23.6875 
L 45.3125 54.6875 
L 54.296875 54.6875 
L 54.296875 0 
L 45.3125 0 
L 45.3125 8.40625 
Q 42.046875 3.421875 37.71875 1 
Q 33.40625 -1.421875 27.6875 -1.421875 
Q 18.265625 -1.421875 13.375 4.4375 
Q 8.5 10.296875 8.5 21.578125 
z
M 31.109375 56 
z
" id="DejaVuSans-117"/>
       <path d="M 44.28125 53.078125 
L 44.28125 44.578125 
Q 40.484375 46.53125 36.375 47.5 
Q 32.28125 48.484375 27.875 48.484375 
Q 21.1875 48.484375 17.84375 46.4375 
Q 14.5 44.390625 14.5 40.28125 
Q 14.5 37.15625 16.890625 35.375 
Q 19.28125 33.59375 26.515625 31.984375 
L 29.59375 31.296875 
Q 39.15625 29.25 43.1875 25.515625 
Q 47.21875 21.78125 47.21875 15.09375 
Q 47.21875 7.46875 41.1875 3.015625 
Q 35.15625 -1.421875 24.609375 -1.421875 
Q 20.21875 -1.421875 15.453125 -0.5625 
Q 10.6875 0.296875 5.421875 2 
L 5.421875 11.28125 
Q 10.40625 8.6875 15.234375 7.390625 
Q 20.0625 6.109375 24.8125 6.109375 
Q 31.15625 6.109375 34.5625 8.28125 
Q 37.984375 10.453125 37.984375 14.40625 
Q 37.984375 18.0625 35.515625 20.015625 
Q 33.0625 21.96875 24.703125 23.78125 
L 21.578125 24.515625 
Q 13.234375 26.265625 9.515625 29.90625 
Q 5.8125 33.546875 5.8125 39.890625 
Q 5.8125 47.609375 11.28125 51.796875 
Q 16.75 56 26.8125 56 
Q 31.78125 56 36.171875 55.265625 
Q 40.578125 54.546875 44.28125 53.078125 
z
" id="DejaVuSans-115"/>
       <path d="M 45.40625 27.984375 
Q 45.40625 37.75 41.375 43.109375 
Q 37.359375 48.484375 30.078125 48.484375 
Q 22.859375 48.484375 18.828125 43.109375 
Q 14.796875 37.75 14.796875 27.984375 
Q 14.796875 18.265625 18.828125 12.890625 
Q 22.859375 7.515625 30.078125 7.515625 
Q 37.359375 7.515625 41.375 12.890625 
Q 45.40625 18.265625 45.40625 27.984375 
z
M 54.390625 6.78125 
Q 54.390625 -7.171875 48.1875 -13.984375 
Q 42 -20.796875 29.203125 -20.796875 
Q 24.46875 -20.796875 20.265625 -20.09375 
Q 16.0625 -19.390625 12.109375 -17.921875 
L 12.109375 -9.1875 
Q 16.0625 -11.328125 19.921875 -12.34375 
Q 23.78125 -13.375 27.78125 -13.375 
Q 36.625 -13.375 41.015625 -8.765625 
Q 45.40625 -4.15625 45.40625 5.171875 
L 45.40625 9.625 
Q 42.625 4.78125 38.28125 2.390625 
Q 33.9375 0 27.875 0 
Q 17.828125 0 11.671875 7.65625 
Q 5.515625 15.328125 5.515625 27.984375 
Q 5.515625 40.671875 11.671875 48.328125 
Q 17.828125 56 27.875 56 
Q 33.9375 56 38.28125 53.609375 
Q 42.625 51.21875 45.40625 46.390625 
L 45.40625 54.6875 
L 54.390625 54.6875 
z
" id="DejaVuSans-103"/>
       <path d="M 17.921875 72.90625 
L 17.921875 45.796875 
L 9.625 45.796875 
L 9.625 72.90625 
z
" id="DejaVuSans-39"/>
       <path d="M 48.78125 52.59375 
L 48.78125 44.1875 
Q 44.96875 46.296875 41.140625 47.34375 
Q 37.3125 48.390625 33.40625 48.390625 
Q 24.65625 48.390625 19.8125 42.84375 
Q 14.984375 37.3125 14.984375 27.296875 
Q 14.984375 17.28125 19.8125 11.734375 
Q 24.65625 6.203125 33.40625 6.203125 
Q 37.3125 6.203125 41.140625 7.25 
Q 44.96875 8.296875 48.78125 10.40625 
L 48.78125 2.09375 
Q 45.015625 0.34375 40.984375 -0.53125 
Q 36.96875 -1.421875 32.421875 -1.421875 
Q 20.0625 -1.421875 12.78125 6.34375 
Q 5.515625 14.109375 5.515625 27.296875 
Q 5.515625 40.671875 12.859375 48.328125 
Q 20.21875 56 33.015625 56 
Q 37.15625 56 41.109375 55.140625 
Q 45.0625 54.296875 48.78125 52.59375 
z
" id="DejaVuSans-99"/>
      </defs>
      <use xlink:href="#DejaVuSans-88"/>
      <use x="68.505859" xlink:href="#DejaVuSans-97"/>
      <use x="129.785156" xlink:href="#DejaVuSans-118"/>
      <use x="188.964844" xlink:href="#DejaVuSans-105"/>
      <use x="216.748047" xlink:href="#DejaVuSans-101"/>
      <use x="278.271484" xlink:href="#DejaVuSans-114"/>
      <use x="319.384766" xlink:href="#DejaVuSans-32"/>
      <use x="351.171875" xlink:href="#DejaVuSans-78"/>
      <use x="425.976562" xlink:href="#DejaVuSans-97"/>
      <use x="487.255859" xlink:href="#DejaVuSans-105"/>
      <use x="515.039062" xlink:href="#DejaVuSans-100"/>
      <use x="578.515625" xlink:href="#DejaVuSans-111"/>
      <use x="639.697266" xlink:href="#DejaVuSans-111"/>
      <use x="700.878906" xlink:href="#DejaVuSans-32"/>
      <use x="732.666016" xlink:href="#DejaVuSans-105"/>
      <use x="760.449219" xlink:href="#DejaVuSans-110"/>
      <use x="823.828125" xlink:href="#DejaVuSans-111"/>
      <use x="885.009766" xlink:href="#DejaVuSans-102"/>
      <use x="920.214844" xlink:href="#DejaVuSans-102"/>
      <use x="955.419922" xlink:href="#DejaVuSans-105"/>
      <use x="983.203125" xlink:href="#DejaVuSans-122"/>
      <use x="1035.693359" xlink:href="#DejaVuSans-105"/>
      <use x="1063.476562" xlink:href="#DejaVuSans-101"/>
      <use x="1125" xlink:href="#DejaVuSans-108"/>
      <use x="1152.783203" xlink:href="#DejaVuSans-108"/>
      <use x="1180.566406" xlink:href="#DejaVuSans-32"/>
      <use x="1212.353516" xlink:href="#DejaVuSans-117"/>
      <use x="1275.732422" xlink:href="#DejaVuSans-115"/>
      <use x="1327.832031" xlink:href="#DejaVuSans-97"/>
      <use x="1389.111328" xlink:href="#DejaVuSans-103"/>
      <use x="1452.587891" xlink:href="#DejaVuSans-101"/>
      <use x="1514.111328" xlink:href="#DejaVuSans-115"/>
      <use x="1566.210938" xlink:href="#DejaVuSans-32"/>
      <use x="1597.998047" xlink:href="#DejaVuSans-111"/>
      <use x="1659.179688" xlink:href="#DejaVuSans-102"/>
      <use x="1694.384766" xlink:href="#DejaVuSans-32"/>
      <use x="1726.171875" xlink:href="#DejaVuSans-39"/>
      <use x="1753.662109" xlink:href="#DejaVuSans-99"/>
      <use x="1808.642578" xlink:href="#DejaVuSans-100"/>
      <use x="1872.119141" xlink:href="#DejaVuSans-117"/>
      <use x="1935.498047" xlink:href="#DejaVuSans-39"/>
     </g>
    </g>
    <g id="line2d_44">
     <path d="M 155.7 113.869531 
L 181.7 113.869531 
" style="fill:none;stroke:#348abd;stroke-linecap:square;stroke-width:1.5;"/>
    </g>
    <g id="line2d_45"/>
    <g id="text_19">
     <!-- Xavier Naidoo inoffiziell usages of 'spd' -->
     <g transform="translate(192.1 118.419531)scale(0.13 -0.13)">
      <defs>
       <path d="M 18.109375 8.203125 
L 18.109375 -20.796875 
L 9.078125 -20.796875 
L 9.078125 54.6875 
L 18.109375 54.6875 
L 18.109375 46.390625 
Q 20.953125 51.265625 25.265625 53.625 
Q 29.59375 56 35.59375 56 
Q 45.5625 56 51.78125 48.09375 
Q 58.015625 40.1875 58.015625 27.296875 
Q 58.015625 14.40625 51.78125 6.484375 
Q 45.5625 -1.421875 35.59375 -1.421875 
Q 29.59375 -1.421875 25.265625 0.953125 
Q 20.953125 3.328125 18.109375 8.203125 
z
M 48.6875 27.296875 
Q 48.6875 37.203125 44.609375 42.84375 
Q 40.53125 48.484375 33.40625 48.484375 
Q 26.265625 48.484375 22.1875 42.84375 
Q 18.109375 37.203125 18.109375 27.296875 
Q 18.109375 17.390625 22.1875 11.75 
Q 26.265625 6.109375 33.40625 6.109375 
Q 40.53125 6.109375 44.609375 11.75 
Q 48.6875 17.390625 48.6875 27.296875 
z
" id="DejaVuSans-112"/>
      </defs>
      <use xlink:href="#DejaVuSans-88"/>
      <use x="68.505859" xlink:href="#DejaVuSans-97"/>
      <use x="129.785156" xlink:href="#DejaVuSans-118"/>
      <use x="188.964844" xlink:href="#DejaVuSans-105"/>
      <use x="216.748047" xlink:href="#DejaVuSans-101"/>
      <use x="278.271484" xlink:href="#DejaVuSans-114"/>
      <use x="319.384766" xlink:href="#DejaVuSans-32"/>
      <use x="351.171875" xlink:href="#DejaVuSans-78"/>
      <use x="425.976562" xlink:href="#DejaVuSans-97"/>
      <use x="487.255859" xlink:href="#DejaVuSans-105"/>
      <use x="515.039062" xlink:href="#DejaVuSans-100"/>
      <use x="578.515625" xlink:href="#DejaVuSans-111"/>
      <use x="639.697266" xlink:href="#DejaVuSans-111"/>
      <use x="700.878906" xlink:href="#DejaVuSans-32"/>
      <use x="732.666016" xlink:href="#DejaVuSans-105"/>
      <use x="760.449219" xlink:href="#DejaVuSans-110"/>
      <use x="823.828125" xlink:href="#DejaVuSans-111"/>
      <use x="885.009766" xlink:href="#DejaVuSans-102"/>
      <use x="920.214844" xlink:href="#DejaVuSans-102"/>
      <use x="955.419922" xlink:href="#DejaVuSans-105"/>
      <use x="983.203125" xlink:href="#DejaVuSans-122"/>
      <use x="1035.693359" xlink:href="#DejaVuSans-105"/>
      <use x="1063.476562" xlink:href="#DejaVuSans-101"/>
      <use x="1125" xlink:href="#DejaVuSans-108"/>
      <use x="1152.783203" xlink:href="#DejaVuSans-108"/>
      <use x="1180.566406" xlink:href="#DejaVuSans-32"/>
      <use x="1212.353516" xlink:href="#DejaVuSans-117"/>
      <use x="1275.732422" xlink:href="#DejaVuSans-115"/>
      <use x="1327.832031" xlink:href="#DejaVuSans-97"/>
      <use x="1389.111328" xlink:href="#DejaVuSans-103"/>
      <use x="1452.587891" xlink:href="#DejaVuSans-101"/>
      <use x="1514.111328" xlink:href="#DejaVuSans-115"/>
      <use x="1566.210938" xlink:href="#DejaVuSans-32"/>
      <use x="1597.998047" xlink:href="#DejaVuSans-111"/>
      <use x="1659.179688" xlink:href="#DejaVuSans-102"/>
      <use x="1694.384766" xlink:href="#DejaVuSans-32"/>
      <use x="1726.171875" xlink:href="#DejaVuSans-39"/>
      <use x="1753.662109" xlink:href="#DejaVuSans-115"/>
      <use x="1805.761719" xlink:href="#DejaVuSans-112"/>
      <use x="1869.238281" xlink:href="#DejaVuSans-100"/>
      <use x="1932.714844" xlink:href="#DejaVuSans-39"/>
     </g>
    </g>
    <g id="line2d_46">
     <path d="M 155.7 132.951094 
L 181.7 132.951094 
" style="fill:none;stroke:#988ed5;stroke-linecap:square;stroke-width:1.5;"/>
    </g>
    <g id="line2d_47"/>
    <g id="text_20">
     <!-- Xavier Naidoo inoffiziell usages of 'afd' -->
     <g transform="translate(192.1 137.501094)scale(0.13 -0.13)">
      <use xlink:href="#DejaVuSans-88"/>
      <use x="68.505859" xlink:href="#DejaVuSans-97"/>
      <use x="129.785156" xlink:href="#DejaVuSans-118"/>
      <use x="188.964844" xlink:href="#DejaVuSans-105"/>
      <use x="216.748047" xlink:href="#DejaVuSans-101"/>
      <use x="278.271484" xlink:href="#DejaVuSans-114"/>
      <use x="319.384766" xlink:href="#DejaVuSans-32"/>
      <use x="351.171875" xlink:href="#DejaVuSans-78"/>
      <use x="425.976562" xlink:href="#DejaVuSans-97"/>
      <use x="487.255859" xlink:href="#DejaVuSans-105"/>
      <use x="515.039062" xlink:href="#DejaVuSans-100"/>
      <use x="578.515625" xlink:href="#DejaVuSans-111"/>
      <use x="639.697266" xlink:href="#DejaVuSans-111"/>
      <use x="700.878906" xlink:href="#DejaVuSans-32"/>
      <use x="732.666016" xlink:href="#DejaVuSans-105"/>
      <use x="760.449219" xlink:href="#DejaVuSans-110"/>
      <use x="823.828125" xlink:href="#DejaVuSans-111"/>
      <use x="885.009766" xlink:href="#DejaVuSans-102"/>
      <use x="920.214844" xlink:href="#DejaVuSans-102"/>
      <use x="955.419922" xlink:href="#DejaVuSans-105"/>
      <use x="983.203125" xlink:href="#DejaVuSans-122"/>
      <use x="1035.693359" xlink:href="#DejaVuSans-105"/>
      <use x="1063.476562" xlink:href="#DejaVuSans-101"/>
      <use x="1125" xlink:href="#DejaVuSans-108"/>
      <use x="1152.783203" xlink:href="#DejaVuSans-108"/>
      <use x="1180.566406" xlink:href="#DejaVuSans-32"/>
      <use x="1212.353516" xlink:href="#DejaVuSans-117"/>
      <use x="1275.732422" xlink:href="#DejaVuSans-115"/>
      <use x="1327.832031" xlink:href="#DejaVuSans-97"/>
      <use x="1389.111328" xlink:href="#DejaVuSans-103"/>
      <use x="1452.587891" xlink:href="#DejaVuSans-101"/>
      <use x="1514.111328" xlink:href="#DejaVuSans-115"/>
      <use x="1566.210938" xlink:href="#DejaVuSans-32"/>
      <use x="1597.998047" xlink:href="#DejaVuSans-111"/>
      <use x="1659.179688" xlink:href="#DejaVuSans-102"/>
      <use x="1694.384766" xlink:href="#DejaVuSans-32"/>
      <use x="1726.171875" xlink:href="#DejaVuSans-39"/>
      <use x="1753.662109" xlink:href="#DejaVuSans-97"/>
      <use x="1814.941406" xlink:href="#DejaVuSans-102"/>
      <use x="1850.146484" xlink:href="#DejaVuSans-100"/>
      <use x="1913.623047" xlink:href="#DejaVuSans-39"/>
     </g>
    </g>
    <g id="line2d_48">
     <path d="M 155.7 152.032656 
L 181.7 152.032656 
" style="fill:none;stroke:#777777;stroke-linecap:square;stroke-width:1.5;"/>
    </g>
    <g id="line2d_49"/>
    <g id="text_21">
     <!-- Xavier Naidoo inoffiziell usages of 'fdp' -->
     <g transform="translate(192.1 156.582656)scale(0.13 -0.13)">
      <use xlink:href="#DejaVuSans-88"/>
      <use x="68.505859" xlink:href="#DejaVuSans-97"/>
      <use x="129.785156" xlink:href="#DejaVuSans-118"/>
      <use x="188.964844" xlink:href="#DejaVuSans-105"/>
      <use x="216.748047" xlink:href="#DejaVuSans-101"/>
      <use x="278.271484" xlink:href="#DejaVuSans-114"/>
      <use x="319.384766" xlink:href="#DejaVuSans-32"/>
      <use x="351.171875" xlink:href="#DejaVuSans-78"/>
      <use x="425.976562" xlink:href="#DejaVuSans-97"/>
      <use x="487.255859" xlink:href="#DejaVuSans-105"/>
      <use x="515.039062" xlink:href="#DejaVuSans-100"/>
      <use x="578.515625" xlink:href="#DejaVuSans-111"/>
      <use x="639.697266" xlink:href="#DejaVuSans-111"/>
      <use x="700.878906" xlink:href="#DejaVuSans-32"/>
      <use x="732.666016" xlink:href="#DejaVuSans-105"/>
      <use x="760.449219" xlink:href="#DejaVuSans-110"/>
      <use x="823.828125" xlink:href="#DejaVuSans-111"/>
      <use x="885.009766" xlink:href="#DejaVuSans-102"/>
      <use x="920.214844" xlink:href="#DejaVuSans-102"/>
      <use x="955.419922" xlink:href="#DejaVuSans-105"/>
      <use x="983.203125" xlink:href="#DejaVuSans-122"/>
      <use x="1035.693359" xlink:href="#DejaVuSans-105"/>
      <use x="1063.476562" xlink:href="#DejaVuSans-101"/>
      <use x="1125" xlink:href="#DejaVuSans-108"/>
      <use x="1152.783203" xlink:href="#DejaVuSans-108"/>
      <use x="1180.566406" xlink:href="#DejaVuSans-32"/>
      <use x="1212.353516" xlink:href="#DejaVuSans-117"/>
      <use x="1275.732422" xlink:href="#DejaVuSans-115"/>
      <use x="1327.832031" xlink:href="#DejaVuSans-97"/>
      <use x="1389.111328" xlink:href="#DejaVuSans-103"/>
      <use x="1452.587891" xlink:href="#DejaVuSans-101"/>
      <use x="1514.111328" xlink:href="#DejaVuSans-115"/>
      <use x="1566.210938" xlink:href="#DejaVuSans-32"/>
      <use x="1597.998047" xlink:href="#DejaVuSans-111"/>
      <use x="1659.179688" xlink:href="#DejaVuSans-102"/>
      <use x="1694.384766" xlink:href="#DejaVuSans-32"/>
      <use x="1726.171875" xlink:href="#DejaVuSans-39"/>
      <use x="1753.662109" xlink:href="#DejaVuSans-102"/>
      <use x="1788.867188" xlink:href="#DejaVuSans-100"/>
      <use x="1852.34375" xlink:href="#DejaVuSans-112"/>
      <use x="1915.820312" xlink:href="#DejaVuSans-39"/>
     </g>
    </g>
    <g id="line2d_50">
     <path d="M 155.7 171.114219 
L 181.7 171.114219 
" style="fill:none;stroke:#fbc15e;stroke-linecap:square;stroke-width:1.5;"/>
    </g>
    <g id="line2d_51"/>
    <g id="text_22">
     <!-- Xavier Naidoo inoffiziell usages of 'linke' -->
     <g transform="translate(192.1 175.664219)scale(0.13 -0.13)">
      <defs>
       <path d="M 9.078125 75.984375 
L 18.109375 75.984375 
L 18.109375 31.109375 
L 44.921875 54.6875 
L 56.390625 54.6875 
L 27.390625 29.109375 
L 57.625 0 
L 45.90625 0 
L 18.109375 26.703125 
L 18.109375 0 
L 9.078125 0 
z
" id="DejaVuSans-107"/>
      </defs>
      <use xlink:href="#DejaVuSans-88"/>
      <use x="68.505859" xlink:href="#DejaVuSans-97"/>
      <use x="129.785156" xlink:href="#DejaVuSans-118"/>
      <use x="188.964844" xlink:href="#DejaVuSans-105"/>
      <use x="216.748047" xlink:href="#DejaVuSans-101"/>
      <use x="278.271484" xlink:href="#DejaVuSans-114"/>
      <use x="319.384766" xlink:href="#DejaVuSans-32"/>
      <use x="351.171875" xlink:href="#DejaVuSans-78"/>
      <use x="425.976562" xlink:href="#DejaVuSans-97"/>
      <use x="487.255859" xlink:href="#DejaVuSans-105"/>
      <use x="515.039062" xlink:href="#DejaVuSans-100"/>
      <use x="578.515625" xlink:href="#DejaVuSans-111"/>
      <use x="639.697266" xlink:href="#DejaVuSans-111"/>
      <use x="700.878906" xlink:href="#DejaVuSans-32"/>
      <use x="732.666016" xlink:href="#DejaVuSans-105"/>
      <use x="760.449219" xlink:href="#DejaVuSans-110"/>
      <use x="823.828125" xlink:href="#DejaVuSans-111"/>
      <use x="885.009766" xlink:href="#DejaVuSans-102"/>
      <use x="920.214844" xlink:href="#DejaVuSans-102"/>
      <use x="955.419922" xlink:href="#DejaVuSans-105"/>
      <use x="983.203125" xlink:href="#DejaVuSans-122"/>
      <use x="1035.693359" xlink:href="#DejaVuSans-105"/>
      <use x="1063.476562" xlink:href="#DejaVuSans-101"/>
      <use x="1125" xlink:href="#DejaVuSans-108"/>
      <use x="1152.783203" xlink:href="#DejaVuSans-108"/>
      <use x="1180.566406" xlink:href="#DejaVuSans-32"/>
      <use x="1212.353516" xlink:href="#DejaVuSans-117"/>
      <use x="1275.732422" xlink:href="#DejaVuSans-115"/>
      <use x="1327.832031" xlink:href="#DejaVuSans-97"/>
      <use x="1389.111328" xlink:href="#DejaVuSans-103"/>
      <use x="1452.587891" xlink:href="#DejaVuSans-101"/>
      <use x="1514.111328" xlink:href="#DejaVuSans-115"/>
      <use x="1566.210938" xlink:href="#DejaVuSans-32"/>
      <use x="1597.998047" xlink:href="#DejaVuSans-111"/>
      <use x="1659.179688" xlink:href="#DejaVuSans-102"/>
      <use x="1694.384766" xlink:href="#DejaVuSans-32"/>
      <use x="1726.171875" xlink:href="#DejaVuSans-39"/>
      <use x="1753.662109" xlink:href="#DejaVuSans-108"/>
      <use x="1781.445312" xlink:href="#DejaVuSans-105"/>
      <use x="1809.228516" xlink:href="#DejaVuSans-110"/>
      <use x="1872.607422" xlink:href="#DejaVuSans-107"/>
      <use x="1926.892578" xlink:href="#DejaVuSans-101"/>
      <use x="1988.416016" xlink:href="#DejaVuSans-39"/>
     </g>
    </g>
    <g id="line2d_52">
     <path d="M 155.7 190.195781 
L 181.7 190.195781 
" style="fill:none;stroke:#8eba42;stroke-linecap:square;stroke-width:1.5;"/>
    </g>
    <g id="line2d_53"/>
    <g id="text_23">
     <!-- Xavier Naidoo inoffiziell usages of 'gruenen' -->
     <g transform="translate(192.1 194.745781)scale(0.13 -0.13)">
      <use xlink:href="#DejaVuSans-88"/>
      <use x="68.505859" xlink:href="#DejaVuSans-97"/>
      <use x="129.785156" xlink:href="#DejaVuSans-118"/>
      <use x="188.964844" xlink:href="#DejaVuSans-105"/>
      <use x="216.748047" xlink:href="#DejaVuSans-101"/>
      <use x="278.271484" xlink:href="#DejaVuSans-114"/>
      <use x="319.384766" xlink:href="#DejaVuSans-32"/>
      <use x="351.171875" xlink:href="#DejaVuSans-78"/>
      <use x="425.976562" xlink:href="#DejaVuSans-97"/>
      <use x="487.255859" xlink:href="#DejaVuSans-105"/>
      <use x="515.039062" xlink:href="#DejaVuSans-100"/>
      <use x="578.515625" xlink:href="#DejaVuSans-111"/>
      <use x="639.697266" xlink:href="#DejaVuSans-111"/>
      <use x="700.878906" xlink:href="#DejaVuSans-32"/>
      <use x="732.666016" xlink:href="#DejaVuSans-105"/>
      <use x="760.449219" xlink:href="#DejaVuSans-110"/>
      <use x="823.828125" xlink:href="#DejaVuSans-111"/>
      <use x="885.009766" xlink:href="#DejaVuSans-102"/>
      <use x="920.214844" xlink:href="#DejaVuSans-102"/>
      <use x="955.419922" xlink:href="#DejaVuSans-105"/>
      <use x="983.203125" xlink:href="#DejaVuSans-122"/>
      <use x="1035.693359" xlink:href="#DejaVuSans-105"/>
      <use x="1063.476562" xlink:href="#DejaVuSans-101"/>
      <use x="1125" xlink:href="#DejaVuSans-108"/>
      <use x="1152.783203" xlink:href="#DejaVuSans-108"/>
      <use x="1180.566406" xlink:href="#DejaVuSans-32"/>
      <use x="1212.353516" xlink:href="#DejaVuSans-117"/>
      <use x="1275.732422" xlink:href="#DejaVuSans-115"/>
      <use x="1327.832031" xlink:href="#DejaVuSans-97"/>
      <use x="1389.111328" xlink:href="#DejaVuSans-103"/>
      <use x="1452.587891" xlink:href="#DejaVuSans-101"/>
      <use x="1514.111328" xlink:href="#DejaVuSans-115"/>
      <use x="1566.210938" xlink:href="#DejaVuSans-32"/>
      <use x="1597.998047" xlink:href="#DejaVuSans-111"/>
      <use x="1659.179688" xlink:href="#DejaVuSans-102"/>
      <use x="1694.384766" xlink:href="#DejaVuSans-32"/>
      <use x="1726.171875" xlink:href="#DejaVuSans-39"/>
      <use x="1753.662109" xlink:href="#DejaVuSans-103"/>
      <use x="1817.138672" xlink:href="#DejaVuSans-114"/>
      <use x="1858.251953" xlink:href="#DejaVuSans-117"/>
      <use x="1921.630859" xlink:href="#DejaVuSans-101"/>
      <use x="1983.154297" xlink:href="#DejaVuSans-110"/>
      <use x="2046.533203" xlink:href="#DejaVuSans-101"/>
      <use x="2108.056641" xlink:href="#DejaVuSans-110"/>
      <use x="2171.435547" xlink:href="#DejaVuSans-39"/>
     </g>
    </g>
    <g id="line2d_54">
     <path d="M 155.7 209.277344 
L 181.7 209.277344 
" style="fill:none;stroke:#ffb5b8;stroke-linecap:square;stroke-width:1.5;"/>
    </g>
    <g id="line2d_55"/>
    <g id="text_24">
     <!-- Xavier Naidoo inoffiziell usages of 'merkel' -->
     <g transform="translate(192.1 213.827344)scale(0.13 -0.13)">
      <defs>
       <path d="M 52 44.1875 
Q 55.375 50.25 60.0625 53.125 
Q 64.75 56 71.09375 56 
Q 79.640625 56 84.28125 50.015625 
Q 88.921875 44.046875 88.921875 33.015625 
L 88.921875 0 
L 79.890625 0 
L 79.890625 32.71875 
Q 79.890625 40.578125 77.09375 44.375 
Q 74.3125 48.1875 68.609375 48.1875 
Q 61.625 48.1875 57.5625 43.546875 
Q 53.515625 38.921875 53.515625 30.90625 
L 53.515625 0 
L 44.484375 0 
L 44.484375 32.71875 
Q 44.484375 40.625 41.703125 44.40625 
Q 38.921875 48.1875 33.109375 48.1875 
Q 26.21875 48.1875 22.15625 43.53125 
Q 18.109375 38.875 18.109375 30.90625 
L 18.109375 0 
L 9.078125 0 
L 9.078125 54.6875 
L 18.109375 54.6875 
L 18.109375 46.1875 
Q 21.1875 51.21875 25.484375 53.609375 
Q 29.78125 56 35.6875 56 
Q 41.65625 56 45.828125 52.96875 
Q 50 49.953125 52 44.1875 
z
" id="DejaVuSans-109"/>
      </defs>
      <use xlink:href="#DejaVuSans-88"/>
      <use x="68.505859" xlink:href="#DejaVuSans-97"/>
      <use x="129.785156" xlink:href="#DejaVuSans-118"/>
      <use x="188.964844" xlink:href="#DejaVuSans-105"/>
      <use x="216.748047" xlink:href="#DejaVuSans-101"/>
      <use x="278.271484" xlink:href="#DejaVuSans-114"/>
      <use x="319.384766" xlink:href="#DejaVuSans-32"/>
      <use x="351.171875" xlink:href="#DejaVuSans-78"/>
      <use x="425.976562" xlink:href="#DejaVuSans-97"/>
      <use x="487.255859" xlink:href="#DejaVuSans-105"/>
      <use x="515.039062" xlink:href="#DejaVuSans-100"/>
      <use x="578.515625" xlink:href="#DejaVuSans-111"/>
      <use x="639.697266" xlink:href="#DejaVuSans-111"/>
      <use x="700.878906" xlink:href="#DejaVuSans-32"/>
      <use x="732.666016" xlink:href="#DejaVuSans-105"/>
      <use x="760.449219" xlink:href="#DejaVuSans-110"/>
      <use x="823.828125" xlink:href="#DejaVuSans-111"/>
      <use x="885.009766" xlink:href="#DejaVuSans-102"/>
      <use x="920.214844" xlink:href="#DejaVuSans-102"/>
      <use x="955.419922" xlink:href="#DejaVuSans-105"/>
      <use x="983.203125" xlink:href="#DejaVuSans-122"/>
      <use x="1035.693359" xlink:href="#DejaVuSans-105"/>
      <use x="1063.476562" xlink:href="#DejaVuSans-101"/>
      <use x="1125" xlink:href="#DejaVuSans-108"/>
      <use x="1152.783203" xlink:href="#DejaVuSans-108"/>
      <use x="1180.566406" xlink:href="#DejaVuSans-32"/>
      <use x="1212.353516" xlink:href="#DejaVuSans-117"/>
      <use x="1275.732422" xlink:href="#DejaVuSans-115"/>
      <use x="1327.832031" xlink:href="#DejaVuSans-97"/>
      <use x="1389.111328" xlink:href="#DejaVuSans-103"/>
      <use x="1452.587891" xlink:href="#DejaVuSans-101"/>
      <use x="1514.111328" xlink:href="#DejaVuSans-115"/>
      <use x="1566.210938" xlink:href="#DejaVuSans-32"/>
      <use x="1597.998047" xlink:href="#DejaVuSans-111"/>
      <use x="1659.179688" xlink:href="#DejaVuSans-102"/>
      <use x="1694.384766" xlink:href="#DejaVuSans-32"/>
      <use x="1726.171875" xlink:href="#DejaVuSans-39"/>
      <use x="1753.662109" xlink:href="#DejaVuSans-109"/>
      <use x="1851.074219" xlink:href="#DejaVuSans-101"/>
      <use x="1912.597656" xlink:href="#DejaVuSans-114"/>
      <use x="1953.710938" xlink:href="#DejaVuSans-107"/>
      <use x="2007.996094" xlink:href="#DejaVuSans-101"/>
      <use x="2069.519531" xlink:href="#DejaVuSans-108"/>
      <use x="2097.302734" xlink:href="#DejaVuSans-39"/>
     </g>
    </g>
    <g id="line2d_56">
     <path d="M 155.7 228.358906 
L 181.7 228.358906 
" style="fill:none;stroke:#ffa500;stroke-dasharray:5.55,2.4;stroke-dashoffset:0;stroke-width:1.5;"/>
    </g>
    <g id="text_25">
     <!-- Global Compact for Migration (10.12.2018) -->
     <g transform="translate(192.1 232.908906)scale(0.13 -0.13)">
      <defs>
       <path d="M 59.515625 10.40625 
L 59.515625 29.984375 
L 43.40625 29.984375 
L 43.40625 38.09375 
L 69.28125 38.09375 
L 69.28125 6.78125 
Q 63.578125 2.734375 56.6875 0.65625 
Q 49.8125 -1.421875 42 -1.421875 
Q 24.90625 -1.421875 15.25 8.5625 
Q 5.609375 18.5625 5.609375 36.375 
Q 5.609375 54.25 15.25 64.234375 
Q 24.90625 74.21875 42 74.21875 
Q 49.125 74.21875 55.546875 72.453125 
Q 61.96875 70.703125 67.390625 67.28125 
L 67.390625 56.78125 
Q 61.921875 61.421875 55.765625 63.765625 
Q 49.609375 66.109375 42.828125 66.109375 
Q 29.4375 66.109375 22.71875 58.640625 
Q 16.015625 51.171875 16.015625 36.375 
Q 16.015625 21.625 22.71875 14.15625 
Q 29.4375 6.6875 42.828125 6.6875 
Q 48.046875 6.6875 52.140625 7.59375 
Q 56.25 8.5 59.515625 10.40625 
z
" id="DejaVuSans-71"/>
       <path d="M 48.6875 27.296875 
Q 48.6875 37.203125 44.609375 42.84375 
Q 40.53125 48.484375 33.40625 48.484375 
Q 26.265625 48.484375 22.1875 42.84375 
Q 18.109375 37.203125 18.109375 27.296875 
Q 18.109375 17.390625 22.1875 11.75 
Q 26.265625 6.109375 33.40625 6.109375 
Q 40.53125 6.109375 44.609375 11.75 
Q 48.6875 17.390625 48.6875 27.296875 
z
M 18.109375 46.390625 
Q 20.953125 51.265625 25.265625 53.625 
Q 29.59375 56 35.59375 56 
Q 45.5625 56 51.78125 48.09375 
Q 58.015625 40.1875 58.015625 27.296875 
Q 58.015625 14.40625 51.78125 6.484375 
Q 45.5625 -1.421875 35.59375 -1.421875 
Q 29.59375 -1.421875 25.265625 0.953125 
Q 20.953125 3.328125 18.109375 8.203125 
L 18.109375 0 
L 9.078125 0 
L 9.078125 75.984375 
L 18.109375 75.984375 
z
" id="DejaVuSans-98"/>
       <path d="M 64.40625 67.28125 
L 64.40625 56.890625 
Q 59.421875 61.53125 53.78125 63.8125 
Q 48.140625 66.109375 41.796875 66.109375 
Q 29.296875 66.109375 22.65625 58.46875 
Q 16.015625 50.828125 16.015625 36.375 
Q 16.015625 21.96875 22.65625 14.328125 
Q 29.296875 6.6875 41.796875 6.6875 
Q 48.140625 6.6875 53.78125 8.984375 
Q 59.421875 11.28125 64.40625 15.921875 
L 64.40625 5.609375 
Q 59.234375 2.09375 53.4375 0.328125 
Q 47.65625 -1.421875 41.21875 -1.421875 
Q 24.65625 -1.421875 15.125 8.703125 
Q 5.609375 18.84375 5.609375 36.375 
Q 5.609375 53.953125 15.125 64.078125 
Q 24.65625 74.21875 41.21875 74.21875 
Q 47.75 74.21875 53.53125 72.484375 
Q 59.328125 70.75 64.40625 67.28125 
z
" id="DejaVuSans-67"/>
       <path d="M 18.3125 70.21875 
L 18.3125 54.6875 
L 36.8125 54.6875 
L 36.8125 47.703125 
L 18.3125 47.703125 
L 18.3125 18.015625 
Q 18.3125 11.328125 20.140625 9.421875 
Q 21.96875 7.515625 27.59375 7.515625 
L 36.8125 7.515625 
L 36.8125 0 
L 27.59375 0 
Q 17.1875 0 13.234375 3.875 
Q 9.28125 7.765625 9.28125 18.015625 
L 9.28125 47.703125 
L 2.6875 47.703125 
L 2.6875 54.6875 
L 9.28125 54.6875 
L 9.28125 70.21875 
z
" id="DejaVuSans-116"/>
       <path d="M 9.8125 72.90625 
L 24.515625 72.90625 
L 43.109375 23.296875 
L 61.8125 72.90625 
L 76.515625 72.90625 
L 76.515625 0 
L 66.890625 0 
L 66.890625 64.015625 
L 48.09375 14.015625 
L 38.1875 14.015625 
L 19.390625 64.015625 
L 19.390625 0 
L 9.8125 0 
z
" id="DejaVuSans-77"/>
       <path d="M 31 75.875 
Q 24.46875 64.65625 21.28125 53.65625 
Q 18.109375 42.671875 18.109375 31.390625 
Q 18.109375 20.125 21.3125 9.0625 
Q 24.515625 -2 31 -13.1875 
L 23.1875 -13.1875 
Q 15.875 -1.703125 12.234375 9.375 
Q 8.59375 20.453125 8.59375 31.390625 
Q 8.59375 42.28125 12.203125 53.3125 
Q 15.828125 64.359375 23.1875 75.875 
z
" id="DejaVuSans-40"/>
       <path d="M 10.6875 12.40625 
L 21 12.40625 
L 21 0 
L 10.6875 0 
z
" id="DejaVuSans-46"/>
       <path d="M 8.015625 75.875 
L 15.828125 75.875 
Q 23.140625 64.359375 26.78125 53.3125 
Q 30.421875 42.28125 30.421875 31.390625 
Q 30.421875 20.453125 26.78125 9.375 
Q 23.140625 -1.703125 15.828125 -13.1875 
L 8.015625 -13.1875 
Q 14.5 -2 17.703125 9.0625 
Q 20.90625 20.125 20.90625 31.390625 
Q 20.90625 42.671875 17.703125 53.65625 
Q 14.5 64.65625 8.015625 75.875 
z
" id="DejaVuSans-41"/>
      </defs>
      <use xlink:href="#DejaVuSans-71"/>
      <use x="77.490234" xlink:href="#DejaVuSans-108"/>
      <use x="105.273438" xlink:href="#DejaVuSans-111"/>
      <use x="166.455078" xlink:href="#DejaVuSans-98"/>
      <use x="229.931641" xlink:href="#DejaVuSans-97"/>
      <use x="291.210938" xlink:href="#DejaVuSans-108"/>
      <use x="318.994141" xlink:href="#DejaVuSans-32"/>
      <use x="350.78125" xlink:href="#DejaVuSans-67"/>
      <use x="420.605469" xlink:href="#DejaVuSans-111"/>
      <use x="481.787109" xlink:href="#DejaVuSans-109"/>
      <use x="579.199219" xlink:href="#DejaVuSans-112"/>
      <use x="642.675781" xlink:href="#DejaVuSans-97"/>
      <use x="703.955078" xlink:href="#DejaVuSans-99"/>
      <use x="758.935547" xlink:href="#DejaVuSans-116"/>
      <use x="798.144531" xlink:href="#DejaVuSans-32"/>
      <use x="829.931641" xlink:href="#DejaVuSans-102"/>
      <use x="865.136719" xlink:href="#DejaVuSans-111"/>
      <use x="926.318359" xlink:href="#DejaVuSans-114"/>
      <use x="967.431641" xlink:href="#DejaVuSans-32"/>
      <use x="999.21875" xlink:href="#DejaVuSans-77"/>
      <use x="1085.498047" xlink:href="#DejaVuSans-105"/>
      <use x="1113.28125" xlink:href="#DejaVuSans-103"/>
      <use x="1176.757812" xlink:href="#DejaVuSans-114"/>
      <use x="1217.871094" xlink:href="#DejaVuSans-97"/>
      <use x="1279.150391" xlink:href="#DejaVuSans-116"/>
      <use x="1318.359375" xlink:href="#DejaVuSans-105"/>
      <use x="1346.142578" xlink:href="#DejaVuSans-111"/>
      <use x="1407.324219" xlink:href="#DejaVuSans-110"/>
      <use x="1470.703125" xlink:href="#DejaVuSans-32"/>
      <use x="1502.490234" xlink:href="#DejaVuSans-40"/>
      <use x="1541.503906" xlink:href="#DejaVuSans-49"/>
      <use x="1605.126953" xlink:href="#DejaVuSans-48"/>
      <use x="1668.75" xlink:href="#DejaVuSans-46"/>
      <use x="1700.537109" xlink:href="#DejaVuSans-49"/>
      <use x="1764.160156" xlink:href="#DejaVuSans-50"/>
      <use x="1827.783203" xlink:href="#DejaVuSans-46"/>
      <use x="1859.570312" xlink:href="#DejaVuSans-50"/>
      <use x="1923.193359" xlink:href="#DejaVuSans-48"/>
      <use x="1986.816406" xlink:href="#DejaVuSans-49"/>
      <use x="2050.439453" xlink:href="#DejaVuSans-56"/>
      <use x="2114.0625" xlink:href="#DejaVuSans-41"/>
     </g>
    </g>
    <g id="line2d_57">
     <path d="M 155.7 247.440469 
L 181.7 247.440469 
" style="fill:none;stroke:#808080;stroke-dasharray:5.55,2.4;stroke-dashoffset:0;stroke-width:1.5;"/>
    </g>
    <g id="text_26">
     <!-- COVID-19 Patient Zero Germany (27.01.2020) -->
     <g transform="translate(192.1 251.990469)scale(0.13 -0.13)">
      <defs>
       <path d="M 39.40625 66.21875 
Q 28.65625 66.21875 22.328125 58.203125 
Q 16.015625 50.203125 16.015625 36.375 
Q 16.015625 22.609375 22.328125 14.59375 
Q 28.65625 6.59375 39.40625 6.59375 
Q 50.140625 6.59375 56.421875 14.59375 
Q 62.703125 22.609375 62.703125 36.375 
Q 62.703125 50.203125 56.421875 58.203125 
Q 50.140625 66.21875 39.40625 66.21875 
z
M 39.40625 74.21875 
Q 54.734375 74.21875 63.90625 63.9375 
Q 73.09375 53.65625 73.09375 36.375 
Q 73.09375 19.140625 63.90625 8.859375 
Q 54.734375 -1.421875 39.40625 -1.421875 
Q 24.03125 -1.421875 14.8125 8.828125 
Q 5.609375 19.09375 5.609375 36.375 
Q 5.609375 53.65625 14.8125 63.9375 
Q 24.03125 74.21875 39.40625 74.21875 
z
" id="DejaVuSans-79"/>
       <path d="M 28.609375 0 
L 0.78125 72.90625 
L 11.078125 72.90625 
L 34.1875 11.53125 
L 57.328125 72.90625 
L 67.578125 72.90625 
L 39.796875 0 
z
" id="DejaVuSans-86"/>
       <path d="M 9.8125 72.90625 
L 19.671875 72.90625 
L 19.671875 0 
L 9.8125 0 
z
" id="DejaVuSans-73"/>
       <path d="M 19.671875 64.796875 
L 19.671875 8.109375 
L 31.59375 8.109375 
Q 46.6875 8.109375 53.6875 14.9375 
Q 60.6875 21.78125 60.6875 36.53125 
Q 60.6875 51.171875 53.6875 57.984375 
Q 46.6875 64.796875 31.59375 64.796875 
z
M 9.8125 72.90625 
L 30.078125 72.90625 
Q 51.265625 72.90625 61.171875 64.09375 
Q 71.09375 55.28125 71.09375 36.53125 
Q 71.09375 17.671875 61.125 8.828125 
Q 51.171875 0 30.078125 0 
L 9.8125 0 
z
" id="DejaVuSans-68"/>
       <path d="M 19.671875 64.796875 
L 19.671875 37.40625 
L 32.078125 37.40625 
Q 38.96875 37.40625 42.71875 40.96875 
Q 46.484375 44.53125 46.484375 51.125 
Q 46.484375 57.671875 42.71875 61.234375 
Q 38.96875 64.796875 32.078125 64.796875 
z
M 9.8125 72.90625 
L 32.078125 72.90625 
Q 44.34375 72.90625 50.609375 67.359375 
Q 56.890625 61.8125 56.890625 51.125 
Q 56.890625 40.328125 50.609375 34.8125 
Q 44.34375 29.296875 32.078125 29.296875 
L 19.671875 29.296875 
L 19.671875 0 
L 9.8125 0 
z
" id="DejaVuSans-80"/>
       <path d="M 5.609375 72.90625 
L 62.890625 72.90625 
L 62.890625 65.375 
L 16.796875 8.296875 
L 64.015625 8.296875 
L 64.015625 0 
L 4.5 0 
L 4.5 7.515625 
L 50.59375 64.59375 
L 5.609375 64.59375 
z
" id="DejaVuSans-90"/>
       <path d="M 32.171875 -5.078125 
Q 28.375 -14.84375 24.75 -17.8125 
Q 21.140625 -20.796875 15.09375 -20.796875 
L 7.90625 -20.796875 
L 7.90625 -13.28125 
L 13.1875 -13.28125 
Q 16.890625 -13.28125 18.9375 -11.515625 
Q 21 -9.765625 23.484375 -3.21875 
L 25.09375 0.875 
L 2.984375 54.6875 
L 12.5 54.6875 
L 29.59375 11.921875 
L 46.6875 54.6875 
L 56.203125 54.6875 
z
" id="DejaVuSans-121"/>
      </defs>
      <use xlink:href="#DejaVuSans-67"/>
      <use x="69.824219" xlink:href="#DejaVuSans-79"/>
      <use x="146.785156" xlink:href="#DejaVuSans-86"/>
      <use x="215.193359" xlink:href="#DejaVuSans-73"/>
      <use x="244.685547" xlink:href="#DejaVuSans-68"/>
      <use x="321.6875" xlink:href="#DejaVuSans-45"/>
      <use x="357.771484" xlink:href="#DejaVuSans-49"/>
      <use x="421.394531" xlink:href="#DejaVuSans-57"/>
      <use x="485.017578" xlink:href="#DejaVuSans-32"/>
      <use x="516.804688" xlink:href="#DejaVuSans-80"/>
      <use x="572.607422" xlink:href="#DejaVuSans-97"/>
      <use x="633.886719" xlink:href="#DejaVuSans-116"/>
      <use x="673.095703" xlink:href="#DejaVuSans-105"/>
      <use x="700.878906" xlink:href="#DejaVuSans-101"/>
      <use x="762.402344" xlink:href="#DejaVuSans-110"/>
      <use x="825.78125" xlink:href="#DejaVuSans-116"/>
      <use x="864.990234" xlink:href="#DejaVuSans-32"/>
      <use x="896.777344" xlink:href="#DejaVuSans-90"/>
      <use x="965.283203" xlink:href="#DejaVuSans-101"/>
      <use x="1026.806641" xlink:href="#DejaVuSans-114"/>
      <use x="1065.669922" xlink:href="#DejaVuSans-111"/>
      <use x="1126.851562" xlink:href="#DejaVuSans-32"/>
      <use x="1158.638672" xlink:href="#DejaVuSans-71"/>
      <use x="1236.128906" xlink:href="#DejaVuSans-101"/>
      <use x="1297.652344" xlink:href="#DejaVuSans-114"/>
      <use x="1337.015625" xlink:href="#DejaVuSans-109"/>
      <use x="1434.427734" xlink:href="#DejaVuSans-97"/>
      <use x="1495.707031" xlink:href="#DejaVuSans-110"/>
      <use x="1559.085938" xlink:href="#DejaVuSans-121"/>
      <use x="1618.265625" xlink:href="#DejaVuSans-32"/>
      <use x="1650.052734" xlink:href="#DejaVuSans-40"/>
      <use x="1689.066406" xlink:href="#DejaVuSans-50"/>
      <use x="1752.689453" xlink:href="#DejaVuSans-55"/>
      <use x="1816.3125" xlink:href="#DejaVuSans-46"/>
      <use x="1848.099609" xlink:href="#DejaVuSans-48"/>
      <use x="1911.722656" xlink:href="#DejaVuSans-49"/>
      <use x="1975.345703" xlink:href="#DejaVuSans-46"/>
      <use x="2007.132812" xlink:href="#DejaVuSans-50"/>
      <use x="2070.755859" xlink:href="#DejaVuSans-48"/>
      <use x="2134.378906" xlink:href="#DejaVuSans-50"/>
      <use x="2198.001953" xlink:href="#DejaVuSans-48"/>
      <use x="2261.625" xlink:href="#DejaVuSans-41"/>
     </g>
    </g>
    <g id="line2d_58">
     <path d="M 155.7 266.522031 
L 181.7 266.522031 
" style="fill:none;stroke:#800080;stroke-dasharray:5.55,2.4;stroke-dashoffset:0;stroke-width:1.5;"/>
    </g>
    <g id="text_27">
     <!-- 1. Lockdown Germany (22.03.2020) -->
     <g transform="translate(192.1 271.072031)scale(0.13 -0.13)">
      <defs>
       <path d="M 9.8125 72.90625 
L 19.671875 72.90625 
L 19.671875 8.296875 
L 55.171875 8.296875 
L 55.171875 0 
L 9.8125 0 
z
" id="DejaVuSans-76"/>
       <path d="M 4.203125 54.6875 
L 13.1875 54.6875 
L 24.421875 12.015625 
L 35.59375 54.6875 
L 46.1875 54.6875 
L 57.421875 12.015625 
L 68.609375 54.6875 
L 77.59375 54.6875 
L 63.28125 0 
L 52.6875 0 
L 40.921875 44.828125 
L 29.109375 0 
L 18.5 0 
z
" id="DejaVuSans-119"/>
       <path d="M 40.578125 39.3125 
Q 47.65625 37.796875 51.625 33 
Q 55.609375 28.21875 55.609375 21.1875 
Q 55.609375 10.40625 48.1875 4.484375 
Q 40.765625 -1.421875 27.09375 -1.421875 
Q 22.515625 -1.421875 17.65625 -0.515625 
Q 12.796875 0.390625 7.625 2.203125 
L 7.625 11.71875 
Q 11.71875 9.328125 16.59375 8.109375 
Q 21.484375 6.890625 26.8125 6.890625 
Q 36.078125 6.890625 40.9375 10.546875 
Q 45.796875 14.203125 45.796875 21.1875 
Q 45.796875 27.640625 41.28125 31.265625 
Q 36.765625 34.90625 28.71875 34.90625 
L 20.21875 34.90625 
L 20.21875 43.015625 
L 29.109375 43.015625 
Q 36.375 43.015625 40.234375 45.921875 
Q 44.09375 48.828125 44.09375 54.296875 
Q 44.09375 59.90625 40.109375 62.90625 
Q 36.140625 65.921875 28.71875 65.921875 
Q 24.65625 65.921875 20.015625 65.03125 
Q 15.375 64.15625 9.8125 62.3125 
L 9.8125 71.09375 
Q 15.4375 72.65625 20.34375 73.4375 
Q 25.25 74.21875 29.59375 74.21875 
Q 40.828125 74.21875 47.359375 69.109375 
Q 53.90625 64.015625 53.90625 55.328125 
Q 53.90625 49.265625 50.4375 45.09375 
Q 46.96875 40.921875 40.578125 39.3125 
z
" id="DejaVuSans-51"/>
      </defs>
      <use xlink:href="#DejaVuSans-49"/>
      <use x="63.623047" xlink:href="#DejaVuSans-46"/>
      <use x="95.410156" xlink:href="#DejaVuSans-32"/>
      <use x="127.197266" xlink:href="#DejaVuSans-76"/>
      <use x="181.160156" xlink:href="#DejaVuSans-111"/>
      <use x="242.341797" xlink:href="#DejaVuSans-99"/>
      <use x="297.322266" xlink:href="#DejaVuSans-107"/>
      <use x="355.232422" xlink:href="#DejaVuSans-100"/>
      <use x="418.708984" xlink:href="#DejaVuSans-111"/>
      <use x="479.890625" xlink:href="#DejaVuSans-119"/>
      <use x="561.677734" xlink:href="#DejaVuSans-110"/>
      <use x="625.056641" xlink:href="#DejaVuSans-32"/>
      <use x="656.84375" xlink:href="#DejaVuSans-71"/>
      <use x="734.333984" xlink:href="#DejaVuSans-101"/>
      <use x="795.857422" xlink:href="#DejaVuSans-114"/>
      <use x="835.220703" xlink:href="#DejaVuSans-109"/>
      <use x="932.632812" xlink:href="#DejaVuSans-97"/>
      <use x="993.912109" xlink:href="#DejaVuSans-110"/>
      <use x="1057.291016" xlink:href="#DejaVuSans-121"/>
      <use x="1116.470703" xlink:href="#DejaVuSans-32"/>
      <use x="1148.257812" xlink:href="#DejaVuSans-40"/>
      <use x="1187.271484" xlink:href="#DejaVuSans-50"/>
      <use x="1250.894531" xlink:href="#DejaVuSans-50"/>
      <use x="1314.517578" xlink:href="#DejaVuSans-46"/>
      <use x="1346.304688" xlink:href="#DejaVuSans-48"/>
      <use x="1409.927734" xlink:href="#DejaVuSans-51"/>
      <use x="1473.550781" xlink:href="#DejaVuSans-46"/>
      <use x="1505.337891" xlink:href="#DejaVuSans-50"/>
      <use x="1568.960938" xlink:href="#DejaVuSans-48"/>
      <use x="1632.583984" xlink:href="#DejaVuSans-50"/>
      <use x="1696.207031" xlink:href="#DejaVuSans-48"/>
      <use x="1759.830078" xlink:href="#DejaVuSans-41"/>
     </g>
    </g>
    <g id="line2d_59">
     <path d="M 155.7 285.603594 
L 181.7 285.603594 
" style="fill:none;stroke:#800080;stroke-dasharray:5.55,2.4;stroke-dashoffset:0;stroke-width:1.5;"/>
    </g>
    <g id="text_28">
     <!-- 2. Lockdown light Germany (02.11.2020) -->
     <g transform="translate(192.1 290.153594)scale(0.13 -0.13)">
      <defs>
       <path d="M 54.890625 33.015625 
L 54.890625 0 
L 45.90625 0 
L 45.90625 32.71875 
Q 45.90625 40.484375 42.875 44.328125 
Q 39.84375 48.1875 33.796875 48.1875 
Q 26.515625 48.1875 22.3125 43.546875 
Q 18.109375 38.921875 18.109375 30.90625 
L 18.109375 0 
L 9.078125 0 
L 9.078125 75.984375 
L 18.109375 75.984375 
L 18.109375 46.1875 
Q 21.34375 51.125 25.703125 53.5625 
Q 30.078125 56 35.796875 56 
Q 45.21875 56 50.046875 50.171875 
Q 54.890625 44.34375 54.890625 33.015625 
z
" id="DejaVuSans-104"/>
      </defs>
      <use xlink:href="#DejaVuSans-50"/>
      <use x="63.623047" xlink:href="#DejaVuSans-46"/>
      <use x="95.410156" xlink:href="#DejaVuSans-32"/>
      <use x="127.197266" xlink:href="#DejaVuSans-76"/>
      <use x="181.160156" xlink:href="#DejaVuSans-111"/>
      <use x="242.341797" xlink:href="#DejaVuSans-99"/>
      <use x="297.322266" xlink:href="#DejaVuSans-107"/>
      <use x="355.232422" xlink:href="#DejaVuSans-100"/>
      <use x="418.708984" xlink:href="#DejaVuSans-111"/>
      <use x="479.890625" xlink:href="#DejaVuSans-119"/>
      <use x="561.677734" xlink:href="#DejaVuSans-110"/>
      <use x="625.056641" xlink:href="#DejaVuSans-32"/>
      <use x="656.84375" xlink:href="#DejaVuSans-108"/>
      <use x="684.626953" xlink:href="#DejaVuSans-105"/>
      <use x="712.410156" xlink:href="#DejaVuSans-103"/>
      <use x="775.886719" xlink:href="#DejaVuSans-104"/>
      <use x="839.265625" xlink:href="#DejaVuSans-116"/>
      <use x="878.474609" xlink:href="#DejaVuSans-32"/>
      <use x="910.261719" xlink:href="#DejaVuSans-71"/>
      <use x="987.751953" xlink:href="#DejaVuSans-101"/>
      <use x="1049.275391" xlink:href="#DejaVuSans-114"/>
      <use x="1088.638672" xlink:href="#DejaVuSans-109"/>
      <use x="1186.050781" xlink:href="#DejaVuSans-97"/>
      <use x="1247.330078" xlink:href="#DejaVuSans-110"/>
      <use x="1310.708984" xlink:href="#DejaVuSans-121"/>
      <use x="1369.888672" xlink:href="#DejaVuSans-32"/>
      <use x="1401.675781" xlink:href="#DejaVuSans-40"/>
      <use x="1440.689453" xlink:href="#DejaVuSans-48"/>
      <use x="1504.3125" xlink:href="#DejaVuSans-50"/>
      <use x="1567.935547" xlink:href="#DejaVuSans-46"/>
      <use x="1599.722656" xlink:href="#DejaVuSans-49"/>
      <use x="1663.345703" xlink:href="#DejaVuSans-49"/>
      <use x="1726.96875" xlink:href="#DejaVuSans-46"/>
      <use x="1758.755859" xlink:href="#DejaVuSans-50"/>
      <use x="1822.378906" xlink:href="#DejaVuSans-48"/>
      <use x="1886.001953" xlink:href="#DejaVuSans-50"/>
      <use x="1949.625" xlink:href="#DejaVuSans-48"/>
      <use x="2013.248047" xlink:href="#DejaVuSans-41"/>
     </g>
    </g>
    <g id="line2d_60">
     <path d="M 155.7 304.685156 
L 181.7 304.685156 
" style="fill:none;stroke:#800080;stroke-dasharray:5.55,2.4;stroke-dashoffset:0;stroke-width:1.5;"/>
    </g>
    <g id="text_29">
     <!-- 3. Lockdown Germany (16.12.2020) -->
     <g transform="translate(192.1 309.235156)scale(0.13 -0.13)">
      <use xlink:href="#DejaVuSans-51"/>
      <use x="63.623047" xlink:href="#DejaVuSans-46"/>
      <use x="95.410156" xlink:href="#DejaVuSans-32"/>
      <use x="127.197266" xlink:href="#DejaVuSans-76"/>
      <use x="181.160156" xlink:href="#DejaVuSans-111"/>
      <use x="242.341797" xlink:href="#DejaVuSans-99"/>
      <use x="297.322266" xlink:href="#DejaVuSans-107"/>
      <use x="355.232422" xlink:href="#DejaVuSans-100"/>
      <use x="418.708984" xlink:href="#DejaVuSans-111"/>
      <use x="479.890625" xlink:href="#DejaVuSans-119"/>
      <use x="561.677734" xlink:href="#DejaVuSans-110"/>
      <use x="625.056641" xlink:href="#DejaVuSans-32"/>
      <use x="656.84375" xlink:href="#DejaVuSans-71"/>
      <use x="734.333984" xlink:href="#DejaVuSans-101"/>
      <use x="795.857422" xlink:href="#DejaVuSans-114"/>
      <use x="835.220703" xlink:href="#DejaVuSans-109"/>
      <use x="932.632812" xlink:href="#DejaVuSans-97"/>
      <use x="993.912109" xlink:href="#DejaVuSans-110"/>
      <use x="1057.291016" xlink:href="#DejaVuSans-121"/>
      <use x="1116.470703" xlink:href="#DejaVuSans-32"/>
      <use x="1148.257812" xlink:href="#DejaVuSans-40"/>
      <use x="1187.271484" xlink:href="#DejaVuSans-49"/>
      <use x="1250.894531" xlink:href="#DejaVuSans-54"/>
      <use x="1314.517578" xlink:href="#DejaVuSans-46"/>
      <use x="1346.304688" xlink:href="#DejaVuSans-49"/>
      <use x="1409.927734" xlink:href="#DejaVuSans-50"/>
      <use x="1473.550781" xlink:href="#DejaVuSans-46"/>
      <use x="1505.337891" xlink:href="#DejaVuSans-50"/>
      <use x="1568.960938" xlink:href="#DejaVuSans-48"/>
      <use x="1632.583984" xlink:href="#DejaVuSans-50"/>
      <use x="1696.207031" xlink:href="#DejaVuSans-48"/>
      <use x="1759.830078" xlink:href="#DejaVuSans-41"/>
     </g>
    </g>
   </g>
  </g>
 </g>
 <defs>
  <clipPath id="pa8682a402b">
   <rect height="440.64" width="892.8" x="144" y="77.76"/>
  </clipPath>
 </defs>
</svg>
