<?xml version="1.0" encoding="utf-8" standalone="no"?>
<!DOCTYPE svg PUBLIC "-//W3C//DTD SVG 1.1//EN"
  "http://www.w3.org/Graphics/SVG/1.1/DTD/svg11.dtd">
<!-- Created with matplotlib (https://matplotlib.org/) -->
<svg height="648pt" version="1.1" viewBox="0 0 1152 648" width="1152pt" xmlns="http://www.w3.org/2000/svg" xmlns:xlink="http://www.w3.org/1999/xlink">
 <metadata>
  <rdf:RDF xmlns:cc="http://creativecommons.org/ns#" xmlns:dc="http://purl.org/dc/elements/1.1/" xmlns:rdf="http://www.w3.org/1999/02/22-rdf-syntax-ns#">
   <cc:Work>
    <dc:type rdf:resource="http://purl.org/dc/dcmitype/StillImage"/>
    <dc:date>2021-02-20T21:35:36.709707</dc:date>
    <dc:format>image/svg+xml</dc:format>
    <dc:creator>
     <cc:Agent>
      <dc:title>Matplotlib v3.3.4, https://matplotlib.org/</dc:title>
     </cc:Agent>
    </dc:creator>
   </cc:Work>
  </rdf:RDF>
 </metadata>
 <defs>
  <style type="text/css">*{stroke-linecap:butt;stroke-linejoin:round;}</style>
 </defs>
 <g id="figure_1">
  <g id="patch_1">
   <path d="M 0 648 
L 1152 648 
L 1152 0 
L 0 0 
z
" style="fill:#ffffff;"/>
  </g>
  <g id="axes_1">
   <g id="patch_2">
    <path d="M 144 518.4 
L 1036.8 518.4 
L 1036.8 77.76 
L 144 77.76 
z
" style="fill:#e5e5e5;"/>
   </g>
   <g id="matplotlib.axis_1">
    <g id="xtick_1">
     <g id="line2d_1">
      <path clip-path="url(#p1d00fb0cc4)" d="M 207.357328 518.4 
L 207.357328 77.76 
" style="fill:none;stroke:#ffffff;stroke-linecap:square;stroke-width:0.8;"/>
     </g>
     <g id="line2d_2">
      <defs>
       <path d="M 0 0 
L 0 3.5 
" id="md2f8ffa99a" style="stroke:#555555;stroke-width:0.8;"/>
      </defs>
      <g>
       <use style="fill:#555555;stroke:#555555;stroke-width:0.8;" x="207.357328" xlink:href="#md2f8ffa99a" y="518.4"/>
      </g>
     </g>
     <g id="text_1">
      <!-- 2019-01 -->
      <g style="fill:#555555;" transform="translate(170.132508 552.871846)rotate(-30)scale(0.1 -0.1)">
       <defs>
        <path d="M 19.1875 8.296875 
L 53.609375 8.296875 
L 53.609375 0 
L 7.328125 0 
L 7.328125 8.296875 
Q 12.9375 14.109375 22.625 23.890625 
Q 32.328125 33.6875 34.8125 36.53125 
Q 39.546875 41.84375 41.421875 45.53125 
Q 43.3125 49.21875 43.3125 52.78125 
Q 43.3125 58.59375 39.234375 62.25 
Q 35.15625 65.921875 28.609375 65.921875 
Q 23.96875 65.921875 18.8125 64.3125 
Q 13.671875 62.703125 7.8125 59.421875 
L 7.8125 69.390625 
Q 13.765625 71.78125 18.9375 73 
Q 24.125 74.21875 28.421875 74.21875 
Q 39.75 74.21875 46.484375 68.546875 
Q 53.21875 62.890625 53.21875 53.421875 
Q 53.21875 48.921875 51.53125 44.890625 
Q 49.859375 40.875 45.40625 35.40625 
Q 44.1875 33.984375 37.640625 27.21875 
Q 31.109375 20.453125 19.1875 8.296875 
z
" id="DejaVuSans-50"/>
        <path d="M 31.78125 66.40625 
Q 24.171875 66.40625 20.328125 58.90625 
Q 16.5 51.421875 16.5 36.375 
Q 16.5 21.390625 20.328125 13.890625 
Q 24.171875 6.390625 31.78125 6.390625 
Q 39.453125 6.390625 43.28125 13.890625 
Q 47.125 21.390625 47.125 36.375 
Q 47.125 51.421875 43.28125 58.90625 
Q 39.453125 66.40625 31.78125 66.40625 
z
M 31.78125 74.21875 
Q 44.046875 74.21875 50.515625 64.515625 
Q 56.984375 54.828125 56.984375 36.375 
Q 56.984375 17.96875 50.515625 8.265625 
Q 44.046875 -1.421875 31.78125 -1.421875 
Q 19.53125 -1.421875 13.0625 8.265625 
Q 6.59375 17.96875 6.59375 36.375 
Q 6.59375 54.828125 13.0625 64.515625 
Q 19.53125 74.21875 31.78125 74.21875 
z
" id="DejaVuSans-48"/>
        <path d="M 12.40625 8.296875 
L 28.515625 8.296875 
L 28.515625 63.921875 
L 10.984375 60.40625 
L 10.984375 69.390625 
L 28.421875 72.90625 
L 38.28125 72.90625 
L 38.28125 8.296875 
L 54.390625 8.296875 
L 54.390625 0 
L 12.40625 0 
z
" id="DejaVuSans-49"/>
        <path d="M 10.984375 1.515625 
L 10.984375 10.5 
Q 14.703125 8.734375 18.5 7.8125 
Q 22.3125 6.890625 25.984375 6.890625 
Q 35.75 6.890625 40.890625 13.453125 
Q 46.046875 20.015625 46.78125 33.40625 
Q 43.953125 29.203125 39.59375 26.953125 
Q 35.25 24.703125 29.984375 24.703125 
Q 19.046875 24.703125 12.671875 31.3125 
Q 6.296875 37.9375 6.296875 49.421875 
Q 6.296875 60.640625 12.9375 67.421875 
Q 19.578125 74.21875 30.609375 74.21875 
Q 43.265625 74.21875 49.921875 64.515625 
Q 56.59375 54.828125 56.59375 36.375 
Q 56.59375 19.140625 48.40625 8.859375 
Q 40.234375 -1.421875 26.421875 -1.421875 
Q 22.703125 -1.421875 18.890625 -0.6875 
Q 15.09375 0.046875 10.984375 1.515625 
z
M 30.609375 32.421875 
Q 37.25 32.421875 41.125 36.953125 
Q 45.015625 41.5 45.015625 49.421875 
Q 45.015625 57.28125 41.125 61.84375 
Q 37.25 66.40625 30.609375 66.40625 
Q 23.96875 66.40625 20.09375 61.84375 
Q 16.21875 57.28125 16.21875 49.421875 
Q 16.21875 41.5 20.09375 36.953125 
Q 23.96875 32.421875 30.609375 32.421875 
z
" id="DejaVuSans-57"/>
        <path d="M 4.890625 31.390625 
L 31.203125 31.390625 
L 31.203125 23.390625 
L 4.890625 23.390625 
z
" id="DejaVuSans-45"/>
       </defs>
       <use xlink:href="#DejaVuSans-50"/>
       <use x="63.623047" xlink:href="#DejaVuSans-48"/>
       <use x="127.246094" xlink:href="#DejaVuSans-49"/>
       <use x="190.869141" xlink:href="#DejaVuSans-57"/>
       <use x="254.492188" xlink:href="#DejaVuSans-45"/>
       <use x="290.576172" xlink:href="#DejaVuSans-48"/>
       <use x="354.199219" xlink:href="#DejaVuSans-49"/>
      </g>
     </g>
    </g>
    <g id="xtick_2">
     <g id="line2d_3">
      <path clip-path="url(#p1d00fb0cc4)" d="M 300.52987 518.4 
L 300.52987 77.76 
" style="fill:none;stroke:#ffffff;stroke-linecap:square;stroke-width:0.8;"/>
     </g>
     <g id="line2d_4">
      <g>
       <use style="fill:#555555;stroke:#555555;stroke-width:0.8;" x="300.52987" xlink:href="#md2f8ffa99a" y="518.4"/>
      </g>
     </g>
     <g id="text_2">
      <!-- 2019-04 -->
      <g style="fill:#555555;" transform="translate(263.305049 552.871846)rotate(-30)scale(0.1 -0.1)">
       <defs>
        <path d="M 37.796875 64.3125 
L 12.890625 25.390625 
L 37.796875 25.390625 
z
M 35.203125 72.90625 
L 47.609375 72.90625 
L 47.609375 25.390625 
L 58.015625 25.390625 
L 58.015625 17.1875 
L 47.609375 17.1875 
L 47.609375 0 
L 37.796875 0 
L 37.796875 17.1875 
L 4.890625 17.1875 
L 4.890625 26.703125 
z
" id="DejaVuSans-52"/>
       </defs>
       <use xlink:href="#DejaVuSans-50"/>
       <use x="63.623047" xlink:href="#DejaVuSans-48"/>
       <use x="127.246094" xlink:href="#DejaVuSans-49"/>
       <use x="190.869141" xlink:href="#DejaVuSans-57"/>
       <use x="254.492188" xlink:href="#DejaVuSans-45"/>
       <use x="290.576172" xlink:href="#DejaVuSans-48"/>
       <use x="354.199219" xlink:href="#DejaVuSans-52"/>
      </g>
     </g>
    </g>
    <g id="xtick_3">
     <g id="line2d_5">
      <path clip-path="url(#p1d00fb0cc4)" d="M 394.737662 518.4 
L 394.737662 77.76 
" style="fill:none;stroke:#ffffff;stroke-linecap:square;stroke-width:0.8;"/>
     </g>
     <g id="line2d_6">
      <g>
       <use style="fill:#555555;stroke:#555555;stroke-width:0.8;" x="394.737662" xlink:href="#md2f8ffa99a" y="518.4"/>
      </g>
     </g>
     <g id="text_3">
      <!-- 2019-07 -->
      <g style="fill:#555555;" transform="translate(357.512842 552.871846)rotate(-30)scale(0.1 -0.1)">
       <defs>
        <path d="M 8.203125 72.90625 
L 55.078125 72.90625 
L 55.078125 68.703125 
L 28.609375 0 
L 18.3125 0 
L 43.21875 64.59375 
L 8.203125 64.59375 
z
" id="DejaVuSans-55"/>
       </defs>
       <use xlink:href="#DejaVuSans-50"/>
       <use x="63.623047" xlink:href="#DejaVuSans-48"/>
       <use x="127.246094" xlink:href="#DejaVuSans-49"/>
       <use x="190.869141" xlink:href="#DejaVuSans-57"/>
       <use x="254.492188" xlink:href="#DejaVuSans-45"/>
       <use x="290.576172" xlink:href="#DejaVuSans-48"/>
       <use x="354.199219" xlink:href="#DejaVuSans-55"/>
      </g>
     </g>
    </g>
    <g id="xtick_4">
     <g id="line2d_7">
      <path clip-path="url(#p1d00fb0cc4)" d="M 489.980705 518.4 
L 489.980705 77.76 
" style="fill:none;stroke:#ffffff;stroke-linecap:square;stroke-width:0.8;"/>
     </g>
     <g id="line2d_8">
      <g>
       <use style="fill:#555555;stroke:#555555;stroke-width:0.8;" x="489.980705" xlink:href="#md2f8ffa99a" y="518.4"/>
      </g>
     </g>
     <g id="text_4">
      <!-- 2019-10 -->
      <g style="fill:#555555;" transform="translate(452.755884 552.871846)rotate(-30)scale(0.1 -0.1)">
       <use xlink:href="#DejaVuSans-50"/>
       <use x="63.623047" xlink:href="#DejaVuSans-48"/>
       <use x="127.246094" xlink:href="#DejaVuSans-49"/>
       <use x="190.869141" xlink:href="#DejaVuSans-57"/>
       <use x="254.492188" xlink:href="#DejaVuSans-45"/>
       <use x="290.576172" xlink:href="#DejaVuSans-49"/>
       <use x="354.199219" xlink:href="#DejaVuSans-48"/>
      </g>
     </g>
    </g>
    <g id="xtick_5">
     <g id="line2d_9">
      <path clip-path="url(#p1d00fb0cc4)" d="M 585.223748 518.4 
L 585.223748 77.76 
" style="fill:none;stroke:#ffffff;stroke-linecap:square;stroke-width:0.8;"/>
     </g>
     <g id="line2d_10">
      <g>
       <use style="fill:#555555;stroke:#555555;stroke-width:0.8;" x="585.223748" xlink:href="#md2f8ffa99a" y="518.4"/>
      </g>
     </g>
     <g id="text_5">
      <!-- 2020-01 -->
      <g style="fill:#555555;" transform="translate(547.998927 552.871846)rotate(-30)scale(0.1 -0.1)">
       <use xlink:href="#DejaVuSans-50"/>
       <use x="63.623047" xlink:href="#DejaVuSans-48"/>
       <use x="127.246094" xlink:href="#DejaVuSans-50"/>
       <use x="190.869141" xlink:href="#DejaVuSans-48"/>
       <use x="254.492188" xlink:href="#DejaVuSans-45"/>
       <use x="290.576172" xlink:href="#DejaVuSans-48"/>
       <use x="354.199219" xlink:href="#DejaVuSans-49"/>
      </g>
     </g>
    </g>
    <g id="xtick_6">
     <g id="line2d_11">
      <path clip-path="url(#p1d00fb0cc4)" d="M 679.43154 518.4 
L 679.43154 77.76 
" style="fill:none;stroke:#ffffff;stroke-linecap:square;stroke-width:0.8;"/>
     </g>
     <g id="line2d_12">
      <g>
       <use style="fill:#555555;stroke:#555555;stroke-width:0.8;" x="679.43154" xlink:href="#md2f8ffa99a" y="518.4"/>
      </g>
     </g>
     <g id="text_6">
      <!-- 2020-04 -->
      <g style="fill:#555555;" transform="translate(642.206719 552.871846)rotate(-30)scale(0.1 -0.1)">
       <use xlink:href="#DejaVuSans-50"/>
       <use x="63.623047" xlink:href="#DejaVuSans-48"/>
       <use x="127.246094" xlink:href="#DejaVuSans-50"/>
       <use x="190.869141" xlink:href="#DejaVuSans-48"/>
       <use x="254.492188" xlink:href="#DejaVuSans-45"/>
       <use x="290.576172" xlink:href="#DejaVuSans-48"/>
       <use x="354.199219" xlink:href="#DejaVuSans-52"/>
      </g>
     </g>
    </g>
    <g id="xtick_7">
     <g id="line2d_13">
      <path clip-path="url(#p1d00fb0cc4)" d="M 773.639332 518.4 
L 773.639332 77.76 
" style="fill:none;stroke:#ffffff;stroke-linecap:square;stroke-width:0.8;"/>
     </g>
     <g id="line2d_14">
      <g>
       <use style="fill:#555555;stroke:#555555;stroke-width:0.8;" x="773.639332" xlink:href="#md2f8ffa99a" y="518.4"/>
      </g>
     </g>
     <g id="text_7">
      <!-- 2020-07 -->
      <g style="fill:#555555;" transform="translate(736.414511 552.871846)rotate(-30)scale(0.1 -0.1)">
       <use xlink:href="#DejaVuSans-50"/>
       <use x="63.623047" xlink:href="#DejaVuSans-48"/>
       <use x="127.246094" xlink:href="#DejaVuSans-50"/>
       <use x="190.869141" xlink:href="#DejaVuSans-48"/>
       <use x="254.492188" xlink:href="#DejaVuSans-45"/>
       <use x="290.576172" xlink:href="#DejaVuSans-48"/>
       <use x="354.199219" xlink:href="#DejaVuSans-55"/>
      </g>
     </g>
    </g>
    <g id="xtick_8">
     <g id="line2d_15">
      <path clip-path="url(#p1d00fb0cc4)" d="M 868.882375 518.4 
L 868.882375 77.76 
" style="fill:none;stroke:#ffffff;stroke-linecap:square;stroke-width:0.8;"/>
     </g>
     <g id="line2d_16">
      <g>
       <use style="fill:#555555;stroke:#555555;stroke-width:0.8;" x="868.882375" xlink:href="#md2f8ffa99a" y="518.4"/>
      </g>
     </g>
     <g id="text_8">
      <!-- 2020-10 -->
      <g style="fill:#555555;" transform="translate(831.657554 552.871846)rotate(-30)scale(0.1 -0.1)">
       <use xlink:href="#DejaVuSans-50"/>
       <use x="63.623047" xlink:href="#DejaVuSans-48"/>
       <use x="127.246094" xlink:href="#DejaVuSans-50"/>
       <use x="190.869141" xlink:href="#DejaVuSans-48"/>
       <use x="254.492188" xlink:href="#DejaVuSans-45"/>
       <use x="290.576172" xlink:href="#DejaVuSans-49"/>
       <use x="354.199219" xlink:href="#DejaVuSans-48"/>
      </g>
     </g>
    </g>
    <g id="xtick_9">
     <g id="line2d_17">
      <path clip-path="url(#p1d00fb0cc4)" d="M 964.125417 518.4 
L 964.125417 77.76 
" style="fill:none;stroke:#ffffff;stroke-linecap:square;stroke-width:0.8;"/>
     </g>
     <g id="line2d_18">
      <g>
       <use style="fill:#555555;stroke:#555555;stroke-width:0.8;" x="964.125417" xlink:href="#md2f8ffa99a" y="518.4"/>
      </g>
     </g>
     <g id="text_9">
      <!-- 2021-01 -->
      <g style="fill:#555555;" transform="translate(926.900597 552.871846)rotate(-30)scale(0.1 -0.1)">
       <use xlink:href="#DejaVuSans-50"/>
       <use x="63.623047" xlink:href="#DejaVuSans-48"/>
       <use x="127.246094" xlink:href="#DejaVuSans-50"/>
       <use x="190.869141" xlink:href="#DejaVuSans-49"/>
       <use x="254.492188" xlink:href="#DejaVuSans-45"/>
       <use x="290.576172" xlink:href="#DejaVuSans-48"/>
       <use x="354.199219" xlink:href="#DejaVuSans-49"/>
      </g>
     </g>
    </g>
   </g>
   <g id="matplotlib.axis_2">
    <g id="ytick_1">
     <g id="line2d_19">
      <path clip-path="url(#p1d00fb0cc4)" d="M 144 498.370909 
L 1036.8 498.370909 
" style="fill:none;stroke:#ffffff;stroke-linecap:square;stroke-width:0.8;"/>
     </g>
     <g id="line2d_20">
      <defs>
       <path d="M 0 0 
L -3.5 0 
" id="mb48b7926de" style="stroke:#555555;stroke-width:0.8;"/>
      </defs>
      <g>
       <use style="fill:#555555;stroke:#555555;stroke-width:0.8;" x="144" xlink:href="#mb48b7926de" y="498.370909"/>
      </g>
     </g>
     <g id="text_10">
      <!-- 0 -->
      <g style="fill:#555555;" transform="translate(130.6375 502.170128)scale(0.1 -0.1)">
       <use xlink:href="#DejaVuSans-48"/>
      </g>
     </g>
    </g>
    <g id="ytick_2">
     <g id="line2d_21">
      <path clip-path="url(#p1d00fb0cc4)" d="M 144 442.965402 
L 1036.8 442.965402 
" style="fill:none;stroke:#ffffff;stroke-linecap:square;stroke-width:0.8;"/>
     </g>
     <g id="line2d_22">
      <g>
       <use style="fill:#555555;stroke:#555555;stroke-width:0.8;" x="144" xlink:href="#mb48b7926de" y="442.965402"/>
      </g>
     </g>
     <g id="text_11">
      <!-- 200 -->
      <g style="fill:#555555;" transform="translate(117.9125 446.76462)scale(0.1 -0.1)">
       <use xlink:href="#DejaVuSans-50"/>
       <use x="63.623047" xlink:href="#DejaVuSans-48"/>
       <use x="127.246094" xlink:href="#DejaVuSans-48"/>
      </g>
     </g>
    </g>
    <g id="ytick_3">
     <g id="line2d_23">
      <path clip-path="url(#p1d00fb0cc4)" d="M 144 387.559894 
L 1036.8 387.559894 
" style="fill:none;stroke:#ffffff;stroke-linecap:square;stroke-width:0.8;"/>
     </g>
     <g id="line2d_24">
      <g>
       <use style="fill:#555555;stroke:#555555;stroke-width:0.8;" x="144" xlink:href="#mb48b7926de" y="387.559894"/>
      </g>
     </g>
     <g id="text_12">
      <!-- 400 -->
      <g style="fill:#555555;" transform="translate(117.9125 391.359113)scale(0.1 -0.1)">
       <use xlink:href="#DejaVuSans-52"/>
       <use x="63.623047" xlink:href="#DejaVuSans-48"/>
       <use x="127.246094" xlink:href="#DejaVuSans-48"/>
      </g>
     </g>
    </g>
    <g id="ytick_4">
     <g id="line2d_25">
      <path clip-path="url(#p1d00fb0cc4)" d="M 144 332.154387 
L 1036.8 332.154387 
" style="fill:none;stroke:#ffffff;stroke-linecap:square;stroke-width:0.8;"/>
     </g>
     <g id="line2d_26">
      <g>
       <use style="fill:#555555;stroke:#555555;stroke-width:0.8;" x="144" xlink:href="#mb48b7926de" y="332.154387"/>
      </g>
     </g>
     <g id="text_13">
      <!-- 600 -->
      <g style="fill:#555555;" transform="translate(117.9125 335.953606)scale(0.1 -0.1)">
       <defs>
        <path d="M 33.015625 40.375 
Q 26.375 40.375 22.484375 35.828125 
Q 18.609375 31.296875 18.609375 23.390625 
Q 18.609375 15.53125 22.484375 10.953125 
Q 26.375 6.390625 33.015625 6.390625 
Q 39.65625 6.390625 43.53125 10.953125 
Q 47.40625 15.53125 47.40625 23.390625 
Q 47.40625 31.296875 43.53125 35.828125 
Q 39.65625 40.375 33.015625 40.375 
z
M 52.59375 71.296875 
L 52.59375 62.3125 
Q 48.875 64.0625 45.09375 64.984375 
Q 41.3125 65.921875 37.59375 65.921875 
Q 27.828125 65.921875 22.671875 59.328125 
Q 17.53125 52.734375 16.796875 39.40625 
Q 19.671875 43.65625 24.015625 45.921875 
Q 28.375 48.1875 33.59375 48.1875 
Q 44.578125 48.1875 50.953125 41.515625 
Q 57.328125 34.859375 57.328125 23.390625 
Q 57.328125 12.15625 50.6875 5.359375 
Q 44.046875 -1.421875 33.015625 -1.421875 
Q 20.359375 -1.421875 13.671875 8.265625 
Q 6.984375 17.96875 6.984375 36.375 
Q 6.984375 53.65625 15.1875 63.9375 
Q 23.390625 74.21875 37.203125 74.21875 
Q 40.921875 74.21875 44.703125 73.484375 
Q 48.484375 72.75 52.59375 71.296875 
z
" id="DejaVuSans-54"/>
       </defs>
       <use xlink:href="#DejaVuSans-54"/>
       <use x="63.623047" xlink:href="#DejaVuSans-48"/>
       <use x="127.246094" xlink:href="#DejaVuSans-48"/>
      </g>
     </g>
    </g>
    <g id="ytick_5">
     <g id="line2d_27">
      <path clip-path="url(#p1d00fb0cc4)" d="M 144 276.74888 
L 1036.8 276.74888 
" style="fill:none;stroke:#ffffff;stroke-linecap:square;stroke-width:0.8;"/>
     </g>
     <g id="line2d_28">
      <g>
       <use style="fill:#555555;stroke:#555555;stroke-width:0.8;" x="144" xlink:href="#mb48b7926de" y="276.74888"/>
      </g>
     </g>
     <g id="text_14">
      <!-- 800 -->
      <g style="fill:#555555;" transform="translate(117.9125 280.548098)scale(0.1 -0.1)">
       <defs>
        <path d="M 31.78125 34.625 
Q 24.75 34.625 20.71875 30.859375 
Q 16.703125 27.09375 16.703125 20.515625 
Q 16.703125 13.921875 20.71875 10.15625 
Q 24.75 6.390625 31.78125 6.390625 
Q 38.8125 6.390625 42.859375 10.171875 
Q 46.921875 13.96875 46.921875 20.515625 
Q 46.921875 27.09375 42.890625 30.859375 
Q 38.875 34.625 31.78125 34.625 
z
M 21.921875 38.8125 
Q 15.578125 40.375 12.03125 44.71875 
Q 8.5 49.078125 8.5 55.328125 
Q 8.5 64.0625 14.71875 69.140625 
Q 20.953125 74.21875 31.78125 74.21875 
Q 42.671875 74.21875 48.875 69.140625 
Q 55.078125 64.0625 55.078125 55.328125 
Q 55.078125 49.078125 51.53125 44.71875 
Q 48 40.375 41.703125 38.8125 
Q 48.828125 37.15625 52.796875 32.3125 
Q 56.78125 27.484375 56.78125 20.515625 
Q 56.78125 9.90625 50.3125 4.234375 
Q 43.84375 -1.421875 31.78125 -1.421875 
Q 19.734375 -1.421875 13.25 4.234375 
Q 6.78125 9.90625 6.78125 20.515625 
Q 6.78125 27.484375 10.78125 32.3125 
Q 14.796875 37.15625 21.921875 38.8125 
z
M 18.3125 54.390625 
Q 18.3125 48.734375 21.84375 45.5625 
Q 25.390625 42.390625 31.78125 42.390625 
Q 38.140625 42.390625 41.71875 45.5625 
Q 45.3125 48.734375 45.3125 54.390625 
Q 45.3125 60.0625 41.71875 63.234375 
Q 38.140625 66.40625 31.78125 66.40625 
Q 25.390625 66.40625 21.84375 63.234375 
Q 18.3125 60.0625 18.3125 54.390625 
z
" id="DejaVuSans-56"/>
       </defs>
       <use xlink:href="#DejaVuSans-56"/>
       <use x="63.623047" xlink:href="#DejaVuSans-48"/>
       <use x="127.246094" xlink:href="#DejaVuSans-48"/>
      </g>
     </g>
    </g>
    <g id="ytick_6">
     <g id="line2d_29">
      <path clip-path="url(#p1d00fb0cc4)" d="M 144 221.343372 
L 1036.8 221.343372 
" style="fill:none;stroke:#ffffff;stroke-linecap:square;stroke-width:0.8;"/>
     </g>
     <g id="line2d_30">
      <g>
       <use style="fill:#555555;stroke:#555555;stroke-width:0.8;" x="144" xlink:href="#mb48b7926de" y="221.343372"/>
      </g>
     </g>
     <g id="text_15">
      <!-- 1000 -->
      <g style="fill:#555555;" transform="translate(111.55 225.142591)scale(0.1 -0.1)">
       <use xlink:href="#DejaVuSans-49"/>
       <use x="63.623047" xlink:href="#DejaVuSans-48"/>
       <use x="127.246094" xlink:href="#DejaVuSans-48"/>
       <use x="190.869141" xlink:href="#DejaVuSans-48"/>
      </g>
     </g>
    </g>
    <g id="ytick_7">
     <g id="line2d_31">
      <path clip-path="url(#p1d00fb0cc4)" d="M 144 165.937865 
L 1036.8 165.937865 
" style="fill:none;stroke:#ffffff;stroke-linecap:square;stroke-width:0.8;"/>
     </g>
     <g id="line2d_32">
      <g>
       <use style="fill:#555555;stroke:#555555;stroke-width:0.8;" x="144" xlink:href="#mb48b7926de" y="165.937865"/>
      </g>
     </g>
     <g id="text_16">
      <!-- 1200 -->
      <g style="fill:#555555;" transform="translate(111.55 169.737084)scale(0.1 -0.1)">
       <use xlink:href="#DejaVuSans-49"/>
       <use x="63.623047" xlink:href="#DejaVuSans-50"/>
       <use x="127.246094" xlink:href="#DejaVuSans-48"/>
       <use x="190.869141" xlink:href="#DejaVuSans-48"/>
      </g>
     </g>
    </g>
    <g id="ytick_8">
     <g id="line2d_33">
      <path clip-path="url(#p1d00fb0cc4)" d="M 144 110.532358 
L 1036.8 110.532358 
" style="fill:none;stroke:#ffffff;stroke-linecap:square;stroke-width:0.8;"/>
     </g>
     <g id="line2d_34">
      <g>
       <use style="fill:#555555;stroke:#555555;stroke-width:0.8;" x="144" xlink:href="#mb48b7926de" y="110.532358"/>
      </g>
     </g>
     <g id="text_17">
      <!-- 1400 -->
      <g style="fill:#555555;" transform="translate(111.55 114.331576)scale(0.1 -0.1)">
       <use xlink:href="#DejaVuSans-49"/>
       <use x="63.623047" xlink:href="#DejaVuSans-52"/>
       <use x="127.246094" xlink:href="#DejaVuSans-48"/>
       <use x="190.869141" xlink:href="#DejaVuSans-48"/>
      </g>
     </g>
    </g>
   </g>
   <g id="LineCollection_1">
    <path clip-path="url(#p1d00fb0cc4)" d="M 184.581818 498.370909 
L 184.581818 97.789091 
" style="fill:none;stroke:#ffa500;stroke-dasharray:5.55,2.4;stroke-dashoffset:0;stroke-width:1.5;"/>
   </g>
   <g id="LineCollection_2">
    <path clip-path="url(#p1d00fb0cc4)" d="M 612.14026 498.370909 
L 612.14026 97.789091 
" style="fill:none;stroke:#808080;stroke-dasharray:5.55,2.4;stroke-dashoffset:0;stroke-width:1.5;"/>
   </g>
   <g id="LineCollection_3">
    <path clip-path="url(#p1d00fb0cc4)" d="M 670.114286 498.370909 
L 670.114286 97.789091 
" style="fill:none;stroke:#800080;stroke-dasharray:5.55,2.4;stroke-dashoffset:0;stroke-width:1.5;"/>
   </g>
   <g id="LineCollection_4">
    <path clip-path="url(#p1d00fb0cc4)" d="M 902.01039 498.370909 
L 902.01039 97.789091 
" style="fill:none;stroke:#800080;stroke-dasharray:5.55,2.4;stroke-dashoffset:0;stroke-width:1.5;"/>
   </g>
   <g id="LineCollection_5">
    <path clip-path="url(#p1d00fb0cc4)" d="M 947.56141 498.370909 
L 947.56141 97.789091 
" style="fill:none;stroke:#800080;stroke-dasharray:5.55,2.4;stroke-dashoffset:0;stroke-width:1.5;"/>
   </g>
   <g id="line2d_35">
    <path clip-path="url(#p1d00fb0cc4)" d="M 716.700557 498.093882 
L 724.98256 498.093882 
L 726.017811 497.539826 
L 728.088312 497.539826 
L 730.158813 496.985771 
L 733.264564 496.985771 
L 734.299814 496.708744 
L 739.476067 496.708744 
L 740.511317 496.431716 
L 743.617069 496.431716 
L 744.652319 496.154689 
L 760.181076 496.154689 
L 761.216327 495.877661 
L 762.251577 495.877661 
L 763.286827 495.600634 
L 764.322078 495.046579 
L 775.709833 495.046579 
L 776.745083 494.769551 
L 779.850835 494.769551 
L 781.921336 493.107386 
L 787.097588 493.107386 
L 788.132839 492.830358 
L 789.168089 491.999276 
L 795.379592 491.999276 
L 796.414842 491.722248 
L 798.485343 491.722248 
L 799.520594 491.445221 
L 801.591095 491.445221 
L 802.626345 491.168193 
L 809.873098 491.168193 
L 810.908349 490.614138 
L 827.472356 490.614138 
L 828.507607 490.337111 
L 830.578108 490.337111 
L 831.613358 489.783055 
L 832.648609 489.783055 
L 833.683859 488.951973 
L 835.75436 488.397918 
L 836.78961 487.843863 
L 838.860111 487.843863 
L 839.895362 487.566835 
L 840.930612 487.566835 
L 841.965863 487.289808 
L 843.001113 487.289808 
L 848.177365 485.90467 
L 854.388868 485.90467 
L 855.424119 485.627642 
L 859.565121 485.627642 
L 860.600371 485.073587 
L 866.811874 485.073587 
L 868.882375 484.519532 
L 871.988126 484.519532 
L 873.023377 484.242505 
L 874.058627 484.242505 
L 875.093878 483.68845 
L 884.411132 483.68845 
L 886.481633 483.134395 
L 887.516883 483.134395 
L 888.552134 482.857367 
L 889.587384 482.857367 
L 890.622635 482.580339 
L 891.657885 482.026284 
L 898.904638 482.026284 
L 899.939889 481.749257 
L 902.01039 481.749257 
L 903.04564 481.195202 
L 905.116141 480.641147 
L 906.151391 480.641147 
L 907.186642 480.364119 
L 909.257143 480.364119 
L 910.292393 480.087092 
L 914.433395 480.087092 
L 916.503896 478.978982 
L 918.574397 478.978982 
L 919.609647 478.701954 
L 921.680148 478.701954 
L 923.750649 478.147899 
L 925.82115 478.147899 
L 926.856401 477.593844 
L 927.891651 477.593844 
L 929.962152 477.039789 
L 937.208905 477.039789 
L 938.244156 476.208706 
L 940.314657 476.208706 
L 941.349907 475.931679 
L 945.490909 475.931679 
L 947.56141 475.377624 
L 949.631911 475.377624 
L 950.667161 475.100596 
L 952.737662 475.100596 
L 953.772913 474.546541 
L 954.808163 474.546541 
L 955.843414 474.269513 
L 957.913915 474.269513 
L 958.949165 473.992486 
L 996.218182 473.992486 
L 996.218182 473.992486 
" style="fill:none;stroke:#e24a33;stroke-linecap:square;stroke-width:1.5;"/>
   </g>
   <g id="line2d_36">
    <path clip-path="url(#p1d00fb0cc4)" d="M 716.700557 498.093882 
L 723.94731 498.093882 
L 726.017811 497.539826 
L 728.088312 497.539826 
L 731.194063 496.708744 
L 762.251577 496.708744 
L 764.322078 496.154689 
L 768.46308 496.154689 
L 769.49833 495.877661 
L 770.533581 495.877661 
L 771.568831 495.323606 
L 773.639332 495.323606 
L 774.674583 495.046579 
L 780.886085 495.046579 
L 781.921336 494.769551 
L 787.097588 494.769551 
L 788.132839 494.492524 
L 789.168089 494.492524 
L 790.20334 494.215496 
L 793.309091 494.215496 
L 794.344341 493.938469 
L 796.414842 493.938469 
L 797.450093 493.661441 
L 801.591095 493.661441 
L 802.626345 493.384413 
L 807.802597 493.384413 
L 808.837848 493.107386 
L 809.873098 493.107386 
L 810.908349 491.999276 
L 815.049351 491.999276 
L 816.084601 491.445221 
L 833.683859 491.445221 
L 834.719109 490.891166 
L 847.142115 490.891166 
L 848.177365 490.337111 
L 854.388868 490.337111 
L 855.424119 490.060083 
L 857.49462 490.060083 
L 858.52987 489.783055 
L 859.565121 489.783055 
L 860.600371 489.229 
L 864.741373 489.229 
L 865.776623 488.951973 
L 866.811874 488.397918 
L 868.882375 487.843863 
L 874.058627 487.843863 
L 876.129128 487.289808 
L 879.234879 487.289808 
L 880.27013 487.01278 
L 881.30538 486.458725 
L 884.411132 486.458725 
L 885.446382 486.181697 
L 886.481633 486.181697 
L 888.552134 485.627642 
L 889.587384 485.073587 
L 890.622635 484.79656 
L 891.657885 483.965477 
L 894.763636 482.303312 
L 898.904638 482.303312 
L 899.939889 482.026284 
L 903.04564 482.026284 
L 905.116141 481.472229 
L 906.151391 481.472229 
L 907.186642 481.195202 
L 908.221892 481.195202 
L 910.292393 480.641147 
L 915.468646 480.641147 
L 916.503896 480.364119 
L 917.539147 480.364119 
L 918.574397 480.087092 
L 919.609647 479.533037 
L 921.680148 479.533037 
L 923.750649 478.978982 
L 926.856401 478.978982 
L 927.891651 478.424926 
L 928.926902 478.147899 
L 936.173655 478.147899 
L 938.244156 477.593844 
L 941.349907 477.593844 
L 944.455659 476.762761 
L 945.490909 476.208706 
L 946.52616 476.208706 
L 947.56141 475.931679 
L 953.772913 475.931679 
L 955.843414 475.377624 
L 996.218182 475.377624 
L 996.218182 475.377624 
" style="fill:none;stroke:#348abd;stroke-linecap:square;stroke-width:1.5;"/>
   </g>
   <g id="line2d_37">
    <path clip-path="url(#p1d00fb0cc4)" d="M 716.700557 498.093882 
L 728.088312 498.093882 
L 729.123562 497.816854 
L 745.68757 497.816854 
L 746.72282 497.539826 
L 753.969573 497.539826 
L 755.004824 497.262799 
L 760.181076 497.262799 
L 761.216327 496.985771 
L 762.251577 496.985771 
L 763.286827 496.154689 
L 765.357328 495.046579 
L 773.639332 495.046579 
L 774.674583 494.492524 
L 775.709833 494.215496 
L 780.886085 494.215496 
L 781.921336 493.938469 
L 785.027087 493.938469 
L 786.062338 493.384413 
L 795.379592 493.384413 
L 796.414842 492.830358 
L 809.873098 492.830358 
L 810.908349 491.445221 
L 834.719109 491.445221 
L 835.75436 491.168193 
L 843.001113 491.168193 
L 844.036364 490.891166 
L 851.283117 490.891166 
L 853.353618 490.337111 
L 855.424119 490.337111 
L 856.459369 490.060083 
L 865.776623 490.060083 
L 866.811874 489.783055 
L 875.093878 489.783055 
L 876.129128 489.506028 
L 886.481633 489.506028 
L 887.516883 489.229 
L 896.834137 489.229 
L 897.869388 488.951973 
L 898.904638 488.951973 
L 899.939889 488.397918 
L 903.04564 488.397918 
L 904.080891 488.12089 
L 906.151391 488.12089 
L 907.186642 487.843863 
L 908.221892 487.843863 
L 912.362894 486.735753 
L 914.433395 486.735753 
L 916.503896 486.181697 
L 917.539147 486.181697 
L 918.574397 485.90467 
L 922.715399 485.90467 
L 924.7859 485.350615 
L 926.856401 485.350615 
L 929.962152 484.519532 
L 934.103154 484.519532 
L 936.173655 483.411422 
L 939.279406 483.411422 
L 940.314657 483.134395 
L 944.455659 483.134395 
L 945.490909 482.857367 
L 965.160668 482.857367 
L 966.195918 482.580339 
L 996.218182 482.580339 
L 996.218182 482.580339 
" style="fill:none;stroke:#988ed5;stroke-linecap:square;stroke-width:1.5;"/>
   </g>
   <g id="line2d_38">
    <path clip-path="url(#p1d00fb0cc4)" d="M 716.700557 498.093882 
L 719.806308 498.093882 
L 720.841558 497.816854 
L 728.088312 497.816854 
L 729.123562 497.539826 
L 730.158813 497.539826 
L 731.194063 497.262799 
L 738.440816 497.262799 
L 739.476067 496.985771 
L 762.251577 496.985771 
L 764.322078 496.431716 
L 789.168089 496.431716 
L 790.20334 496.154689 
L 845.071614 496.154689 
L 847.142115 495.600634 
L 855.424119 495.600634 
L 856.459369 495.323606 
L 896.834137 495.323606 
L 897.869388 495.046579 
L 909.257143 495.046579 
L 910.292393 494.769551 
L 915.468646 494.769551 
L 916.503896 494.492524 
L 996.218182 494.492524 
L 996.218182 494.492524 
" style="fill:none;stroke:#777777;stroke-linecap:square;stroke-width:1.5;"/>
   </g>
   <g id="line2d_39">
    <path clip-path="url(#p1d00fb0cc4)" d="M 716.700557 498.093882 
L 717.735807 498.093882 
L 719.806308 496.985771 
L 741.546568 496.985771 
L 742.581818 496.708744 
L 745.68757 496.708744 
L 746.72282 496.431716 
L 751.899072 496.431716 
L 752.934323 495.877661 
L 759.145826 495.877661 
L 762.251577 494.215496 
L 763.286827 493.938469 
L 764.322078 492.276303 
L 765.357328 491.999276 
L 766.392579 491.999276 
L 770.533581 490.891166 
L 771.568831 490.337111 
L 773.639332 490.337111 
L 774.674583 489.506028 
L 775.709833 489.506028 
L 776.745083 489.229 
L 779.850835 489.229 
L 780.886085 488.951973 
L 781.921336 487.843863 
L 783.991837 487.843863 
L 786.062338 487.289808 
L 787.097588 486.735753 
L 788.132839 485.627642 
L 789.168089 483.965477 
L 790.20334 482.026284 
L 791.23859 481.472229 
L 792.27384 481.195202 
L 793.309091 480.087092 
L 794.344341 480.087092 
L 795.379592 479.256009 
L 796.414842 478.701954 
L 797.450093 478.424926 
L 801.591095 478.424926 
L 802.626345 477.870871 
L 803.661596 476.485734 
L 804.696846 474.823568 
L 805.732096 473.992486 
L 806.767347 473.715458 
L 808.837848 473.715458 
L 809.873098 472.884376 
L 810.908349 472.330321 
L 811.943599 472.330321 
L 812.97885 470.945183 
L 815.049351 470.945183 
L 816.084601 470.391128 
L 817.119852 470.391128 
L 818.155102 470.1141 
L 820.225603 470.1141 
L 821.260853 469.837073 
L 833.683859 469.837073 
L 834.719109 469.560045 
L 835.75436 469.560045 
L 836.78961 469.283018 
L 838.860111 469.283018 
L 841.965863 468.451935 
L 843.001113 468.451935 
L 844.036364 468.174908 
L 846.106865 468.174908 
L 847.142115 467.89788 
L 848.177365 467.343825 
L 849.212616 467.343825 
L 851.283117 466.78977 
L 856.459369 466.78977 
L 858.52987 466.235715 
L 859.565121 466.235715 
L 860.600371 465.68166 
L 862.670872 465.68166 
L 863.706122 465.127605 
L 864.741373 464.850577 
L 865.776623 464.850577 
L 866.811874 464.57355 
L 867.847124 464.019495 
L 868.882375 464.019495 
L 869.917625 463.742467 
L 874.058627 463.742467 
L 875.093878 463.188412 
L 878.199629 463.188412 
L 879.234879 462.911384 
L 880.27013 462.911384 
L 881.30538 462.357329 
L 884.411132 462.357329 
L 885.446382 462.080302 
L 888.552134 462.080302 
L 889.587384 461.249219 
L 890.622635 461.249219 
L 891.657885 460.695164 
L 893.728386 460.141109 
L 894.763636 459.587054 
L 897.869388 459.587054 
L 899.939889 459.032999 
L 903.04564 459.032999 
L 904.080891 458.478944 
L 906.151391 458.478944 
L 907.186642 458.201916 
L 908.221892 458.201916 
L 909.257143 457.647861 
L 910.292393 457.370834 
L 912.362894 457.370834 
L 913.398145 456.816779 
L 915.468646 456.816779 
L 916.503896 456.539751 
L 917.539147 455.708668 
L 919.609647 455.154613 
L 921.680148 455.154613 
L 922.715399 454.600558 
L 923.750649 454.600558 
L 924.7859 453.769476 
L 925.82115 453.215421 
L 926.856401 452.384338 
L 928.926902 451.830283 
L 937.208905 451.830283 
L 938.244156 451.276228 
L 940.314657 451.276228 
L 942.385158 450.722173 
L 943.420408 450.168118 
L 944.455659 450.168118 
L 947.56141 449.337035 
L 951.702412 449.337035 
L 952.737662 449.060008 
L 956.878664 449.060008 
L 959.984416 448.228925 
L 963.090167 448.228925 
L 966.195918 447.397842 
L 967.231169 446.843787 
L 968.266419 446.56676 
L 996.218182 446.56676 
L 996.218182 446.56676 
" style="fill:none;stroke:#fbc15e;stroke-linecap:square;stroke-width:1.5;"/>
   </g>
   <g id="line2d_40">
    <path clip-path="url(#p1d00fb0cc4)" d="M 716.700557 498.093882 
L 731.194063 498.093882 
L 732.229314 497.816854 
L 745.68757 497.816854 
L 746.72282 497.539826 
L 751.899072 497.539826 
L 752.934323 496.985771 
L 760.181076 496.985771 
L 761.216327 496.708744 
L 762.251577 496.708744 
L 764.322078 495.600634 
L 773.639332 495.600634 
L 774.674583 494.769551 
L 775.709833 494.492524 
L 780.886085 494.492524 
L 781.921336 494.215496 
L 785.027087 494.215496 
L 786.062338 493.938469 
L 787.097588 493.938469 
L 788.132839 493.384413 
L 789.168089 492.553331 
L 791.23859 491.999276 
L 792.27384 491.445221 
L 793.309091 490.614138 
L 794.344341 489.229 
L 795.379592 489.229 
L 796.414842 488.674945 
L 800.555844 488.674945 
L 801.591095 488.397918 
L 820.225603 488.397918 
L 821.260853 488.12089 
L 831.613358 488.12089 
L 832.648609 487.566835 
L 836.78961 487.566835 
L 837.824861 487.289808 
L 838.860111 487.289808 
L 839.895362 486.735753 
L 850.247866 486.735753 
L 851.283117 486.458725 
L 852.318367 485.627642 
L 853.353618 485.350615 
L 857.49462 485.350615 
L 858.52987 485.073587 
L 859.565121 484.519532 
L 871.988126 484.519532 
L 873.023377 483.965477 
L 874.058627 483.965477 
L 875.093878 483.411422 
L 907.186642 483.411422 
L 910.292393 482.580339 
L 911.327644 482.580339 
L 912.362894 482.026284 
L 919.609647 482.026284 
L 920.644898 481.749257 
L 922.715399 481.749257 
L 923.750649 481.472229 
L 937.208905 481.472229 
L 938.244156 481.195202 
L 939.279406 481.195202 
L 940.314657 480.641147 
L 941.349907 480.364119 
L 947.56141 480.364119 
L 948.59666 480.087092 
L 962.054917 480.087092 
L 963.090167 479.810064 
L 996.218182 479.810064 
L 996.218182 479.810064 
" style="fill:none;stroke:#8eba42;stroke-linecap:square;stroke-width:1.5;"/>
   </g>
   <g id="line2d_41">
    <path clip-path="url(#p1d00fb0cc4)" d="M 714.630056 498.093882 
L 715.665306 498.093882 
L 716.700557 496.985771 
L 717.735807 496.431716 
L 718.771058 496.431716 
L 719.806308 496.154689 
L 720.841558 496.154689 
L 721.876809 495.877661 
L 722.912059 495.877661 
L 724.98256 495.323606 
L 726.017811 494.769551 
L 729.123562 494.769551 
L 730.158813 494.492524 
L 732.229314 494.492524 
L 733.264564 493.938469 
L 734.299814 493.938469 
L 735.335065 492.830358 
L 736.370315 492.830358 
L 737.405566 491.999276 
L 739.476067 490.891166 
L 741.546568 489.229 
L 742.581818 488.674945 
L 743.617069 487.01278 
L 744.652319 486.458725 
L 745.68757 484.79656 
L 746.72282 484.242505 
L 747.758071 480.918174 
L 748.793321 480.364119 
L 749.828571 477.870871 
L 751.899072 475.654651 
L 752.934323 474.269513 
L 753.969573 473.715458 
L 755.004824 471.776266 
L 757.075325 468.451935 
L 758.110575 467.343825 
L 759.145826 466.78977 
L 760.181076 465.958687 
L 761.216327 463.742467 
L 762.251577 459.587054 
L 764.322078 454.323531 
L 765.357328 450.9992 
L 766.392579 449.89109 
L 768.46308 444.904594 
L 769.49833 444.350539 
L 770.533581 443.519457 
L 772.604082 437.978906 
L 773.639332 433.269438 
L 774.674583 431.330245 
L 775.709833 428.282942 
L 776.745083 424.681584 
L 777.780334 419.972116 
L 778.815584 417.755896 
L 780.886085 411.384263 
L 781.921336 410.276152 
L 783.991837 403.073436 
L 785.027087 401.965326 
L 786.062338 398.640996 
L 787.097588 398.086941 
L 788.132839 396.978831 
L 789.168089 395.039638 
L 790.20334 393.377473 
L 791.23859 390.33017 
L 792.27384 390.053142 
L 793.309091 389.499087 
L 794.344341 389.22206 
L 795.379592 386.728812 
L 796.414842 386.728812 
L 797.450093 385.343674 
L 798.485343 383.681509 
L 799.520594 383.404481 
L 801.591095 382.296371 
L 802.626345 381.188261 
L 803.661596 379.803123 
L 804.696846 377.586903 
L 805.732096 375.093655 
L 806.767347 374.262573 
L 807.802597 372.600407 
L 808.837848 370.661215 
L 809.873098 369.553104 
L 810.908349 367.890939 
L 811.943599 367.336884 
L 812.97885 365.397691 
L 814.0141 363.735526 
L 815.049351 363.181471 
L 816.084601 362.073361 
L 818.155102 361.519306 
L 820.225603 361.519306 
L 821.260853 358.749031 
L 822.296104 358.472003 
L 823.331354 355.4247 
L 824.366605 353.20848 
L 825.401855 352.377397 
L 826.437106 351.823342 
L 827.472356 350.99226 
L 828.507607 350.438204 
L 829.542857 350.161177 
L 830.578108 349.607122 
L 831.613358 348.499012 
L 832.648609 348.221984 
L 833.683859 347.390902 
L 834.719109 346.005764 
L 836.78961 341.019268 
L 837.824861 339.357103 
L 838.860111 338.803048 
L 839.895362 337.41791 
L 840.930612 336.3098 
L 841.965863 333.816552 
L 843.001113 332.708442 
L 844.036364 330.769249 
L 845.071614 329.938167 
L 846.106865 327.167891 
L 847.142115 326.890864 
L 848.177365 325.228699 
L 849.212616 324.951671 
L 850.247866 323.566533 
L 851.283117 323.012478 
L 852.318367 322.181396 
L 853.353618 321.904368 
L 854.388868 320.796258 
L 855.424119 319.134093 
L 856.459369 318.580038 
L 857.49462 317.471928 
L 858.52987 315.532735 
L 859.565121 315.255707 
L 860.600371 314.701652 
L 861.635622 312.762459 
L 863.706122 311.654349 
L 864.741373 311.654349 
L 865.776623 309.438129 
L 866.811874 307.498936 
L 867.847124 303.343523 
L 868.882375 301.958386 
L 869.917625 300.29622 
L 870.952876 298.911083 
L 871.988126 298.357028 
L 873.023377 294.75567 
L 874.058627 293.370532 
L 875.093878 292.262422 
L 876.129128 290.877284 
L 878.199629 285.336733 
L 879.234879 281.735375 
L 880.27013 280.350238 
L 881.30538 278.688072 
L 882.340631 277.302935 
L 883.375881 272.593467 
L 884.411132 270.931301 
L 885.446382 268.715081 
L 886.481633 266.775888 
L 887.516883 264.282641 
L 889.587384 260.404255 
L 890.622635 257.356952 
L 891.657885 255.971814 
L 892.693135 253.478567 
L 893.728386 250.431264 
L 894.763636 245.998823 
L 895.798887 242.674493 
L 896.834137 241.84341 
L 897.869388 237.965025 
L 898.904638 234.917722 
L 902.01039 227.437978 
L 903.04564 224.113648 
L 904.080891 221.6204 
L 905.116141 218.296069 
L 906.151391 216.633904 
L 907.186642 214.140656 
L 908.221892 209.431188 
L 909.257143 206.383885 
L 910.292393 204.444693 
L 911.327644 203.61361 
L 912.362894 201.39739 
L 913.398145 198.350087 
L 914.433395 192.255481 
L 915.468646 188.931151 
L 916.503896 186.71493 
L 917.539147 183.944655 
L 918.574397 182.836545 
L 921.680148 178.681132 
L 922.715399 178.127077 
L 923.750649 176.464911 
L 927.891651 172.032471 
L 928.926902 170.647333 
L 929.962152 170.370306 
L 930.997403 168.431113 
L 932.032653 167.877058 
L 933.067904 165.38381 
L 934.103154 165.106782 
L 935.138404 164.2757 
L 936.173655 163.16759 
L 937.208905 161.505424 
L 938.244156 160.397314 
L 941.349907 152.917571 
L 942.385158 150.978378 
L 943.420408 150.147295 
L 945.490909 140.451332 
L 946.52616 137.127001 
L 947.56141 134.910781 
L 949.631911 126.876982 
L 950.667161 125.768872 
L 951.702412 125.491845 
L 953.772913 117.458046 
L 954.808163 115.795881 
L 955.843414 113.579661 
L 956.878664 110.532358 
L 957.913915 109.424247 
L 958.949165 106.653972 
L 959.984416 103.329642 
L 961.019666 102.498559 
L 962.054917 101.944504 
L 963.090167 100.836394 
L 964.125417 99.451256 
L 965.160668 99.174229 
L 966.195918 98.620174 
L 967.231169 98.620174 
L 968.266419 97.789091 
L 996.218182 97.789091 
L 996.218182 97.789091 
" style="fill:none;stroke:#ffb5b8;stroke-linecap:square;stroke-width:1.5;"/>
   </g>
   <g id="patch_3">
    <path d="M 144 518.4 
L 144 77.76 
" style="fill:none;stroke:#ffffff;stroke-linecap:square;stroke-linejoin:miter;"/>
   </g>
   <g id="patch_4">
    <path d="M 1036.8 518.4 
L 1036.8 77.76 
" style="fill:none;stroke:#ffffff;stroke-linecap:square;stroke-linejoin:miter;"/>
   </g>
   <g id="patch_5">
    <path d="M 144 518.4 
L 1036.8 518.4 
" style="fill:none;stroke:#ffffff;stroke-linecap:square;stroke-linejoin:miter;"/>
   </g>
   <g id="patch_6">
    <path d="M 144 77.76 
L 1036.8 77.76 
" style="fill:none;stroke:#ffffff;stroke-linecap:square;stroke-linejoin:miter;"/>
   </g>
   <g id="legend_1">
    <g id="patch_7">
     <path d="M 151 261.8975 
L 399.167188 261.8975 
Q 401.167188 261.8975 401.167188 259.8975 
L 401.167188 84.76 
Q 401.167188 82.76 399.167188 82.76 
L 151 82.76 
Q 149 82.76 149 84.76 
L 149 259.8975 
Q 149 261.8975 151 261.8975 
z
" style="fill:#e5e5e5;opacity:0.8;stroke:#cccccc;stroke-linejoin:miter;stroke-width:0.5;"/>
    </g>
    <g id="line2d_42">
     <path d="M 153 90.858437 
L 173 90.858437 
" style="fill:none;stroke:#e24a33;stroke-linecap:square;stroke-width:1.5;"/>
    </g>
    <g id="line2d_43"/>
    <g id="text_18">
     <!-- ATTILA HILDMANN  usage of 'cdu' -->
     <g transform="translate(181 94.358437)scale(0.1 -0.1)">
      <defs>
       <path d="M 34.1875 63.1875 
L 20.796875 26.90625 
L 47.609375 26.90625 
z
M 28.609375 72.90625 
L 39.796875 72.90625 
L 67.578125 0 
L 57.328125 0 
L 50.6875 18.703125 
L 17.828125 18.703125 
L 11.1875 0 
L 0.78125 0 
z
" id="DejaVuSans-65"/>
       <path d="M -0.296875 72.90625 
L 61.375 72.90625 
L 61.375 64.59375 
L 35.5 64.59375 
L 35.5 0 
L 25.59375 0 
L 25.59375 64.59375 
L -0.296875 64.59375 
z
" id="DejaVuSans-84"/>
       <path d="M 9.8125 72.90625 
L 19.671875 72.90625 
L 19.671875 0 
L 9.8125 0 
z
" id="DejaVuSans-73"/>
       <path d="M 9.8125 72.90625 
L 19.671875 72.90625 
L 19.671875 8.296875 
L 55.171875 8.296875 
L 55.171875 0 
L 9.8125 0 
z
" id="DejaVuSans-76"/>
       <path id="DejaVuSans-32"/>
       <path d="M 9.8125 72.90625 
L 19.671875 72.90625 
L 19.671875 43.015625 
L 55.515625 43.015625 
L 55.515625 72.90625 
L 65.375 72.90625 
L 65.375 0 
L 55.515625 0 
L 55.515625 34.71875 
L 19.671875 34.71875 
L 19.671875 0 
L 9.8125 0 
z
" id="DejaVuSans-72"/>
       <path d="M 19.671875 64.796875 
L 19.671875 8.109375 
L 31.59375 8.109375 
Q 46.6875 8.109375 53.6875 14.9375 
Q 60.6875 21.78125 60.6875 36.53125 
Q 60.6875 51.171875 53.6875 57.984375 
Q 46.6875 64.796875 31.59375 64.796875 
z
M 9.8125 72.90625 
L 30.078125 72.90625 
Q 51.265625 72.90625 61.171875 64.09375 
Q 71.09375 55.28125 71.09375 36.53125 
Q 71.09375 17.671875 61.125 8.828125 
Q 51.171875 0 30.078125 0 
L 9.8125 0 
z
" id="DejaVuSans-68"/>
       <path d="M 9.8125 72.90625 
L 24.515625 72.90625 
L 43.109375 23.296875 
L 61.8125 72.90625 
L 76.515625 72.90625 
L 76.515625 0 
L 66.890625 0 
L 66.890625 64.015625 
L 48.09375 14.015625 
L 38.1875 14.015625 
L 19.390625 64.015625 
L 19.390625 0 
L 9.8125 0 
z
" id="DejaVuSans-77"/>
       <path d="M 9.8125 72.90625 
L 23.09375 72.90625 
L 55.421875 11.921875 
L 55.421875 72.90625 
L 64.984375 72.90625 
L 64.984375 0 
L 51.703125 0 
L 19.390625 60.984375 
L 19.390625 0 
L 9.8125 0 
z
" id="DejaVuSans-78"/>
       <path d="M 8.5 21.578125 
L 8.5 54.6875 
L 17.484375 54.6875 
L 17.484375 21.921875 
Q 17.484375 14.15625 20.5 10.265625 
Q 23.53125 6.390625 29.59375 6.390625 
Q 36.859375 6.390625 41.078125 11.03125 
Q 45.3125 15.671875 45.3125 23.6875 
L 45.3125 54.6875 
L 54.296875 54.6875 
L 54.296875 0 
L 45.3125 0 
L 45.3125 8.40625 
Q 42.046875 3.421875 37.71875 1 
Q 33.40625 -1.421875 27.6875 -1.421875 
Q 18.265625 -1.421875 13.375 4.4375 
Q 8.5 10.296875 8.5 21.578125 
z
M 31.109375 56 
z
" id="DejaVuSans-117"/>
       <path d="M 44.28125 53.078125 
L 44.28125 44.578125 
Q 40.484375 46.53125 36.375 47.5 
Q 32.28125 48.484375 27.875 48.484375 
Q 21.1875 48.484375 17.84375 46.4375 
Q 14.5 44.390625 14.5 40.28125 
Q 14.5 37.15625 16.890625 35.375 
Q 19.28125 33.59375 26.515625 31.984375 
L 29.59375 31.296875 
Q 39.15625 29.25 43.1875 25.515625 
Q 47.21875 21.78125 47.21875 15.09375 
Q 47.21875 7.46875 41.1875 3.015625 
Q 35.15625 -1.421875 24.609375 -1.421875 
Q 20.21875 -1.421875 15.453125 -0.5625 
Q 10.6875 0.296875 5.421875 2 
L 5.421875 11.28125 
Q 10.40625 8.6875 15.234375 7.390625 
Q 20.0625 6.109375 24.8125 6.109375 
Q 31.15625 6.109375 34.5625 8.28125 
Q 37.984375 10.453125 37.984375 14.40625 
Q 37.984375 18.0625 35.515625 20.015625 
Q 33.0625 21.96875 24.703125 23.78125 
L 21.578125 24.515625 
Q 13.234375 26.265625 9.515625 29.90625 
Q 5.8125 33.546875 5.8125 39.890625 
Q 5.8125 47.609375 11.28125 51.796875 
Q 16.75 56 26.8125 56 
Q 31.78125 56 36.171875 55.265625 
Q 40.578125 54.546875 44.28125 53.078125 
z
" id="DejaVuSans-115"/>
       <path d="M 34.28125 27.484375 
Q 23.390625 27.484375 19.1875 25 
Q 14.984375 22.515625 14.984375 16.5 
Q 14.984375 11.71875 18.140625 8.90625 
Q 21.296875 6.109375 26.703125 6.109375 
Q 34.1875 6.109375 38.703125 11.40625 
Q 43.21875 16.703125 43.21875 25.484375 
L 43.21875 27.484375 
z
M 52.203125 31.203125 
L 52.203125 0 
L 43.21875 0 
L 43.21875 8.296875 
Q 40.140625 3.328125 35.546875 0.953125 
Q 30.953125 -1.421875 24.3125 -1.421875 
Q 15.921875 -1.421875 10.953125 3.296875 
Q 6 8.015625 6 15.921875 
Q 6 25.140625 12.171875 29.828125 
Q 18.359375 34.515625 30.609375 34.515625 
L 43.21875 34.515625 
L 43.21875 35.40625 
Q 43.21875 41.609375 39.140625 45 
Q 35.0625 48.390625 27.6875 48.390625 
Q 23 48.390625 18.546875 47.265625 
Q 14.109375 46.140625 10.015625 43.890625 
L 10.015625 52.203125 
Q 14.9375 54.109375 19.578125 55.046875 
Q 24.21875 56 28.609375 56 
Q 40.484375 56 46.34375 49.84375 
Q 52.203125 43.703125 52.203125 31.203125 
z
" id="DejaVuSans-97"/>
       <path d="M 45.40625 27.984375 
Q 45.40625 37.75 41.375 43.109375 
Q 37.359375 48.484375 30.078125 48.484375 
Q 22.859375 48.484375 18.828125 43.109375 
Q 14.796875 37.75 14.796875 27.984375 
Q 14.796875 18.265625 18.828125 12.890625 
Q 22.859375 7.515625 30.078125 7.515625 
Q 37.359375 7.515625 41.375 12.890625 
Q 45.40625 18.265625 45.40625 27.984375 
z
M 54.390625 6.78125 
Q 54.390625 -7.171875 48.1875 -13.984375 
Q 42 -20.796875 29.203125 -20.796875 
Q 24.46875 -20.796875 20.265625 -20.09375 
Q 16.0625 -19.390625 12.109375 -17.921875 
L 12.109375 -9.1875 
Q 16.0625 -11.328125 19.921875 -12.34375 
Q 23.78125 -13.375 27.78125 -13.375 
Q 36.625 -13.375 41.015625 -8.765625 
Q 45.40625 -4.15625 45.40625 5.171875 
L 45.40625 9.625 
Q 42.625 4.78125 38.28125 2.390625 
Q 33.9375 0 27.875 0 
Q 17.828125 0 11.671875 7.65625 
Q 5.515625 15.328125 5.515625 27.984375 
Q 5.515625 40.671875 11.671875 48.328125 
Q 17.828125 56 27.875 56 
Q 33.9375 56 38.28125 53.609375 
Q 42.625 51.21875 45.40625 46.390625 
L 45.40625 54.6875 
L 54.390625 54.6875 
z
" id="DejaVuSans-103"/>
       <path d="M 56.203125 29.59375 
L 56.203125 25.203125 
L 14.890625 25.203125 
Q 15.484375 15.921875 20.484375 11.0625 
Q 25.484375 6.203125 34.421875 6.203125 
Q 39.59375 6.203125 44.453125 7.46875 
Q 49.3125 8.734375 54.109375 11.28125 
L 54.109375 2.78125 
Q 49.265625 0.734375 44.1875 -0.34375 
Q 39.109375 -1.421875 33.890625 -1.421875 
Q 20.796875 -1.421875 13.15625 6.1875 
Q 5.515625 13.8125 5.515625 26.8125 
Q 5.515625 40.234375 12.765625 48.109375 
Q 20.015625 56 32.328125 56 
Q 43.359375 56 49.78125 48.890625 
Q 56.203125 41.796875 56.203125 29.59375 
z
M 47.21875 32.234375 
Q 47.125 39.59375 43.09375 43.984375 
Q 39.0625 48.390625 32.421875 48.390625 
Q 24.90625 48.390625 20.390625 44.140625 
Q 15.875 39.890625 15.1875 32.171875 
z
" id="DejaVuSans-101"/>
       <path d="M 30.609375 48.390625 
Q 23.390625 48.390625 19.1875 42.75 
Q 14.984375 37.109375 14.984375 27.296875 
Q 14.984375 17.484375 19.15625 11.84375 
Q 23.34375 6.203125 30.609375 6.203125 
Q 37.796875 6.203125 41.984375 11.859375 
Q 46.1875 17.53125 46.1875 27.296875 
Q 46.1875 37.015625 41.984375 42.703125 
Q 37.796875 48.390625 30.609375 48.390625 
z
M 30.609375 56 
Q 42.328125 56 49.015625 48.375 
Q 55.71875 40.765625 55.71875 27.296875 
Q 55.71875 13.875 49.015625 6.21875 
Q 42.328125 -1.421875 30.609375 -1.421875 
Q 18.84375 -1.421875 12.171875 6.21875 
Q 5.515625 13.875 5.515625 27.296875 
Q 5.515625 40.765625 12.171875 48.375 
Q 18.84375 56 30.609375 56 
z
" id="DejaVuSans-111"/>
       <path d="M 37.109375 75.984375 
L 37.109375 68.5 
L 28.515625 68.5 
Q 23.6875 68.5 21.796875 66.546875 
Q 19.921875 64.59375 19.921875 59.515625 
L 19.921875 54.6875 
L 34.71875 54.6875 
L 34.71875 47.703125 
L 19.921875 47.703125 
L 19.921875 0 
L 10.890625 0 
L 10.890625 47.703125 
L 2.296875 47.703125 
L 2.296875 54.6875 
L 10.890625 54.6875 
L 10.890625 58.5 
Q 10.890625 67.625 15.140625 71.796875 
Q 19.390625 75.984375 28.609375 75.984375 
z
" id="DejaVuSans-102"/>
       <path d="M 17.921875 72.90625 
L 17.921875 45.796875 
L 9.625 45.796875 
L 9.625 72.90625 
z
" id="DejaVuSans-39"/>
       <path d="M 48.78125 52.59375 
L 48.78125 44.1875 
Q 44.96875 46.296875 41.140625 47.34375 
Q 37.3125 48.390625 33.40625 48.390625 
Q 24.65625 48.390625 19.8125 42.84375 
Q 14.984375 37.3125 14.984375 27.296875 
Q 14.984375 17.28125 19.8125 11.734375 
Q 24.65625 6.203125 33.40625 6.203125 
Q 37.3125 6.203125 41.140625 7.25 
Q 44.96875 8.296875 48.78125 10.40625 
L 48.78125 2.09375 
Q 45.015625 0.34375 40.984375 -0.53125 
Q 36.96875 -1.421875 32.421875 -1.421875 
Q 20.0625 -1.421875 12.78125 6.34375 
Q 5.515625 14.109375 5.515625 27.296875 
Q 5.515625 40.671875 12.859375 48.328125 
Q 20.21875 56 33.015625 56 
Q 37.15625 56 41.109375 55.140625 
Q 45.0625 54.296875 48.78125 52.59375 
z
" id="DejaVuSans-99"/>
       <path d="M 45.40625 46.390625 
L 45.40625 75.984375 
L 54.390625 75.984375 
L 54.390625 0 
L 45.40625 0 
L 45.40625 8.203125 
Q 42.578125 3.328125 38.25 0.953125 
Q 33.9375 -1.421875 27.875 -1.421875 
Q 17.96875 -1.421875 11.734375 6.484375 
Q 5.515625 14.40625 5.515625 27.296875 
Q 5.515625 40.1875 11.734375 48.09375 
Q 17.96875 56 27.875 56 
Q 33.9375 56 38.25 53.625 
Q 42.578125 51.265625 45.40625 46.390625 
z
M 14.796875 27.296875 
Q 14.796875 17.390625 18.875 11.75 
Q 22.953125 6.109375 30.078125 6.109375 
Q 37.203125 6.109375 41.296875 11.75 
Q 45.40625 17.390625 45.40625 27.296875 
Q 45.40625 37.203125 41.296875 42.84375 
Q 37.203125 48.484375 30.078125 48.484375 
Q 22.953125 48.484375 18.875 42.84375 
Q 14.796875 37.203125 14.796875 27.296875 
z
" id="DejaVuSans-100"/>
      </defs>
      <use xlink:href="#DejaVuSans-65"/>
      <use x="60.658203" xlink:href="#DejaVuSans-84"/>
      <use x="119.992188" xlink:href="#DejaVuSans-84"/>
      <use x="181.076172" xlink:href="#DejaVuSans-73"/>
      <use x="210.568359" xlink:href="#DejaVuSans-76"/>
      <use x="268.53125" xlink:href="#DejaVuSans-65"/>
      <use x="336.939453" xlink:href="#DejaVuSans-32"/>
      <use x="368.726562" xlink:href="#DejaVuSans-72"/>
      <use x="443.921875" xlink:href="#DejaVuSans-73"/>
      <use x="473.414062" xlink:href="#DejaVuSans-76"/>
      <use x="529.126953" xlink:href="#DejaVuSans-68"/>
      <use x="606.128906" xlink:href="#DejaVuSans-77"/>
      <use x="692.408203" xlink:href="#DejaVuSans-65"/>
      <use x="760.816406" xlink:href="#DejaVuSans-78"/>
      <use x="835.621094" xlink:href="#DejaVuSans-78"/>
      <use x="910.425781" xlink:href="#DejaVuSans-32"/>
      <use x="942.212891" xlink:href="#DejaVuSans-32"/>
      <use x="974" xlink:href="#DejaVuSans-117"/>
      <use x="1037.378906" xlink:href="#DejaVuSans-115"/>
      <use x="1089.478516" xlink:href="#DejaVuSans-97"/>
      <use x="1150.757812" xlink:href="#DejaVuSans-103"/>
      <use x="1214.234375" xlink:href="#DejaVuSans-101"/>
      <use x="1275.757812" xlink:href="#DejaVuSans-32"/>
      <use x="1307.544922" xlink:href="#DejaVuSans-111"/>
      <use x="1368.726562" xlink:href="#DejaVuSans-102"/>
      <use x="1403.931641" xlink:href="#DejaVuSans-32"/>
      <use x="1435.71875" xlink:href="#DejaVuSans-39"/>
      <use x="1463.208984" xlink:href="#DejaVuSans-99"/>
      <use x="1518.189453" xlink:href="#DejaVuSans-100"/>
      <use x="1581.666016" xlink:href="#DejaVuSans-117"/>
      <use x="1645.044922" xlink:href="#DejaVuSans-39"/>
     </g>
    </g>
    <g id="line2d_44">
     <path d="M 153 105.536562 
L 173 105.536562 
" style="fill:none;stroke:#348abd;stroke-linecap:square;stroke-width:1.5;"/>
    </g>
    <g id="line2d_45"/>
    <g id="text_19">
     <!-- ATTILA HILDMANN  usage of 'spd' -->
     <g transform="translate(181 109.036562)scale(0.1 -0.1)">
      <defs>
       <path d="M 18.109375 8.203125 
L 18.109375 -20.796875 
L 9.078125 -20.796875 
L 9.078125 54.6875 
L 18.109375 54.6875 
L 18.109375 46.390625 
Q 20.953125 51.265625 25.265625 53.625 
Q 29.59375 56 35.59375 56 
Q 45.5625 56 51.78125 48.09375 
Q 58.015625 40.1875 58.015625 27.296875 
Q 58.015625 14.40625 51.78125 6.484375 
Q 45.5625 -1.421875 35.59375 -1.421875 
Q 29.59375 -1.421875 25.265625 0.953125 
Q 20.953125 3.328125 18.109375 8.203125 
z
M 48.6875 27.296875 
Q 48.6875 37.203125 44.609375 42.84375 
Q 40.53125 48.484375 33.40625 48.484375 
Q 26.265625 48.484375 22.1875 42.84375 
Q 18.109375 37.203125 18.109375 27.296875 
Q 18.109375 17.390625 22.1875 11.75 
Q 26.265625 6.109375 33.40625 6.109375 
Q 40.53125 6.109375 44.609375 11.75 
Q 48.6875 17.390625 48.6875 27.296875 
z
" id="DejaVuSans-112"/>
      </defs>
      <use xlink:href="#DejaVuSans-65"/>
      <use x="60.658203" xlink:href="#DejaVuSans-84"/>
      <use x="119.992188" xlink:href="#DejaVuSans-84"/>
      <use x="181.076172" xlink:href="#DejaVuSans-73"/>
      <use x="210.568359" xlink:href="#DejaVuSans-76"/>
      <use x="268.53125" xlink:href="#DejaVuSans-65"/>
      <use x="336.939453" xlink:href="#DejaVuSans-32"/>
      <use x="368.726562" xlink:href="#DejaVuSans-72"/>
      <use x="443.921875" xlink:href="#DejaVuSans-73"/>
      <use x="473.414062" xlink:href="#DejaVuSans-76"/>
      <use x="529.126953" xlink:href="#DejaVuSans-68"/>
      <use x="606.128906" xlink:href="#DejaVuSans-77"/>
      <use x="692.408203" xlink:href="#DejaVuSans-65"/>
      <use x="760.816406" xlink:href="#DejaVuSans-78"/>
      <use x="835.621094" xlink:href="#DejaVuSans-78"/>
      <use x="910.425781" xlink:href="#DejaVuSans-32"/>
      <use x="942.212891" xlink:href="#DejaVuSans-32"/>
      <use x="974" xlink:href="#DejaVuSans-117"/>
      <use x="1037.378906" xlink:href="#DejaVuSans-115"/>
      <use x="1089.478516" xlink:href="#DejaVuSans-97"/>
      <use x="1150.757812" xlink:href="#DejaVuSans-103"/>
      <use x="1214.234375" xlink:href="#DejaVuSans-101"/>
      <use x="1275.757812" xlink:href="#DejaVuSans-32"/>
      <use x="1307.544922" xlink:href="#DejaVuSans-111"/>
      <use x="1368.726562" xlink:href="#DejaVuSans-102"/>
      <use x="1403.931641" xlink:href="#DejaVuSans-32"/>
      <use x="1435.71875" xlink:href="#DejaVuSans-39"/>
      <use x="1463.208984" xlink:href="#DejaVuSans-115"/>
      <use x="1515.308594" xlink:href="#DejaVuSans-112"/>
      <use x="1578.785156" xlink:href="#DejaVuSans-100"/>
      <use x="1642.261719" xlink:href="#DejaVuSans-39"/>
     </g>
    </g>
    <g id="line2d_46">
     <path d="M 153 120.214687 
L 173 120.214687 
" style="fill:none;stroke:#988ed5;stroke-linecap:square;stroke-width:1.5;"/>
    </g>
    <g id="line2d_47"/>
    <g id="text_20">
     <!-- ATTILA HILDMANN  usage of 'afd' -->
     <g transform="translate(181 123.714687)scale(0.1 -0.1)">
      <use xlink:href="#DejaVuSans-65"/>
      <use x="60.658203" xlink:href="#DejaVuSans-84"/>
      <use x="119.992188" xlink:href="#DejaVuSans-84"/>
      <use x="181.076172" xlink:href="#DejaVuSans-73"/>
      <use x="210.568359" xlink:href="#DejaVuSans-76"/>
      <use x="268.53125" xlink:href="#DejaVuSans-65"/>
      <use x="336.939453" xlink:href="#DejaVuSans-32"/>
      <use x="368.726562" xlink:href="#DejaVuSans-72"/>
      <use x="443.921875" xlink:href="#DejaVuSans-73"/>
      <use x="473.414062" xlink:href="#DejaVuSans-76"/>
      <use x="529.126953" xlink:href="#DejaVuSans-68"/>
      <use x="606.128906" xlink:href="#DejaVuSans-77"/>
      <use x="692.408203" xlink:href="#DejaVuSans-65"/>
      <use x="760.816406" xlink:href="#DejaVuSans-78"/>
      <use x="835.621094" xlink:href="#DejaVuSans-78"/>
      <use x="910.425781" xlink:href="#DejaVuSans-32"/>
      <use x="942.212891" xlink:href="#DejaVuSans-32"/>
      <use x="974" xlink:href="#DejaVuSans-117"/>
      <use x="1037.378906" xlink:href="#DejaVuSans-115"/>
      <use x="1089.478516" xlink:href="#DejaVuSans-97"/>
      <use x="1150.757812" xlink:href="#DejaVuSans-103"/>
      <use x="1214.234375" xlink:href="#DejaVuSans-101"/>
      <use x="1275.757812" xlink:href="#DejaVuSans-32"/>
      <use x="1307.544922" xlink:href="#DejaVuSans-111"/>
      <use x="1368.726562" xlink:href="#DejaVuSans-102"/>
      <use x="1403.931641" xlink:href="#DejaVuSans-32"/>
      <use x="1435.71875" xlink:href="#DejaVuSans-39"/>
      <use x="1463.208984" xlink:href="#DejaVuSans-97"/>
      <use x="1524.488281" xlink:href="#DejaVuSans-102"/>
      <use x="1559.693359" xlink:href="#DejaVuSans-100"/>
      <use x="1623.169922" xlink:href="#DejaVuSans-39"/>
     </g>
    </g>
    <g id="line2d_48">
     <path d="M 153 134.892812 
L 173 134.892812 
" style="fill:none;stroke:#777777;stroke-linecap:square;stroke-width:1.5;"/>
    </g>
    <g id="line2d_49"/>
    <g id="text_21">
     <!-- ATTILA HILDMANN  usage of 'fdp' -->
     <g transform="translate(181 138.392812)scale(0.1 -0.1)">
      <use xlink:href="#DejaVuSans-65"/>
      <use x="60.658203" xlink:href="#DejaVuSans-84"/>
      <use x="119.992188" xlink:href="#DejaVuSans-84"/>
      <use x="181.076172" xlink:href="#DejaVuSans-73"/>
      <use x="210.568359" xlink:href="#DejaVuSans-76"/>
      <use x="268.53125" xlink:href="#DejaVuSans-65"/>
      <use x="336.939453" xlink:href="#DejaVuSans-32"/>
      <use x="368.726562" xlink:href="#DejaVuSans-72"/>
      <use x="443.921875" xlink:href="#DejaVuSans-73"/>
      <use x="473.414062" xlink:href="#DejaVuSans-76"/>
      <use x="529.126953" xlink:href="#DejaVuSans-68"/>
      <use x="606.128906" xlink:href="#DejaVuSans-77"/>
      <use x="692.408203" xlink:href="#DejaVuSans-65"/>
      <use x="760.816406" xlink:href="#DejaVuSans-78"/>
      <use x="835.621094" xlink:href="#DejaVuSans-78"/>
      <use x="910.425781" xlink:href="#DejaVuSans-32"/>
      <use x="942.212891" xlink:href="#DejaVuSans-32"/>
      <use x="974" xlink:href="#DejaVuSans-117"/>
      <use x="1037.378906" xlink:href="#DejaVuSans-115"/>
      <use x="1089.478516" xlink:href="#DejaVuSans-97"/>
      <use x="1150.757812" xlink:href="#DejaVuSans-103"/>
      <use x="1214.234375" xlink:href="#DejaVuSans-101"/>
      <use x="1275.757812" xlink:href="#DejaVuSans-32"/>
      <use x="1307.544922" xlink:href="#DejaVuSans-111"/>
      <use x="1368.726562" xlink:href="#DejaVuSans-102"/>
      <use x="1403.931641" xlink:href="#DejaVuSans-32"/>
      <use x="1435.71875" xlink:href="#DejaVuSans-39"/>
      <use x="1463.208984" xlink:href="#DejaVuSans-102"/>
      <use x="1498.414062" xlink:href="#DejaVuSans-100"/>
      <use x="1561.890625" xlink:href="#DejaVuSans-112"/>
      <use x="1625.367188" xlink:href="#DejaVuSans-39"/>
     </g>
    </g>
    <g id="line2d_50">
     <path d="M 153 149.570937 
L 173 149.570937 
" style="fill:none;stroke:#fbc15e;stroke-linecap:square;stroke-width:1.5;"/>
    </g>
    <g id="line2d_51"/>
    <g id="text_22">
     <!-- ATTILA HILDMANN  usage of 'linke' -->
     <g transform="translate(181 153.070937)scale(0.1 -0.1)">
      <defs>
       <path d="M 9.421875 75.984375 
L 18.40625 75.984375 
L 18.40625 0 
L 9.421875 0 
z
" id="DejaVuSans-108"/>
       <path d="M 9.421875 54.6875 
L 18.40625 54.6875 
L 18.40625 0 
L 9.421875 0 
z
M 9.421875 75.984375 
L 18.40625 75.984375 
L 18.40625 64.59375 
L 9.421875 64.59375 
z
" id="DejaVuSans-105"/>
       <path d="M 54.890625 33.015625 
L 54.890625 0 
L 45.90625 0 
L 45.90625 32.71875 
Q 45.90625 40.484375 42.875 44.328125 
Q 39.84375 48.1875 33.796875 48.1875 
Q 26.515625 48.1875 22.3125 43.546875 
Q 18.109375 38.921875 18.109375 30.90625 
L 18.109375 0 
L 9.078125 0 
L 9.078125 54.6875 
L 18.109375 54.6875 
L 18.109375 46.1875 
Q 21.34375 51.125 25.703125 53.5625 
Q 30.078125 56 35.796875 56 
Q 45.21875 56 50.046875 50.171875 
Q 54.890625 44.34375 54.890625 33.015625 
z
" id="DejaVuSans-110"/>
       <path d="M 9.078125 75.984375 
L 18.109375 75.984375 
L 18.109375 31.109375 
L 44.921875 54.6875 
L 56.390625 54.6875 
L 27.390625 29.109375 
L 57.625 0 
L 45.90625 0 
L 18.109375 26.703125 
L 18.109375 0 
L 9.078125 0 
z
" id="DejaVuSans-107"/>
      </defs>
      <use xlink:href="#DejaVuSans-65"/>
      <use x="60.658203" xlink:href="#DejaVuSans-84"/>
      <use x="119.992188" xlink:href="#DejaVuSans-84"/>
      <use x="181.076172" xlink:href="#DejaVuSans-73"/>
      <use x="210.568359" xlink:href="#DejaVuSans-76"/>
      <use x="268.53125" xlink:href="#DejaVuSans-65"/>
      <use x="336.939453" xlink:href="#DejaVuSans-32"/>
      <use x="368.726562" xlink:href="#DejaVuSans-72"/>
      <use x="443.921875" xlink:href="#DejaVuSans-73"/>
      <use x="473.414062" xlink:href="#DejaVuSans-76"/>
      <use x="529.126953" xlink:href="#DejaVuSans-68"/>
      <use x="606.128906" xlink:href="#DejaVuSans-77"/>
      <use x="692.408203" xlink:href="#DejaVuSans-65"/>
      <use x="760.816406" xlink:href="#DejaVuSans-78"/>
      <use x="835.621094" xlink:href="#DejaVuSans-78"/>
      <use x="910.425781" xlink:href="#DejaVuSans-32"/>
      <use x="942.212891" xlink:href="#DejaVuSans-32"/>
      <use x="974" xlink:href="#DejaVuSans-117"/>
      <use x="1037.378906" xlink:href="#DejaVuSans-115"/>
      <use x="1089.478516" xlink:href="#DejaVuSans-97"/>
      <use x="1150.757812" xlink:href="#DejaVuSans-103"/>
      <use x="1214.234375" xlink:href="#DejaVuSans-101"/>
      <use x="1275.757812" xlink:href="#DejaVuSans-32"/>
      <use x="1307.544922" xlink:href="#DejaVuSans-111"/>
      <use x="1368.726562" xlink:href="#DejaVuSans-102"/>
      <use x="1403.931641" xlink:href="#DejaVuSans-32"/>
      <use x="1435.71875" xlink:href="#DejaVuSans-39"/>
      <use x="1463.208984" xlink:href="#DejaVuSans-108"/>
      <use x="1490.992188" xlink:href="#DejaVuSans-105"/>
      <use x="1518.775391" xlink:href="#DejaVuSans-110"/>
      <use x="1582.154297" xlink:href="#DejaVuSans-107"/>
      <use x="1636.439453" xlink:href="#DejaVuSans-101"/>
      <use x="1697.962891" xlink:href="#DejaVuSans-39"/>
     </g>
    </g>
    <g id="line2d_52">
     <path d="M 153 164.249062 
L 173 164.249062 
" style="fill:none;stroke:#8eba42;stroke-linecap:square;stroke-width:1.5;"/>
    </g>
    <g id="line2d_53"/>
    <g id="text_23">
     <!-- ATTILA HILDMANN  usage of 'gruenen' -->
     <g transform="translate(181 167.749062)scale(0.1 -0.1)">
      <defs>
       <path d="M 41.109375 46.296875 
Q 39.59375 47.171875 37.8125 47.578125 
Q 36.03125 48 33.890625 48 
Q 26.265625 48 22.1875 43.046875 
Q 18.109375 38.09375 18.109375 28.8125 
L 18.109375 0 
L 9.078125 0 
L 9.078125 54.6875 
L 18.109375 54.6875 
L 18.109375 46.1875 
Q 20.953125 51.171875 25.484375 53.578125 
Q 30.03125 56 36.53125 56 
Q 37.453125 56 38.578125 55.875 
Q 39.703125 55.765625 41.0625 55.515625 
z
" id="DejaVuSans-114"/>
      </defs>
      <use xlink:href="#DejaVuSans-65"/>
      <use x="60.658203" xlink:href="#DejaVuSans-84"/>
      <use x="119.992188" xlink:href="#DejaVuSans-84"/>
      <use x="181.076172" xlink:href="#DejaVuSans-73"/>
      <use x="210.568359" xlink:href="#DejaVuSans-76"/>
      <use x="268.53125" xlink:href="#DejaVuSans-65"/>
      <use x="336.939453" xlink:href="#DejaVuSans-32"/>
      <use x="368.726562" xlink:href="#DejaVuSans-72"/>
      <use x="443.921875" xlink:href="#DejaVuSans-73"/>
      <use x="473.414062" xlink:href="#DejaVuSans-76"/>
      <use x="529.126953" xlink:href="#DejaVuSans-68"/>
      <use x="606.128906" xlink:href="#DejaVuSans-77"/>
      <use x="692.408203" xlink:href="#DejaVuSans-65"/>
      <use x="760.816406" xlink:href="#DejaVuSans-78"/>
      <use x="835.621094" xlink:href="#DejaVuSans-78"/>
      <use x="910.425781" xlink:href="#DejaVuSans-32"/>
      <use x="942.212891" xlink:href="#DejaVuSans-32"/>
      <use x="974" xlink:href="#DejaVuSans-117"/>
      <use x="1037.378906" xlink:href="#DejaVuSans-115"/>
      <use x="1089.478516" xlink:href="#DejaVuSans-97"/>
      <use x="1150.757812" xlink:href="#DejaVuSans-103"/>
      <use x="1214.234375" xlink:href="#DejaVuSans-101"/>
      <use x="1275.757812" xlink:href="#DejaVuSans-32"/>
      <use x="1307.544922" xlink:href="#DejaVuSans-111"/>
      <use x="1368.726562" xlink:href="#DejaVuSans-102"/>
      <use x="1403.931641" xlink:href="#DejaVuSans-32"/>
      <use x="1435.71875" xlink:href="#DejaVuSans-39"/>
      <use x="1463.208984" xlink:href="#DejaVuSans-103"/>
      <use x="1526.685547" xlink:href="#DejaVuSans-114"/>
      <use x="1567.798828" xlink:href="#DejaVuSans-117"/>
      <use x="1631.177734" xlink:href="#DejaVuSans-101"/>
      <use x="1692.701172" xlink:href="#DejaVuSans-110"/>
      <use x="1756.080078" xlink:href="#DejaVuSans-101"/>
      <use x="1817.603516" xlink:href="#DejaVuSans-110"/>
      <use x="1880.982422" xlink:href="#DejaVuSans-39"/>
     </g>
    </g>
    <g id="line2d_54">
     <path d="M 153 178.927187 
L 173 178.927187 
" style="fill:none;stroke:#ffb5b8;stroke-linecap:square;stroke-width:1.5;"/>
    </g>
    <g id="line2d_55"/>
    <g id="text_24">
     <!-- ATTILA HILDMANN  usage of 'merkel' -->
     <g transform="translate(181 182.427187)scale(0.1 -0.1)">
      <defs>
       <path d="M 52 44.1875 
Q 55.375 50.25 60.0625 53.125 
Q 64.75 56 71.09375 56 
Q 79.640625 56 84.28125 50.015625 
Q 88.921875 44.046875 88.921875 33.015625 
L 88.921875 0 
L 79.890625 0 
L 79.890625 32.71875 
Q 79.890625 40.578125 77.09375 44.375 
Q 74.3125 48.1875 68.609375 48.1875 
Q 61.625 48.1875 57.5625 43.546875 
Q 53.515625 38.921875 53.515625 30.90625 
L 53.515625 0 
L 44.484375 0 
L 44.484375 32.71875 
Q 44.484375 40.625 41.703125 44.40625 
Q 38.921875 48.1875 33.109375 48.1875 
Q 26.21875 48.1875 22.15625 43.53125 
Q 18.109375 38.875 18.109375 30.90625 
L 18.109375 0 
L 9.078125 0 
L 9.078125 54.6875 
L 18.109375 54.6875 
L 18.109375 46.1875 
Q 21.1875 51.21875 25.484375 53.609375 
Q 29.78125 56 35.6875 56 
Q 41.65625 56 45.828125 52.96875 
Q 50 49.953125 52 44.1875 
z
" id="DejaVuSans-109"/>
      </defs>
      <use xlink:href="#DejaVuSans-65"/>
      <use x="60.658203" xlink:href="#DejaVuSans-84"/>
      <use x="119.992188" xlink:href="#DejaVuSans-84"/>
      <use x="181.076172" xlink:href="#DejaVuSans-73"/>
      <use x="210.568359" xlink:href="#DejaVuSans-76"/>
      <use x="268.53125" xlink:href="#DejaVuSans-65"/>
      <use x="336.939453" xlink:href="#DejaVuSans-32"/>
      <use x="368.726562" xlink:href="#DejaVuSans-72"/>
      <use x="443.921875" xlink:href="#DejaVuSans-73"/>
      <use x="473.414062" xlink:href="#DejaVuSans-76"/>
      <use x="529.126953" xlink:href="#DejaVuSans-68"/>
      <use x="606.128906" xlink:href="#DejaVuSans-77"/>
      <use x="692.408203" xlink:href="#DejaVuSans-65"/>
      <use x="760.816406" xlink:href="#DejaVuSans-78"/>
      <use x="835.621094" xlink:href="#DejaVuSans-78"/>
      <use x="910.425781" xlink:href="#DejaVuSans-32"/>
      <use x="942.212891" xlink:href="#DejaVuSans-32"/>
      <use x="974" xlink:href="#DejaVuSans-117"/>
      <use x="1037.378906" xlink:href="#DejaVuSans-115"/>
      <use x="1089.478516" xlink:href="#DejaVuSans-97"/>
      <use x="1150.757812" xlink:href="#DejaVuSans-103"/>
      <use x="1214.234375" xlink:href="#DejaVuSans-101"/>
      <use x="1275.757812" xlink:href="#DejaVuSans-32"/>
      <use x="1307.544922" xlink:href="#DejaVuSans-111"/>
      <use x="1368.726562" xlink:href="#DejaVuSans-102"/>
      <use x="1403.931641" xlink:href="#DejaVuSans-32"/>
      <use x="1435.71875" xlink:href="#DejaVuSans-39"/>
      <use x="1463.208984" xlink:href="#DejaVuSans-109"/>
      <use x="1560.621094" xlink:href="#DejaVuSans-101"/>
      <use x="1622.144531" xlink:href="#DejaVuSans-114"/>
      <use x="1663.257812" xlink:href="#DejaVuSans-107"/>
      <use x="1717.542969" xlink:href="#DejaVuSans-101"/>
      <use x="1779.066406" xlink:href="#DejaVuSans-108"/>
      <use x="1806.849609" xlink:href="#DejaVuSans-39"/>
     </g>
    </g>
    <g id="line2d_56">
     <path d="M 153 193.605312 
L 173 193.605312 
" style="fill:none;stroke:#ffa500;stroke-dasharray:5.55,2.4;stroke-dashoffset:0;stroke-width:1.5;"/>
    </g>
    <g id="text_25">
     <!-- Global Compact for Migration (2018-12-10) -->
     <g transform="translate(181 197.105312)scale(0.1 -0.1)">
      <defs>
       <path d="M 59.515625 10.40625 
L 59.515625 29.984375 
L 43.40625 29.984375 
L 43.40625 38.09375 
L 69.28125 38.09375 
L 69.28125 6.78125 
Q 63.578125 2.734375 56.6875 0.65625 
Q 49.8125 -1.421875 42 -1.421875 
Q 24.90625 -1.421875 15.25 8.5625 
Q 5.609375 18.5625 5.609375 36.375 
Q 5.609375 54.25 15.25 64.234375 
Q 24.90625 74.21875 42 74.21875 
Q 49.125 74.21875 55.546875 72.453125 
Q 61.96875 70.703125 67.390625 67.28125 
L 67.390625 56.78125 
Q 61.921875 61.421875 55.765625 63.765625 
Q 49.609375 66.109375 42.828125 66.109375 
Q 29.4375 66.109375 22.71875 58.640625 
Q 16.015625 51.171875 16.015625 36.375 
Q 16.015625 21.625 22.71875 14.15625 
Q 29.4375 6.6875 42.828125 6.6875 
Q 48.046875 6.6875 52.140625 7.59375 
Q 56.25 8.5 59.515625 10.40625 
z
" id="DejaVuSans-71"/>
       <path d="M 48.6875 27.296875 
Q 48.6875 37.203125 44.609375 42.84375 
Q 40.53125 48.484375 33.40625 48.484375 
Q 26.265625 48.484375 22.1875 42.84375 
Q 18.109375 37.203125 18.109375 27.296875 
Q 18.109375 17.390625 22.1875 11.75 
Q 26.265625 6.109375 33.40625 6.109375 
Q 40.53125 6.109375 44.609375 11.75 
Q 48.6875 17.390625 48.6875 27.296875 
z
M 18.109375 46.390625 
Q 20.953125 51.265625 25.265625 53.625 
Q 29.59375 56 35.59375 56 
Q 45.5625 56 51.78125 48.09375 
Q 58.015625 40.1875 58.015625 27.296875 
Q 58.015625 14.40625 51.78125 6.484375 
Q 45.5625 -1.421875 35.59375 -1.421875 
Q 29.59375 -1.421875 25.265625 0.953125 
Q 20.953125 3.328125 18.109375 8.203125 
L 18.109375 0 
L 9.078125 0 
L 9.078125 75.984375 
L 18.109375 75.984375 
z
" id="DejaVuSans-98"/>
       <path d="M 64.40625 67.28125 
L 64.40625 56.890625 
Q 59.421875 61.53125 53.78125 63.8125 
Q 48.140625 66.109375 41.796875 66.109375 
Q 29.296875 66.109375 22.65625 58.46875 
Q 16.015625 50.828125 16.015625 36.375 
Q 16.015625 21.96875 22.65625 14.328125 
Q 29.296875 6.6875 41.796875 6.6875 
Q 48.140625 6.6875 53.78125 8.984375 
Q 59.421875 11.28125 64.40625 15.921875 
L 64.40625 5.609375 
Q 59.234375 2.09375 53.4375 0.328125 
Q 47.65625 -1.421875 41.21875 -1.421875 
Q 24.65625 -1.421875 15.125 8.703125 
Q 5.609375 18.84375 5.609375 36.375 
Q 5.609375 53.953125 15.125 64.078125 
Q 24.65625 74.21875 41.21875 74.21875 
Q 47.75 74.21875 53.53125 72.484375 
Q 59.328125 70.75 64.40625 67.28125 
z
" id="DejaVuSans-67"/>
       <path d="M 18.3125 70.21875 
L 18.3125 54.6875 
L 36.8125 54.6875 
L 36.8125 47.703125 
L 18.3125 47.703125 
L 18.3125 18.015625 
Q 18.3125 11.328125 20.140625 9.421875 
Q 21.96875 7.515625 27.59375 7.515625 
L 36.8125 7.515625 
L 36.8125 0 
L 27.59375 0 
Q 17.1875 0 13.234375 3.875 
Q 9.28125 7.765625 9.28125 18.015625 
L 9.28125 47.703125 
L 2.6875 47.703125 
L 2.6875 54.6875 
L 9.28125 54.6875 
L 9.28125 70.21875 
z
" id="DejaVuSans-116"/>
       <path d="M 31 75.875 
Q 24.46875 64.65625 21.28125 53.65625 
Q 18.109375 42.671875 18.109375 31.390625 
Q 18.109375 20.125 21.3125 9.0625 
Q 24.515625 -2 31 -13.1875 
L 23.1875 -13.1875 
Q 15.875 -1.703125 12.234375 9.375 
Q 8.59375 20.453125 8.59375 31.390625 
Q 8.59375 42.28125 12.203125 53.3125 
Q 15.828125 64.359375 23.1875 75.875 
z
" id="DejaVuSans-40"/>
       <path d="M 8.015625 75.875 
L 15.828125 75.875 
Q 23.140625 64.359375 26.78125 53.3125 
Q 30.421875 42.28125 30.421875 31.390625 
Q 30.421875 20.453125 26.78125 9.375 
Q 23.140625 -1.703125 15.828125 -13.1875 
L 8.015625 -13.1875 
Q 14.5 -2 17.703125 9.0625 
Q 20.90625 20.125 20.90625 31.390625 
Q 20.90625 42.671875 17.703125 53.65625 
Q 14.5 64.65625 8.015625 75.875 
z
" id="DejaVuSans-41"/>
      </defs>
      <use xlink:href="#DejaVuSans-71"/>
      <use x="77.490234" xlink:href="#DejaVuSans-108"/>
      <use x="105.273438" xlink:href="#DejaVuSans-111"/>
      <use x="166.455078" xlink:href="#DejaVuSans-98"/>
      <use x="229.931641" xlink:href="#DejaVuSans-97"/>
      <use x="291.210938" xlink:href="#DejaVuSans-108"/>
      <use x="318.994141" xlink:href="#DejaVuSans-32"/>
      <use x="350.78125" xlink:href="#DejaVuSans-67"/>
      <use x="420.605469" xlink:href="#DejaVuSans-111"/>
      <use x="481.787109" xlink:href="#DejaVuSans-109"/>
      <use x="579.199219" xlink:href="#DejaVuSans-112"/>
      <use x="642.675781" xlink:href="#DejaVuSans-97"/>
      <use x="703.955078" xlink:href="#DejaVuSans-99"/>
      <use x="758.935547" xlink:href="#DejaVuSans-116"/>
      <use x="798.144531" xlink:href="#DejaVuSans-32"/>
      <use x="829.931641" xlink:href="#DejaVuSans-102"/>
      <use x="865.136719" xlink:href="#DejaVuSans-111"/>
      <use x="926.318359" xlink:href="#DejaVuSans-114"/>
      <use x="967.431641" xlink:href="#DejaVuSans-32"/>
      <use x="999.21875" xlink:href="#DejaVuSans-77"/>
      <use x="1085.498047" xlink:href="#DejaVuSans-105"/>
      <use x="1113.28125" xlink:href="#DejaVuSans-103"/>
      <use x="1176.757812" xlink:href="#DejaVuSans-114"/>
      <use x="1217.871094" xlink:href="#DejaVuSans-97"/>
      <use x="1279.150391" xlink:href="#DejaVuSans-116"/>
      <use x="1318.359375" xlink:href="#DejaVuSans-105"/>
      <use x="1346.142578" xlink:href="#DejaVuSans-111"/>
      <use x="1407.324219" xlink:href="#DejaVuSans-110"/>
      <use x="1470.703125" xlink:href="#DejaVuSans-32"/>
      <use x="1502.490234" xlink:href="#DejaVuSans-40"/>
      <use x="1541.503906" xlink:href="#DejaVuSans-50"/>
      <use x="1605.126953" xlink:href="#DejaVuSans-48"/>
      <use x="1668.75" xlink:href="#DejaVuSans-49"/>
      <use x="1732.373047" xlink:href="#DejaVuSans-56"/>
      <use x="1795.996094" xlink:href="#DejaVuSans-45"/>
      <use x="1832.080078" xlink:href="#DejaVuSans-49"/>
      <use x="1895.703125" xlink:href="#DejaVuSans-50"/>
      <use x="1959.326172" xlink:href="#DejaVuSans-45"/>
      <use x="1995.410156" xlink:href="#DejaVuSans-49"/>
      <use x="2059.033203" xlink:href="#DejaVuSans-48"/>
      <use x="2122.65625" xlink:href="#DejaVuSans-41"/>
     </g>
    </g>
    <g id="line2d_57">
     <path d="M 153 208.283437 
L 173 208.283437 
" style="fill:none;stroke:#808080;stroke-dasharray:5.55,2.4;stroke-dashoffset:0;stroke-width:1.5;"/>
    </g>
    <g id="text_26">
     <!-- Corona Patient Zero Germany -->
     <g transform="translate(181 211.783437)scale(0.1 -0.1)">
      <defs>
       <path d="M 19.671875 64.796875 
L 19.671875 37.40625 
L 32.078125 37.40625 
Q 38.96875 37.40625 42.71875 40.96875 
Q 46.484375 44.53125 46.484375 51.125 
Q 46.484375 57.671875 42.71875 61.234375 
Q 38.96875 64.796875 32.078125 64.796875 
z
M 9.8125 72.90625 
L 32.078125 72.90625 
Q 44.34375 72.90625 50.609375 67.359375 
Q 56.890625 61.8125 56.890625 51.125 
Q 56.890625 40.328125 50.609375 34.8125 
Q 44.34375 29.296875 32.078125 29.296875 
L 19.671875 29.296875 
L 19.671875 0 
L 9.8125 0 
z
" id="DejaVuSans-80"/>
       <path d="M 5.609375 72.90625 
L 62.890625 72.90625 
L 62.890625 65.375 
L 16.796875 8.296875 
L 64.015625 8.296875 
L 64.015625 0 
L 4.5 0 
L 4.5 7.515625 
L 50.59375 64.59375 
L 5.609375 64.59375 
z
" id="DejaVuSans-90"/>
       <path d="M 32.171875 -5.078125 
Q 28.375 -14.84375 24.75 -17.8125 
Q 21.140625 -20.796875 15.09375 -20.796875 
L 7.90625 -20.796875 
L 7.90625 -13.28125 
L 13.1875 -13.28125 
Q 16.890625 -13.28125 18.9375 -11.515625 
Q 21 -9.765625 23.484375 -3.21875 
L 25.09375 0.875 
L 2.984375 54.6875 
L 12.5 54.6875 
L 29.59375 11.921875 
L 46.6875 54.6875 
L 56.203125 54.6875 
z
" id="DejaVuSans-121"/>
      </defs>
      <use xlink:href="#DejaVuSans-67"/>
      <use x="69.824219" xlink:href="#DejaVuSans-111"/>
      <use x="131.005859" xlink:href="#DejaVuSans-114"/>
      <use x="169.869141" xlink:href="#DejaVuSans-111"/>
      <use x="231.050781" xlink:href="#DejaVuSans-110"/>
      <use x="294.429688" xlink:href="#DejaVuSans-97"/>
      <use x="355.708984" xlink:href="#DejaVuSans-32"/>
      <use x="387.496094" xlink:href="#DejaVuSans-80"/>
      <use x="443.298828" xlink:href="#DejaVuSans-97"/>
      <use x="504.578125" xlink:href="#DejaVuSans-116"/>
      <use x="543.787109" xlink:href="#DejaVuSans-105"/>
      <use x="571.570312" xlink:href="#DejaVuSans-101"/>
      <use x="633.09375" xlink:href="#DejaVuSans-110"/>
      <use x="696.472656" xlink:href="#DejaVuSans-116"/>
      <use x="735.681641" xlink:href="#DejaVuSans-32"/>
      <use x="767.46875" xlink:href="#DejaVuSans-90"/>
      <use x="835.974609" xlink:href="#DejaVuSans-101"/>
      <use x="897.498047" xlink:href="#DejaVuSans-114"/>
      <use x="936.361328" xlink:href="#DejaVuSans-111"/>
      <use x="997.542969" xlink:href="#DejaVuSans-32"/>
      <use x="1029.330078" xlink:href="#DejaVuSans-71"/>
      <use x="1106.820312" xlink:href="#DejaVuSans-101"/>
      <use x="1168.34375" xlink:href="#DejaVuSans-114"/>
      <use x="1207.707031" xlink:href="#DejaVuSans-109"/>
      <use x="1305.119141" xlink:href="#DejaVuSans-97"/>
      <use x="1366.398438" xlink:href="#DejaVuSans-110"/>
      <use x="1429.777344" xlink:href="#DejaVuSans-121"/>
     </g>
    </g>
    <g id="line2d_58">
     <path d="M 153 222.961562 
L 173 222.961562 
" style="fill:none;stroke:#800080;stroke-dasharray:5.55,2.4;stroke-dashoffset:0;stroke-width:1.5;"/>
    </g>
    <g id="text_27">
     <!-- 1. Lockdown Germany (2020-03-23) -->
     <g transform="translate(181 226.461562)scale(0.1 -0.1)">
      <defs>
       <path d="M 10.6875 12.40625 
L 21 12.40625 
L 21 0 
L 10.6875 0 
z
" id="DejaVuSans-46"/>
       <path d="M 4.203125 54.6875 
L 13.1875 54.6875 
L 24.421875 12.015625 
L 35.59375 54.6875 
L 46.1875 54.6875 
L 57.421875 12.015625 
L 68.609375 54.6875 
L 77.59375 54.6875 
L 63.28125 0 
L 52.6875 0 
L 40.921875 44.828125 
L 29.109375 0 
L 18.5 0 
z
" id="DejaVuSans-119"/>
       <path d="M 40.578125 39.3125 
Q 47.65625 37.796875 51.625 33 
Q 55.609375 28.21875 55.609375 21.1875 
Q 55.609375 10.40625 48.1875 4.484375 
Q 40.765625 -1.421875 27.09375 -1.421875 
Q 22.515625 -1.421875 17.65625 -0.515625 
Q 12.796875 0.390625 7.625 2.203125 
L 7.625 11.71875 
Q 11.71875 9.328125 16.59375 8.109375 
Q 21.484375 6.890625 26.8125 6.890625 
Q 36.078125 6.890625 40.9375 10.546875 
Q 45.796875 14.203125 45.796875 21.1875 
Q 45.796875 27.640625 41.28125 31.265625 
Q 36.765625 34.90625 28.71875 34.90625 
L 20.21875 34.90625 
L 20.21875 43.015625 
L 29.109375 43.015625 
Q 36.375 43.015625 40.234375 45.921875 
Q 44.09375 48.828125 44.09375 54.296875 
Q 44.09375 59.90625 40.109375 62.90625 
Q 36.140625 65.921875 28.71875 65.921875 
Q 24.65625 65.921875 20.015625 65.03125 
Q 15.375 64.15625 9.8125 62.3125 
L 9.8125 71.09375 
Q 15.4375 72.65625 20.34375 73.4375 
Q 25.25 74.21875 29.59375 74.21875 
Q 40.828125 74.21875 47.359375 69.109375 
Q 53.90625 64.015625 53.90625 55.328125 
Q 53.90625 49.265625 50.4375 45.09375 
Q 46.96875 40.921875 40.578125 39.3125 
z
" id="DejaVuSans-51"/>
      </defs>
      <use xlink:href="#DejaVuSans-49"/>
      <use x="63.623047" xlink:href="#DejaVuSans-46"/>
      <use x="95.410156" xlink:href="#DejaVuSans-32"/>
      <use x="127.197266" xlink:href="#DejaVuSans-76"/>
      <use x="181.160156" xlink:href="#DejaVuSans-111"/>
      <use x="242.341797" xlink:href="#DejaVuSans-99"/>
      <use x="297.322266" xlink:href="#DejaVuSans-107"/>
      <use x="355.232422" xlink:href="#DejaVuSans-100"/>
      <use x="418.708984" xlink:href="#DejaVuSans-111"/>
      <use x="479.890625" xlink:href="#DejaVuSans-119"/>
      <use x="561.677734" xlink:href="#DejaVuSans-110"/>
      <use x="625.056641" xlink:href="#DejaVuSans-32"/>
      <use x="656.84375" xlink:href="#DejaVuSans-71"/>
      <use x="734.333984" xlink:href="#DejaVuSans-101"/>
      <use x="795.857422" xlink:href="#DejaVuSans-114"/>
      <use x="835.220703" xlink:href="#DejaVuSans-109"/>
      <use x="932.632812" xlink:href="#DejaVuSans-97"/>
      <use x="993.912109" xlink:href="#DejaVuSans-110"/>
      <use x="1057.291016" xlink:href="#DejaVuSans-121"/>
      <use x="1116.470703" xlink:href="#DejaVuSans-32"/>
      <use x="1148.257812" xlink:href="#DejaVuSans-40"/>
      <use x="1187.271484" xlink:href="#DejaVuSans-50"/>
      <use x="1250.894531" xlink:href="#DejaVuSans-48"/>
      <use x="1314.517578" xlink:href="#DejaVuSans-50"/>
      <use x="1378.140625" xlink:href="#DejaVuSans-48"/>
      <use x="1441.763672" xlink:href="#DejaVuSans-45"/>
      <use x="1477.847656" xlink:href="#DejaVuSans-48"/>
      <use x="1541.470703" xlink:href="#DejaVuSans-51"/>
      <use x="1605.09375" xlink:href="#DejaVuSans-45"/>
      <use x="1641.177734" xlink:href="#DejaVuSans-50"/>
      <use x="1704.800781" xlink:href="#DejaVuSans-51"/>
      <use x="1768.423828" xlink:href="#DejaVuSans-41"/>
     </g>
    </g>
    <g id="line2d_59">
     <path d="M 153 237.639687 
L 173 237.639687 
" style="fill:none;stroke:#800080;stroke-dasharray:5.55,2.4;stroke-dashoffset:0;stroke-width:1.5;"/>
    </g>
    <g id="text_28">
     <!-- 2. Lockdown light Germany (2020-11-02) -->
     <g transform="translate(181 241.139687)scale(0.1 -0.1)">
      <defs>
       <path d="M 54.890625 33.015625 
L 54.890625 0 
L 45.90625 0 
L 45.90625 32.71875 
Q 45.90625 40.484375 42.875 44.328125 
Q 39.84375 48.1875 33.796875 48.1875 
Q 26.515625 48.1875 22.3125 43.546875 
Q 18.109375 38.921875 18.109375 30.90625 
L 18.109375 0 
L 9.078125 0 
L 9.078125 75.984375 
L 18.109375 75.984375 
L 18.109375 46.1875 
Q 21.34375 51.125 25.703125 53.5625 
Q 30.078125 56 35.796875 56 
Q 45.21875 56 50.046875 50.171875 
Q 54.890625 44.34375 54.890625 33.015625 
z
" id="DejaVuSans-104"/>
      </defs>
      <use xlink:href="#DejaVuSans-50"/>
      <use x="63.623047" xlink:href="#DejaVuSans-46"/>
      <use x="95.410156" xlink:href="#DejaVuSans-32"/>
      <use x="127.197266" xlink:href="#DejaVuSans-76"/>
      <use x="181.160156" xlink:href="#DejaVuSans-111"/>
      <use x="242.341797" xlink:href="#DejaVuSans-99"/>
      <use x="297.322266" xlink:href="#DejaVuSans-107"/>
      <use x="355.232422" xlink:href="#DejaVuSans-100"/>
      <use x="418.708984" xlink:href="#DejaVuSans-111"/>
      <use x="479.890625" xlink:href="#DejaVuSans-119"/>
      <use x="561.677734" xlink:href="#DejaVuSans-110"/>
      <use x="625.056641" xlink:href="#DejaVuSans-32"/>
      <use x="656.84375" xlink:href="#DejaVuSans-108"/>
      <use x="684.626953" xlink:href="#DejaVuSans-105"/>
      <use x="712.410156" xlink:href="#DejaVuSans-103"/>
      <use x="775.886719" xlink:href="#DejaVuSans-104"/>
      <use x="839.265625" xlink:href="#DejaVuSans-116"/>
      <use x="878.474609" xlink:href="#DejaVuSans-32"/>
      <use x="910.261719" xlink:href="#DejaVuSans-71"/>
      <use x="987.751953" xlink:href="#DejaVuSans-101"/>
      <use x="1049.275391" xlink:href="#DejaVuSans-114"/>
      <use x="1088.638672" xlink:href="#DejaVuSans-109"/>
      <use x="1186.050781" xlink:href="#DejaVuSans-97"/>
      <use x="1247.330078" xlink:href="#DejaVuSans-110"/>
      <use x="1310.708984" xlink:href="#DejaVuSans-121"/>
      <use x="1369.888672" xlink:href="#DejaVuSans-32"/>
      <use x="1401.675781" xlink:href="#DejaVuSans-40"/>
      <use x="1440.689453" xlink:href="#DejaVuSans-50"/>
      <use x="1504.3125" xlink:href="#DejaVuSans-48"/>
      <use x="1567.935547" xlink:href="#DejaVuSans-50"/>
      <use x="1631.558594" xlink:href="#DejaVuSans-48"/>
      <use x="1695.181641" xlink:href="#DejaVuSans-45"/>
      <use x="1731.265625" xlink:href="#DejaVuSans-49"/>
      <use x="1794.888672" xlink:href="#DejaVuSans-49"/>
      <use x="1858.511719" xlink:href="#DejaVuSans-45"/>
      <use x="1894.595703" xlink:href="#DejaVuSans-48"/>
      <use x="1958.21875" xlink:href="#DejaVuSans-50"/>
      <use x="2021.841797" xlink:href="#DejaVuSans-41"/>
     </g>
    </g>
    <g id="line2d_60">
     <path d="M 153 252.317812 
L 173 252.317812 
" style="fill:none;stroke:#800080;stroke-dasharray:5.55,2.4;stroke-dashoffset:0;stroke-width:1.5;"/>
    </g>
    <g id="text_29">
     <!-- 3. Lockdown Germany (2020-12-16) -->
     <g transform="translate(181 255.817812)scale(0.1 -0.1)">
      <use xlink:href="#DejaVuSans-51"/>
      <use x="63.623047" xlink:href="#DejaVuSans-46"/>
      <use x="95.410156" xlink:href="#DejaVuSans-32"/>
      <use x="127.197266" xlink:href="#DejaVuSans-76"/>
      <use x="181.160156" xlink:href="#DejaVuSans-111"/>
      <use x="242.341797" xlink:href="#DejaVuSans-99"/>
      <use x="297.322266" xlink:href="#DejaVuSans-107"/>
      <use x="355.232422" xlink:href="#DejaVuSans-100"/>
      <use x="418.708984" xlink:href="#DejaVuSans-111"/>
      <use x="479.890625" xlink:href="#DejaVuSans-119"/>
      <use x="561.677734" xlink:href="#DejaVuSans-110"/>
      <use x="625.056641" xlink:href="#DejaVuSans-32"/>
      <use x="656.84375" xlink:href="#DejaVuSans-71"/>
      <use x="734.333984" xlink:href="#DejaVuSans-101"/>
      <use x="795.857422" xlink:href="#DejaVuSans-114"/>
      <use x="835.220703" xlink:href="#DejaVuSans-109"/>
      <use x="932.632812" xlink:href="#DejaVuSans-97"/>
      <use x="993.912109" xlink:href="#DejaVuSans-110"/>
      <use x="1057.291016" xlink:href="#DejaVuSans-121"/>
      <use x="1116.470703" xlink:href="#DejaVuSans-32"/>
      <use x="1148.257812" xlink:href="#DejaVuSans-40"/>
      <use x="1187.271484" xlink:href="#DejaVuSans-50"/>
      <use x="1250.894531" xlink:href="#DejaVuSans-48"/>
      <use x="1314.517578" xlink:href="#DejaVuSans-50"/>
      <use x="1378.140625" xlink:href="#DejaVuSans-48"/>
      <use x="1441.763672" xlink:href="#DejaVuSans-45"/>
      <use x="1477.847656" xlink:href="#DejaVuSans-49"/>
      <use x="1541.470703" xlink:href="#DejaVuSans-50"/>
      <use x="1605.09375" xlink:href="#DejaVuSans-45"/>
      <use x="1641.177734" xlink:href="#DejaVuSans-49"/>
      <use x="1704.800781" xlink:href="#DejaVuSans-54"/>
      <use x="1768.423828" xlink:href="#DejaVuSans-41"/>
     </g>
    </g>
   </g>
  </g>
 </g>
 <defs>
  <clipPath id="p1d00fb0cc4">
   <rect height="440.64" width="892.8" x="144" y="77.76"/>
  </clipPath>
 </defs>
</svg>
